<?xml version="1.0" standalone="no"?>
<!DOCTYPE svg PUBLIC "-//W3C//DTD SVG 1.1//EN" "http://www.w3.org/Graphics/SVG/1.1/DTD/svg11.dtd" >
<svg xmlns="http://www.w3.org/2000/svg" xmlns:xlink="http://www.w3.org/1999/xlink" version="1.1">
<metadata>
Created by FontForge 20161013 at Tue Mar 21 20:11:49 2017
 By ,,,
Copyright 2017 Allianz SE  All rights preserved
</metadata>
<defs>
<font id="AllianzNeo-BoldItalic" horiz-adv-x="0" >
  <font-face 
    font-family="Allianz Neo"
    font-weight="700"
    font-style="italic"
    font-stretch="normal"
    units-per-em="1000"
    panose-1="2 11 8 4 2 2 3 9 2 4"
    ascent="764"
    descent="-236"
    x-height="481"
    cap-height="667"
    bbox="-697 -292 1093 915"
    underline-thickness="50"
    underline-position="-200"
    slope="-11.3"
    unicode-range="U+000D-FEFF"
  />
<missing-glyph horiz-adv-x="480" 
d="M37 0v667h440v-667h-440zM105 68h304v531h-304v-531z" />
    <glyph glyph-name="uniFB00" unicode="ff" horiz-adv-x="680" 
d="M256 525l-9 -44h113l-23 -119h-114l-72 -362h-130l73 362h-59l24 119h59l13 67q33 162 186 162q61 0 100 -19l-42 -110q-28 10 -56 10q-27 0 -41.5 -14.5t-21.5 -51.5zM669 591q-27 0 -41.5 -14.5t-21.5 -51.5l-9 -44h113l-23 -119h-114l-72 -362h-130l73 362h-59l24 119
h59l13 67q33 162 186 162q61 0 100 -19l-42 -110q-28 10 -56 10z" />
    <glyph glyph-name="fi" unicode="fi" horiz-adv-x="585" 
d="M360 481l-23 -119h-114l-72 -362h-130l73 362h-59l24 119h59l13 67q33 162 186 162q61 0 100 -19l-42 -110q-28 10 -56 10q-27 0 -41.5 -14.5t-21.5 -51.5l-9 -44h113zM535 708q36 0 57.5 -20.5t21.5 -54.5q0 -33 -21.5 -54t-57.5 -21q-35 0 -57 21t-22 54q0 34 22 54.5
t57 20.5zM344 0l96 481h130l-96 -481h-130z" />
    <glyph glyph-name="fl" unicode="fl" horiz-adv-x="621" 
d="M256 525l-9 -44h113l-23 -119h-114l-72 -362h-130l73 362h-59l24 119h59l13 67q33 162 186 162q61 0 100 -19l-42 -110q-28 10 -56 10q-27 0 -41.5 -14.5t-21.5 -51.5zM505 146q0 -32 37 -32q18 0 35 6l-10 -118q-24 -7 -62 -7q-68 0 -100.5 26.5t-32.5 88.5q0 29 7 64
l105 528h130l-106 -534q-3 -14 -3 -22z" />
    <glyph glyph-name="uniFB03" unicode="ffi" horiz-adv-x="935" 
d="M256 525l-9 -44h113l-23 -119h-114l-72 -362h-130l73 362h-59l24 119h59l13 67q33 162 186 162q61 0 100 -19l-42 -110q-28 10 -56 10q-27 0 -41.5 -14.5t-21.5 -51.5zM710 481l-23 -119h-114l-72 -362h-130l73 362h-59l24 119h59l13 67q33 162 186 162q61 0 100 -19
l-42 -110q-28 10 -56 10q-27 0 -41.5 -14.5t-21.5 -51.5l-9 -44h113zM885 708q36 0 57.5 -20.5t21.5 -54.5q0 -33 -21.5 -54t-57.5 -21q-35 0 -57 21t-22 54q0 34 22 54.5t57 20.5zM694 0l96 481h130l-96 -481h-130z" />
    <glyph glyph-name="uniFB04" unicode="ffl" horiz-adv-x="971" 
d="M256 525l-9 -44h113l-23 -119h-114l-72 -362h-130l73 362h-59l24 119h59l13 67q33 162 186 162q61 0 100 -19l-42 -110q-28 10 -56 10q-27 0 -41.5 -14.5t-21.5 -51.5zM606 525l-9 -44h113l-23 -119h-114l-72 -362h-130l73 362h-59l24 119h59l13 67q33 162 186 162
q61 0 100 -19l-42 -110q-28 10 -56 10q-27 0 -41.5 -14.5t-21.5 -51.5zM855 146q0 -32 37 -32q19 0 35 6l-10 -118q-24 -7 -62 -7q-68 0 -100.5 26.5t-32.5 88.5q0 29 7 64l105 528h130l-106 -534q-3 -13 -3 -22z" />
    <glyph glyph-name=".notdef" horiz-adv-x="480" 
d="M37 0v667h440v-667h-440zM105 68h304v531h-304v-531z" />
    <glyph glyph-name=".null" 
 />
    <glyph glyph-name="nonmarkingreturn" horiz-adv-x="333" 
 />
    <glyph glyph-name="NULL" 
 />
    <glyph glyph-name="NULL" 
 />
    <glyph glyph-name="CR" unicode="&#xd;" horiz-adv-x="226" 
 />
    <glyph glyph-name="space" unicode=" " horiz-adv-x="226" 
 />
    <glyph glyph-name="exclam" unicode="!" horiz-adv-x="272" 
d="M77 223l74 444h140l-103 -444h-111zM105 -11q-37 0 -61 24t-24 61t24 60.5t61 23.5t60.5 -23.5t23.5 -60.5t-23.5 -61t-60.5 -24z" />
    <glyph glyph-name="quotedbl" unicode="&#x22;" horiz-adv-x="405" 
d="M84 410l32 257h149l-70 -257h-111zM278 410l32 257h149l-70 -257h-111z" />
    <glyph glyph-name="numbersign" unicode="#" horiz-adv-x="655" 
d="M636 395h-89l-46 -122h89l-41 -111h-89l-61 -162h-118l61 162h-120l-61 -162h-118l61 162h-89l41 111h90l46 122h-90l42 110h89l61 162h118l-61 -162h120l61 162h117l-61 -162h90zM384 273l46 122h-120l-46 -122h120z" />
    <glyph glyph-name="dollar" unicode="$" horiz-adv-x="536" 
d="M237 461q0 -23 26 -39t63.5 -28.5t74.5 -30t63 -53.5t26 -89q0 -73 -52.5 -123t-135.5 -67l-14 -71h-134l13 67q-92 8 -146 40l55 125q66 -39 151 -39q57 0 90 16.5t33 41.5q0 20 -26 35t-63 28.5t-73.5 31.5t-62.5 55.5t-26 90.5q0 75 53 126.5t138 63.5l13 64h134
l-13 -68q69 -10 117 -38l-55 -124q-67 41 -154 41q-48 0 -71.5 -16t-23.5 -40z" />
    <glyph glyph-name="percent" unicode="%" horiz-adv-x="763" 
d="M229 356q-66 0 -106.5 41.5t-40.5 106.5q0 77 46 125.5t125 48.5q66 0 106.5 -41.5t40.5 -107.5q0 -76 -46.5 -124.5t-124.5 -48.5zM655 667h145l-655 -667h-145zM236 454q28 0 42.5 20.5t14.5 48.5q0 26 -12 41.5t-35 15.5q-29 0 -42.5 -20.5t-13.5 -50.5q0 -25 13 -40
t33 -15zM548 -9q-66 0 -106.5 41.5t-40.5 106.5q0 77 46 125.5t125 48.5q66 0 106.5 -41.5t40.5 -107.5q0 -76 -46.5 -124.5t-124.5 -48.5zM555 89q28 0 42.5 20.5t14.5 48.5q0 26 -12 41.5t-35 15.5q-29 0 -42.5 -20.5t-13.5 -50.5q0 -25 13 -40t33 -15z" />
    <glyph glyph-name="ampersand" unicode="&#x26;" horiz-adv-x="656" 
d="M627 331q-36 -103 -93 -182l81 -87l-114 -71q-43 46 -60 64q-92 -67 -201 -67q-93 0 -152.5 54t-59.5 136q0 65 35 110t109 88q-31 60 -31 116q0 82 53.5 134.5t137.5 52.5q71 0 120 -42t49 -110q0 -98 -143 -181q9 -9 13 -14q16 -19 45.5 -52.5t35.5 -40.5q28 45 51 109
zM330 559q-25 0 -41 -17t-16 -46q0 -28 17 -59q42 22 61.5 41.5t19.5 43.5q0 17 -11 27t-30 10zM252 108q58 0 109 33q-10 11 -44 49.5t-54 60.5q-9 10 -27 32q-43 -25 -62.5 -47.5t-19.5 -51.5q0 -36 25.5 -56t72.5 -20z" />
    <glyph glyph-name="quotesingle" unicode="'" horiz-adv-x="211" 
d="M84 410l32 257h149l-70 -257h-111z" />
    <glyph glyph-name="parenleft" unicode="(" horiz-adv-x="356" 
d="M264 -124l-111 -64q-118 150 -118 362q0 148 79.5 290t219.5 252l96 -72q-122 -89 -195 -215.5t-73 -258.5q0 -176 102 -294z" />
    <glyph glyph-name="parenright" unicode=")" horiz-adv-x="357" 
d="M102 653l110 63q119 -150 119 -362q0 -148 -79.5 -290t-220.5 -252l-96 72q122 89 195.5 215.5t73.5 258.5q0 177 -102 295z" />
    <glyph glyph-name="asterisk" unicode="*" horiz-adv-x="419" 
d="M178 317l-84 77l93 79l-115 39l46 103l105 -65l1 122l112 -13l-28 -119l117 37l21 -111l-122 -10l71 -98l-99 -56l-47 115z" />
    <glyph glyph-name="plus" unicode="+" horiz-adv-x="540" 
d="M512 316v-112h-169v-169h-112v169h-169v112h169v169h112v-169h169z" />
    <glyph glyph-name="comma" unicode="," horiz-adv-x="259" 
d="M27 -158l-104 26l148 291l131 -32z" />
    <glyph glyph-name="hyphen" unicode="-" horiz-adv-x="317" 
d="M49 326h253l-26 -130h-254z" />
    <glyph glyph-name="period" unicode="." horiz-adv-x="253" 
d="M92 -11q-39 0 -64 25t-25 64t24.5 64t64.5 25q38 0 63 -25t25 -64q0 -38 -25 -63.5t-63 -25.5z" />
    <glyph glyph-name="slash" unicode="/" horiz-adv-x="445" 
d="M49 -175h-135l474 842h135z" />
    <glyph glyph-name="zero" unicode="0" horiz-adv-x="536" 
d="M232 -12q-92 0 -145 63t-53 169q0 114 34 216.5t106.5 172t169.5 69.5q91 0 143.5 -63t52.5 -170q0 -113 -34 -215t-106.5 -172t-167.5 -70zM246 118q35 0 65 32.5t48.5 81t29 102.5t10.5 101q0 113 -72 113q-46 0 -82.5 -55.5t-53.5 -127t-17 -136.5q0 -111 72 -111z
" />
    <glyph glyph-name="one" unicode="1" horiz-adv-x="536" 
d="M348 130h123l-26 -130h-403l26 130h142l70 355l-141 -50l-2 134l312 110h9z" />
    <glyph glyph-name="two" unicode="2" horiz-adv-x="536" 
d="M518 500q0 -61 -24.5 -110t-65 -82.5t-82 -60.5t-85 -57.5t-65.5 -59.5h267l-26 -130h-462q19 75 58 135t82 95.5t90 68t84 55.5t61 55t24 70q0 69 -82 69q-85 0 -161 -55l-15 121q96 64 203 64q98 0 148.5 -47t50.5 -131z" />
    <glyph glyph-name="three" unicode="3" horiz-adv-x="536" 
d="M370 343q87 -37 87 -131q0 -103 -77 -163.5t-205 -60.5q-115 0 -189 47l50 128q53 -45 144 -45q64 0 100 24t36 65q0 72 -108 72h-50l24 122h49q55 0 87 23t32 64q0 60 -79 60q-81 0 -149 -40v121q86 49 190 49q83 0 133 -41.5t50 -114.5q0 -61 -33 -107.5t-92 -71.5z
" />
    <glyph glyph-name="four" unicode="4" horiz-adv-x="536" 
d="M532 667l-81 -408h73l-25 -125h-74l-26 -134h-135l26 134h-295l25 125l298 408h214zM168 259h148l55 278z" />
    <glyph glyph-name="five" unicode="5" horiz-adv-x="536" 
d="M503 537h-230l-40 -118q33 10 73 10q87 0 136.5 -48.5t49.5 -135.5q0 -107 -78 -182t-205 -75q-134 0 -214 68l76 123q57 -60 144 -60q61 0 98 32.5t37 82.5q0 38 -24.5 58.5t-71.5 20.5q-56 0 -108 -23l-81 27l113 350h351z" />
    <glyph glyph-name="six" unicode="6" horiz-adv-x="536" 
d="M316 444q90 0 142 -52.5t52 -140.5q0 -109 -76.5 -186t-197.5 -77q-96 0 -156.5 52.5t-60.5 141.5q0 186 306 485h179q-94 -95 -210 -224q7 1 22 1zM251 118q50 0 82.5 35t32.5 86q0 37 -23.5 60.5t-62.5 23.5q-53 0 -85.5 -36t-32.5 -86q0 -37 25 -60t64 -23z" />
    <glyph glyph-name="seven" unicode="7" horiz-adv-x="536" 
d="M603 667l-429 -667h-160l345 537h-275l25 130h494z" />
    <glyph glyph-name="eight" unicode="8" horiz-adv-x="536" 
d="M415 347q83 -45 83 -135q0 -101 -68 -162.5t-189 -61.5q-97 0 -159.5 47.5t-62.5 124.5q0 72 39 122.5t111 74.5q-31 20 -47.5 51t-16.5 62q0 93 62.5 150.5t168.5 57.5q87 0 141.5 -42t54.5 -109q0 -126 -117 -180zM322 548q-39 0 -61 -22t-22 -56q0 -27 19 -44t50 -17
q39 0 61.5 23t22.5 57q0 27 -18.5 43t-51.5 16zM252 118q51 0 78.5 25.5t27.5 70.5q0 31 -24.5 52.5t-63.5 21.5q-51 0 -79.5 -28t-28.5 -73q0 -32 24 -50.5t66 -18.5z" />
    <glyph glyph-name="nine" unicode="9" horiz-adv-x="536" 
d="M337 679q96 0 156 -52.5t60 -141.5q0 -187 -305 -485h-179q95 95 210 224q-7 -1 -22 -1q-90 0 -142 52.5t-52 140.5q0 109 76.5 186t197.5 77zM293 344q53 0 85.5 36t32.5 86q0 37 -25 60t-64 23q-50 0 -82.5 -35t-32.5 -86q0 -37 23.5 -60.5t62.5 -23.5z" />
    <glyph glyph-name="colon" unicode=":" horiz-adv-x="254" 
d="M158 314q-39 0 -64 25t-25 64t24.5 64t64.5 25q38 0 63 -25t25 -64q0 -38 -25 -63.5t-63 -25.5zM92 -11q-39 0 -64 25t-25 64t24.5 64t64.5 25q38 0 63 -25t25 -64q0 -38 -25 -63.5t-63 -25.5z" />
    <glyph glyph-name="uni003B" unicode=";" horiz-adv-x="279" 
d="M185 323q-39 0 -64 25t-25 64t24.5 64t64.5 25q38 0 63 -25t25 -64q0 -38 -25 -63.5t-63 -25.5zM26 -153l-104 26l148 291l131 -32z" />
    <glyph glyph-name="less" unicode="&#x3c;" horiz-adv-x="540" 
d="M601 509v-123l-348 -126l348 -126v-123l-450 163v172z" />
    <glyph glyph-name="equal" unicode="=" horiz-adv-x="540" 
d="M62 430h450v-113h-450v113zM62 203h450v-113h-450v113z" />
    <glyph glyph-name="greater" unicode="&#x3e;" horiz-adv-x="540" 
d="M62 509l450 -163v-172l-450 -163v123l348 126l-348 126v123z" />
    <glyph glyph-name="question" unicode="?" horiz-adv-x="480" 
d="M111 223l1 4q9 44 37.5 78.5t62 55t66 38.5t54.5 40t22 48q0 27 -22.5 44t-68.5 17q-84 0 -150 -45l-16 131q80 44 177 44q102 0 160 -45.5t58 -130.5q0 -53 -22.5 -92t-56 -61.5t-67 -40t-59.5 -37.5t-31 -44l-1 -4h-144zM154 -11q-37 0 -61 24t-24 61t24 60.5t61 23.5
t61 -23.5t24 -60.5t-24 -61t-61 -24z" />
    <glyph glyph-name="at" unicode="@" horiz-adv-x="919" 
d="M692 451l-48 -241q-6 -22 -1 -34.5t24 -12.5q52 0 83.5 56t31.5 122q0 108 -70.5 174t-189.5 66q-157 0 -264 -111t-107 -266q0 -121 72.5 -194t195.5 -73q126 0 224 49l29 -115q-118 -53 -255 -53q-175 0 -281.5 107t-106.5 271q0 138 64 253t177.5 182.5t251.5 67.5
q170 0 276 -95t106 -246q0 -128 -73 -221t-187 -93q-99 0 -109 83q-60 -70 -144 -70q-64 0 -99.5 43t-35.5 123q0 88 58.5 162t148.5 74q82 0 114 -60l10 52h105zM441 163q36 0 63.5 22.5t34.5 62.5l1 11q8 43 -9.5 69t-57.5 26q-39 0 -70 -35t-31 -87q0 -32 18.5 -50.5
t50.5 -18.5z" />
    <glyph glyph-name="A" unicode="A" horiz-adv-x="681" 
d="M491 0l-27 148h-276l-86 -148h-150l396 667h155l130 -667h-142zM264 279h176l-42 230z" />
    <glyph glyph-name="B" unicode="B" horiz-adv-x="646" 
d="M538 343q72 -44 72 -132q0 -91 -72.5 -151t-182.5 -60h-330l133 667h262q218 0 218 -159q0 -107 -100 -165zM408 537h-137l-27 -137h159q42 0 65.5 20.5t23.5 54.5q0 62 -84 62zM363 130q52 0 80.5 23t28.5 60q0 66 -86 66h-166l-30 -149h173z" />
    <glyph glyph-name="C" unicode="C" horiz-adv-x="612" 
d="M338 -12q-137 0 -214 76.5t-77 211.5q0 171 107 287t275 116q69 0 129 -20.5t93 -56.5l-56 -112q-64 59 -164 59q-106 0 -174 -73.5t-68 -186.5q0 -82 40 -126.5t118 -44.5q97 0 186 59l14 -137q-92 -52 -209 -52z" />
    <glyph glyph-name="D" unicode="D" horiz-adv-x="674" 
d="M25 0l133 667h180q161 0 243.5 -72t82.5 -210q0 -170 -112 -277.5t-300 -107.5h-227zM190 130h68q120 0 191 66t71 174q0 167 -196 167h-52z" />
    <glyph glyph-name="E" unicode="E" horiz-adv-x="574" 
d="M590 537h-318l-26 -130h248l-25 -130h-249l-30 -147h319l-26 -130h-458l133 667h458z" />
    <glyph glyph-name="F" unicode="F" horiz-adv-x="564" 
d="M597 537h-326l-32 -162h264l-27 -130h-263l-49 -245h-139l133 667h465z" />
    <glyph glyph-name="G" unicode="G" horiz-adv-x="661" 
d="M354 255l27 131h257l-65 -330q-100 -68 -248 -68q-131 0 -204.5 76.5t-73.5 211.5q0 171 107 287t273 116q154 0 232 -70l-60 -119q-64 59 -167 59q-107 0 -175 -73.5t-68 -186.5q0 -81 39.5 -126t113.5 -45q61 0 108 22l22 115h-118z" />
    <glyph glyph-name="H" unicode="H" horiz-adv-x="707" 
d="M580 667h139l-133 -667h-139l55 277h-283l-55 -277h-139l133 667h139l-52 -260h283z" />
    <glyph glyph-name="I" unicode="I" horiz-adv-x="286" 
d="M158 667h139l-133 -667h-139z" />
    <glyph glyph-name="J" unicode="J" horiz-adv-x="389" 
d="M66 -10q-63 0 -105 17l46 125q28 -11 62 -11q46 0 72 22.5t36 74.5l90 449h139l-95 -475q-20 -101 -84 -151.5t-161 -50.5z" />
    <glyph glyph-name="K" unicode="K" horiz-adv-x="692" 
d="M752 667l-342 -294l225 -373h-166l-164 282l-102 -87l-39 -195h-139l133 667h139l-57 -285l324 285h188z" />
    <glyph glyph-name="L" unicode="L" horiz-adv-x="509" 
d="M25 0l133 667h139l-107 -537h281l-25 -130h-421z" />
    <glyph glyph-name="M" unicode="M" horiz-adv-x="916" 
d="M927 667l-133 -667h-139l96 483l-295 -374h-50l-146 374l-96 -483h-139l133 667h180l132 -340l266 340h191z" />
    <glyph glyph-name="N" unicode="N" horiz-adv-x="762" 
d="M635 667h139l-133 -667h-183l-196 489l-98 -489h-139l133 667h183l196 -489z" />
    <glyph glyph-name="O" unicode="O" horiz-adv-x="740" 
d="M366 -12q-138 0 -226 85.5t-88 225.5q0 163 99.5 271.5t259.5 108.5q139 0 227 -85t88 -226q0 -163 -99.5 -271.5t-260.5 -108.5zM366 118q95 0 156.5 69.5t61.5 170.5q0 86 -47.5 138.5t-126.5 52.5q-93 0 -154.5 -70t-61.5 -171q0 -85 46.5 -137.5t125.5 -52.5z" />
    <glyph glyph-name="P" unicode="P" horiz-adv-x="625" 
d="M395 667q118 0 180 -51t62 -147q0 -107 -74.5 -175.5t-192.5 -68.5h-161l-45 -225h-139l133 667h237zM381 355q52 0 83 27.5t31 74.5q0 80 -108 80h-116l-36 -182h146z" />
    <glyph glyph-name="Q" unicode="Q" horiz-adv-x="740" 
d="M726 368q0 -169 -103 -275l63 -66l-106 -73l-61 65q-70 -31 -153 -31q-138 0 -226 85.5t-88 225.5q0 163 99.5 271.5t259.5 108.5q139 0 227 -85t88 -226zM366 118q30 0 54 7l-85 90l110 64l82 -86q57 68 57 165q0 86 -47.5 138.5t-126.5 52.5q-93 0 -154.5 -70
t-61.5 -171q0 -85 46.5 -137.5t125.5 -52.5z" />
    <glyph glyph-name="R" unicode="R" horiz-adv-x="646" 
d="M639 478q0 -83 -52.5 -149.5t-135.5 -88.5l120 -240h-153l-112 232h-96l-46 -232h-139l133 667h233q122 0 185 -50.5t63 -138.5zM271 537l-37 -184h153q52 0 81 29t29 74q0 40 -25.5 60.5t-85.5 20.5h-115z" />
    <glyph glyph-name="S" unicode="S" horiz-adv-x="578" 
d="M25 41l53 118q70 -42 161 -42q66 0 106.5 20.5t40.5 54.5q0 26 -29 45.5t-70 35t-82.5 35.5t-70.5 61t-29 99q0 93 72.5 151.5t187.5 58.5q126 0 209 -53l-53 -120q-70 44 -160 44q-52 0 -82.5 -18.5t-30.5 -51.5q0 -29 28.5 -49.5t69.5 -36t82.5 -35t70.5 -58.5t30 -94
q2 -95 -80 -156.5t-211 -61.5q-134 0 -213 53z" />
    <glyph glyph-name="T" unicode="T" horiz-adv-x="571" 
d="M631 667l-26 -130h-191l-107 -537h-139l107 537h-190l25 130h521z" />
    <glyph glyph-name="U" unicode="U" horiz-adv-x="676" 
d="M304 -12q-118 0 -181 56.5t-63 165.5q0 45 10 92l73 365h139l-74 -375q-7 -35 -7 -65q0 -56 27.5 -82.5t85.5 -26.5q72 0 114.5 42t60.5 132l75 375h139l-79 -395q-57 -284 -320 -284z" />
    <glyph glyph-name="V" unicode="V" horiz-adv-x="705" 
d="M624 667h160l-407 -667h-145l-141 667h143l94 -509z" />
    <glyph glyph-name="W" unicode="W" horiz-adv-x="1020" 
d="M943 667h150l-334 -667h-172l-35 449l-215 -449h-172l-68 667h137l43 -497l238 497h146l39 -501z" />
    <glyph glyph-name="X" unicode="X" horiz-adv-x="700" 
d="M643 0h-166l-121 246l-214 -246h-181l323 350l-171 317h164l109 -222l192 222h180l-300 -325z" />
    <glyph glyph-name="Y" unicode="Y" horiz-adv-x="653" 
d="M209 0l56 277l-189 390h165l112 -254l213 254h181l-343 -389l-56 -278h-139z" />
    <glyph glyph-name="Z" unicode="Z" horiz-adv-x="614" 
d="M644 668l-22 -109l-405 -428h334l-26 -131h-533l23 111l406 426h-307l25 131h505z" />
    <glyph glyph-name="bracketleft" unicode="[" horiz-adv-x="364" 
d="M285 -54l-24 -121h-282l175 877h282l-24 -121h-151l-127 -635h151z" />
    <glyph glyph-name="backslash" unicode="\" horiz-adv-x="445" 
d="M233 -175l-138 842h129l138 -842h-129z" />
    <glyph glyph-name="bracketright" unicode="]" horiz-adv-x="364" 
d="M-39 -54h152l127 635h-152l24 121h281l-175 -877h-281z" />
    <glyph glyph-name="asciicircum" unicode="^" horiz-adv-x="422" 
d="M53 415l133 252h133l134 -252h-121l-79 149l-80 -149h-120z" />
    <glyph glyph-name="underscore" unicode="_" horiz-adv-x="500" 
d="M-57 -46h500l-19 -93h-500z" />
    <glyph glyph-name="grave" unicode="`" horiz-adv-x="315" 
d="M337 552h-112l-92 156h136z" />
    <glyph glyph-name="a" unicode="a" horiz-adv-x="580" 
d="M444 481h122l-96 -481h-122l11 53q-67 -64 -154 -64q-82 0 -131 55t-49 148q0 123 76.5 211t183.5 88q100 0 145 -82zM256 112q57 0 95.5 44t38.5 110q0 48 -26 75.5t-72 27.5q-55 0 -93 -44.5t-38 -106.5q0 -49 25.5 -77.5t69.5 -28.5z" />
    <glyph glyph-name="b" unicode="b" horiz-adv-x="584" 
d="M374 491q83 0 132.5 -55t49.5 -148q0 -123 -76.5 -211t-184.5 -88q-100 0 -145 83l-14 -72h-122l140 702h130l-53 -267q62 56 143 56zM288 112q55 0 93 44t38 107q0 49 -25.5 77.5t-69.5 28.5q-57 0 -95.5 -44.5t-38.5 -110.5q0 -48 26 -75t72 -27z" />
    <glyph glyph-name="c" unicode="c" horiz-adv-x="447" 
d="M248 -11q-100 0 -158 58.5t-58 167.5q0 112 76.5 194t201.5 82q99 0 157 -45l-59 -116q-42 39 -104 39q-63 0 -101.5 -44.5t-38.5 -104.5q0 -108 110 -108q50 0 100 26l12 -115q-66 -34 -138 -34z" />
    <glyph glyph-name="d" unicode="d" horiz-adv-x="580" 
d="M480 702h130l-140 -702h-122l11 54q-68 -65 -153 -65q-83 0 -132 55t-49 148q0 123 76.5 211t183.5 88q94 0 139 -72zM256 112q57 0 95.5 44t38.5 110q0 48 -26 75.5t-72 27.5q-55 0 -93 -44.5t-38 -106.5q0 -49 25.5 -77.5t69.5 -28.5z" />
    <glyph glyph-name="e" unicode="e" horiz-adv-x="525" 
d="M496 308q0 -52 -18 -109h-316q4 -47 30.5 -69t81.5 -22q76 0 151 33l15 -114q-78 -38 -173 -38q-111 0 -173 57.5t-62 169.5q0 120 78 197.5t192 77.5q90 0 142 -49.5t52 -133.5zM293 380q-39 0 -69.5 -24.5t-46.5 -62.5h194v5q0 82 -78 82z" />
    <glyph glyph-name="f" unicode="f" horiz-adv-x="330" 
d="M319 591q-27 0 -41.5 -14.5t-21.5 -51.5l-9 -44h113l-23 -119h-114l-72 -362h-130l73 362h-59l24 119h59l13 67q33 162 186 162q61 0 100 -19l-42 -110q-28 10 -56 10z" />
    <glyph glyph-name="g" unicode="g" horiz-adv-x="579" 
d="M443 481h122l-89 -447q-21 -106 -95 -162t-193 -56q-116 0 -200 50l53 108q65 -39 145 -39q139 0 165 127l3 18q-68 -67 -154 -67q-79 0 -126 54t-47 138q0 119 71.5 202.5t185.5 83.5q101 0 144 -87zM257 131q56 0 95 43t39 104q0 40 -26.5 67.5t-71.5 27.5
q-54 0 -92.5 -44t-38.5 -100q0 -43 25.5 -70.5t69.5 -27.5z" />
    <glyph glyph-name="h" unicode="h" horiz-adv-x="564" 
d="M366 491q71 0 112 -45t41 -127q0 -36 -10 -89l-45 -230h-130l46 234q7 37 7 57q0 78 -73 78q-46 0 -77 -30t-42 -86l-51 -253h-130l140 702h130l-53 -268q53 57 135 57z" />
    <glyph glyph-name="i" unicode="i" horiz-adv-x="255" 
d="M205 558q-35 0 -57 21t-22 54q0 34 22 54.5t57 20.5q36 0 57.5 -20.5t21.5 -54.5q0 -33 -21.5 -54t-57.5 -21zM110 481h130l-96 -481h-130z" />
    <glyph glyph-name="j" unicode="j" horiz-adv-x="255" 
d="M205 558q-35 0 -57 21t-22 54q0 34 22 54.5t57 20.5q36 0 57.5 -20.5t21.5 -54.5q0 -33 -21.5 -54t-57.5 -21zM-120 -170l32 112q12 -2 20 -2q71 0 88 85l90 456h130l-95 -476q-36 -184 -199 -184q-38 0 -66 9z" />
    <glyph glyph-name="k" unicode="k" horiz-adv-x="546" 
d="M585 481l-244 -209l155 -272h-151l-102 188l-74 -64l-25 -124h-130l140 702h130l-82 -409l212 188h171z" />
    <glyph glyph-name="l" unicode="l" horiz-adv-x="291" 
d="M154 702h130l-106 -534q-3 -14 -3 -22q0 -32 37 -32q19 0 35 6l-10 -118q-24 -7 -62 -7q-68 0 -100.5 26.5t-32.5 88.5q0 29 7 64z" />
    <glyph glyph-name="m" unicode="m" horiz-adv-x="827" 
d="M650 491q137 0 137 -152q0 -41 -10 -90l-50 -249h-130l52 258q6 30 6 47q0 64 -60 64q-39 0 -67 -24t-38 -67l-6 -34l-48 -244h-130l51 258q5 22 5 45q0 66 -60 66q-83 0 -104 -99l-54 -270h-130l96 481h122l-11 -55q55 65 145 65q92 0 120 -77q60 77 164 77z" />
    <glyph glyph-name="n" unicode="n" horiz-adv-x="564" 
d="M366 491q71 0 112 -45t41 -127q0 -36 -10 -89l-45 -230h-130l46 234q7 37 7 57q0 78 -73 78q-46 0 -77 -30t-42 -86l-51 -253h-130l96 481h122l-12 -59q56 69 146 69z" />
    <glyph glyph-name="o" unicode="o" horiz-adv-x="550" 
d="M248 -11q-97 0 -157 61t-60 161q0 118 77.5 199t193.5 81q98 0 157 -60t59 -161q0 -119 -77 -200t-193 -81zM253 112q55 0 95 45t40 107q0 49 -24.5 77t-66.5 28q-57 0 -96 -44.5t-39 -107.5q0 -48 24.5 -76.5t66.5 -28.5z" />
    <glyph glyph-name="p" unicode="p" horiz-adv-x="584" 
d="M374 491q83 0 132.5 -55t49.5 -148q0 -123 -76.5 -211t-184.5 -88q-93 0 -139 72l-47 -236h-130l131 656h122l-11 -55q67 65 153 65zM289 112q54 0 92 44t38 107q0 49 -25.5 77.5t-69.5 28.5q-57 0 -95.5 -44.5t-38.5 -110.5q0 -48 26 -75t73 -27z" />
    <glyph glyph-name="q" unicode="q" horiz-adv-x="580" 
d="M444 481h122l-130 -656h-131l43 218q-63 -54 -142 -54q-83 0 -132 55t-49 148q0 123 76.5 211t183.5 88q100 0 145 -82zM256 112q57 0 95.5 44t38.5 110q0 48 -26 75.5t-72 27.5q-55 0 -93 -44.5t-38 -106.5q0 -49 25.5 -77.5t69.5 -28.5z" />
    <glyph glyph-name="r" unicode="r" horiz-adv-x="377" 
d="M354 488q34 0 63 -12l-44 -129q-23 10 -52 10q-105 0 -133 -139l-44 -218h-130l96 481h122l-16 -77q56 84 138 84z" />
    <glyph glyph-name="s" unicode="s" horiz-adv-x="432" 
d="M-11 33l51 108q58 -36 126 -36q37 0 59.5 10t22.5 27q0 19 -31 33.5t-67.5 25.5t-67.5 44t-31 85q0 72 57.5 116.5t153.5 44.5q94 0 159 -38l-53 -108q-54 31 -120 31q-64 0 -64 -34q0 -18 31 -33.5t67.5 -27.5t67.5 -45t31 -83q0 -74 -63 -118.5t-157 -44.5
q-96 0 -172 43z" />
    <glyph glyph-name="t" unicode="t" horiz-adv-x="346" 
d="M223 362l-37 -184q-3 -15 -3 -26q0 -38 48 -38q29 0 57 10l-4 -115q-48 -15 -99 -15q-135 0 -135 122q0 26 8 69l35 177h-58l24 119h58l22 109l135 26l-27 -135h125l-24 -119h-125z" />
    <glyph glyph-name="u" unicode="u" horiz-adv-x="564" 
d="M420 481h130l-96 -481h-122l12 60q-55 -70 -146 -70q-71 0 -112.5 45t-41.5 127q0 37 10 89l46 230h130l-47 -234q-7 -49 -7 -57q0 -77 74 -77q96 0 119 115z" />
    <glyph glyph-name="v" unicode="v" horiz-adv-x="527" 
d="M425 481h145l-288 -481h-133l-96 481h131l54 -332z" />
    <glyph glyph-name="w" unicode="w" horiz-adv-x="796" 
d="M701 481h134l-237 -481h-146l-40 308l-163 -308h-146l-45 481h128l22 -321l171 321h131l40 -322z" />
    <glyph glyph-name="x" unicode="x" horiz-adv-x="553" 
d="M503 0h-158l-73 165l-141 -165h-176l236 249l-126 232h158l66 -147l122 147h174l-217 -232z" />
    <glyph glyph-name="y" unicode="y" horiz-adv-x="526" 
d="M425 481h144l-309 -522q-46 -78 -93 -110t-115 -32q-53 0 -92 15l44 121q29 -8 58 -8q30 0 49.5 14t38.5 50l-97 472h133l57 -320z" />
    <glyph glyph-name="z" unicode="z" horiz-adv-x="466" 
d="M469 481l-20 -101l-259 -261h217l-24 -119h-396l20 100l261 262h-199l24 119h376z" />
    <glyph glyph-name="braceleft" unicode="{" horiz-adv-x="414" 
d="M422 702h64l-23 -121h-35q-116 0 -138 -107l-20 -102q-9 -45 -38.5 -76.5t-66.5 -42.5q60 -22 60 -90q0 -13 -3 -27l-17 -83q-3 -17 -3 -30q0 -77 99 -77h35l-25 -121h-28q-100 0 -156 42.5t-56 130.5q0 33 7 68l11 55q2 9 2 25q0 33 -18.5 51.5t-47.5 18.5l19 95
q35 0 64 25.5t38 69.5l21 102q39 194 255 194z" />
    <glyph glyph-name="bar" unicode="|" horiz-adv-x="320" 
d="M185 702h134l-175 -877h-134z" />
    <glyph glyph-name="braceright" unicode="}" horiz-adv-x="415" 
d="M333 381q0 -33 18.5 -51.5t47.5 -18.5l-19 -95q-34 0 -63.5 -25.5t-38.5 -69.5l-21 -102q-39 -194 -255 -194h-64l23 121h35q118 0 138 107l20 102q9 45 38.5 76.5t66.5 42.5q-60 22 -60 90q0 14 3 27l17 83q3 16 3 30q0 77 -98 77h-36l25 121h28q100 0 156 -42.5
t56 -130.5q0 -33 -7 -68l-11 -55q-2 -9 -2 -25z" />
    <glyph glyph-name="asciitilde" unicode="~" horiz-adv-x="590" 
d="M57 142q0 104 42.5 166.5t121.5 62.5q37 0 67.5 -15t47 -32.5t34.5 -32.5t33 -15q21 0 32.5 26t11.5 69h120q0 -103 -42.5 -166t-121.5 -63q-36 0 -67 15t-47.5 33t-35 33t-32.5 15q-44 0 -44 -96h-120z" />
    <glyph glyph-name="uni00A0" unicode="&#xa0;" horiz-adv-x="226" 
 />
    <glyph glyph-name="exclamdown" unicode="&#xa1;" horiz-adv-x="272" 
d="M168 323q-37 0 -61 24t-24 61t24 60.5t61 23.5t61 -23.5t24 -60.5t-24 -61t-61 -24zM-20 -175l100 422h110l-70 -422h-140z" />
    <glyph glyph-name="cent" unicode="&#xa2;" horiz-adv-x="536" 
d="M352 469q-63 0 -101.5 -44.5t-38.5 -104.5q0 -108 110 -108q50 0 100 26l12 -115q-48 -24 -95 -31l-19 -92h-127l21 101q-134 44 -134 214q0 100 62.5 178t167.5 94l16 80h127l-17 -85q46 -11 79 -36l-59 -116q-42 39 -104 39z" />
    <glyph glyph-name="sterling" unicode="&#xa3;" horiz-adv-x="536" 
d="M243 130q63 0 93.5 18t50.5 63l126 -41q-41 -89 -103 -129.5t-168 -40.5h-263l26 130h77q45 56 45 127q0 18 -1 27h-90l23 113h58v12q0 125 68 195.5t186 70.5q116 0 184 -57l-63 -120q-47 47 -122 47q-117 0 -117 -137v-11h155l-22 -113h-128v-20q0 -77 -46 -134h31z
" />
    <glyph glyph-name="currency" unicode="&#xa4;" horiz-adv-x="536" 
d="M503 370q0 -77 -50 -145l56 -69l-96 -80l-56 70q-50 -26 -107 -26q-54 0 -97 27l-92 -76l-71 89l91 77q-10 32 -10 60q0 78 49 145l-56 70l96 80l56 -70q52 26 108 26q54 0 98 -28l90 76l71 -88l-91 -76q11 -30 11 -62zM190 314q0 -34 22 -55.5t59 -21.5q46 0 79.5 35
t33.5 82q0 34 -22 55.5t-59 21.5q-47 0 -80 -34.5t-33 -82.5z" />
    <glyph glyph-name="yen" unicode="&#xa5;" horiz-adv-x="536" 
d="M625 667l-235 -297h128l-20 -96h-153l-9 -48h153l-20 -96h-152l-26 -130h-140l26 130h-153l19 96h153l10 48h-153l19 96h126l-118 297h147l76 -214l161 214h161z" />
    <glyph glyph-name="brokenbar" unicode="&#xa6;" horiz-adv-x="320" 
d="M185 702h134l-66 -329h-134zM76 154h134l-66 -329h-134z" />
    <glyph glyph-name="section" unicode="&#xa7;" horiz-adv-x="534" 
d="M249 526q0 -26 27 -44.5t65.5 -31.5t76.5 -29t65 -48t27 -78q0 -124 -132 -167q46 -41 46 -105q0 -97 -79 -152.5t-204 -55.5q-108 0 -185 36l55 117q62 -35 141 -35q62 0 100 20.5t38 53.5q0 24 -27 41t-66 30.5t-77.5 31t-65.5 51t-27 80.5q0 126 133 164
q-45 45 -45 107q0 98 69 148t187 50q101 0 175 -36l-53 -114q-61 32 -133 32q-53 0 -82 -18.5t-29 -47.5zM160 258q0 -30 27.5 -45t71.5 -15q53 0 85 20t32 50q0 60 -110 60q-47 0 -76.5 -17.5t-29.5 -52.5z" />
    <glyph glyph-name="dieresis" unicode="&#xa8;" horiz-adv-x="425" 
d="M192 562q-32 0 -52 19.5t-20 51.5q0 31 20 51.5t52 20.5q31 0 51 -20.5t20 -51.5t-19.5 -51t-51.5 -20zM391 562q-32 0 -51.5 19.5t-19.5 51.5q0 31 19.5 51.5t51.5 20.5q31 0 51 -20.5t20 -51.5t-20 -51t-51 -20z" />
    <glyph glyph-name="copyright" unicode="&#xa9;" horiz-adv-x="771" 
d="M411 -12q-143 0 -244.5 101.5t-101.5 244.5t101.5 244t244.5 101t244 -101.5t101 -243.5q0 -143 -101 -244.5t-244 -101.5zM411 64q111 0 190 79t79 191q0 111 -79 190t-190 79q-112 0 -191 -79t-79 -190q0 -112 79 -191t191 -79zM423 135q-87 0 -140.5 55t-53.5 143
q0 89 53.5 144t140.5 55q78 0 128 -40l-26 -87q-42 39 -99 39q-48 0 -76 -30t-28 -81q0 -50 28 -79.5t76 -29.5q58 0 99 38l26 -88q-53 -39 -128 -39z" />
    <glyph glyph-name="ordfeminine" unicode="&#xaa;" horiz-adv-x="355" 
d="M233 678q144 0 144 -122q0 -17 -5 -44l-35 -179h-91l5 24q-35 -32 -89 -32q-50 0 -78 26.5t-28 70.5q0 51 40 84t101 33q47 0 80 -19l1 6q2 10 2 16q0 47 -62 47q-49 0 -96 -22l-2 90q51 21 113 21zM192 396q26 0 45.5 11.5t23.5 32.5l4 19q-19 9 -51 9q-63 0 -63 -42
q0 -30 41 -30z" />
    <glyph glyph-name="guillemotleft" unicode="&#xab;" horiz-adv-x="589" 
d="M364 437l-189 -182l118 -176h-154l-124 179l186 179h163zM596 437l-189 -182l118 -176h-154l-124 179l186 179h163z" />
    <glyph glyph-name="logicalnot" unicode="&#xac;" horiz-adv-x="540" 
d="M62 419h450v-364h-113v252h-337v112z" />
    <glyph glyph-name="uni00AD" unicode="&#xad;" horiz-adv-x="317" 
d="M49 326h253l-26 -130h-254z" />
    <glyph glyph-name="registered" unicode="&#xae;" horiz-adv-x="378" 
d="M245 679q70 0 119 -49t49 -119t-49 -119.5t-119 -49.5t-119 49.5t-49 119.5t49 119t119 49zM245 384q53 0 90 37t37 90q0 52 -37.5 89t-89.5 37t-89.5 -37t-37.5 -89q0 -53 37 -90t90 -37zM317 539q0 -38 -34 -53l45 -64h-56l-39 58h-11v-58h-46v177h76q29 0 47 -16.5
t18 -43.5zM252 556h-30v-35h30q21 0 21 17q0 18 -21 18z" />
    <glyph glyph-name="macron" unicode="&#xaf;" horiz-adv-x="377" 
d="M128 680h297l-19 -95h-297z" />
    <glyph glyph-name="degree" unicode="&#xb0;" horiz-adv-x="319" 
d="M223 418q-53 0 -90.5 38t-37.5 92t37.5 91t90.5 37q54 0 91.5 -37t37.5 -91q0 -55 -37.5 -92.5t-91.5 -37.5zM223 491q24 0 40.5 16.5t16.5 40.5t-16 40.5t-41 16.5q-22 0 -39 -16.5t-17 -40.5q0 -23 17 -40t39 -17z" />
    <glyph glyph-name="plusminus" unicode="&#xb1;" horiz-adv-x="540" 
d="M343 382h169v-112h-169v-138h-112v138h-169v112h169v155h112v-155zM62 -16v113h450v-113h-450z" />
    <glyph glyph-name="uni00B2" unicode="&#xb2;" horiz-adv-x="350" 
d="M390 721q0 -38 -13.5 -69.5t-36.5 -53.5t-46 -38.5t-50 -34t-40 -30.5h162l-19 -92h-298q15 55 45.5 98t63 66.5t62.5 43t49.5 39.5t19.5 43q0 38 -46 38q-53 0 -101 -34l-11 89q60 38 134 38q125 0 125 -103z" />
    <glyph glyph-name="uni00B3" unicode="&#xb3;" horiz-adv-x="352" 
d="M312 616q48 -23 48 -82q0 -62 -49 -100.5t-127 -38.5q-79 0 -128 29l36 94q30 -30 90 -30q35 0 57 12t22 33q0 37 -64 37h-32l17 88h32q66 0 66 44q0 29 -43 29q-48 0 -96 -29v90q59 32 123 32q55 0 86 -26.5t31 -71.5q0 -72 -69 -110z" />
    <glyph glyph-name="acute" unicode="&#xb4;" horiz-adv-x="336" 
d="M102 552l131 156h156l-154 -156h-133z" />
    <glyph glyph-name="uni00B5" unicode="&#xb5;" horiz-adv-x="574" 
d="M544 115q8 0 24 2v-115q-37 -8 -76 -8q-49 0 -74.5 17t-33.5 54q-44 -76 -136 -76q-33 0 -57 10v-174h-130v656h130v-255q0 -114 91 -114q46 0 72 29t26 82v258h130v-330q0 -36 34 -36z" />
    <glyph glyph-name="paragraph" unicode="&#xb6;" horiz-adv-x="707" 
d="M699 667l-168 -842h-130l145 721h-94l-145 -721h-130l90 449h-7q-85 0 -134.5 49t-49.5 129q0 93 67 154t173 61h383z" />
    <glyph glyph-name="periodcentered" unicode="&#xb7;" horiz-adv-x="252" 
d="M131 171q-39 0 -64 25t-25 64t24.5 64t64.5 25q38 0 63 -25t25 -64q0 -38 -25 -63.5t-63 -25.5z" />
    <glyph glyph-name="cedilla" unicode="&#xb8;" horiz-adv-x="259" 
d="M81 -37q32 -2 50 -19t18 -43q0 -43 -32 -65t-86 -22q-45 0 -73 15l28 62q22 -12 44 -12q30 0 30 19q0 16 -21 16q-11 0 -22 -3l-20 6l36 83h64z" />
    <glyph glyph-name="uni00B9" unicode="&#xb9;" horiz-adv-x="357" 
d="M300 495h78l-18 -92h-260l18 92h84l39 193l-88 -29l-1 96l209 69h5z" />
    <glyph glyph-name="ordmasculine" unicode="&#xba;" horiz-adv-x="386" 
d="M228 325q-68 0 -111 43t-43 113q0 81 54 139t136 58q68 0 110 -42.5t42 -112.5q0 -83 -52 -140.5t-136 -57.5zM236 417q37 0 59.5 29.5t22.5 65.5q0 33 -17.5 53.5t-45.5 20.5q-36 0 -59 -28t-23 -66q0 -34 17.5 -54.5t45.5 -20.5z" />
    <glyph glyph-name="guillemotright" unicode="&#xbb;" horiz-adv-x="590" 
d="M0 79l188 182l-117 176h153l125 -179l-187 -179h-162zM232 79l188 182l-117 176h153l125 -179l-186 -179h-163z" />
    <glyph glyph-name="onequarter" unicode="&#xbc;" horiz-adv-x="929" 
d="M70 253l18 92h84l39 193l-88 -29l-1 96l209 69h5l-66 -329h78l-18 -92h-260zM765 667h127l-640 -667h-126zM910 414l-50 -248h43l-17 -88h-43l-16 -78h-95l16 78h-185l17 88l186 248h144zM685 166h80l30 150z" />
    <glyph glyph-name="onehalf" unicode="&#xbd;" horiz-adv-x="964" 
d="M70 253l18 92h84l39 193l-88 -29l-1 96l209 69h5l-66 -329h78l-18 -92h-260zM765 667h127l-640 -667h-126zM923 318q0 -38 -13.5 -69.5t-36.5 -53.5t-46 -38.5t-50 -34t-40 -30.5h162l-19 -92h-298q15 55 45.5 98t63 66.5t62.5 43t49.5 39.5t19.5 43q0 38 -46 38
q-53 0 -101 -34l-11 89q60 38 134 38q125 0 125 -103z" />
    <glyph glyph-name="threequarters" unicode="&#xbe;" horiz-adv-x="914" 
d="M330 384q0 -62 -49 -100.5t-127 -38.5q-79 0 -128 29l36 94q30 -30 90 -30q35 0 57 12t22 33q0 37 -64 37h-32l17 88h32q66 0 66 44q0 29 -43 29q-48 0 -96 -29v90q59 32 123 32q55 0 86 -26.5t31 -71.5q0 -72 -69 -110q48 -23 48 -82zM750 667h127l-640 -667h-126z
M895 414l-50 -248h43l-17 -88h-43l-16 -78h-95l16 78h-185l17 88l186 248h144zM670 166h80l30 150z" />
    <glyph glyph-name="questiondown" unicode="&#xbf;" horiz-adv-x="480" 
d="M327 492q36 0 60 -23.5t24 -60.5t-24 -61t-60 -24q-37 0 -61 24t-24 61t24 60.5t61 23.5zM369 258l-1 -4q-9 -44 -37.5 -78.5t-62 -55t-66 -38.5t-54.5 -40t-22 -48q0 -27 22.5 -44t68.5 -17q84 0 150 45l16 -131q-80 -44 -176 -44q-103 0 -161 46t-58 131q0 53 22.5 92
t56 61t67 39.5t60 37.5t31.5 44l1 4h143z" />
    <glyph glyph-name="Agrave" unicode="&#xc0;" horiz-adv-x="681" 
d="M517 712h-112l-92 156h136zM491 0l-27 148h-276l-86 -148h-150l396 667h155l130 -667h-142zM264 279h176l-42 230z" />
    <glyph glyph-name="Aacute" unicode="&#xc1;" horiz-adv-x="681" 
d="M629 868l-154 -156h-133l131 156h156zM491 0l-27 148h-276l-86 -148h-150l396 667h155l130 -667h-142zM264 279h176l-42 230z" />
    <glyph glyph-name="Acircumflex" unicode="&#xc2;" horiz-adv-x="681" 
d="M453 790l-69 -78h-121l129 156h147l67 -156h-115zM491 0l-27 148h-276l-86 -148h-150l396 667h155l130 -667h-142zM264 279h176l-42 230z" />
    <glyph glyph-name="Atilde" unicode="&#xc3;" horiz-adv-x="681" 
d="M386 758q-16 0 -28 -14t-15 -36h-91q14 71 52 115t92 44q36 0 68.5 -26t46.5 -26q34 0 44 52h91q-14 -72 -51 -115.5t-92 -43.5q-36 0 -70 25t-47 25zM503 667l130 -667h-142l-27 148h-276l-86 -148h-150l396 667h155zM264 279h176l-42 230z" />
    <glyph glyph-name="Adieresis" unicode="&#xc4;" horiz-adv-x="681" 
d="M349 708q-31 0 -51.5 20t-20.5 51q0 32 20.5 52.5t51.5 20.5t51 -20.5t20 -52.5q0 -31 -20 -51t-51 -20zM548 708q-31 0 -51 20t-20 51q0 32 20 52.5t51 20.5t51 -20.5t20 -52.5q0 -31 -20 -51t-51 -20zM491 0l-27 148h-276l-86 -148h-150l396 667h155l130 -667h-142z
M264 279h176l-42 230z" />
    <glyph glyph-name="Aring" unicode="&#xc5;" horiz-adv-x="681" 
d="M445 697q-45 0 -77.5 32t-32.5 76q0 46 32.5 78t77.5 32t76.5 -32t31.5 -78q0 -44 -31.5 -76t-76.5 -32zM445 855q-21 0 -36 -14.5t-15 -35.5q0 -20 15 -34.5t36 -14.5q19 0 34 15t15 34q0 21 -14.5 35.5t-34.5 14.5zM491 0l-27 148h-276l-86 -148h-150l396 667h155
l130 -667h-142zM264 279h176l-42 230z" />
    <glyph glyph-name="AE" unicode="&#xc6;" horiz-adv-x="924" 
d="M941 537h-328l-14 -130h246l-26 -130h-235l-16 -147h291l-26 -130h-418l16 148h-230l-105 -148h-159l476 667h553zM293 279h153l28 256z" />
    <glyph glyph-name="Ccedilla" unicode="&#xc7;" horiz-adv-x="612" 
d="M431 549q-106 0 -174 -73.5t-68 -186.5q0 -82 40 -126.5t118 -44.5q97 0 186 59l14 -137q-92 -52 -209 -52h-5l-11 -25q32 -2 50 -19t18 -43q0 -43 -32 -65t-86 -22q-45 0 -73 15l28 62q22 -12 44 -12q30 0 30 19q0 16 -21 16q-12 0 -22 -3l-20 6l33 76
q-107 18 -165.5 92t-58.5 191q0 171 107 287t275 116q69 0 129 -20.5t93 -56.5l-56 -112q-64 59 -164 59z" />
    <glyph glyph-name="Egrave" unicode="&#xc8;" horiz-adv-x="574" 
d="M478 712h-112l-92 156h136zM590 537h-318l-26 -130h248l-25 -130h-249l-30 -147h319l-26 -130h-458l133 667h458z" />
    <glyph glyph-name="Eacute" unicode="&#xc9;" horiz-adv-x="574" 
d="M303 712l131 156h156l-154 -156h-133zM590 537h-318l-26 -130h248l-25 -130h-249l-30 -147h319l-26 -130h-458l133 667h458z" />
    <glyph glyph-name="Ecircumflex" unicode="&#xca;" horiz-adv-x="574" 
d="M414 790l-69 -78h-121l129 156h147l67 -156h-115zM590 537h-318l-26 -130h248l-25 -130h-249l-30 -147h319l-26 -130h-458l133 667h458z" />
    <glyph glyph-name="Edieresis" unicode="&#xcb;" horiz-adv-x="574" 
d="M310 708q-31 0 -51.5 20t-20.5 51q0 32 20.5 52.5t51.5 20.5t51 -20.5t20 -52.5q0 -31 -20 -51t-51 -20zM509 708q-31 0 -51 20t-20 51q0 32 20 52.5t51 20.5t51 -20.5t20 -52.5q0 -31 -20 -51t-51 -20zM590 537h-318l-26 -130h248l-25 -130h-249l-30 -147h319l-26 -130
h-458l133 667h458z" />
    <glyph glyph-name="Igrave" unicode="&#xcc;" horiz-adv-x="286" 
d="M319 712h-112l-92 156h136zM158 667h139l-133 -667h-139z" />
    <glyph glyph-name="Iacute" unicode="&#xcd;" horiz-adv-x="286" 
d="M144 712l131 156h156l-154 -156h-133zM158 667h139l-133 -667h-139z" />
    <glyph glyph-name="Icircumflex" unicode="&#xce;" horiz-adv-x="286" 
d="M255 790l-69 -78h-121l129 156h147l67 -156h-115zM25 0l133 667h139l-133 -667h-139z" />
    <glyph glyph-name="Idieresis" unicode="&#xcf;" horiz-adv-x="286" 
d="M151 708q-31 0 -51.5 20t-20.5 51q0 32 20.5 52.5t51.5 20.5t51 -20.5t20 -52.5q0 -31 -20 -51t-51 -20zM350 708q-31 0 -51 20t-20 51q0 32 20 52.5t51 20.5t51 -20.5t20 -52.5q0 -31 -20 -51t-51 -20zM158 667h139l-133 -667h-139z" />
    <glyph glyph-name="Eth" unicode="&#xd0;" horiz-adv-x="674" 
d="M338 667q161 0 243.5 -72t82.5 -210q0 -170 -112 -277.5t-300 -107.5h-227l57 286h-70l22 112h70l54 269h180zM258 130q120 0 191 66t71 174q0 167 -196 167h-52l-28 -139h152l-22 -112h-153l-31 -156h68z" />
    <glyph glyph-name="Ntilde" unicode="&#xd1;" horiz-adv-x="762" 
d="M427 758q-16 0 -28 -14t-15 -36h-91q14 71 52 115t92 44q36 0 68.5 -26t46.5 -26q34 0 44 52h91q-14 -72 -51 -115.5t-92 -43.5q-36 0 -70 25t-47 25zM635 667h139l-133 -667h-183l-196 489l-98 -489h-139l133 667h183l196 -489z" />
    <glyph glyph-name="Ograve" unicode="&#xd2;" horiz-adv-x="740" 
d="M485 712h-112l-92 156h136zM366 -12q-138 0 -226 85.5t-88 225.5q0 163 99.5 271.5t259.5 108.5q139 0 227 -85t88 -226q0 -163 -99.5 -271.5t-260.5 -108.5zM366 118q95 0 156.5 69.5t61.5 170.5q0 86 -47.5 138.5t-126.5 52.5q-93 0 -154.5 -70t-61.5 -171
q0 -85 46.5 -137.5t125.5 -52.5z" />
    <glyph glyph-name="Oacute" unicode="&#xd3;" horiz-adv-x="740" 
d="M310 712l131 156h156l-154 -156h-133zM366 -12q-138 0 -226 85.5t-88 225.5q0 163 99.5 271.5t259.5 108.5q139 0 227 -85t88 -226q0 -163 -99.5 -271.5t-260.5 -108.5zM366 118q95 0 156.5 69.5t61.5 170.5q0 86 -47.5 138.5t-126.5 52.5q-93 0 -154.5 -70t-61.5 -171
q0 -85 46.5 -137.5t125.5 -52.5z" />
    <glyph glyph-name="Ocircumflex" unicode="&#xd4;" horiz-adv-x="740" 
d="M421 790l-69 -78h-121l129 156h147l67 -156h-115zM411 679q139 0 227 -85t88 -226q0 -163 -99.5 -271.5t-260.5 -108.5q-138 0 -226 85.5t-88 225.5q0 163 99.5 271.5t259.5 108.5zM366 118q95 0 156.5 69.5t61.5 170.5q0 86 -47.5 138.5t-126.5 52.5q-93 0 -154.5 -70
t-61.5 -171q0 -85 46.5 -137.5t125.5 -52.5z" />
    <glyph glyph-name="Otilde" unicode="&#xd5;" horiz-adv-x="740" 
d="M220 708q14 71 52 115t92 44q36 0 68.5 -26t46.5 -26q34 0 44 52h91q-14 -72 -51 -115.5t-92 -43.5q-36 0 -70 25t-47 25q-16 0 -28 -14t-15 -36h-91zM366 -12q-138 0 -226 85.5t-88 225.5q0 163 99.5 271.5t259.5 108.5q139 0 227 -85t88 -226q0 -163 -99.5 -271.5
t-260.5 -108.5zM366 118q95 0 156.5 69.5t61.5 170.5q0 86 -47.5 138.5t-126.5 52.5q-93 0 -154.5 -70t-61.5 -171q0 -85 46.5 -137.5t125.5 -52.5z" />
    <glyph glyph-name="Odieresis" unicode="&#xd6;" horiz-adv-x="740" 
d="M317 708q-31 0 -51.5 20t-20.5 51q0 32 20.5 52.5t51.5 20.5t51 -20.5t20 -52.5q0 -31 -20 -51t-51 -20zM516 708q-31 0 -51 20t-20 51q0 32 20 52.5t51 20.5t51 -20.5t20 -52.5q0 -31 -20 -51t-51 -20zM366 -12q-138 0 -226 85.5t-88 225.5q0 163 99.5 271.5
t259.5 108.5q139 0 227 -85t88 -226q0 -163 -99.5 -271.5t-260.5 -108.5zM366 118q95 0 156.5 69.5t61.5 170.5q0 86 -47.5 138.5t-126.5 52.5q-93 0 -154.5 -70t-61.5 -171q0 -85 46.5 -137.5t125.5 -52.5z" />
    <glyph glyph-name="multiply" unicode="&#xd7;" horiz-adv-x="540" 
d="M494 388l-128 -128l128 -128l-79 -79l-128 128l-127 -127l-79 78l127 128l-127 127l78 79l128 -128l128 129z" />
    <glyph glyph-name="Oslash" unicode="&#xd8;" horiz-adv-x="740" 
d="M755 625l-79 -77q50 -77 50 -180q0 -163 -99.5 -271.5t-260.5 -108.5q-119 0 -200 63l-71 -69l-74 56l82 80q-51 76 -51 181q0 163 99.5 271.5t259.5 108.5q119 0 203 -64l68 66zM194 308q0 -48 15 -87l304 296q-41 32 -103 32q-93 0 -154.5 -70t-61.5 -171zM584 358
q0 47 -15 86l-304 -296q43 -30 101 -30q95 0 156.5 69.5t61.5 170.5z" />
    <glyph glyph-name="Ugrave" unicode="&#xd9;" horiz-adv-x="676" 
d="M515 712h-112l-92 156h136zM304 -12q-118 0 -181 56.5t-63 165.5q0 45 10 92l73 365h139l-74 -375q-7 -35 -7 -65q0 -56 27.5 -82.5t85.5 -26.5q72 0 114.5 42t60.5 132l75 375h139l-79 -395q-57 -284 -320 -284z" />
    <glyph glyph-name="Uacute" unicode="&#xda;" horiz-adv-x="676" 
d="M340 712l131 156h156l-154 -156h-133zM304 -12q-118 0 -181 56.5t-63 165.5q0 45 10 92l73 365h139l-74 -375q-7 -35 -7 -65q0 -56 27.5 -82.5t85.5 -26.5q72 0 114.5 42t60.5 132l75 375h139l-79 -395q-57 -284 -320 -284z" />
    <glyph glyph-name="Ucircumflex" unicode="&#xdb;" horiz-adv-x="676" 
d="M451 790l-69 -78h-121l129 156h147l67 -156h-115zM564 667h139l-79 -395q-57 -284 -320 -284q-118 0 -181 56.5t-63 165.5q0 45 10 92l73 365h139l-74 -375q-7 -35 -7 -65q0 -56 27.5 -82.5t85.5 -26.5q72 0 114.5 42t60.5 132z" />
    <glyph glyph-name="Udieresis" unicode="&#xdc;" horiz-adv-x="676" 
d="M347 708q-31 0 -51.5 20t-20.5 51q0 32 20.5 52.5t51.5 20.5t51 -20.5t20 -52.5q0 -31 -20 -51t-51 -20zM546 708q-31 0 -51 20t-20 51q0 32 20 52.5t51 20.5t51 -20.5t20 -52.5q0 -31 -20 -51t-51 -20zM304 -12q-118 0 -181 56.5t-63 165.5q0 45 10 92l73 365h139
l-74 -375q-7 -35 -7 -65q0 -56 27.5 -82.5t85.5 -26.5q72 0 114.5 42t60.5 132l75 375h139l-79 -395q-57 -284 -320 -284z" />
    <glyph glyph-name="Yacute" unicode="&#xdd;" horiz-adv-x="653" 
d="M323 712l131 156h156l-154 -156h-133zM209 0l56 277l-189 390h165l112 -254l213 254h181l-343 -389l-56 -278h-139z" />
    <glyph glyph-name="Thorn" unicode="&#xde;" horiz-adv-x="641" 
d="M389 564q243 0 243 -198q0 -107 -76 -176.5t-197 -69.5h-161l-24 -120h-139l133 667h139l-21 -103h103zM376 250q52 0 83 28.5t31 75.5q0 80 -110 80h-119l-37 -184h152z" />
    <glyph glyph-name="germandbls" unicode="&#xdf;" horiz-adv-x="604" 
d="M470 372q94 -37 94 -151q0 -94 -71.5 -163t-180.5 -69q-80 0 -132 31l54 114q37 -22 83 -22q52 0 83.5 29.5t31.5 74.5q0 86 -107 86h-44l23 120h35q47 0 76.5 30.5t29.5 71.5q0 66 -77 66q-106 0 -136 -151l-88 -439h-130l93 465q24 117 92.5 181t179.5 64
q88 0 140.5 -44.5t52.5 -124.5q0 -54 -27.5 -98t-74.5 -71z" />
    <glyph glyph-name="agrave" unicode="&#xe0;" horiz-adv-x="580" 
d="M438 552h-112l-92 156h136zM444 481h122l-96 -481h-122l11 53q-67 -64 -154 -64q-82 0 -131 55t-49 148q0 123 76.5 211t183.5 88q100 0 145 -82zM256 112q57 0 95.5 44t38.5 110q0 48 -26 75.5t-72 27.5q-55 0 -93 -44.5t-38 -106.5q0 -49 25.5 -77.5t69.5 -28.5z" />
    <glyph glyph-name="aacute" unicode="&#xe1;" horiz-adv-x="580" 
d="M537 708l-154 -156h-133l131 156h156zM444 481h122l-96 -481h-122l11 53q-67 -64 -154 -64q-82 0 -131 55t-49 148q0 123 76.5 211t183.5 88q100 0 145 -82zM256 112q57 0 95.5 44t38.5 110q0 48 -26 75.5t-72 27.5q-55 0 -93 -44.5t-38 -106.5q0 -49 25.5 -77.5
t69.5 -28.5z" />
    <glyph glyph-name="acircumflex" unicode="&#xe2;" horiz-adv-x="580" 
d="M368 630l-69 -78h-121l129 156h147l67 -156h-115zM444 481h122l-96 -481h-122l11 53q-67 -64 -154 -64q-82 0 -131 55t-49 148q0 123 76.5 211t183.5 88q100 0 145 -82zM256 112q57 0 95.5 44t38.5 110q0 48 -26 75.5t-72 27.5q-55 0 -93 -44.5t-38 -106.5
q0 -49 25.5 -77.5t69.5 -28.5z" />
    <glyph glyph-name="atilde" unicode="&#xe3;" horiz-adv-x="580" 
d="M302 598q-16 0 -28 -14t-15 -36h-91q14 71 52 115t92 44q36 0 68.5 -26t46.5 -26q34 0 44 52h91q-14 -72 -51 -115.5t-92 -43.5q-36 0 -70 25t-47 25zM444 481h122l-96 -481h-122l11 53q-67 -64 -154 -64q-82 0 -131 55t-49 148q0 123 76.5 211t183.5 88q100 0 145 -82z
M256 112q57 0 95.5 44t38.5 110q0 48 -26 75.5t-72 27.5q-55 0 -93 -44.5t-38 -106.5q0 -49 25.5 -77.5t69.5 -28.5z" />
    <glyph glyph-name="adieresis" unicode="&#xe4;" horiz-adv-x="580" 
d="M251 562q-32 0 -52 19.5t-20 51.5q0 31 20 51.5t52 20.5q31 0 51 -20.5t20 -51.5t-20 -51t-51 -20zM450 562q-32 0 -51.5 19.5t-19.5 51.5q0 31 19.5 51.5t51.5 20.5q31 0 51 -20.5t20 -51.5t-19.5 -51t-51.5 -20zM444 481h122l-96 -481h-122l11 53q-67 -64 -154 -64
q-82 0 -131 55t-49 148q0 123 76.5 211t183.5 88q100 0 145 -82zM256 112q57 0 95.5 44t38.5 110q0 48 -26 75.5t-72 27.5q-55 0 -93 -44.5t-38 -106.5q0 -49 25.5 -77.5t69.5 -28.5z" />
    <glyph glyph-name="aring" unicode="&#xe5;" horiz-adv-x="580" 
d="M354 537q-45 0 -77.5 32t-32.5 76q0 46 32.5 78t77.5 32t76.5 -32t31.5 -78q0 -44 -31.5 -76t-76.5 -32zM354 695q-21 0 -36 -14.5t-15 -35.5q0 -20 15 -34.5t36 -14.5q20 0 34.5 15t14.5 34q0 21 -14.5 35.5t-34.5 14.5zM444 481h122l-96 -481h-122l11 53
q-67 -64 -154 -64q-82 0 -131 55t-49 148q0 123 76.5 211t183.5 88q100 0 145 -82zM256 112q57 0 95.5 44t38.5 110q0 48 -26 75.5t-72 27.5q-55 0 -93 -44.5t-38 -106.5q0 -49 25.5 -77.5t69.5 -28.5z" />
    <glyph glyph-name="ae" unicode="&#xe6;" horiz-adv-x="799" 
d="M770 308q0 -52 -18 -109h-307q4 -48 28 -69.5t75 -21.5q72 0 146 36l15 -111q-82 -44 -174 -44q-139 0 -185 92q-56 -92 -179 -92q-78 0 -123 35t-45 103q0 74 57 120t171 46h97q1 4 1 13q0 67 -82 67q-74 0 -149 -34l-2 116q79 36 176 36q102 0 145 -66q71 66 172 66
q82 0 131.5 -50t49.5 -133zM577 380q-40 0 -70.5 -24.5t-46.5 -62.5h185v10q0 77 -68 77zM197 94q43 0 72 20t36 58l5 27h-77q-100 0 -100 -58q0 -47 64 -47z" />
    <glyph glyph-name="ccedilla" unicode="&#xe7;" horiz-adv-x="447" 
d="M304 369q-63 0 -101.5 -44.5t-38.5 -104.5q0 -108 110 -108q50 0 100 26l12 -115q-66 -34 -138 -34h-17l-11 -26q32 -2 50 -19t18 -43q0 -43 -32 -65t-86 -22q-45 0 -73 15l28 62q22 -12 44 -12q30 0 30 19q0 16 -21 16q-12 0 -22 -3l-20 6l36 82q-67 20 -103.5 75
t-36.5 141q0 112 76.5 194t201.5 82q99 0 157 -45l-59 -116q-42 39 -104 39z" />
    <glyph glyph-name="egrave" unicode="&#xe8;" horiz-adv-x="525" 
d="M414 552h-112l-92 156h136zM496 308q0 -52 -18 -109h-316q4 -47 30.5 -69t81.5 -22q76 0 151 33l15 -114q-78 -38 -173 -38q-111 0 -173 57.5t-62 169.5q0 120 78 197.5t192 77.5q90 0 142 -49.5t52 -133.5zM293 380q-39 0 -69.5 -24.5t-46.5 -62.5h194v5q0 82 -78 82z
" />
    <glyph glyph-name="eacute" unicode="&#xe9;" horiz-adv-x="525" 
d="M513 708l-154 -156h-133l131 156h156zM302 491q90 0 142 -49.5t52 -133.5q0 -52 -18 -109h-316q4 -47 30.5 -69t81.5 -22q76 0 151 33l15 -114q-78 -38 -173 -38q-111 0 -173 57.5t-62 169.5q0 120 78 197.5t192 77.5zM293 380q-39 0 -69.5 -24.5t-46.5 -62.5h194v5
q0 82 -78 82z" />
    <glyph glyph-name="ecircumflex" unicode="&#xea;" horiz-adv-x="525" 
d="M344 630l-69 -78h-121l129 156h147l67 -156h-115zM302 491q90 0 142 -49.5t52 -133.5q0 -52 -18 -109h-316q4 -47 30.5 -69t81.5 -22q76 0 151 33l15 -114q-78 -38 -173 -38q-111 0 -173 57.5t-62 169.5q0 120 78 197.5t192 77.5zM293 380q-39 0 -69.5 -24.5t-46.5 -62.5
h194v5q0 82 -78 82z" />
    <glyph glyph-name="edieresis" unicode="&#xeb;" horiz-adv-x="525" 
d="M227 562q-32 0 -52 19.5t-20 51.5q0 31 20 51.5t52 20.5q31 0 51 -20.5t20 -51.5t-20 -51t-51 -20zM426 562q-32 0 -51.5 19.5t-19.5 51.5q0 31 19.5 51.5t51.5 20.5q31 0 51 -20.5t20 -51.5t-19.5 -51t-51.5 -20zM302 491q90 0 142 -49.5t52 -133.5q0 -52 -18 -109h-316
q4 -47 30.5 -69t81.5 -22q76 0 151 33l15 -114q-78 -38 -173 -38q-111 0 -173 57.5t-62 169.5q0 120 78 197.5t192 77.5zM293 380q-39 0 -69.5 -24.5t-46.5 -62.5h194v5q0 82 -78 82z" />
    <glyph glyph-name="igrave" unicode="&#xec;" horiz-adv-x="255" 
d="M277 552h-112l-92 156h136zM110 481h130l-96 -481h-130z" />
    <glyph glyph-name="iacute" unicode="&#xed;" horiz-adv-x="255" 
d="M89 552l131 156h156l-154 -156h-133zM110 481h130l-96 -481h-130z" />
    <glyph glyph-name="icircumflex" unicode="&#xee;" horiz-adv-x="255" 
d="M293 708l67 -156h-115l-38 78l-69 -78h-121l129 156h147zM14 0l96 481h130l-96 -481h-130z" />
    <glyph glyph-name="idieresis" unicode="&#xef;" horiz-adv-x="255" 
d="M116 562q-30 0 -49.5 20t-19.5 51t19.5 51.5t49.5 20.5t49.5 -20.5t19.5 -51.5t-19.5 -51t-49.5 -20zM289 562q-31 0 -50 19.5t-19 51.5q0 31 19.5 51.5t49.5 20.5t49.5 -20.5t19.5 -51.5q0 -32 -19 -51.5t-50 -19.5zM110 481h130l-96 -481h-130z" />
    <glyph glyph-name="eth" unicode="&#xf0;" horiz-adv-x="550" 
d="M543 616l-79 -32q63 -112 63 -246q0 -153 -76.5 -251t-216.5 -98q-102 0 -155 53t-53 148q0 106 73 180.5t179 74.5q72 0 120 -37q-16 67 -59 125l-155 -62l-3 82l103 42q-24 23 -56 45l131 71q32 -27 60 -62l120 48zM251 112q58 0 95.5 37t37.5 95q0 39 -26.5 63
t-69.5 24q-57 0 -93 -38t-36 -93q0 -40 24.5 -64t67.5 -24z" />
    <glyph glyph-name="ntilde" unicode="&#xf1;" horiz-adv-x="564" 
d="M296 598q-16 0 -28 -14t-15 -36h-91q14 71 52 115t92 44q36 0 68.5 -26t46.5 -26q34 0 44 52h91q-14 -72 -51 -115.5t-92 -43.5q-36 0 -70 25t-47 25zM366 491q71 0 112 -45t41 -127q0 -36 -10 -89l-45 -230h-130l46 234q7 37 7 57q0 78 -73 78q-46 0 -77 -30t-42 -86
l-51 -253h-130l96 481h122l-12 -59q56 69 146 69z" />
    <glyph glyph-name="ograve" unicode="&#xf2;" horiz-adv-x="550" 
d="M425 552h-112l-92 156h136zM248 -11q-97 0 -157 61t-60 161q0 118 77.5 199t193.5 81q98 0 157 -60t59 -161q0 -119 -77 -200t-193 -81zM253 112q55 0 95 45t40 107q0 49 -24.5 77t-66.5 28q-57 0 -96 -44.5t-39 -107.5q0 -48 24.5 -76.5t66.5 -28.5z" />
    <glyph glyph-name="oacute" unicode="&#xf3;" horiz-adv-x="550" 
d="M237 552l131 156h156l-154 -156h-133zM248 -11q-97 0 -157 61t-60 161q0 118 77.5 199t193.5 81q98 0 157 -60t59 -161q0 -119 -77 -200t-193 -81zM253 112q55 0 95 45t40 107q0 49 -24.5 77t-66.5 28q-57 0 -96 -44.5t-39 -107.5q0 -48 24.5 -76.5t66.5 -28.5z" />
    <glyph glyph-name="ocircumflex" unicode="&#xf4;" horiz-adv-x="550" 
d="M355 630l-69 -78h-121l129 156h147l67 -156h-115zM302 491q98 0 157 -60t59 -161q0 -119 -77 -200t-193 -81q-97 0 -157 61t-60 161q0 118 77.5 199t193.5 81zM253 112q55 0 95 45t40 107q0 49 -24.5 77t-66.5 28q-57 0 -96 -44.5t-39 -107.5q0 -48 24.5 -76.5
t66.5 -28.5z" />
    <glyph glyph-name="otilde" unicode="&#xf5;" horiz-adv-x="550" 
d="M155 548q14 71 52 115t92 44q36 0 68.5 -26t46.5 -26q34 0 44 52h91q-14 -72 -51 -115.5t-92 -43.5q-36 0 -70 25t-47 25q-16 0 -28 -14t-15 -36h-91zM248 -11q-97 0 -157 61t-60 161q0 118 77.5 199t193.5 81q98 0 157 -60t59 -161q0 -119 -77 -200t-193 -81zM253 112
q55 0 95 45t40 107q0 49 -24.5 77t-66.5 28q-57 0 -96 -44.5t-39 -107.5q0 -48 24.5 -76.5t66.5 -28.5z" />
    <glyph glyph-name="odieresis" unicode="&#xf6;" horiz-adv-x="550" 
d="M238 562q-32 0 -52 19.5t-20 51.5q0 31 20 51.5t52 20.5q31 0 51 -20.5t20 -51.5t-19.5 -51t-51.5 -20zM437 562q-32 0 -51.5 19.5t-19.5 51.5q0 31 19.5 51.5t51.5 20.5q31 0 51 -20.5t20 -51.5t-20 -51t-51 -20zM248 -11q-97 0 -157 61t-60 161q0 118 77.5 199
t193.5 81q98 0 157 -60t59 -161q0 -119 -77 -200t-193 -81zM253 112q55 0 95 45t40 107q0 49 -24.5 77t-66.5 28q-57 0 -96 -44.5t-39 -107.5q0 -48 24.5 -76.5t66.5 -28.5z" />
    <glyph glyph-name="divide" unicode="&#xf7;" horiz-adv-x="540" 
d="M287 371q-34 0 -55.5 22t-21.5 55t21.5 55t55.5 22t55.5 -22t21.5 -55t-21.5 -55t-55.5 -22zM62 316h450v-112h-450v112zM287 -5q-34 0 -55.5 22t-21.5 55q0 34 21.5 56t55.5 22t55.5 -22t21.5 -56q0 -33 -21.5 -55t-55.5 -22z" />
    <glyph glyph-name="oslash" unicode="&#xf8;" horiz-adv-x="550" 
d="M544 448l-56 -54q30 -51 30 -124q0 -118 -79.5 -199.5t-195.5 -81.5q-79 0 -132 41l-48 -47l-62 47l60 58q-30 51 -30 123q0 116 80.5 198t195.5 82q77 0 130 -39l45 44zM152 215q0 -20 4 -35l191 186q-19 12 -49 12q-61 0 -103.5 -48t-42.5 -115zM395 266q0 20 -4 35
l-192 -186q20 -13 51 -13q60 0 102.5 48.5t42.5 115.5z" />
    <glyph glyph-name="ugrave" unicode="&#xf9;" horiz-adv-x="564" 
d="M429 552h-112l-92 156h136zM420 481h130l-96 -481h-122l12 60q-55 -70 -146 -70q-71 0 -112.5 45t-41.5 127q0 37 10 89l46 230h130l-47 -234q-7 -49 -7 -57q0 -77 74 -77q96 0 119 115z" />
    <glyph glyph-name="uacute" unicode="&#xfa;" horiz-adv-x="564" 
d="M528 708l-154 -156h-133l131 156h156zM420 481h130l-96 -481h-122l12 60q-55 -70 -146 -70q-71 0 -112.5 45t-41.5 127q0 37 10 89l46 230h130l-47 -234q-7 -49 -7 -57q0 -77 74 -77q96 0 119 115z" />
    <glyph glyph-name="ucircumflex" unicode="&#xfb;" horiz-adv-x="564" 
d="M359 630l-69 -78h-121l129 156h147l67 -156h-115zM420 481h130l-96 -481h-122l12 60q-55 -70 -146 -70q-71 0 -112.5 45t-41.5 127q0 37 10 89l46 230h130l-47 -234q-7 -49 -7 -57q0 -77 74 -77q96 0 119 115z" />
    <glyph glyph-name="udieresis" unicode="&#xfc;" horiz-adv-x="564" 
d="M242 562q-32 0 -52 19.5t-20 51.5q0 31 20 51.5t52 20.5q31 0 51 -20.5t20 -51.5t-19.5 -51t-51.5 -20zM441 562q-32 0 -51.5 19.5t-19.5 51.5q0 31 19.5 51.5t51.5 20.5q31 0 51 -20.5t20 -51.5t-20 -51t-51 -20zM420 481h130l-96 -481h-122l12 60q-55 -70 -146 -70
q-71 0 -112.5 45t-41.5 127q0 37 10 89l46 230h130l-47 -234q-7 -49 -7 -57q0 -77 74 -77q96 0 119 115z" />
    <glyph glyph-name="yacute" unicode="&#xfd;" horiz-adv-x="526" 
d="M507 708l-154 -156h-133l131 156h156zM425 481h144l-309 -522q-46 -78 -93 -110t-115 -32q-53 0 -92 15l44 121q29 -8 58 -8q30 0 49.5 14t38.5 50l-97 472h133l57 -320z" />
    <glyph glyph-name="thorn" unicode="&#xfe;" horiz-adv-x="584" 
d="M374 491q83 0 132.5 -55t49.5 -148q0 -123 -76.5 -211t-184.5 -88q-93 0 -139 72l-47 -236h-130l175 877h130l-53 -267q62 56 143 56zM289 112q54 0 92 44t38 107q0 49 -25.5 77.5t-69.5 28.5q-57 0 -95.5 -44.5t-38.5 -110.5q0 -48 26 -75t73 -27z" />
    <glyph glyph-name="ydieresis" unicode="&#xff;" horiz-adv-x="526" 
d="M221 562q-32 0 -52 19.5t-20 51.5q0 31 20 51.5t52 20.5q31 0 51 -20.5t20 -51.5t-20 -51t-51 -20zM420 562q-32 0 -51.5 19.5t-19.5 51.5q0 31 19.5 51.5t51.5 20.5q31 0 51 -20.5t20 -51.5t-19.5 -51t-51.5 -20zM425 481h144l-309 -522q-46 -78 -93 -110t-115 -32
q-53 0 -92 15l44 121q29 -8 58 -8q30 0 49.5 14t38.5 50l-97 472h133l57 -320z" />
    <glyph glyph-name="Amacron" unicode="&#x100;" horiz-adv-x="681" 
d="M605 818l-19 -95h-297l19 95h297zM491 0l-27 148h-276l-86 -148h-150l396 667h155l130 -667h-142zM264 279h176l-42 230z" />
    <glyph glyph-name="amacron" unicode="&#x101;" horiz-adv-x="580" 
d="M525 680l-19 -95h-297l19 95h297zM444 481h122l-96 -481h-122l11 53q-67 -64 -154 -64q-82 0 -131 55t-49 148q0 123 76.5 211t183.5 88q100 0 145 -82zM256 112q57 0 95.5 44t38.5 110q0 48 -26 75.5t-72 27.5q-55 0 -93 -44.5t-38 -106.5q0 -49 25.5 -77.5t69.5 -28.5z
" />
    <glyph glyph-name="Abreve" unicode="&#x102;" horiz-adv-x="681" 
d="M444 708q-58 0 -95.5 34.5t-37.5 90.5q0 17 3 33h89q-2 -10 -2 -18q0 -19 13 -30.5t35 -11.5q26 0 45.5 16.5t24.5 43.5h98q-14 -70 -60.5 -114t-112.5 -44zM491 0l-27 148h-276l-86 -148h-150l396 667h155l130 -667h-142zM264 279h176l-42 230z" />
    <glyph glyph-name="abreve" unicode="&#x103;" horiz-adv-x="580" 
d="M359 548q-58 0 -95.5 34.5t-37.5 90.5q0 17 3 33h89q-2 -10 -2 -18q0 -19 13 -30.5t35 -11.5q26 0 45.5 16.5t24.5 43.5h98q-14 -70 -60.5 -114t-112.5 -44zM444 481h122l-96 -481h-122l11 53q-67 -64 -154 -64q-82 0 -131 55t-49 148q0 123 76.5 211t183.5 88
q100 0 145 -82zM256 112q57 0 95.5 44t38.5 110q0 48 -26 75.5t-72 27.5q-55 0 -93 -44.5t-38 -106.5q0 -49 25.5 -77.5t69.5 -28.5z" />
    <glyph glyph-name="Aogonek" unicode="&#x104;" horiz-adv-x="681" 
d="M572 0q-72 -55 -72 -82q0 -15 20 -15q14 0 36 8l2 -74q-40 -21 -88 -21q-35 0 -54 15t-19 43q0 64 93 130l-26 144h-276l-86 -148h-150l396 667h155l130 -667h-61zM264 279h176l-42 230z" />
    <glyph glyph-name="aogonek" unicode="&#x105;" horiz-adv-x="580" 
d="M470 0q-72 -55 -72 -82q0 -15 20 -15q14 0 36 8l2 -74q-40 -21 -88 -21q-35 0 -54 15t-19 43q0 63 88 126h-35l11 53q-67 -64 -154 -64q-82 0 -131 55t-49 148q0 123 76.5 211t183.5 88q100 0 145 -82l14 72h122zM256 112q57 0 95.5 44t38.5 110q0 48 -26 75.5t-72 27.5
q-55 0 -93 -44.5t-38 -106.5q0 -49 25.5 -77.5t69.5 -28.5z" />
    <glyph glyph-name="Cacute" unicode="&#x106;" horiz-adv-x="612" 
d="M350 712l131 156h156l-154 -156h-133zM338 -12q-137 0 -214 76.5t-77 211.5q0 171 107 287t275 116q69 0 129 -20.5t93 -56.5l-56 -112q-64 59 -164 59q-106 0 -174 -73.5t-68 -186.5q0 -82 40 -126.5t118 -44.5q97 0 186 59l14 -137q-92 -52 -209 -52z" />
    <glyph glyph-name="cacute" unicode="&#x107;" horiz-adv-x="447" 
d="M214 552l131 156h156l-154 -156h-133zM248 -11q-100 0 -158 58.5t-58 167.5q0 112 76.5 194t201.5 82q99 0 157 -45l-59 -116q-42 39 -104 39q-63 0 -101.5 -44.5t-38.5 -104.5q0 -108 110 -108q50 0 100 26l12 -115q-66 -34 -138 -34z" />
    <glyph glyph-name="Ccircumflex" unicode="&#x108;" horiz-adv-x="612" 
d="M461 790l-69 -78h-121l129 156h147l67 -156h-115zM431 549q-106 0 -174 -73.5t-68 -186.5q0 -82 40 -126.5t118 -44.5q97 0 186 59l14 -137q-92 -52 -209 -52q-137 0 -214 76.5t-77 211.5q0 171 107 287t275 116q69 0 129 -20.5t93 -56.5l-56 -112q-64 59 -164 59z" />
    <glyph glyph-name="ccircumflex" unicode="&#x109;" horiz-adv-x="447" 
d="M332 630l-69 -78h-121l129 156h147l67 -156h-115zM32 215q0 112 76.5 194t201.5 82q99 0 157 -45l-59 -116q-42 39 -104 39q-63 0 -101.5 -44.5t-38.5 -104.5q0 -108 110 -108q50 0 100 26l12 -115q-66 -34 -138 -34q-100 0 -158 58.5t-58 167.5z" />
    <glyph glyph-name="Cdotaccent" unicode="&#x10a;" horiz-adv-x="612" 
d="M454 705q-34 0 -56 21t-22 53q0 34 22 55t56 21q36 0 58 -21t22 -55q0 -33 -22 -53.5t-58 -20.5zM338 -12q-137 0 -214 76.5t-77 211.5q0 171 107 287t275 116q69 0 129 -20.5t93 -56.5l-56 -112q-64 59 -164 59q-106 0 -174 -73.5t-68 -186.5q0 -82 40 -126.5t118 -44.5
q97 0 186 59l14 -137q-92 -52 -209 -52z" />
    <glyph glyph-name="cdotaccent" unicode="&#x10b;" horiz-adv-x="447" 
d="M329 558q-34 0 -56 21t-22 54t22 54t56 21q36 0 58 -20.5t22 -54.5q0 -33 -22 -54t-58 -21zM248 -11q-100 0 -158 58.5t-58 167.5q0 112 76.5 194t201.5 82q99 0 157 -45l-59 -116q-42 39 -104 39q-63 0 -101.5 -44.5t-38.5 -104.5q0 -108 110 -108q50 0 100 26l12 -115
q-66 -34 -138 -34z" />
    <glyph glyph-name="Ccaron" unicode="&#x10c;" horiz-adv-x="612" 
d="M369 712l-67 156h115l37 -77l69 77h122l-129 -156h-147zM431 549q-106 0 -174 -73.5t-68 -186.5q0 -82 40 -126.5t118 -44.5q97 0 186 59l14 -137q-92 -52 -209 -52q-137 0 -214 76.5t-77 211.5q0 171 107 287t275 116q69 0 129 -20.5t93 -56.5l-56 -112q-64 59 -164 59z
" />
    <glyph glyph-name="ccaron" unicode="&#x10d;" horiz-adv-x="447" 
d="M240 552l-67 156h115l37 -77l69 77h122l-129 -156h-147zM32 215q0 112 76.5 194t201.5 82q99 0 157 -45l-59 -116q-42 39 -104 39q-63 0 -101.5 -44.5t-38.5 -104.5q0 -108 110 -108q50 0 100 26l12 -115q-66 -34 -138 -34q-100 0 -158 58.5t-58 167.5z" />
    <glyph glyph-name="Dcaron" unicode="&#x10e;" horiz-adv-x="674" 
d="M349 712l-67 156h115l37 -77l69 77h122l-129 -156h-147zM338 667q161 0 243.5 -72t82.5 -210q0 -170 -112 -277.5t-300 -107.5h-227l133 667h180zM258 130q120 0 191 66t71 174q0 167 -196 167h-52l-82 -407h68z" />
    <glyph glyph-name="dcaron" unicode="&#x10f;" horiz-adv-x="635" 
d="M480 702h130l-140 -702h-122l11 54q-68 -65 -153 -65q-83 0 -132 55t-49 148q0 123 76.5 211t183.5 88q94 0 139 -72zM653 702h127l-100 -177h-82zM256 112q57 0 95.5 44t38.5 110q0 48 -26 75.5t-72 27.5q-55 0 -93 -44.5t-38 -106.5q0 -49 25.5 -77.5t69.5 -28.5z" />
    <glyph glyph-name="Dcroat" unicode="&#x110;" horiz-adv-x="674" 
d="M338 667q161 0 243.5 -72t82.5 -210q0 -170 -112 -277.5t-300 -107.5h-227l57 286h-70l22 112h70l54 269h180zM258 130q120 0 191 66t71 174q0 167 -196 167h-52l-28 -139h152l-22 -112h-153l-31 -156h68z" />
    <glyph glyph-name="dcroat" unicode="&#x111;" horiz-adv-x="580" 
d="M652 652l-23 -96h-48l-111 -556h-122l11 54q-68 -65 -153 -65q-83 0 -132 55t-49 148q0 123 76.5 211t183.5 88q94 0 139 -72l27 137h-156l23 96h152l10 50h130l-10 -50h52zM256 112q57 0 95.5 44t38.5 110q0 48 -26 75.5t-72 27.5q-55 0 -93 -44.5t-38 -106.5
q0 -49 25.5 -77.5t69.5 -28.5z" />
    <glyph glyph-name="Emacron" unicode="&#x112;" horiz-adv-x="574" 
d="M269 818h297l-19 -95h-297zM590 537h-318l-26 -130h248l-25 -130h-249l-30 -147h319l-26 -130h-458l133 667h458z" />
    <glyph glyph-name="emacron" unicode="&#x113;" horiz-adv-x="525" 
d="M501 680l-19 -95h-297l19 95h297zM302 491q90 0 142 -49.5t52 -133.5q0 -52 -18 -109h-316q4 -47 30.5 -69t81.5 -22q76 0 151 33l15 -114q-78 -38 -173 -38q-111 0 -173 57.5t-62 169.5q0 120 78 197.5t192 77.5zM293 380q-39 0 -69.5 -24.5t-46.5 -62.5h194v5
q0 82 -78 82z" />
    <glyph glyph-name="Ebreve" unicode="&#x114;" horiz-adv-x="574" 
d="M480 866h98q-14 -70 -60.5 -114t-112.5 -44q-58 0 -95.5 34.5t-37.5 90.5q0 17 3 33h89q-2 -10 -2 -18q0 -19 13 -30.5t35 -11.5q26 0 45.5 16.5t24.5 43.5zM590 537h-318l-26 -130h248l-25 -130h-249l-30 -147h319l-26 -130h-458l133 667h458z" />
    <glyph glyph-name="ebreve" unicode="&#x115;" horiz-adv-x="525" 
d="M335 548q-58 0 -95.5 34.5t-37.5 90.5q0 17 3 33h89q-2 -10 -2 -18q0 -19 13 -30.5t35 -11.5q26 0 45.5 16.5t24.5 43.5h98q-14 -70 -60.5 -114t-112.5 -44zM302 491q90 0 142 -49.5t52 -133.5q0 -52 -18 -109h-316q4 -47 30.5 -69t81.5 -22q76 0 151 33l15 -114
q-78 -38 -173 -38q-111 0 -173 57.5t-62 169.5q0 120 78 197.5t192 77.5zM293 380q-39 0 -69.5 -24.5t-46.5 -62.5h194v5q0 82 -78 82z" />
    <glyph glyph-name="Edotaccent" unicode="&#x116;" horiz-adv-x="574" 
d="M407 705q-34 0 -56 21t-22 53q0 34 22 55t56 21q36 0 58 -21t22 -55q0 -33 -22 -53.5t-58 -20.5zM590 537h-318l-26 -130h248l-25 -130h-249l-30 -147h319l-26 -130h-458l133 667h458z" />
    <glyph glyph-name="edotaccent" unicode="&#x117;" horiz-adv-x="525" 
d="M341 558q-34 0 -56 21t-22 54t22 54t56 21q36 0 58 -20.5t22 -54.5q0 -33 -22 -54t-58 -21zM496 308q0 -52 -18 -109h-316q4 -47 30.5 -69t81.5 -22q76 0 151 33l15 -114q-78 -38 -173 -38q-111 0 -173 57.5t-62 169.5q0 120 78 197.5t192 77.5q90 0 142 -49.5t52 -133.5
zM293 380q-39 0 -69.5 -24.5t-46.5 -62.5h194v5q0 82 -78 82z" />
    <glyph glyph-name="Eogonek" unicode="&#x118;" horiz-adv-x="574" 
d="M590 537h-318l-26 -130h248l-25 -130h-249l-30 -147h319l-26 -130h-17q-72 -55 -72 -82q0 -15 20 -15q14 0 36 8l2 -74q-40 -21 -88 -21q-35 0 -54 15t-19 43q0 63 88 126h-354l133 667h458z" />
    <glyph glyph-name="eogonek" unicode="&#x119;" horiz-adv-x="525" 
d="M496 308q0 -52 -18 -109h-316q4 -48 28 -69.5t74 -21.5q76 0 156 40l14 -111q-78 -54 -102 -78.5t-24 -42.5q0 -15 18 -15q17 0 37 8l2 -74q-40 -21 -87 -21q-35 0 -54 15t-19 43q0 57 91 121q-30 -4 -44 -4q-104 0 -162 57.5t-58 169.5q0 110 74.5 192.5t195.5 82.5
q90 0 142 -49.5t52 -133.5zM293 380q-39 0 -69.5 -24.5t-46.5 -62.5h194v5q0 82 -78 82z" />
    <glyph glyph-name="Ecaron" unicode="&#x11a;" horiz-adv-x="574" 
d="M322 712l-67 156h115l37 -77l69 77h122l-129 -156h-147zM590 537h-318l-26 -130h248l-25 -130h-249l-30 -147h319l-26 -130h-458l133 667h458z" />
    <glyph glyph-name="ecaron" unicode="&#x11b;" horiz-adv-x="525" 
d="M252 552l-67 156h115l37 -77l69 77h122l-129 -156h-147zM302 491q90 0 142 -49.5t52 -133.5q0 -52 -18 -109h-316q4 -47 30.5 -69t81.5 -22q76 0 151 33l15 -114q-78 -38 -173 -38q-111 0 -173 57.5t-62 169.5q0 120 78 197.5t192 77.5zM293 380q-39 0 -69.5 -24.5
t-46.5 -62.5h194v5q0 82 -78 82z" />
    <glyph glyph-name="Gcircumflex" unicode="&#x11c;" horiz-adv-x="661" 
d="M468 790l-69 -78h-121l129 156h147l67 -156h-115zM354 255l27 131h257l-65 -330q-100 -68 -248 -68q-131 0 -204.5 76.5t-73.5 211.5q0 171 107 287t273 116q154 0 232 -70l-60 -119q-64 59 -167 59q-107 0 -175 -73.5t-68 -186.5q0 -81 39.5 -126t113.5 -45q61 0 108 22
l22 115h-118z" />
    <glyph glyph-name="gcircumflex" unicode="&#x11d;" horiz-adv-x="579" 
d="M368 630l-69 -78h-121l129 156h147l67 -156h-115zM443 481h122l-89 -447q-21 -106 -95 -162t-193 -56q-116 0 -200 50l53 108q65 -39 145 -39q139 0 165 127l3 18q-68 -67 -154 -67q-79 0 -126 54t-47 138q0 119 71.5 202.5t185.5 83.5q101 0 144 -87zM257 131
q56 0 95 43t39 104q0 40 -26.5 67.5t-71.5 27.5q-54 0 -92.5 -44t-38.5 -100q0 -43 25.5 -70.5t69.5 -27.5z" />
    <glyph glyph-name="Gbreve" unicode="&#x11e;" horiz-adv-x="661" 
d="M459 708q-58 0 -95.5 34.5t-37.5 90.5q0 17 3 33h89q-2 -10 -2 -18q0 -19 13 -30.5t35 -11.5q26 0 45.5 16.5t24.5 43.5h98q-14 -70 -60.5 -114t-112.5 -44zM354 255l27 131h257l-65 -330q-100 -68 -248 -68q-131 0 -204.5 76.5t-73.5 211.5q0 171 107 287t273 116
q154 0 232 -70l-60 -119q-64 59 -167 59q-107 0 -175 -73.5t-68 -186.5q0 -81 39.5 -126t113.5 -45q61 0 108 22l22 115h-118z" />
    <glyph glyph-name="gbreve" unicode="&#x11f;" horiz-adv-x="579" 
d="M359 548q-58 0 -95.5 34.5t-37.5 90.5q0 17 3 33h89q-2 -10 -2 -18q0 -19 13 -30.5t35 -11.5q26 0 45.5 16.5t24.5 43.5h98q-14 -70 -60.5 -114t-112.5 -44zM443 481h122l-89 -447q-21 -106 -95 -162t-193 -56q-116 0 -200 50l53 108q65 -39 145 -39q139 0 165 127l3 18
q-68 -67 -154 -67q-79 0 -126 54t-47 138q0 119 71.5 202.5t185.5 83.5q101 0 144 -87zM257 131q56 0 95 43t39 104q0 40 -26.5 67.5t-71.5 27.5q-54 0 -92.5 -44t-38.5 -100q0 -43 25.5 -70.5t69.5 -27.5z" />
    <glyph glyph-name="Gdotaccent" unicode="&#x120;" horiz-adv-x="661" 
d="M461 705q-34 0 -56 21t-22 53q0 34 22 55t56 21q36 0 58 -21t22 -55q0 -33 -22 -53.5t-58 -20.5zM354 255l27 131h257l-65 -330q-100 -68 -248 -68q-131 0 -204.5 76.5t-73.5 211.5q0 171 107 287t273 116q154 0 232 -70l-60 -119q-64 59 -167 59q-107 0 -175 -73.5
t-68 -186.5q0 -81 39.5 -126t113.5 -45q61 0 108 22l22 115h-118z" />
    <glyph glyph-name="gdotaccent" unicode="&#x121;" horiz-adv-x="579" 
d="M365 558q-34 0 -56 21t-22 54t22 54t56 21q36 0 58 -20.5t22 -54.5q0 -33 -22 -54t-58 -21zM443 481h122l-89 -447q-21 -106 -95 -162t-193 -56q-116 0 -200 50l53 108q65 -39 145 -39q139 0 165 127l3 18q-68 -67 -154 -67q-79 0 -126 54t-47 138q0 119 71.5 202.5
t185.5 83.5q101 0 144 -87zM257 131q56 0 95 43t39 104q0 40 -26.5 67.5t-71.5 27.5q-54 0 -92.5 -44t-38.5 -100q0 -43 25.5 -70.5t69.5 -27.5z" />
    <glyph glyph-name="uni0122" unicode="&#x122;" horiz-adv-x="661" 
d="M354 255l27 131h257l-65 -330q-100 -68 -248 -68q-131 0 -204.5 76.5t-73.5 211.5q0 171 107 287t273 116q154 0 232 -70l-60 -119q-64 59 -167 59q-107 0 -175 -73.5t-68 -186.5q0 -81 39.5 -126t113.5 -45q61 0 108 22l22 115h-118zM174 -175l59 118h150l-85 -118h-124
z" />
    <glyph glyph-name="uni0123" unicode="&#x123;" horiz-adv-x="579" 
d="M478 708l-82 -157h-145l109 157h118zM443 481h122l-89 -447q-21 -106 -95 -162t-193 -56q-116 0 -200 50l53 108q65 -39 145 -39q139 0 165 127l3 18q-68 -67 -154 -67q-79 0 -126 54t-47 138q0 119 71.5 202.5t185.5 83.5q101 0 144 -87zM257 131q56 0 95 43t39 104
q0 40 -26.5 67.5t-71.5 27.5q-54 0 -92.5 -44t-38.5 -100q0 -43 25.5 -70.5t69.5 -27.5z" />
    <glyph glyph-name="Hcircumflex" unicode="&#x124;" horiz-adv-x="707" 
d="M465 790l-69 -78h-121l129 156h147l67 -156h-115zM580 667h139l-133 -667h-139l55 277h-283l-55 -277h-139l133 667h139l-52 -260h283z" />
    <glyph glyph-name="hcircumflex" unicode="&#x125;" horiz-adv-x="564" 
d="M401 825l-69 -78h-121l129 156h147l67 -156h-115zM366 491q71 0 112 -45t41 -127q0 -36 -10 -89l-45 -230h-130l46 234q7 37 7 57q0 78 -73 78q-46 0 -77 -30t-42 -86l-51 -253h-130l140 702h130l-53 -268q53 57 135 57z" />
    <glyph glyph-name="Hbar" unicode="&#x126;" horiz-adv-x="707" 
d="M764 598l-18 -95h-60l-100 -503h-139l55 277h-283l-55 -277h-139l100 503h-57l18 95h58l14 69h139l-14 -69h283l14 69h139l-14 -69h59zM528 407l19 96h-283l-19 -96h283z" />
    <glyph glyph-name="hbar" unicode="&#x127;" horiz-adv-x="564" 
d="M366 491q71 0 112 -45t41 -127q0 -36 -10 -89l-45 -230h-130l46 234q7 37 7 57q0 78 -73 78q-46 0 -77 -30t-42 -86l-51 -253h-130l111 556h-52l23 96h48l10 50h130l-10 -50h157l-23 -96h-153l-24 -122q53 57 135 57z" />
    <glyph glyph-name="Itilde" unicode="&#x128;" horiz-adv-x="286" 
d="M54 708q14 71 52 115t92 44q36 0 68.5 -26t46.5 -26q34 0 44 52h91q-14 -72 -51 -115.5t-92 -43.5q-36 0 -70 25t-47 25q-16 0 -28 -14t-15 -36h-91zM158 667h139l-133 -667h-139z" />
    <glyph glyph-name="itilde" unicode="&#x129;" horiz-adv-x="255" 
d="M35 548q14 72 46 115.5t78 43.5q27 0 46 -13t30.5 -26t21.5 -13q23 0 33 52h82q-14 -73 -46.5 -116t-78.5 -43q-27 0 -45.5 12.5t-30.5 25t-21 12.5q-24 0 -33 -50h-82zM110 481h130l-96 -481h-130z" />
    <glyph glyph-name="Imacron" unicode="&#x12a;" horiz-adv-x="286" 
d="M110 818h297l-19 -95h-297zM158 667h139l-133 -667h-139z" />
    <glyph glyph-name="imacron" unicode="&#x12b;" horiz-adv-x="255" 
d="M78 680h275l-20 -95h-274zM110 481h130l-96 -481h-130z" />
    <glyph glyph-name="Ibreve" unicode="&#x12c;" horiz-adv-x="286" 
d="M321 866h98q-14 -70 -60.5 -114t-112.5 -44q-58 0 -95.5 34.5t-37.5 90.5q0 17 3 33h89q-2 -10 -2 -18q0 -19 13 -30.5t35 -11.5q26 0 45.5 16.5t24.5 43.5zM158 667h139l-133 -667h-139z" />
    <glyph glyph-name="ibreve" unicode="&#x12d;" horiz-adv-x="255" 
d="M273 706h98q-14 -70 -60.5 -114t-112.5 -44q-58 0 -95.5 34.5t-37.5 90.5q0 17 3 33h89q-2 -10 -2 -18q0 -19 13 -30.5t35 -11.5q26 0 45.5 16.5t24.5 43.5zM110 481h130l-96 -481h-130z" />
    <glyph glyph-name="Iogonek" unicode="&#x12e;" horiz-adv-x="286" 
d="M164 0q-72 -55 -72 -82q0 -15 20 -15q14 0 36 8l2 -74q-40 -21 -88 -21q-35 0 -54 15t-19 43q0 63 88 126h-52l133 667h139z" />
    <glyph glyph-name="iogonek" unicode="&#x12f;" horiz-adv-x="255" 
d="M204 708q36 0 58 -20.5t22 -54.5q0 -33 -22 -54t-58 -21q-34 0 -56 21t-22 54t22 54t56 21zM14 0l96 481h130l-96 -481q-72 -55 -72 -82q0 -15 20 -15q14 0 36 8l2 -74q-40 -21 -88 -21q-35 0 -54 15t-19 43q0 63 88 126h-43z" />
    <glyph glyph-name="Idotaccent" unicode="&#x130;" horiz-adv-x="286" 
d="M248 705q-34 0 -56 21t-22 53q0 34 22 55t56 21q36 0 58 -21t22 -55q0 -33 -22 -53.5t-58 -20.5zM158 667h139l-133 -667h-139z" />
    <glyph glyph-name="dotlessi" unicode="&#x131;" horiz-adv-x="255" 
d="M110 481h130l-96 -481h-130z" />
    <glyph glyph-name="IJ" unicode="&#x132;" horiz-adv-x="675" 
d="M158 667h139l-133 -667h-139zM352 -10q-62 0 -105 17l46 125q28 -11 62 -11q46 0 72 22.5t36 74.5l90 449h139l-95 -475q-20 -101 -84 -151.5t-161 -50.5z" />
    <glyph glyph-name="ij" unicode="&#x133;" horiz-adv-x="510" 
d="M205 558q-35 0 -57 21t-22 54q0 34 22 54.5t57 20.5q36 0 57.5 -20.5t21.5 -54.5q0 -33 -21.5 -54t-57.5 -21zM460 558q-35 0 -57 21t-22 54q0 34 22 54.5t57 20.5q36 0 57.5 -20.5t21.5 -54.5q0 -33 -21.5 -54t-57.5 -21zM110 481h130l-96 -481h-130zM135 -170l32 112
q12 -2 20 -2q71 0 88 85l90 456h130l-95 -476q-36 -184 -199 -184q-37 0 -66 9z" />
    <glyph glyph-name="Jcircumflex" unicode="&#x134;" horiz-adv-x="389" 
d="M363 790l-69 -78h-121l129 156h147l67 -156h-115zM177 218l90 449h139l-95 -475q-20 -101 -84 -151.5t-161 -50.5q-63 0 -105 17l46 125q28 -11 62 -11q46 0 72 22.5t36 74.5z" />
    <glyph glyph-name="jcircumflex" unicode="&#x135;" horiz-adv-x="255" 
d="M293 708l67 -156h-115l-38 78l-69 -78h-121l129 156h147zM20 25l90 456h130l-95 -476q-36 -184 -199 -184q-38 0 -66 9l32 112q12 -2 20 -2q71 0 88 85z" />
    <glyph glyph-name="uni0136" unicode="&#x136;" horiz-adv-x="692" 
d="M752 667l-342 -294l225 -373h-166l-164 282l-102 -87l-39 -195h-139l133 667h139l-57 -285l324 285h188zM153 -175l59 118h150l-85 -118h-124z" />
    <glyph glyph-name="uni0137" unicode="&#x137;" horiz-adv-x="546" 
d="M585 481l-244 -209l155 -272h-151l-102 188l-74 -64l-25 -124h-130l140 702h130l-82 -409l212 188h171zM86 -175l59 118h150l-85 -118h-124z" />
    <glyph glyph-name="kgreenlandic" unicode="&#x138;" horiz-adv-x="546" 
d="M585 481l-244 -209l155 -272h-151l-102 188l-74 -64l-25 -124h-130l96 481h130l-38 -188l212 188h171z" />
    <glyph glyph-name="Lacute" unicode="&#x139;" horiz-adv-x="509" 
d="M193 712l131 156h156l-154 -156h-133zM25 0l133 667h139l-107 -537h281l-25 -130h-421z" />
    <glyph glyph-name="lacute" unicode="&#x13a;" horiz-adv-x="291" 
d="M151 747l131 156h156l-154 -156h-133zM154 702h130l-106 -534q-3 -14 -3 -22q0 -32 37 -32q19 0 35 6l-10 -118q-24 -7 -62 -7q-68 0 -100.5 26.5t-32.5 88.5q0 29 7 64z" />
    <glyph glyph-name="uni013B" unicode="&#x13b;" horiz-adv-x="509" 
d="M25 0l133 667h139l-107 -537h281l-25 -130h-421zM101 -175l59 118h150l-85 -118h-124z" />
    <glyph glyph-name="uni013C" unicode="&#x13c;" horiz-adv-x="291" 
d="M154 702h130l-106 -534q-3 -14 -3 -22q0 -32 37 -32q19 0 35 6l-10 -118q-24 -7 -62 -7q-68 0 -100.5 26.5t-32.5 88.5q0 29 7 64zM-39 -175l59 118h150l-85 -118h-124z" />
    <glyph glyph-name="Lcaron" unicode="&#x13d;" horiz-adv-x="509" 
d="M25 0l133 667h139l-107 -537h281l-25 -130h-421zM303 490l55 177h127l-100 -177h-82z" />
    <glyph glyph-name="lcaron" unicode="&#x13e;" horiz-adv-x="316" 
d="M154 702h130l-106 -534q-3 -14 -3 -22q0 -32 37 -32q19 0 35 6l-10 -118q-24 -7 -62 -7q-68 0 -100.5 26.5t-32.5 88.5q0 29 7 64zM271 525l55 177h127l-100 -177h-82z" />
    <glyph glyph-name="Ldot" unicode="&#x13f;" horiz-adv-x="549" 
d="M25 0l133 667h139l-107 -537h281l-25 -130h-421zM418 294q-39 0 -64 25t-25 64t24.5 64t64.5 25q38 0 63 -25t25 -64q0 -38 -25 -63.5t-63 -25.5z" />
    <glyph glyph-name="ldot" unicode="&#x140;" horiz-adv-x="408" 
d="M154 702h130l-106 -534q-3 -14 -3 -22q0 -32 37 -32q19 0 35 6l-10 -118q-24 -7 -62 -7q-68 0 -100.5 26.5t-32.5 88.5q0 29 7 64zM347 271q-39 0 -64 25t-25 64t24.5 64t64.5 25q38 0 63 -25t25 -64q0 -38 -25 -63.5t-63 -25.5z" />
    <glyph glyph-name="Lslash" unicode="&#x141;" horiz-adv-x="509" 
d="M190 130h281l-25 -130h-421l46 233l-75 -39l28 144l76 40l58 289h139l-42 -209l170 88l-30 -145l-168 -87z" />
    <glyph glyph-name="lslash" unicode="&#x142;" horiz-adv-x="291" 
d="M215 356l-37 -188q-3 -14 -3 -22q0 -32 37 -32q19 0 35 6l-10 -118q-24 -7 -62 -7q-68 0 -100.5 26.5t-32.5 88.5q0 29 7 64l21 106l-60 -31l24 125l61 32l59 296h130l-44 -221l83 43l-26 -125z" />
    <glyph glyph-name="Nacute" unicode="&#x143;" horiz-adv-x="762" 
d="M670 868l-154 -156h-133l131 156h156zM635 667h139l-133 -667h-183l-196 489l-98 -489h-139l133 667h183l196 -489z" />
    <glyph glyph-name="nacute" unicode="&#x144;" horiz-adv-x="564" 
d="M531 708l-154 -156h-133l131 156h156zM366 491q71 0 112 -45t41 -127q0 -36 -10 -89l-45 -230h-130l46 234q7 37 7 57q0 78 -73 78q-46 0 -77 -30t-42 -86l-51 -253h-130l96 481h122l-12 -59q56 69 146 69z" />
    <glyph glyph-name="uni0145" unicode="&#x145;" horiz-adv-x="762" 
d="M635 667h139l-133 -667h-183l-196 489l-98 -489h-139l133 667h183l196 -489zM200 -175l59 118h150l-85 -118h-124z" />
    <glyph glyph-name="uni0146" unicode="&#x146;" horiz-adv-x="564" 
d="M366 491q71 0 112 -45t41 -127q0 -36 -10 -89l-45 -230h-130l46 234q7 37 7 57q0 78 -73 78q-46 0 -77 -30t-42 -86l-51 -253h-130l96 481h122l-12 -59q56 69 146 69zM100 -175l59 118h150l-85 -118h-124z" />
    <glyph glyph-name="Ncaron" unicode="&#x147;" horiz-adv-x="762" 
d="M402 712l-67 156h115l37 -77l69 77h122l-129 -156h-147zM635 667h139l-133 -667h-183l-196 489l-98 -489h-139l133 667h183l196 -489z" />
    <glyph glyph-name="ncaron" unicode="&#x148;" horiz-adv-x="564" 
d="M270 552l-67 156h115l37 -77l69 77h122l-129 -156h-147zM366 491q71 0 112 -45t41 -127q0 -36 -10 -89l-45 -230h-130l46 234q7 37 7 57q0 78 -73 78q-46 0 -77 -30t-42 -86l-51 -253h-130l96 481h122l-12 -59q56 69 146 69z" />
    <glyph glyph-name="napostrophe" unicode="&#x149;" horiz-adv-x="810" 
d="M199 679l136 -35l-170 -258l-109 27zM612 491q71 0 112 -45t41 -127q0 -36 -10 -89l-45 -230h-130l46 234q7 37 7 57q0 78 -73 78q-46 0 -77 -30t-42 -86l-51 -253h-130l96 481h122l-12 -59q56 69 146 69z" />
    <glyph glyph-name="Eng" unicode="&#x14a;" horiz-adv-x="762" 
d="M635 667h139l-130 -650q-20 -102 -81 -152t-154 -50q-69 0 -115 17l45 123q33 -9 63 -9q78 0 101 69l-238 492l-101 -507h-139l133 667h185l207 -427z" />
    <glyph glyph-name="eng" unicode="&#x14b;" horiz-adv-x="564" 
d="M519 319q0 -36 -10 -89l-44 -225q-36 -184 -200 -184q-36 0 -65 8l31 113q12 -2 21 -2q70 0 87 85l41 209q7 37 7 57q0 78 -73 78q-46 0 -77 -30t-42 -86l-51 -253h-130l96 481h122l-12 -59q55 69 146 69q71 0 112 -45t41 -127z" />
    <glyph glyph-name="Omacron" unicode="&#x14c;" horiz-adv-x="740" 
d="M276 818h297l-19 -95h-297zM366 -12q-138 0 -226 85.5t-88 225.5q0 163 99.5 271.5t259.5 108.5q139 0 227 -85t88 -226q0 -163 -99.5 -271.5t-260.5 -108.5zM366 118q95 0 156.5 69.5t61.5 170.5q0 86 -47.5 138.5t-126.5 52.5q-93 0 -154.5 -70t-61.5 -171
q0 -85 46.5 -137.5t125.5 -52.5z" />
    <glyph glyph-name="omacron" unicode="&#x14d;" horiz-adv-x="550" 
d="M215 680h297l-19 -95h-297zM248 -11q-97 0 -157 61t-60 161q0 118 77.5 199t193.5 81q98 0 157 -60t59 -161q0 -119 -77 -200t-193 -81zM253 112q55 0 95 45t40 107q0 49 -24.5 77t-66.5 28q-57 0 -96 -44.5t-39 -107.5q0 -48 24.5 -76.5t66.5 -28.5z" />
    <glyph glyph-name="Obreve" unicode="&#x14e;" horiz-adv-x="740" 
d="M487 866h98q-14 -70 -60.5 -114t-112.5 -44q-58 0 -95.5 34.5t-37.5 90.5q0 17 3 33h89q-2 -10 -2 -18q0 -19 13 -30.5t35 -11.5q26 0 45.5 16.5t24.5 43.5zM366 -12q-138 0 -226 85.5t-88 225.5q0 163 99.5 271.5t259.5 108.5q139 0 227 -85t88 -226
q0 -163 -99.5 -271.5t-260.5 -108.5zM366 118q95 0 156.5 69.5t61.5 170.5q0 86 -47.5 138.5t-126.5 52.5q-93 0 -154.5 -70t-61.5 -171q0 -85 46.5 -137.5t125.5 -52.5z" />
    <glyph glyph-name="obreve" unicode="&#x14f;" horiz-adv-x="550" 
d="M421 706h98q-14 -70 -60.5 -114t-112.5 -44q-58 0 -95.5 34.5t-37.5 90.5q0 17 3 33h89q-2 -10 -2 -18q0 -19 13 -30.5t35 -11.5q26 0 45.5 16.5t24.5 43.5zM248 -11q-97 0 -157 61t-60 161q0 118 77.5 199t193.5 81q98 0 157 -60t59 -161q0 -119 -77 -200t-193 -81z
M253 112q55 0 95 45t40 107q0 49 -24.5 77t-66.5 28q-57 0 -96 -44.5t-39 -107.5q0 -48 24.5 -76.5t66.5 -28.5z" />
    <glyph glyph-name="Ohungarumlaut" unicode="&#x150;" horiz-adv-x="740" 
d="M264 712l131 156h146l-155 -156h-122zM452 712l131 156h146l-154 -156h-123zM366 -12q-138 0 -226 85.5t-88 225.5q0 163 99.5 271.5t259.5 108.5q139 0 227 -85t88 -226q0 -163 -99.5 -271.5t-260.5 -108.5zM366 118q95 0 156.5 69.5t61.5 170.5q0 86 -47.5 138.5
t-126.5 52.5q-93 0 -154.5 -70t-61.5 -171q0 -85 46.5 -137.5t125.5 -52.5z" />
    <glyph glyph-name="ohungarumlaut" unicode="&#x151;" horiz-adv-x="550" 
d="M138 552l131 156h146l-155 -156h-122zM326 552l131 156h146l-154 -156h-123zM248 -11q-97 0 -157 61t-60 161q0 118 77.5 199t193.5 81q98 0 157 -60t59 -161q0 -119 -77 -200t-193 -81zM253 112q55 0 95 45t40 107q0 49 -24.5 77t-66.5 28q-57 0 -96 -44.5t-39 -107.5
q0 -48 24.5 -76.5t66.5 -28.5z" />
    <glyph glyph-name="OE" unicode="&#x152;" horiz-adv-x="906" 
d="M374 0q-160 0 -243 71.5t-83 207.5q0 172 111.5 280t299.5 108h490l-26 -130h-288l-27 -130h219l-25 -130h-219l-30 -147h288l-25 -130h-442zM382 130h30l82 407h-41q-120 0 -191.5 -68.5t-71.5 -182.5q0 -156 192 -156z" />
    <glyph glyph-name="oe" unicode="&#x153;" horiz-adv-x="858" 
d="M829 308q0 -52 -18 -109h-307q4 -48 28 -69.5t74 -21.5q74 0 147 36l15 -111q-82 -44 -174 -44q-130 0 -179 80q-73 -80 -180 -80q-92 0 -148 61t-56 161q0 116 80 198t194 82q110 0 159 -78q73 78 184 78q82 0 131.5 -50t49.5 -133zM636 380q-40 0 -70.5 -24.5
t-46.5 -62.5h185v10q0 77 -68 77zM248 112q56 0 94.5 45t38.5 107q0 49 -23 77t-65 28q-53 0 -92 -45t-39 -107q0 -48 23 -76.5t63 -28.5z" />
    <glyph glyph-name="Racute" unicode="&#x154;" horiz-adv-x="646" 
d="M608 868l-154 -156h-133l131 156h156zM639 478q0 -83 -52.5 -149.5t-135.5 -88.5l120 -240h-153l-112 232h-96l-46 -232h-139l133 667h233q122 0 185 -50.5t63 -138.5zM271 537l-37 -184h153q52 0 81 29t29 74q0 40 -25.5 60.5t-85.5 20.5h-115z" />
    <glyph glyph-name="racute" unicode="&#x155;" horiz-adv-x="377" 
d="M466 708l-154 -156h-133l131 156h156zM216 404q56 84 138 84q34 0 63 -12l-44 -129q-23 10 -52 10q-105 0 -133 -139l-44 -218h-130l96 481h122z" />
    <glyph glyph-name="uni0156" unicode="&#x156;" horiz-adv-x="646" 
d="M639 478q0 -83 -52.5 -149.5t-135.5 -88.5l120 -240h-153l-112 232h-96l-46 -232h-139l133 667h233q122 0 185 -50.5t63 -138.5zM271 537l-37 -184h153q52 0 81 29t29 74q0 40 -25.5 60.5t-85.5 20.5h-115zM138 -175l59 118h150l-85 -118h-124z" />
    <glyph glyph-name="uni0157" unicode="&#x157;" horiz-adv-x="377" 
d="M354 488q34 0 63 -12l-44 -129q-23 10 -52 10q-105 0 -133 -139l-44 -218h-130l96 481h122l-16 -77q56 84 138 84zM-66 -175l59 118h150l-85 -118h-124z" />
    <glyph glyph-name="Rcaron" unicode="&#x158;" horiz-adv-x="646" 
d="M340 712l-67 156h115l37 -77l69 77h122l-129 -156h-147zM639 478q0 -83 -52.5 -149.5t-135.5 -88.5l120 -240h-153l-112 232h-96l-46 -232h-139l133 667h233q122 0 185 -50.5t63 -138.5zM271 537l-37 -184h153q52 0 81 29t29 74q0 40 -25.5 60.5t-85.5 20.5h-115z" />
    <glyph glyph-name="rcaron" unicode="&#x159;" horiz-adv-x="377" 
d="M205 552l-67 156h115l37 -77l69 77h122l-129 -156h-147zM216 404q56 84 138 84q34 0 63 -12l-44 -129q-23 10 -52 10q-105 0 -133 -139l-44 -218h-130l96 481h122z" />
    <glyph glyph-name="Sacute" unicode="&#x15a;" horiz-adv-x="578" 
d="M290 712l131 156h156l-154 -156h-133zM25 41l53 118q70 -42 161 -42q66 0 106.5 20.5t40.5 54.5q0 26 -29 45.5t-70 35t-82.5 35.5t-70.5 61t-29 99q0 93 72.5 151.5t187.5 58.5q126 0 209 -53l-53 -120q-70 44 -160 44q-52 0 -82.5 -18.5t-30.5 -51.5q0 -29 28.5 -49.5
t69.5 -36t82.5 -35t70.5 -58.5t30 -94q2 -95 -80 -156.5t-211 -61.5q-134 0 -213 53z" />
    <glyph glyph-name="sacute" unicode="&#x15b;" horiz-adv-x="432" 
d="M178 552l131 156h156l-154 -156h-133zM-11 33l51 108q58 -36 126 -36q37 0 59.5 10t22.5 27q0 19 -31 33.5t-67.5 25.5t-67.5 44t-31 85q0 72 57.5 116.5t153.5 44.5q94 0 159 -38l-53 -108q-54 31 -120 31q-64 0 -64 -34q0 -18 31 -33.5t67.5 -27.5t67.5 -45t31 -83
q0 -74 -63 -118.5t-157 -44.5q-96 0 -172 43z" />
    <glyph glyph-name="Scircumflex" unicode="&#x15c;" horiz-adv-x="578" 
d="M401 790l-69 -78h-121l129 156h147l67 -156h-115zM248 479q0 -29 28.5 -49.5t69.5 -36t82.5 -35t70.5 -58.5t30 -94q2 -95 -80 -156.5t-211 -61.5q-134 0 -213 53l53 118q70 -42 161 -42q66 0 106.5 20.5t40.5 54.5q0 26 -29 45.5t-70 35t-82.5 35.5t-70.5 61t-29 99
q0 93 72.5 151.5t187.5 58.5q126 0 209 -53l-53 -120q-70 44 -160 44q-52 0 -82.5 -18.5t-30.5 -51.5z" />
    <glyph glyph-name="scircumflex" unicode="&#x15d;" horiz-adv-x="432" 
d="M296 630l-69 -78h-121l129 156h147l67 -156h-115zM248 376q-64 0 -64 -34q0 -18 31 -33.5t67.5 -27.5t67.5 -45t31 -83q0 -74 -63 -118.5t-157 -44.5q-96 0 -172 43l51 108q58 -36 126 -36q37 0 59.5 10t22.5 27q0 19 -31 33.5t-67.5 25.5t-67.5 44t-31 85
q0 72 57.5 116.5t153.5 44.5q94 0 159 -38l-53 -108q-54 31 -120 31z" />
    <glyph glyph-name="Scedilla" unicode="&#x15e;" horiz-adv-x="578" 
d="M248 479q0 -29 28.5 -49.5t69.5 -36t82.5 -35t70.5 -58.5t30 -94q1 -88 -70 -148t-186 -69l-11 -26q32 -2 50 -19t18 -43q0 -43 -32 -65t-86 -22q-45 0 -73 15l28 62q22 -12 44 -12q30 0 30 19q0 16 -21 16q-12 0 -22 -3l-20 6l31 72q-115 5 -184 52l53 118
q70 -42 161 -42q66 0 106.5 20.5t40.5 54.5q0 26 -29 45.5t-70 35t-82.5 35.5t-70.5 61t-29 99q0 93 72.5 151.5t187.5 58.5q126 0 209 -53l-53 -120q-70 44 -160 44q-52 0 -82.5 -18.5t-30.5 -51.5z" />
    <glyph glyph-name="scedilla" unicode="&#x15f;" horiz-adv-x="432" 
d="M184 342q0 -18 31 -33.5t67.5 -27.5t67.5 -45t31 -83q0 -68 -53.5 -111t-136.5 -51l-12 -28q32 -2 50 -19t18 -43q0 -43 -32 -65t-86 -22q-45 0 -73 15l28 62q22 -12 44 -12q30 0 30 19q0 16 -21 16q-11 0 -22 -3l-20 6l32 75q-76 6 -138 41l51 108q58 -36 126 -36
q37 0 59.5 10t22.5 27q0 19 -31 33.5t-67.5 25.5t-67.5 44t-31 85q0 72 57.5 116.5t153.5 44.5q94 0 159 -38l-53 -108q-54 31 -120 31q-64 0 -64 -34z" />
    <glyph glyph-name="Scaron" unicode="&#x160;" horiz-adv-x="578" 
d="M309 712l-67 156h115l37 -77l69 77h122l-129 -156h-147zM361 549q-52 0 -82.5 -18.5t-30.5 -51.5q0 -29 28.5 -49.5t69.5 -36t82.5 -35t70.5 -58.5t30 -94q2 -95 -80 -156.5t-211 -61.5q-134 0 -213 53l53 118q70 -42 161 -42q66 0 106.5 20.5t40.5 54.5q0 26 -29 45.5
t-70 35t-82.5 35.5t-70.5 61t-29 99q0 93 72.5 151.5t187.5 58.5q126 0 209 -53l-53 -120q-70 44 -160 44z" />
    <glyph glyph-name="scaron" unicode="&#x161;" horiz-adv-x="432" 
d="M204 552l-67 156h115l37 -77l69 77h122l-129 -156h-147zM248 376q-64 0 -64 -34q0 -18 31 -33.5t67.5 -27.5t67.5 -45t31 -83q0 -74 -63 -118.5t-157 -44.5q-96 0 -172 43l51 108q58 -36 126 -36q37 0 59.5 10t22.5 27q0 19 -31 33.5t-67.5 25.5t-67.5 44t-31 85
q0 72 57.5 116.5t153.5 44.5q94 0 159 -38l-53 -108q-54 31 -120 31z" />
    <glyph glyph-name="uni0162" unicode="&#x162;" horiz-adv-x="571" 
d="M631 667l-26 -130h-191l-107 -537h-139l107 537h-190l25 130h521zM99 -175l59 118h150l-85 -118h-124z" />
    <glyph glyph-name="uni0163" unicode="&#x163;" horiz-adv-x="346" 
d="M223 362l-37 -184q-3 -15 -3 -26q0 -38 48 -38q29 0 57 10l-4 -115q-48 -15 -99 -15q-135 0 -135 122q0 26 8 69l35 177h-58l24 119h58l22 109l135 26l-27 -135h125l-24 -119h-125zM24 -175l59 118h150l-85 -118h-124z" />
    <glyph glyph-name="Tcaron" unicode="&#x164;" horiz-adv-x="571" 
d="M305 712l-67 156h115l37 -77l69 77h122l-129 -156h-147zM631 667l-26 -130h-191l-107 -537h-139l107 537h-190l25 130h521z" />
    <glyph glyph-name="tcaron" unicode="&#x165;" horiz-adv-x="346" 
d="M465 702l-100 -177h-82l55 177h127zM274 616l-27 -135h125l-24 -119h-125l-37 -184q-3 -15 -3 -26q0 -38 48 -38q29 0 57 10l-4 -115q-48 -15 -99 -15q-135 0 -135 122q0 26 8 69l35 177h-58l24 119h58l22 109z" />
    <glyph glyph-name="Tbar" unicode="&#x166;" horiz-adv-x="571" 
d="M605 537h-191l-29 -147h111l-22 -112h-112l-55 -278h-139l55 278h-111l22 112h112l29 147h-190l25 130h521z" />
    <glyph glyph-name="tbar" unicode="&#x167;" horiz-adv-x="346" 
d="M348 362h-125l-12 -62h99l-20 -95h-99l-5 -27q-3 -15 -3 -26q0 -38 48 -38q29 0 57 10l-4 -115q-48 -15 -99 -15q-135 0 -135 122q0 26 8 69l4 20h-50l19 95h50l12 62h-58l24 119h58l22 109l135 26l-27 -135h125z" />
    <glyph glyph-name="Utilde" unicode="&#x168;" horiz-adv-x="676" 
d="M250 708q14 71 52 115t92 44q36 0 68.5 -26t46.5 -26q34 0 44 52h91q-14 -72 -51 -115.5t-92 -43.5q-36 0 -70 25t-47 25q-16 0 -28 -14t-15 -36h-91zM304 -12q-118 0 -181 56.5t-63 165.5q0 45 10 92l73 365h139l-74 -375q-7 -35 -7 -65q0 -56 27.5 -82.5t85.5 -26.5
q72 0 114.5 42t60.5 132l75 375h139l-79 -395q-57 -284 -320 -284z" />
    <glyph glyph-name="utilde" unicode="&#x169;" horiz-adv-x="564" 
d="M293 598q-16 0 -28 -14t-15 -36h-91q14 71 52 115t92 44q36 0 68.5 -26t46.5 -26q34 0 44 52h91q-14 -72 -51 -115.5t-92 -43.5q-36 0 -70 25t-47 25zM369 228l51 253h130l-96 -481h-122l12 60q-55 -70 -146 -70q-71 0 -112.5 45t-41.5 127q0 37 10 89l46 230h130
l-47 -234q-7 -49 -7 -57q0 -77 74 -77q96 0 119 115z" />
    <glyph glyph-name="Umacron" unicode="&#x16a;" horiz-adv-x="676" 
d="M306 818h297l-19 -95h-297zM304 -12q-118 0 -181 56.5t-63 165.5q0 45 10 92l73 365h139l-74 -375q-7 -35 -7 -65q0 -56 27.5 -82.5t85.5 -26.5q72 0 114.5 42t60.5 132l75 375h139l-79 -395q-57 -284 -320 -284z" />
    <glyph glyph-name="umacron" unicode="&#x16b;" horiz-adv-x="564" 
d="M516 680l-19 -95h-297l19 95h297zM420 481h130l-96 -481h-122l12 60q-55 -70 -146 -70q-71 0 -112.5 45t-41.5 127q0 37 10 89l46 230h130l-47 -234q-7 -49 -7 -57q0 -77 74 -77q96 0 119 115z" />
    <glyph glyph-name="Ubreve" unicode="&#x16c;" horiz-adv-x="676" 
d="M517 866h98q-14 -70 -60.5 -114t-112.5 -44q-58 0 -95.5 34.5t-37.5 90.5q0 17 3 33h89q-2 -10 -2 -18q0 -19 13 -30.5t35 -11.5q26 0 45.5 16.5t24.5 43.5zM304 -12q-118 0 -181 56.5t-63 165.5q0 45 10 92l73 365h139l-74 -375q-7 -35 -7 -65q0 -56 27.5 -82.5
t85.5 -26.5q72 0 114.5 42t60.5 132l75 375h139l-79 -395q-57 -284 -320 -284z" />
    <glyph glyph-name="ubreve" unicode="&#x16d;" horiz-adv-x="564" 
d="M350 548q-58 0 -95.5 34.5t-37.5 90.5q0 17 3 33h89q-2 -10 -2 -18q0 -19 13 -30.5t35 -11.5q26 0 45.5 16.5t24.5 43.5h98q-14 -70 -60.5 -114t-112.5 -44zM420 481h130l-96 -481h-122l12 60q-55 -70 -146 -70q-71 0 -112.5 45t-41.5 127q0 37 10 89l46 230h130
l-47 -234q-7 -49 -7 -57q0 -77 74 -77q96 0 119 115z" />
    <glyph glyph-name="Uring" unicode="&#x16e;" horiz-adv-x="676" 
d="M443 697q-45 0 -77.5 32t-32.5 76q0 46 32.5 78t77.5 32t76.5 -32t31.5 -78q0 -44 -31.5 -76t-76.5 -32zM443 756q19 0 34 15t15 34q0 21 -14.5 35.5t-34.5 14.5q-21 0 -36 -14.5t-15 -35.5q0 -20 15 -34.5t36 -14.5zM304 -12q-118 0 -181 56.5t-63 165.5q0 45 10 92
l73 365h139l-74 -375q-7 -35 -7 -65q0 -56 27.5 -82.5t85.5 -26.5q72 0 114.5 42t60.5 132l75 375h139l-79 -395q-57 -284 -320 -284z" />
    <glyph glyph-name="uring" unicode="&#x16f;" horiz-adv-x="564" 
d="M345 537q-45 0 -77.5 32t-32.5 76q0 46 32.5 78t77.5 32t76.5 -32t31.5 -78q0 -44 -31.5 -76t-76.5 -32zM345 695q-21 0 -36 -14.5t-15 -35.5q0 -20 15 -34.5t36 -14.5q19 0 34 15t15 34q0 21 -14.5 35.5t-34.5 14.5zM420 481h130l-96 -481h-122l12 60q-55 -70 -146 -70
q-71 0 -112.5 45t-41.5 127q0 37 10 89l46 230h130l-47 -234q-7 -49 -7 -57q0 -77 74 -77q96 0 119 115z" />
    <glyph glyph-name="Uhungarumlaut" unicode="&#x170;" horiz-adv-x="676" 
d="M294 712l131 156h146l-155 -156h-122zM482 712l131 156h146l-154 -156h-123zM304 -12q-118 0 -181 56.5t-63 165.5q0 45 10 92l73 365h139l-74 -375q-7 -35 -7 -65q0 -56 27.5 -82.5t85.5 -26.5q72 0 114.5 42t60.5 132l75 375h139l-79 -395q-57 -284 -320 -284z" />
    <glyph glyph-name="uhungarumlaut" unicode="&#x171;" horiz-adv-x="564" 
d="M419 708l-155 -156h-122l131 156h146zM453 552h-123l131 156h146zM369 228l51 253h130l-96 -481h-122l12 60q-55 -70 -146 -70q-71 0 -112.5 45t-41.5 127q0 37 10 89l46 230h130l-47 -234q-7 -49 -7 -57q0 -77 74 -77q96 0 119 115z" />
    <glyph glyph-name="Uogonek" unicode="&#x172;" horiz-adv-x="676" 
d="M564 667h139l-74 -377q-34 -170 -139 -261q-78 -67 -89 -81q-12 -16 -12 -29q0 -16 21 -16q13 0 35 8l2 -74q-40 -21 -88 -21q-34 0 -53.5 15t-19.5 41q0 59 76 122q-30 -6 -58 -6q-118 0 -181 56.5t-63 165.5q0 44 10 93l73 364h139l-74 -375q-7 -32 -7 -64
q0 -110 113 -110q72 0 115 42t60 132z" />
    <glyph glyph-name="uogonek" unicode="&#x173;" horiz-adv-x="564" 
d="M454 0q-72 -55 -72 -82q0 -15 20 -15q14 0 36 8l2 -74q-40 -21 -88 -21q-35 0 -54 15t-19 43q0 63 88 126h-35l12 60q-55 -70 -146 -70q-71 0 -112.5 45t-41.5 127q0 37 10 89l46 230h130l-47 -234q-7 -49 -7 -57q0 -77 74 -77q96 0 119 115l51 253h130z" />
    <glyph glyph-name="Wcircumflex" unicode="&#x174;" horiz-adv-x="1020" 
d="M623 790l-69 -78h-121l129 156h147l67 -156h-115zM943 667h150l-334 -667h-172l-35 449l-215 -449h-172l-68 667h137l43 -497l238 497h146l39 -501z" />
    <glyph glyph-name="wcircumflex" unicode="&#x175;" horiz-adv-x="796" 
d="M478 630l-69 -78h-121l129 156h147l67 -156h-115zM701 481h134l-237 -481h-146l-40 308l-163 -308h-146l-45 481h128l22 -321l171 321h131l40 -322z" />
    <glyph glyph-name="Ycircumflex" unicode="&#x176;" horiz-adv-x="653" 
d="M434 790l-69 -78h-121l129 156h147l67 -156h-115zM566 667h181l-343 -389l-56 -278h-139l56 277l-189 390h165l112 -254z" />
    <glyph glyph-name="ycircumflex" unicode="&#x177;" horiz-adv-x="526" 
d="M338 630l-69 -78h-121l129 156h147l67 -156h-115zM425 481h144l-309 -522q-46 -78 -93 -110t-115 -32q-53 0 -92 15l44 121q29 -8 58 -8q30 0 49.5 14t38.5 50l-97 472h133l57 -320z" />
    <glyph glyph-name="Ydieresis" unicode="&#x178;" horiz-adv-x="653" 
d="M330 708q-31 0 -51.5 20t-20.5 51q0 32 20.5 52.5t51.5 20.5t51 -20.5t20 -52.5q0 -31 -20 -51t-51 -20zM529 708q-31 0 -51 20t-20 51q0 32 20 52.5t51 20.5t51 -20.5t20 -52.5q0 -31 -20 -51t-51 -20zM209 0l56 277l-189 390h165l112 -254l213 254h181l-343 -389
l-56 -278h-139z" />
    <glyph glyph-name="Zacute" unicode="&#x179;" horiz-adv-x="614" 
d="M595 869l-154 -156h-133l131 156h156zM644 668l-22 -109l-405 -428h334l-26 -131h-533l23 111l406 426h-307l25 131h505z" />
    <glyph glyph-name="zacute" unicode="&#x17a;" horiz-adv-x="466" 
d="M483 708l-154 -156h-133l131 156h156zM69 362l24 119h376l-20 -101l-259 -261h217l-24 -119h-396l20 100l261 262h-199z" />
    <glyph glyph-name="Zdotaccent" unicode="&#x17b;" horiz-adv-x="614" 
d="M412 706q-34 0 -56 21t-22 53q0 34 22 55t56 21q36 0 58 -21t22 -55q0 -32 -22 -53t-58 -21zM644 668l-22 -109l-405 -428h334l-26 -131h-533l23 111l406 426h-307l25 131h505z" />
    <glyph glyph-name="zdotaccent" unicode="&#x17c;" horiz-adv-x="466" 
d="M311 558q-34 0 -56 21t-22 54t22 54t56 21q36 0 58 -20.5t22 -54.5q0 -33 -22 -54t-58 -21zM469 481l-20 -101l-259 -261h217l-24 -119h-396l20 100l261 262h-199l24 119h376z" />
    <glyph glyph-name="Zcaron" unicode="&#x17d;" horiz-adv-x="614" 
d="M327 713l-67 156h115l37 -77l69 77h122l-129 -156h-147zM644 668l-22 -109l-405 -428h334l-26 -131h-533l23 111l406 426h-307l25 131h505z" />
    <glyph glyph-name="zcaron" unicode="&#x17e;" horiz-adv-x="466" 
d="M222 552l-67 156h115l37 -77l69 77h122l-129 -156h-147zM69 362l24 119h376l-20 -101l-259 -261h217l-24 -119h-396l20 100l261 262h-199z" />
    <glyph glyph-name="uni018F" unicode="&#x18f;" horiz-adv-x="689" 
d="M376 679q142 0 222.5 -79t80.5 -220q0 -103 -46.5 -192.5t-130.5 -144.5t-186 -55q-126 0 -198.5 70.5t-72.5 189.5q0 82 28 161h454q-19 130 -159 130q-104 0 -200 -59l-18 140q107 59 226 59zM320 122q71 0 122.5 43.5t73.5 112.5h-324q-1 -8 -1 -24q0 -61 34 -96.5
t95 -35.5z" />
    <glyph glyph-name="florin" unicode="&#x192;" horiz-adv-x="536" 
d="M494 548q-64 0 -88 -72l-7 -20h103l-24 -120h-120l-55 -161q-63 -187 -216 -187q-75 0 -113 27l47 120q22 -16 58 -16q62 0 88 72l50 145h-99l24 120h117l12 36q64 187 217 187q73 0 111 -27l-47 -120q-22 16 -58 16z" />
    <glyph glyph-name="uni0218" unicode="&#x218;" horiz-adv-x="578" 
d="M25 41l53 118q70 -42 161 -42q66 0 106.5 20.5t40.5 54.5q0 26 -29 45.5t-70 35t-82.5 35.5t-70.5 61t-29 99q0 93 72.5 151.5t187.5 58.5q126 0 209 -53l-53 -120q-70 44 -160 44q-52 0 -82.5 -18.5t-30.5 -51.5q0 -29 28.5 -49.5t69.5 -36t82.5 -35t70.5 -58.5t30 -94
q2 -95 -80 -156.5t-211 -61.5q-134 0 -213 53zM107 -175l59 118h150l-85 -118h-124z" />
    <glyph glyph-name="uni0219" unicode="&#x219;" horiz-adv-x="432" 
d="M-11 33l51 108q58 -36 126 -36q37 0 59.5 10t22.5 27q0 19 -31 33.5t-67.5 25.5t-67.5 44t-31 85q0 72 57.5 116.5t153.5 44.5q94 0 159 -38l-53 -108q-54 31 -120 31q-64 0 -64 -34q0 -18 31 -33.5t67.5 -27.5t67.5 -45t31 -83q0 -74 -63 -118.5t-157 -44.5
q-96 0 -172 43zM24 -175l59 118h150l-85 -118h-124z" />
    <glyph glyph-name="uni021A" unicode="&#x21a;" horiz-adv-x="571" 
d="M631 667l-26 -130h-191l-107 -537h-139l107 537h-190l25 130h521zM99 -175l59 118h150l-85 -118h-124z" />
    <glyph glyph-name="uni021B" unicode="&#x21b;" horiz-adv-x="346" 
d="M223 362l-37 -184q-3 -15 -3 -26q0 -38 48 -38q29 0 57 10l-4 -115q-48 -15 -99 -15q-135 0 -135 122q0 26 8 69l35 177h-58l24 119h58l22 109l135 26l-27 -135h125l-24 -119h-125zM24 -175l59 118h150l-85 -118h-124z" />
    <glyph glyph-name="uni0237" unicode="&#x237;" horiz-adv-x="255" 
d="M-120 -170l32 112q12 -2 20 -2q71 0 88 85l90 456h130l-95 -476q-36 -184 -199 -184q-38 0 -66 9z" />
    <glyph glyph-name="uni0259" unicode="&#x259;" horiz-adv-x="527" 
d="M260 492q109 0 171 -61t62 -170q0 -111 -72.5 -191.5t-186.5 -80.5q-96 0 -152 53t-56 142q0 51 18 112h305q-19 67 -101 67q-61 0 -126 -31l-17 124q69 36 155 36zM235 111q39 0 68 24t43 61h-180q-1 -5 -1 -12q0 -73 70 -73z" />
    <glyph glyph-name="circumflex" unicode="&#x2c6;" horiz-adv-x="423" 
d="M445 552h-115l-38 78l-69 -78h-121l129 156h147z" />
    <glyph glyph-name="caron" unicode="&#x2c7;" horiz-adv-x="423" 
d="M354 708h122l-129 -156h-147l-67 156h115l37 -77z" />
    <glyph glyph-name="uni02C9" unicode="&#x2c9;" horiz-adv-x="377" 
d="M128 680h297l-19 -95h-297z" />
    <glyph glyph-name="breve" unicode="&#x2d8;" horiz-adv-x="383" 
d="M338 706h98q-14 -70 -60.5 -114t-112.5 -44q-58 0 -95.5 34.5t-37.5 90.5q0 17 3 33h89q-2 -10 -2 -18q0 -19 13 -30.5t35 -11.5q26 0 45.5 16.5t24.5 43.5z" />
    <glyph glyph-name="dotaccent" unicode="&#x2d9;" horiz-adv-x="241" 
d="M198 558q-34 0 -56 21t-22 54t22 54t56 21q36 0 58 -20.5t22 -54.5q0 -33 -22 -54t-58 -21z" />
    <glyph glyph-name="ring" unicode="&#x2da;" horiz-adv-x="302" 
d="M233 537q-45 0 -77.5 32t-32.5 76q0 46 32.5 78t77.5 32t76.5 -32t31.5 -78q0 -44 -31.5 -76t-76.5 -32zM233 596q19 0 34 15t15 34q0 21 -14.5 35.5t-34.5 14.5q-21 0 -36 -14.5t-15 -35.5q0 -20 15 -34.5t36 -14.5z" />
    <glyph glyph-name="ogonek" unicode="&#x2db;" horiz-adv-x="250" 
d="M41 -184q-35 0 -54 15t-19 43q0 70 110 141l65 -15q-72 -55 -72 -82q0 -15 20 -15q14 0 36 8l2 -74q-40 -21 -88 -21z" />
    <glyph glyph-name="tilde" unicode="&#x2dc;" horiz-adv-x="442" 
d="M101 548q14 71 52 115t92 44q36 0 68.5 -26t46.5 -26q34 0 44 52h91q-14 -72 -51 -115.5t-92 -43.5q-36 0 -70 25t-47 25q-16 0 -28 -14t-15 -36h-91z" />
    <glyph glyph-name="hungarumlaut" unicode="&#x2dd;" horiz-adv-x="514" 
d="M102 552l131 156h146l-155 -156h-122zM290 552l131 156h146l-154 -156h-123z" />
    <glyph glyph-name="gravecomb" unicode="&#x300;" 
d="M22 552h-112l-92 156h136z" />
    <glyph glyph-name="acutecomb" unicode="&#x301;" 
d="M-234 552l131 156h156l-154 -156h-133z" />
    <glyph glyph-name="uni0302" unicode="&#x302;" 
d="M22 552h-115l-38 78l-69 -78h-121l129 156h147z" />
    <glyph glyph-name="tildecomb" unicode="&#x303;" 
d="M-341 548q14 71 52 115t92 44q36 0 68.5 -26t46.5 -26q34 0 44 52h91q-14 -72 -51 -115.5t-92 -43.5q-36 0 -70 25t-47 25q-16 0 -28 -14t-15 -36h-91z" />
    <glyph glyph-name="uni0304" unicode="&#x304;" 
d="M-249 680h297l-19 -95h-297z" />
    <glyph glyph-name="uni0306" unicode="&#x306;" 
d="M-45 706h98q-14 -70 -60.5 -114t-112.5 -44q-58 0 -95.5 34.5t-37.5 90.5q0 17 3 33h89q-2 -10 -2 -18q0 -19 13 -30.5t35 -11.5q26 0 45.5 16.5t24.5 43.5z" />
    <glyph glyph-name="uni0307" unicode="&#x307;" 
d="M-43 558q-34 0 -56 21t-22 54t22 54t56 21q36 0 58 -20.5t22 -54.5q0 -33 -22 -54t-58 -21z" />
    <glyph glyph-name="uni0308" unicode="&#x308;" 
d="M-233 562q-32 0 -52 19.5t-20 51.5q0 31 20 51.5t52 20.5q31 0 51 -20.5t20 -51.5t-20 -51t-51 -20zM-34 562q-32 0 -51.5 19.5t-19.5 51.5q0 31 19.5 51.5t51.5 20.5q31 0 51 -20.5t20 -51.5t-19.5 -51t-51.5 -20z" />
    <glyph glyph-name="uni030A" unicode="&#x30a;" 
d="M-69 537q-45 0 -77.5 32t-32.5 76q0 46 32.5 78t77.5 32t76.5 -32t31.5 -78q0 -44 -31.5 -76t-76.5 -32zM-69 596q19 0 34 15t15 34q0 21 -14.5 35.5t-34.5 14.5q-21 0 -36 -14.5t-15 -35.5q0 -20 15 -34.5t36 -14.5z" />
    <glyph glyph-name="uni030B" unicode="&#x30b;" 
d="M-412 552l131 156h146l-155 -156h-122zM-224 552l131 156h146l-154 -156h-123z" />
    <glyph glyph-name="uni030C" unicode="&#x30c;" 
d="M-69 708h122l-129 -156h-147l-67 156h115l37 -77z" />
    <glyph glyph-name="uni0312" unicode="&#x312;" 
d="M53 708l-82 -157h-145l109 157h118z" />
    <glyph glyph-name="uni0326" unicode="&#x326;" 
d="M-308 -175l59 118h150l-85 -118h-124z" />
    <glyph glyph-name="uni0327" unicode="&#x327;" 
d="M-178 -37q32 -2 50 -19t18 -43q0 -43 -32 -65t-86 -22q-45 0 -73 15l28 62q22 -12 44 -12q30 0 30 19q0 16 -21 16q-12 0 -22 -3l-20 6l36 83h64z" />
    <glyph glyph-name="uni0328" unicode="&#x328;" 
d="M-209 -184q-35 0 -54 15t-19 43q0 70 110 141l65 -15q-72 -55 -72 -82q0 -15 20 -15q14 0 36 8l2 -74q-40 -21 -88 -21z" />
    <glyph glyph-name="uni0335" unicode="&#x335;" 
d="M-307 300h279l-20 -95h-278z" />
    <glyph glyph-name="uni0336" unicode="&#x336;" 
d="M-307 300h279l-20 -95h-278z" />
    <glyph glyph-name="uni0337" unicode="&#x337;" 
d="M-225 406l289 150l-26 -125l-287 -150z" />
    <glyph glyph-name="uni0338" unicode="&#x338;" 
d="M-60 497l62 -48l-481 -465l-62 47z" />
    <glyph glyph-name="uni0394" unicode="&#x394;" horiz-adv-x="681" 
d="M414 667l263 -667h-681l263 667h155zM192 130h289l-144 379z" />
    <glyph glyph-name="uni03A9" unicode="&#x3a9;" horiz-adv-x="770" 
d="M634 121h117v-121h-305v123q71 13 113.5 69.5t42.5 140.5q0 96 -55.5 156t-143.5 60q-89 0 -145 -60t-56 -156q0 -83 43 -140t114 -70v-123h-306v121h117q-108 86 -108 239q0 142 94.5 230.5t246.5 88.5q151 0 245 -88.5t94 -230.5q0 -153 -108 -239z" />
    <glyph glyph-name="uni03BC" unicode="&#x3bc;" horiz-adv-x="574" 
d="M544 115q8 0 24 2v-115q-37 -8 -76 -8q-49 0 -74.5 17t-33.5 54q-44 -76 -136 -76q-33 0 -57 10v-174h-130v656h130v-255q0 -114 91 -114q46 0 72 29t26 82v258h130v-330q0 -36 34 -36z" />
    <glyph glyph-name="Wgrave" unicode="&#x1e80;" horiz-adv-x="1020" 
d="M687 712h-112l-92 156h136zM943 667h150l-334 -667h-172l-35 449l-215 -449h-172l-68 667h137l43 -497l238 497h146l39 -501z" />
    <glyph glyph-name="wgrave" unicode="&#x1e81;" horiz-adv-x="796" 
d="M548 552h-112l-92 156h136zM701 481h134l-237 -481h-146l-40 308l-163 -308h-146l-45 481h128l22 -321l171 321h131l40 -322z" />
    <glyph glyph-name="Wacute" unicode="&#x1e82;" horiz-adv-x="1020" 
d="M799 868l-154 -156h-133l131 156h156zM943 667h150l-334 -667h-172l-35 449l-215 -449h-172l-68 667h137l43 -497l238 497h146l39 -501z" />
    <glyph glyph-name="wacute" unicode="&#x1e83;" horiz-adv-x="796" 
d="M647 708l-154 -156h-133l131 156h156zM701 481h134l-237 -481h-146l-40 308l-163 -308h-146l-45 481h128l22 -321l171 321h131l40 -322z" />
    <glyph glyph-name="Wdieresis" unicode="&#x1e84;" horiz-adv-x="1020" 
d="M519 708q-31 0 -51.5 20t-20.5 51q0 32 20.5 52.5t51.5 20.5t51 -20.5t20 -52.5q0 -31 -20 -51t-51 -20zM718 708q-31 0 -51 20t-20 51q0 32 20 52.5t51 20.5t51 -20.5t20 -52.5q0 -31 -20 -51t-51 -20zM943 667h150l-334 -667h-172l-35 449l-215 -449h-172l-68 667h137
l43 -497l238 497h146l39 -501z" />
    <glyph glyph-name="wdieresis" unicode="&#x1e85;" horiz-adv-x="796" 
d="M361 562q-32 0 -52 19.5t-20 51.5q0 31 20 51.5t52 20.5q31 0 51 -20.5t20 -51.5t-20 -51t-51 -20zM560 562q-32 0 -51.5 19.5t-19.5 51.5q0 31 19.5 51.5t51.5 20.5q31 0 51 -20.5t20 -51.5t-19.5 -51t-51.5 -20zM701 481h134l-237 -481h-146l-40 308l-163 -308h-146
l-45 481h128l22 -321l171 321h131l40 -322z" />
    <glyph glyph-name="uni1E9E" unicode="&#x1e9e;" horiz-adv-x="707" 
d="M528 400q68 -19 104 -65t36 -113q0 -105 -79 -169.5t-196 -64.5q-101 0 -164 35l68 120q36 -24 98 -24q61 0 95.5 25t34.5 71q0 81 -121 81q-38 0 -71 -4l20 101l154 132q-39 24 -98 24q-76 0 -121 -41.5t-65 -138.5l-74 -369h-139l79 395q57 284 326 284q191 0 277 -138
z" />
    <glyph glyph-name="Ygrave" unicode="&#x1ef2;" horiz-adv-x="653" 
d="M498 712h-112l-92 156h136zM209 0l56 277l-189 390h165l112 -254l213 254h181l-343 -389l-56 -278h-139z" />
    <glyph glyph-name="ygrave" unicode="&#x1ef3;" horiz-adv-x="526" 
d="M408 552h-112l-92 156h136zM425 481h144l-309 -522q-46 -78 -93 -110t-115 -32q-53 0 -92 15l44 121q29 -8 58 -8q30 0 49.5 14t38.5 50l-97 472h133l57 -320z" />
    <glyph glyph-name="uni2011" unicode="&#x2011;" horiz-adv-x="317" 
d="M49 326h253l-26 -130h-254z" />
    <glyph glyph-name="endash" unicode="&#x2013;" horiz-adv-x="500" 
d="M33 306h460l-18 -92h-460z" />
    <glyph glyph-name="emdash" unicode="&#x2014;" horiz-adv-x="1000" 
d="M33 306h960l-18 -92h-960z" />
    <glyph glyph-name="quoteleft" unicode="&#x2018;" horiz-adv-x="276" 
d="M228 680l109 -28l-143 -265l-136 34z" />
    <glyph glyph-name="quoteright" unicode="&#x2019;" horiz-adv-x="276" 
d="M165 386l-109 27l143 266l136 -35z" />
    <glyph glyph-name="quotesinglbase" unicode="&#x201a;" horiz-adv-x="276" 
d="M63 -125l-109 27l143 266l136 -35z" />
    <glyph glyph-name="quotedblleft" unicode="&#x201c;" horiz-adv-x="484" 
d="M228 680l109 -28l-143 -265l-136 34zM435 680l109 -28l-143 -265l-136 34z" />
    <glyph glyph-name="quotedblright" unicode="&#x201d;" horiz-adv-x="484" 
d="M165 386l-109 27l143 266l136 -35zM373 386l-109 27l143 266l136 -35z" />
    <glyph glyph-name="quotedblbase" unicode="&#x201e;" horiz-adv-x="484" 
d="M63 -125l-109 27l143 266l136 -35zM271 -125l-109 27l143 266l136 -35z" />
    <glyph glyph-name="dagger" unicode="&#x2020;" horiz-adv-x="487" 
d="M514 480l-26 -131h-154l-99 -409h-103l65 409h-155l27 131h153l37 187h139l-37 -187h153z" />
    <glyph glyph-name="daggerdbl" unicode="&#x2021;" horiz-adv-x="487" 
d="M344 400l-39 -154l-23 -154h155l-27 -131h-153l-27 -136h-139l27 136h-153l26 131h155l38 154l24 154h-156l27 131h153l27 136h139l-27 -136h153l-26 -131h-154z" />
    <glyph glyph-name="bullet" unicode="&#x2022;" horiz-adv-x="420" 
d="M221 198q-58 0 -97 38.5t-39 96.5t39 96.5t97 38.5q57 0 96 -39t39 -96t-39 -96t-96 -39z" />
    <glyph glyph-name="ellipsis" unicode="&#x2026;" horiz-adv-x="760" 
d="M92 -11q-39 0 -64 25t-25 64t24.5 64t64.5 25q38 0 63 -25t25 -64q0 -38 -25 -63.5t-63 -25.5zM345 -11q-39 0 -64 25t-25 64t24.5 64t64.5 25q38 0 63 -25t25 -64q0 -38 -25 -63.5t-63 -25.5zM599 -11q-39 0 -64 25t-25 64t24.5 64t64.5 25q38 0 63 -25t25 -64
q0 -38 -25 -63.5t-63 -25.5z" />
    <glyph glyph-name="perthousand" unicode="&#x2030;" horiz-adv-x="1083" 
d="M229 356q-66 0 -106.5 41.5t-40.5 106.5q0 77 46 125.5t125 48.5q66 0 106.5 -41.5t40.5 -107.5q0 -76 -46.5 -124.5t-124.5 -48.5zM655 667h145l-655 -667h-145zM236 454q28 0 42.5 20.5t14.5 48.5q0 26 -12 41.5t-35 15.5q-29 0 -42.5 -20.5t-13.5 -50.5q0 -25 13 -40
t33 -15zM531 -9q-66 0 -107 41.5t-41 106.5q0 76 46.5 125t125.5 49q66 0 106.5 -41.5t40.5 -107.5q0 -76 -46.5 -124.5t-124.5 -48.5zM867 -9q-66 0 -106.5 41.5t-40.5 106.5q0 77 46 125.5t125 48.5q66 0 106.5 -41.5t40.5 -107.5q0 -76 -46.5 -124.5t-124.5 -48.5z
M538 89q28 0 42.5 20.5t14.5 48.5q0 26 -12.5 41.5t-34.5 15.5q-29 0 -42.5 -20.5t-13.5 -50.5q0 -25 12.5 -40t33.5 -15zM874 89q28 0 42.5 20.5t14.5 48.5q0 26 -12.5 41.5t-34.5 15.5q-29 0 -42.5 -20.5t-13.5 -50.5q0 -25 12.5 -40t33.5 -15z" />
    <glyph glyph-name="guilsinglleft" unicode="&#x2039;" horiz-adv-x="356" 
d="M364 437l-189 -182l118 -176h-154l-124 179l186 179h163z" />
    <glyph glyph-name="guilsinglright" unicode="&#x203a;" horiz-adv-x="357" 
d="M0 79l188 182l-117 176h153l125 -179l-187 -179h-162z" />
    <glyph glyph-name="fraction" unicode="&#x2044;" horiz-adv-x="247" 
d="M-115 0h-126l639 667h127z" />
    <glyph glyph-name="uni2070" unicode="&#x2070;" horiz-adv-x="350" 
d="M214 394q-58 0 -93.5 40t-35.5 107q0 70 22.5 134t68.5 106.5t106 42.5q58 0 94 -40.5t36 -107.5q0 -112 -53.5 -197t-144.5 -85zM225 487q27 0 48 31t30.5 70.5t9.5 75.5q0 31 -11 48.5t-31 17.5q-39 0 -62 -59t-23 -119q0 -65 39 -65z" />
    <glyph glyph-name="uni2074" unicode="&#x2074;" horiz-adv-x="345" 
d="M407 817l-50 -248h43l-17 -88h-43l-16 -78h-95l16 78h-185l17 88l186 248h144zM182 569h80l30 150z" />
    <glyph glyph-name="uni2075" unicode="&#x2075;" horiz-adv-x="353" 
d="M388 723h-142l-19 -52q22 5 43 5q54 0 84 -32.5t30 -84.5q0 -74 -48.5 -119t-129.5 -45q-90 0 -143 42l55 90q34 -38 90 -38q34 0 55 14t21 42q0 45 -57 45q-31 0 -63 -13l-58 20l71 220h230z" />
    <glyph glyph-name="uni2076" unicode="&#x2076;" horiz-adv-x="353" 
d="M269 690q59 0 95 -32t36 -84q0 -77 -51 -127.5t-130 -50.5q-61 0 -101 34.5t-40 88.5q0 36 14.5 72.5t49 79t59 69t75.5 77.5h124q-23 -21 -68.5 -64t-66.5 -63h4zM228 489q31 0 51 18.5t20 47.5q0 20 -14.5 33t-37.5 13q-29 0 -49.5 -19t-20.5 -46q0 -20 14.5 -33.5
t36.5 -13.5z" />
    <glyph glyph-name="uni2077" unicode="&#x2077;" horiz-adv-x="353" 
d="M457 817l-272 -414h-112l209 320h-169l19 94h325z" />
    <glyph glyph-name="uni2078" unicode="&#x2078;" horiz-adv-x="350" 
d="M343 618q43 -27 43 -82q0 -63 -43 -101.5t-117 -38.5q-64 0 -106 30.5t-42 77.5q0 86 80 120q-32 28 -32 68q0 59 41.5 95t112.5 36q57 0 92.5 -27t35.5 -69q0 -73 -65 -109zM261 660q22 0 34 11t12 27q0 32 -37 32q-21 0 -33.5 -11t-12.5 -29q0 -13 10 -21.5t27 -8.5z
M230 489q58 0 58 46q0 40 -52 40q-28 0 -43.5 -13t-15.5 -36q0 -16 14 -26.5t39 -10.5z" />
    <glyph glyph-name="uni2079" unicode="&#x2079;" horiz-adv-x="354" 
d="M283 824q61 0 101 -34.5t40 -88.5q0 -36 -14.5 -72.5t-49 -79t-59 -69t-75.5 -77.5h-124q23 21 68.5 64t66.5 63h-4q-59 0 -95 32t-36 84q0 77 51 127.5t130 50.5zM255 619q29 0 50 19t21 46q0 20 -15 33.5t-37 13.5q-31 0 -51 -18.5t-20 -47.5q0 -20 14.5 -33t37.5 -13z
" />
    <glyph glyph-name="uni207A" unicode="&#x207a;" horiz-adv-x="352" 
d="M381 603v-77h-106v-101h-78v101h-105v77h105v101h78v-101h106z" />
    <glyph glyph-name="uni207B" unicode="&#x207b;" horiz-adv-x="352" 
d="M98 603h289v-77h-289v77z" />
    <glyph glyph-name="uni207C" unicode="&#x207c;" horiz-adv-x="377" 
d="M102 674h289v-77h-289v77zM102 533h289v-78h-289v78z" />
    <glyph glyph-name="uni207D" unicode="&#x207d;" horiz-adv-x="234" 
d="M240 329l-76 -43q-75 94 -75 229q0 91 49.5 177.5t138.5 154.5l66 -49q-77 -54 -122.5 -128t-45.5 -155q0 -110 65 -186z" />
    <glyph glyph-name="uni207E" unicode="&#x207e;" horiz-adv-x="235" 
d="M125 804l75 43q76 -93 76 -229q0 -91 -49.5 -177.5t-138.5 -154.5l-66 49q77 53 122 127.5t45 155.5q0 109 -64 186z" />
    <glyph glyph-name="uni2080" unicode="&#x2080;" horiz-adv-x="350" 
d="M99 -183q-58 0 -93.5 40t-35.5 107q0 70 22.5 134t68.5 106.5t106 42.5q58 0 94 -40.5t36 -107.5q0 -112 -53.5 -197t-144.5 -85zM110 -90q27 0 48 31t30.5 70.5t9.5 75.5q0 31 -11 48.5t-31 17.5q-39 0 -62 -59t-23 -119q0 -65 39 -65z" />
    <glyph glyph-name="uni2081" unicode="&#x2081;" horiz-adv-x="357" 
d="M184 -83h78l-18 -92h-260l18 92h84l39 193l-88 -29l-1 96l209 69h5z" />
    <glyph glyph-name="uni2082" unicode="&#x2082;" horiz-adv-x="350" 
d="M274 143q0 -38 -13.5 -69.5t-36.5 -53.5t-46 -38.5t-50 -34t-40 -30.5h162l-19 -92h-298q15 55 45.5 98t63 66.5t62.5 43t49.5 39.5t19.5 43q0 38 -46 38q-53 0 -101 -34l-11 89q60 38 134 38q125 0 125 -103z" />
    <glyph glyph-name="uni2083" unicode="&#x2083;" horiz-adv-x="352" 
d="M196 38q48 -23 48 -82q0 -62 -49 -100.5t-127 -38.5q-79 0 -128 29l36 94q30 -30 90 -30q35 0 57 12t22 33q0 37 -64 37h-32l17 88h32q66 0 66 44q0 29 -43 29q-48 0 -96 -29v90q59 32 123 32q55 0 86 -26.5t31 -71.5q0 -72 -69 -110z" />
    <glyph glyph-name="uni2084" unicode="&#x2084;" horiz-adv-x="345" 
d="M291 239l-50 -248h43l-17 -88h-43l-16 -78h-95l16 78h-185l17 88l186 248h144zM66 -9h80l30 150z" />
    <glyph glyph-name="uni2085" unicode="&#x2085;" horiz-adv-x="353" 
d="M272 145h-142l-19 -52q22 5 43 5q54 0 84 -32.5t30 -84.5q0 -74 -48.5 -119t-129.5 -45q-90 0 -143 42l55 90q34 -38 90 -38q34 0 55 14t21 42q0 45 -57 45q-31 0 -63 -13l-58 20l71 220h230z" />
    <glyph glyph-name="uni2086" unicode="&#x2086;" horiz-adv-x="353" 
d="M153 112q59 0 95 -32t36 -84q0 -77 -51 -127.5t-130 -50.5q-61 0 -101 34.5t-40 88.5q0 36 14.5 72.5t49 79t59 69t75.5 77.5h124q-23 -21 -68.5 -64t-66.5 -63h4zM112 -89q31 0 51 18.5t20 47.5q0 20 -14.5 33t-37.5 13q-29 0 -49.5 -19t-20.5 -46q0 -20 14.5 -33.5
t36.5 -13.5z" />
    <glyph glyph-name="uni2087" unicode="&#x2087;" horiz-adv-x="353" 
d="M341 239l-272 -414h-112l209 320h-169l19 94h325z" />
    <glyph glyph-name="uni2088" unicode="&#x2088;" horiz-adv-x="350" 
d="M227 40q43 -27 43 -82q0 -62 -43 -101t-117 -39q-64 0 -106 30.5t-42 77.5q0 86 80 120q-32 28 -32 68q0 59 41.5 95t112.5 36q57 0 92.5 -27t35.5 -69q0 -73 -65 -109zM145 82q22 0 34 11t12 27q0 32 -37 32q-21 0 -33.5 -11t-12.5 -29q0 -13 10 -21.5t27 -8.5zM114 -89
q58 0 58 46q0 40 -52 40q-28 0 -43.5 -13t-15.5 -36q0 -16 14 -26.5t39 -10.5z" />
    <glyph glyph-name="uni2089" unicode="&#x2089;" horiz-adv-x="354" 
d="M167 246q61 0 101 -34.5t40 -88.5q0 -36 -14.5 -72.5t-49 -79t-59 -69t-75.5 -77.5h-124q23 21 68.5 64t66.5 63h-4q-59 0 -95 32t-36 84q0 77 51 127.5t130 50.5zM139 41q29 0 50 19t21 46q0 20 -15 33.5t-37 13.5q-31 0 -51 -18.5t-20 -47.5q0 -20 14.5 -33t37.5 -13z
" />
    <glyph glyph-name="uni208A" unicode="&#x208a;" horiz-adv-x="352" 
d="M272 25v-77h-106v-101h-78v101h-105v77h105v101h78v-101h106z" />
    <glyph glyph-name="uni208B" unicode="&#x208b;" horiz-adv-x="352" 
d="M-17 25h289v-77h-289v77z" />
    <glyph glyph-name="uni208C" unicode="&#x208c;" horiz-adv-x="352" 
d="M-13 96h289v-77h-289v77zM-13 -45h289v-78h-289v78z" />
    <glyph glyph-name="uni208D" unicode="&#x208d;" horiz-adv-x="234" 
d="M123 -249l-76 -43q-75 94 -75 229q0 91 49.5 177.5t138.5 154.5l66 -49q-77 -54 -122.5 -128t-45.5 -155q0 -110 65 -186z" />
    <glyph glyph-name="uni208E" unicode="&#x208e;" horiz-adv-x="234" 
d="M9 226l75 43q76 -93 76 -229q0 -91 -49.5 -177.5t-138.5 -154.5l-66 49q77 53 122 127.5t45 155.5q0 109 -64 186z" />
    <glyph glyph-name="Euro" unicode="&#x20ac;" horiz-adv-x="536" 
d="M413 549q-113 0 -171 -112h264l-36 -79h-256q-4 -24 -6 -48h239l-39 -79h-195q11 -54 46 -83.5t87 -29.5q63 0 125 38l9 -130q-67 -38 -151 -38q-108 0 -178.5 67t-82.5 176h-55l16 79h37q2 24 6 48h-33l15 79h39q39 109 125 175.5t201 66.5q111 0 174 -58l-55 -117
q-51 45 -125 45z" />
    <glyph glyph-name="uni20B9" unicode="&#x20b9;" horiz-adv-x="536" 
d="M570 571h-108q14 -20 22 -48h78l-20 -96h-57q-14 -64 -64 -113t-123 -69l121 -245h-169l-171 353h140q98 0 126 74h-276l19 96h258q-17 48 -77 48h-172l19 96h474z" />
    <glyph glyph-name="uni20BA" unicode="&#x20ba;" horiz-adv-x="536" 
d="M396 327h139q-34 -172 -124 -249.5t-259 -77.5h-140l45 224l-53 -23l19 100l54 24l10 49l-53 -23l19 101l54 24l38 191h140l-25 -124l135 60l-19 -102l-136 -60l-10 -49l135 60l-19 -101l-137 -60l-32 -161q100 0 148.5 43t70.5 154z" />
    <glyph glyph-name="uni2113" unicode="&#x2113;" horiz-adv-x="448" 
d="M302 121q48 0 88 24l33 -123q-61 -32 -143 -32q-185 0 -203 177q-2 -1 -49 -23v147q8 3 16 7l17 8.5t14 6.5v168q0 121 42 176t136 55q92 0 136 -46t44 -123q0 -78 -49.5 -151t-168.5 -149v-14q0 -60 20 -84t67 -24zM215 522v-121q79 68 79 142q0 52 -41 52
q-20 0 -29 -15.5t-9 -57.5z" />
    <glyph glyph-name="published" unicode="&#x2117;" horiz-adv-x="771" 
d="M412 679q142 0 243.5 -101.5t101.5 -243.5q0 -143 -101 -244.5t-244 -101.5t-244.5 101.5t-101.5 244.5t101.5 244t244.5 101zM412 64q111 0 190 79t79 191q0 111 -79 190t-190 79q-112 0 -191 -79t-79 -190q0 -112 79 -191t191 -79zM448 525q64 0 103 -35.5t39 -94.5
t-39 -94.5t-103 -35.5h-70v-123h-94v383h164zM448 353q22 0 35 11.5t13 30.5q0 20 -13 31t-35 11h-70v-84h70z" />
    <glyph glyph-name="trademark" unicode="&#x2122;" horiz-adv-x="713" 
d="M322 667v-82h-85l1 -225h-86l-1 225h-85v82h256zM735 360h-87l-1 192l-85 -147h-31l-88 150l1 -195h-86l-1 307h112l74 -124l73 124h118z" />
    <glyph glyph-name="uni2126" unicode="&#x2126;" horiz-adv-x="770" 
d="M634 121h117v-121h-305v123q71 13 113.5 69.5t42.5 140.5q0 96 -55.5 156t-143.5 60q-89 0 -145 -60t-56 -156q0 -83 43 -140t114 -70v-123h-306v121h117q-108 86 -108 239q0 142 94.5 230.5t246.5 88.5q151 0 245 -88.5t94 -230.5q0 -153 -108 -239z" />
    <glyph glyph-name="estimated" unicode="&#x212e;" horiz-adv-x="812" 
d="M423 -10q-173 0 -272 95q-104 99 -104 248q0 150 105 248q103 96 271 96q154 0 260 -85q106 -86 116 -269h-598q-8 0 -11.5 -2.5t-3.5 -14.5v-168q0 -33 70.5 -77t166.5 -44q69 0 132 30.5t106 78.5h70q-72 -80 -141 -107q-73 -29 -167 -29zM201 345h441q11 0 14 3.5
t3 12.5v165q0 41 -79 84t-159 43q-61 0 -118.5 -24.5t-87 -52t-29.5 -43.5v-180q0 -8 15 -8z" />
    <glyph glyph-name="arrowleft" unicode="&#x2190;" horiz-adv-x="758" 
d="M735 397v-130h-440l152 -146l-89 -89l-301 301l301 301l89 -89l-154 -148h442z" />
    <glyph glyph-name="arrowup" unicode="&#x2191;" horiz-adv-x="682" 
d="M659 377l-89 -89l-148 154v-442h-130v440l-146 -152l-89 89l301 301z" />
    <glyph glyph-name="arrowright" unicode="&#x2192;" horiz-adv-x="758" 
d="M434 634l301 -301l-301 -301l-89 89l153 147h-441v130h441l-153 147z" />
    <glyph glyph-name="arrowdown" unicode="&#x2193;" horiz-adv-x="682" 
d="M570 382l89 -89l-301 -301l-301 301l89 89l147 -153v441h130v-441z" />
    <glyph glyph-name="uni2196" unicode="&#x2196;" horiz-adv-x="605" 
d="M582 161l-92 -92l-311 312l4 -211h-126v425h425v-126l-213 4z" />
    <glyph glyph-name="uni2197" unicode="&#x2197;" horiz-adv-x="606" 
d="M158 592h425v-425h-126l4 213l-312 -313l-92 92l312 311l-211 -4v126z" />
    <glyph glyph-name="uni2198" unicode="&#x2198;" horiz-adv-x="605" 
d="M456 515h126v-425h-425v125l213 -4l-313 313l92 92l311 -313z" />
    <glyph glyph-name="uni2199" unicode="&#x2199;" horiz-adv-x="605" 
d="M583 524l-312 -312l211 4v-125h-425v425h126l-4 -214l312 314z" />
    <glyph glyph-name="partialdiff" unicode="&#x2202;" horiz-adv-x="556" 
d="M261 679q126 0 202 -91.5t76 -260.5q0 -166 -71.5 -252t-194.5 -86q-108 0 -176.5 64.5t-68.5 167.5q0 98 63 159t163 61q95 0 154 -61q-19 175 -166 175q-63 0 -116 -32l-22 116q70 40 157 40zM273 112q50 0 81.5 30.5t31.5 78.5q0 49 -31.5 79.5t-81.5 30.5
q-51 0 -83 -30.5t-32 -79.5q0 -48 32 -78.5t83 -30.5z" />
    <glyph glyph-name="uni2206" unicode="&#x2206;" horiz-adv-x="681" 
d="M414 667l263 -667h-681l263 667h155zM192 130h289l-144 379z" />
    <glyph glyph-name="product" unicode="&#x220f;" horiz-adv-x="707" 
d="M90 -175v842h561v-842h-139v712h-283v-712h-139z" />
    <glyph glyph-name="summation" unicode="&#x2211;" horiz-adv-x="578" 
d="M554 667v-130h-315l210 -291l-210 -291h315v-130h-497v108l226 313l-226 313v108h497z" />
    <glyph glyph-name="minus" unicode="&#x2212;" horiz-adv-x="540" 
d="M62 316h450v-112h-450v112z" />
    <glyph glyph-name="uni2215" unicode="&#x2215;" horiz-adv-x="536" 
d="M109 0h-137l493 667h136z" />
    <glyph glyph-name="uni2219" unicode="&#x2219;" horiz-adv-x="536" 
d="M282 171q-39 0 -64 25t-25 64t24.5 64t64.5 25q38 0 63 -25t25 -64q0 -38 -25 -63.5t-63 -25.5z" />
    <glyph glyph-name="radical" unicode="&#x221a;" horiz-adv-x="726" 
d="M604 702h129l-323 -877h-176l-109 366h-98v116h193l106 -358z" />
    <glyph glyph-name="infinity" unicode="&#x221e;" horiz-adv-x="811" 
d="M606 451q85 0 138 -53.5t53 -137.5t-53.5 -138t-137.5 -54q-104 0 -183 107q-81 -107 -184 -107q-84 0 -137 54t-53 138t53 137.5t137 53.5q102 0 184 -106q80 106 183 106zM239 182q57 0 115 78q-59 77 -115 77q-32 0 -50.5 -20t-18.5 -57t18.5 -57.5t50.5 -20.5z
M606 182q32 0 50.5 20.5t18.5 57.5t-18.5 57t-50.5 20q-33 0 -59 -19.5t-56 -57.5q30 -38 56 -58t59 -20z" />
    <glyph glyph-name="integral" unicode="&#x222b;" horiz-adv-x="512" 
d="M12 -159l23 120q27 -16 61 -16q64 0 74 72l67 475q13 94 60.5 140.5t121.5 46.5q72 0 115 -27l-23 -120q-26 16 -61 16q-64 0 -74 -72l-67 -474q-13 -94 -60.5 -140.5t-121.5 -46.5q-72 0 -115 26z" />
    <glyph glyph-name="approxequal" unicode="&#x2248;" horiz-adv-x="540" 
d="M68 290q0 80 37.5 129t105.5 49q37 0 65.5 -17t49 -33.5t37.5 -16.5q38 0 38 67h104q0 -80 -37 -129t-105 -49q-29 0 -53.5 10.5t-38 22.5t-30 22.5t-30.5 10.5q-38 0 -38 -66h-105zM68 52q0 80 37.5 129t105.5 49q29 0 53.5 -10.5t38 -22.5t30 -22.5t30.5 -10.5
q38 0 38 66h104q0 -80 -37 -129t-105 -49q-29 0 -53.5 10.5t-38 23t-30 23t-30.5 10.5q-38 0 -38 -67h-105z" />
    <glyph glyph-name="notequal" unicode="&#x2260;" horiz-adv-x="540" 
d="M512 317h-128l-64 -114h192v-113h-247l-57 -102h-112l57 102h-91v113h146l65 114h-211v113h265l57 102h112l-58 -102h74v-113z" />
    <glyph glyph-name="lessequal" unicode="&#x2264;" horiz-adv-x="540" 
d="M605 536v-119l-339 -89l339 -89v-118l-450 123v168zM155 -16v113h450v-113h-450z" />
    <glyph glyph-name="greaterequal" unicode="&#x2265;" horiz-adv-x="540" 
d="M62 536l450 -124v-168l-450 -123v118l339 89l-339 89v119zM62 -16v113h450v-113h-450z" />
    <glyph glyph-name="lozenge" unicode="&#x25ca;" horiz-adv-x="649" 
d="M413 667l215 -421l-215 -421h-176l-215 421l215 421h176zM325 -67l155 313l-155 313l-154 -313z" />
    <glyph glyph-name="uni2610" unicode="&#x2610;" horiz-adv-x="707" 
d="M37 0v667h667v-667h-667zM133 96h476v476h-476v-476z" />
    <glyph glyph-name="uni2611" unicode="&#x2611;" horiz-adv-x="707" 
d="M37 667h667v-667h-667v667zM609 96v476h-476v-476h476zM281 123q-52 135 -127 170l55 82q70 -22 117 -122q83 243 202 300l64 -92q-59 -28 -115.5 -120t-89.5 -218h-106z" />
    <glyph glyph-name="uni2612" unicode="&#x2612;" horiz-adv-x="707" 
d="M37 667h667v-667h-667v667zM609 96v476h-476v-476h476zM230 111l-80 58q54 87 128 174q-65 82 -103 140l85 67q39 -60 92 -126q85 85 165 135l71 -99q-86 -47 -165 -120q69 -75 134 -139l-78 -79q-62 61 -133 141q-59 -66 -116 -152z" />
    <glyph glyph-name="uni2713" unicode="&#x2713;" horiz-adv-x="707" 
d="M615 676l77 -131q-96 -43 -190 -193t-150 -352h-120q-82 195 -195 244l66 117q107 -36 179 -184q64 196 149 324t184 175z" />
    <glyph glyph-name="uni2717" unicode="&#x2717;" horiz-adv-x="707" 
d="M427 340q102 -119 214 -229l-98 -99q-109 109 -211 230q-109 -119 -191 -248l-102 70q89 144 207 282q-104 133 -169 235l109 82q60 -97 153 -216q141 144 275 229l89 -128q-140 -78 -276 -208z" />
    <glyph glyph-name="uniFEFF" unicode="&#xfeff;" 
 />
    <glyph glyph-name="a.ss01" horiz-adv-x="502" 
d="M260 491q95 0 147 -43t52 -127q0 -32 -7 -66l-50 -255h-122l8 40q-56 -51 -144 -51q-68 0 -104.5 35.5t-36.5 104.5q0 72 56 118.5t144 46.5q70 0 122 -27q4 21 4 33q0 73 -92 73q-72 0 -137 -34l-3 120q78 32 163 32zM200 86q88 0 102 70l6 27q-33 15 -78 15
q-46 0 -71 -16.5t-25 -46.5q0 -49 66 -49z" />
    <glyph glyph-name="aacute.ss01" horiz-adv-x="502" 
d="M488 708l-154 -156h-133l131 156h156zM260 491q95 0 147 -43t52 -127q0 -32 -7 -66l-50 -255h-122l8 40q-56 -51 -144 -51q-68 0 -104.5 35.5t-36.5 104.5q0 72 56 118.5t144 46.5q70 0 122 -27q4 21 4 33q0 73 -92 73q-72 0 -137 -34l-3 120q78 32 163 32zM200 86
q88 0 102 70l6 27q-33 15 -78 15q-46 0 -71 -16.5t-25 -46.5q0 -49 66 -49z" />
    <glyph glyph-name="abreve.ss01" horiz-adv-x="502" 
d="M310 548q-58 0 -95.5 34.5t-37.5 90.5q0 17 3 33h89q-2 -10 -2 -18q0 -19 13 -30.5t35 -11.5q26 0 45.5 16.5t24.5 43.5h98q-14 -70 -60.5 -114t-112.5 -44zM260 491q95 0 147 -43t52 -127q0 -32 -7 -66l-50 -255h-122l8 40q-56 -51 -144 -51q-68 0 -104.5 35.5
t-36.5 104.5q0 72 56 118.5t144 46.5q70 0 122 -27q4 21 4 33q0 73 -92 73q-72 0 -137 -34l-3 120q78 32 163 32zM200 86q88 0 102 70l6 27q-33 15 -78 15q-46 0 -71 -16.5t-25 -46.5q0 -49 66 -49z" />
    <glyph glyph-name="acircumflex.ss01" horiz-adv-x="502" 
d="M319 630l-69 -78h-121l129 156h147l67 -156h-115zM260 491q95 0 147 -43t52 -127q0 -32 -7 -66l-50 -255h-122l8 40q-56 -51 -144 -51q-68 0 -104.5 35.5t-36.5 104.5q0 72 56 118.5t144 46.5q70 0 122 -27q4 21 4 33q0 73 -92 73q-72 0 -137 -34l-3 120q78 32 163 32z
M200 86q88 0 102 70l6 27q-33 15 -78 15q-46 0 -71 -16.5t-25 -46.5q0 -49 66 -49z" />
    <glyph glyph-name="adieresis.ss01" horiz-adv-x="502" 
d="M202 562q-32 0 -52 19.5t-20 51.5q0 31 20 51.5t52 20.5q31 0 51 -20.5t20 -51.5t-19.5 -51t-51.5 -20zM401 562q-32 0 -51.5 19.5t-19.5 51.5q0 31 19.5 51.5t51.5 20.5q31 0 51 -20.5t20 -51.5t-20 -51t-51 -20zM260 491q95 0 147 -43t52 -127q0 -32 -7 -66l-50 -255
h-122l8 40q-56 -51 -144 -51q-68 0 -104.5 35.5t-36.5 104.5q0 72 56 118.5t144 46.5q70 0 122 -27q4 21 4 33q0 73 -92 73q-72 0 -137 -34l-3 120q78 32 163 32zM200 86q88 0 102 70l6 27q-33 15 -78 15q-46 0 -71 -16.5t-25 -46.5q0 -49 66 -49z" />
    <glyph glyph-name="agrave.ss01" horiz-adv-x="502" 
d="M389 552h-112l-92 156h136zM260 491q95 0 147 -43t52 -127q0 -32 -7 -66l-50 -255h-122l8 40q-56 -51 -144 -51q-68 0 -104.5 35.5t-36.5 104.5q0 72 56 118.5t144 46.5q70 0 122 -27q4 21 4 33q0 73 -92 73q-72 0 -137 -34l-3 120q78 32 163 32zM200 86q88 0 102 70
l6 27q-33 15 -78 15q-46 0 -71 -16.5t-25 -46.5q0 -49 66 -49z" />
    <glyph glyph-name="amacron.ss01" horiz-adv-x="502" 
d="M476 680l-19 -95h-297l19 95h297zM260 491q95 0 147 -43t52 -127q0 -32 -7 -66l-50 -255h-122l8 40q-56 -51 -144 -51q-68 0 -104.5 35.5t-36.5 104.5q0 72 56 118.5t144 46.5q70 0 122 -27q4 21 4 33q0 73 -92 73q-72 0 -137 -34l-3 120q78 32 163 32zM200 86
q88 0 102 70l6 27q-33 15 -78 15q-46 0 -71 -16.5t-25 -46.5q0 -49 66 -49z" />
    <glyph glyph-name="aogonek.ss01" horiz-adv-x="502" 
d="M260 491q95 0 147 -43t52 -127q0 -32 -7 -66l-50 -255q-72 -55 -72 -82q0 -15 20 -15q14 0 36 8l2 -74q-40 -21 -88 -21q-35 0 -54 15t-19 43q0 63 88 126h-35l8 40q-56 -51 -144 -51q-68 0 -104.5 35.5t-36.5 104.5q0 72 56 118.5t144 46.5q70 0 122 -27q4 21 4 33
q0 73 -92 73q-72 0 -137 -34l-3 120q78 32 163 32zM200 86q88 0 102 70l6 27q-33 15 -78 15q-46 0 -71 -16.5t-25 -46.5q0 -49 66 -49z" />
    <glyph glyph-name="aring.ss01" horiz-adv-x="502" 
d="M305 537q-45 0 -77.5 32t-32.5 76q0 46 32.5 78t77.5 32t76.5 -32t31.5 -78q0 -44 -31.5 -76t-76.5 -32zM305 695q-21 0 -36 -14.5t-15 -35.5q0 -20 15 -34.5t36 -14.5q19 0 34 15t15 34q0 21 -14.5 35.5t-34.5 14.5zM260 491q95 0 147 -43t52 -127q0 -32 -7 -66
l-50 -255h-122l8 40q-56 -51 -144 -51q-68 0 -104.5 35.5t-36.5 104.5q0 72 56 118.5t144 46.5q70 0 122 -27q4 21 4 33q0 73 -92 73q-72 0 -137 -34l-3 120q78 32 163 32zM200 86q88 0 102 70l6 27q-33 15 -78 15q-46 0 -71 -16.5t-25 -46.5q0 -49 66 -49z" />
    <glyph glyph-name="atilde.ss01" horiz-adv-x="502" 
d="M253 598q-16 0 -28 -14t-15 -36h-91q14 71 52 115t92 44q36 0 68.5 -26t46.5 -26q34 0 44 52h91q-14 -72 -51 -115.5t-92 -43.5q-36 0 -70 25t-47 25zM260 491q95 0 147 -43t52 -127q0 -32 -7 -66l-50 -255h-122l8 40q-56 -51 -144 -51q-68 0 -104.5 35.5t-36.5 104.5
q0 72 56 118.5t144 46.5q70 0 122 -27q4 21 4 33q0 73 -92 73q-72 0 -137 -34l-3 120q78 32 163 32zM200 86q88 0 102 70l6 27q-33 15 -78 15q-46 0 -71 -16.5t-25 -46.5q0 -49 66 -49z" />
    <glyph glyph-name="f_i" horiz-adv-x="585" 
d="M360 481l-23 -119h-114l-72 -362h-130l73 362h-59l24 119h59l13 67q33 162 186 162q61 0 100 -19l-42 -110q-28 10 -56 10q-27 0 -41.5 -14.5t-21.5 -51.5l-9 -44h113zM535 708q36 0 57.5 -20.5t21.5 -54.5q0 -33 -21.5 -54t-57.5 -21q-35 0 -57 21t-22 54q0 34 22 54.5
t57 20.5zM344 0l96 481h130l-96 -481h-130z" />
    <glyph glyph-name="f_l" horiz-adv-x="621" 
d="M256 525l-9 -44h113l-23 -119h-114l-72 -362h-130l73 362h-59l24 119h59l13 67q33 162 186 162q61 0 100 -19l-42 -110q-28 10 -56 10q-27 0 -41.5 -14.5t-21.5 -51.5zM505 146q0 -32 37 -32q18 0 35 6l-10 -118q-24 -7 -62 -7q-68 0 -100.5 26.5t-32.5 88.5q0 29 7 64
l105 528h130l-106 -534q-3 -14 -3 -22z" />
    <glyph glyph-name="zero.lf" horiz-adv-x="573" 
d="M254 -12q-99 0 -159 65t-60 175q0 115 36.5 215.5t111.5 167.5t174 67q100 0 159.5 -65t59.5 -176q0 -115 -36 -215.5t-111 -167t-175 -66.5zM265 118q53 0 93 51t58.5 119t18.5 136q0 60 -23.5 92t-67.5 32q-53 0 -93 -51t-58 -119.5t-18 -136.5q0 -59 23.5 -91
t66.5 -32z" />
    <glyph glyph-name="one.lf" horiz-adv-x="402" 
d="M378 679h9l-136 -679h-139l97 485l-141 -50l-2 134z" />
    <glyph glyph-name="two.lf" horiz-adv-x="536" 
d="M518 500q0 -61 -24.5 -110t-65 -82.5t-82 -60.5t-85 -57.5t-65.5 -59.5h267l-26 -130h-462q19 75 58 135t82 95.5t90 68t84 55.5t61 55t24 70q0 69 -82 69q-85 0 -161 -55l-15 121q96 64 203 64q98 0 148.5 -47t50.5 -131z" />
    <glyph glyph-name="three.lf" horiz-adv-x="536" 
d="M370 343q87 -37 87 -131q0 -103 -77 -163.5t-205 -60.5q-115 0 -189 47l50 128q53 -45 144 -45q64 0 100 24t36 65q0 72 -108 72h-50l24 122h49q55 0 87 23t32 64q0 60 -79 60q-81 0 -149 -40v121q86 49 190 49q83 0 133 -41.5t50 -114.5q0 -61 -33 -107.5t-92 -71.5z
" />
    <glyph glyph-name="four.lf" horiz-adv-x="550" 
d="M539 667l-81 -408h73l-25 -125h-74l-26 -134h-135l26 134h-295l25 125l298 408h214zM175 259h148l55 278z" />
    <glyph glyph-name="five.lf" horiz-adv-x="536" 
d="M503 537h-230l-40 -118q33 10 73 10q87 0 136.5 -48.5t49.5 -135.5q0 -107 -78 -182t-205 -75q-134 0 -214 68l76 123q57 -60 144 -60q61 0 98 32.5t37 82.5q0 38 -24.5 58.5t-71.5 20.5q-56 0 -108 -23l-81 27l113 350h351z" />
    <glyph glyph-name="six.lf" horiz-adv-x="536" 
d="M316 444q90 0 142 -52.5t52 -140.5q0 -109 -76.5 -186t-197.5 -77q-96 0 -156.5 52.5t-60.5 141.5q0 186 306 485h179q-94 -95 -210 -224q7 1 22 1zM251 118q50 0 82.5 35t32.5 86q0 37 -23.5 60.5t-62.5 23.5q-53 0 -85.5 -36t-32.5 -86q0 -37 25 -60t64 -23z" />
    <glyph glyph-name="seven.lf" horiz-adv-x="525" 
d="M604 667l-429 -667h-160l345 537h-275l25 130h494z" />
    <glyph glyph-name="eight.lf" horiz-adv-x="536" 
d="M415 347q83 -45 83 -135q0 -101 -68 -162.5t-189 -61.5q-97 0 -159.5 47.5t-62.5 124.5q0 72 39 122.5t111 74.5q-31 20 -47.5 51t-16.5 62q0 93 62.5 150.5t168.5 57.5q87 0 141.5 -42t54.5 -109q0 -126 -117 -180zM322 548q-39 0 -61 -22t-22 -56q0 -27 19 -44t50 -17
q39 0 61.5 23t22.5 57q0 27 -18.5 43t-51.5 16zM252 118q51 0 78.5 25.5t27.5 70.5q0 31 -24.5 52.5t-63.5 21.5q-51 0 -79.5 -28t-28.5 -73q0 -32 24 -50.5t66 -18.5z" />
    <glyph glyph-name="nine.lf" horiz-adv-x="536" 
d="M337 679q96 0 156 -52.5t60 -141.5q0 -187 -305 -485h-179q95 95 210 224q-7 -1 -22 -1q-90 0 -142 52.5t-52 140.5q0 109 76.5 186t197.5 77zM293 344q53 0 85.5 36t32.5 86q0 37 -25 60t-64 23q-50 0 -82.5 -35t-32.5 -86q0 -37 23.5 -60.5t62.5 -23.5z" />
    <glyph glyph-name="zero.dnom" horiz-adv-x="350" 
d="M134 -8q-58 0 -93.5 40t-35.5 107q0 70 22.5 134t68.5 106.5t106 42.5q58 0 94 -40.5t36 -107.5q0 -112 -53.5 -197t-144.5 -85zM145 85q27 0 48 31t30.5 70.5t9.5 75.5q0 31 -11 48.5t-31 17.5q-39 0 -62 -59t-23 -119q0 -65 39 -65z" />
    <glyph glyph-name="one.dnom" horiz-adv-x="357" 
d="M219 92h78l-18 -92h-260l18 92h84l39 193l-88 -29l-1 96l209 69h5z" />
    <glyph glyph-name="two.dnom" horiz-adv-x="350" 
d="M309 318q0 -38 -13.5 -69.5t-36.5 -53.5t-46 -38.5t-50 -34t-40 -30.5h162l-19 -92h-298q15 55 45.5 98t63 66.5t62.5 43t49.5 39.5t19.5 43q0 38 -46 38q-53 0 -101 -34l-11 89q60 38 134 38q125 0 125 -103z" />
    <glyph glyph-name="three.dnom" horiz-adv-x="352" 
d="M231 213q48 -23 48 -82q0 -62 -49 -100.5t-127 -38.5q-79 0 -128 29l36 94q30 -30 90 -30q35 0 57 12t22 33q0 37 -64 37h-32l17 88h32q66 0 66 44q0 29 -43 29q-48 0 -96 -29v90q59 32 123 32q55 0 86 -26.5t31 -71.5q0 -73 -69 -110z" />
    <glyph glyph-name="four.dnom" horiz-adv-x="345" 
d="M326 414l-50 -248h43l-17 -88h-43l-16 -78h-95l16 78h-185l17 88l186 248h144zM101 166h80l30 150z" />
    <glyph glyph-name="five.dnom" horiz-adv-x="353" 
d="M307 320h-142l-19 -52q22 5 43 5q54 0 84 -32.5t30 -84.5q0 -74 -48.5 -119t-129.5 -45q-90 0 -143 42l55 90q34 -38 90 -38q34 0 55 14t21 42q0 45 -57 45q-30 0 -63 -13l-58 20l71 220h230z" />
    <glyph glyph-name="six.dnom" horiz-adv-x="353" 
d="M188 287q59 0 95 -32t36 -84q0 -77 -51 -127.5t-130 -50.5q-61 0 -101 34.5t-40 88.5q0 36 14.5 72.5t49 79t59 69t75.5 77.5h124q-23 -21 -68.5 -64t-66.5 -63h4zM147 86q31 0 51 18.5t20 47.5q0 20 -14.5 33t-37.5 13q-29 0 -49.5 -19t-20.5 -46q0 -20 14.5 -33.5
t36.5 -13.5z" />
    <glyph glyph-name="seven.dnom" horiz-adv-x="353" 
d="M376 414l-272 -414h-112l209 320h-169l19 94h325z" />
    <glyph glyph-name="eight.dnom" horiz-adv-x="350" 
d="M262 215q43 -27 43 -82q0 -63 -43 -101.5t-117 -38.5q-64 0 -106 30.5t-42 77.5q0 86 80 120q-32 28 -32 68q0 59 41.5 95t112.5 36q57 0 92.5 -27t35.5 -69q0 -73 -65 -109zM180 257q22 0 34 11t12 27q0 32 -37 32q-21 0 -33.5 -11t-12.5 -29q0 -13 10 -21.5t27 -8.5z
M149 86q58 0 58 46q0 40 -52 40q-28 0 -43.5 -13t-15.5 -36q0 -16 14 -26.5t39 -10.5z" />
    <glyph glyph-name="nine.dnom" horiz-adv-x="354" 
d="M202 421q61 0 101 -34.5t40 -88.5q0 -36 -14.5 -72.5t-49 -79t-59 -69t-75.5 -77.5h-124q23 21 68.5 64t66.5 63h-4q-59 0 -95 32t-36 84q0 77 51 127.5t130 50.5zM174 216q29 0 50 19t21 46q0 20 -15 33.5t-37 13.5q-31 0 -51 -18.5t-20 -47.5q0 -20 14.5 -33t37.5 -13z
" />
    <glyph glyph-name="zero.numr" horiz-adv-x="350" 
d="M185 245q-58 0 -93.5 40t-35.5 107q0 70 22.5 134t68.5 106.5t106 42.5q58 0 94 -40.5t36 -107.5q0 -112 -53.5 -197t-144.5 -85zM196 338q27 0 48 31t30.5 70.5t9.5 75.5q0 31 -11 48.5t-31 17.5q-39 0 -62 -59t-23 -119q0 -65 39 -65z" />
    <glyph glyph-name="one.numr" horiz-adv-x="357" 
d="M270 345h78l-18 -92h-260l18 92h84l39 193l-88 -29l-1 96l209 69h5z" />
    <glyph glyph-name="two.numr" horiz-adv-x="350" 
d="M360 571q0 -38 -13.5 -69.5t-36.5 -53.5t-46 -38.5t-50 -34t-40 -30.5h162l-19 -92h-298q15 55 45.5 98t63 66.5t62.5 43t49.5 39.5t19.5 43q0 38 -46 38q-53 0 -101 -34l-11 89q60 38 134 38q125 0 125 -103z" />
    <glyph glyph-name="three.numr" horiz-adv-x="352" 
d="M282 466q48 -23 48 -82q0 -62 -49 -100.5t-127 -38.5q-79 0 -128 29l36 94q30 -30 90 -30q35 0 57 12t22 33q0 37 -64 37h-32l17 88h32q66 0 66 44q0 29 -43 29q-48 0 -96 -29v90q59 32 123 32q55 0 86 -26.5t31 -71.5q0 -72 -69 -110z" />
    <glyph glyph-name="four.numr" horiz-adv-x="345" 
d="M377 667l-50 -248h43l-17 -88h-43l-16 -78h-95l16 78h-185l17 88l186 248h144zM152 419h80l30 150z" />
    <glyph glyph-name="five.numr" horiz-adv-x="353" 
d="M358 573h-142l-19 -52q22 5 43 5q54 0 84 -32.5t30 -84.5q0 -74 -48.5 -119t-129.5 -45q-90 0 -143 42l55 90q34 -38 90 -38q34 0 55 14t21 42q0 45 -57 45q-31 0 -63 -13l-58 20l71 220h230z" />
    <glyph glyph-name="six.numr" horiz-adv-x="353" 
d="M239 540q59 0 95 -32t36 -84q0 -77 -51 -127.5t-130 -50.5q-61 0 -101 34.5t-40 88.5q0 36 14.5 72.5t49 79t59 69t75.5 77.5h124q-23 -21 -68.5 -64t-66.5 -63h4zM198 339q31 0 51 18.5t20 47.5q0 20 -14.5 33t-37.5 13q-29 0 -49.5 -19t-20.5 -46q0 -20 14.5 -33.5
t36.5 -13.5z" />
    <glyph glyph-name="seven.numr" horiz-adv-x="353" 
d="M427 667l-272 -414h-112l209 320h-169l19 94h325z" />
    <glyph glyph-name="eight.numr" horiz-adv-x="350" 
d="M313 468q43 -27 43 -82q0 -62 -43 -101t-117 -39q-64 0 -106 30.5t-42 77.5q0 86 80 120q-32 28 -32 68q0 59 41.5 95t112.5 36q57 0 92.5 -27t35.5 -69q0 -73 -65 -109zM231 510q22 0 34 11t12 27q0 32 -37 32q-21 0 -33.5 -11t-12.5 -29q0 -13 10 -21.5t27 -8.5z
M200 339q58 0 58 46q0 40 -52 40q-28 0 -43.5 -13t-15.5 -36q0 -16 14 -26.5t39 -10.5z" />
    <glyph glyph-name="nine.numr" horiz-adv-x="354" 
d="M253 674q61 0 101 -34.5t40 -88.5q0 -36 -14.5 -72.5t-49 -79t-59 -69t-75.5 -77.5h-124q23 21 68.5 64t66.5 63h-4q-59 0 -95 32t-36 84q0 77 51 127.5t130 50.5zM225 469q29 0 50 19t21 46q0 20 -15 33.5t-37 13.5q-31 0 -51 -18.5t-20 -47.5q0 -20 14.5 -33t37.5 -13z
" />
    <glyph glyph-name="caroncomb.alt" 
d="M-130 525l55 177h127l-100 -177h-82z" />
    <glyph glyph-name="uni0308.case" 
d="M-204 708q-31 0 -51.5 20t-20.5 51q0 32 20.5 52.5t51.5 20.5t51 -20.5t20 -52.5q0 -31 -20 -51t-51 -20zM-5 708q-31 0 -51 20t-20 51q0 32 20 52.5t51 20.5t51 -20.5t20 -52.5q0 -31 -20 -51t-51 -20z" />
    <glyph glyph-name="uni0307.case" 
d="M-40 705q-34 0 -56 21t-22 53q0 34 22 55t56 21q36 0 58 -21t22 -55q0 -33 -22 -53.5t-58 -20.5z" />
    <glyph glyph-name="gravecomb.case" 
d="M11 712h-112l-92 156h136z" />
    <glyph glyph-name="acutecomb.case" 
d="M-224 712l131 156h156l-154 -156h-133z" />
    <glyph glyph-name="uni030B.case" 
d="M-408 712l131 156h146l-155 -156h-122zM-220 712l131 156h146l-154 -156h-123z" />
    <glyph glyph-name="uni0302.case" 
d="M22 712h-115l-38 78l-69 -78h-121l129 156h147z" />
    <glyph glyph-name="uni030C.case" 
d="M-69 868h122l-129 -156h-147l-67 156h115l37 -77z" />
    <glyph glyph-name="uni0306.case" 
d="M-45 866h98q-14 -70 -60.5 -114t-112.5 -44q-58 0 -95.5 34.5t-37.5 90.5q0 17 3 33h89q-2 -10 -2 -18q0 -19 13 -30.5t35 -11.5q26 0 45.5 16.5t24.5 43.5z" />
    <glyph glyph-name="uni030A.case" 
d="M-37 697q-45 0 -77.5 32t-32.5 76q0 46 32.5 78t77.5 32t76.5 -32t31.5 -78q0 -44 -31.5 -76t-76.5 -32zM-37 756q19 0 34 15t15 34q0 21 -14.5 35.5t-34.5 14.5q-21 0 -36 -14.5t-15 -35.5q0 -20 15 -34.5t36 -14.5z" />
    <glyph glyph-name="tildecomb.case" 
d="M-342 708q14 71 52 115t92 44q36 0 68.5 -26t46.5 -26q34 0 44 52h91q-14 -72 -51 -115.5t-92 -43.5q-36 0 -70 25t-47 25q-16 0 -28 -14t-15 -36h-91z" />
    <glyph glyph-name="uni0304.case" 
d="M-249 818h297l-19 -95h-297z" />
    <glyph glyph-name="uni0335.case" 
d="M-371 398h362l-22 -112h-362z" />
    <glyph glyph-name="uni0336.case" 
d="M-648 598h678l-18 -95h-678z" />
    <glyph glyph-name="uni0337.case" 
d="M-379 338l401 208l-30 -145l-399 -207z" />
    <glyph glyph-name="uni0338.case" 
d="M-36 682l73 -56l-660 -643l-74 56z" />
    <glyph glyph-name="uni0308.narrow" 
d="M-205 562q-30 0 -49.5 20t-19.5 51t19.5 51.5t49.5 20.5t49.5 -20.5t19.5 -51.5t-19.5 -51t-49.5 -20zM-32 562q-31 0 -50 19.5t-19 51.5q0 31 19.5 51.5t49.5 20.5t49.5 -20.5t19.5 -51.5q0 -32 -19 -51.5t-50 -19.5z" />
    <glyph glyph-name="tildecomb.narrow" 
d="M-284 548q14 72 46 115.5t78 43.5q27 0 45.5 -13t30.5 -26t22 -13q23 0 33 52h82q-14 -73 -46.5 -116t-78.5 -43q-27 0 -45.5 12.5t-30.5 25t-21 12.5q-24 0 -33 -50h-82z" />
    <glyph glyph-name="uni0304.narrow" 
d="M-227 680h275l-20 -95h-274z" />
    <glyph glyph-name="acute.case" horiz-adv-x="336" 
d="M134 712l131 156h156l-154 -156h-133z" />
    <glyph glyph-name="breve.case" horiz-adv-x="383" 
d="M370 866h98q-14 -70 -60.5 -114t-112.5 -44q-58 0 -95.5 34.5t-37.5 90.5q0 17 3 33h89q-2 -10 -2 -18q0 -19 13 -30.5t35 -11.5q26 0 45.5 16.5t24.5 43.5z" />
    <glyph glyph-name="caron.case" horiz-adv-x="423" 
d="M386 868h122l-129 -156h-147l-67 156h115l37 -77z" />
    <glyph glyph-name="circumflex.case" horiz-adv-x="423" 
d="M477 712h-115l-38 78l-69 -78h-121l129 156h147z" />
    <glyph glyph-name="dieresis.case" horiz-adv-x="425" 
d="M221 708q-31 0 -51.5 20t-20.5 51q0 32 20.5 52.5t51.5 20.5t51 -20.5t20 -52.5q0 -31 -20 -51t-51 -20zM420 708q-31 0 -51 20t-20 51q0 32 20 52.5t51 20.5t51 -20.5t20 -52.5q0 -31 -20 -51t-51 -20z" />
    <glyph glyph-name="dotaccent.case" horiz-adv-x="241" 
d="M228 705q-34 0 -56.5 21t-22.5 53q0 34 22 55t57 21t57 -21t22 -55q0 -32 -22 -53t-57 -21z" />
    <glyph glyph-name="grave.case" horiz-adv-x="315" 
d="M369 712h-112l-92 156h136z" />
    <glyph glyph-name="hungarumlaut.case" horiz-adv-x="514" 
d="M134 712l131 156h146l-155 -156h-122zM322 712l131 156h146l-154 -156h-123z" />
    <glyph glyph-name="macron.case" horiz-adv-x="378" 
d="M156 818h297l-19 -95h-297z" />
    <glyph glyph-name="ring.case" horiz-adv-x="302" 
d="M265 697q-45 0 -77.5 32t-32.5 76q0 46 32.5 78t77.5 32t76.5 -32t31.5 -78q0 -44 -31.5 -76t-76.5 -32zM265 756q19 0 34 15t15 34q0 21 -14.5 35.5t-34.5 14.5q-21 0 -36 -14.5t-15 -35.5q0 -20 15 -34.5t36 -14.5z" />
    <glyph glyph-name="tilde.case" horiz-adv-x="442" 
d="M133 708q14 71 52 115t92 44q36 0 68.5 -26t46.5 -26q34 0 44 52h91q-14 -72 -51 -115.5t-92 -43.5q-36 0 -70 25t-47 25q-16 0 -28 -14t-15 -36h-91z" />
    </font>
</defs>
</svg>
