<?xml version="1.0" standalone="no"?>
<!DOCTYPE svg PUBLIC "-//W3C//DTD SVG 1.1//EN" "http://www.w3.org/Graphics/SVG/1.1/DTD/svg11.dtd" >
<svg xmlns="http://www.w3.org/2000/svg" xmlns:xlink="http://www.w3.org/1999/xlink" version="1.1">
<metadata>
Created by FontForge 20161013 at Tue Mar 21 20:11:48 2017
 By ,,,
Copyright 2017 Allianz SE  All rights preserved
</metadata>
<defs>
<font id="AllianzNeo-Bold" horiz-adv-x="0" >
  <font-face 
    font-family="Allianz Neo"
    font-weight="700"
    font-stretch="normal"
    units-per-em="1000"
    panose-1="2 11 8 4 2 2 3 2 2 4"
    ascent="764"
    descent="-236"
    x-height="481"
    cap-height="667"
    bbox="-716 -292 1046 914"
    underline-thickness="50"
    underline-position="-200"
    unicode-range="U+000D-FEFF"
  />
<missing-glyph horiz-adv-x="480" 
d="M20 0v667h440v-667h-440zM88 68h304v531h-304v-531z" />
    <glyph glyph-name="uniFB00" unicode="ff" horiz-adv-x="676" 
d="M253 594q-56 0 -56 -63v-50h114v-117h-114v-364h-127v364h-59v117h59v63q0 79 41.5 122.5t118.5 43.5q56 0 96 -18l-20 -108q-28 10 -53 10zM544 531v-50h114v-117h-114v-364h-127v364h-59v117h59v63q0 79 41.5 122.5t118.5 43.5q55 0 96 -18l-20 -108q-28 10 -53 10
q-56 0 -56 -63z" />
    <glyph glyph-name="fi" unicode="fi" horiz-adv-x="582" 
d="M253 594q-56 0 -56 -63v-50h114v-117h-114v-364h-127v364h-59v117h59v63q0 79 41.5 122.5t118.5 43.5q56 0 96 -18l-20 -108q-28 10 -53 10zM455 560q-34 0 -55.5 20.5t-21.5 52.5q0 33 21.5 53.5t55.5 20.5q35 0 56.5 -20.5t21.5 -53.5q0 -32 -21.5 -52.5t-56.5 -20.5z
M392 0v481h127v-481h-127z" />
    <glyph glyph-name="fl" unicode="fl" horiz-adv-x="618" 
d="M253 594q-56 0 -56 -63v-50h114v-117h-114v-364h-127v364h-59v117h59v63q0 79 41.5 122.5t118.5 43.5q56 0 96 -18l-20 -108q-28 10 -53 10zM598 118l13 -110q-31 -13 -85 -13q-69 0 -101.5 34.5t-32.5 111.5v561h127v-538q0 -53 46 -53q17 0 33 7z" />
    <glyph glyph-name="uniFB03" unicode="ffi" horiz-adv-x="929" 
d="M253 594q-56 0 -56 -63v-50h114v-117h-114v-364h-127v364h-59v117h59v63q0 79 41.5 122.5t118.5 43.5q56 0 96 -18l-20 -108q-28 10 -53 10zM600 594q-56 0 -56 -63v-50h114v-117h-114v-364h-127v364h-59v117h59v63q0 79 41.5 122.5t118.5 43.5q55 0 96 -18l-20 -108
q-28 10 -53 10zM802 560q-34 0 -55.5 20.5t-21.5 52.5q0 33 21.5 53.5t55.5 20.5q35 0 56.5 -20.5t21.5 -53.5q0 -32 -21.5 -52.5t-56.5 -20.5zM739 0v481h127v-481h-127z" />
    <glyph glyph-name="uniFB04" unicode="ffl" horiz-adv-x="965" 
d="M253 594q-56 0 -56 -63v-50h114v-117h-114v-364h-127v364h-59v117h59v63q0 79 41.5 122.5t118.5 43.5q56 0 96 -18l-20 -108q-28 10 -53 10zM600 594q-56 0 -56 -63v-50h114v-117h-114v-364h-127v364h-59v117h59v63q0 79 41.5 122.5t118.5 43.5q55 0 96 -18l-20 -108
q-28 10 -53 10zM945 118l13 -110q-31 -13 -85 -13q-69 0 -101.5 34.5t-32.5 111.5v561h127v-538q0 -53 46 -53q17 0 33 7z" />
    <glyph glyph-name=".notdef" horiz-adv-x="480" 
d="M20 0v667h440v-667h-440zM88 68h304v531h-304v-531z" />
    <glyph glyph-name=".null" 
 />
    <glyph glyph-name="nonmarkingreturn" horiz-adv-x="333" 
 />
    <glyph glyph-name="NULL" 
 />
    <glyph glyph-name="NULL" 
 />
    <glyph glyph-name="CR" unicode="&#xd;" horiz-adv-x="226" 
 />
    <glyph glyph-name="space" unicode=" " horiz-adv-x="226" 
 />
    <glyph glyph-name="exclam" unicode="!" horiz-adv-x="270" 
d="M81 221l-15 446h137l-14 -446h-108zM135 -11q-36 0 -59.5 23.5t-23.5 59.5t23.5 59.5t59.5 23.5t59.5 -23.5t23.5 -59.5t-23.5 -59.5t-59.5 -23.5z" />
    <glyph glyph-name="quotedbl" unicode="&#x22;" horiz-adv-x="400" 
d="M50 411l-18 256h145l-18 -256h-109zM241 411l-18 256h145l-18 -256h-109z" />
    <glyph glyph-name="numbersign" unicode="#" horiz-adv-x="654" 
d="M605 396h-91l-21 -124h90l-19 -109h-90l-29 -163h-116l29 163h-121l-29 -163h-116l29 163h-91l19 109h91l22 124h-91l19 108h91l29 163h116l-29 -163h121l29 163h115l-29 -163h91zM377 272l22 124h-121l-22 -124h121z" />
    <glyph glyph-name="dollar" unicode="$" horiz-adv-x="536" 
d="M496 215q0 -69 -40.5 -115.5t-113.5 -64.5v-75h-131v65q-97 6 -161 42l30 124q74 -41 162 -41q54 0 85.5 16.5t31.5 42.5q0 21 -22.5 36t-56.5 23t-73.5 22.5t-73.5 32.5t-56.5 54.5t-22.5 87.5q0 71 41 115.5t116 58.5v67h131v-65q74 -9 127 -38l-31 -124
q-71 41 -152 41q-47 0 -71.5 -14.5t-24.5 -38.5q0 -23 22.5 -39.5t56.5 -25t74 -22t74 -30.5t56.5 -51.5t22.5 -83.5z" />
    <glyph glyph-name="percent" unicode="%" horiz-adv-x="760" 
d="M185 357q-73 0 -115.5 43.5t-42.5 117.5t42.5 117t115.5 43t115.5 -43t42.5 -117t-42.5 -117.5t-115.5 -43.5zM572 667h138l-522 -667h-138zM185 453q53 0 53 65q0 64 -53 64q-52 0 -52 -64q0 -65 52 -65zM575 -9q-73 0 -115.5 43.5t-42.5 117.5q0 73 42.5 116t115.5 43
t115.5 -43t42.5 -116q0 -74 -42.5 -117.5t-115.5 -43.5zM575 86q53 0 53 66q0 64 -53 64q-52 0 -52 -64q0 -66 52 -66z" />
    <glyph glyph-name="ampersand" unicode="&#x26;" horiz-adv-x="655" 
d="M650 61l-107 -70q-13 11 -38.5 34t-33.5 30q-79 -67 -189 -67q-107 0 -176.5 59.5t-69.5 146.5q0 99 107 177q-49 71 -49 139q0 75 53 122t133 47q74 0 120 -41t46 -106q0 -56 -33.5 -97t-89.5 -79q1 -1 29 -26l101 -93q21 48 30 111l125 -17q-15 -104 -59 -180
q41 -38 101 -90zM273 562q-24 0 -39 -13.5t-15 -38.5q0 -33 29 -73q41 26 56.5 44t15.5 38q0 21 -13 32t-34 11zM279 105q56 0 100 32q-22 20 -66 60.5t-59 53.5q-12 12 -38 36q-55 -41 -55 -87q0 -43 32 -69t86 -26z" />
    <glyph glyph-name="quotesingle" unicode="'" horiz-adv-x="209" 
d="M50 411l-18 256h145l-18 -256h-109z" />
    <glyph glyph-name="parenleft" unicode="(" horiz-adv-x="354" 
d="M342 -121l-102 -67q-203 189 -203 452q0 264 203 452l102 -67q-84 -74 -131 -172.5t-47 -212.5t47 -212.5t131 -172.5z" />
    <glyph glyph-name="parenright" unicode=")" horiz-adv-x="354" 
d="M12 -121q84 73 131 172t47 213t-47 213t-131 172l103 67q202 -189 202 -452t-202 -452z" />
    <glyph glyph-name="asterisk" unicode="*" horiz-adv-x="419" 
d="M149 309l-90 65l83 91l-121 25l34 106l113 -52l-14 123h111l-14 -123l113 52l34 -106l-121 -25l83 -91l-90 -65l-61 108z" />
    <glyph glyph-name="plus" unicode="+" horiz-adv-x="540" 
d="M495 315v-110h-170v-170h-110v170h-170v110h170v170h110v-170h170z" />
    <glyph glyph-name="comma" unicode="," horiz-adv-x="256" 
d="M104 -157l-102 24l88 288l131 -31z" />
    <glyph glyph-name="hyphen" unicode="-" horiz-adv-x="316" 
d="M32 324h252v-127h-252v127z" />
    <glyph glyph-name="period" unicode="." horiz-adv-x="250" 
d="M125 -11q-38 0 -62.5 24.5t-24.5 62.5t24.5 62.5t62.5 24.5t62.5 -24.5t24.5 -62.5t-25 -62.5t-62 -24.5z" />
    <glyph glyph-name="slash" unicode="/" horiz-adv-x="442" 
d="M126 -175h-126l306 842h126z" />
    <glyph glyph-name="zero" unicode="0" horiz-adv-x="536" 
d="M268 -12q-111 0 -175.5 93t-64.5 252t64.5 252t175.5 93t175.5 -93t64.5 -252t-64.5 -252t-175.5 -93zM268 115q50 0 77 57.5t27 160.5t-27 160.5t-77 57.5t-77 -57.5t-27 -160.5t27 -160.5t77 -57.5z" />
    <glyph glyph-name="one" unicode="1" horiz-adv-x="536" 
d="M368 127h124v-127h-401v127h142v368l-134 -51l-27 125l287 110h9v-552z" />
    <glyph glyph-name="two" unicode="2" horiz-adv-x="536" 
d="M195 127h290v-127h-462q6 72 31.5 130t59.5 91.5t72.5 64.5t71 52.5t53.5 52t21 65.5q0 45 -29 70t-82 25q-82 0 -141 -55l-39 119q77 63 188 63q108 0 173.5 -59.5t65.5 -159.5q0 -53 -22 -96t-57 -73t-71.5 -54.5t-71.5 -52.5t-51 -56z" />
    <glyph glyph-name="three" unicode="3" horiz-adv-x="536" 
d="M358 344q104 -43 104 -155q0 -92 -69 -146.5t-185 -54.5q-109 0 -181 45l25 126q59 -44 148 -44q59 0 92.5 21.5t33.5 60.5t-33.5 61t-93.5 22h-49v120h49q51 0 78 19.5t27 55.5q0 35 -26.5 55.5t-72.5 20.5q-76 0 -136 -44l-24 118q75 53 176 53q98 0 158.5 -52
t60.5 -138q0 -100 -82 -144z" />
    <glyph glyph-name="four" unicode="4" horiz-adv-x="536" 
d="M445 258h75v-122h-75v-136h-132v136h-297v122l220 409h209v-409zM155 258h158v294z" />
    <glyph glyph-name="five" unicode="5" horiz-adv-x="536" 
d="M239 -12q-119 0 -206 67l49 121q66 -60 151 -60q57 0 89.5 27.5t32.5 75.5q0 96 -121 96q-51 0 -99 -24l-85 27l44 349h349v-127h-231l-16 -120q25 8 64 8q103 0 167 -59t64 -154q0 -100 -70.5 -163.5t-181.5 -63.5z" />
    <glyph glyph-name="six" unicode="6" horiz-adv-x="536" 
d="M276 444q103 0 167.5 -62.5t64.5 -161.5q0 -103 -67 -167.5t-173 -64.5t-172.5 64.5t-66.5 167.5q0 89 54 186.5t178 260.5h154q-97 -121 -173 -226q16 3 34 3zM269 115q46 0 74.5 29.5t28.5 75.5q0 47 -28.5 76t-74.5 29t-75 -29t-29 -76q0 -46 29 -75.5t75 -29.5z" />
    <glyph glyph-name="seven" unicode="7" horiz-adv-x="536" 
d="M517 667l-304 -667h-140l246 540h-294v127h492z" />
    <glyph glyph-name="eight" unicode="8" horiz-adv-x="536" 
d="M402 351q100 -44 100 -158q0 -94 -63 -149.5t-171 -55.5t-171 55.5t-63 149.5q0 114 100 158q-74 45 -74 141q0 86 55 136t153 50t153 -50t55 -136q0 -96 -74 -141zM268 551q-37 0 -57 -19t-20 -53q0 -33 20 -52t57 -19t57 19t20 52q0 34 -20 53t-57 19zM268 115
q47 0 73 22.5t26 64.5q0 41 -26 64t-73 23t-73 -23t-26 -64q0 -42 26 -64.5t73 -22.5z" />
    <glyph glyph-name="nine" unicode="9" horiz-adv-x="536" 
d="M268 679q106 0 172.5 -64.5t66.5 -167.5q0 -89 -54 -186.5t-178 -260.5h-154q97 121 173 226q-17 -3 -34 -3q-103 0 -167.5 62.5t-64.5 161.5q0 103 67 167.5t173 64.5zM164 447q0 -47 28.5 -76t74.5 -29t75 29t29 76q0 46 -29 75.5t-75 29.5t-74.5 -29.5t-28.5 -75.5z
" />
    <glyph glyph-name="colon" unicode=":" horiz-adv-x="250" 
d="M125 317q-38 0 -62.5 24.5t-24.5 62.5t24.5 62.5t62.5 24.5t62.5 -24.5t24.5 -62.5t-25 -62.5t-62 -24.5zM125 -11q-38 0 -62.5 24.5t-24.5 62.5t24.5 62.5t62.5 24.5t62.5 -24.5t24.5 -62.5t-25 -62.5t-62 -24.5z" />
    <glyph glyph-name="uni003B" unicode=";" horiz-adv-x="276" 
d="M151 325q-38 0 -62.5 24.5t-24.5 62.5t24.5 62.5t62.5 24.5t62.5 -24.5t24.5 -62.5t-25 -62.5t-62 -24.5zM104 -151l-102 24l88 288l131 -31z" />
    <glyph glyph-name="less" unicode="&#x3c;" horiz-adv-x="540" 
d="M495 508v-121l-351 -127l351 -127v-121l-450 164v168z" />
    <glyph glyph-name="equal" unicode="=" horiz-adv-x="540" 
d="M45 428h450v-110h-450v110zM45 202h450v-110h-450v110z" />
    <glyph glyph-name="greater" unicode="&#x3e;" horiz-adv-x="540" 
d="M45 508l450 -164v-168l-450 -164v121l351 127l-351 127v121z" />
    <glyph glyph-name="question" unicode="?" horiz-adv-x="479" 
d="M115 221v5q0 44 19.5 77t46.5 52.5t54.5 36t47 37t19.5 45.5q0 34 -30 55.5t-82 21.5q-80 0 -135 -45l-38 116q73 56 185 56q106 0 171 -54t65 -144q0 -48 -20 -82.5t-48 -54t-56 -35t-48 -36t-20 -46.5v-5h-131zM180 -11q-36 0 -59.5 23.5t-23.5 59.5t23.5 59.5
t59.5 23.5t59.5 -23.5t23.5 -59.5t-23.5 -59.5t-59.5 -23.5z" />
    <glyph glyph-name="at" unicode="@" horiz-adv-x="917" 
d="M545 451h103v-242q0 -26 7.5 -37t26.5 -11q37 0 61.5 37t24.5 103q0 124 -85 202.5t-220 78.5q-139 0 -227 -89t-88 -230q0 -145 88 -236t227 -91q124 0 211 51l48 -105q-50 -29 -120.5 -46t-138.5 -17q-188 0 -310 125.5t-122 318.5q0 189 122 312t310 123
q184 0 303.5 -112t119.5 -285q0 -117 -56.5 -187t-147.5 -70q-106 0 -131 84q-45 -71 -124 -71q-75 0 -122.5 56t-47.5 145q0 90 47.5 145.5t122.5 55.5q74 0 118 -61v53zM455 161q82 0 82 97q0 50 -22.5 74t-59.5 24q-39 0 -63 -27t-24 -71q0 -43 24 -70t63 -27z" />
    <glyph glyph-name="A" unicode="A" horiz-adv-x="678" 
d="M535 0l-58 151h-276l-58 -151h-143l263 667h152l263 -667h-143zM250 279h178l-89 234z" />
    <glyph glyph-name="B" unicode="B" horiz-adv-x="645" 
d="M515 348q99 -50 99 -159q0 -85 -62 -137t-169 -52h-309v667h288q103 0 162.5 -50.5t59.5 -132.5q0 -84 -69 -136zM362 540h-152v-141h152q40 0 63 19.5t23 51.5q0 31 -23 50.5t-63 19.5zM383 127q45 0 70 21t25 55q0 35 -25 56t-70 21h-173v-153h173z" />
    <glyph glyph-name="C" unicode="C" horiz-adv-x="620" 
d="M374 -12q-150 0 -243.5 94.5t-93.5 250.5t93.5 251t243.5 95q132 0 217 -63l-37 -123q-74 59 -174 59q-94 0 -150.5 -59.5t-56.5 -159.5t56.5 -159t150.5 -59q98 0 174 59l37 -123q-85 -63 -217 -63z" />
    <glyph glyph-name="D" unicode="D" horiz-adv-x="672" 
d="M74 0v667h213q167 0 258 -91t91 -243t-91 -242.5t-258 -90.5h-213zM210 127h77q107 0 160 55.5t53 150.5q0 96 -53 151.5t-160 55.5h-77v-413z" />
    <glyph glyph-name="E" unicode="E" horiz-adv-x="572" 
d="M530 540h-320v-134h250v-128h-250v-151h320v-127h-456v667h456v-127z" />
    <glyph glyph-name="F" unicode="F" horiz-adv-x="562" 
d="M536 540h-326v-166h264v-127h-264v-247h-136v667h462v-127z" />
    <glyph glyph-name="G" unicode="G" horiz-adv-x="664" 
d="M355 384h256v-316q-83 -80 -237 -80q-150 0 -243.5 94.5t-93.5 250.5t93.5 251t243.5 95q132 0 217 -63l-37 -122q-75 58 -174 58q-94 0 -150.5 -59.5t-56.5 -159.5t56.5 -159t150.5 -59q50 0 95 18v123h-120v128z" />
    <glyph glyph-name="H" unicode="H" horiz-adv-x="706" 
d="M496 667h136v-667h-136v278h-286v-278h-136v667h136v-261h286v261z" />
    <glyph glyph-name="I" unicode="I" horiz-adv-x="284" 
d="M74 667h136v-667h-136v667z" />
    <glyph glyph-name="J" unicode="J" horiz-adv-x="386" 
d="M108 -10q-57 0 -101 14l21 123q27 -9 62 -9q47 0 69.5 22t22.5 71v456h136v-474q0 -98 -55 -150.5t-155 -52.5z" />
    <glyph glyph-name="K" unicode="K" horiz-adv-x="689" 
d="M507 0l-219 278l-78 -81v-197h-136v667h136v-292l276 292h178l-286 -296l302 -371h-173z" />
    <glyph glyph-name="L" unicode="L" horiz-adv-x="507" 
d="M74 0v667h136v-540h282v-127h-418z" />
    <glyph glyph-name="M" unicode="M" horiz-adv-x="913" 
d="M840 667v-667h-136v488l-223 -378h-49l-222 377v-487h-136v667h181l202 -342l201 342h182z" />
    <glyph glyph-name="N" unicode="N" horiz-adv-x="761" 
d="M551 667h136v-667h-181l-296 490v-490h-136v667h181l296 -490v490z" />
    <glyph glyph-name="O" unicode="O" horiz-adv-x="753" 
d="M376 -12q-151 0 -245 95.5t-94 249.5t94 250t245 96t245.5 -96t94.5 -250t-94 -249.5t-246 -95.5zM376 115q90 0 147 60.5t57 157.5t-57 158t-147 61t-146.5 -61t-56.5 -158t57 -157.5t146 -60.5z" />
    <glyph glyph-name="P" unicode="P" horiz-adv-x="624" 
d="M354 667q111 0 175.5 -60.5t64.5 -160.5q0 -98 -64.5 -158.5t-175.5 -60.5h-144v-227h-136v667h280zM354 354q49 0 76.5 25t27.5 67q0 43 -27.5 68.5t-76.5 25.5h-144v-186h144z" />
    <glyph glyph-name="Q" unicode="Q" horiz-adv-x="753" 
d="M733 26l-98 -73l-86 76q-79 -41 -173 -41q-151 0 -245 95.5t-94 249.5t94 250t245 96t245.5 -96t94.5 -250q0 -136 -75 -228zM376 115q35 0 65 9l-102 90l102 64l97 -84q42 58 42 139q0 97 -57 158t-147 61t-146.5 -61t-56.5 -158t57 -157.5t146 -60.5z" />
    <glyph glyph-name="R" unicode="R" horiz-adv-x="645" 
d="M452 0l-160 234h-82v-234h-136v667h280q111 0 175.5 -59.5t64.5 -157.5q0 -75 -39 -128.5t-110 -74.5l172 -247h-165zM210 540v-187h144q49 0 76.5 25.5t27.5 67.5q0 43 -27.5 68.5t-76.5 25.5h-144z" />
    <glyph glyph-name="S" unicode="S" horiz-adv-x="576" 
d="M51 35l31 125q83 -46 179 -46q64 0 102 21t38 55q0 26 -25.5 44t-64 28t-83 26.5t-83 36.5t-64 60t-25.5 96q0 93 64.5 145t179.5 52q126 0 207 -46l-31 -125q-78 45 -170 45q-57 0 -85.5 -18.5t-28.5 -49.5q0 -29 25.5 -49t64 -30t83 -26t83 -34t64 -56.5t25.5 -92.5
q0 -98 -73 -153t-199 -55q-128 0 -214 47z" />
    <glyph glyph-name="T" unicode="T" horiz-adv-x="568" 
d="M543 667v-127h-191v-540h-136v540h-191v127h518z" />
    <glyph glyph-name="U" unicode="U" horiz-adv-x="675" 
d="M338 -12q-134 0 -206.5 76t-72.5 214v389h136v-376q0 -91 34.5 -133.5t108.5 -42.5q73 0 107.5 42.5t34.5 133.5v376h136v-389q0 -138 -72.5 -214t-205.5 -76z" />
    <glyph glyph-name="V" unicode="V" horiz-adv-x="702" 
d="M548 667h148l-274 -667h-142l-274 667h148l197 -513z" />
    <glyph glyph-name="W" unicode="W" horiz-adv-x="1017" 
d="M865 667h140l-201 -667h-168l-127 456l-128 -456h-168l-201 667h141l144 -502l140 502h143l141 -504z" />
    <glyph glyph-name="X" unicode="X" horiz-adv-x="697" 
d="M688 0h-168l-171 250l-171 -250h-169l251 346l-232 321h169l152 -225l152 225h169l-232 -321z" />
    <glyph glyph-name="Y" unicode="Y" horiz-adv-x="649" 
d="M257 0v278l-266 389h169l165 -256l165 256h169l-266 -388v-279h-136z" />
    <glyph glyph-name="Z" unicode="Z" horiz-adv-x="613" 
d="M227 128h345v-128h-532v108l332 432h-318v128h504v-107z" />
    <glyph glyph-name="bracketleft" unicode="[" horiz-adv-x="362" 
d="M342 -57v-118h-279v877h279v-118h-152v-641h152z" />
    <glyph glyph-name="backslash" unicode="\" horiz-adv-x="442" 
d="M316 -175l-306 842h126l306 -842h-126z" />
    <glyph glyph-name="bracketright" unicode="]" horiz-adv-x="362" 
d="M20 -57h152v641h-152v118h279v-877h-279v118z" />
    <glyph glyph-name="asciicircum" unicode="^" horiz-adv-x="420" 
d="M11 415l134 252h130l134 -252h-118l-81 151l-81 -151h-118z" />
    <glyph glyph-name="underscore" unicode="_" horiz-adv-x="500" 
d="M0 -47h500v-91h-500v91z" />
    <glyph glyph-name="grave" unicode="`" horiz-adv-x="323" 
d="M283 552h-120l-123 155h143z" />
    <glyph glyph-name="a" unicode="a" horiz-adv-x="579" 
d="M246 -11q-95 0 -155 70t-60 181q0 112 60 181.5t155 69.5t151 -78v68h119v-481h-119v67q-56 -78 -151 -78zM277 109q52 0 82 35t30 96t-30 96t-82 35q-53 0 -86 -36t-33 -95q0 -58 33 -94.5t86 -36.5z" />
    <glyph glyph-name="b" unicode="b" horiz-adv-x="579" 
d="M334 491q95 0 154.5 -69.5t59.5 -181.5q0 -111 -59.5 -181t-154.5 -70q-96 0 -152 78v-67h-119v702h127v-279q55 68 144 68zM302 109q53 0 86 36.5t33 94.5q0 59 -33 95t-86 36q-52 0 -82 -35t-30 -96t30 -96t82 -35z" />
    <glyph glyph-name="c" unicode="c" horiz-adv-x="447" 
d="M273 -11q-107 0 -174.5 69t-67.5 182q0 114 67.5 182.5t174.5 68.5q86 0 154 -43l-36 -115q-49 38 -110 38q-56 0 -89.5 -34.5t-33.5 -96.5t33.5 -96.5t89.5 -34.5q62 0 111 37l35 -113q-67 -44 -154 -44z" />
    <glyph glyph-name="d" unicode="d" horiz-adv-x="579" 
d="M389 702h127v-702h-119v67q-56 -78 -151 -78t-155 70t-60 181q0 112 60 181.5t155 69.5q88 0 143 -68v279zM277 109q52 0 82 35t30 96t-30 96t-82 35q-53 0 -86 -36t-33 -95q0 -58 33 -94.5t86 -36.5z" />
    <glyph glyph-name="e" unicode="e" horiz-adv-x="525" 
d="M491 249q0 -30 -4 -49h-327q24 -95 138 -95q75 0 143 39l35 -106q-74 -49 -184 -49q-117 0 -189 67.5t-72 183.5q0 112 64.5 181.5t166.5 69.5q101 0 165 -67t64 -175zM264 382q-40 0 -68 -24t-37 -66h206q-6 42 -32.5 66t-68.5 24z" />
    <glyph glyph-name="f" unicode="f" horiz-adv-x="329" 
d="M197 531v-50h114v-117h-114v-364h-127v364h-59v117h59v63q0 79 41.5 122.5t118.5 43.5q56 0 96 -18l-20 -108q-28 10 -53 10q-56 0 -56 -63z" />
    <glyph glyph-name="g" unicode="g" horiz-adv-x="579" 
d="M397 481h119v-427q0 -113 -68.5 -175.5t-192.5 -62.5q-105 0 -194 46l33 110q70 -40 154 -40q141 0 141 130v19q-56 -68 -143 -68q-95 0 -155 66.5t-60 172.5t60 172.5t155 66.5t151 -78v68zM277 129q52 0 82 32.5t30 90.5t-30 90.5t-82 32.5q-53 0 -86 -34t-33 -89
q0 -54 33 -88.5t86 -34.5z" />
    <glyph glyph-name="h" unicode="h" horiz-adv-x="563" 
d="M332 491q85 0 131.5 -55t46.5 -154v-282h-127v255q0 116 -93 116q-47 0 -73.5 -29.5t-26.5 -83.5v-258h-127v702h127v-283q47 72 142 72z" />
    <glyph glyph-name="i" unicode="i" horiz-adv-x="253" 
d="M126 560q-34 0 -55.5 20.5t-21.5 52.5q0 33 21.5 53.5t55.5 20.5q35 0 56.5 -20.5t21.5 -53.5q0 -32 -21.5 -52.5t-56.5 -20.5zM63 481h127v-481h-127v481z" />
    <glyph glyph-name="j" unicode="j" horiz-adv-x="253" 
d="M126 560q-34 0 -55.5 20.5t-21.5 52.5q0 33 21.5 53.5t55.5 20.5q35 0 56.5 -20.5t21.5 -53.5q0 -32 -21.5 -52.5t-56.5 -20.5zM-38 -173l9 112q12 -2 21 -2q71 0 71 87v457h127v-467q0 -93 -44.5 -143t-128.5 -50q-32 0 -55 6z" />
    <glyph glyph-name="k" unicode="k" horiz-adv-x="544" 
d="M380 0l-136 181l-54 -56v-125h-127v702h127v-420l185 199h158l-203 -210l211 -271h-161z" />
    <glyph glyph-name="l" unicode="l" horiz-adv-x="289" 
d="M63 702h127v-538q0 -53 46 -53q17 0 33 7l13 -110q-31 -13 -85 -13q-69 0 -101.5 34.5t-32.5 111.5v561z" />
    <glyph glyph-name="m" unicode="m" horiz-adv-x="827" 
d="M604 491q80 0 125 -53t45 -148v-290h-127v263q0 108 -78 108q-41 0 -64 -25.5t-23 -71.5v-274h-127v263q0 108 -80 108q-40 0 -62.5 -25.5t-22.5 -71.5v-274h-127v481h119v-64q41 74 137 74q95 0 137 -77q44 77 148 77z" />
    <glyph glyph-name="n" unicode="n" horiz-adv-x="563" 
d="M332 491q85 0 131.5 -55t46.5 -154v-282h-127v255q0 116 -93 116q-47 0 -73.5 -29.5t-26.5 -83.5v-258h-127v481h119v-75q45 85 150 85z" />
    <glyph glyph-name="o" unicode="o" horiz-adv-x="550" 
d="M275 -11q-108 0 -176 70t-68 181q0 112 68 181.5t176 69.5q109 0 176 -69.5t67 -181.5q0 -111 -67.5 -181t-175.5 -70zM275 109q51 0 83.5 36.5t32.5 94.5t-32.5 94.5t-83.5 36.5q-52 0 -84.5 -36.5t-32.5 -94.5t32.5 -94.5t84.5 -36.5z" />
    <glyph glyph-name="p" unicode="p" horiz-adv-x="579" 
d="M334 491q95 0 154.5 -69.5t59.5 -181.5q0 -111 -59.5 -181t-154.5 -70q-88 0 -144 68v-232h-127v656h119v-68q56 78 152 78zM302 109q53 0 86 36.5t33 94.5q0 59 -33 95t-86 36q-52 0 -82 -35t-30 -96t30 -96t82 -35z" />
    <glyph glyph-name="q" unicode="q" horiz-adv-x="579" 
d="M397 481h119v-656h-127v232q-56 -68 -143 -68q-95 0 -155 70t-60 181q0 112 60 181.5t155 69.5t151 -78v68zM277 109q52 0 82 35t30 96t-30 96t-82 35q-53 0 -86 -36t-33 -95q0 -58 33 -94.5t86 -36.5z" />
    <glyph glyph-name="r" unicode="r" horiz-adv-x="375" 
d="M306 488q32 0 62 -12l-18 -125q-24 9 -51 9q-51 0 -80 -34t-29 -101v-225h-127v481h119v-86q37 93 124 93z" />
    <glyph glyph-name="s" unicode="s" horiz-adv-x="430" 
d="M24 26l30 113q63 -37 137 -37q37 0 59.5 11.5t22.5 29.5q0 15 -17.5 25t-44.5 15.5t-57.5 16.5t-57.5 25.5t-44.5 44.5t-17.5 72q0 71 49.5 110t137.5 39q92 0 160 -34l-33 -109q-60 30 -123 30q-64 0 -64 -35q0 -19 24.5 -30t59.5 -19.5t70.5 -21.5t60 -44.5t24.5 -80.5
q0 -74 -56 -115.5t-153 -41.5q-95 0 -167 36z" />
    <glyph glyph-name="t" unicode="t" horiz-adv-x="345" 
d="M310 121l18 -109q-46 -18 -103 -18q-75 0 -115 41.5t-40 118.5v210h-59v117h59v109l127 26v-135h125v-117h-125v-189q0 -64 60 -64q26 0 53 10z" />
    <glyph glyph-name="u" unicode="u" horiz-adv-x="563" 
d="M373 481h127v-481h-119v75q-46 -86 -151 -86q-84 0 -130.5 55t-46.5 154v283h127v-256q0 -116 93 -116q47 0 73.5 29.5t26.5 83.5v259z" />
    <glyph glyph-name="v" unicode="v" horiz-adv-x="524" 
d="M384 481h135l-192 -481h-130l-192 481h135l122 -335z" />
    <glyph glyph-name="w" unicode="w" horiz-adv-x="793" 
d="M656 481h128l-141 -481h-143l-103 313l-103 -313h-143l-142 481h129l88 -326l108 326h128l106 -326z" />
    <glyph glyph-name="x" unicode="x" horiz-adv-x="550" 
d="M548 0h-163l-109 167l-111 -167h-162l187 249l-173 232h162l97 -149l95 149h163l-172 -232z" />
    <glyph glyph-name="y" unicode="y" horiz-adv-x="523" 
d="M382 481h136l-196 -501q-35 -88 -82.5 -125.5t-122.5 -37.5q-38 0 -77 11l20 122q29 -8 55 -8q31 0 49.5 14t33.5 50l-193 475h135l123 -324z" />
    <glyph glyph-name="z" unicode="z" horiz-adv-x="466" 
d="M206 116h225v-116h-396v98l216 266h-206v117h376v-99z" />
    <glyph glyph-name="braceleft" unicode="{" horiz-adv-x="413" 
d="M241 383q0 -46 -24 -77t-58 -42q34 -11 58 -42.5t24 -76.5v-93q0 -53 32 -81t85 -28h35v-118h-38q-109 0 -175 51t-66 145v100q0 45 -24.5 70.5t-59.5 25.5v93q35 0 59.5 25.5t24.5 70.5v100q0 94 66 145t175 51h38v-118h-35q-53 0 -85 -28t-32 -81v-92z" />
    <glyph glyph-name="bar" unicode="|" horiz-adv-x="319" 
d="M94 702h131v-877h-131v877z" />
    <glyph glyph-name="braceright" unicode="}" horiz-adv-x="413" 
d="M299 406q0 -45 24.5 -70.5t59.5 -25.5v-93q-35 0 -59.5 -25.5t-24.5 -70.5v-100q0 -94 -65.5 -145t-175.5 -51h-38v118h36q53 0 84.5 28t31.5 81v93q0 45 24 76.5t58 42.5q-34 11 -58 42t-24 77v92q0 53 -31.5 81t-84.5 28h-36v118h38q110 0 175.5 -51t65.5 -145v-100z
" />
    <glyph glyph-name="asciitilde" unicode="~" horiz-adv-x="587" 
d="M40 143q0 103 42 165t120 62q37 0 67.5 -15t47 -33t35 -33t33.5 -15q22 0 33.5 26t11.5 70h117q0 -102 -42 -164.5t-120 -62.5q-36 0 -67 15t-47.5 33.5t-35 33.5t-33.5 15q-45 0 -45 -97h-117z" />
    <glyph glyph-name="uni00A0" unicode="&#xa0;" horiz-adv-x="226" 
 />
    <glyph glyph-name="exclamdown" unicode="&#xa1;" horiz-adv-x="266" 
d="M133 492q36 0 59.5 -24t23.5 -60t-23.5 -59.5t-59.5 -23.5t-59.5 23.5t-23.5 59.5t23.5 60t59.5 24zM188 248l14 -423h-137l14 423h109z" />
    <glyph glyph-name="cent" unicode="&#xa2;" horiz-adv-x="536" 
d="M422 246l35 -113q-39 -26 -91 -37v-96h-124v96q-83 18 -132 83.5t-49 160.5q0 96 49 161t132 84v82h124v-83q51 -11 91 -36l-36 -115q-49 38 -110 38q-56 0 -89.5 -34.5t-33.5 -96.5t33.5 -96.5t89.5 -34.5q62 0 111 37z" />
    <glyph glyph-name="sterling" unicode="&#xa3;" horiz-adv-x="536" 
d="M404 206l121 -37q-23 -89 -77.5 -129t-161.5 -40h-258v127h76q25 41 25 87q0 27 -11 71h-90v111h58q-9 34 -9 74q0 94 60.5 149.5t160.5 55.5q105 0 181 -56l-38 -118q-55 47 -126 47q-49 0 -75.5 -24.5t-26.5 -71.5q0 -23 7 -56h156v-111h-129q9 -43 9 -71
q0 -46 -24 -87h45q61 0 88.5 17.5t38.5 61.5z" />
    <glyph glyph-name="currency" unicode="&#xa4;" horiz-adv-x="536" 
d="M482 334q0 -56 -27 -105l72 -72l-82 -82l-72 72q-49 -27 -105 -27t-105 27l-72 -72l-82 82l72 72q-27 49 -27 105t27 105l-72 72l82 82l72 -72q49 27 105 27q57 0 105 -28l72 73l82 -82l-73 -72q28 -48 28 -105zM169 334q0 -41 29 -70t70 -29t70 29t29 70t-29 70t-70 29
t-70 -29t-29 -70z" />
    <glyph glyph-name="yen" unicode="&#xa5;" horiz-adv-x="536" 
d="M540 667l-178 -298h129v-94h-154v-49h154v-95h-154v-131h-136v131h-154v95h154v49h-154v94h128l-179 298h151l122 -217l121 217h150z" />
    <glyph glyph-name="brokenbar" unicode="&#xa6;" horiz-adv-x="319" 
d="M94 702h131v-329h-131v329zM94 154h131v-329h-131v329z" />
    <glyph glyph-name="section" unicode="&#xa7;" horiz-adv-x="532" 
d="M402 133q63 -44 63 -127q0 -90 -67.5 -140.5t-184.5 -50.5q-105 0 -183 36l30 115q70 -36 153 -36q58 0 91.5 19t33.5 51q0 29 -32.5 46t-78.5 29t-92 29.5t-78.5 58t-32.5 102.5q0 97 100 134q-63 46 -63 132t59.5 132.5t165.5 46.5q101 0 175 -33l-30 -114
q-67 32 -143 32q-100 0 -100 -62q0 -27 23.5 -44.5t58 -26t75.5 -22t75.5 -30t58 -52.5t23.5 -87q0 -96 -100 -138zM375 266q0 30 -33.5 47t-90.5 17q-49 0 -74.5 -17t-25.5 -46q0 -34 31 -52.5t80 -18.5q51 0 82 19t31 51z" />
    <glyph glyph-name="dieresis" unicode="&#xa8;" horiz-adv-x="419" 
d="M111 563q-31 0 -51 19.5t-20 50.5t20 51t51 20t50.5 -20t19.5 -51t-19.5 -50.5t-50.5 -19.5zM309 563q-31 0 -50.5 19.5t-19.5 50.5t19.5 51t50.5 20t50.5 -20t19.5 -51t-19.5 -50.5t-50.5 -19.5z" />
    <glyph glyph-name="copyright" unicode="&#xa9;" horiz-adv-x="771" 
d="M386 -12q-143 0 -244.5 101.5t-101.5 244.5t101.5 244t244.5 101q142 0 243.5 -101.5t101.5 -243.5q0 -143 -101 -244.5t-244 -101.5zM386 63q112 0 191 79.5t79 191.5t-79 191t-191 79t-191.5 -79t-79.5 -191t79.5 -191.5t191.5 -79.5zM398 135q-87 0 -140.5 55
t-53.5 143q0 89 53.5 144t140.5 55q78 0 128 -40l-26 -85q-42 39 -99 39q-49 0 -77.5 -30.5t-28.5 -82.5q0 -51 28.5 -81t77.5 -30q57 0 100 38l25 -86q-53 -39 -128 -39z" />
    <glyph glyph-name="ordfeminine" unicode="&#xaa;" horiz-adv-x="354" 
d="M160 678q75 0 116 -38.5t41 -107.5v-199h-89v29q-30 -37 -93 -37q-54 0 -86 29t-32 77q0 50 33.5 79t91.5 29q44 0 80 -17v4q0 65 -79 65q-45 0 -87 -22l-18 81q53 28 122 28zM165 395q57 0 57 46v19q-21 9 -49 9q-61 0 -61 -38q0 -36 53 -36z" />
    <glyph glyph-name="guillemotleft" unicode="&#xab;" horiz-adv-x="584" 
d="M322 437l-154 -179l154 -179h-156l-155 179l155 179h156zM552 437l-154 -179l154 -179h-156l-155 179l155 179h156z" />
    <glyph glyph-name="logicalnot" unicode="&#xac;" horiz-adv-x="540" 
d="M45 419h450v-364h-110v254h-340v110z" />
    <glyph glyph-name="uni00AD" unicode="&#xad;" horiz-adv-x="316" 
d="M32 324h252v-127h-252v127z" />
    <glyph glyph-name="registered" unicode="&#xae;" horiz-adv-x="378" 
d="M189 679q70 0 119 -49t49 -119t-49 -119t-119 -49t-119 49t-49 119t49 119t119 49zM189 384q53 0 90 37t37 90t-37 90t-90 37t-90 -37t-37 -90t37 -90t90 -37zM261 540q0 -40 -35 -53l46 -65h-55l-40 59h-12v-59h-45v177h76q29 0 47 -16t18 -43zM196 557h-31v-36h31
q21 0 21 18t-21 18z" />
    <glyph glyph-name="macron" unicode="&#xaf;" horiz-adv-x="376" 
d="M40 679h296v-93h-296v93z" />
    <glyph glyph-name="degree" unicode="&#xb0;" horiz-adv-x="319" 
d="M159 419q-53 0 -90.5 37.5t-37.5 91.5t37.5 91t90.5 37q54 0 91.5 -37t37.5 -91q0 -55 -37.5 -92t-91.5 -37zM159 490q24 0 41 17t17 41q0 25 -16.5 41.5t-41.5 16.5q-23 0 -40 -17t-17 -41q0 -23 17 -40.5t40 -17.5z" />
    <glyph glyph-name="plusminus" unicode="&#xb1;" horiz-adv-x="540" 
d="M325 380h170v-109h-170v-140h-110v140h-170v109h170v156h110v-156zM45 -15v110h450v-110h-450z" />
    <glyph glyph-name="uni00B2" unicode="&#xb2;" horiz-adv-x="350" 
d="M139 493h175v-90h-298q4 55 24.5 96t47 63.5t52.5 40t43.5 37.5t17.5 44q0 49 -65 49q-50 0 -86 -34l-28 87q49 38 120 38t113.5 -37.5t42.5 -101.5q0 -38 -20 -69t-44.5 -47.5t-53.5 -37.5t-41 -38z" />
    <glyph glyph-name="uni00B3" unicode="&#xb3;" horiz-adv-x="353" 
d="M235 617q66 -29 66 -98q0 -57 -45.5 -90.5t-120.5 -33.5q-69 0 -116 27l17 93q37 -29 96 -29q72 0 72 41q0 44 -74 44h-32v86h32q59 0 59 39q0 37 -53 37q-47 0 -88 -29l-18 88q51 32 113 32q63 0 103 -33t40 -85q0 -58 -51 -89z" />
    <glyph glyph-name="acute" unicode="&#xb4;" horiz-adv-x="323" 
d="M40 552l100 155h143l-123 -155h-120z" />
    <glyph glyph-name="uni00B5" unicode="&#xb5;" horiz-adv-x="573" 
d="M544 112q8 0 24 2v-112q-35 -8 -74 -8q-94 0 -107 71q-45 -76 -137 -76q-32 0 -60 11v-175h-127v656h127v-256q0 -116 93 -116q47 0 73.5 29.5t26.5 83.5v259h127v-332q0 -37 34 -37z" />
    <glyph glyph-name="paragraph" unicode="&#xb6;" horiz-adv-x="702" 
d="M608 667v-842h-127v724h-95v-724h-127v451h-20q-97 0 -153.5 54t-56.5 141q0 88 56.5 142t153.5 54h369z" />
    <glyph glyph-name="periodcentered" unicode="&#xb7;" horiz-adv-x="250" 
d="M125 173q-38 0 -62.5 24.5t-24.5 62.5t24.5 62.5t62.5 24.5t62.5 -24.5t24.5 -62.5t-25 -62.5t-62 -24.5z" />
    <glyph glyph-name="cedilla" unicode="&#xb8;" horiz-adv-x="256" 
d="M136 -35q37 -2 58.5 -21.5t21.5 -51.5q0 -36 -28 -57t-76 -21q-42 0 -72 15l15 60q19 -11 42 -11q33 0 33 19q0 17 -26 17q-12 0 -21 -3l-21 6l19 83h63z" />
    <glyph glyph-name="uni00B9" unicode="&#xb9;" horiz-adv-x="357" 
d="M248 493h78v-90h-259v90h85v202l-83 -30l-19 90l193 69h5v-331z" />
    <glyph glyph-name="ordmasculine" unicode="&#xba;" horiz-adv-x="386" 
d="M193 325q-76 0 -123.5 49.5t-47.5 127.5q0 77 47.5 126.5t123.5 49.5t123.5 -49t47.5 -127t-47.5 -127.5t-123.5 -49.5zM193 415q33 0 54.5 24t21.5 63q0 38 -21.5 62t-54.5 24t-54.5 -24t-21.5 -62q0 -39 21.5 -63t54.5 -24z" />
    <glyph glyph-name="guillemotright" unicode="&#xbb;" horiz-adv-x="584" 
d="M31 437h157l154 -179l-154 -179h-157l155 179zM262 437h157l154 -179l-154 -179h-157l154 179z" />
    <glyph glyph-name="onequarter" unicode="&#xbc;" horiz-adv-x="926" 
d="M326 253h-259v90h85v202l-83 -30l-19 90l193 69h5v-331h78v-90zM683 667h118l-506 -667h-118zM871 165h44v-86h-44v-79h-93v79h-186v86l135 249h144v-249zM690 165h88v161z" />
    <glyph glyph-name="onehalf" unicode="&#xbd;" horiz-adv-x="961" 
d="M326 253h-259v90h85v202l-83 -30l-19 90l193 69h5v-331h78v-90zM683 667h118l-506 -667h-118zM750 90h175v-90h-298q4 55 24.5 96t47 63.5t52.5 40t43.5 37.5t17.5 44q0 49 -65 49q-50 0 -86 -34l-28 87q49 38 120 38t113.5 -37.5t42.5 -101.5q0 -38 -20 -69t-44.5 -47.5
t-53.5 -37.5t-41 -38z" />
    <glyph glyph-name="threequarters" unicode="&#xbe;" horiz-adv-x="912" 
d="M301 369q0 -57 -45.5 -90.5t-120.5 -33.5q-69 0 -116 27l17 93q37 -29 96 -29q72 0 72 41q0 44 -74 44h-32v86h32q59 0 59 39q0 37 -53 37q-47 0 -88 -29l-18 88q51 32 113 32q63 0 103 -33t40 -85q0 -58 -51 -89q66 -29 66 -98zM669 667h118l-506 -667h-118zM857 165h44
v-86h-44v-79h-93v79h-186v86l135 249h144v-249zM676 165h88v161z" />
    <glyph glyph-name="questiondown" unicode="&#xbf;" horiz-adv-x="479" 
d="M299 492q36 0 59.5 -24t23.5 -60t-23.5 -59.5t-59.5 -23.5t-59.5 23.5t-23.5 59.5t23.5 60t59.5 24zM364 260v-5q0 -44 -19.5 -77.5t-47 -53t-54.5 -35.5t-46.5 -36.5t-19.5 -45.5q0 -34 30 -55.5t82 -21.5q80 0 135 45l38 -117q-74 -55 -185 -55q-106 0 -171 53.5
t-65 143.5q0 48 20 82.5t48 54t56 35.5t48 36.5t20 46.5v5h131z" />
    <glyph glyph-name="Agrave" unicode="&#xc0;" horiz-adv-x="678" 
d="M430 712h-120l-123 155h143zM535 0l-58 151h-276l-58 -151h-143l263 667h152l263 -667h-143zM250 279h178l-89 234z" />
    <glyph glyph-name="Aacute" unicode="&#xc1;" horiz-adv-x="678" 
d="M490 867l-123 -155h-120l100 155h143zM535 0l-58 151h-276l-58 -151h-143l263 667h152l263 -667h-143zM250 279h178l-89 234z" />
    <glyph glyph-name="Acircumflex" unicode="&#xc2;" horiz-adv-x="678" 
d="M339 790l-54 -78h-116l98 155h144l98 -155h-116zM535 0l-58 151h-276l-58 -151h-143l263 667h152l263 -667h-143zM250 279h178l-89 234z" />
    <glyph glyph-name="Atilde" unicode="&#xc3;" horiz-adv-x="678" 
d="M282 760q-16 0 -25.5 -14.5t-9.5 -37.5h-89q0 70 30 114t84 44q36 0 72.5 -26.5t50.5 -26.5q35 0 35 53h89q0 -71 -29.5 -114.5t-83.5 -43.5q-36 0 -73 26t-51 26zM535 0l-58 151h-276l-58 -151h-143l263 667h152l263 -667h-143zM250 279h178l-89 234z" />
    <glyph glyph-name="Adieresis" unicode="&#xc4;" horiz-adv-x="678" 
d="M240 709q-31 0 -51 19.5t-20 50.5t19.5 51t51.5 20q31 0 50.5 -20t19.5 -51t-19.5 -50.5t-50.5 -19.5zM438 709q-31 0 -50.5 19.5t-19.5 50.5q0 32 19.5 51.5t50.5 19.5t50.5 -20t19.5 -51t-19.5 -50.5t-50.5 -19.5zM535 0l-58 151h-276l-58 -151h-143l263 667h152
l263 -667h-143zM250 279h178l-89 234z" />
    <glyph glyph-name="Aring" unicode="&#xc5;" horiz-adv-x="678" 
d="M339 697q-44 0 -76.5 32t-32.5 76q0 45 32 77t77 32t76.5 -31.5t31.5 -77.5q0 -44 -31.5 -76t-76.5 -32zM339 855q-21 0 -36 -14.5t-15 -35.5q0 -20 15 -35t36 -15q20 0 35 15t15 35q0 21 -15 35.5t-35 14.5zM535 0l-58 151h-276l-58 -151h-143l263 667h152l263 -667
h-143zM250 279h178l-89 234z" />
    <glyph glyph-name="AE" unicode="&#xc6;" horiz-adv-x="920" 
d="M878 540h-330l12 -134h248v-128h-236l14 -151h292v-127h-417l-14 151h-233l-77 -151h-152l343 667h550v-127zM280 279h156l-23 259z" />
    <glyph glyph-name="Ccedilla" unicode="&#xc7;" horiz-adv-x="620" 
d="M591 51q-82 -60 -206 -63l-5 -23q37 -2 58.5 -21.5t21.5 -51.5q0 -36 -28 -57t-76 -21q-42 0 -72 15l15 60q19 -11 42 -11q33 0 33 19q0 17 -26 17q-12 0 -21 -3l-21 6l17 74q-129 17 -207.5 108.5t-78.5 233.5q0 156 93.5 251t243.5 95q132 0 217 -63l-37 -123
q-74 59 -174 59q-94 0 -150.5 -59.5t-56.5 -159.5t56.5 -159t150.5 -59q98 0 174 59z" />
    <glyph glyph-name="Egrave" unicode="&#xc8;" horiz-adv-x="572" 
d="M393 712h-120l-123 155h143zM530 540h-320v-134h250v-128h-250v-151h320v-127h-456v667h456v-127z" />
    <glyph glyph-name="Eacute" unicode="&#xc9;" horiz-adv-x="572" 
d="M210 712l100 155h143l-123 -155h-120zM530 540h-320v-134h250v-128h-250v-151h320v-127h-456v667h456v-127z" />
    <glyph glyph-name="Ecircumflex" unicode="&#xca;" horiz-adv-x="572" 
d="M302 790l-54 -78h-116l98 155h144l98 -155h-116zM530 540h-320v-134h250v-128h-250v-151h320v-127h-456v667h456v-127z" />
    <glyph glyph-name="Edieresis" unicode="&#xcb;" horiz-adv-x="572" 
d="M203 709q-31 0 -51 19.5t-20 50.5t20 51t51 20t50.5 -20t19.5 -51t-19.5 -50.5t-50.5 -19.5zM401 709q-31 0 -50.5 19.5t-19.5 50.5q0 32 19.5 51.5t50.5 19.5t50.5 -20t19.5 -51t-19.5 -50.5t-50.5 -19.5zM530 540h-320v-134h250v-128h-250v-151h320v-127h-456v667h456
v-127z" />
    <glyph glyph-name="Igrave" unicode="&#xcc;" horiz-adv-x="284" 
d="M233 712h-120l-123 155h143zM74 667h136v-667h-136v667z" />
    <glyph glyph-name="Iacute" unicode="&#xcd;" horiz-adv-x="284" 
d="M50 712l100 155h143l-123 -155h-120zM74 667h136v-667h-136v667z" />
    <glyph glyph-name="Icircumflex" unicode="&#xce;" horiz-adv-x="284" 
d="M142 790l-54 -78h-116l98 155h144l98 -155h-116zM74 0v667h136v-667h-136z" />
    <glyph glyph-name="Idieresis" unicode="&#xcf;" horiz-adv-x="284" 
d="M43 709q-31 0 -51 19.5t-20 50.5t20 51t51 20t50.5 -20t19.5 -51t-19.5 -50.5t-50.5 -19.5zM241 709q-31 0 -50.5 19.5t-19.5 50.5q0 32 19.5 51.5t50.5 19.5t50.5 -20t19.5 -51t-19.5 -50.5t-50.5 -19.5zM74 667h136v-667h-136v667z" />
    <glyph glyph-name="Eth" unicode="&#xd0;" horiz-adv-x="672" 
d="M287 667q167 0 258 -91t91 -243t-91 -242.5t-258 -90.5h-213v287h-71v110h71v270h213zM287 127q107 0 160 55.5t53 150.5q0 96 -53 151.5t-160 55.5h-77v-143h154v-110h-154v-160h77z" />
    <glyph glyph-name="Ntilde" unicode="&#xd1;" horiz-adv-x="761" 
d="M324 760q-16 0 -25.5 -14.5t-9.5 -37.5h-89q0 70 30 114t84 44q36 0 72.5 -26.5t50.5 -26.5q35 0 35 53h89q0 -71 -29.5 -114.5t-83.5 -43.5q-36 0 -73 26t-51 26zM551 667h136v-667h-181l-296 490v-490h-136v667h181l296 -490v490z" />
    <glyph glyph-name="Ograve" unicode="&#xd2;" horiz-adv-x="753" 
d="M467 712h-120l-123 155h143zM376 -12q-151 0 -245 95.5t-94 249.5t94 250t245 96t245.5 -96t94.5 -250t-94 -249.5t-246 -95.5zM376 115q90 0 147 60.5t57 157.5t-57 158t-147 61t-146.5 -61t-56.5 -158t57 -157.5t146 -60.5z" />
    <glyph glyph-name="Oacute" unicode="&#xd3;" horiz-adv-x="753" 
d="M284 712l100 155h143l-123 -155h-120zM376 -12q-151 0 -245 95.5t-94 249.5t94 250t245 96t245.5 -96t94.5 -250t-94 -249.5t-246 -95.5zM376 115q90 0 147 60.5t57 157.5t-57 158t-147 61t-146.5 -61t-56.5 -158t57 -157.5t146 -60.5z" />
    <glyph glyph-name="Ocircumflex" unicode="&#xd4;" horiz-adv-x="753" 
d="M376 790l-54 -78h-116l98 155h144l98 -155h-116zM376 679q151 0 245.5 -96t94.5 -250t-94 -249.5t-246 -95.5q-151 0 -245 95.5t-94 249.5t94 250t245 96zM376 115q90 0 147 60.5t57 157.5t-57 158t-147 61t-146.5 -61t-56.5 -158t57 -157.5t146 -60.5z" />
    <glyph glyph-name="Otilde" unicode="&#xd5;" horiz-adv-x="753" 
d="M195 708q0 70 30 114t84 44q36 0 72.5 -26.5t50.5 -26.5q35 0 35 53h89q0 -71 -29.5 -114.5t-83.5 -43.5q-36 0 -73 26t-51 26q-16 0 -25.5 -14.5t-9.5 -37.5h-89zM376 -12q-151 0 -245 95.5t-94 249.5t94 250t245 96t245.5 -96t94.5 -250t-94 -249.5t-246 -95.5z
M376 115q90 0 147 60.5t57 157.5t-57 158t-147 61t-146.5 -61t-56.5 -158t57 -157.5t146 -60.5z" />
    <glyph glyph-name="Odieresis" unicode="&#xd6;" horiz-adv-x="753" 
d="M277 709q-31 0 -51 19.5t-20 50.5t20 51t51 20t50.5 -20t19.5 -51t-19.5 -50.5t-50.5 -19.5zM475 709q-31 0 -50.5 19.5t-19.5 50.5q0 32 19.5 51.5t50.5 19.5t50.5 -20t19.5 -51t-19.5 -50.5t-50.5 -19.5zM376 -12q-151 0 -245 95.5t-94 249.5t94 250t245 96t245.5 -96
t94.5 -250t-94 -249.5t-246 -95.5zM376 115q90 0 147 60.5t57 157.5t-57 158t-147 61t-146.5 -61t-56.5 -158t57 -157.5t146 -60.5z" />
    <glyph glyph-name="multiply" unicode="&#xd7;" horiz-adv-x="540" 
d="M476 389l-129 -129l129 -129l-77 -77l-129 129l-128 -128l-77 76l128 129l-128 128l76 77l129 -129l129 130z" />
    <glyph glyph-name="Oslash" unicode="&#xd8;" horiz-adv-x="753" 
d="M633 571q83 -94 83 -238q0 -154 -94 -249.5t-246 -95.5q-103 0 -184 48l-43 -53l-80 50l51 62q-83 94 -83 238q0 154 94 250t245 96q104 0 185 -48l42 51l80 -50zM173 333q0 -75 36 -130l267 325q-46 24 -100 24q-90 0 -146.5 -61t-56.5 -158zM376 115q90 0 147 60.5
t57 157.5q0 75 -36 131l-267 -325q43 -24 99 -24z" />
    <glyph glyph-name="Ugrave" unicode="&#xd9;" horiz-adv-x="675" 
d="M429 712h-120l-123 155h143zM338 -12q-134 0 -206.5 76t-72.5 214v389h136v-376q0 -91 34.5 -133.5t108.5 -42.5q73 0 107.5 42.5t34.5 133.5v376h136v-389q0 -138 -72.5 -214t-205.5 -76z" />
    <glyph glyph-name="Uacute" unicode="&#xda;" horiz-adv-x="675" 
d="M246 712l100 155h143l-123 -155h-120zM338 -12q-134 0 -206.5 76t-72.5 214v389h136v-376q0 -91 34.5 -133.5t108.5 -42.5q73 0 107.5 42.5t34.5 133.5v376h136v-389q0 -138 -72.5 -214t-205.5 -76z" />
    <glyph glyph-name="Ucircumflex" unicode="&#xdb;" horiz-adv-x="675" 
d="M338 790l-54 -78h-116l98 155h144l98 -155h-116zM480 667h136v-389q0 -138 -72.5 -214t-205.5 -76q-134 0 -206.5 76t-72.5 214v389h136v-376q0 -91 34.5 -133.5t108.5 -42.5q73 0 107.5 42.5t34.5 133.5v376z" />
    <glyph glyph-name="Udieresis" unicode="&#xdc;" horiz-adv-x="675" 
d="M239 709q-31 0 -51 19.5t-20 50.5t20 51t51 20t50.5 -20t19.5 -51t-19.5 -50.5t-50.5 -19.5zM437 709q-31 0 -50.5 19.5t-19.5 50.5q0 32 19.5 51.5t50.5 19.5t50.5 -20t19.5 -51t-19.5 -50.5t-50.5 -19.5zM338 -12q-134 0 -206.5 76t-72.5 214v389h136v-376
q0 -91 34.5 -133.5t108.5 -42.5q73 0 107.5 42.5t34.5 133.5v376h136v-389q0 -138 -72.5 -214t-205.5 -76z" />
    <glyph glyph-name="Yacute" unicode="&#xdd;" horiz-adv-x="649" 
d="M229 712l100 155h143l-123 -155h-120zM257 0v278l-266 389h169l165 -256l165 256h169l-266 -388v-279h-136z" />
    <glyph glyph-name="Thorn" unicode="&#xde;" horiz-adv-x="634" 
d="M364 563q111 0 175.5 -60.5t64.5 -160.5t-64.5 -160.5t-175.5 -60.5h-144v-121h-136v667h136v-104h144zM364 248q49 0 76.5 25.5t27.5 68.5t-27.5 68.5t-76.5 25.5h-144v-188h144z" />
    <glyph glyph-name="germandbls" unicode="&#xdf;" horiz-adv-x="603" 
d="M448 376q117 -44 117 -172q0 -97 -61.5 -156t-159.5 -59q-72 0 -126 27l31 114q38 -21 87 -21q46 0 74 25.5t28 69.5q0 47 -32 73.5t-85 26.5h-54v117h37q40 0 64 23t24 64q0 39 -25.5 62t-67.5 23q-109 0 -109 -153v-440h-127v444q0 128 59 197t171 69q98 0 159.5 -54.5
t61.5 -145.5q0 -89 -66 -134z" />
    <glyph glyph-name="agrave" unicode="&#xe0;" horiz-adv-x="579" 
d="M389 552h-120l-123 155h143zM246 -11q-95 0 -155 70t-60 181q0 112 60 181.5t155 69.5t151 -78v68h119v-481h-119v67q-56 -78 -151 -78zM277 109q52 0 82 35t30 96t-30 96t-82 35q-53 0 -86 -36t-33 -95q0 -58 33 -94.5t86 -36.5z" />
    <glyph glyph-name="aacute" unicode="&#xe1;" horiz-adv-x="579" 
d="M185 552l100 155h143l-123 -155h-120zM246 -11q-95 0 -155 70t-60 181q0 112 60 181.5t155 69.5t151 -78v68h119v-481h-119v67q-56 -78 -151 -78zM277 109q52 0 82 35t30 96t-30 96t-82 35q-53 0 -86 -36t-33 -95q0 -58 33 -94.5t86 -36.5z" />
    <glyph glyph-name="acircumflex" unicode="&#xe2;" horiz-adv-x="579" 
d="M287 630l-54 -78h-116l98 155h144l98 -155h-116zM397 481h119v-481h-119v67q-56 -78 -151 -78t-155 70t-60 181q0 112 60 181.5t155 69.5t151 -78v68zM277 109q52 0 82 35t30 96t-30 96t-82 35q-53 0 -86 -36t-33 -95q0 -58 33 -94.5t86 -36.5z" />
    <glyph glyph-name="atilde" unicode="&#xe3;" horiz-adv-x="579" 
d="M106 548q0 70 30 114t84 44q36 0 72.5 -26.5t50.5 -26.5q35 0 35 53h89q0 -71 -29.5 -114.5t-83.5 -43.5q-36 0 -73 26t-51 26q-16 0 -25.5 -14.5t-9.5 -37.5h-89zM246 -11q-95 0 -155 70t-60 181q0 112 60 181.5t155 69.5t151 -78v68h119v-481h-119v67q-56 -78 -151 -78
zM277 109q52 0 82 35t30 96t-30 96t-82 35q-53 0 -86 -36t-33 -95q0 -58 33 -94.5t86 -36.5z" />
    <glyph glyph-name="adieresis" unicode="&#xe4;" horiz-adv-x="579" 
d="M189 563q-31 0 -51 19.5t-20 50.5t20 51t51 20t50.5 -20t19.5 -51t-19.5 -50.5t-50.5 -19.5zM387 563q-31 0 -50.5 19.5t-19.5 50.5t19.5 51t50.5 20t50.5 -20t19.5 -51t-19.5 -50.5t-50.5 -19.5zM246 -11q-95 0 -155 70t-60 181q0 112 60 181.5t155 69.5t151 -78v68h119
v-481h-119v67q-56 -78 -151 -78zM277 109q52 0 82 35t30 96t-30 96t-82 35q-53 0 -86 -36t-33 -95q0 -58 33 -94.5t86 -36.5z" />
    <glyph glyph-name="aring" unicode="&#xe5;" horiz-adv-x="579" 
d="M287 537q-44 0 -76.5 32t-32.5 76q0 45 32 77t77 32t76.5 -31.5t31.5 -77.5q0 -44 -31.5 -76t-76.5 -32zM287 595q20 0 35 15t15 35q0 21 -15 35.5t-35 14.5q-21 0 -36 -14.5t-15 -35.5q0 -20 15 -35t36 -15zM246 -11q-95 0 -155 70t-60 181q0 112 60 181.5t155 69.5
t151 -78v68h119v-481h-119v67q-56 -78 -151 -78zM277 109q52 0 82 35t30 96t-30 96t-82 35q-53 0 -86 -36t-33 -95q0 -58 33 -94.5t86 -36.5z" />
    <glyph glyph-name="ae" unicode="&#xe6;" horiz-adv-x="798" 
d="M764 249q0 -30 -4 -49h-311q24 -95 130 -95q71 0 136 39l35 -106q-72 -49 -177 -49q-131 0 -192 92q-42 -92 -170 -92q-86 0 -136.5 42t-50.5 113q0 69 51 108.5t147 39.5h98q-8 83 -116 83q-64 0 -125 -33l-24 108q73 41 172 41q115 0 166 -68q54 68 150 68
q98 0 159.5 -67t61.5 -175zM546 382q-37 0 -63 -24t-35 -66h190q-5 42 -29.5 66t-62.5 24zM228 92q43 0 68 21.5t25 61.5v25h-79q-91 0 -91 -54q0 -25 20 -39.5t57 -14.5z" />
    <glyph glyph-name="ccedilla" unicode="&#xe7;" horiz-adv-x="447" 
d="M427 33q-61 -41 -146 -44l-5 -24q37 -2 58.5 -21.5t21.5 -51.5q0 -36 -28 -57t-76 -21q-42 0 -72 15l15 60q19 -11 42 -11q33 0 33 19q0 17 -26 17q-12 0 -21 -3l-21 6l18 77q-86 17 -137.5 83t-51.5 163q0 114 67.5 182.5t174.5 68.5q86 0 154 -43l-36 -115
q-49 38 -110 38q-56 0 -89.5 -34.5t-33.5 -96.5t33.5 -96.5t89.5 -34.5q62 0 111 37z" />
    <glyph glyph-name="egrave" unicode="&#xe8;" horiz-adv-x="525" 
d="M363 552h-120l-123 155h143zM491 249q0 -30 -4 -49h-327q24 -95 138 -95q75 0 143 39l35 -106q-74 -49 -184 -49q-117 0 -189 67.5t-72 183.5q0 112 64.5 181.5t166.5 69.5q101 0 165 -67t64 -175zM264 382q-40 0 -68 -24t-37 -66h206q-6 42 -32.5 66t-68.5 24z" />
    <glyph glyph-name="eacute" unicode="&#xe9;" horiz-adv-x="525" 
d="M402 707l-123 -155h-120l100 155h143zM491 249q0 -30 -4 -49h-327q24 -95 138 -95q75 0 143 39l35 -106q-74 -49 -184 -49q-117 0 -189 67.5t-72 183.5q0 112 64.5 181.5t166.5 69.5q101 0 165 -67t64 -175zM264 382q-40 0 -68 -24t-37 -66h206q-6 42 -32.5 66t-68.5 24z
" />
    <glyph glyph-name="ecircumflex" unicode="&#xea;" horiz-adv-x="525" 
d="M261 630l-54 -78h-116l98 155h144l98 -155h-116zM491 249q0 -30 -4 -49h-327q24 -95 138 -95q75 0 143 39l35 -106q-74 -49 -184 -49q-117 0 -189 67.5t-72 183.5q0 112 64.5 181.5t166.5 69.5q101 0 165 -67t64 -175zM264 382q-40 0 -68 -24t-37 -66h206q-6 42 -32.5 66
t-68.5 24z" />
    <glyph glyph-name="edieresis" unicode="&#xeb;" horiz-adv-x="525" 
d="M163 563q-31 0 -51 19.5t-20 50.5t20 51t51 20t50.5 -20t19.5 -51t-19.5 -50.5t-50.5 -19.5zM361 563q-31 0 -50.5 19.5t-19.5 50.5t19.5 51t50.5 20t50.5 -20t19.5 -51t-19.5 -50.5t-50.5 -19.5zM491 249q0 -30 -4 -49h-327q24 -95 138 -95q75 0 143 39l35 -106
q-74 -49 -184 -49q-117 0 -189 67.5t-72 183.5q0 112 64.5 181.5t166.5 69.5q101 0 165 -67t64 -175zM264 382q-40 0 -68 -24t-37 -66h206q-6 42 -32.5 66t-68.5 24z" />
    <glyph glyph-name="igrave" unicode="&#xec;" horiz-adv-x="253" 
d="M228 552h-120l-123 155h143zM63 481h127v-481h-127v481z" />
    <glyph glyph-name="iacute" unicode="&#xed;" horiz-adv-x="253" 
d="M24 552l100 155h143l-123 -155h-120zM63 481h127v-481h-127v481z" />
    <glyph glyph-name="icircumflex" unicode="&#xee;" horiz-adv-x="253" 
d="M126 630l-54 -78h-116l98 155h144l98 -155h-116zM63 0v481h127v-481h-127z" />
    <glyph glyph-name="idieresis" unicode="&#xef;" horiz-adv-x="253" 
d="M40 563q-29 0 -48.5 19.5t-19.5 50.5t19.5 51t48.5 20t48.5 -20t19.5 -51t-19.5 -50.5t-48.5 -19.5zM212 563q-30 0 -49 19.5t-19 50.5t19 51t49 20t49 -20t19 -51t-19 -50.5t-49 -19.5zM63 481h127v-481h-127v481z" />
    <glyph glyph-name="eth" unicode="&#xf0;" horiz-adv-x="550" 
d="M395 585q123 -156 123 -337q0 -125 -65.5 -192t-177.5 -67q-108 0 -176 64.5t-68 167.5q0 99 62.5 161.5t159.5 62.5q64 0 113 -29q-30 63 -83 120l-145 -63l-19 80l98 43q-39 30 -67 46l114 69q41 -30 73 -62l110 48l20 -80zM275 109q52 0 84 31t32 81t-32 81.5
t-84 31.5t-84.5 -31.5t-32.5 -81.5t32.5 -81t84.5 -31z" />
    <glyph glyph-name="ntilde" unicode="&#xf1;" horiz-adv-x="563" 
d="M225 600q-16 0 -25.5 -14.5t-9.5 -37.5h-89q0 70 30 114t84 44q36 0 72.5 -26.5t50.5 -26.5q35 0 35 53h89q0 -71 -29.5 -114.5t-83.5 -43.5q-36 0 -73 26t-51 26zM332 491q85 0 131.5 -55t46.5 -154v-282h-127v255q0 116 -93 116q-47 0 -73.5 -29.5t-26.5 -83.5v-258
h-127v481h119v-75q45 85 150 85z" />
    <glyph glyph-name="ograve" unicode="&#xf2;" horiz-adv-x="550" 
d="M377 552h-120l-123 155h143zM275 -11q-108 0 -176 70t-68 181q0 112 68 181.5t176 69.5q109 0 176 -69.5t67 -181.5q0 -111 -67.5 -181t-175.5 -70zM275 109q51 0 83.5 36.5t32.5 94.5t-32.5 94.5t-83.5 36.5q-52 0 -84.5 -36.5t-32.5 -94.5t32.5 -94.5t84.5 -36.5z" />
    <glyph glyph-name="oacute" unicode="&#xf3;" horiz-adv-x="550" 
d="M173 552l100 155h143l-123 -155h-120zM275 -11q-108 0 -176 70t-68 181q0 112 68 181.5t176 69.5q109 0 176 -69.5t67 -181.5q0 -111 -67.5 -181t-175.5 -70zM275 109q51 0 83.5 36.5t32.5 94.5t-32.5 94.5t-83.5 36.5q-52 0 -84.5 -36.5t-32.5 -94.5t32.5 -94.5
t84.5 -36.5z" />
    <glyph glyph-name="ocircumflex" unicode="&#xf4;" horiz-adv-x="550" 
d="M275 630l-54 -78h-116l98 155h144l98 -155h-116zM275 491q109 0 176 -69.5t67 -181.5q0 -111 -67.5 -181t-175.5 -70t-176 70t-68 181q0 112 68 181.5t176 69.5zM275 109q51 0 83.5 36.5t32.5 94.5t-32.5 94.5t-83.5 36.5q-52 0 -84.5 -36.5t-32.5 -94.5t32.5 -94.5
t84.5 -36.5z" />
    <glyph glyph-name="otilde" unicode="&#xf5;" horiz-adv-x="550" 
d="M94 548q0 70 30 114t84 44q36 0 72.5 -26.5t50.5 -26.5q35 0 35 53h89q0 -71 -29.5 -114.5t-83.5 -43.5q-36 0 -73 26t-51 26q-16 0 -25.5 -14.5t-9.5 -37.5h-89zM275 -11q-108 0 -176 70t-68 181q0 112 68 181.5t176 69.5q109 0 176 -69.5t67 -181.5q0 -111 -67.5 -181
t-175.5 -70zM275 109q51 0 83.5 36.5t32.5 94.5t-32.5 94.5t-83.5 36.5q-52 0 -84.5 -36.5t-32.5 -94.5t32.5 -94.5t84.5 -36.5z" />
    <glyph glyph-name="odieresis" unicode="&#xf6;" horiz-adv-x="550" 
d="M177 563q-31 0 -51 19.5t-20 50.5t20 51t51 20t50.5 -20t19.5 -51t-19.5 -50.5t-50.5 -19.5zM375 563q-31 0 -50.5 19.5t-19.5 50.5t19.5 51t50.5 20t50.5 -20t19.5 -51t-19.5 -50.5t-50.5 -19.5zM275 -11q-108 0 -176 70t-68 181q0 112 68 181.5t176 69.5
q109 0 176 -69.5t67 -181.5q0 -111 -67.5 -181t-175.5 -70zM275 109q51 0 83.5 36.5t32.5 94.5t-32.5 94.5t-83.5 36.5q-52 0 -84.5 -36.5t-32.5 -94.5t32.5 -94.5t84.5 -36.5z" />
    <glyph glyph-name="divide" unicode="&#xf7;" horiz-adv-x="540" 
d="M270 372q-33 0 -54.5 21.5t-21.5 53.5q0 33 21.5 54.5t54.5 21.5t54.5 -21.5t21.5 -54.5q0 -32 -21.5 -53.5t-54.5 -21.5zM45 315h450v-110h-450v110zM270 -3q-33 0 -54.5 21.5t-21.5 54.5t21.5 54.5t54.5 21.5t54.5 -21.5t21.5 -54.5t-21.5 -54.5t-54.5 -21.5z" />
    <glyph glyph-name="oslash" unicode="&#xf8;" horiz-adv-x="550" 
d="M464 406q54 -67 54 -166q0 -111 -67.5 -181t-175.5 -70q-71 0 -128 33l-32 -39l-71 40l42 51q-55 68 -55 166q0 112 68 181.5t176 69.5q73 0 128 -32l30 36l71 -40zM151 240q0 -40 15 -70l163 198q-24 12 -54 12q-55 0 -89.5 -39t-34.5 -101zM275 101q55 0 89.5 39
t34.5 100q0 39 -14 70l-163 -197q24 -12 53 -12z" />
    <glyph glyph-name="ugrave" unicode="&#xf9;" horiz-adv-x="563" 
d="M383 552h-120l-123 155h143zM373 481h127v-481h-119v75q-46 -86 -151 -86q-84 0 -130.5 55t-46.5 154v283h127v-256q0 -116 93 -116q47 0 73.5 29.5t26.5 83.5v259z" />
    <glyph glyph-name="uacute" unicode="&#xfa;" horiz-adv-x="563" 
d="M422 707l-123 -155h-120l100 155h143zM373 481h127v-481h-119v75q-46 -86 -151 -86q-84 0 -130.5 55t-46.5 154v283h127v-256q0 -116 93 -116q47 0 73.5 29.5t26.5 83.5v259z" />
    <glyph glyph-name="ucircumflex" unicode="&#xfb;" horiz-adv-x="563" 
d="M281 630l-54 -78h-116l98 155h144l98 -155h-116zM373 481h127v-481h-119v75q-46 -86 -151 -86q-84 0 -130.5 55t-46.5 154v283h127v-256q0 -116 93 -116q47 0 73.5 29.5t26.5 83.5v259z" />
    <glyph glyph-name="udieresis" unicode="&#xfc;" horiz-adv-x="563" 
d="M183 563q-31 0 -51 19.5t-20 50.5t20 51t51 20t50.5 -20t19.5 -51t-19.5 -50.5t-50.5 -19.5zM381 563q-31 0 -50.5 19.5t-19.5 50.5t19.5 51t50.5 20t50.5 -20t19.5 -51t-19.5 -50.5t-50.5 -19.5zM373 481h127v-481h-119v75q-46 -86 -151 -86q-84 0 -130.5 55t-46.5 154
v283h127v-256q0 -116 93 -116q47 0 73.5 29.5t26.5 83.5v259z" />
    <glyph glyph-name="yacute" unicode="&#xfd;" horiz-adv-x="523" 
d="M403 707l-123 -155h-120l100 155h143zM382 481h136l-196 -501q-35 -88 -82.5 -125.5t-122.5 -37.5q-38 0 -77 11l20 122q29 -8 55 -8q31 0 49.5 14t33.5 50l-193 475h135l123 -324z" />
    <glyph glyph-name="thorn" unicode="&#xfe;" horiz-adv-x="579" 
d="M334 491q95 0 154.5 -69.5t59.5 -181.5q0 -111 -59.5 -181t-154.5 -70q-88 0 -144 68v-232h-127v877h127v-279q55 68 144 68zM302 109q53 0 86 36.5t33 94.5q0 59 -33 95t-86 36q-52 0 -82 -35t-30 -96t30 -96t82 -35z" />
    <glyph glyph-name="ydieresis" unicode="&#xff;" horiz-adv-x="523" 
d="M164 563q-31 0 -51 19.5t-20 50.5t20 51t51 20t50.5 -20t19.5 -51t-19.5 -50.5t-50.5 -19.5zM362 563q-31 0 -50.5 19.5t-19.5 50.5t19.5 51t50.5 20t50.5 -20t19.5 -51t-19.5 -50.5t-50.5 -19.5zM382 481h136l-196 -501q-35 -88 -82.5 -125.5t-122.5 -37.5q-38 0 -77 11
l20 122q29 -8 55 -8q31 0 49.5 14t33.5 50l-193 475h135l123 -324z" />
    <glyph glyph-name="Amacron" unicode="&#x100;" horiz-adv-x="678" 
d="M487 817v-92h-296v92h296zM535 0l-58 151h-276l-58 -151h-143l263 667h152l263 -667h-143zM250 279h178l-89 234z" />
    <glyph glyph-name="amacron" unicode="&#x101;" horiz-adv-x="579" 
d="M139 679h296v-93h-296v93zM246 -11q-95 0 -155 70t-60 181q0 112 60 181.5t155 69.5t151 -78v68h119v-481h-119v67q-56 -78 -151 -78zM277 109q52 0 82 35t30 96t-30 96t-82 35q-53 0 -86 -36t-33 -95q0 -58 33 -94.5t86 -36.5z" />
    <glyph glyph-name="Abreve" unicode="&#x102;" horiz-adv-x="678" 
d="M339 708q-66 0 -108.5 44.5t-42.5 112.5h92q0 -28 16.5 -44.5t42.5 -16.5t42.5 17t16.5 44h91q0 -69 -42 -113t-108 -44zM535 0l-58 151h-276l-58 -151h-143l263 667h152l263 -667h-143zM250 279h178l-89 234z" />
    <glyph glyph-name="abreve" unicode="&#x103;" horiz-adv-x="579" 
d="M346 705h91q0 -69 -42 -113t-108 -44t-108.5 44.5t-42.5 112.5h92q0 -28 16.5 -44.5t42.5 -16.5t42.5 17t16.5 44zM246 -11q-95 0 -155 70t-60 181q0 112 60 181.5t155 69.5t151 -78v68h119v-481h-119v67q-56 -78 -151 -78zM277 109q52 0 82 35t30 96t-30 96t-82 35
q-53 0 -86 -36t-33 -95q0 -58 33 -94.5t86 -36.5z" />
    <glyph glyph-name="Aogonek" unicode="&#x104;" horiz-adv-x="678" 
d="M588 -99q15 0 33 9l17 -73q-37 -21 -83 -21q-39 0 -62.5 19.5t-23.5 52.5q0 55 66 113l-58 150h-276l-58 -151h-143l263 667h152l263 -667h-59q-57 -50 -57 -75q0 -24 26 -24zM250 279h178l-89 234z" />
    <glyph glyph-name="aogonek" unicode="&#x105;" horiz-adv-x="579" 
d="M518 -90l17 -73q-37 -21 -83 -21q-39 0 -62.5 19.5t-23.5 52.5q0 55 65 112h-34v67q-56 -78 -151 -78t-155 70t-60 181q0 112 60 181.5t155 69.5t151 -78v68h119v-481q-57 -50 -57 -75q0 -24 26 -24q15 0 33 9zM277 109q52 0 82 35t30 96t-30 96t-82 35q-53 0 -86 -36
t-33 -95q0 -58 33 -94.5t86 -36.5z" />
    <glyph glyph-name="Cacute" unicode="&#x106;" horiz-adv-x="620" 
d="M264 712l100 155h143l-123 -155h-120zM374 -12q-150 0 -243.5 94.5t-93.5 250.5t93.5 251t243.5 95q132 0 217 -63l-37 -123q-74 59 -174 59q-94 0 -150.5 -59.5t-56.5 -159.5t56.5 -159t150.5 -59q98 0 174 59l37 -123q-85 -63 -217 -63z" />
    <glyph glyph-name="cacute" unicode="&#x107;" horiz-adv-x="447" 
d="M150 552l100 155h143l-123 -155h-120zM273 -11q-107 0 -174.5 69t-67.5 182q0 114 67.5 182.5t174.5 68.5q86 0 154 -43l-36 -115q-49 38 -110 38q-56 0 -89.5 -34.5t-33.5 -96.5t33.5 -96.5t89.5 -34.5q62 0 111 37l35 -113q-67 -44 -154 -44z" />
    <glyph glyph-name="Ccircumflex" unicode="&#x108;" horiz-adv-x="620" 
d="M356 790l-54 -78h-116l98 155h144l98 -155h-116zM380 115q98 0 174 59l37 -123q-85 -63 -217 -63q-150 0 -243.5 94.5t-93.5 250.5t93.5 251t243.5 95q132 0 217 -63l-37 -123q-74 59 -174 59q-94 0 -150.5 -59.5t-56.5 -159.5t56.5 -159t150.5 -59z" />
    <glyph glyph-name="ccircumflex" unicode="&#x109;" horiz-adv-x="447" 
d="M252 630l-54 -78h-116l98 155h144l98 -155h-116zM281 109q62 0 111 37l35 -113q-67 -44 -154 -44q-107 0 -174.5 69t-67.5 182q0 114 67.5 182.5t174.5 68.5q86 0 154 -43l-36 -115q-49 38 -110 38q-56 0 -89.5 -34.5t-33.5 -96.5t33.5 -96.5t89.5 -34.5z" />
    <glyph glyph-name="Cdotaccent" unicode="&#x10a;" horiz-adv-x="620" 
d="M355 706q-34 0 -55.5 20.5t-21.5 52.5q0 33 21.5 53.5t55.5 20.5q35 0 56.5 -20.5t21.5 -53.5q0 -32 -21.5 -52.5t-56.5 -20.5zM374 -12q-150 0 -243.5 94.5t-93.5 250.5t93.5 251t243.5 95q132 0 217 -63l-37 -123q-74 59 -174 59q-94 0 -150.5 -59.5t-56.5 -159.5
t56.5 -159t150.5 -59q98 0 174 59l37 -123q-85 -63 -217 -63z" />
    <glyph glyph-name="cdotaccent" unicode="&#x10b;" horiz-adv-x="447" 
d="M252 560q-34 0 -55.5 20.5t-21.5 52.5q0 33 21.5 53.5t55.5 20.5q35 0 56.5 -20.5t21.5 -53.5q0 -32 -21.5 -52.5t-56.5 -20.5zM273 -11q-107 0 -174.5 69t-67.5 182q0 114 67.5 182.5t174.5 68.5q86 0 154 -43l-36 -115q-49 38 -110 38q-56 0 -89.5 -34.5t-33.5 -96.5
t33.5 -96.5t89.5 -34.5q62 0 111 37l35 -113q-67 -44 -154 -44z" />
    <glyph glyph-name="Ccaron" unicode="&#x10c;" horiz-adv-x="620" 
d="M284 712l-98 155h116l54 -78l54 78h116l-98 -155h-144zM380 115q98 0 174 59l37 -123q-85 -63 -217 -63q-150 0 -243.5 94.5t-93.5 250.5t93.5 251t243.5 95q132 0 217 -63l-37 -123q-74 59 -174 59q-94 0 -150.5 -59.5t-56.5 -159.5t56.5 -159t150.5 -59z" />
    <glyph glyph-name="ccaron" unicode="&#x10d;" horiz-adv-x="447" 
d="M180 552l-98 155h116l54 -78l54 78h116l-98 -155h-144zM281 109q62 0 111 37l35 -113q-67 -44 -154 -44q-107 0 -174.5 69t-67.5 182q0 114 67.5 182.5t174.5 68.5q86 0 154 -43l-36 -115q-49 38 -110 38q-56 0 -89.5 -34.5t-33.5 -96.5t33.5 -96.5t89.5 -34.5z" />
    <glyph glyph-name="Dcaron" unicode="&#x10e;" horiz-adv-x="672" 
d="M263 712l-98 155h116l54 -78l54 78h116l-98 -155h-144zM287 667q167 0 258 -91t91 -243t-91 -242.5t-258 -90.5h-213v667h213zM287 127q107 0 160 55.5t53 150.5q0 96 -53 151.5t-160 55.5h-77v-413h77z" />
    <glyph glyph-name="dcaron" unicode="&#x10f;" horiz-adv-x="632" 
d="M389 423v279h127v-702h-119v67q-56 -78 -151 -78t-155 70t-60 181q0 112 60 181.5t155 69.5q88 0 143 -68zM561 702h125l-64 -176h-81zM277 109q52 0 82 35t30 96t-30 96t-82 35q-53 0 -86 -36t-33 -95q0 -58 33 -94.5t86 -36.5z" />
    <glyph glyph-name="Dcroat" unicode="&#x110;" horiz-adv-x="672" 
d="M287 667q167 0 258 -91t91 -243t-91 -242.5t-258 -90.5h-213v287h-71v110h71v270h213zM287 127q107 0 160 55.5t53 150.5q0 96 -53 151.5t-160 55.5h-77v-143h154v-110h-154v-160h77z" />
    <glyph glyph-name="dcroat" unicode="&#x111;" horiz-adv-x="579" 
d="M569 651v-94h-53v-557h-119v67q-56 -78 -151 -78t-155 70t-60 181q0 112 60 181.5t155 69.5q88 0 143 -68v134h-153v94h153v51h127v-51h53zM277 109q52 0 82 35t30 96t-30 96t-82 35q-53 0 -86 -36t-33 -95q0 -58 33 -94.5t86 -36.5z" />
    <glyph glyph-name="Emacron" unicode="&#x112;" horiz-adv-x="572" 
d="M154 817h296v-92h-296v92zM530 540h-320v-134h250v-128h-250v-151h320v-127h-456v667h456v-127z" />
    <glyph glyph-name="emacron" unicode="&#x113;" horiz-adv-x="525" 
d="M409 679v-93h-296v93h296zM491 249q0 -30 -4 -49h-327q24 -95 138 -95q75 0 143 39l35 -106q-74 -49 -184 -49q-117 0 -189 67.5t-72 183.5q0 112 64.5 181.5t166.5 69.5q101 0 165 -67t64 -175zM264 382q-40 0 -68 -24t-37 -66h206q-6 42 -32.5 66t-68.5 24z" />
    <glyph glyph-name="Ebreve" unicode="&#x114;" horiz-adv-x="572" 
d="M361 865h91q0 -69 -42 -113t-108 -44t-108.5 44.5t-42.5 112.5h92q0 -28 16.5 -44.5t42.5 -16.5t42.5 17t16.5 44zM530 540h-320v-134h250v-128h-250v-151h320v-127h-456v667h456v-127z" />
    <glyph glyph-name="ebreve" unicode="&#x115;" horiz-adv-x="525" 
d="M261 548q-66 0 -108.5 44.5t-42.5 112.5h92q0 -28 16.5 -44.5t42.5 -16.5t42.5 17t16.5 44h91q0 -69 -42 -113t-108 -44zM491 249q0 -30 -4 -49h-327q24 -95 138 -95q75 0 143 39l35 -106q-74 -49 -184 -49q-117 0 -189 67.5t-72 183.5q0 112 64.5 181.5t166.5 69.5
q101 0 165 -67t64 -175zM264 382q-40 0 -68 -24t-37 -66h206q-6 42 -32.5 66t-68.5 24z" />
    <glyph glyph-name="Edotaccent" unicode="&#x116;" horiz-adv-x="572" 
d="M301 706q-34 0 -55.5 20.5t-21.5 52.5q0 33 21.5 53.5t55.5 20.5q35 0 56.5 -20.5t21.5 -53.5q0 -32 -21.5 -52.5t-56.5 -20.5zM530 540h-320v-134h250v-128h-250v-151h320v-127h-456v667h456v-127z" />
    <glyph glyph-name="edotaccent" unicode="&#x117;" horiz-adv-x="525" 
d="M261 560q-34 0 -55.5 20.5t-21.5 52.5q0 33 21.5 53.5t55.5 20.5q35 0 56.5 -20.5t21.5 -53.5q0 -32 -21.5 -52.5t-56.5 -20.5zM491 249q0 -30 -4 -49h-327q24 -95 138 -95q75 0 143 39l35 -106q-74 -49 -184 -49q-117 0 -189 67.5t-72 183.5q0 112 64.5 181.5
t166.5 69.5q101 0 165 -67t64 -175zM264 382q-40 0 -68 -24t-37 -66h206q-6 42 -32.5 66t-68.5 24z" />
    <glyph glyph-name="Eogonek" unicode="&#x118;" horiz-adv-x="572" 
d="M514 -90l17 -73q-37 -21 -83 -21q-39 0 -62.5 19.5t-23.5 52.5q0 55 65 112h-353v667h456v-127h-320v-134h250v-128h-250v-151h320v-127h-18q-57 -50 -57 -75q0 -24 26 -24q15 0 33 9z" />
    <glyph glyph-name="eogonek" unicode="&#x119;" horiz-adv-x="525" 
d="M491 249q0 -30 -4 -49h-327q24 -95 138 -95q76 0 143 40l35 -107q-62 -52 -84 -74.5t-22 -40.5q0 -24 27 -24q14 0 32 9l17 -73q-36 -21 -83 -21q-39 0 -62.5 19.5t-23.5 52.5q0 52 68 107q-23 -4 -53 -4q-117 0 -189 67.5t-72 183.5q0 112 64.5 181.5t166.5 69.5
q101 0 165 -67t64 -175zM264 382q-40 0 -68 -24t-37 -66h206q-6 42 -32.5 66t-68.5 24z" />
    <glyph glyph-name="Ecaron" unicode="&#x11a;" horiz-adv-x="572" 
d="M230 712l-98 155h116l54 -78l54 78h116l-98 -155h-144zM530 540h-320v-134h250v-128h-250v-151h320v-127h-456v667h456v-127z" />
    <glyph glyph-name="ecaron" unicode="&#x11b;" horiz-adv-x="525" 
d="M189 552l-98 155h116l54 -78l54 78h116l-98 -155h-144zM491 249q0 -30 -4 -49h-327q24 -95 138 -95q75 0 143 39l35 -106q-74 -49 -184 -49q-117 0 -189 67.5t-72 183.5q0 112 64.5 181.5t166.5 69.5q101 0 165 -67t64 -175zM264 382q-40 0 -68 -24t-37 -66h206
q-6 42 -32.5 66t-68.5 24z" />
    <glyph glyph-name="Gcircumflex" unicode="&#x11c;" horiz-adv-x="664" 
d="M358 790l-54 -78h-116l98 155h144l98 -155h-116zM355 384h256v-316q-83 -80 -237 -80q-150 0 -243.5 94.5t-93.5 250.5t93.5 251t243.5 95q132 0 217 -63l-37 -122q-75 58 -174 58q-94 0 -150.5 -59.5t-56.5 -159.5t56.5 -159t150.5 -59q50 0 95 18v123h-120v128z" />
    <glyph glyph-name="gcircumflex" unicode="&#x11d;" horiz-adv-x="579" 
d="M288 630l-54 -78h-116l98 155h144l98 -155h-116zM397 481h119v-427q0 -113 -68.5 -175.5t-192.5 -62.5q-105 0 -194 46l33 110q70 -40 154 -40q141 0 141 130v19q-56 -68 -143 -68q-95 0 -155 66.5t-60 172.5t60 172.5t155 66.5t151 -78v68zM277 129q52 0 82 32.5
t30 90.5t-30 90.5t-82 32.5q-53 0 -86 -34t-33 -89q0 -54 33 -88.5t86 -34.5z" />
    <glyph glyph-name="Gbreve" unicode="&#x11e;" horiz-adv-x="664" 
d="M358 708q-66 0 -108.5 44.5t-42.5 112.5h92q0 -28 16.5 -44.5t42.5 -16.5t42.5 17t16.5 44h91q0 -69 -42 -113t-108 -44zM355 384h256v-316q-83 -80 -237 -80q-150 0 -243.5 94.5t-93.5 250.5t93.5 251t243.5 95q132 0 217 -63l-37 -122q-75 58 -174 58
q-94 0 -150.5 -59.5t-56.5 -159.5t56.5 -159t150.5 -59q50 0 95 18v123h-120v128z" />
    <glyph glyph-name="gbreve" unicode="&#x11f;" horiz-adv-x="579" 
d="M288 548q-66 0 -108.5 44.5t-42.5 112.5h92q0 -28 16.5 -44.5t42.5 -16.5t42.5 17t16.5 44h91q0 -69 -42 -113t-108 -44zM397 481h119v-427q0 -113 -68.5 -175.5t-192.5 -62.5q-105 0 -194 46l33 110q70 -40 154 -40q141 0 141 130v19q-56 -68 -143 -68q-95 0 -155 66.5
t-60 172.5t60 172.5t155 66.5t151 -78v68zM277 129q52 0 82 32.5t30 90.5t-30 90.5t-82 32.5q-53 0 -86 -34t-33 -89q0 -54 33 -88.5t86 -34.5z" />
    <glyph glyph-name="Gdotaccent" unicode="&#x120;" horiz-adv-x="664" 
d="M357 706q-34 0 -55.5 20.5t-21.5 52.5q0 33 21.5 53.5t55.5 20.5q35 0 56.5 -20.5t21.5 -53.5q0 -32 -21.5 -52.5t-56.5 -20.5zM355 384h256v-316q-83 -80 -237 -80q-150 0 -243.5 94.5t-93.5 250.5t93.5 251t243.5 95q132 0 217 -63l-37 -122q-75 58 -174 58
q-94 0 -150.5 -59.5t-56.5 -159.5t56.5 -159t150.5 -59q50 0 95 18v123h-120v128z" />
    <glyph glyph-name="gdotaccent" unicode="&#x121;" horiz-adv-x="579" 
d="M288 560q-34 0 -55.5 20.5t-21.5 52.5q0 33 21.5 53.5t55.5 20.5q35 0 56.5 -20.5t21.5 -53.5q0 -32 -21.5 -52.5t-56.5 -20.5zM397 481h119v-427q0 -113 -68.5 -175.5t-192.5 -62.5q-105 0 -194 46l33 110q70 -40 154 -40q141 0 141 130v19q-56 -68 -143 -68
q-95 0 -155 66.5t-60 172.5t60 172.5t155 66.5t151 -78v68zM277 129q52 0 82 32.5t30 90.5t-30 90.5t-82 32.5q-53 0 -86 -34t-33 -89q0 -54 33 -88.5t86 -34.5z" />
    <glyph glyph-name="uni0122" unicode="&#x122;" horiz-adv-x="664" 
d="M355 384h256v-316q-83 -80 -237 -80q-150 0 -243.5 94.5t-93.5 250.5t93.5 251t243.5 95q132 0 217 -63l-37 -122q-75 58 -174 58q-94 0 -150.5 -59.5t-56.5 -159.5t56.5 -159t150.5 -59q50 0 95 18v123h-120v128zM263 -175l35 118h141l-61 -118h-115z" />
    <glyph glyph-name="uni0123" unicode="&#x123;" horiz-adv-x="579" 
d="M384 707l-51 -156h-142l78 156h115zM397 481h119v-427q0 -113 -68.5 -175.5t-192.5 -62.5q-105 0 -194 46l33 110q70 -40 154 -40q141 0 141 130v19q-56 -68 -143 -68q-95 0 -155 66.5t-60 172.5t60 172.5t155 66.5t151 -78v68zM277 129q52 0 82 32.5t30 90.5t-30 90.5
t-82 32.5q-53 0 -86 -34t-33 -89q0 -54 33 -88.5t86 -34.5z" />
    <glyph glyph-name="Hcircumflex" unicode="&#x124;" horiz-adv-x="706" 
d="M353 790l-54 -78h-116l98 155h144l98 -155h-116zM496 667h136v-667h-136v278h-286v-278h-136v667h136v-261h286v261z" />
    <glyph glyph-name="hcircumflex" unicode="&#x125;" horiz-adv-x="563" 
d="M282 825l-54 -78h-116l98 155h144l98 -155h-116zM332 491q85 0 131.5 -55t46.5 -154v-282h-127v255q0 116 -93 116q-47 0 -73.5 -29.5t-26.5 -83.5v-258h-127v702h127v-283q47 72 142 72z" />
    <glyph glyph-name="Hbar" unicode="&#x126;" horiz-adv-x="706" 
d="M691 597v-94h-59v-503h-136v278h-286v-278h-136v503h-59v94h59v70h136v-70h286v70h136v-70h59zM496 406v97h-286v-97h286z" />
    <glyph glyph-name="hbar" unicode="&#x127;" horiz-adv-x="563" 
d="M332 491q85 0 131.5 -55t46.5 -154v-282h-127v255q0 116 -93 116q-47 0 -73.5 -29.5t-26.5 -83.5v-258h-127v557h-50v94h50v51h127v-51h156v-94h-156v-138q47 72 142 72z" />
    <glyph glyph-name="Itilde" unicode="&#x128;" horiz-adv-x="284" 
d="M-39 708q0 70 30 114t84 44q36 0 72.5 -26.5t50.5 -26.5q35 0 35 53h89q0 -71 -29.5 -114.5t-83.5 -43.5q-36 0 -73 26t-51 26q-16 0 -25.5 -14.5t-9.5 -37.5h-89zM74 667h136v-667h-136v667z" />
    <glyph glyph-name="itilde" unicode="&#x129;" horiz-adv-x="253" 
d="M-27 548q0 71 25 114.5t71 43.5q27 0 47 -13t33 -26.5t23 -13.5q25 0 25 53h81q0 -71 -25 -114.5t-71 -43.5q-27 0 -47 13t-33 26t-23 13q-25 0 -25 -52h-81zM63 481h127v-481h-127v481z" />
    <glyph glyph-name="Imacron" unicode="&#x12a;" horiz-adv-x="284" 
d="M-6 817h296v-92h-296v92zM74 667h136v-667h-136v667z" />
    <glyph glyph-name="imacron" unicode="&#x12b;" horiz-adv-x="253" 
d="M-10 679h273v-93h-273v93zM63 481h127v-481h-127v481z" />
    <glyph glyph-name="Ibreve" unicode="&#x12c;" horiz-adv-x="284" 
d="M201 865h91q0 -69 -42 -113t-108 -44t-108.5 44.5t-42.5 112.5h92q0 -28 16.5 -44.5t42.5 -16.5t42.5 17t16.5 44zM74 667h136v-667h-136v667z" />
    <glyph glyph-name="ibreve" unicode="&#x12d;" horiz-adv-x="253" 
d="M185 705h91q0 -69 -42 -113t-108 -44t-108.5 44.5t-42.5 112.5h92q0 -28 16.5 -44.5t42.5 -16.5t42.5 17t16.5 44zM63 481h127v-481h-127v481z" />
    <glyph glyph-name="Iogonek" unicode="&#x12e;" horiz-adv-x="284" 
d="M212 -90l17 -73q-37 -21 -83 -21q-39 0 -62.5 19.5t-23.5 52.5q0 55 65 112h-51v667h136v-667q-57 -50 -57 -75q0 -24 26 -24q15 0 33 9z" />
    <glyph glyph-name="iogonek" unicode="&#x12f;" horiz-adv-x="253" 
d="M126 560q-34 0 -55.5 20.5t-21.5 52.5q0 33 21.5 53.5t55.5 20.5q35 0 56.5 -20.5t21.5 -53.5q0 -32 -21.5 -52.5t-56.5 -20.5zM192 -90l17 -73q-37 -21 -83 -21q-39 0 -62.5 19.5t-23.5 52.5q0 55 65 112h-42v481h127v-481q-57 -50 -57 -75q0 -24 26 -24q15 0 33 9z" />
    <glyph glyph-name="Idotaccent" unicode="&#x130;" horiz-adv-x="284" 
d="M141 706q-34 0 -55.5 20.5t-21.5 52.5q0 33 21.5 53.5t55.5 20.5q35 0 56.5 -20.5t21.5 -53.5q0 -32 -21.5 -52.5t-56.5 -20.5zM74 667h136v-667h-136v667z" />
    <glyph glyph-name="dotlessi" unicode="&#x131;" horiz-adv-x="253" 
d="M63 481h127v-481h-127v481z" />
    <glyph glyph-name="IJ" unicode="&#x132;" horiz-adv-x="670" 
d="M74 667h136v-667h-136v667zM392 -10q-57 0 -101 14l21 123q27 -9 62 -9q47 0 69.5 22t22.5 71v456h136v-474q0 -98 -55 -150.5t-155 -52.5z" />
    <glyph glyph-name="ij" unicode="&#x133;" horiz-adv-x="506" 
d="M126 560q-34 0 -55.5 20.5t-21.5 52.5q0 33 21.5 53.5t55.5 20.5q35 0 56.5 -20.5t21.5 -53.5q0 -32 -21.5 -52.5t-56.5 -20.5zM379 560q-34 0 -55.5 20.5t-21.5 52.5q0 33 21.5 53.5t55.5 20.5q35 0 56.5 -20.5t21.5 -53.5q0 -32 -21.5 -52.5t-56.5 -20.5zM63 481h127
v-481h-127v481zM215 -173l9 112q12 -2 21 -2q71 0 71 87v457h127v-467q0 -93 -44.5 -143t-128.5 -50q-32 0 -55 6z" />
    <glyph glyph-name="Jcircumflex" unicode="&#x134;" horiz-adv-x="386" 
d="M250 790l-54 -78h-116l98 155h144l98 -155h-116zM182 211v456h136v-474q0 -98 -55 -150.5t-155 -52.5q-57 0 -101 14l21 123q27 -9 62 -9q47 0 69.5 22t22.5 71z" />
    <glyph glyph-name="jcircumflex" unicode="&#x135;" horiz-adv-x="253" 
d="M126 630l-54 -78h-116l98 155h144l98 -155h-116zM63 24v457h127v-467q0 -93 -44.5 -143t-128.5 -50q-32 0 -55 6l9 112q12 -2 21 -2q71 0 71 87z" />
    <glyph glyph-name="uni0136" unicode="&#x136;" horiz-adv-x="689" 
d="M378 371l302 -371h-173l-219 278l-78 -81v-197h-136v667h136v-292l276 292h178zM238 -175l35 118h141l-61 -118h-115z" />
    <glyph glyph-name="uni0137" unicode="&#x137;" horiz-adv-x="544" 
d="M330 271l211 -271h-161l-136 181l-54 -56v-125h-127v702h127v-420l185 199h158zM172 -175l35 118h141l-61 -118h-115z" />
    <glyph glyph-name="kgreenlandic" unicode="&#x138;" horiz-adv-x="544" 
d="M380 0l-136 181l-54 -56v-125h-127v481h127v-199l185 199h158l-203 -210l211 -271h-161z" />
    <glyph glyph-name="Lacute" unicode="&#x139;" horiz-adv-x="507" 
d="M99 712l100 155h143l-123 -155h-120zM74 0v667h136v-540h282v-127h-418z" />
    <glyph glyph-name="lacute" unicode="&#x13a;" horiz-adv-x="289" 
d="M50 747l100 155h143l-123 -155h-120zM63 702h127v-538q0 -53 46 -53q17 0 33 7l13 -110q-31 -13 -85 -13q-69 0 -101.5 34.5t-32.5 111.5v561z" />
    <glyph glyph-name="uni013B" unicode="&#x13b;" horiz-adv-x="507" 
d="M74 0v667h136v-540h282v-127h-418zM188 -175l35 118h141l-61 -118h-115z" />
    <glyph glyph-name="uni013C" unicode="&#x13c;" horiz-adv-x="289" 
d="M63 702h127v-538q0 -53 46 -53q17 0 33 7l13 -110q-31 -13 -85 -13q-69 0 -101.5 34.5t-32.5 111.5v561zM47 -175l35 118h141l-61 -118h-115z" />
    <glyph glyph-name="Lcaron" unicode="&#x13d;" horiz-adv-x="507" 
d="M74 0v667h136v-540h282v-127h-418zM252 491l20 176h125l-64 -176h-81z" />
    <glyph glyph-name="lcaron" unicode="&#x13e;" horiz-adv-x="313" 
d="M63 702h127v-538q0 -53 46 -53q17 0 33 7l13 -110q-31 -13 -85 -13q-69 0 -101.5 34.5t-32.5 111.5v561zM212 526l20 176h125l-64 -176h-81z" />
    <glyph glyph-name="Ldot" unicode="&#x13f;" horiz-adv-x="547" 
d="M74 0v667h136v-540h282v-127h-418zM445 295q-38 0 -62.5 24.5t-24.5 62.5t24.5 62.5t62.5 24.5t62.5 -24.5t24.5 -62.5t-25 -62.5t-62 -24.5z" />
    <glyph glyph-name="ldot" unicode="&#x140;" horiz-adv-x="404" 
d="M63 702h127v-538q0 -53 46 -53q17 0 33 7l13 -110q-31 -13 -85 -13q-69 0 -101.5 34.5t-32.5 111.5v561zM338 273q-38 0 -62.5 24.5t-24.5 62.5t24.5 62.5t62.5 24.5t62.5 -24.5t24.5 -62.5t-24.5 -62.5t-62.5 -24.5z" />
    <glyph glyph-name="Lslash" unicode="&#x141;" horiz-adv-x="507" 
d="M210 127h282v-127h-418v246l-69 -40v121l69 40v300h136v-221l152 88v-122l-152 -88v-197z" />
    <glyph glyph-name="lslash" unicode="&#x142;" horiz-adv-x="289" 
d="M269 118l13 -110q-31 -13 -85 -13q-69 0 -101.5 34.5t-32.5 111.5v143l-56 -32v122l56 32v296h127v-222l74 43v-122l-74 -43v-194q0 -53 46 -53q17 0 33 7z" />
    <glyph glyph-name="Nacute" unicode="&#x143;" horiz-adv-x="761" 
d="M532 867l-123 -155h-120l100 155h143zM551 667h136v-667h-181l-296 490v-490h-136v667h181l296 -490v490z" />
    <glyph glyph-name="nacute" unicode="&#x144;" horiz-adv-x="563" 
d="M423 707l-123 -155h-120l100 155h143zM332 491q85 0 131.5 -55t46.5 -154v-282h-127v255q0 116 -93 116q-47 0 -73.5 -29.5t-26.5 -83.5v-258h-127v481h119v-75q45 85 150 85z" />
    <glyph glyph-name="uni0145" unicode="&#x145;" horiz-adv-x="761" 
d="M551 667h136v-667h-181l-296 490v-490h-136v667h181l296 -490v490zM286 -175l35 118h141l-61 -118h-115z" />
    <glyph glyph-name="uni0146" unicode="&#x146;" horiz-adv-x="563" 
d="M332 491q85 0 131.5 -55t46.5 -154v-282h-127v255q0 116 -93 116q-47 0 -73.5 -29.5t-26.5 -83.5v-258h-127v481h119v-75q45 85 150 85zM187 -175l35 118h141l-61 -118h-115z" />
    <glyph glyph-name="Ncaron" unicode="&#x147;" horiz-adv-x="761" 
d="M309 712l-98 155h116l54 -78l54 78h116l-98 -155h-144zM551 667h136v-667h-181l-296 490v-490h-136v667h181l296 -490v490z" />
    <glyph glyph-name="ncaron" unicode="&#x148;" horiz-adv-x="563" 
d="M210 552l-98 155h116l54 -78l54 78h116l-98 -155h-144zM332 491q85 0 131.5 -55t46.5 -154v-282h-127v255q0 116 -93 116q-47 0 -73.5 -29.5t-26.5 -83.5v-258h-127v481h119v-75q45 85 150 85z" />
    <glyph glyph-name="napostrophe" unicode="&#x149;" horiz-adv-x="796" 
d="M21 413l90 264l131 -31l-118 -257zM565 491q85 0 131.5 -55t46.5 -154v-282h-127v255q0 116 -93 116q-47 0 -73.5 -29.5t-26.5 -83.5v-258h-127v481h119v-75q45 85 150 85z" />
    <glyph glyph-name="Eng" unicode="&#x14a;" horiz-adv-x="761" 
d="M551 667h136v-649q0 -99 -54.5 -151t-154.5 -52q-55 0 -102 13l22 123q32 -9 62 -9q81 0 90 72l-340 497v-511h-136v667h181l296 -433v433z" />
    <glyph glyph-name="eng" unicode="&#x14b;" horiz-adv-x="563" 
d="M332 491q85 0 131.5 -55t46.5 -154v-268q0 -93 -44.5 -143t-128.5 -50q-31 0 -54 6l9 112q10 -2 21 -2q35 0 52.5 20t17.5 67v231q0 116 -93 116q-47 0 -73.5 -29.5t-26.5 -83.5v-258h-127v481h119v-75q45 85 150 85z" />
    <glyph glyph-name="Omacron" unicode="&#x14c;" horiz-adv-x="753" 
d="M228 817h296v-92h-296v92zM376 -12q-151 0 -245 95.5t-94 249.5t94 250t245 96t245.5 -96t94.5 -250t-94 -249.5t-246 -95.5zM376 115q90 0 147 60.5t57 157.5t-57 158t-147 61t-146.5 -61t-56.5 -158t57 -157.5t146 -60.5z" />
    <glyph glyph-name="omacron" unicode="&#x14d;" horiz-adv-x="550" 
d="M127 679h296v-93h-296v93zM275 -11q-108 0 -176 70t-68 181q0 112 68 181.5t176 69.5q109 0 176 -69.5t67 -181.5q0 -111 -67.5 -181t-175.5 -70zM275 109q51 0 83.5 36.5t32.5 94.5t-32.5 94.5t-83.5 36.5q-52 0 -84.5 -36.5t-32.5 -94.5t32.5 -94.5t84.5 -36.5z" />
    <glyph glyph-name="Obreve" unicode="&#x14e;" horiz-adv-x="753" 
d="M435 865h91q0 -69 -42 -113t-108 -44t-108.5 44.5t-42.5 112.5h92q0 -28 16.5 -44.5t42.5 -16.5t42.5 17t16.5 44zM376 -12q-151 0 -245 95.5t-94 249.5t94 250t245 96t245.5 -96t94.5 -250t-94 -249.5t-246 -95.5zM376 115q90 0 147 60.5t57 157.5t-57 158t-147 61
t-146.5 -61t-56.5 -158t57 -157.5t146 -60.5z" />
    <glyph glyph-name="obreve" unicode="&#x14f;" horiz-adv-x="550" 
d="M334 705h91q0 -69 -42 -113t-108 -44t-108.5 44.5t-42.5 112.5h92q0 -28 16.5 -44.5t42.5 -16.5t42.5 17t16.5 44zM275 -11q-108 0 -176 70t-68 181q0 112 68 181.5t176 69.5q109 0 176 -69.5t67 -181.5q0 -111 -67.5 -181t-175.5 -70zM275 109q51 0 83.5 36.5t32.5 94.5
t-32.5 94.5t-83.5 36.5q-52 0 -84.5 -36.5t-32.5 -94.5t32.5 -94.5t84.5 -36.5z" />
    <glyph glyph-name="Ohungarumlaut" unicode="&#x150;" horiz-adv-x="753" 
d="M194 712l100 155h139l-123 -155h-116zM380 712l100 155h139l-123 -155h-116zM376 -12q-151 0 -245 95.5t-94 249.5t94 250t245 96t245.5 -96t94.5 -250t-94 -249.5t-246 -95.5zM376 115q90 0 147 60.5t57 157.5t-57 158t-147 61t-146.5 -61t-56.5 -158t57 -157.5
t146 -60.5z" />
    <glyph glyph-name="ohungarumlaut" unicode="&#x151;" horiz-adv-x="550" 
d="M93 552l100 155h139l-123 -155h-116zM279 552l100 155h139l-123 -155h-116zM275 -11q-108 0 -176 70t-68 181q0 112 68 181.5t176 69.5q109 0 176 -69.5t67 -181.5q0 -111 -67.5 -181t-175.5 -70zM275 109q51 0 83.5 36.5t32.5 94.5t-32.5 94.5t-83.5 36.5
q-52 0 -84.5 -36.5t-32.5 -94.5t32.5 -94.5t84.5 -36.5z" />
    <glyph glyph-name="OE" unicode="&#x152;" horiz-adv-x="904" 
d="M385 0q-167 0 -257.5 90.5t-90.5 242.5t90.5 243t257.5 91h477v-127h-290v-134h220v-128h-220v-151h290v-127h-477zM385 127h50v413h-50q-106 0 -159 -55.5t-53 -151.5q0 -95 53 -150.5t159 -55.5z" />
    <glyph glyph-name="oe" unicode="&#x153;" horiz-adv-x="850" 
d="M815 249q0 -30 -4 -49h-311q24 -95 130 -95q71 0 136 39l35 -106q-72 -49 -177 -49q-126 0 -187 84q-59 -84 -171 -84q-104 0 -169.5 70t-65.5 181q0 112 65.5 181.5t169.5 69.5q110 0 169 -81q54 81 160 81q98 0 159 -67t61 -175zM597 382q-37 0 -63 -24t-35 -66h190
q-5 42 -29.5 66t-62.5 24zM266 109q47 0 77 36.5t30 94.5t-30 94.5t-77 36.5q-48 0 -78 -36.5t-30 -94.5t30 -94.5t78 -36.5z" />
    <glyph glyph-name="Racute" unicode="&#x154;" horiz-adv-x="645" 
d="M470 867l-123 -155h-120l100 155h143zM452 0l-160 234h-82v-234h-136v667h280q111 0 175.5 -59.5t64.5 -157.5q0 -75 -39 -128.5t-110 -74.5l172 -247h-165zM210 540v-187h144q49 0 76.5 25.5t27.5 67.5q0 43 -27.5 68.5t-76.5 25.5h-144z" />
    <glyph glyph-name="racute" unicode="&#x155;" horiz-adv-x="375" 
d="M357 707l-123 -155h-120l100 155h143zM306 488q32 0 62 -12l-18 -125q-24 9 -51 9q-51 0 -80 -34t-29 -101v-225h-127v481h119v-86q37 93 124 93z" />
    <glyph glyph-name="uni0156" unicode="&#x156;" horiz-adv-x="645" 
d="M445 247l172 -247h-165l-160 234h-82v-234h-136v667h280q111 0 175.5 -59.5t64.5 -157.5q0 -75 -39 -128.5t-110 -74.5zM210 540v-187h144q49 0 76.5 25.5t27.5 67.5q0 43 -27.5 68.5t-76.5 25.5h-144zM224 -175l35 118h141l-61 -118h-115z" />
    <glyph glyph-name="uni0157" unicode="&#x157;" horiz-adv-x="375" 
d="M306 488q32 0 62 -12l-18 -125q-24 9 -51 9q-51 0 -80 -34t-29 -101v-225h-127v481h119v-86q37 93 124 93zM31 -175l35 118h141l-61 -118h-115z" />
    <glyph glyph-name="Rcaron" unicode="&#x158;" horiz-adv-x="645" 
d="M247 712l-98 155h116l54 -78l54 78h116l-98 -155h-144zM452 0l-160 234h-82v-234h-136v667h280q111 0 175.5 -59.5t64.5 -157.5q0 -75 -39 -128.5t-110 -74.5l172 -247h-165zM210 540v-187h144q49 0 76.5 25.5t27.5 67.5q0 43 -27.5 68.5t-76.5 25.5h-144z" />
    <glyph glyph-name="rcaron" unicode="&#x159;" horiz-adv-x="375" 
d="M144 552l-98 155h116l54 -78l54 78h116l-98 -155h-144zM182 395q37 93 124 93q32 0 62 -12l-18 -125q-24 9 -51 9q-51 0 -80 -34t-29 -101v-225h-127v481h119v-86z" />
    <glyph glyph-name="Sacute" unicode="&#x15a;" horiz-adv-x="576" 
d="M196 712l100 155h143l-123 -155h-120zM51 35l31 125q83 -46 179 -46q64 0 102 21t38 55q0 26 -25.5 44t-64 28t-83 26.5t-83 36.5t-64 60t-25.5 96q0 93 64.5 145t179.5 52q126 0 207 -46l-31 -125q-78 45 -170 45q-57 0 -85.5 -18.5t-28.5 -49.5q0 -29 25.5 -49t64 -30
t83 -26t83 -34t64 -56.5t25.5 -92.5q0 -98 -73 -153t-199 -55q-128 0 -214 47z" />
    <glyph glyph-name="sacute" unicode="&#x15b;" horiz-adv-x="430" 
d="M113 552l100 155h143l-123 -155h-120zM24 26l30 113q63 -37 137 -37q37 0 59.5 11.5t22.5 29.5q0 15 -17.5 25t-44.5 15.5t-57.5 16.5t-57.5 25.5t-44.5 44.5t-17.5 72q0 71 49.5 110t137.5 39q92 0 160 -34l-33 -109q-60 30 -123 30q-64 0 -64 -35q0 -19 24.5 -30
t59.5 -19.5t70.5 -21.5t60 -44.5t24.5 -80.5q0 -74 -56 -115.5t-153 -41.5q-95 0 -167 36z" />
    <glyph glyph-name="Scircumflex" unicode="&#x15c;" horiz-adv-x="576" 
d="M288 790l-54 -78h-116l98 155h144l98 -155h-116zM192 484q0 -29 25.5 -49t64 -30t83 -26t83 -34t64 -56.5t25.5 -92.5q0 -98 -73 -153t-199 -55q-128 0 -214 47l31 125q83 -46 179 -46q64 0 102 21t38 55q0 26 -25.5 44t-64 28t-83 26.5t-83 36.5t-64 60t-25.5 96
q0 93 64.5 145t179.5 52q126 0 207 -46l-31 -125q-78 45 -170 45q-57 0 -85.5 -18.5t-28.5 -49.5z" />
    <glyph glyph-name="scircumflex" unicode="&#x15d;" horiz-adv-x="430" 
d="M215 630l-54 -78h-116l98 155h144l98 -155h-116zM161 343q0 -19 24.5 -30t59.5 -19.5t70.5 -21.5t60 -44.5t24.5 -80.5q0 -74 -56 -115.5t-153 -41.5q-95 0 -167 36l30 113q63 -37 137 -37q37 0 59.5 11.5t22.5 29.5q0 15 -17.5 25t-44.5 15.5t-57.5 16.5t-57.5 25.5
t-44.5 44.5t-17.5 72q0 71 49.5 110t137.5 39q92 0 160 -34l-33 -109q-60 30 -123 30q-64 0 -64 -35z" />
    <glyph glyph-name="Scedilla" unicode="&#x15e;" horiz-adv-x="576" 
d="M537 196q0 -87 -58 -140.5t-161 -64.5l-6 -26q37 -2 58.5 -21.5t21.5 -51.5q0 -36 -28 -57t-76 -21q-42 0 -72 15l15 60q19 -11 42 -11q33 0 33 19q0 17 -26 17q-12 0 -21 -3l-21 6l16 71q-120 1 -203 47l31 125q83 -46 179 -46q64 0 102 21t38 55q0 26 -25.5 44t-64 28
t-83 26.5t-83 36.5t-64 60t-25.5 96q0 93 64.5 145t179.5 52q126 0 207 -46l-31 -125q-78 45 -170 45q-57 0 -85.5 -18.5t-28.5 -49.5q0 -29 25.5 -49t64 -30t83 -26t83 -34t64 -56.5t25.5 -92.5z" />
    <glyph glyph-name="scedilla" unicode="&#x15f;" horiz-adv-x="430" 
d="M400 147q0 -65 -44 -105t-121 -49l-6 -28q37 -2 58.5 -21.5t21.5 -51.5q0 -36 -28 -57t-76 -21q-42 0 -72 15l15 60q19 -11 42 -11q33 0 33 19q0 17 -26 17q-12 0 -21 -3l-21 6l17 73q-85 4 -148 36l30 113q63 -37 137 -37q37 0 59.5 11.5t22.5 29.5q0 15 -17.5 25
t-44.5 15.5t-57.5 16.5t-57.5 25.5t-44.5 44.5t-17.5 72q0 71 49.5 110t137.5 39q92 0 160 -34l-33 -109q-60 30 -123 30q-64 0 -64 -35q0 -19 24.5 -30t59.5 -19.5t70.5 -21.5t60 -44.5t24.5 -80.5z" />
    <glyph glyph-name="Scaron" unicode="&#x160;" horiz-adv-x="576" 
d="M216 712l-98 155h116l54 -78l54 78h116l-98 -155h-144zM192 484q0 -29 25.5 -49t64 -30t83 -26t83 -34t64 -56.5t25.5 -92.5q0 -98 -73 -153t-199 -55q-128 0 -214 47l31 125q83 -46 179 -46q64 0 102 21t38 55q0 26 -25.5 44t-64 28t-83 26.5t-83 36.5t-64 60t-25.5 96
q0 93 64.5 145t179.5 52q126 0 207 -46l-31 -125q-78 45 -170 45q-57 0 -85.5 -18.5t-28.5 -49.5z" />
    <glyph glyph-name="scaron" unicode="&#x161;" horiz-adv-x="430" 
d="M143 552l-98 155h116l54 -78l54 78h116l-98 -155h-144zM161 343q0 -19 24.5 -30t59.5 -19.5t70.5 -21.5t60 -44.5t24.5 -80.5q0 -74 -56 -115.5t-153 -41.5q-95 0 -167 36l30 113q63 -37 137 -37q37 0 59.5 11.5t22.5 29.5q0 15 -17.5 25t-44.5 15.5t-57.5 16.5
t-57.5 25.5t-44.5 44.5t-17.5 72q0 71 49.5 110t137.5 39q92 0 160 -34l-33 -109q-60 30 -123 30q-64 0 -64 -35z" />
    <glyph glyph-name="uni0162" unicode="&#x162;" horiz-adv-x="568" 
d="M543 667v-127h-191v-540h-136v540h-191v127h518zM189 -175l35 118h141l-61 -118h-115z" />
    <glyph glyph-name="uni0163" unicode="&#x163;" horiz-adv-x="345" 
d="M225 -6q-75 0 -115 41.5t-40 118.5v210h-59v117h59v109l127 26v-135h125v-117h-125v-189q0 -64 60 -64q26 0 53 10l18 -109q-46 -18 -103 -18zM110 -175l35 118h141l-61 -118h-115z" />
    <glyph glyph-name="Tcaron" unicode="&#x164;" horiz-adv-x="568" 
d="M212 712l-98 155h116l54 -78l54 78h116l-98 -155h-144zM543 667v-127h-191v-540h-136v540h-191v127h518z" />
    <glyph glyph-name="tcaron" unicode="&#x165;" horiz-adv-x="345" 
d="M370 702l-64 -176h-81l20 176h125zM257 111q26 0 53 10l18 -109q-46 -18 -103 -18q-75 0 -115 41.5t-40 118.5v210h-59v117h59v109l127 26v-135h125v-117h-125v-189q0 -64 60 -64z" />
    <glyph glyph-name="Tbar" unicode="&#x166;" horiz-adv-x="568" 
d="M543 540h-191v-151h112v-110h-112v-279h-136v279h-113v110h113v151h-191v127h518v-127z" />
    <glyph glyph-name="tbar" unicode="&#x167;" horiz-adv-x="345" 
d="M310 121l18 -109q-46 -18 -103 -18q-75 0 -115 41.5t-40 118.5v52h-51v94h51v64h-59v117h59v109l127 26v-135h125v-117h-125v-64h99v-94h-99v-31q0 -64 60 -64q26 0 53 10z" />
    <glyph glyph-name="Utilde" unicode="&#x168;" horiz-adv-x="675" 
d="M157 708q0 70 30 114t84 44q36 0 72.5 -26.5t50.5 -26.5q35 0 35 53h89q0 -71 -29.5 -114.5t-83.5 -43.5q-36 0 -73 26t-51 26q-16 0 -25.5 -14.5t-9.5 -37.5h-89zM338 -12q-134 0 -206.5 76t-72.5 214v389h136v-376q0 -91 34.5 -133.5t108.5 -42.5q73 0 107.5 42.5
t34.5 133.5v376h136v-389q0 -138 -72.5 -214t-205.5 -76z" />
    <glyph glyph-name="utilde" unicode="&#x169;" horiz-adv-x="563" 
d="M224 600q-16 0 -25.5 -14.5t-9.5 -37.5h-89q0 70 30 114t84 44q36 0 72.5 -26.5t50.5 -26.5q35 0 35 53h89q0 -71 -29.5 -114.5t-83.5 -43.5q-36 0 -73 26t-51 26zM373 481h127v-481h-119v75q-46 -86 -151 -86q-84 0 -130.5 55t-46.5 154v283h127v-256q0 -116 93 -116
q47 0 73.5 29.5t26.5 83.5v259z" />
    <glyph glyph-name="Umacron" unicode="&#x16a;" horiz-adv-x="675" 
d="M190 817h296v-92h-296v92zM338 -12q-134 0 -206.5 76t-72.5 214v389h136v-376q0 -91 34.5 -133.5t108.5 -42.5q73 0 107.5 42.5t34.5 133.5v376h136v-389q0 -138 -72.5 -214t-205.5 -76z" />
    <glyph glyph-name="umacron" unicode="&#x16b;" horiz-adv-x="563" 
d="M429 679v-93h-296v93h296zM373 481h127v-481h-119v75q-46 -86 -151 -86q-84 0 -130.5 55t-46.5 154v283h127v-256q0 -116 93 -116q47 0 73.5 29.5t26.5 83.5v259z" />
    <glyph glyph-name="Ubreve" unicode="&#x16c;" horiz-adv-x="675" 
d="M397 865h91q0 -69 -42 -113t-108 -44t-108.5 44.5t-42.5 112.5h92q0 -28 16.5 -44.5t42.5 -16.5t42.5 17t16.5 44zM338 -12q-134 0 -206.5 76t-72.5 214v389h136v-376q0 -91 34.5 -133.5t108.5 -42.5q73 0 107.5 42.5t34.5 133.5v376h136v-389q0 -138 -72.5 -214
t-205.5 -76z" />
    <glyph glyph-name="ubreve" unicode="&#x16d;" horiz-adv-x="563" 
d="M281 548q-66 0 -108.5 44.5t-42.5 112.5h92q0 -28 16.5 -44.5t42.5 -16.5t42.5 17t16.5 44h91q0 -69 -42 -113t-108 -44zM373 481h127v-481h-119v75q-46 -86 -151 -86q-84 0 -130.5 55t-46.5 154v283h127v-256q0 -116 93 -116q47 0 73.5 29.5t26.5 83.5v259z" />
    <glyph glyph-name="Uring" unicode="&#x16e;" horiz-adv-x="675" 
d="M338 697q-44 0 -76.5 32t-32.5 76q0 45 32 77t77 32t76.5 -31.5t31.5 -77.5q0 -44 -31.5 -76t-76.5 -32zM338 755q20 0 35 15t15 35q0 21 -15 35.5t-35 14.5q-21 0 -36 -14.5t-15 -35.5q0 -20 15 -35t36 -15zM338 -12q-134 0 -206.5 76t-72.5 214v389h136v-376
q0 -91 34.5 -133.5t108.5 -42.5q73 0 107.5 42.5t34.5 133.5v376h136v-389q0 -138 -72.5 -214t-205.5 -76z" />
    <glyph glyph-name="uring" unicode="&#x16f;" horiz-adv-x="563" 
d="M281 537q-44 0 -76.5 32t-32.5 76q0 45 32 77t77 32t76.5 -31.5t31.5 -77.5q0 -44 -31.5 -76t-76.5 -32zM281 695q-21 0 -36 -14.5t-15 -35.5q0 -20 15 -35t36 -15q20 0 35 15t15 35q0 21 -15 35.5t-35 14.5zM373 481h127v-481h-119v75q-46 -86 -151 -86q-84 0 -130.5 55
t-46.5 154v283h127v-256q0 -116 93 -116q47 0 73.5 29.5t26.5 83.5v259z" />
    <glyph glyph-name="Uhungarumlaut" unicode="&#x170;" horiz-adv-x="675" 
d="M156 712l100 155h139l-123 -155h-116zM342 712l100 155h139l-123 -155h-116zM338 -12q-134 0 -206.5 76t-72.5 214v389h136v-376q0 -91 34.5 -133.5t108.5 -42.5q73 0 107.5 42.5t34.5 133.5v376h136v-389q0 -138 -72.5 -214t-205.5 -76z" />
    <glyph glyph-name="uhungarumlaut" unicode="&#x171;" horiz-adv-x="563" 
d="M338 707l-123 -155h-116l100 155h139zM401 552h-116l100 155h139zM373 222v259h127v-481h-119v75q-46 -86 -151 -86q-84 0 -130.5 55t-46.5 154v283h127v-256q0 -116 93 -116q47 0 73.5 29.5t26.5 83.5z" />
    <glyph glyph-name="Uogonek" unicode="&#x172;" horiz-adv-x="675" 
d="M480 667h136v-389q0 -151 -91 -249q-10 -12 -25.5 -28t-23 -24.5t-16 -19t-12 -18t-3.5 -14.5q0 -24 26 -24q15 0 33 9l17 -73q-37 -21 -83 -21q-40 0 -63 19t-23 53q0 53 61 107q-32 -7 -75 -7q-134 0 -206.5 76t-72.5 214v389h136v-376q0 -91 34.5 -133.5t108.5 -42.5
q73 0 107.5 42.5t34.5 133.5v376z" />
    <glyph glyph-name="uogonek" unicode="&#x173;" horiz-adv-x="563" 
d="M502 -90l17 -73q-37 -21 -83 -21q-39 0 -62.5 19.5t-23.5 52.5q0 55 65 112h-34v75q-46 -86 -151 -86q-84 0 -130.5 55t-46.5 154v283h127v-256q0 -116 93 -116q47 0 73.5 29.5t26.5 83.5v259h127v-481q-57 -50 -57 -75q0 -24 26 -24q15 0 33 9z" />
    <glyph glyph-name="Wcircumflex" unicode="&#x174;" horiz-adv-x="1017" 
d="M509 790l-54 -78h-116l98 155h144l98 -155h-116zM865 667h140l-201 -667h-168l-127 456l-128 -456h-168l-201 667h141l144 -502l140 502h143l141 -504z" />
    <glyph glyph-name="wcircumflex" unicode="&#x175;" horiz-adv-x="793" 
d="M396 630l-54 -78h-116l98 155h144l98 -155h-116zM656 481h128l-141 -481h-143l-103 313l-103 -313h-143l-142 481h129l88 -326l108 326h128l106 -326z" />
    <glyph glyph-name="Ycircumflex" unicode="&#x176;" horiz-adv-x="649" 
d="M321 790l-54 -78h-116l98 155h144l98 -155h-116zM490 667h169l-266 -388v-279h-136v278l-266 389h169l165 -256z" />
    <glyph glyph-name="ycircumflex" unicode="&#x177;" horiz-adv-x="523" 
d="M262 630l-54 -78h-116l98 155h144l98 -155h-116zM382 481h136l-196 -501q-35 -88 -82.5 -125.5t-122.5 -37.5q-38 0 -77 11l20 122q29 -8 55 -8q31 0 49.5 14t33.5 50l-193 475h135l123 -324z" />
    <glyph glyph-name="Ydieresis" unicode="&#x178;" horiz-adv-x="649" 
d="M222 709q-31 0 -51 19.5t-20 50.5t19.5 51t51.5 20q31 0 50.5 -20t19.5 -51t-19.5 -50.5t-50.5 -19.5zM420 709q-31 0 -50.5 19.5t-19.5 50.5q0 32 19.5 51.5t50.5 19.5t50.5 -20t19.5 -51t-19.5 -50.5t-50.5 -19.5zM257 0v278l-266 389h169l165 -256l165 256h169
l-266 -388v-279h-136z" />
    <glyph glyph-name="Zacute" unicode="&#x179;" horiz-adv-x="613" 
d="M458 868l-123 -155h-120l100 155h143zM227 128h345v-128h-532v108l332 432h-318v128h504v-107z" />
    <glyph glyph-name="zacute" unicode="&#x17a;" horiz-adv-x="466" 
d="M375 707l-123 -155h-120l100 155h143zM206 116h225v-116h-396v98l216 266h-206v117h376v-99z" />
    <glyph glyph-name="Zdotaccent" unicode="&#x17b;" horiz-adv-x="613" 
d="M306 707q-34 0 -55.5 20.5t-21.5 52.5q0 33 21.5 53.5t55.5 20.5q35 0 56.5 -20.5t21.5 -53.5q0 -32 -21.5 -52.5t-56.5 -20.5zM227 128h345v-128h-532v108l332 432h-318v128h504v-107z" />
    <glyph glyph-name="zdotaccent" unicode="&#x17c;" horiz-adv-x="466" 
d="M234 560q-34 0 -55.5 20.5t-21.5 52.5q0 33 21.5 53.5t55.5 20.5q35 0 56.5 -20.5t21.5 -53.5q0 -32 -21.5 -52.5t-56.5 -20.5zM206 116h225v-116h-396v98l216 266h-206v117h376v-99z" />
    <glyph glyph-name="Zcaron" unicode="&#x17d;" horiz-adv-x="613" 
d="M235 713l-98 155h116l54 -78l54 78h116l-98 -155h-144zM227 128h345v-128h-532v108l332 432h-318v128h504v-107z" />
    <glyph glyph-name="zcaron" unicode="&#x17e;" horiz-adv-x="466" 
d="M162 552l-98 155h116l54 -78l54 78h116l-98 -155h-144zM206 116h225v-116h-396v98l216 266h-206v117h376v-99z" />
    <glyph glyph-name="uni018F" unicode="&#x18f;" horiz-adv-x="697" 
d="M321 679q152 0 245.5 -93t93.5 -254q0 -153 -87 -248.5t-226 -95.5q-138 0 -224 92t-86 239q0 49 6 85h476q-19 73 -72 111.5t-131 38.5q-109 0 -199 -62l-39 115q99 72 243 72zM345 108q75 0 123 48t58 131h-357q3 -81 50.5 -130t125.5 -49z" />
    <glyph glyph-name="florin" unicode="&#x192;" horiz-adv-x="536" 
d="M433 551q-65 0 -75 -74l-3 -21h104v-117h-121l-24 -165q-13 -93 -60 -139.5t-121 -46.5q-71 0 -114 27l23 117q26 -16 61 -16q65 0 75 74l22 149h-100v117h117l5 37q13 93 60.5 139.5t120.5 46.5q71 0 114 -27l-23 -117q-26 16 -61 16z" />
    <glyph glyph-name="uni0218" unicode="&#x218;" horiz-adv-x="576" 
d="M51 35l31 125q83 -46 179 -46q64 0 102 21t38 55q0 26 -25.5 44t-64 28t-83 26.5t-83 36.5t-64 60t-25.5 96q0 93 64.5 145t179.5 52q126 0 207 -46l-31 -125q-78 45 -170 45q-57 0 -85.5 -18.5t-28.5 -49.5q0 -29 25.5 -49t64 -30t83 -26t83 -34t64 -56.5t25.5 -92.5
q0 -98 -73 -153t-199 -55q-128 0 -214 47zM193 -175l35 118h141l-61 -118h-115z" />
    <glyph glyph-name="uni0219" unicode="&#x219;" horiz-adv-x="430" 
d="M24 26l30 113q63 -37 137 -37q37 0 59.5 11.5t22.5 29.5q0 15 -17.5 25t-44.5 15.5t-57.5 16.5t-57.5 25.5t-44.5 44.5t-17.5 72q0 71 49.5 110t137.5 39q92 0 160 -34l-33 -109q-60 30 -123 30q-64 0 -64 -35q0 -19 24.5 -30t59.5 -19.5t70.5 -21.5t60 -44.5t24.5 -80.5
q0 -74 -56 -115.5t-153 -41.5q-95 0 -167 36zM110 -175l35 118h141l-61 -118h-115z" />
    <glyph glyph-name="uni021A" unicode="&#x21a;" horiz-adv-x="568" 
d="M543 667v-127h-191v-540h-136v540h-191v127h518zM189 -175l35 118h141l-61 -118h-115z" />
    <glyph glyph-name="uni021B" unicode="&#x21b;" horiz-adv-x="345" 
d="M225 -6q-75 0 -115 41.5t-40 118.5v210h-59v117h59v109l127 26v-135h125v-117h-125v-189q0 -64 60 -64q26 0 53 10l18 -109q-46 -18 -103 -18zM110 -175l35 118h141l-61 -118h-115z" />
    <glyph glyph-name="uni0237" unicode="&#x237;" horiz-adv-x="253" 
d="M-38 -173l9 112q12 -2 21 -2q71 0 71 87v457h127v-467q0 -93 -44.5 -143t-128.5 -50q-32 0 -55 6z" />
    <glyph glyph-name="uni0259" unicode="&#x259;" horiz-adv-x="525" 
d="M243 492q113 0 182 -68t69 -184q0 -111 -64 -181t-166 -70q-101 0 -165.5 67.5t-64.5 174.5q0 32 5 62h323q-27 83 -125 83q-73 0 -135 -40l-35 107q74 49 176 49zM261 98q43 0 71.5 27.5t36.5 75.5h-211q4 -47 31.5 -75t71.5 -28z" />
    <glyph glyph-name="circumflex" unicode="&#x2c6;" horiz-adv-x="420" 
d="M380 552h-116l-54 78l-54 -78h-116l98 155h144z" />
    <glyph glyph-name="caron" unicode="&#x2c7;" horiz-adv-x="420" 
d="M264 707h116l-98 -155h-144l-98 155h116l54 -78z" />
    <glyph glyph-name="uni02C9" unicode="&#x2c9;" horiz-adv-x="376" 
d="M40 679h296v-93h-296v93z" />
    <glyph glyph-name="breve" unicode="&#x2d8;" horiz-adv-x="381" 
d="M250 705h91q0 -69 -42 -113t-108 -44t-108.5 44.5t-42.5 112.5h92q0 -28 16.5 -44.5t42.5 -16.5t42.5 17t16.5 44z" />
    <glyph glyph-name="dotaccent" unicode="&#x2d9;" horiz-adv-x="235" 
d="M117 560q-34 0 -55.5 20.5t-21.5 52.5q0 33 21.5 53.5t55.5 20.5q35 0 56.5 -20.5t21.5 -53.5q0 -32 -21.5 -52.5t-56.5 -20.5z" />
    <glyph glyph-name="ring" unicode="&#x2da;" horiz-adv-x="297" 
d="M149 537q-44 0 -76.5 32t-32.5 76q0 45 32 77t77 32t76.5 -31.5t31.5 -77.5q0 -44 -31.5 -76t-76.5 -32zM149 595q20 0 35 15t15 35q0 21 -15 35.5t-35 14.5q-21 0 -36 -14.5t-15 -35.5q0 -20 15 -35t36 -15z" />
    <glyph glyph-name="ogonek" unicode="&#x2db;" horiz-adv-x="249" 
d="M126 -184q-39 0 -62.5 19.5t-23.5 52.5q0 61 83 127l67 -15q-57 -50 -57 -75q0 -24 26 -24q15 0 33 9l17 -73q-37 -21 -83 -21z" />
    <glyph glyph-name="tilde" unicode="&#x2dc;" horiz-adv-x="441" 
d="M40 548q0 70 30 114t84 44q36 0 72.5 -26.5t50.5 -26.5q35 0 35 53h89q0 -71 -29.5 -114.5t-83.5 -43.5q-36 0 -73 26t-51 26q-16 0 -25.5 -14.5t-9.5 -37.5h-89z" />
    <glyph glyph-name="hungarumlaut" unicode="&#x2dd;" horiz-adv-x="505" 
d="M40 552l100 155h139l-123 -155h-116zM226 552l100 155h139l-123 -155h-116z" />
    <glyph glyph-name="gravecomb" unicode="&#x300;" 
d="M-40 552h-120l-123 155h143z" />
    <glyph glyph-name="acutecomb" unicode="&#x301;" 
d="M-283 552l100 155h143l-123 -155h-120z" />
    <glyph glyph-name="uni0302" unicode="&#x302;" 
d="M-40 552h-116l-54 78l-54 -78h-116l98 155h144z" />
    <glyph glyph-name="tildecomb" unicode="&#x303;" 
d="M-401 548q0 70 30 114t84 44q36 0 72.5 -26.5t50.5 -26.5q35 0 35 53h89q0 -71 -29.5 -114.5t-83.5 -43.5q-36 0 -73 26t-51 26q-16 0 -25.5 -14.5t-9.5 -37.5h-89z" />
    <glyph glyph-name="uni0304" unicode="&#x304;" 
d="M-336 679h296v-93h-296v93z" />
    <glyph glyph-name="uni0306" unicode="&#x306;" 
d="M-131 705h91q0 -69 -42 -113t-108 -44t-108.5 44.5t-42.5 112.5h92q0 -28 16.5 -44.5t42.5 -16.5t42.5 17t16.5 44z" />
    <glyph glyph-name="uni0307" unicode="&#x307;" 
d="M-118 560q-34 0 -55.5 20.5t-21.5 52.5q0 33 21.5 53.5t55.5 20.5q35 0 56.5 -20.5t21.5 -53.5q0 -32 -21.5 -52.5t-56.5 -20.5z" />
    <glyph glyph-name="uni0308" unicode="&#x308;" 
d="M-308 563q-31 0 -51 19.5t-20 50.5t20 51t51 20t50.5 -20t19.5 -51t-19.5 -50.5t-50.5 -19.5zM-110 563q-31 0 -50.5 19.5t-19.5 50.5t19.5 51t50.5 20t50.5 -20t19.5 -51t-19.5 -50.5t-50.5 -19.5z" />
    <glyph glyph-name="uni030A" unicode="&#x30a;" 
d="M-148 537q-44 0 -76.5 32t-32.5 76q0 45 32 77t77 32t76.5 -31.5t31.5 -77.5q0 -44 -31.5 -76t-76.5 -32zM-148 595q20 0 35 15t15 35q0 21 -15 35.5t-35 14.5q-21 0 -36 -14.5t-15 -35.5q0 -20 15 -35t36 -15z" />
    <glyph glyph-name="uni030B" unicode="&#x30b;" 
d="M-465 552l100 155h139l-123 -155h-116zM-279 552l100 155h139l-123 -155h-116z" />
    <glyph glyph-name="uni030C" unicode="&#x30c;" 
d="M-156 707h116l-98 -155h-144l-98 155h116l54 -78z" />
    <glyph glyph-name="uni0312" unicode="&#x312;" 
d="M-40 707l-51 -156h-142l78 156h115z" />
    <glyph glyph-name="uni0326" unicode="&#x326;" 
d="M-216 -175l35 118h141l-61 -118h-115z" />
    <glyph glyph-name="uni0327" unicode="&#x327;" 
d="M-120 -35q37 -2 58.5 -21.5t21.5 -51.5q0 -36 -28 -57t-76 -21q-42 0 -72 15l15 60q19 -11 42 -11q33 0 33 19q0 17 -26 17q-12 0 -21 -3l-21 6l19 83h63z" />
    <glyph glyph-name="uni0328" unicode="&#x328;" 
d="M-123 -184q-39 0 -62.5 19.5t-23.5 52.5q0 61 83 127l67 -15q-57 -50 -57 -75q0 -24 26 -24q15 0 33 9l17 -73q-37 -21 -83 -21z" />
    <glyph glyph-name="uni0335" unicode="&#x335;" 
d="M-317 300h277v-94h-277v94z" />
    <glyph glyph-name="uni0336" unicode="&#x336;" 
d="M-317 300h277v-94h-277v94z" />
    <glyph glyph-name="uni0337" unicode="&#x337;" 
d="M-257 405l257 149v-122l-257 -149v122z" />
    <glyph glyph-name="uni0338" unicode="&#x338;" 
d="M-111 496l71 -40l-389 -472l-71 40z" />
    <glyph glyph-name="uni0394" unicode="&#x394;" horiz-adv-x="678" 
d="M415 667l263 -667h-678l263 667h152zM192 127h294l-147 386z" />
    <glyph glyph-name="uni03A9" unicode="&#x3a9;" horiz-adv-x="771" 
d="M616 118h118v-118h-304v120q72 14 115.5 71.5t43.5 141.5q0 97 -56.5 158t-146.5 61t-147 -61t-57 -158q0 -84 43.5 -141.5t116.5 -71.5v-120h-305v118h118q-109 85 -109 241q0 143 94.5 231.5t245.5 88.5t245 -89t94 -231q0 -156 -109 -241z" />
    <glyph glyph-name="uni03BC" unicode="&#x3bc;" horiz-adv-x="573" 
d="M544 112q8 0 24 2v-112q-35 -8 -74 -8q-94 0 -107 71q-45 -76 -137 -76q-32 0 -60 11v-175h-127v656h127v-256q0 -116 93 -116q47 0 73.5 29.5t26.5 83.5v259h127v-332q0 -37 34 -37z" />
    <glyph glyph-name="Wgrave" unicode="&#x1e80;" horiz-adv-x="1017" 
d="M600 712h-120l-123 155h143zM865 667h140l-201 -667h-168l-127 456l-128 -456h-168l-201 667h141l144 -502l140 502h143l141 -504z" />
    <glyph glyph-name="wgrave" unicode="&#x1e81;" horiz-adv-x="793" 
d="M498 552h-120l-123 155h143zM656 481h128l-141 -481h-143l-103 313l-103 -313h-143l-142 481h129l88 -326l108 326h128l106 -326z" />
    <glyph glyph-name="Wacute" unicode="&#x1e82;" horiz-adv-x="1017" 
d="M660 867l-123 -155h-120l100 155h143zM865 667h140l-201 -667h-168l-127 456l-128 -456h-168l-201 667h141l144 -502l140 502h143l141 -504z" />
    <glyph glyph-name="wacute" unicode="&#x1e83;" horiz-adv-x="793" 
d="M537 707l-123 -155h-120l100 155h143zM656 481h128l-141 -481h-143l-103 313l-103 -313h-143l-142 481h129l88 -326l108 326h128l106 -326z" />
    <glyph glyph-name="Wdieresis" unicode="&#x1e84;" horiz-adv-x="1017" 
d="M410 709q-31 0 -51 19.5t-20 50.5t19.5 51t51.5 20q31 0 50.5 -20t19.5 -51t-19.5 -50.5t-50.5 -19.5zM608 709q-31 0 -50.5 19.5t-19.5 50.5q0 32 19.5 51.5t50.5 19.5t50.5 -20t19.5 -51t-19.5 -50.5t-50.5 -19.5zM865 667h140l-201 -667h-168l-127 456l-128 -456h-168
l-201 667h141l144 -502l140 502h143l141 -504z" />
    <glyph glyph-name="wdieresis" unicode="&#x1e85;" horiz-adv-x="793" 
d="M298 563q-31 0 -51 19.5t-20 50.5t20 51t51 20t50.5 -20t19.5 -51t-19.5 -50.5t-50.5 -19.5zM496 563q-31 0 -50.5 19.5t-19.5 50.5t19.5 51t50.5 20t50.5 -20t19.5 -51t-19.5 -50.5t-50.5 -19.5zM656 481h128l-141 -481h-143l-103 313l-103 -313h-143l-142 481h129
l88 -326l108 326h128l106 -326z" />
    <glyph glyph-name="uni1E9E" unicode="&#x1e9e;" horiz-adv-x="710" 
d="M494 403q83 -21 129.5 -74t46.5 -129q0 -97 -68 -154.5t-183 -57.5q-82 0 -147 34l42 118q42 -24 105 -24q115 0 115 84q0 98 -142 98q-38 0 -69 -4v99l132 134q-40 25 -99 25q-161 0 -161 -176v-376h-136v376q0 142 79.5 222.5t217.5 80.5q181 0 275 -137z" />
    <glyph glyph-name="Ygrave" unicode="&#x1ef2;" horiz-adv-x="649" 
d="M412 712h-120l-123 155h143zM257 0v278l-266 389h169l165 -256l165 256h169l-266 -388v-279h-136z" />
    <glyph glyph-name="ygrave" unicode="&#x1ef3;" horiz-adv-x="523" 
d="M364 552h-120l-123 155h143zM382 481h136l-196 -501q-35 -88 -82.5 -125.5t-122.5 -37.5q-38 0 -77 11l20 122q29 -8 55 -8q31 0 49.5 14t33.5 50l-193 475h135l123 -324z" />
    <glyph glyph-name="uni2011" unicode="&#x2011;" horiz-adv-x="316" 
d="M32 324h252v-127h-252v127z" />
    <glyph glyph-name="endash" unicode="&#x2013;" horiz-adv-x="500" 
d="M20 305h460v-90h-460v90z" />
    <glyph glyph-name="emdash" unicode="&#x2014;" horiz-adv-x="1000" 
d="M20 305h960v-90h-960v90z" />
    <glyph glyph-name="quoteleft" unicode="&#x2018;" horiz-adv-x="263" 
d="M140 678l102 -24l-89 -264l-132 31z" />
    <glyph glyph-name="quoteright" unicode="&#x2019;" horiz-adv-x="263" 
d="M124 389l-103 24l90 264l131 -31z" />
    <glyph glyph-name="quotesinglbase" unicode="&#x201a;" horiz-adv-x="263" 
d="M124 -125l-103 24l90 264l131 -31z" />
    <glyph glyph-name="quotedblleft" unicode="&#x201c;" horiz-adv-x="469" 
d="M140 678l102 -24l-89 -264l-132 31zM345 678l103 -24l-90 -264l-132 31z" />
    <glyph glyph-name="quotedblright" unicode="&#x201d;" horiz-adv-x="469" 
d="M124 389l-103 24l90 264l131 -31zM329 389l-103 24l90 264l131 -31z" />
    <glyph glyph-name="quotedblbase" unicode="&#x201e;" horiz-adv-x="469" 
d="M124 -125l-103 24l90 264l131 -31zM329 -125l-103 24l90 264l131 -31z" />
    <glyph glyph-name="dagger" unicode="&#x2020;" horiz-adv-x="486" 
d="M465 479v-128h-155l-17 -411h-100l-17 411h-155v128h154v188h136v-188h154z" />
    <glyph glyph-name="daggerdbl" unicode="&#x2021;" horiz-adv-x="486" 
d="M310 402l-8 -156l8 -156h155v-128h-154v-137h-136v137h-154v128h155l8 156l-8 156h-155v128h154v137h136v-137h154v-128h-155z" />
    <glyph glyph-name="bullet" unicode="&#x2022;" horiz-adv-x="419" 
d="M210 199q-57 0 -95.5 38.5t-38.5 95.5t38.5 95.5t95.5 38.5q56 0 95 -38.5t39 -95.5t-39 -95.5t-95 -38.5z" />
    <glyph glyph-name="ellipsis" unicode="&#x2026;" horiz-adv-x="753" 
d="M125 -11q-38 0 -62.5 24.5t-24.5 62.5t24.5 62.5t62.5 24.5t62.5 -24.5t24.5 -62.5t-25 -62.5t-62 -24.5zM376 -11q-38 0 -62.5 24.5t-24.5 62.5t24.5 62.5t62.5 24.5t62.5 -24.5t24.5 -62.5t-24.5 -62.5t-62.5 -24.5zM628 -11q-38 0 -62.5 24.5t-24.5 62.5t24.5 62.5
t62.5 24.5t62.5 -24.5t24.5 -62.5t-24.5 -62.5t-62.5 -24.5z" />
    <glyph glyph-name="perthousand" unicode="&#x2030;" horiz-adv-x="1073" 
d="M185 357q-73 0 -115.5 43.5t-42.5 117.5t42.5 117t115.5 43t115.5 -43t42.5 -117t-42.5 -117.5t-115.5 -43.5zM572 667h138l-522 -667h-138zM185 453q53 0 53 65q0 64 -53 64q-52 0 -52 -64q0 -65 52 -65zM553 -9q-73 0 -115.5 43.5t-42.5 117.5q0 73 42.5 116t115.5 43
t115.5 -43t42.5 -116q0 -74 -42.5 -117.5t-115.5 -43.5zM888 -9q-74 0 -116 43t-42 118q0 73 42 116t116 43q73 0 115.5 -43t42.5 -116q0 -74 -42.5 -117.5t-115.5 -43.5zM553 86q52 0 52 66q0 64 -52 64q-53 0 -53 -64q0 -66 53 -66zM888 86q52 0 52 66q0 64 -52 64
q-53 0 -53 -64q0 -66 53 -66z" />
    <glyph glyph-name="guilsinglleft" unicode="&#x2039;" horiz-adv-x="354" 
d="M322 437l-154 -179l154 -179h-156l-155 179l155 179h156z" />
    <glyph glyph-name="guilsinglright" unicode="&#x203a;" horiz-adv-x="354" 
d="M31 437h157l154 -179l-154 -179h-157l155 179z" />
    <glyph glyph-name="fraction" unicode="&#x2044;" horiz-adv-x="244" 
d="M-72 0h-118l506 667h118z" />
    <glyph glyph-name="uni2070" unicode="&#x2070;" horiz-adv-x="349" 
d="M174 395q-72 0 -113.5 57.5t-41.5 156.5q0 100 41.5 158t113.5 58t114 -58t42 -158q0 -99 -42 -156.5t-114 -57.5zM174 486q28 0 44 32.5t16 90.5q0 59 -16 91.5t-44 32.5q-58 0 -58 -124q0 -123 58 -123z" />
    <glyph glyph-name="uni2074" unicode="&#x2074;" horiz-adv-x="345" 
d="M290 568h44v-86h-44v-79h-93v79h-186v86l135 249h144v-249zM109 568h88v161z" />
    <glyph glyph-name="uni2075" unicode="&#x2075;" horiz-adv-x="353" 
d="M157 395q-80 0 -134 42l37 87q38 -37 93 -37q34 0 52.5 14t18.5 40q0 50 -71 50q-27 0 -58 -13l-60 19l27 220h229v-92h-143l-9 -53q17 3 33 3q65 0 107 -38t42 -98q0 -64 -45.5 -104t-118.5 -40z" />
    <glyph glyph-name="uni2076" unicode="&#x2076;" horiz-adv-x="355" 
d="M180 689q69 0 112.5 -40.5t43.5 -104.5q0 -65 -44.5 -106.5t-114.5 -41.5q-69 0 -113 41.5t-44 106.5q0 60 31.5 116t111.5 157h114q-16 -19 -53 -62t-58 -67q5 1 14 1zM177 487q28 0 45 16t17 41q0 26 -17 42t-45 16q-26 0 -43.5 -16.5t-17.5 -41.5t17.5 -41t43.5 -16z
" />
    <glyph glyph-name="uni2077" unicode="&#x2077;" horiz-adv-x="353" 
d="M340 817l-191 -414h-102l149 322h-179v92h323z" />
    <glyph glyph-name="uni2078" unicode="&#x2078;" horiz-adv-x="350" 
d="M271 621q55 -28 55 -95q0 -59 -40.5 -94.5t-109.5 -35.5q-70 0 -111 35.5t-41 94.5q0 66 55 95q-41 29 -41 84q0 54 36.5 86t101.5 32q64 0 100.5 -32t36.5 -86q0 -56 -42 -84zM176 732q-43 0 -43 -36q0 -37 43 -37q41 0 41 37q0 36 -41 36zM176 487q56 0 56 43
q0 21 -15 33.5t-41 12.5q-56 0 -56 -46q0 -43 56 -43z" />
    <glyph glyph-name="uni2079" unicode="&#x2079;" horiz-adv-x="355" 
d="M178 824q69 0 113 -41.5t44 -106.5q0 -60 -31 -115.5t-111 -157.5h-115q21 24 60.5 70t50.5 59q-5 -1 -14 -1q-69 0 -112.5 40.5t-43.5 104.5q0 65 44.5 106.5t114.5 41.5zM178 618q26 0 43.5 16.5t17.5 41.5t-17.5 41t-43.5 16q-28 0 -45 -16t-17 -41q0 -26 17 -42
t45 -16z" />
    <glyph glyph-name="uni207A" unicode="&#x207a;" horiz-adv-x="352" 
d="M320 602v-75h-107v-102h-76v102h-106v75h106v102h76v-102h107z" />
    <glyph glyph-name="uni207B" unicode="&#x207b;" horiz-adv-x="352" 
d="M31 602h289v-75h-289v75z" />
    <glyph glyph-name="uni207C" unicode="&#x207c;" horiz-adv-x="352" 
d="M31 673h289v-76h-289v76zM31 532h289v-76h-289v76z" />
    <glyph glyph-name="uni207D" unicode="&#x207d;" horiz-adv-x="233" 
d="M224 331l-71 -45q-128 118 -128 281q0 162 128 280l70 -45q-112 -97 -112 -235q0 -140 113 -236z" />
    <glyph glyph-name="uni207E" unicode="&#x207e;" horiz-adv-x="234" 
d="M9 331q113 96 113 236q0 138 -112 235l70 45q128 -118 128 -280q0 -163 -128 -281z" />
    <glyph glyph-name="uni2080" unicode="&#x2080;" horiz-adv-x="349" 
d="M174 -183q-72 0 -113.5 57.5t-41.5 156.5q0 100 41.5 158t113.5 58t114 -58t42 -158q0 -99 -42 -156.5t-114 -57.5zM174 -92q28 0 44 32.5t16 90.5q0 59 -16 91.5t-44 32.5q-58 0 -58 -124q0 -123 58 -123z" />
    <glyph glyph-name="uni2081" unicode="&#x2081;" horiz-adv-x="357" 
d="M248 -85h78v-90h-259v90h85v202l-83 -30l-19 90l193 69h5v-331z" />
    <glyph glyph-name="uni2082" unicode="&#x2082;" horiz-adv-x="350" 
d="M139 -85h175v-90h-298q4 55 24.5 96t47 63.5t52.5 40t43.5 37.5t17.5 44q0 49 -65 49q-50 0 -86 -34l-28 87q49 38 120 38t113.5 -37.5t42.5 -101.5q0 -38 -20 -69t-44.5 -47.5t-53.5 -37.5t-41 -38z" />
    <glyph glyph-name="uni2083" unicode="&#x2083;" horiz-adv-x="353" 
d="M235 39q66 -29 66 -98q0 -57 -45.5 -90.5t-120.5 -33.5q-69 0 -116 27l17 93q37 -29 96 -29q72 0 72 41q0 44 -74 44h-32v86h32q59 0 59 39q0 37 -53 37q-47 0 -88 -29l-18 88q51 32 113 32q63 0 103 -33t40 -85q0 -58 -51 -89z" />
    <glyph glyph-name="uni2084" unicode="&#x2084;" horiz-adv-x="345" 
d="M290 -10h44v-86h-44v-79h-93v79h-186v86l135 249h144v-249zM109 -10h88v161z" />
    <glyph glyph-name="uni2085" unicode="&#x2085;" horiz-adv-x="353" 
d="M157 -183q-80 0 -134 42l37 87q38 -37 93 -37q34 0 52.5 14t18.5 40q0 50 -71 50q-27 0 -58 -13l-60 19l27 220h229v-92h-143l-9 -53q17 3 33 3q65 0 107 -38t42 -98q0 -64 -45.5 -104t-118.5 -40z" />
    <glyph glyph-name="uni2086" unicode="&#x2086;" horiz-adv-x="355" 
d="M180 111q69 0 112.5 -40.5t43.5 -104.5q0 -65 -44.5 -106.5t-114.5 -41.5q-69 0 -113 41.5t-44 106.5q0 60 31.5 116t111.5 157h114q-16 -19 -53 -62t-58 -67q5 1 14 1zM177 -91q28 0 45 16t17 41q0 26 -17 42t-45 16q-26 0 -43.5 -16.5t-17.5 -41.5t17.5 -41t43.5 -16z
" />
    <glyph glyph-name="uni2087" unicode="&#x2087;" horiz-adv-x="353" 
d="M340 239l-191 -414h-102l149 322h-179v92h323z" />
    <glyph glyph-name="uni2088" unicode="&#x2088;" horiz-adv-x="350" 
d="M271 43q55 -28 55 -95q0 -59 -40.5 -94.5t-109.5 -35.5q-70 0 -111 35.5t-41 94.5q0 66 55 95q-41 29 -41 84q0 54 36.5 86t101.5 32q64 0 100.5 -32t36.5 -86q0 -56 -42 -84zM176 154q-43 0 -43 -36q0 -37 43 -37q41 0 41 37q0 36 -41 36zM176 -91q56 0 56 43
q0 21 -15 33.5t-41 12.5q-56 0 -56 -46q0 -43 56 -43z" />
    <glyph glyph-name="uni2089" unicode="&#x2089;" horiz-adv-x="355" 
d="M178 246q69 0 113 -41.5t44 -106.5q0 -60 -31 -115.5t-111 -157.5h-115q21 24 60.5 70t50.5 59q-5 -1 -14 -1q-69 0 -112.5 40.5t-43.5 104.5q0 65 44.5 106.5t114.5 41.5zM178 40q26 0 43.5 16.5t17.5 41.5t-17.5 41t-43.5 16q-28 0 -45 -16t-17 -41q0 -26 17 -42
t45 -16z" />
    <glyph glyph-name="uni208A" unicode="&#x208a;" horiz-adv-x="352" 
d="M320 24v-75h-107v-102h-76v102h-106v75h106v102h76v-102h107z" />
    <glyph glyph-name="uni208B" unicode="&#x208b;" horiz-adv-x="352" 
d="M31 24h289v-75h-289v75z" />
    <glyph glyph-name="uni208C" unicode="&#x208c;" horiz-adv-x="352" 
d="M31 95h289v-76h-289v76zM31 -46h289v-76h-289v76z" />
    <glyph glyph-name="uni208D" unicode="&#x208d;" horiz-adv-x="234" 
d="M225 -247l-71 -45q-128 118 -128 281q0 162 128 280l70 -45q-112 -97 -112 -235q0 -140 113 -236z" />
    <glyph glyph-name="uni208E" unicode="&#x208e;" horiz-adv-x="234" 
d="M9 -247q113 96 113 236q0 138 -112 235l70 45q128 -118 128 -280q0 -163 -128 -281z" />
    <glyph glyph-name="Euro" unicode="&#x20ac;" horiz-adv-x="536" 
d="M360 115q68 0 126 44l33 -121q-67 -50 -164 -50q-110 0 -188 65t-104 178h-48v78h38q-1 8 -1 24q0 17 1 26h-38v78h48q26 113 104 177.5t188 64.5q98 0 164 -51l-33 -120q-56 44 -126 44q-55 0 -95 -30t-60 -85h262l-21 -78h-257q-1 -8 -1 -26q0 -16 1 -24h243l-22 -78
h-206q20 -55 60.5 -85.5t95.5 -30.5z" />
    <glyph glyph-name="uni20B9" unicode="&#x20b9;" horiz-adv-x="536" 
d="M504 573h-106q18 -21 31 -50h75v-94h-63q-5 -66 -44 -114t-104 -68l172 -247h-165l-242 353h144q82 0 100 76h-270v94h261q-27 50 -91 50h-170v94h472v-94z" />
    <glyph glyph-name="uni20BA" unicode="&#x20ba;" horiz-adv-x="536" 
d="M381 327h136q0 -171 -76 -249t-243 -78h-136v228l-51 -25v95l51 25v55l-51 -25v96l51 25v193h136v-127l125 60v-96l-125 -60v-55l125 60v-95l-125 -60v-167q104 0 143.5 43.5t39.5 156.5z" />
    <glyph glyph-name="uni2113" unicode="&#x2113;" horiz-adv-x="445" 
d="M283 118q48 0 88 24l32 -120q-60 -32 -141 -32q-186 0 -201 179l-50 -24v143q41 20 48 23v172q0 120 41.5 174.5t134.5 54.5q91 0 134.5 -45.5t43.5 -122.5q0 -79 -49 -152t-169 -149v-16q0 -60 20.5 -84.5t67.5 -24.5zM195 522v-125q82 70 82 147q0 53 -42 53
q-21 0 -30.5 -16t-9.5 -59z" />
    <glyph glyph-name="published" unicode="&#x2117;" horiz-adv-x="771" 
d="M386 679q142 0 243.5 -101.5t101.5 -243.5q0 -143 -101 -244.5t-244 -101.5t-244.5 101.5t-101.5 244.5t101.5 244t244.5 101zM386 63q112 0 191 79.5t79 191.5t-79 191t-191 79t-191.5 -79t-79.5 -191t79.5 -191.5t191.5 -79.5zM422 525q64 0 102.5 -35.5t38.5 -93.5
q0 -59 -38.5 -94.5t-102.5 -35.5h-71v-124h-92v383h163zM422 353q23 0 36 11.5t13 31.5t-13 31.5t-36 11.5h-71v-86h71z" />
    <glyph glyph-name="trademark" unicode="&#x2122;" horiz-adv-x="710" 
d="M266 667v-80h-85v-226h-84v226h-85v80h254zM676 667v-306h-85v194l-87 -149h-31l-88 151v-196h-84v306h113l74 -127l75 127h113z" />
    <glyph glyph-name="uni2126" unicode="&#x2126;" horiz-adv-x="771" 
d="M616 118h118v-118h-304v120q72 14 115.5 71.5t43.5 141.5q0 97 -56.5 158t-146.5 61t-147 -61t-57 -158q0 -84 43.5 -141.5t116.5 -71.5v-120h-305v118h118q-109 85 -109 241q0 143 94.5 231.5t245.5 88.5t245 -89t94 -231q0 -156 -109 -241z" />
    <glyph glyph-name="estimated" unicode="&#x212e;" horiz-adv-x="812" 
d="M406 -10q-171 0 -272 95q-104 99 -104 248q0 148 105 248q103 96 271 96q154 0 260 -85q106 -86 116 -269h-598q-8 0 -11.5 -2.5t-3.5 -14.5v-168q0 -33 70.5 -77t166.5 -44q69 0 132 30.5t106 78.5h70q-72 -80 -141 -107q-73 -29 -167 -29zM184 345h441q11 0 14 3.5
t3 12.5v165q0 41 -79 84t-159 43q-61 0 -118.5 -24.5t-87 -52t-29.5 -43.5v-180q0 -8 15 -8z" />
    <glyph glyph-name="arrowleft" unicode="&#x2190;" horiz-adv-x="758" 
d="M718 397v-127h-447l156 -149l-87 -88l-300 300l300 300l87 -87l-155 -149h446z" />
    <glyph glyph-name="arrowup" unicode="&#x2191;" horiz-adv-x="680" 
d="M640 378l-87 -87l-150 156v-447h-127v446l-149 -155l-87 87l300 300z" />
    <glyph glyph-name="arrowright" unicode="&#x2192;" horiz-adv-x="758" 
d="M418 633l300 -300l-300 -300l-87 87l156 150h-447v127h446l-155 149z" />
    <glyph glyph-name="arrowdown" unicode="&#x2193;" horiz-adv-x="680" 
d="M553 379l87 -87l-300 -300l-300 300l87 87l150 -156v447h127v-446z" />
    <glyph glyph-name="uni2196" unicode="&#x2196;" horiz-adv-x="604" 
d="M564 159l-90 -90l-315 315l4 -215h-123v424h424v-123l-216 5z" />
    <glyph glyph-name="uni2197" unicode="&#x2197;" horiz-adv-x="604" 
d="M140 591l424 1v-425h-123l4 215l-315 -315l-90 90l316 316l-216 -5v123z" />
    <glyph glyph-name="uni2198" unicode="&#x2198;" horiz-adv-x="604" 
d="M441 515h123v-424h-424v123l216 -5l-316 316l90 90l316 -316z" />
    <glyph glyph-name="uni2199" unicode="&#x2199;" horiz-adv-x="604" 
d="M565 525l-316 -315l216 4v-123h-425v424h123l-4 -216l316 316z" />
    <glyph glyph-name="partialdiff" unicode="&#x2202;" horiz-adv-x="556" 
d="M267 679q125 0 201 -91.5t76 -260.5q0 -166 -71.5 -252t-194.5 -86q-108 0 -176 64.5t-68 167.5q0 98 63 159.5t163 61.5q96 0 157 -63q-10 90 -54 134.5t-115 44.5q-63 0 -116 -32l-22 113q70 40 157 40zM278 109q52 0 84 31t32 81t-32 81.5t-84 31.5t-84.5 -31.5
t-32.5 -81.5t32.5 -81t84.5 -31z" />
    <glyph glyph-name="uni2206" unicode="&#x2206;" horiz-adv-x="678" 
d="M415 667l263 -667h-678l263 667h152zM192 127h294l-147 386z" />
    <glyph glyph-name="product" unicode="&#x220f;" horiz-adv-x="706" 
d="M74 -175v842h558v-842h-136v715h-286v-715h-136z" />
    <glyph glyph-name="summation" unicode="&#x2211;" horiz-adv-x="577" 
d="M536 667v-127h-319l213 -294l-213 -294h319v-127h-496v106l228 315l-228 315v106h496z" />
    <glyph glyph-name="minus" unicode="&#x2212;" horiz-adv-x="540" 
d="M45 315h450v-110h-450v110z" />
    <glyph glyph-name="uni2215" unicode="&#x2215;" horiz-adv-x="536" 
d="M152 0h-128l361 667h127z" />
    <glyph glyph-name="uni2219" unicode="&#x2219;" horiz-adv-x="536" 
d="M277 173q-38 0 -62.5 24.5t-24.5 62.5t24.5 62.5t62.5 24.5t62.5 -24.5t24.5 -62.5t-25 -62.5t-62 -24.5z" />
    <glyph glyph-name="radical" unicode="&#x221a;" horiz-adv-x="722" 
d="M586 702h126l-323 -877h-172l-109 367h-98v114h191l106 -360z" />
    <glyph glyph-name="infinity" unicode="&#x221e;" horiz-adv-x="812" 
d="M590 450q85 0 137.5 -53t52.5 -137t-53 -137.5t-137 -53.5q-103 0 -184 108q-81 -108 -184 -108q-84 0 -137 53.5t-53 137.5t52.5 137t137.5 53q103 0 184 -107q81 107 184 107zM222 180q57 0 117 80q-30 39 -56.5 59t-60.5 20q-33 0 -52 -21t-19 -58t19 -58.5t52 -21.5z
M590 180q33 0 52 21.5t19 58.5t-19 58t-52 21q-34 0 -60.5 -20t-56.5 -59q60 -80 117 -80z" />
    <glyph glyph-name="integral" unicode="&#x222b;" horiz-adv-x="512" 
d="M-5 -159l23 117q26 -16 61 -16q65 0 75 74l68 477q13 93 60.5 139.5t120.5 46.5q71 0 114 -27l-23 -117q-26 16 -61 16q-65 0 -75 -74l-68 -476q-13 -93 -60.5 -139.5t-120.5 -46.5q-71 0 -114 26z" />
    <glyph glyph-name="approxequal" unicode="&#x2248;" horiz-adv-x="540" 
d="M52 290q0 80 37 128.5t104 48.5q37 0 65.5 -17t49.5 -34t39 -17q19 0 29 19t10 49h102q0 -80 -37 -128.5t-104 -48.5q-37 0 -65.5 17t-49.5 33.5t-39 16.5q-39 0 -39 -67h-102zM52 53q0 80 37 128.5t104 48.5q37 0 65.5 -17t49.5 -33.5t39 -16.5q39 0 39 67h102
q0 -80 -37 -128.5t-104 -48.5q-37 0 -65.5 17t-49.5 34t-39 17q-19 0 -29 -19t-10 -49h-102z" />
    <glyph glyph-name="notequal" unicode="&#x2260;" horiz-adv-x="540" 
d="M495 318h-128l-66 -116h194v-110h-248l-58 -103h-109l58 103h-93v110h147l66 116h-213v110h266l58 103h109l-58 -103h75v-110z" />
    <glyph glyph-name="lessequal" unicode="&#x2264;" horiz-adv-x="540" 
d="M495 535v-116l-343 -91l343 -92v-115l-450 124v165zM45 -15v110h450v-110h-450z" />
    <glyph glyph-name="greaterequal" unicode="&#x2265;" horiz-adv-x="540" 
d="M45 535l450 -125v-165l-450 -124v115l343 92l-343 91v116zM45 -15v110h450v-110h-450z" />
    <glyph glyph-name="lozenge" unicode="&#x25ca;" horiz-adv-x="646" 
d="M409 667l215 -421l-215 -421h-172l-215 421l215 421h172zM323 -71l156 317l-156 317l-156 -317z" />
    <glyph glyph-name="uni2610" unicode="&#x2610;" horiz-adv-x="707" 
d="M20 0v667h667v-667h-667zM114 94h480v480h-480v-480z" />
    <glyph glyph-name="uni2611" unicode="&#x2611;" horiz-adv-x="707" 
d="M20 667h667v-667h-667v667zM594 94v480h-480v-480h480zM264 122q-52 136 -128 171l54 81q71 -24 119 -124q83 247 204 304l63 -90q-60 -28 -117 -121.5t-91 -220.5h-104z" />
    <glyph glyph-name="uni2612" unicode="&#x2612;" horiz-adv-x="707" 
d="M20 667h667v-667h-667v667zM594 94v480h-480v-480h480zM211 110l-79 57q59 94 130 176q-72 89 -105 142l84 66q42 -65 93 -129q84 84 168 138l70 -97q-86 -48 -168 -122q65 -74 136 -142l-76 -78q-64 62 -135 143q-62 -68 -118 -154z" />
    <glyph glyph-name="uni2713" unicode="&#x2713;" horiz-adv-x="707" 
d="M599 676l75 -128q-96 -43 -190.5 -194t-150.5 -354h-118q-82 197 -195 244l64 115q108 -36 180 -185q64 197 150 326t185 176z" />
    <glyph glyph-name="uni2717" unicode="&#x2717;" horiz-adv-x="707" 
d="M408 340q100 -117 215 -231l-96 -97q-97 97 -212 233q-107 -117 -193 -251l-99 68q91 149 208 284q-106 135 -170 237l107 80q68 -110 154 -218q136 141 276 231l87 -125q-138 -77 -277 -211z" />
    <glyph glyph-name="uniFEFF" unicode="&#xfeff;" 
 />
    <glyph glyph-name="a.ss01" horiz-adv-x="501" 
d="M227 491q106 0 163.5 -53.5t57.5 -151.5v-286h-119v42q-44 -53 -135 -53q-78 0 -124 41t-46 110q0 71 49 112.5t133 41.5q66 0 115 -24v8q0 97 -117 97q-64 0 -125 -33l-24 108q73 41 172 41zM232 84q41 0 65 19t24 54v27q-34 15 -79 15q-91 0 -91 -59q0 -56 81 -56z" />
    <glyph glyph-name="aacute.ss01" horiz-adv-x="501" 
d="M379 707l-123 -155h-120l100 155h143zM227 491q106 0 163.5 -53.5t57.5 -151.5v-286h-119v42q-44 -53 -135 -53q-78 0 -124 41t-46 110q0 71 49 112.5t133 41.5q66 0 115 -24v8q0 97 -117 97q-64 0 -125 -33l-24 108q73 41 172 41zM232 84q41 0 65 19t24 54v27
q-34 15 -79 15q-91 0 -91 -59q0 -56 81 -56z" />
    <glyph glyph-name="abreve.ss01" horiz-adv-x="501" 
d="M238 548q-66 0 -108.5 44.5t-42.5 112.5h92q0 -28 16.5 -44.5t42.5 -16.5t42.5 17t16.5 44h91q0 -69 -42 -113t-108 -44zM227 491q106 0 163.5 -53.5t57.5 -151.5v-286h-119v42q-44 -53 -135 -53q-78 0 -124 41t-46 110q0 71 49 112.5t133 41.5q66 0 115 -24v8
q0 97 -117 97q-64 0 -125 -33l-24 108q73 41 172 41zM232 84q41 0 65 19t24 54v27q-34 15 -79 15q-91 0 -91 -59q0 -56 81 -56z" />
    <glyph glyph-name="acircumflex.ss01" horiz-adv-x="501" 
d="M238 630l-54 -78h-116l98 155h144l98 -155h-116zM227 491q106 0 163.5 -53.5t57.5 -151.5v-286h-119v42q-44 -53 -135 -53q-78 0 -124 41t-46 110q0 71 49 112.5t133 41.5q66 0 115 -24v8q0 97 -117 97q-64 0 -125 -33l-24 108q73 41 172 41zM232 84q41 0 65 19t24 54v27
q-34 15 -79 15q-91 0 -91 -59q0 -56 81 -56z" />
    <glyph glyph-name="adieresis.ss01" horiz-adv-x="501" 
d="M140 563q-31 0 -51 19.5t-20 50.5t20 51t51 20t50.5 -20t19.5 -51t-19.5 -50.5t-50.5 -19.5zM338 563q-31 0 -50.5 19.5t-19.5 50.5t19.5 51t50.5 20t50.5 -20t19.5 -51t-19.5 -50.5t-50.5 -19.5zM227 491q106 0 163.5 -53.5t57.5 -151.5v-286h-119v42q-44 -53 -135 -53
q-78 0 -124 41t-46 110q0 71 49 112.5t133 41.5q66 0 115 -24v8q0 97 -117 97q-64 0 -125 -33l-24 108q73 41 172 41zM232 84q41 0 65 19t24 54v27q-34 15 -79 15q-91 0 -91 -59q0 -56 81 -56z" />
    <glyph glyph-name="agrave.ss01" horiz-adv-x="501" 
d="M340 552h-120l-123 155h143zM227 491q106 0 163.5 -53.5t57.5 -151.5v-286h-119v42q-44 -53 -135 -53q-78 0 -124 41t-46 110q0 71 49 112.5t133 41.5q66 0 115 -24v8q0 97 -117 97q-64 0 -125 -33l-24 108q73 41 172 41zM232 84q41 0 65 19t24 54v27q-34 15 -79 15
q-91 0 -91 -59q0 -56 81 -56z" />
    <glyph glyph-name="amacron.ss01" horiz-adv-x="501" 
d="M386 679v-93h-296v93h296zM227 491q106 0 163.5 -53.5t57.5 -151.5v-286h-119v42q-44 -53 -135 -53q-78 0 -124 41t-46 110q0 71 49 112.5t133 41.5q66 0 115 -24v8q0 97 -117 97q-64 0 -125 -33l-24 108q73 41 172 41zM232 84q41 0 65 19t24 54v27q-34 15 -79 15
q-91 0 -91 -59q0 -56 81 -56z" />
    <glyph glyph-name="aogonek.ss01" horiz-adv-x="501" 
d="M448 -92l17 -73q-37 -21 -83 -21q-39 0 -62.5 19.5t-23.5 52.5q0 56 67 114h-34v42q-44 -53 -135 -53q-78 0 -124 41t-46 110q0 71 49 112.5t133 41.5q66 0 115 -24v8q0 97 -117 97q-64 0 -125 -33l-24 108q73 41 172 41q106 0 163.5 -53.5t57.5 -151.5v-286h-11l9 -2
q-57 -50 -57 -75q0 -24 26 -24q15 0 33 9zM232 84q41 0 65 19t24 54v27q-34 15 -79 15q-91 0 -91 -59q0 -56 81 -56z" />
    <glyph glyph-name="aring.ss01" horiz-adv-x="501" 
d="M238 537q-44 0 -76.5 32t-32.5 76q0 45 32 77t77 32t76.5 -31.5t31.5 -77.5q0 -44 -31.5 -76t-76.5 -32zM238 695q-21 0 -36 -14.5t-15 -35.5q0 -20 15 -35t36 -15q20 0 35 15t15 35q0 21 -15 35.5t-35 14.5zM227 491q106 0 163.5 -53.5t57.5 -151.5v-286h-119v42
q-44 -53 -135 -53q-78 0 -124 41t-46 110q0 71 49 112.5t133 41.5q66 0 115 -24v8q0 97 -117 97q-64 0 -125 -33l-24 108q73 41 172 41zM232 84q41 0 65 19t24 54v27q-34 15 -79 15q-91 0 -91 -59q0 -56 81 -56z" />
    <glyph glyph-name="atilde.ss01" horiz-adv-x="501" 
d="M181 600q-16 0 -25.5 -14.5t-9.5 -37.5h-89q0 70 30 114t84 44q36 0 72.5 -26.5t50.5 -26.5q35 0 35 53h89q0 -71 -29.5 -114.5t-83.5 -43.5q-36 0 -73 26t-51 26zM227 491q106 0 163.5 -53.5t57.5 -151.5v-286h-119v42q-44 -53 -135 -53q-78 0 -124 41t-46 110
q0 71 49 112.5t133 41.5q66 0 115 -24v8q0 97 -117 97q-64 0 -125 -33l-24 108q73 41 172 41zM232 84q41 0 65 19t24 54v27q-34 15 -79 15q-91 0 -91 -59q0 -56 81 -56z" />
    <glyph glyph-name="f_i" horiz-adv-x="582" 
d="M253 594q-56 0 -56 -63v-50h114v-117h-114v-364h-127v364h-59v117h59v63q0 79 41.5 122.5t118.5 43.5q56 0 96 -18l-20 -108q-28 10 -53 10zM455 560q-34 0 -55.5 20.5t-21.5 52.5q0 33 21.5 53.5t55.5 20.5q35 0 56.5 -20.5t21.5 -53.5q0 -32 -21.5 -52.5t-56.5 -20.5z
M392 0v481h127v-481h-127z" />
    <glyph glyph-name="f_l" horiz-adv-x="618" 
d="M253 594q-56 0 -56 -63v-50h114v-117h-114v-364h-127v364h-59v117h59v63q0 79 41.5 122.5t118.5 43.5q56 0 96 -18l-20 -108q-28 10 -53 10zM598 118l13 -110q-31 -13 -85 -13q-69 0 -101.5 34.5t-32.5 111.5v561h127v-538q0 -53 46 -53q17 0 33 7z" />
    <glyph glyph-name="zero.lf" horiz-adv-x="572" 
d="M286 -12q-119 0 -188.5 93t-69.5 252t69.5 252t188.5 93q120 0 189 -93t69 -252t-69 -252t-189 -93zM286 115q59 0 90.5 57t31.5 161t-31.5 161t-90.5 57q-58 0 -90 -57.5t-32 -160.5t32 -160.5t90 -57.5z" />
    <glyph glyph-name="one.lf" horiz-adv-x="401" 
d="M288 679h9v-679h-136v495l-134 -51l-26 125z" />
    <glyph glyph-name="two.lf" horiz-adv-x="536" 
d="M195 127h290v-127h-462q6 72 31.5 130t59.5 91.5t72.5 64.5t71 52.5t53.5 52t21 65.5q0 45 -29 70t-82 25q-82 0 -141 -55l-39 119q77 63 188 63q108 0 173.5 -59.5t65.5 -159.5q0 -53 -22 -96t-57 -73t-71.5 -54.5t-71.5 -52.5t-51 -56z" />
    <glyph glyph-name="three.lf" horiz-adv-x="536" 
d="M358 344q104 -43 104 -155q0 -92 -69 -146.5t-185 -54.5q-109 0 -181 45l25 126q59 -44 148 -44q59 0 92.5 21.5t33.5 60.5t-33.5 61t-93.5 22h-49v120h49q51 0 78 19.5t27 55.5q0 35 -26.5 55.5t-72.5 20.5q-76 0 -136 -44l-24 118q75 53 176 53q98 0 158.5 -52
t60.5 -138q0 -100 -82 -144z" />
    <glyph glyph-name="four.lf" horiz-adv-x="550" 
d="M452 258h75v-122h-75v-136h-132v136h-297v122l220 409h209v-409zM162 258h158v294z" />
    <glyph glyph-name="five.lf" horiz-adv-x="536" 
d="M239 -12q-119 0 -206 67l49 121q66 -60 151 -60q57 0 89.5 27.5t32.5 75.5q0 96 -121 96q-51 0 -99 -24l-85 27l44 349h349v-127h-231l-16 -120q25 8 64 8q103 0 167 -59t64 -154q0 -100 -70.5 -163.5t-181.5 -63.5z" />
    <glyph glyph-name="six.lf" horiz-adv-x="536" 
d="M276 444q103 0 167.5 -62.5t64.5 -161.5q0 -103 -67 -167.5t-173 -64.5t-172.5 64.5t-66.5 167.5q0 89 54 186.5t178 260.5h154q-97 -121 -173 -226q16 3 34 3zM269 115q46 0 74.5 29.5t28.5 75.5q0 47 -28.5 76t-74.5 29t-75 -29t-29 -76q0 -46 29 -75.5t75 -29.5z" />
    <glyph glyph-name="seven.lf" horiz-adv-x="523" 
d="M517 667l-304 -667h-140l246 540h-294v127h492z" />
    <glyph glyph-name="eight.lf" horiz-adv-x="536" 
d="M402 351q100 -44 100 -158q0 -94 -63 -149.5t-171 -55.5t-171 55.5t-63 149.5q0 114 100 158q-74 45 -74 141q0 86 55 136t153 50t153 -50t55 -136q0 -96 -74 -141zM268 551q-37 0 -57 -19t-20 -53q0 -33 20 -52t57 -19t57 19t20 52q0 34 -20 53t-57 19zM268 115
q47 0 73 22.5t26 64.5q0 41 -26 64t-73 23t-73 -23t-26 -64q0 -42 26 -64.5t73 -22.5z" />
    <glyph glyph-name="nine.lf" horiz-adv-x="536" 
d="M268 679q106 0 172.5 -64.5t66.5 -167.5q0 -89 -54 -186.5t-178 -260.5h-154q97 121 173 226q-17 -3 -34 -3q-103 0 -167.5 62.5t-64.5 161.5q0 103 67 167.5t173 64.5zM164 447q0 -47 28.5 -76t74.5 -29t75 29t29 76q0 46 -29 75.5t-75 29.5t-74.5 -29.5t-28.5 -75.5z
" />
    <glyph glyph-name="zero.dnom" horiz-adv-x="349" 
d="M174 -8q-72 0 -113.5 57.5t-41.5 156.5q0 100 41.5 158t113.5 58t114 -58t42 -158q0 -99 -42 -156.5t-114 -57.5zM174 83q28 0 44 32.5t16 90.5q0 59 -16 91.5t-44 32.5q-58 0 -58 -124q0 -123 58 -123z" />
    <glyph glyph-name="one.dnom" horiz-adv-x="357" 
d="M248 90h78v-90h-259v90h85v202l-83 -30l-19 90l193 69h5v-331z" />
    <glyph glyph-name="two.dnom" horiz-adv-x="350" 
d="M139 90h175v-90h-298q4 55 24.5 96t47 63.5t52.5 40t43.5 37.5t17.5 44q0 49 -65 49q-50 0 -86 -34l-28 87q49 38 120 38t113.5 -37.5t42.5 -101.5q0 -38 -20 -69t-44.5 -47.5t-53.5 -37.5t-41 -38z" />
    <glyph glyph-name="three.dnom" horiz-adv-x="353" 
d="M235 214q66 -29 66 -98q0 -57 -45.5 -90.5t-120.5 -33.5q-69 0 -116 27l17 93q37 -29 96 -29q72 0 72 41q0 44 -74 44h-32v86h32q59 0 59 39q0 37 -53 37q-47 0 -88 -29l-18 88q51 32 113 32q63 0 103 -33t40 -85q0 -58 -51 -89z" />
    <glyph glyph-name="four.dnom" horiz-adv-x="345" 
d="M290 165h44v-86h-44v-79h-93v79h-186v86l135 249h144v-249zM109 165h88v161z" />
    <glyph glyph-name="five.dnom" horiz-adv-x="353" 
d="M157 -8q-80 0 -134 42l37 87q38 -37 93 -37q34 0 52.5 14t18.5 40q0 50 -71 50q-27 0 -58 -13l-60 19l27 220h229v-92h-143l-9 -53q17 3 33 3q65 0 107 -38t42 -98q0 -64 -45.5 -104t-118.5 -40z" />
    <glyph glyph-name="six.dnom" horiz-adv-x="355" 
d="M180 286q69 0 112.5 -40.5t43.5 -104.5q0 -65 -44.5 -106.5t-114.5 -41.5q-69 0 -113 41.5t-44 106.5q0 60 31.5 116t111.5 157h114q-16 -19 -53 -62t-58 -67q5 1 14 1zM177 84q28 0 45 16t17 41q0 26 -17 42t-45 16q-26 0 -43.5 -16.5t-17.5 -41.5t17.5 -41t43.5 -16z
" />
    <glyph glyph-name="seven.dnom" horiz-adv-x="353" 
d="M340 414l-191 -414h-102l149 322h-179v92h323z" />
    <glyph glyph-name="eight.dnom" horiz-adv-x="350" 
d="M271 218q55 -28 55 -95q0 -59 -40.5 -94.5t-109.5 -35.5q-70 0 -111 35.5t-41 94.5q0 66 55 95q-41 29 -41 84q0 54 36.5 86t101.5 32q64 0 100.5 -32t36.5 -86q0 -56 -42 -84zM176 329q-43 0 -43 -36q0 -37 43 -37q41 0 41 37q0 36 -41 36zM176 84q56 0 56 43
q0 21 -15 33.5t-41 12.5q-56 0 -56 -46q0 -43 56 -43z" />
    <glyph glyph-name="nine.dnom" horiz-adv-x="355" 
d="M178 421q69 0 113 -41.5t44 -106.5q0 -60 -31 -115.5t-111 -157.5h-115q21 24 60.5 70t50.5 59q-5 -1 -14 -1q-69 0 -112.5 40.5t-43.5 104.5q0 65 44.5 106.5t114.5 41.5zM178 215q26 0 43.5 16.5t17.5 41.5t-17.5 41t-43.5 16q-28 0 -45 -16t-17 -41q0 -26 17 -42
t45 -16z" />
    <glyph glyph-name="zero.numr" horiz-adv-x="349" 
d="M174 245q-72 0 -113.5 57.5t-41.5 156.5q0 100 41.5 158t113.5 58t114 -58t42 -158q0 -99 -42 -156.5t-114 -57.5zM174 336q28 0 44 32.5t16 90.5q0 59 -16 91.5t-44 32.5q-58 0 -58 -124q0 -123 58 -123z" />
    <glyph glyph-name="one.numr" horiz-adv-x="357" 
d="M248 343h78v-90h-259v90h85v202l-83 -30l-19 90l193 69h5v-331z" />
    <glyph glyph-name="two.numr" horiz-adv-x="350" 
d="M139 343h175v-90h-298q4 55 24.5 96t47 63.5t52.5 40t43.5 37.5t17.5 44q0 49 -65 49q-50 0 -86 -34l-28 87q49 38 120 38t113.5 -37.5t42.5 -101.5q0 -38 -20 -69t-44.5 -47.5t-53.5 -37.5t-41 -38z" />
    <glyph glyph-name="three.numr" horiz-adv-x="353" 
d="M235 467q66 -29 66 -98q0 -57 -45.5 -90.5t-120.5 -33.5q-69 0 -116 27l17 93q37 -29 96 -29q72 0 72 41q0 44 -74 44h-32v86h32q59 0 59 39q0 37 -53 37q-47 0 -88 -29l-18 88q51 32 113 32q63 0 103 -33t40 -85q0 -58 -51 -89z" />
    <glyph glyph-name="four.numr" horiz-adv-x="345" 
d="M290 418h44v-86h-44v-79h-93v79h-186v86l135 249h144v-249zM109 418h88v161z" />
    <glyph glyph-name="five.numr" horiz-adv-x="353" 
d="M157 245q-80 0 -134 42l37 87q38 -37 93 -37q34 0 52.5 14t18.5 40q0 50 -71 50q-27 0 -58 -13l-60 19l27 220h229v-92h-143l-9 -53q17 3 33 3q65 0 107 -38t42 -98q0 -64 -45.5 -104t-118.5 -40z" />
    <glyph glyph-name="six.numr" horiz-adv-x="355" 
d="M180 539q69 0 112.5 -40.5t43.5 -104.5q0 -65 -44.5 -106.5t-114.5 -41.5q-69 0 -113 41.5t-44 106.5q0 60 31.5 116t111.5 157h114q-16 -19 -53 -62t-58 -67q5 1 14 1zM177 337q28 0 45 16t17 41q0 26 -17 42t-45 16q-26 0 -43.5 -16.5t-17.5 -41.5t17.5 -41t43.5 -16z
" />
    <glyph glyph-name="seven.numr" horiz-adv-x="353" 
d="M340 667l-191 -414h-102l149 322h-179v92h323z" />
    <glyph glyph-name="eight.numr" horiz-adv-x="350" 
d="M271 471q55 -28 55 -95q0 -59 -40.5 -94.5t-109.5 -35.5q-70 0 -111 35.5t-41 94.5q0 66 55 95q-41 29 -41 84q0 54 36.5 86t101.5 32q64 0 100.5 -32t36.5 -86q0 -56 -42 -84zM176 582q-43 0 -43 -36q0 -37 43 -37q41 0 41 37q0 36 -41 36zM176 337q56 0 56 43
q0 21 -15 33.5t-41 12.5q-56 0 -56 -46q0 -43 56 -43z" />
    <glyph glyph-name="nine.numr" horiz-adv-x="355" 
d="M178 674q69 0 113 -41.5t44 -106.5q0 -60 -31 -115.5t-111 -157.5h-115q21 24 60.5 70t50.5 59q-5 -1 -14 -1q-69 0 -112.5 40.5t-43.5 104.5q0 65 44.5 106.5t114.5 41.5zM178 468q26 0 43.5 16.5t17.5 41.5t-17.5 41t-43.5 16q-28 0 -45 -16t-17 -41q0 -26 17 -42
t45 -16z" />
    <glyph glyph-name="caroncomb.alt" 
d="M-185 526l20 176h125l-64 -176h-81z" />
    <glyph glyph-name="uni0308.case" 
d="M-308 709q-31 0 -51 19.5t-20 50.5t19.5 51t51.5 20q31 0 50.5 -20t19.5 -51t-19.5 -50.5t-50.5 -19.5zM-110 709q-31 0 -50.5 19.5t-19.5 50.5q0 32 19.5 51.5t50.5 19.5t50.5 -20t19.5 -51t-19.5 -50.5t-50.5 -19.5z" />
    <glyph glyph-name="uni0307.case" 
d="M-118 706q-34 0 -55.5 20.5t-21.5 52.5q0 33 21.5 53.5t55.5 20.5q35 0 56.5 -20.5t21.5 -53.5q0 -32 -21.5 -52.5t-56.5 -20.5z" />
    <glyph glyph-name="gravecomb.case" 
d="M-40 712h-120l-123 155h143z" />
    <glyph glyph-name="acutecomb.case" 
d="M-283 712l100 155h143l-123 -155h-120z" />
    <glyph glyph-name="uni030B.case" 
d="M-465 712l100 155h139l-123 -155h-116zM-279 712l100 155h139l-123 -155h-116z" />
    <glyph glyph-name="uni0302.case" 
d="M-40 712h-116l-54 78l-54 -78h-116l98 155h144z" />
    <glyph glyph-name="uni030C.case" 
d="M-156 867h116l-98 -155h-144l-98 155h116l54 -78z" />
    <glyph glyph-name="uni0306.case" 
d="M-131 865h91q0 -69 -42 -113t-108 -44t-108.5 44.5t-42.5 112.5h92q0 -28 16.5 -44.5t42.5 -16.5t42.5 17t16.5 44z" />
    <glyph glyph-name="uni030A.case" 
d="M-148 697q-44 0 -76.5 32t-32.5 76q0 45 32 77t77 32t76.5 -31.5t31.5 -77.5q0 -44 -31.5 -76t-76.5 -32zM-148 755q20 0 35 15t15 35q0 21 -15 35.5t-35 14.5q-21 0 -36 -14.5t-15 -35.5q0 -20 15 -35t36 -15z" />
    <glyph glyph-name="tildecomb.case" 
d="M-401 708q0 70 30 114t84 44q36 0 72.5 -26.5t50.5 -26.5q35 0 35 53h89q0 -71 -29.5 -114.5t-83.5 -43.5q-36 0 -73 26t-51 26q-16 0 -25.5 -14.5t-9.5 -37.5h-89z" />
    <glyph glyph-name="uni0304.case" 
d="M-336 817h296v-92h-296v92z" />
    <glyph glyph-name="uni0335.case" 
d="M-401 397h361v-110h-361v110z" />
    <glyph glyph-name="uni0336.case" 
d="M-716 597h676v-94h-676v94z" />
    <glyph glyph-name="uni0337.case" 
d="M-397 327l357 207v-122l-357 -206v121z" />
    <glyph glyph-name="uni0338.case" 
d="M-120 683l80 -50l-534 -649l-80 50z" />
    <glyph glyph-name="uni0308.narrow" 
d="M-280 563q-29 0 -48.5 19.5t-19.5 50.5t19.5 51t48.5 20t48.5 -20t19.5 -51t-19.5 -50.5t-48.5 -19.5zM-108 563q-30 0 -49 19.5t-19 50.5t19 51t49 20t49 -20t19 -51t-19 -50.5t-49 -19.5z" />
    <glyph glyph-name="tildecomb.narrow" 
d="M-345 548q0 71 25 114.5t71 43.5q27 0 47 -13t33 -26.5t23 -13.5q25 0 25 53h81q0 -71 -25 -114.5t-71 -43.5q-27 0 -47 13t-33 26t-23 13q-25 0 -25 -52h-81z" />
    <glyph glyph-name="uni0304.narrow" 
d="M-313 679h273v-93h-273v93z" />
    <glyph glyph-name="acute.case" horiz-adv-x="323" 
d="M40 712l100 155h143l-123 -155h-120z" />
    <glyph glyph-name="breve.case" horiz-adv-x="381" 
d="M250 865h91q0 -69 -42 -113t-108 -44t-108.5 44.5t-42.5 112.5h92q0 -28 16.5 -44.5t42.5 -16.5t42.5 17t16.5 44z" />
    <glyph glyph-name="caron.case" horiz-adv-x="420" 
d="M264 867h116l-98 -155h-144l-98 155h116l54 -78z" />
    <glyph glyph-name="circumflex.case" horiz-adv-x="420" 
d="M380 712h-116l-54 78l-54 -78h-116l98 155h144z" />
    <glyph glyph-name="dieresis.case" horiz-adv-x="419" 
d="M111 709q-31 0 -51 19.5t-20 50.5t20 51t51 20t50.5 -20t19.5 -51t-19.5 -50.5t-50.5 -19.5zM309 709q-31 0 -50.5 19.5t-19.5 50.5q0 32 19.5 51.5t50.5 19.5t50.5 -20t19.5 -51t-19.5 -50.5t-50.5 -19.5z" />
    <glyph glyph-name="dotaccent.case" horiz-adv-x="235" 
d="M117 706q-34 0 -55.5 20.5t-21.5 52.5q0 33 21.5 53.5t55.5 20.5q35 0 56.5 -20.5t21.5 -53.5q0 -32 -21.5 -52.5t-56.5 -20.5z" />
    <glyph glyph-name="grave.case" horiz-adv-x="323" 
d="M283 712h-120l-123 155h143z" />
    <glyph glyph-name="hungarumlaut.case" horiz-adv-x="505" 
d="M40 712l100 155h139l-123 -155h-116zM226 712l100 155h139l-123 -155h-116z" />
    <glyph glyph-name="macron.case" horiz-adv-x="376" 
d="M40 817h296v-92h-296v92z" />
    <glyph glyph-name="ring.case" horiz-adv-x="297" 
d="M149 697q-44 0 -76.5 32t-32.5 76q0 45 32 77t77 32t76.5 -31.5t31.5 -77.5q0 -44 -31.5 -76t-76.5 -32zM149 755q20 0 35 15t15 35q0 21 -15 35.5t-35 14.5q-21 0 -36 -14.5t-15 -35.5q0 -20 15 -35t36 -15z" />
    <glyph glyph-name="tilde.case" horiz-adv-x="441" 
d="M40 708q0 70 30 114t84 44q36 0 72.5 -26.5t50.5 -26.5q35 0 35 53h89q0 -71 -29.5 -114.5t-83.5 -43.5q-36 0 -73 26t-51 26q-16 0 -25.5 -14.5t-9.5 -37.5h-89z" />
    </font>
</defs>
</svg>
