<?xml version="1.0" standalone="no"?>
<!DOCTYPE svg PUBLIC "-//W3C//DTD SVG 1.1//EN" "http://www.w3.org/Graphics/SVG/1.1/DTD/svg11.dtd" >
<svg xmlns="http://www.w3.org/2000/svg" xmlns:xlink="http://www.w3.org/1999/xlink" version="1.1">
<metadata>
Created by FontForge 20161013 at Tue Mar 21 20:11:42 2017
 By ,,,
Copyright 2017 Allianz SE  All rights preserved
</metadata>
<defs>
<font id="AllianzNeo-CondensedBold" horiz-adv-x="0" >
  <font-face 
    font-family="Allianz Neo Condensed Bold"
    font-weight="700"
    font-stretch="condensed"
    units-per-em="1000"
    panose-1="2 11 8 6 2 2 3 2 2 4"
    ascent="764"
    descent="-236"
    x-height="481"
    cap-height="667"
    bbox="-596 -292 868 911"
    underline-thickness="50"
    underline-position="-200"
    unicode-range="U+000D-FEFF"
  />
<missing-glyph horiz-adv-x="388" 
d="M15 0v667h358v-667h-358zM75 59h238v549h-238v-549z" />
    <glyph glyph-name="uniFB00" unicode="ff" horiz-adv-x="555" 
d="M216 604q-47 0 -47 -55v-68h88v-108h-88v-373h-116v373h-45v108h45v74q0 75 37.5 115t108.5 40q38 0 71 -14l-17 -100q-19 8 -37 8zM454 549v-68h88v-108h-88v-373h-116v373h-45v108h45v74q0 75 37.5 115t108.5 40q38 0 71 -14l-17 -100q-19 8 -37 8q-47 0 -47 -55z" />
    <glyph glyph-name="fi" unicode="fi" horiz-adv-x="481" 
d="M216 604q-47 0 -47 -55v-68h88v-108h-88v-373h-116v373h-45v108h45v74q0 75 37.5 115t108.5 40q38 0 71 -14l-17 -100q-19 8 -37 8zM376 565q-31 0 -50 19.5t-19 49.5q0 31 19 50.5t50 19.5t50 -19.5t19 -50.5q0 -30 -19 -49.5t-50 -19.5zM318 0v481h116v-481h-116z" />
    <glyph glyph-name="fl" unicode="fl" horiz-adv-x="514" 
d="M216 604q-47 0 -47 -55v-68h88v-108h-88v-373h-116v373h-45v108h45v74q0 75 37.5 115t108.5 40q38 0 71 -14l-17 -100q-19 8 -37 8zM497 106l12 -98q-29 -13 -74 -13q-60 0 -88.5 31.5t-28.5 100.5v575h116v-554q0 -47 36 -47q14 0 27 5z" />
    <glyph glyph-name="uniFB03" unicode="ffi" horiz-adv-x="766" 
d="M216 604q-47 0 -47 -55v-68h88v-108h-88v-373h-116v373h-45v108h45v74q0 75 37.5 115t108.5 40q38 0 71 -14l-17 -100q-19 8 -37 8zM501 604q-47 0 -47 -55v-68h88v-108h-88v-373h-116v373h-45v108h45v74q0 75 37.5 115t108.5 40q38 0 71 -14l-17 -100q-19 8 -37 8z
M661 565q-31 0 -50 19.5t-19 49.5q0 31 19 50.5t50 19.5t50 -19.5t19 -50.5q0 -30 -19 -49.5t-50 -19.5zM603 0v481h116v-481h-116z" />
    <glyph glyph-name="uniFB04" unicode="ffl" horiz-adv-x="799" 
d="M216 604q-47 0 -47 -55v-68h88v-108h-88v-373h-116v373h-45v108h45v74q0 75 37.5 115t108.5 40q38 0 71 -14l-17 -100q-19 8 -37 8zM501 604q-47 0 -47 -55v-68h88v-108h-88v-373h-116v373h-45v108h45v74q0 75 37.5 115t108.5 40q38 0 71 -14l-17 -100q-19 8 -37 8z
M782 106l12 -98q-29 -13 -74 -13q-60 0 -88.5 31.5t-28.5 100.5v575h116v-554q0 -47 36 -47q14 0 27 5z" />
    <glyph glyph-name=".notdef" horiz-adv-x="388" 
d="M15 0v667h358v-667h-358zM75 59h238v549h-238v-549z" />
    <glyph glyph-name=".null" 
 />
    <glyph glyph-name="nonmarkingreturn" horiz-adv-x="333" 
 />
    <glyph glyph-name="NULL" 
 />
    <glyph glyph-name="NULL" 
 />
    <glyph glyph-name="CR" unicode="&#xd;" horiz-adv-x="226" 
 />
    <glyph glyph-name="space" unicode=" " horiz-adv-x="226" 
 />
    <glyph glyph-name="exclam" unicode="!" horiz-adv-x="228" 
d="M64 213l-12 454h124l-12 -454h-100zM114 -11q-34 0 -55.5 22t-21.5 55t21.5 55t55.5 22t55.5 -22t21.5 -55t-21.5 -55t-55.5 -22z" />
    <glyph glyph-name="quotedbl" unicode="&#x22;" horiz-adv-x="372" 
d="M40 414l-16 253h132l-16 -253h-100zM231 414l-16 253h132l-16 -253h-100z" />
    <glyph glyph-name="numbersign" unicode="#" horiz-adv-x="534" 
d="M496 400h-69l-18 -133h67l-14 -99h-67l-24 -168h-106l24 168h-91l-24 -168h-106l24 168h-68l14 99h68l20 133h-68l13 99h69l24 168h106l-24 -168h90l24 168h105l-24 -168h68zM303 267l19 133h-90l-20 -133h91z" />
    <glyph glyph-name="dollar" unicode="$" horiz-adv-x="420" 
d="M392 211q0 -65 -31 -109.5t-87 -63.5v-78h-120v65q-70 8 -119 39l26 112q57 -37 120 -37q40 0 63.5 19t23.5 48q0 27 -23.5 45.5t-57.5 32t-68 32t-57.5 57t-23.5 95.5q0 65 30 108t86 60v70h120v-65q56 -9 97 -35l-26 -112q-54 37 -113 37q-35 0 -53 -17t-18 -44
q0 -30 24 -50t57.5 -33.5t67.5 -30.5t58 -53.5t24 -91.5z" />
    <glyph glyph-name="percent" unicode="%" horiz-adv-x="628" 
d="M152 361q-61 0 -96 42.5t-35 116.5q0 73 35 115t96 42t96.5 -42t35.5 -115q0 -74 -35.5 -116.5t-96.5 -42.5zM464 667h124l-424 -667h-124zM152 450q38 0 38 70q0 69 -38 69t-38 -69q0 -70 38 -70zM476 -9q-61 0 -96.5 42t-35.5 116t35.5 116t96.5 42t96 -42t35 -116
t-35 -116t-96 -42zM476 80q38 0 38 69q0 70 -38 70t-38 -70q0 -69 38 -69z" />
    <glyph glyph-name="ampersand" unicode="&#x26;" horiz-adv-x="533" 
d="M530 60l-96 -69l-55 58q-64 -61 -149 -61q-90 0 -146 58.5t-56 145.5q0 97 87 176q-42 75 -42 145q0 76 44 120.5t111 44.5q62 0 100.5 -39t38.5 -104q0 -95 -106 -178q5 -6 14.5 -17t12.5 -15q47 -55 75 -85q12 41 20 108l112 -16q-12 -103 -48 -184q47 -52 83 -88z
M222 571q-16 0 -26 -15t-10 -41q0 -38 20 -76q48 42 48 84q0 48 -32 48zM228 96q43 0 77 34q-40 44 -106 122l-26 32q-32 -37 -32 -86q0 -47 23 -74.5t64 -27.5z" />
    <glyph glyph-name="quotesingle" unicode="'" horiz-adv-x="180" 
d="M40 414l-16 253h132l-16 -253h-100z" />
    <glyph glyph-name="parenleft" unicode="(" horiz-adv-x="296" 
d="M284 -123l-91 -64q-163 186 -163 451t163 451l91 -64q-139 -156 -139 -387t139 -387z" />
    <glyph glyph-name="parenright" unicode=")" horiz-adv-x="296" 
d="M11 -123q139 156 139 387t-139 387l92 64q163 -186 163 -451t-163 -451z" />
    <glyph glyph-name="asterisk" unicode="*" horiz-adv-x="339" 
d="M124 311l-80 61l64 95l-92 27l30 98l87 -53l-13 128h99l-13 -128l87 53l30 -98l-92 -27l64 -95l-80 -61l-45 112z" />
    <glyph glyph-name="plus" unicode="+" horiz-adv-x="437" 
d="M400 310v-100h-132v-175h-99v175h-132v100h132v175h99v-175h132z" />
    <glyph glyph-name="comma" unicode="," horiz-adv-x="219" 
d="M93 -155l-94 22l74 276l121 -28z" />
    <glyph glyph-name="hyphen" unicode="-" horiz-adv-x="260" 
d="M24 318h212v-116h-212v116z" />
    <glyph glyph-name="period" unicode="." horiz-adv-x="212" 
d="M106 -10q-34 0 -56 22.5t-22 57.5t22 57.5t56 22.5t56.5 -23t22.5 -57q0 -35 -22.5 -57.5t-56.5 -22.5z" />
    <glyph glyph-name="slash" unicode="/" horiz-adv-x="369" 
d="M114 -175h-114l247 842h114z" />
    <glyph glyph-name="zero" unicode="0" horiz-adv-x="420" 
d="M210 -12q-189 0 -189 345t189 345t189 -345t-189 -345zM210 105q35 0 52 53t17 175q0 123 -17 176t-52 53t-52 -53t-17 -176q0 -122 17 -175t52 -53z" />
    <glyph glyph-name="one" unicode="1" horiz-adv-x="420" 
d="M295 116h91v-116h-322v116h108v385l-96 -45l-24 114l233 109h10v-563z" />
    <glyph glyph-name="two" unicode="2" horiz-adv-x="420" 
d="M166 116h215v-116h-366q5 85 30.5 150t58.5 103t65 69.5t54 66.5t22 77q0 45 -23 70t-65 25q-57 0 -99 -40l-32 106q62 51 145 51q90 0 143.5 -57t53.5 -152q0 -52 -17 -95.5t-43 -75t-53 -59t-52.5 -59.5t-36.5 -64z" />
    <glyph glyph-name="three" unicode="3" horiz-adv-x="420" 
d="M274 343q89 -43 89 -156q0 -91 -58.5 -145t-156.5 -54q-78 0 -130 36l18 114q42 -33 104 -33q47 0 73.5 23.5t26.5 66.5t-27 66.5t-76 23.5h-28v110h28q42 0 63.5 22t21.5 62q0 38 -21 60t-59 22q-50 0 -93 -34l-18 111q55 40 127 40q85 0 137 -52t52 -137
q0 -101 -73 -146z" />
    <glyph glyph-name="four" unicode="4" horiz-adv-x="420" 
d="M357 253h51v-111h-51v-142h-119v142h-226v111l154 414h191v-414zM127 253h111v298z" />
    <glyph glyph-name="five" unicode="5" horiz-adv-x="420" 
d="M174 -12q-87 0 -153 57l42 109q48 -49 106 -49q44 0 68.5 30t24.5 82q0 104 -87 104q-35 0 -63 -21l-77 24l33 343h281v-117h-175l-11 -130q16 6 38 6q82 0 133.5 -58t51.5 -152q0 -100 -59.5 -164t-152.5 -64z" />
    <glyph glyph-name="six" unicode="6" horiz-adv-x="420" 
d="M219 445q80 0 130 -62.5t50 -162.5q0 -103 -52.5 -167.5t-136.5 -64.5t-136 64t-52 168q0 90 42.5 190t135.5 257h136q-21 -37 -64 -111t-64 -111h11zM210 105q30 0 47.5 30.5t17.5 84.5t-17.5 84.5t-47.5 30.5t-47.5 -31t-17.5 -84q0 -54 17.5 -84.5t47.5 -30.5z" />
    <glyph glyph-name="seven" unicode="7" horiz-adv-x="420" 
d="M408 667l-230 -667h-126l190 550h-225v117h391z" />
    <glyph glyph-name="eight" unicode="8" horiz-adv-x="420" 
d="M318 351q77 -45 77 -160q0 -93 -50 -148t-136 -55q-85 0 -135 55t-50 148q0 115 78 160q-56 44 -56 142q0 86 42.5 135.5t120.5 49.5q79 0 122 -50t43 -135q0 -97 -56 -142zM209 561q-48 0 -48 -78q0 -80 48 -80q49 0 49 80q0 78 -49 78zM209 105q63 0 63 94q0 95 -63 95
q-30 0 -46 -25t-16 -70t16.5 -69.5t45.5 -24.5z" />
    <glyph glyph-name="nine" unicode="9" horiz-adv-x="420" 
d="M210 679q83 0 135.5 -64.5t52.5 -167.5q0 -90 -42.5 -190t-135.5 -257h-137l129 222h-11q-80 0 -130 62.5t-50 162.5q0 103 52.5 167.5t136.5 64.5zM144 447q0 -53 17.5 -84t47.5 -31t48 30.5t18 84.5t-18 84.5t-48 30.5t-47.5 -30.5t-17.5 -84.5z" />
    <glyph glyph-name="colon" unicode=":" horiz-adv-x="212" 
d="M106 318q-34 0 -56 22.5t-22 57.5t22 57.5t56 22.5t56.5 -23t22.5 -57q0 -35 -22.5 -57.5t-56.5 -22.5zM106 -10q-34 0 -56 22.5t-22 57.5t22 57.5t56 22.5t56.5 -23t22.5 -57q0 -35 -22.5 -57.5t-56.5 -22.5z" />
    <glyph glyph-name="uni003B" unicode=";" horiz-adv-x="239" 
d="M132 326q-34 0 -56 22.5t-22 57.5t22 57.5t56 22.5t56.5 -23t22.5 -57q0 -35 -22.5 -57.5t-56.5 -22.5zM93 -149l-94 22l74 276l121 -28z" />
    <glyph glyph-name="less" unicode="&#x3c;" horiz-adv-x="437" 
d="M400 499v-111l-278 -128l278 -128v-111l-363 167v144z" />
    <glyph glyph-name="equal" unicode="=" horiz-adv-x="437" 
d="M37 422h363v-101h-363v101zM37 200h363v-101h-363v101z" />
    <glyph glyph-name="greater" unicode="&#x3e;" horiz-adv-x="437" 
d="M37 499l363 -167v-144l-363 -167v111l278 128l-278 128v111z" />
    <glyph glyph-name="question" unicode="?" horiz-adv-x="394" 
d="M88 213v7q0 45 15.5 80.5t37.5 57t44 39.5t37.5 40t15.5 48q0 34 -24 55t-67 21q-60 0 -104 -39l-32 108q62 48 151 48q90 0 145 -51t55 -136q0 -47 -16 -82.5t-39 -56.5t-45.5 -39t-38.5 -41t-16 -52v-7h-119zM147 -11q-33 0 -54.5 22t-21.5 55t21.5 55t54.5 22
q34 0 55.5 -22t21.5 -55t-21.5 -55t-55.5 -22z" />
    <glyph glyph-name="at" unicode="@" horiz-adv-x="749" 
d="M440 451h92v-258q0 -22 5 -31t18 -9q30 0 47.5 38t17.5 108q0 136 -64.5 212t-177.5 76q-116 0 -182 -85.5t-66 -238.5q0 -156 66 -244t182 -88q99 0 169 52l42 -97q-86 -62 -211 -62q-160 0 -257 120t-97 319q0 195 97 312.5t257 117.5q158 0 253 -107.5t95 -286.5
q0 -116 -47 -185.5t-124 -69.5q-41 0 -69 20t-39 56q-40 -63 -99 -63q-61 0 -98.5 56t-37.5 145q0 90 37.5 145.5t98.5 55.5q56 0 92 -52v44zM374 154q59 0 59 104q0 53 -16 79t-43 26q-28 0 -45.5 -29t-17.5 -76q0 -46 17.5 -75t45.5 -29z" />
    <glyph glyph-name="A" unicode="A" horiz-adv-x="563" 
d="M433 0l-47 161h-208l-47 -161h-131l207 667h149l207 -667h-130zM211 278h141l-70 243z" />
    <glyph glyph-name="B" unicode="B" horiz-adv-x="526" 
d="M410 347q94 -50 94 -160q0 -84 -57.5 -135.5t-155.5 -51.5h-235v667h220q94 0 149 -50t55 -131q0 -89 -70 -139zM276 551h-96v-157h96q37 0 58.5 21.5t21.5 56.5q0 36 -21.5 57.5t-58.5 21.5zM291 116q43 0 66 23t23 62q0 38 -23 61t-66 23h-111v-169h111z" />
    <glyph glyph-name="C" unicode="C" horiz-adv-x="499" 
d="M314 -12q-129 0 -206.5 93.5t-77.5 251.5q0 159 77 252.5t207 93.5q98 0 163 -51l-29 -111q-55 45 -127 45q-79 0 -123 -60t-44 -169q0 -108 44 -168t123 -60q70 0 127 46l30 -112q-66 -51 -164 -51z" />
    <glyph glyph-name="D" unicode="D" horiz-adv-x="544" 
d="M56 0v667h162q142 0 219.5 -91t77.5 -243t-77.5 -242.5t-219.5 -90.5h-162zM180 117h38q88 0 130.5 57.5t42.5 158.5t-42.5 159t-130.5 58h-38v-433z" />
    <glyph glyph-name="E" unicode="E" horiz-adv-x="469" 
d="M433 550h-253v-150h197v-116h-197v-167h253v-117h-377v667h377v-117z" />
    <glyph glyph-name="F" unicode="F" horiz-adv-x="462" 
d="M441 550h-261v-179h211v-116h-211v-255h-124v667h385v-117z" />
    <glyph glyph-name="G" unicode="G" horiz-adv-x="535" 
d="M283 376h212v-322q-77 -66 -192 -66q-125 0 -199 93t-74 252t77 252.5t207 93.5q98 0 163 -51l-29 -111q-55 45 -127 45q-79 0 -123 -60t-44 -169t41 -169t115 -60q31 0 60 13v143h-87v116z" />
    <glyph glyph-name="H" unicode="H" horiz-adv-x="575" 
d="M395 667h124v-667h-124v284h-215v-284h-124v667h124v-267h215v267z" />
    <glyph glyph-name="I" unicode="I" horiz-adv-x="236" 
d="M56 667h124v-667h-124v667z" />
    <glyph glyph-name="J" unicode="J" horiz-adv-x="321" 
d="M92 -9q-48 0 -86 12l19 111q26 -7 48 -7q73 0 73 84v476h125v-493q0 -89 -46.5 -136t-132.5 -47z" />
    <glyph glyph-name="K" unicode="K" horiz-adv-x="572" 
d="M415 0l-169 280l-66 -83v-197h-124v667h124v-292l216 292h156l-230 -290l243 -377h-150z" />
    <glyph glyph-name="L" unicode="L" horiz-adv-x="417" 
d="M56 0v667h124v-550h226v-117h-350z" />
    <glyph glyph-name="M" unicode="M" horiz-adv-x="745" 
d="M689 667v-667h-124v496l-164 -384h-57l-164 382v-494h-124v667h175l141 -330l141 330h176z" />
    <glyph glyph-name="N" unicode="N" horiz-adv-x="620" 
d="M440 667h124v-667h-171l-213 485v-485h-124v667h171l213 -485v485z" />
    <glyph glyph-name="O" unicode="O" horiz-adv-x="609" 
d="M305 -12q-126 0 -200.5 93.5t-74.5 251.5t74.5 252t200.5 94q125 0 199.5 -94t74.5 -252t-74.5 -251.5t-199.5 -93.5zM305 105q70 0 110 60t40 168t-40 168.5t-110 60.5t-110.5 -60.5t-40.5 -168.5q0 -107 40.5 -167.5t110.5 -60.5z" />
    <glyph glyph-name="P" unicode="P" horiz-adv-x="511" 
d="M267 667q102 0 162 -59.5t60 -156.5t-60 -156.5t-162 -59.5h-87v-235h-124v667h211zM267 352q45 0 71.5 27t26.5 72t-26.5 72t-71.5 27h-87v-198h87z" />
    <glyph glyph-name="Q" unicode="Q" horiz-adv-x="609" 
d="M591 20l-89 -62l-62 66q-61 -36 -135 -36q-126 0 -200.5 93.5t-74.5 251.5t74.5 252t200.5 94q125 0 199.5 -94t74.5 -252q0 -144 -62 -235zM305 105q27 0 50 9l-92 98l91 60l76 -80q25 56 25 141q0 108 -40 168.5t-110 60.5t-110.5 -60.5t-40.5 -168.5
q0 -107 40.5 -167.5t110.5 -60.5z" />
    <glyph glyph-name="R" unicode="R" horiz-adv-x="530" 
d="M365 0l-130 242h-55v-242h-124v667h211q102 0 162 -58.5t60 -154.5q0 -70 -33 -121t-93 -74l144 -259h-142zM180 550v-199h87q45 0 71.5 27.5t26.5 72.5t-26.5 72t-71.5 27h-87z" />
    <glyph glyph-name="S" unicode="S" horiz-adv-x="474" 
d="M41 30l26 115q66 -40 141 -40q51 0 81 22t30 58q0 28 -20 48.5t-50 32.5t-65 30t-65 39t-50 60.5t-20 93.5q0 91 55 141t153 50q99 0 166 -41l-25 -114q-63 39 -133 39q-92 0 -92 -72q0 -36 28 -60.5t67.5 -40.5t79 -36.5t67.5 -62t28 -102.5q0 -94 -62 -147.5
t-169 -53.5q-102 0 -171 41z" />
    <glyph glyph-name="T" unicode="T" horiz-adv-x="471" 
d="M450 667v-117h-153v-550h-124v550h-152v117h429z" />
    <glyph glyph-name="U" unicode="U" horiz-adv-x="547" 
d="M273 -12q-110 0 -171 65t-61 183v431h124v-419q0 -73 26 -108t82 -35t82.5 34.5t26.5 108.5v419h124v-431q0 -118 -61 -183t-172 -65z" />
    <glyph glyph-name="V" unicode="V" horiz-adv-x="580" 
d="M440 667h135l-212 -667h-146l-212 667h135l150 -513z" />
    <glyph glyph-name="W" unicode="W" horiz-adv-x="836" 
d="M699 667h126l-149 -667h-171l-86 488l-87 -488h-172l-149 667h127l106 -527l94 527h160l94 -529z" />
    <glyph glyph-name="X" unicode="X" horiz-adv-x="575" 
d="M568 0h-147l-133 258l-133 -258h-148l197 346l-182 321h147l119 -233l118 233h147l-181 -321z" />
    <glyph glyph-name="Y" unicode="Y" horiz-adv-x="538" 
d="M207 0v275l-216 392h149l130 -264l129 264h147l-214 -392v-275h-125z" />
    <glyph glyph-name="Z" unicode="Z" horiz-adv-x="498" 
d="M189 117h276v-117h-432v99l265 451h-253v117h409v-97z" />
    <glyph glyph-name="bracketleft" unicode="[" horiz-adv-x="299" 
d="M283 -68v-107h-235v877h235v-107h-119v-663h119z" />
    <glyph glyph-name="backslash" unicode="\" horiz-adv-x="369" 
d="M255 -175l-247 842h114l247 -842h-114z" />
    <glyph glyph-name="bracketright" unicode="]" horiz-adv-x="299" 
d="M16 -68h120v663h-120v107h235v-877h-235v107z" />
    <glyph glyph-name="asciicircum" unicode="^" horiz-adv-x="346" 
d="M8 415l106 252h118l106 -252h-106l-59 160l-59 -160h-106z" />
    <glyph glyph-name="underscore" unicode="_" horiz-adv-x="404" 
d="M0 -51h404v-83h-404v83z" />
    <glyph glyph-name="grave" unicode="`" horiz-adv-x="287" 
d="M247 554h-108l-99 151h128z" />
    <glyph glyph-name="a" unicode="a" horiz-adv-x="471" 
d="M197 -11q-78 0 -124.5 69t-46.5 182t46.5 182t124.5 69q75 0 118 -72v62h108v-481h-108v62q-43 -73 -118 -73zM227 99q38 0 59 36t21 105q0 141 -80 141q-39 0 -62 -38.5t-23 -102.5t23 -102.5t62 -38.5z" />
    <glyph glyph-name="b" unicode="b" horiz-adv-x="471" 
d="M274 491q78 0 124.5 -69t46.5 -182t-46.5 -182t-124.5 -69q-75 0 -118 73v-62h-108v702h116v-273q42 62 110 62zM244 99q39 0 62 38.5t23 102.5t-23 102.5t-62 38.5q-80 0 -80 -141q0 -69 21 -105t59 -36z" />
    <glyph glyph-name="c" unicode="c" horiz-adv-x="362" 
d="M227 -11q-90 0 -145.5 69t-55.5 182t55.5 181.5t145.5 68.5q68 0 121 -39l-30 -102q-36 31 -78 31q-45 0 -71.5 -37.5t-26.5 -102.5q0 -66 26.5 -104t71.5 -38q40 0 78 30l30 -100q-53 -39 -121 -39z" />
    <glyph glyph-name="d" unicode="d" horiz-adv-x="471" 
d="M307 702h116v-702h-108v62q-43 -73 -118 -73q-78 0 -124.5 69t-46.5 182t46.5 182t124.5 69q68 0 110 -62v273zM227 99q38 0 59 36t21 105q0 141 -80 141q-39 0 -62 -38.5t-23 -102.5t23 -102.5t62 -38.5z" />
    <glyph glyph-name="e" unicode="e" horiz-adv-x="427" 
d="M401 249q0 -19 -2 -47h-258q14 -107 106 -107q58 0 114 36l31 -99q-68 -43 -151 -43q-97 0 -156 66t-59 185q0 114 52 182t136 68t135.5 -65t51.5 -176zM216 389q-30 0 -50 -26t-26 -74h149q-8 100 -73 100z" />
    <glyph glyph-name="f" unicode="f" horiz-adv-x="270" 
d="M169 549v-68h88v-108h-88v-373h-116v373h-45v108h45v74q0 75 37.5 115t108.5 40q38 0 71 -14l-17 -100q-19 8 -37 8q-47 0 -47 -55z" />
    <glyph glyph-name="g" unicode="g" horiz-adv-x="471" 
d="M315 481h108v-453q0 -101 -57.5 -156.5t-162.5 -55.5q-83 0 -152 37l28 105q57 -36 119 -36q109 0 109 114v34q-42 -59 -110 -59q-78 0 -124.5 66.5t-46.5 173.5t46.5 173.5t124.5 66.5q75 0 118 -72v62zM227 120q38 0 59 33.5t21 97.5t-21 98t-59 34q-39 0 -62 -36.5
t-23 -95.5t23 -95t62 -36z" />
    <glyph glyph-name="h" unicode="h" horiz-adv-x="460" 
d="M275 491q68 0 106 -47t38 -131v-313h-116v289q0 92 -66 92q-35 0 -54 -23t-19 -66v-292h-116v702h116v-267q37 56 111 56z" />
    <glyph glyph-name="i" unicode="i" horiz-adv-x="211" 
d="M106 565q-31 0 -50 19.5t-19 49.5q0 31 19 50.5t50 19.5t50 -19.5t19 -50.5q0 -30 -19 -49.5t-50 -19.5zM48 481h116v-481h-116v481z" />
    <glyph glyph-name="j" unicode="j" horiz-adv-x="211" 
d="M106 565q-31 0 -50 19.5t-19 49.5q0 31 19 50.5t50 19.5t50 -19.5t19 -50.5q0 -30 -19 -49.5t-50 -19.5zM-27 -174l7 103q10 -2 14 -2q54 0 54 68v486h116v-496q0 -78 -37.5 -121t-107.5 -43q-24 0 -46 5z" />
    <glyph glyph-name="k" unicode="k" horiz-adv-x="453" 
d="M312 0l-106 187l-42 -50v-137h-116v702h116v-407l140 186h143l-164 -200l169 -281h-140z" />
    <glyph glyph-name="l" unicode="l" horiz-adv-x="244" 
d="M48 702h116v-554q0 -47 36 -47q14 0 27 5l12 -98q-29 -13 -74 -13q-60 0 -88.5 31.5t-28.5 100.5v575z" />
    <glyph glyph-name="m" unicode="m" horiz-adv-x="671" 
d="M490 491q66 0 103 -45t37 -125v-321h-116v297q0 84 -56 84q-61 0 -61 -75v-306h-116v297q0 84 -57 84q-60 0 -60 -75v-306h-116v481h108v-51q33 61 108 61q74 0 110 -62q35 62 116 62z" />
    <glyph glyph-name="n" unicode="n" horiz-adv-x="460" 
d="M275 491q67 0 105.5 -47t38.5 -131v-313h-116v289q0 92 -66 92q-35 0 -54 -23t-19 -66v-292h-116v481h108v-60q35 70 119 70z" />
    <glyph glyph-name="o" unicode="o" horiz-adv-x="448" 
d="M225 -11q-91 0 -145 68t-54 183q0 114 54 182t145 68q90 0 143.5 -68t53.5 -182q0 -115 -53.5 -183t-143.5 -68zM224 98q38 0 60 37.5t22 104.5q0 66 -22 103t-60 37t-60 -37t-22 -103q0 -67 22 -104.5t60 -37.5z" />
    <glyph glyph-name="p" unicode="p" horiz-adv-x="471" 
d="M274 491q78 0 124.5 -69t46.5 -182t-46.5 -182t-124.5 -69q-69 0 -110 63v-227h-116v656h108v-62q43 72 118 72zM244 99q39 0 62 38.5t23 102.5t-23 102.5t-62 38.5q-80 0 -80 -141q0 -69 21 -105t59 -36z" />
    <glyph glyph-name="q" unicode="q" horiz-adv-x="471" 
d="M315 481h108v-656h-116v226q-42 -62 -110 -62q-78 0 -124.5 69t-46.5 182t46.5 182t124.5 69q75 0 118 -72v62zM227 99q38 0 59 36t21 105q0 141 -80 141q-39 0 -62 -38.5t-23 -102.5t23 -102.5t62 -38.5z" />
    <glyph glyph-name="r" unicode="r" horiz-adv-x="313" 
d="M256 487q29 0 52 -10l-15 -115q-21 9 -43 9q-86 0 -86 -115v-256h-116v481h108v-76q30 82 100 82z" />
    <glyph glyph-name="s" unicode="s" horiz-adv-x="355" 
d="M17 21l26 106q53 -34 109 -34q31 0 49 13t18 33t-19.5 33t-47.5 23.5t-55.5 25t-47 46t-19.5 77.5q0 70 42 107.5t118 37.5q77 0 131 -31l-27 -102q-47 30 -97 30q-53 0 -53 -40q0 -22 19.5 -36t47 -24t55.5 -23.5t47.5 -43t19.5 -74.5q0 -73 -47.5 -114t-129.5 -41
q-79 0 -139 31z" />
    <glyph glyph-name="t" unicode="t" horiz-adv-x="286" 
d="M257 108l16 -100q-39 -15 -84 -15q-66 0 -101 37t-35 106v237h-45v108h45v111l116 22v-133h99v-108h-99v-219q0 -54 49 -54q20 0 39 8z" />
    <glyph glyph-name="u" unicode="u" horiz-adv-x="460" 
d="M297 481h115v-481h-108v60q-35 -70 -118 -70q-68 0 -106.5 46.5t-38.5 130.5v314h116v-290q0 -92 67 -92q34 0 53.5 23.5t19.5 65.5v293z" />
    <glyph glyph-name="v" unicode="v" horiz-adv-x="439" 
d="M313 481h122l-146 -481h-140l-145 481h122l93 -350z" />
    <glyph glyph-name="w" unicode="w" horiz-adv-x="656" 
d="M534 481h115l-106 -481h-146l-69 335l-69 -335h-146l-106 481h115l64 -345l72 345h140l73 -347z" />
    <glyph glyph-name="x" unicode="x" horiz-adv-x="447" 
d="M446 0h-137l-84 174l-88 -174h-136l142 249l-130 232h136l76 -156l73 156h136l-129 -232z" />
    <glyph glyph-name="y" unicode="y" horiz-adv-x="439" 
d="M310 481h124l-158 -502q-28 -88 -68.5 -125t-105.5 -37q-33 0 -64 11l17 110q25 -7 40 -7q26 0 40.5 15.5t26.5 58.5l-158 476h124l93 -316z" />
    <glyph glyph-name="z" unicode="z" horiz-adv-x="377" 
d="M170 106h180v-106h-323v90l171 283h-163v108h307v-90z" />
    <glyph glyph-name="braceleft" unicode="{" horiz-adv-x="340" 
d="M204 385q0 -47 -19 -78.5t-48 -42.5q29 -12 48 -43.5t19 -78.5v-95q0 -55 24 -85t65 -30h31v-107h-33q-92 0 -147.5 50.5t-55.5 143.5v102q0 46 -18.5 72.5t-45.5 26.5v87q27 0 45.5 26.5t18.5 72.5v102q0 93 55.5 143.5t147.5 50.5h33v-107h-31q-41 0 -65 -30t-24 -85
v-95z" />
    <glyph glyph-name="bar" unicode="|" horiz-adv-x="272" 
d="M76 702h120v-877h-120v877z" />
    <glyph glyph-name="braceright" unicode="}" horiz-adv-x="340" 
d="M252 406q0 -46 18.5 -72.5t44.5 -26.5v-87q-26 0 -44.5 -26.5t-18.5 -72.5v-102q0 -93 -55.5 -143.5t-147.5 -50.5h-33v107h30q41 0 65.5 30t24.5 85v95q0 47 19 78.5t48 43.5q-29 11 -48 42.5t-19 78.5v95q0 55 -24.5 85t-65.5 30h-30v107h33q92 0 147.5 -50.5
t55.5 -143.5v-102z" />
    <glyph glyph-name="asciitilde" unicode="~" horiz-adv-x="502" 
d="M40 147q0 99 36 159.5t100 60.5q31 0 56 -16t38.5 -34.5t27.5 -34.5t26 -16q35 0 35 101h103q0 -99 -36 -159.5t-101 -60.5q-31 0 -56 16t-38 34.5t-27.5 34.5t-25.5 16q-35 0 -35 -101h-103z" />
    <glyph glyph-name="uni00A0" unicode="&#xa0;" horiz-adv-x="226" 
 />
    <glyph glyph-name="exclamdown" unicode="&#xa1;" horiz-adv-x="229" 
d="M115 490q33 0 54.5 -22t21.5 -55t-21.5 -55t-54.5 -22q-34 0 -56 22t-22 55t22 55t56 22zM164 253l12 -428h-124l13 428h99z" />
    <glyph glyph-name="cent" unicode="&#xa2;" horiz-adv-x="420" 
d="M341 228l30 -100q-33 -25 -74 -34v-94h-111v100q-63 22 -100 85.5t-37 154.5t37 154t100 86v87h111v-82q41 -9 74 -34l-30 -102q-36 31 -78 31q-45 0 -71.5 -37.5t-26.5 -102.5q0 -66 26.5 -104t71.5 -38q40 0 78 30z" />
    <glyph glyph-name="sterling" unicode="&#xa3;" horiz-adv-x="420" 
d="M301 198l111 -22q-15 -92 -60 -134t-134 -42h-198v117h53q21 45 21 92q0 29 -9 78h-65v104h45q-9 54 -9 93q0 87 50 139t133 52q78 0 139 -46l-33 -108q-40 37 -89 37q-77 0 -77 -90q0 -28 7 -77h113v-104h-96q6 -54 6 -78q0 -48 -19 -92h24q44 0 62 17.5t25 63.5z" />
    <glyph glyph-name="currency" unicode="&#xa4;" horiz-adv-x="420" 
d="M378 334q0 -62 -22 -112l57 -70l-72 -75l-53 65q-34 -21 -78 -21t-78 21l-53 -65l-73 75l57 70q-22 50 -22 112t22 112l-57 70l73 75l53 -65q34 21 78 21q45 0 78 -21l53 65l72 -75l-57 -70q22 -50 22 -112zM144 334q0 -50 18 -78.5t48 -28.5t48 28.5t18 78.5t-18 78.5
t-48 28.5t-48 -28.5t-18 -78.5z" />
    <glyph glyph-name="yen" unicode="&#xa5;" horiz-adv-x="420" 
d="M425 667l-134 -300h97v-90h-115v-53h115v-89h-115v-135h-124v135h-116v89h116v53h-116v90h97l-135 300h135l80 -226l80 226h135z" />
    <glyph glyph-name="brokenbar" unicode="&#xa6;" horiz-adv-x="272" 
d="M76 702h120v-329h-120v329zM76 154h120v-329h-120v329z" />
    <glyph glyph-name="section" unicode="&#xa7;" horiz-adv-x="439" 
d="M328 131q56 -44 56 -129q0 -88 -59.5 -137.5t-162.5 -49.5q-79 0 -141 28l26 106q53 -29 115 -29q50 0 78 21t28 56q0 31 -26 50.5t-63 32.5t-73.5 30.5t-62.5 56t-26 97.5q0 100 88 136q-55 46 -55 135q0 84 52.5 129.5t146.5 45.5q76 0 134 -26l-25 -103
q-51 24 -106 24q-86 0 -86 -68q0 -33 26 -54t63 -34.5t73.5 -30t62.5 -53t26 -93.5q0 -99 -89 -141zM301 266q0 32 -25 50.5t-66 18.5q-38 0 -57.5 -18.5t-19.5 -50.5q0 -37 23 -56.5t60 -19.5q38 0 61.5 21t23.5 55z" />
    <glyph glyph-name="dieresis" unicode="&#xa8;" horiz-adv-x="370" 
d="M103 568q-28 0 -45.5 18.5t-17.5 47.5q0 30 17.5 48.5t45.5 18.5t45.5 -18.5t17.5 -48.5q0 -29 -17.5 -47.5t-45.5 -18.5zM266 568q-28 0 -45 18.5t-17 47.5q0 30 17 48.5t45 18.5q29 0 46.5 -18.5t17.5 -48.5q0 -29 -18 -47.5t-46 -18.5z" />
    <glyph glyph-name="copyright" unicode="&#xa9;" horiz-adv-x="623" 
d="M312 -12q-124 0 -202 96t-78 250q0 153 78 249t202 96q123 0 201 -96t78 -249q0 -154 -78 -250t-201 -96zM312 53q95 0 153 77t58 204q0 126 -58 203t-153 77q-96 0 -154.5 -77t-58.5 -203q0 -127 58.5 -204t154.5 -77zM328 134q-74 0 -118 54t-44 145q0 92 44 146
t118 54q58 0 98 -35l-21 -78q-29 31 -73 31q-41 0 -63 -31t-22 -87t22 -86.5t63 -30.5q40 0 73 31l21 -81q-41 -32 -98 -32z" />
    <glyph glyph-name="ordfeminine" unicode="&#xaa;" horiz-adv-x="287" 
d="M128 678q63 0 97.5 -36t34.5 -102v-207h-79v27q-24 -35 -73 -35q-44 0 -69.5 28.5t-25.5 77.5q0 50 27 79t74 29q36 0 62 -16v14q0 62 -62 62q-36 0 -70 -22l-13 74q39 27 97 27zM136 391q40 0 40 47v26q-13 8 -34 8q-46 0 -46 -41q0 -40 40 -40z" />
    <glyph glyph-name="guillemotleft" unicode="&#xab;" horiz-adv-x="526" 
d="M272 437l-122 -179l122 -179h-142l-122 179l122 179h142zM502 437l-122 -179l122 -179h-142l-122 179l122 179h142z" />
    <glyph glyph-name="logicalnot" unicode="&#xac;" horiz-adv-x="437" 
d="M37 419h363v-364h-99v263h-264v101z" />
    <glyph glyph-name="uni00AD" unicode="&#xad;" horiz-adv-x="260" 
d="M24 318h212v-116h-212v116z" />
    <glyph glyph-name="registered" unicode="&#xae;" horiz-adv-x="307" 
d="M153 679q58 0 98 -48.5t40 -117.5t-40 -118t-98 -49q-57 0 -97 49t-40 118q0 68 40 117t97 49zM153 386q43 0 73 37t30 90t-30 90t-73 37q-42 0 -72 -37.5t-30 -89.5q0 -53 30 -90t72 -37zM186 490l36 -66h-48l-30 60h-8v-60h-39v177h63q24 0 38.5 -16t14.5 -42
q0 -37 -27 -53zM160 561h-24v-39h24q14 0 14 20q0 19 -14 19z" />
    <glyph glyph-name="macron" unicode="&#xaf;" horiz-adv-x="323" 
d="M40 676h243v-86h-243v86z" />
    <glyph glyph-name="degree" unicode="&#xb0;" horiz-adv-x="258" 
d="M129 422q-47 0 -76 34.5t-29 91.5t29 92.5t76 35.5t76 -35t29 -93q0 -57 -29 -91.5t-76 -34.5zM129 485q19 0 30 17t11 46q0 30 -11 47t-30 17q-18 0 -29.5 -17t-11.5 -47q0 -28 11.5 -45.5t29.5 -17.5z" />
    <glyph glyph-name="plusminus" unicode="&#xb1;" horiz-adv-x="437" 
d="M268 376h132v-101h-132v-146h-99v146h-132v101h132v158h99v-158zM37 -13v101h363v-101h-363z" />
    <glyph glyph-name="uni00B2" unicode="&#xb2;" horiz-adv-x="281" 
d="M116 487h138v-84h-244q4 55 20 96.5t36.5 64.5t41 42t34 39t13.5 44q0 50 -52 50q-38 0 -66 -26l-24 80q42 31 97 31q60 0 95.5 -36t35.5 -98q0 -38 -16 -70t-36 -50t-42 -40.5t-31 -42.5z" />
    <glyph glyph-name="uni00B3" unicode="&#xb3;" horiz-adv-x="282" 
d="M180 616q62 -27 62 -99q0 -56 -39.5 -89t-105.5 -33q-47 0 -85 19l14 86q28 -20 66 -20q65 0 65 46q0 47 -65 47h-26v82h26q53 0 53 43q0 41 -47 41q-35 0 -63 -20l-13 80q37 25 85 25q54 0 88.5 -32.5t34.5 -84.5q0 -62 -50 -91z" />
    <glyph glyph-name="acute" unicode="&#xb4;" horiz-adv-x="287" 
d="M40 554l79 151h128l-99 -151h-108z" />
    <glyph glyph-name="uni00B5" unicode="&#xb5;" horiz-adv-x="467" 
d="M445 102q6 0 18 2v-102q-29 -8 -63 -8q-71 0 -89 50q-37 -55 -102 -55q-21 0 -45 7v-171h-116v656h116v-289q0 -93 66 -93q35 0 54 23.5t19 66.5v292h116v-349q0 -30 26 -30z" />
    <glyph glyph-name="paragraph" unicode="&#xb6;" horiz-adv-x="589" 
d="M513 667v-842h-116v734h-71v-734h-116v458h-13q-81 0 -128 53t-47 139q0 87 47 139.5t128 52.5h316z" />
    <glyph glyph-name="periodcentered" unicode="&#xb7;" horiz-adv-x="212" 
d="M106 174q-34 0 -56 22.5t-22 57.5t22 57.5t56 22.5t56.5 -23t22.5 -57q0 -35 -22.5 -57.5t-56.5 -22.5z" />
    <glyph glyph-name="cedilla" unicode="&#xb8;" horiz-adv-x="225" 
d="M121 -37q30 -3 47 -22t17 -49q0 -36 -23.5 -56.5t-63.5 -20.5q-34 0 -58 13l12 56q13 -8 28 -8q28 0 28 20q0 19 -21 19q-7 0 -13 -3l-17 6l15 82h56z" />
    <glyph glyph-name="uni00B9" unicode="&#xb9;" horiz-adv-x="288" 
d="M202 487h62v-84h-213v84h66v213l-64 -28l-17 83l162 69h4v-337z" />
    <glyph glyph-name="ordmasculine" unicode="&#xba;" horiz-adv-x="314" 
d="M157 325q-63 0 -101 48t-38 128q0 81 38 129t101 48q64 0 101 -48t37 -129t-37 -128.5t-101 -47.5zM157 409q26 0 40.5 24.5t14.5 67.5t-14.5 67.5t-40.5 24.5t-40.5 -24.5t-14.5 -67.5t14.5 -67.5t40.5 -24.5z" />
    <glyph glyph-name="guillemotright" unicode="&#xbb;" horiz-adv-x="526" 
d="M24 437h142l122 -179l-122 -179h-142l122 179zM254 437h142l122 -179l-122 -179h-142l122 179z" />
    <glyph glyph-name="onequarter" unicode="&#xbc;" horiz-adv-x="758" 
d="M264 253h-213v84h66v213l-64 -28l-17 83l162 69h4v-337h62v-84zM551 667h106l-409 -667h-105zM717 162h32v-81h-32v-81h-82v81h-148v81l103 252h127v-252zM567 162h71v174z" />
    <glyph glyph-name="onehalf" unicode="&#xbd;" horiz-adv-x="784" 
d="M264 253h-213v84h66v213l-64 -28l-17 83l162 69h4v-337h62v-84zM551 667h106l-409 -667h-105zM619 84h138v-84h-244q4 55 20 96.5t36.5 64.5t41 42t34 39t13.5 44q0 50 -52 50q-38 0 -66 -26l-24 80q42 31 97 31q60 0 95.5 -36t35.5 -98q0 -38 -16 -70t-36 -50t-42 -40.5
t-31 -42.5z" />
    <glyph glyph-name="threequarters" unicode="&#xbe;" horiz-adv-x="744" 
d="M242 367q0 -56 -39.5 -89t-105.5 -33q-47 0 -85 19l14 86q28 -20 66 -20q65 0 65 46q0 47 -65 47h-26v82h26q53 0 53 43q0 41 -47 41q-35 0 -63 -20l-13 80q37 25 85 25q54 0 88.5 -32.5t34.5 -84.5q0 -62 -50 -91q62 -27 62 -99zM537 667h106l-409 -667h-105zM703 162
h32v-81h-32v-81h-82v81h-148v81l103 252h127v-252zM553 162h71v174z" />
    <glyph glyph-name="questiondown" unicode="&#xbf;" horiz-adv-x="394" 
d="M247 492q33 0 54.5 -22t21.5 -55q0 -34 -21.5 -56t-54.5 -22q-34 0 -55.5 22t-21.5 56q0 33 21.5 55t55.5 22zM306 268v-7q0 -45 -15.5 -80.5t-37.5 -57t-44 -39.5t-37.5 -40t-15.5 -48q0 -35 24 -56t67 -21q59 0 104 40l32 -108q-62 -48 -151 -48q-90 0 -145 50.5
t-55 136.5q0 47 16 82.5t38.5 56.5t45.5 39t39 41t16 52v7h119z" />
    <glyph glyph-name="Agrave" unicode="&#xc0;" horiz-adv-x="563" 
d="M365 714h-108l-99 151h128zM433 0l-47 161h-208l-47 -161h-131l207 667h149l207 -667h-130zM211 278h141l-70 243z" />
    <glyph glyph-name="Aacute" unicode="&#xc1;" horiz-adv-x="563" 
d="M404 865l-99 -151h-108l79 151h128zM433 0l-47 161h-208l-47 -161h-131l207 667h149l207 -667h-130zM211 278h141l-70 243z" />
    <glyph glyph-name="Acircumflex" unicode="&#xc2;" horiz-adv-x="563" 
d="M281 789l-41 -75h-104l79 151h131l79 -151h-104zM433 0l-47 161h-208l-47 -161h-131l207 667h149l207 -667h-130zM211 278h141l-70 243z" />
    <glyph glyph-name="Atilde" unicode="&#xc3;" horiz-adv-x="563" 
d="M237 766q-27 0 -27 -56h-79q0 69 25 111t71 42q25 0 43.5 -14t31.5 -28t24 -14q27 0 27 56h79q0 -69 -25 -111t-71 -42q-25 0 -44 14t-32 28t-23 14zM433 0l-47 161h-208l-47 -161h-131l207 667h149l207 -667h-130zM211 278h141l-70 243z" />
    <glyph glyph-name="Adieresis" unicode="&#xc4;" horiz-adv-x="563" 
d="M199 714q-28 0 -45.5 19t-17.5 48t17.5 47.5t45.5 18.5t45.5 -18.5t17.5 -47.5t-17.5 -48t-45.5 -19zM362 714q-28 0 -45 19t-17 48t17 47.5t45 18.5t46 -18.5t18 -47.5t-18 -48t-46 -19zM433 0l-47 161h-208l-47 -161h-131l207 667h149l207 -667h-130zM211 278h141
l-70 243z" />
    <glyph glyph-name="Aring" unicode="&#xc5;" horiz-adv-x="563" 
d="M281 698q-44 0 -73 30.5t-29 76.5t29 76t73 30t72.5 -30t28.5 -76t-29 -76.5t-72 -30.5zM281 857q-20 0 -34 -15t-14 -37t14 -37.5t34 -15.5t33.5 15t13.5 38q0 22 -13.5 37t-33.5 15zM433 0l-47 161h-208l-47 -161h-131l207 667h149l207 -667h-130zM211 278h141l-70 243
z" />
    <glyph glyph-name="AE" unicode="&#xc6;" horiz-adv-x="760" 
d="M724 551h-261l11 -151h194v-116h-185l12 -168h229v-116h-345l-12 161h-181l-65 -161h-133l270 667h466v-116zM233 277h126l-19 264z" />
    <glyph glyph-name="Ccedilla" unicode="&#xc7;" horiz-adv-x="499" 
d="M321 -37q30 -3 47 -22t17 -49q0 -36 -23.5 -56.5t-63.5 -20.5q-34 0 -58 13l12 56q13 -8 28 -8q28 0 28 20q0 19 -21 19q-7 0 -13 -3l-17 6l13 73q-111 16 -175.5 107t-64.5 235q0 159 77 252.5t207 93.5q98 0 163 -51l-29 -111q-55 45 -127 45q-79 0 -123 -60t-44 -169
q0 -108 44 -168t123 -60q70 0 127 46l30 -112q-62 -48 -152 -51z" />
    <glyph glyph-name="Egrave" unicode="&#xc8;" horiz-adv-x="469" 
d="M329 714h-108l-99 151h128zM433 550h-253v-150h197v-116h-197v-167h253v-117h-377v667h377v-117z" />
    <glyph glyph-name="Eacute" unicode="&#xc9;" horiz-adv-x="469" 
d="M161 714l79 151h128l-99 -151h-108zM433 550h-253v-150h197v-116h-197v-167h253v-117h-377v667h377v-117z" />
    <glyph glyph-name="Ecircumflex" unicode="&#xca;" horiz-adv-x="469" 
d="M245 789l-41 -75h-104l79 151h131l79 -151h-104zM433 550h-253v-150h197v-116h-197v-167h253v-117h-377v667h377v-117z" />
    <glyph glyph-name="Edieresis" unicode="&#xcb;" horiz-adv-x="469" 
d="M163 714q-28 0 -45.5 19t-17.5 48t17.5 47.5t45.5 18.5t45.5 -18.5t17.5 -47.5t-17.5 -48t-45.5 -19zM326 714q-28 0 -45 19t-17 48t17 47.5t45 18.5t46 -18.5t18 -47.5t-18 -48t-46 -19zM433 550h-253v-150h197v-116h-197v-167h253v-117h-377v667h377v-117z" />
    <glyph glyph-name="Igrave" unicode="&#xcc;" horiz-adv-x="236" 
d="M202 714h-108l-99 151h128zM56 667h124v-667h-124v667z" />
    <glyph glyph-name="Iacute" unicode="&#xcd;" horiz-adv-x="236" 
d="M34 714l79 151h128l-99 -151h-108zM56 667h124v-667h-124v667z" />
    <glyph glyph-name="Icircumflex" unicode="&#xce;" horiz-adv-x="236" 
d="M118 789l-41 -75h-104l79 151h131l79 -151h-104zM56 0v667h124v-667h-124z" />
    <glyph glyph-name="Idieresis" unicode="&#xcf;" horiz-adv-x="236" 
d="M36 714q-28 0 -45.5 19t-17.5 48t17.5 47.5t45.5 18.5t45.5 -18.5t17.5 -47.5t-17.5 -48t-45.5 -19zM199 714q-28 0 -45 19t-17 48t17 47.5t45 18.5t46 -18.5t18 -47.5t-18 -48t-46 -19zM56 667h124v-667h-124v667z" />
    <glyph glyph-name="Eth" unicode="&#xd0;" horiz-adv-x="544" 
d="M218 667q142 0 219.5 -91t77.5 -243t-77.5 -242.5t-219.5 -90.5h-162v286h-53v100h53v281h162zM218 117q88 0 130.5 57.5t42.5 158.5t-42.5 159t-130.5 58h-38v-164h119v-100h-119v-169h38z" />
    <glyph glyph-name="Ntilde" unicode="&#xd1;" horiz-adv-x="620" 
d="M266 766q-27 0 -27 -56h-79q0 69 25 111t71 42q25 0 43.5 -14t31.5 -28t24 -14q27 0 27 56h79q0 -69 -25 -111t-71 -42q-25 0 -44 14t-32 28t-23 14zM440 667h124v-667h-171l-213 485v-485h-124v667h171l213 -485v485z" />
    <glyph glyph-name="Ograve" unicode="&#xd2;" horiz-adv-x="609" 
d="M389 714h-108l-99 151h128zM305 -12q-126 0 -200.5 93.5t-74.5 251.5t74.5 252t200.5 94q125 0 199.5 -94t74.5 -252t-74.5 -251.5t-199.5 -93.5zM305 105q70 0 110 60t40 168t-40 168.5t-110 60.5t-110.5 -60.5t-40.5 -168.5q0 -107 40.5 -167.5t110.5 -60.5z" />
    <glyph glyph-name="Oacute" unicode="&#xd3;" horiz-adv-x="609" 
d="M221 714l79 151h128l-99 -151h-108zM305 -12q-126 0 -200.5 93.5t-74.5 251.5t74.5 252t200.5 94q125 0 199.5 -94t74.5 -252t-74.5 -251.5t-199.5 -93.5zM305 105q70 0 110 60t40 168t-40 168.5t-110 60.5t-110.5 -60.5t-40.5 -168.5q0 -107 40.5 -167.5t110.5 -60.5z
" />
    <glyph glyph-name="Ocircumflex" unicode="&#xd4;" horiz-adv-x="609" 
d="M305 789l-41 -75h-104l79 151h131l79 -151h-104zM305 679q125 0 199.5 -94t74.5 -252t-74.5 -251.5t-199.5 -93.5q-126 0 -200.5 93.5t-74.5 251.5t74.5 252t200.5 94zM305 105q70 0 110 60t40 168t-40 168.5t-110 60.5t-110.5 -60.5t-40.5 -168.5q0 -107 40.5 -167.5
t110.5 -60.5z" />
    <glyph glyph-name="Otilde" unicode="&#xd5;" horiz-adv-x="609" 
d="M155 710q0 69 25 111t71 42q25 0 43.5 -14t31.5 -28t24 -14q27 0 27 56h79q0 -69 -25 -111t-71 -42q-25 0 -44 14t-32 28t-23 14q-27 0 -27 -56h-79zM305 -12q-126 0 -200.5 93.5t-74.5 251.5t74.5 252t200.5 94q125 0 199.5 -94t74.5 -252t-74.5 -251.5t-199.5 -93.5z
M305 105q70 0 110 60t40 168t-40 168.5t-110 60.5t-110.5 -60.5t-40.5 -168.5q0 -107 40.5 -167.5t110.5 -60.5z" />
    <glyph glyph-name="Odieresis" unicode="&#xd6;" horiz-adv-x="609" 
d="M223 714q-28 0 -45.5 19t-17.5 48t17.5 47.5t45.5 18.5t45.5 -18.5t17.5 -47.5t-17.5 -48t-45.5 -19zM386 714q-28 0 -45 19t-17 48t17 47.5t45 18.5t46 -18.5t18 -47.5t-18 -48t-46 -19zM305 -12q-126 0 -200.5 93.5t-74.5 251.5t74.5 252t200.5 94q125 0 199.5 -94
t74.5 -252t-74.5 -251.5t-199.5 -93.5zM305 105q70 0 110 60t40 168t-40 168.5t-110 60.5t-110.5 -60.5t-40.5 -168.5q0 -107 40.5 -167.5t110.5 -60.5z" />
    <glyph glyph-name="multiply" unicode="&#xd7;" horiz-adv-x="437" 
d="M389 404l-107 -144l107 -143l-82 -60l-88 119l-89 -119l-81 60l107 143l-107 143l80 60l89 -119l89 119z" />
    <glyph glyph-name="Oslash" unicode="&#xd8;" horiz-adv-x="609" 
d="M514 572q65 -91 65 -239q0 -158 -74.5 -251.5t-199.5 -93.5q-84 0 -148 44l-31 -48l-72 46l42 63q-66 91 -66 240q0 158 74.5 252t200.5 94q84 0 148 -45l31 47l72 -46zM154 333q0 -75 19 -123l214 324q-36 28 -82 28q-70 0 -110.5 -60.5t-40.5 -168.5zM305 105
q70 0 110 60t40 168q0 73 -18 122l-213 -323q34 -27 81 -27z" />
    <glyph glyph-name="Ugrave" unicode="&#xd9;" horiz-adv-x="547" 
d="M357 714h-108l-99 151h128zM273 -12q-110 0 -171 65t-61 183v431h124v-419q0 -73 26 -108t82 -35t82.5 34.5t26.5 108.5v419h124v-431q0 -118 -61 -183t-172 -65z" />
    <glyph glyph-name="Uacute" unicode="&#xda;" horiz-adv-x="547" 
d="M189 714l79 151h128l-99 -151h-108zM273 -12q-110 0 -171 65t-61 183v431h124v-419q0 -73 26 -108t82 -35t82.5 34.5t26.5 108.5v419h124v-431q0 -118 -61 -183t-172 -65z" />
    <glyph glyph-name="Ucircumflex" unicode="&#xdb;" horiz-adv-x="547" 
d="M273 789l-41 -75h-104l79 151h131l79 -151h-104zM382 667h124v-431q0 -118 -61 -183t-172 -65q-110 0 -171 65t-61 183v431h124v-419q0 -73 26 -108t82 -35t82.5 34.5t26.5 108.5v419z" />
    <glyph glyph-name="Udieresis" unicode="&#xdc;" horiz-adv-x="547" 
d="M191 714q-28 0 -45.5 19t-17.5 48t17.5 47.5t45.5 18.5t45.5 -18.5t17.5 -47.5t-17.5 -48t-45.5 -19zM354 714q-28 0 -45 19t-17 48t17 47.5t45 18.5t46 -18.5t18 -47.5t-18 -48t-46 -19zM273 -12q-110 0 -171 65t-61 183v431h124v-419q0 -73 26 -108t82 -35t82.5 34.5
t26.5 108.5v419h124v-431q0 -118 -61 -183t-172 -65z" />
    <glyph glyph-name="Yacute" unicode="&#xdd;" horiz-adv-x="538" 
d="M184 714l79 151h128l-99 -151h-108zM207 0v275l-216 392h149l130 -264l129 264h147l-214 -392v-275h-125z" />
    <glyph glyph-name="Thorn" unicode="&#xde;" horiz-adv-x="519" 
d="M274 561q102 0 162 -60t60 -158q0 -97 -60 -157t-162 -60h-86v-126h-124v667h124v-106h86zM274 243q45 0 71.5 27.5t26.5 72.5q0 46 -26.5 73.5t-71.5 27.5h-86v-201h86z" />
    <glyph glyph-name="germandbls" unicode="&#xdf;" horiz-adv-x="496" 
d="M369 370q96 -49 96 -171q0 -94 -52.5 -152t-135.5 -58q-53 0 -95 21l26 102q28 -13 56 -13q39 0 62 26.5t23 73.5q0 49 -26.5 77.5t-70.5 28.5h-31v106h20q36 0 57.5 26.5t21.5 72.5q0 43 -21 68t-56 25q-79 0 -79 -128v-475h-116v479q0 112 49 171.5t143 59.5
q85 0 138 -54.5t53 -144.5q0 -93 -62 -141z" />
    <glyph glyph-name="agrave" unicode="&#xe0;" horiz-adv-x="471" 
d="M324 554h-108l-99 151h128zM197 -11q-78 0 -124.5 69t-46.5 182t46.5 182t124.5 69q75 0 118 -72v62h108v-481h-108v62q-43 -73 -118 -73zM227 99q38 0 59 36t21 105q0 141 -80 141q-39 0 -62 -38.5t-23 -102.5t23 -102.5t62 -38.5z" />
    <glyph glyph-name="aacute" unicode="&#xe1;" horiz-adv-x="471" 
d="M149 554l79 151h128l-99 -151h-108zM197 -11q-78 0 -124.5 69t-46.5 182t46.5 182t124.5 69q75 0 118 -72v62h108v-481h-108v62q-43 -73 -118 -73zM227 99q38 0 59 36t21 105q0 141 -80 141q-39 0 -62 -38.5t-23 -102.5t23 -102.5t62 -38.5z" />
    <glyph glyph-name="acircumflex" unicode="&#xe2;" horiz-adv-x="471" 
d="M237 629l-41 -75h-104l79 151h131l79 -151h-104zM315 481h108v-481h-108v62q-43 -73 -118 -73q-78 0 -124.5 69t-46.5 182t46.5 182t124.5 69q75 0 118 -72v62zM227 99q38 0 59 36t21 105q0 141 -80 141q-39 0 -62 -38.5t-23 -102.5t23 -102.5t62 -38.5z" />
    <glyph glyph-name="atilde" unicode="&#xe3;" horiz-adv-x="471" 
d="M87 550q0 69 25 111t71 42q25 0 43.5 -14t31.5 -28t24 -14q27 0 27 56h79q0 -69 -25 -111t-71 -42q-25 0 -44 14t-32 28t-23 14q-27 0 -27 -56h-79zM197 -11q-78 0 -124.5 69t-46.5 182t46.5 182t124.5 69q75 0 118 -72v62h108v-481h-108v62q-43 -73 -118 -73zM227 99
q38 0 59 36t21 105q0 141 -80 141q-39 0 -62 -38.5t-23 -102.5t23 -102.5t62 -38.5z" />
    <glyph glyph-name="adieresis" unicode="&#xe4;" horiz-adv-x="471" 
d="M155 569q-28 0 -45.5 18.5t-17.5 47.5q0 30 17.5 48.5t45.5 18.5t45.5 -18.5t17.5 -48.5q0 -29 -17.5 -47.5t-45.5 -18.5zM318 569q-28 0 -45 18.5t-17 47.5q0 30 17 48.5t45 18.5q29 0 46.5 -18.5t17.5 -48.5q0 -29 -18 -47.5t-46 -18.5zM197 -11q-78 0 -124.5 69
t-46.5 182t46.5 182t124.5 69q75 0 118 -72v62h108v-481h-108v62q-43 -73 -118 -73zM227 99q38 0 59 36t21 105q0 141 -80 141q-39 0 -62 -38.5t-23 -102.5t23 -102.5t62 -38.5z" />
    <glyph glyph-name="aring" unicode="&#xe5;" horiz-adv-x="471" 
d="M237 538q-44 0 -73 30.5t-29 76.5t29 76t73 30t72.5 -30t28.5 -76t-29 -76.5t-72 -30.5zM237 592q20 0 33.5 15t13.5 38q0 22 -13.5 37t-33.5 15t-34 -15t-14 -37t14 -37.5t34 -15.5zM197 -11q-78 0 -124.5 69t-46.5 182t46.5 182t124.5 69q75 0 118 -72v62h108v-481
h-108v62q-43 -73 -118 -73zM227 99q38 0 59 36t21 105q0 141 -80 141q-39 0 -62 -38.5t-23 -102.5t23 -102.5t62 -38.5z" />
    <glyph glyph-name="ae" unicode="&#xe6;" horiz-adv-x="640" 
d="M614 249q0 -19 -2 -47h-244q13 -107 99 -107q58 0 109 35l30 -98q-64 -43 -145 -43q-101 0 -153 81q-38 -81 -137 -81q-70 0 -111.5 41t-41.5 111t42.5 109t121.5 39h71q-3 95 -95 95q-49 0 -96 -31l-18 100q59 37 136 37q94 0 137 -61q45 61 118 61q80 0 129.5 -65
t49.5 -176zM437 389q-59 0 -70 -100h135q-6 100 -65 100zM188 84q30 0 47.5 21.5t17.5 60.5v36h-50q-69 0 -69 -61q0 -26 14 -41.5t40 -15.5z" />
    <glyph glyph-name="ccedilla" unicode="&#xe7;" horiz-adv-x="362" 
d="M348 28q-52 -37 -116 -39l-5 -26q30 -3 47 -22t17 -49q0 -36 -23.5 -56.5t-63.5 -20.5q-34 0 -58 13l12 56q13 -8 28 -8q28 0 28 20q0 19 -21 19q-7 0 -13 -3l-17 6l14 77q-69 18 -110 83.5t-41 161.5q0 113 55.5 181.5t145.5 68.5q68 0 121 -39l-30 -102q-36 31 -78 31
q-45 0 -71.5 -37.5t-26.5 -102.5q0 -66 26.5 -104t71.5 -38q40 0 78 30z" />
    <glyph glyph-name="egrave" unicode="&#xe8;" horiz-adv-x="427" 
d="M300 554h-108l-99 151h128zM401 249q0 -19 -2 -47h-258q14 -107 106 -107q58 0 114 36l31 -99q-68 -43 -151 -43q-97 0 -156 66t-59 185q0 114 52 182t136 68t135.5 -65t51.5 -176zM216 389q-30 0 -50 -26t-26 -74h149q-8 100 -73 100z" />
    <glyph glyph-name="eacute" unicode="&#xe9;" horiz-adv-x="427" 
d="M332 705l-99 -151h-108l79 151h128zM401 249q0 -19 -2 -47h-258q14 -107 106 -107q58 0 114 36l31 -99q-68 -43 -151 -43q-97 0 -156 66t-59 185q0 114 52 182t136 68t135.5 -65t51.5 -176zM216 389q-30 0 -50 -26t-26 -74h149q-8 100 -73 100z" />
    <glyph glyph-name="ecircumflex" unicode="&#xea;" horiz-adv-x="427" 
d="M213 629l-41 -75h-104l79 151h131l79 -151h-104zM401 249q0 -19 -2 -47h-258q14 -107 106 -107q58 0 114 36l31 -99q-68 -43 -151 -43q-97 0 -156 66t-59 185q0 114 52 182t136 68t135.5 -65t51.5 -176zM216 389q-30 0 -50 -26t-26 -74h149q-8 100 -73 100z" />
    <glyph glyph-name="edieresis" unicode="&#xeb;" horiz-adv-x="427" 
d="M131 569q-28 0 -45.5 18.5t-17.5 47.5q0 30 17.5 48.5t45.5 18.5t45.5 -18.5t17.5 -48.5q0 -29 -17.5 -47.5t-45.5 -18.5zM294 569q-28 0 -45 18.5t-17 47.5q0 30 17 48.5t45 18.5q29 0 46.5 -18.5t17.5 -48.5q0 -29 -18 -47.5t-46 -18.5zM401 249q0 -19 -2 -47h-258
q14 -107 106 -107q58 0 114 36l31 -99q-68 -43 -151 -43q-97 0 -156 66t-59 185q0 114 52 182t136 68t135.5 -65t51.5 -176zM216 389q-30 0 -50 -26t-26 -74h149q-8 100 -73 100z" />
    <glyph glyph-name="igrave" unicode="&#xec;" horiz-adv-x="211" 
d="M193 554h-108l-99 151h128zM48 481h116v-481h-116v481z" />
    <glyph glyph-name="iacute" unicode="&#xed;" horiz-adv-x="211" 
d="M18 554l79 151h128l-99 -151h-108zM48 481h116v-481h-116v481z" />
    <glyph glyph-name="icircumflex" unicode="&#xee;" horiz-adv-x="211" 
d="M106 629l-41 -75h-104l79 151h131l79 -151h-104zM48 0v481h116v-481h-116z" />
    <glyph glyph-name="idieresis" unicode="&#xef;" horiz-adv-x="211" 
d="M35 568q-26 0 -42.5 18.5t-16.5 47.5q0 30 16.5 48.5t42.5 18.5t42 -18.5t16 -48.5q0 -29 -16 -47.5t-42 -18.5zM177 568q-26 0 -42 18.5t-16 47.5q0 30 16 48.5t42 18.5t42.5 -18.5t16.5 -48.5q0 -29 -16.5 -47.5t-42.5 -18.5zM48 481h116v-481h-116v481z" />
    <glyph glyph-name="eth" unicode="&#xf0;" horiz-adv-x="448" 
d="M321 588q101 -158 101 -342q0 -121 -53 -189t-145 -68q-91 0 -144.5 63t-53.5 170q0 102 48 163.5t128 61.5q46 0 83 -23q-24 61 -63 113l-112 -59l-16 75l79 41q-27 27 -57 51l102 66q32 -29 59 -62l91 48l18 -75zM223 99q38 0 60.5 33t22.5 90t-22 89.5t-61 32.5
q-38 0 -59.5 -32.5t-21.5 -89.5q0 -58 21.5 -90.5t59.5 -32.5z" />
    <glyph glyph-name="ntilde" unicode="&#xf1;" horiz-adv-x="460" 
d="M186 606q-27 0 -27 -56h-79q0 69 25 111t71 42q25 0 43.5 -14t31.5 -28t24 -14q27 0 27 56h79q0 -69 -25 -111t-71 -42q-25 0 -44 14t-32 28t-23 14zM275 491q67 0 105.5 -47t38.5 -131v-313h-116v289q0 92 -66 92q-35 0 -54 -23t-19 -66v-292h-116v481h108v-60
q35 70 119 70z" />
    <glyph glyph-name="ograve" unicode="&#xf2;" horiz-adv-x="448" 
d="M311 554h-108l-99 151h128zM225 -11q-91 0 -145 68t-54 183q0 114 54 182t145 68q90 0 143.5 -68t53.5 -182q0 -115 -53.5 -183t-143.5 -68zM224 98q38 0 60 37.5t22 104.5q0 66 -22 103t-60 37t-60 -37t-22 -103q0 -67 22 -104.5t60 -37.5z" />
    <glyph glyph-name="oacute" unicode="&#xf3;" horiz-adv-x="448" 
d="M136 554l79 151h128l-99 -151h-108zM225 -11q-91 0 -145 68t-54 183q0 114 54 182t145 68q90 0 143.5 -68t53.5 -182q0 -115 -53.5 -183t-143.5 -68zM224 98q38 0 60 37.5t22 104.5q0 66 -22 103t-60 37t-60 -37t-22 -103q0 -67 22 -104.5t60 -37.5z" />
    <glyph glyph-name="ocircumflex" unicode="&#xf4;" horiz-adv-x="448" 
d="M224 629l-41 -75h-104l79 151h131l79 -151h-104zM225 490q90 0 143.5 -68t53.5 -182q0 -115 -53.5 -183t-143.5 -68q-91 0 -145 68t-54 183q0 114 54 182t145 68zM224 98q38 0 60 37.5t22 104.5q0 66 -22 103t-60 37t-60 -37t-22 -103q0 -67 22 -104.5t60 -37.5z" />
    <glyph glyph-name="otilde" unicode="&#xf5;" horiz-adv-x="448" 
d="M74 550q0 69 25 111t71 42q25 0 43.5 -14t31.5 -28t24 -14q27 0 27 56h79q0 -69 -25 -111t-71 -42q-25 0 -44 14t-32 28t-23 14q-27 0 -27 -56h-79zM225 -11q-91 0 -145 68t-54 183q0 114 54 182t145 68q90 0 143.5 -68t53.5 -182q0 -115 -53.5 -183t-143.5 -68zM224 98
q38 0 60 37.5t22 104.5q0 66 -22 103t-60 37t-60 -37t-22 -103q0 -67 22 -104.5t60 -37.5z" />
    <glyph glyph-name="odieresis" unicode="&#xf6;" horiz-adv-x="448" 
d="M142 569q-28 0 -45.5 18.5t-17.5 47.5q0 30 17.5 48.5t45.5 18.5t45.5 -18.5t17.5 -48.5q0 -29 -17.5 -47.5t-45.5 -18.5zM305 569q-28 0 -45 18.5t-17 47.5q0 30 17 48.5t45 18.5q29 0 46.5 -18.5t17.5 -48.5q0 -29 -18 -47.5t-46 -18.5zM225 -11q-91 0 -145 68t-54 183
q0 114 54 182t145 68q90 0 143.5 -68t53.5 -182q0 -115 -53.5 -183t-143.5 -68zM224 98q38 0 60 37.5t22 104.5q0 66 -22 103t-60 37t-60 -37t-22 -103q0 -67 22 -104.5t60 -37.5z" />
    <glyph glyph-name="divide" unicode="&#xf7;" horiz-adv-x="437" 
d="M219 374q-29 0 -48 20t-19 51t19 51t48 20t47.5 -20t18.5 -51t-18.5 -51t-47.5 -20zM37 310h363v-100h-363v100zM219 4q-29 0 -48 20t-19 51t19 51t48 20t47.5 -20t18.5 -51t-18.5 -51t-47.5 -20z" />
    <glyph glyph-name="oslash" unicode="&#xf8;" horiz-adv-x="448" 
d="M379 407q43 -65 43 -167q0 -115 -53.5 -183t-143.5 -68q-58 0 -104 30l-24 -35l-63 37l35 52q-43 65 -43 167q0 114 54 182t145 68q59 0 102 -30l22 33l63 -37zM135 240q0 -31 5 -59l128 191q-18 15 -44 15q-41 0 -65 -39t-24 -108zM224 92q42 0 65.5 39t23.5 109
q0 34 -6 59l-128 -192q19 -15 45 -15z" />
    <glyph glyph-name="ugrave" unicode="&#xf9;" horiz-adv-x="460" 
d="M317 554h-108l-99 151h128zM297 481h115v-481h-108v60q-35 -70 -118 -70q-68 0 -106.5 46.5t-38.5 130.5v314h116v-290q0 -92 67 -92q34 0 53.5 23.5t19.5 65.5v293z" />
    <glyph glyph-name="uacute" unicode="&#xfa;" horiz-adv-x="460" 
d="M349 705l-99 -151h-108l79 151h128zM297 481h115v-481h-108v60q-35 -70 -118 -70q-68 0 -106.5 46.5t-38.5 130.5v314h116v-290q0 -92 67 -92q34 0 53.5 23.5t19.5 65.5v293z" />
    <glyph glyph-name="ucircumflex" unicode="&#xfb;" horiz-adv-x="460" 
d="M230 629l-41 -75h-104l79 151h131l79 -151h-104zM297 481h115v-481h-108v60q-35 -70 -118 -70q-68 0 -106.5 46.5t-38.5 130.5v314h116v-290q0 -92 67 -92q34 0 53.5 23.5t19.5 65.5v293z" />
    <glyph glyph-name="udieresis" unicode="&#xfc;" horiz-adv-x="460" 
d="M148 569q-28 0 -45.5 18.5t-17.5 47.5q0 30 17.5 48.5t45.5 18.5t45.5 -18.5t17.5 -48.5q0 -29 -17.5 -47.5t-45.5 -18.5zM311 569q-28 0 -45 18.5t-17 47.5q0 30 17 48.5t45 18.5q29 0 46.5 -18.5t17.5 -48.5q0 -29 -18 -47.5t-46 -18.5zM297 481h115v-481h-108v60
q-35 -70 -118 -70q-68 0 -106.5 46.5t-38.5 130.5v314h116v-290q0 -92 67 -92q34 0 53.5 23.5t19.5 65.5v293z" />
    <glyph glyph-name="yacute" unicode="&#xfd;" horiz-adv-x="439" 
d="M339 705l-99 -151h-108l79 151h128zM310 481h124l-158 -502q-28 -88 -68.5 -125t-105.5 -37q-33 0 -64 11l17 110q25 -7 40 -7q26 0 40.5 15.5t26.5 58.5l-158 476h124l93 -316z" />
    <glyph glyph-name="thorn" unicode="&#xfe;" horiz-adv-x="471" 
d="M274 491q78 0 124.5 -69t46.5 -182t-46.5 -182t-124.5 -69q-69 0 -110 63v-227h-116v877h116v-273q42 62 110 62zM244 99q39 0 62 38.5t23 102.5t-23 102.5t-62 38.5q-80 0 -80 -141q0 -69 21 -105t59 -36z" />
    <glyph glyph-name="ydieresis" unicode="&#xff;" horiz-adv-x="439" 
d="M138 569q-28 0 -45.5 18.5t-17.5 47.5q0 30 17.5 48.5t45.5 18.5t45.5 -18.5t17.5 -48.5q0 -29 -17.5 -47.5t-45.5 -18.5zM301 569q-28 0 -45 18.5t-17 47.5q0 30 17 48.5t45 18.5q29 0 46.5 -18.5t17.5 -48.5q0 -29 -18 -47.5t-46 -18.5zM310 481h124l-158 -502
q-28 -88 -68.5 -125t-105.5 -37q-33 0 -64 11l17 110q25 -7 40 -7q26 0 40.5 15.5t26.5 58.5l-158 476h124l93 -316z" />
    <glyph glyph-name="Amacron" unicode="&#x100;" horiz-adv-x="563" 
d="M402 814v-85h-243v85h243zM433 0l-47 161h-208l-47 -161h-131l207 667h149l207 -667h-130zM211 278h141l-70 243z" />
    <glyph glyph-name="amacron" unicode="&#x101;" horiz-adv-x="471" 
d="M115 677h243v-86h-243v86zM197 -11q-78 0 -124.5 69t-46.5 182t46.5 182t124.5 69q75 0 118 -72v62h108v-481h-108v62q-43 -73 -118 -73zM227 99q38 0 59 36t21 105q0 141 -80 141q-39 0 -62 -38.5t-23 -102.5t23 -102.5t62 -38.5z" />
    <glyph glyph-name="Abreve" unicode="&#x102;" horiz-adv-x="563" 
d="M281 710q-58 0 -92.5 41.5t-34.5 110.5h81q0 -30 12.5 -46.5t33.5 -16.5q46 0 46 63h80q0 -69 -34 -110.5t-92 -41.5zM433 0l-47 161h-208l-47 -161h-131l207 667h149l207 -667h-130zM211 278h141l-70 243z" />
    <glyph glyph-name="abreve" unicode="&#x103;" horiz-adv-x="471" 
d="M283 702h80q0 -69 -34 -110.5t-92 -41.5t-92.5 41.5t-34.5 110.5h81q0 -30 12.5 -46.5t33.5 -16.5q46 0 46 63zM197 -11q-78 0 -124.5 69t-46.5 182t46.5 182t124.5 69q75 0 118 -72v62h108v-481h-108v62q-43 -73 -118 -73zM227 99q38 0 59 36t21 105q0 141 -80 141
q-39 0 -62 -38.5t-23 -102.5t23 -102.5t62 -38.5z" />
    <glyph glyph-name="Aogonek" unicode="&#x104;" horiz-adv-x="563" 
d="M482 -104q12 0 23 6l15 -68q-29 -18 -67 -18q-34 0 -53.5 18.5t-19.5 53.5q0 52 53 112l-47 161h-208l-47 -161h-131l207 667h149l207 -667h-57q-44 -55 -44 -83q0 -21 20 -21zM211 278h141l-70 243z" />
    <glyph glyph-name="aogonek" unicode="&#x105;" horiz-adv-x="471" 
d="M422 -98l15 -68q-29 -18 -67 -18q-34 0 -53.5 18.5t-19.5 53.5q0 52 53 112h-35v62q-43 -73 -118 -73q-78 0 -124.5 69t-46.5 182t46.5 182t124.5 69q75 0 118 -72v62h108v-481q-44 -55 -44 -83q0 -21 20 -21q13 0 23 6zM227 99q38 0 59 36t21 105q0 141 -80 141
q-39 0 -62 -38.5t-23 -102.5t23 -102.5t62 -38.5z" />
    <glyph glyph-name="Cacute" unicode="&#x106;" horiz-adv-x="499" 
d="M216 714l79 151h128l-99 -151h-108zM314 -12q-129 0 -206.5 93.5t-77.5 251.5q0 159 77 252.5t207 93.5q98 0 163 -51l-29 -111q-55 45 -127 45q-79 0 -123 -60t-44 -169q0 -108 44 -168t123 -60q70 0 127 46l30 -112q-66 -51 -164 -51z" />
    <glyph glyph-name="cacute" unicode="&#x107;" horiz-adv-x="362" 
d="M118 554l79 151h128l-99 -151h-108zM227 -11q-90 0 -145.5 69t-55.5 182t55.5 181.5t145.5 68.5q68 0 121 -39l-30 -102q-36 31 -78 31q-45 0 -71.5 -37.5t-26.5 -102.5q0 -66 26.5 -104t71.5 -38q40 0 78 30l30 -100q-53 -39 -121 -39z" />
    <glyph glyph-name="Ccircumflex" unicode="&#x108;" horiz-adv-x="499" 
d="M300 789l-41 -75h-104l79 151h131l79 -151h-104zM448 151l30 -112q-66 -51 -164 -51q-129 0 -206.5 93.5t-77.5 251.5q0 159 77 252.5t207 93.5q98 0 163 -51l-29 -111q-55 45 -127 45q-79 0 -123 -60t-44 -169q0 -108 44 -168t123 -60q70 0 127 46z" />
    <glyph glyph-name="ccircumflex" unicode="&#x109;" horiz-adv-x="362" 
d="M206 629l-41 -75h-104l79 151h131l79 -151h-104zM240 380q-45 0 -71.5 -37.5t-26.5 -102.5q0 -66 26.5 -104t71.5 -38q40 0 78 30l30 -100q-53 -39 -121 -39q-90 0 -145.5 69t-55.5 182t55.5 181.5t145.5 68.5q68 0 121 -39l-30 -102q-36 31 -78 31z" />
    <glyph glyph-name="Cdotaccent" unicode="&#x10a;" horiz-adv-x="499" 
d="M299 711q-31 0 -50 19.5t-19 50.5t19 50t50 19t50 -19t19 -50t-19 -50.5t-50 -19.5zM314 -12q-129 0 -206.5 93.5t-77.5 251.5q0 159 77 252.5t207 93.5q98 0 163 -51l-29 -111q-55 45 -127 45q-79 0 -123 -60t-44 -169q0 -108 44 -168t123 -60q70 0 127 46l30 -112
q-66 -51 -164 -51z" />
    <glyph glyph-name="cdotaccent" unicode="&#x10b;" horiz-adv-x="362" 
d="M206 566q-31 0 -50 19.5t-19 49.5q0 31 19 50.5t50 19.5t50 -19.5t19 -50.5q0 -30 -19 -49.5t-50 -19.5zM227 -11q-90 0 -145.5 69t-55.5 182t55.5 181.5t145.5 68.5q68 0 121 -39l-30 -102q-36 31 -78 31q-45 0 -71.5 -37.5t-26.5 -102.5q0 -66 26.5 -104t71.5 -38
q40 0 78 30l30 -100q-53 -39 -121 -39z" />
    <glyph glyph-name="Ccaron" unicode="&#x10c;" horiz-adv-x="499" 
d="M234 714l-79 151h104l41 -75l40 75h104l-79 -151h-131zM448 151l30 -112q-66 -51 -164 -51q-129 0 -206.5 93.5t-77.5 251.5q0 159 77 252.5t207 93.5q98 0 163 -51l-29 -111q-55 45 -127 45q-79 0 -123 -60t-44 -169q0 -108 44 -168t123 -60q70 0 127 46z" />
    <glyph glyph-name="ccaron" unicode="&#x10d;" horiz-adv-x="362" 
d="M140 555l-79 151h104l41 -75l40 75h104l-79 -151h-131zM240 380q-45 0 -71.5 -37.5t-26.5 -102.5q0 -66 26.5 -104t71.5 -38q40 0 78 30l30 -100q-53 -39 -121 -39q-90 0 -145.5 69t-55.5 182t55.5 181.5t145.5 68.5q68 0 121 -39l-30 -102q-36 31 -78 31z" />
    <glyph glyph-name="Dcaron" unicode="&#x10e;" horiz-adv-x="544" 
d="M206 714l-79 151h104l41 -75l40 75h104l-79 -151h-131zM218 667q142 0 219.5 -91t77.5 -243t-77.5 -242.5t-219.5 -90.5h-162v667h162zM218 117q88 0 130.5 57.5t42.5 158.5t-42.5 159t-130.5 58h-38v-433h38z" />
    <glyph glyph-name="dcaron" unicode="&#x10f;" horiz-adv-x="524" 
d="M307 429v273h116v-702h-108v62q-43 -73 -118 -73q-78 0 -124.5 69t-46.5 182t46.5 182t124.5 69q68 0 110 -62zM459 702h112l-56 -174h-70zM227 99q38 0 59 36t21 105q0 141 -80 141q-39 0 -62 -38.5t-23 -102.5t23 -102.5t62 -38.5z" />
    <glyph glyph-name="Dcroat" unicode="&#x110;" horiz-adv-x="544" 
d="M218 667q142 0 219.5 -91t77.5 -243t-77.5 -242.5t-219.5 -90.5h-162v286h-53v100h53v281h162zM218 117q88 0 130.5 57.5t42.5 158.5t-42.5 159t-130.5 58h-38v-164h119v-100h-119v-169h38z" />
    <glyph glyph-name="dcroat" unicode="&#x111;" horiz-adv-x="471" 
d="M462 648v-88h-39v-560h-108v62q-43 -73 -118 -73q-78 0 -124.5 69t-46.5 182t46.5 182t124.5 69q68 0 110 -62v131h-123v88h123v54h116v-54h39zM227 99q38 0 59 36t21 105q0 141 -80 141q-39 0 -62 -38.5t-23 -102.5t23 -102.5t62 -38.5z" />
    <glyph glyph-name="Emacron" unicode="&#x112;" horiz-adv-x="469" 
d="M123 814h243v-85h-243v85zM433 550h-253v-150h197v-116h-197v-167h253v-117h-377v667h377v-117z" />
    <glyph glyph-name="emacron" unicode="&#x113;" horiz-adv-x="427" 
d="M334 677v-86h-243v86h243zM401 249q0 -19 -2 -47h-258q14 -107 106 -107q58 0 114 36l31 -99q-68 -43 -151 -43q-97 0 -156 66t-59 185q0 114 52 182t136 68t135.5 -65t51.5 -176zM216 389q-30 0 -50 -26t-26 -74h149q-8 100 -73 100z" />
    <glyph glyph-name="Ebreve" unicode="&#x114;" horiz-adv-x="469" 
d="M291 862h80q0 -69 -34 -110.5t-92 -41.5t-92.5 41.5t-34.5 110.5h81q0 -30 12.5 -46.5t33.5 -16.5q46 0 46 63zM433 550h-253v-150h197v-116h-197v-167h253v-117h-377v667h377v-117z" />
    <glyph glyph-name="ebreve" unicode="&#x115;" horiz-adv-x="427" 
d="M213 550q-58 0 -92.5 41.5t-34.5 110.5h81q0 -30 12.5 -46.5t33.5 -16.5q46 0 46 63h80q0 -69 -34 -110.5t-92 -41.5zM401 249q0 -19 -2 -47h-258q14 -107 106 -107q58 0 114 36l31 -99q-68 -43 -151 -43q-97 0 -156 66t-59 185q0 114 52 182t136 68t135.5 -65t51.5 -176
zM216 389q-30 0 -50 -26t-26 -74h149q-8 100 -73 100z" />
    <glyph glyph-name="Edotaccent" unicode="&#x116;" horiz-adv-x="469" 
d="M244 711q-31 0 -50 19.5t-19 50.5t19 50t50 19t50 -19t19 -50t-19 -50.5t-50 -19.5zM433 550h-253v-150h197v-116h-197v-167h253v-117h-377v667h377v-117z" />
    <glyph glyph-name="edotaccent" unicode="&#x117;" horiz-adv-x="427" 
d="M213 566q-31 0 -50 19.5t-19 49.5q0 31 19 50.5t50 19.5t50 -19.5t19 -50.5q0 -30 -19 -49.5t-50 -19.5zM401 249q0 -19 -2 -47h-258q14 -107 106 -107q58 0 114 36l31 -99q-68 -43 -151 -43q-97 0 -156 66t-59 185q0 114 52 182t136 68t135.5 -65t51.5 -176zM216 389
q-30 0 -50 -26t-26 -74h149q-8 100 -73 100z" />
    <glyph glyph-name="Eogonek" unicode="&#x118;" horiz-adv-x="469" 
d="M421 -98l15 -68q-29 -18 -67 -18q-34 0 -53.5 18.5t-19.5 53.5q0 52 53 112h-293v667h377v-117h-253v-150h197v-116h-197v-167h253v-117h-11q-44 -55 -44 -83q0 -21 20 -21q12 0 23 6z" />
    <glyph glyph-name="eogonek" unicode="&#x119;" horiz-adv-x="427" 
d="M401 249q0 -19 -2 -47h-258q14 -107 106 -107q60 0 114 36l30 -98q-77 -74 -77 -117q0 -21 19 -21q13 0 23 7l15 -69q-28 -18 -66 -18q-34 0 -53.5 18.5t-19.5 53.5q0 50 49 105q-19 -3 -40 -3q-97 0 -156 66t-59 185q0 114 52 182t136 68t135.5 -65t51.5 -176zM216 389
q-30 0 -50 -26t-26 -74h149q-8 100 -73 100z" />
    <glyph glyph-name="Ecaron" unicode="&#x11a;" horiz-adv-x="469" 
d="M179 714l-79 151h104l41 -75l40 75h104l-79 -151h-131zM433 550h-253v-150h197v-116h-197v-167h253v-117h-377v667h377v-117z" />
    <glyph glyph-name="ecaron" unicode="&#x11b;" horiz-adv-x="427" 
d="M147 555l-79 151h104l41 -75l40 75h104l-79 -151h-131zM401 249q0 -19 -2 -47h-258q14 -107 106 -107q58 0 114 36l31 -99q-68 -43 -151 -43q-97 0 -156 66t-59 185q0 114 52 182t136 68t135.5 -65t51.5 -176zM216 389q-30 0 -50 -26t-26 -74h149q-8 100 -73 100z" />
    <glyph glyph-name="Gcircumflex" unicode="&#x11c;" horiz-adv-x="535" 
d="M295 789l-41 -75h-104l79 151h131l79 -151h-104zM283 376h212v-322q-77 -66 -192 -66q-125 0 -199 93t-74 252t77 252.5t207 93.5q98 0 163 -51l-29 -111q-55 45 -127 45q-79 0 -123 -60t-44 -169t41 -169t115 -60q31 0 60 13v143h-87v116z" />
    <glyph glyph-name="gcircumflex" unicode="&#x11d;" horiz-adv-x="471" 
d="M236 629l-41 -75h-104l79 151h131l79 -151h-104zM315 481h108v-453q0 -101 -57.5 -156.5t-162.5 -55.5q-83 0 -152 37l28 105q57 -36 119 -36q109 0 109 114v34q-42 -59 -110 -59q-78 0 -124.5 66.5t-46.5 173.5t46.5 173.5t124.5 66.5q75 0 118 -72v62zM227 120
q38 0 59 33.5t21 97.5t-21 98t-59 34q-39 0 -62 -36.5t-23 -95.5t23 -95t62 -36z" />
    <glyph glyph-name="Gbreve" unicode="&#x11e;" horiz-adv-x="535" 
d="M295 710q-58 0 -92.5 41.5t-34.5 110.5h81q0 -30 12.5 -46.5t33.5 -16.5q46 0 46 63h80q0 -69 -34 -110.5t-92 -41.5zM283 376h212v-322q-77 -66 -192 -66q-125 0 -199 93t-74 252t77 252.5t207 93.5q98 0 163 -51l-29 -111q-55 45 -127 45q-79 0 -123 -60t-44 -169
t41 -169t115 -60q31 0 60 13v143h-87v116z" />
    <glyph glyph-name="gbreve" unicode="&#x11f;" horiz-adv-x="471" 
d="M236 550q-58 0 -92.5 41.5t-34.5 110.5h81q0 -30 12.5 -46.5t33.5 -16.5q46 0 46 63h80q0 -69 -34 -110.5t-92 -41.5zM315 481h108v-453q0 -101 -57.5 -156.5t-162.5 -55.5q-83 0 -152 37l28 105q57 -36 119 -36q109 0 109 114v34q-42 -59 -110 -59q-78 0 -124.5 66.5
t-46.5 173.5t46.5 173.5t124.5 66.5q75 0 118 -72v62zM227 120q38 0 59 33.5t21 97.5t-21 98t-59 34q-39 0 -62 -36.5t-23 -95.5t23 -95t62 -36z" />
    <glyph glyph-name="Gdotaccent" unicode="&#x120;" horiz-adv-x="535" 
d="M294 711q-31 0 -50 19.5t-19 50.5t19 50t50 19t50 -19t19 -50t-19 -50.5t-50 -19.5zM283 376h212v-322q-77 -66 -192 -66q-125 0 -199 93t-74 252t77 252.5t207 93.5q98 0 163 -51l-29 -111q-55 45 -127 45q-79 0 -123 -60t-44 -169t41 -169t115 -60q31 0 60 13v143h-87
v116z" />
    <glyph glyph-name="gdotaccent" unicode="&#x121;" horiz-adv-x="471" 
d="M236 566q-31 0 -50 19.5t-19 49.5q0 31 19 50.5t50 19.5t50 -19.5t19 -50.5q0 -30 -19 -49.5t-50 -19.5zM315 481h108v-453q0 -101 -57.5 -156.5t-162.5 -55.5q-83 0 -152 37l28 105q57 -36 119 -36q109 0 109 114v34q-42 -59 -110 -59q-78 0 -124.5 66.5t-46.5 173.5
t46.5 173.5t124.5 66.5q75 0 118 -72v62zM227 120q38 0 59 33.5t21 97.5t-21 98t-59 34q-39 0 -62 -36.5t-23 -95.5t23 -95t62 -36z" />
    <glyph glyph-name="uni0122" unicode="&#x122;" horiz-adv-x="535" 
d="M283 376h212v-322q-77 -66 -192 -66q-125 0 -199 93t-74 252t77 252.5t207 93.5q98 0 163 -51l-29 -111q-55 45 -127 45q-79 0 -123 -60t-44 -169t41 -169t115 -60q31 0 60 13v143h-87v116zM212 -175l26 118h130l-51 -118h-105z" />
    <glyph glyph-name="uni0123" unicode="&#x123;" horiz-adv-x="471" 
d="M321 706l-40 -152h-129l64 152h105zM315 481h108v-453q0 -101 -57.5 -156.5t-162.5 -55.5q-83 0 -152 37l28 105q57 -36 119 -36q109 0 109 114v34q-42 -59 -110 -59q-78 0 -124.5 66.5t-46.5 173.5t46.5 173.5t124.5 66.5q75 0 118 -72v62zM227 120q38 0 59 33.5
t21 97.5t-21 98t-59 34q-39 0 -62 -36.5t-23 -95.5t23 -95t62 -36z" />
    <glyph glyph-name="Hcircumflex" unicode="&#x124;" horiz-adv-x="575" 
d="M288 789l-41 -75h-104l79 151h131l79 -151h-104zM395 667h124v-667h-124v284h-215v-284h-124v667h124v-267h215v267z" />
    <glyph glyph-name="hcircumflex" unicode="&#x125;" horiz-adv-x="460" 
d="M230 824l-41 -75h-104l79 151h131l79 -151h-104zM275 491q68 0 106 -47t38 -131v-313h-116v289q0 92 -66 92q-35 0 -54 -23t-19 -66v-292h-116v702h116v-267q37 56 111 56z" />
    <glyph glyph-name="Hbar" unicode="&#x126;" horiz-adv-x="575" 
d="M566 592v-87h-47v-505h-124v284h-215v-284h-124v505h-46v87h46v75h124v-75h215v75h124v-75h47zM395 400v105h-215v-105h215z" />
    <glyph glyph-name="hbar" unicode="&#x127;" horiz-adv-x="460" 
d="M275 491q68 0 106 -47t38 -131v-313h-116v289q0 92 -66 92q-35 0 -54 -23t-19 -66v-292h-116v560h-38v88h38v54h116v-54h124v-88h-124v-125q37 56 111 56z" />
    <glyph glyph-name="Itilde" unicode="&#x128;" horiz-adv-x="236" 
d="M-32 710q0 69 25 111t71 42q25 0 43.5 -14t31.5 -28t24 -14q27 0 27 56h79q0 -69 -25 -111t-71 -42q-25 0 -44 14t-32 28t-23 14q-27 0 -27 -56h-79zM56 667h124v-667h-124v667z" />
    <glyph glyph-name="itilde" unicode="&#x129;" horiz-adv-x="211" 
d="M-20 550q0 69 21 111t59 42q22 0 38 -14t26.5 -28t17.5 -14q19 0 19 56h70q0 -69 -21 -111t-58 -42q-22 0 -38 14t-26.5 28t-17.5 14q-20 0 -20 -56h-70zM48 481h116v-481h-116v481z" />
    <glyph glyph-name="Imacron" unicode="&#x12a;" horiz-adv-x="236" 
d="M-4 814h243v-85h-243v85zM56 667h124v-667h-124v667z" />
    <glyph glyph-name="imacron" unicode="&#x12b;" horiz-adv-x="211" 
d="M-8 676h228v-86h-228v86zM48 481h116v-481h-116v481z" />
    <glyph glyph-name="Ibreve" unicode="&#x12c;" horiz-adv-x="236" 
d="M164 862h80q0 -69 -34 -110.5t-92 -41.5t-92.5 41.5t-34.5 110.5h81q0 -30 12.5 -46.5t33.5 -16.5q46 0 46 63zM56 667h124v-667h-124v667z" />
    <glyph glyph-name="ibreve" unicode="&#x12d;" horiz-adv-x="211" 
d="M152 702h80q0 -69 -34 -110.5t-92 -41.5t-92.5 41.5t-34.5 110.5h81q0 -30 12.5 -46.5t33.5 -16.5q46 0 46 63zM48 481h116v-481h-116v481z" />
    <glyph glyph-name="Iogonek" unicode="&#x12e;" horiz-adv-x="236" 
d="M179 -98l15 -68q-29 -18 -67 -18q-34 0 -53.5 18.5t-19.5 53.5q0 52 53 112h-51v667h124v-667q-44 -55 -44 -83q0 -21 20 -21q12 0 23 6z" />
    <glyph glyph-name="iogonek" unicode="&#x12f;" horiz-adv-x="211" 
d="M106 566q-31 0 -50 19.5t-19 49.5q0 31 19 50.5t50 19.5t50 -19.5t19 -50.5q0 -30 -19 -49.5t-50 -19.5zM163 -98l15 -68q-29 -18 -67 -18q-34 0 -53.5 18.5t-19.5 53.5q0 52 53 112h-43v481h116v-481q-44 -55 -44 -83q0 -21 20 -21q12 0 23 6z" />
    <glyph glyph-name="Idotaccent" unicode="&#x130;" horiz-adv-x="236" 
d="M117 711q-31 0 -50 19.5t-19 50.5t19 50t50 19t50 -19t19 -50t-19 -50.5t-50 -19.5zM56 667h124v-667h-124v667z" />
    <glyph glyph-name="dotlessi" unicode="&#x131;" horiz-adv-x="211" 
d="M48 481h116v-481h-116v481z" />
    <glyph glyph-name="IJ" unicode="&#x132;" horiz-adv-x="557" 
d="M56 667h124v-667h-124v667zM328 -9q-48 0 -86 12l19 111q26 -7 48 -7q73 0 73 84v476h125v-493q0 -89 -46.5 -136t-132.5 -47z" />
    <glyph glyph-name="ij" unicode="&#x133;" horiz-adv-x="422" 
d="M106 565q-31 0 -50 19.5t-19 49.5q0 31 19 50.5t50 19.5t50 -19.5t19 -50.5q0 -30 -19 -49.5t-50 -19.5zM317 565q-31 0 -50 19.5t-19 49.5q0 31 19 50.5t50 19.5t50 -19.5t19 -50.5q0 -30 -19 -49.5t-50 -19.5zM48 481h116v-481h-116v481zM184 -174l7 103q10 -2 14 -2
q54 0 54 68v486h116v-496q0 -78 -37.5 -121t-107.5 -43q-24 0 -46 5z" />
    <glyph glyph-name="Jcircumflex" unicode="&#x134;" horiz-adv-x="321" 
d="M208 789l-41 -75h-104l79 151h131l79 -151h-104zM146 191v476h125v-493q0 -89 -46.5 -136t-132.5 -47q-48 0 -86 12l19 111q26 -7 48 -7q73 0 73 84z" />
    <glyph glyph-name="jcircumflex" unicode="&#x135;" horiz-adv-x="211" 
d="M106 629l-41 -75h-104l79 151h131l79 -151h-104zM48 -5v486h116v-496q0 -78 -37.5 -121t-107.5 -43q-24 0 -46 5l7 103q10 -2 14 -2q54 0 54 68z" />
    <glyph glyph-name="uni0136" unicode="&#x136;" horiz-adv-x="572" 
d="M322 377l243 -377h-150l-169 280l-66 -83v-197h-124v667h124v-292l216 292h156zM194 -175l26 118h130l-51 -118h-105z" />
    <glyph glyph-name="uni0137" unicode="&#x137;" horiz-adv-x="453" 
d="M283 281l169 -281h-140l-106 187l-42 -50v-137h-116v702h116v-407l140 186h143zM139 -175l26 118h130l-51 -118h-105z" />
    <glyph glyph-name="kgreenlandic" unicode="&#x138;" horiz-adv-x="453" 
d="M312 0l-106 187l-42 -50v-137h-116v481h116v-186l140 186h143l-164 -200l169 -281h-140z" />
    <glyph glyph-name="Lacute" unicode="&#x139;" horiz-adv-x="417" 
d="M75 714l79 151h128l-99 -151h-108zM56 0v667h124v-550h226v-117h-350z" />
    <glyph glyph-name="lacute" unicode="&#x13a;" horiz-adv-x="244" 
d="M35 749l79 151h128l-99 -151h-108zM48 702h116v-554q0 -47 36 -47q14 0 27 5l12 -98q-29 -13 -74 -13q-60 0 -88.5 31.5t-28.5 100.5v575z" />
    <glyph glyph-name="uni013B" unicode="&#x13b;" horiz-adv-x="417" 
d="M56 0v667h124v-550h226v-117h-350zM148 -175l26 118h130l-51 -118h-105z" />
    <glyph glyph-name="uni013C" unicode="&#x13c;" horiz-adv-x="244" 
d="M48 702h116v-554q0 -47 36 -47q14 0 27 5l12 -98q-29 -13 -74 -13q-60 0 -88.5 31.5t-28.5 100.5v575zM36 -175l26 118h130l-51 -118h-105z" />
    <glyph glyph-name="Lcaron" unicode="&#x13d;" horiz-adv-x="417" 
d="M56 0v667h124v-550h226v-117h-350zM217 493l14 174h112l-56 -174h-70z" />
    <glyph glyph-name="lcaron" unicode="&#x13e;" horiz-adv-x="268" 
d="M48 702h116v-554q0 -47 36 -47q14 0 27 5l12 -98q-29 -13 -74 -13q-60 0 -88.5 31.5t-28.5 100.5v575zM186 528l14 174h112l-56 -174h-70z" />
    <glyph glyph-name="Ldot" unicode="&#x13f;" horiz-adv-x="451" 
d="M56 0v667h124v-550h226v-117h-350zM355 296q-34 0 -56 22.5t-22 57.5t22 57.5t56 22.5t56.5 -23t22.5 -57q0 -35 -22.5 -57.5t-56.5 -22.5z" />
    <glyph glyph-name="ldot" unicode="&#x140;" horiz-adv-x="376" 
d="M48 702h116v-554q0 -47 36 -47q14 0 27 5l12 -98q-29 -13 -74 -13q-60 0 -88.5 31.5t-28.5 100.5v575zM297 274q-34 0 -56 22.5t-22 57.5t22 57.5t56 22.5t56.5 -23t22.5 -57q0 -35 -22.5 -57.5t-56.5 -22.5z" />
    <glyph glyph-name="Lslash" unicode="&#x141;" horiz-adv-x="417" 
d="M180 117h226v-117h-350v250l-54 -37v111l54 37v306h124v-221l117 81v-111l-117 -81v-218z" />
    <glyph glyph-name="lslash" unicode="&#x142;" horiz-adv-x="244" 
d="M227 106l12 -98q-29 -13 -74 -13q-60 0 -88.5 31.5t-28.5 100.5v165l-41 -28v112l41 28v298h116v-218l63 43v-111l-63 -44v-224q0 -47 36 -47q14 0 27 5z" />
    <glyph glyph-name="Nacute" unicode="&#x143;" horiz-adv-x="620" 
d="M433 865l-99 -151h-108l79 151h128zM440 667h124v-667h-171l-213 485v-485h-124v667h171l213 -485v485z" />
    <glyph glyph-name="nacute" unicode="&#x144;" horiz-adv-x="460" 
d="M349 705l-99 -151h-108l79 151h128zM275 491q67 0 105.5 -47t38.5 -131v-313h-116v289q0 92 -66 92q-35 0 -54 -23t-19 -66v-292h-116v481h108v-60q35 70 119 70z" />
    <glyph glyph-name="uni0145" unicode="&#x145;" horiz-adv-x="620" 
d="M440 667h124v-667h-171l-213 485v-485h-124v667h171l213 -485v485zM227 -175l26 118h130l-51 -118h-105z" />
    <glyph glyph-name="uni0146" unicode="&#x146;" horiz-adv-x="460" 
d="M275 491q67 0 105.5 -47t38.5 -131v-313h-116v289q0 92 -66 92q-35 0 -54 -23t-19 -66v-292h-116v481h108v-60q35 70 119 70zM147 -175l26 118h130l-51 -118h-105z" />
    <glyph glyph-name="Ncaron" unicode="&#x147;" horiz-adv-x="620" 
d="M244 714l-79 151h104l41 -75l40 75h104l-79 -151h-131zM440 667h124v-667h-171l-213 485v-485h-124v667h171l213 -485v485z" />
    <glyph glyph-name="ncaron" unicode="&#x148;" horiz-adv-x="460" 
d="M164 555l-79 151h104l41 -75l40 75h104l-79 -151h-131zM275 491q67 0 105.5 -47t38.5 -131v-313h-116v289q0 92 -66 92q-35 0 -54 -23t-19 -66v-292h-116v481h108v-60q35 70 119 70z" />
    <glyph glyph-name="napostrophe" unicode="&#x149;" horiz-adv-x="661" 
d="M16 419l73 257l120 -28l-100 -251zM476 491q67 0 105.5 -47t38.5 -131v-313h-116v289q0 92 -66 92q-35 0 -54 -23t-19 -66v-292h-116v481h108v-60q35 70 119 70z" />
    <glyph glyph-name="Eng" unicode="&#x14a;" horiz-adv-x="620" 
d="M440 667h124v-655q0 -96 -46 -146.5t-132 -50.5q-45 0 -86 13l18 113q24 -9 52 -9q35 0 52 21.5t18 67.5l-260 470v-491h-124v667h165l219 -410v410z" />
    <glyph glyph-name="eng" unicode="&#x14b;" horiz-adv-x="460" 
d="M275 491q68 0 106 -48t38 -135v-323q0 -79 -37 -121.5t-108 -42.5q-27 0 -45 6l7 102q10 -2 14 -2q27 0 40 15.5t13 52.5v289q0 97 -66 97q-35 0 -54 -23t-19 -66v-292h-116v481h108v-60q35 70 119 70z" />
    <glyph glyph-name="Omacron" unicode="&#x14c;" horiz-adv-x="609" 
d="M183 814h243v-85h-243v85zM305 -12q-126 0 -200.5 93.5t-74.5 251.5t74.5 252t200.5 94q125 0 199.5 -94t74.5 -252t-74.5 -251.5t-199.5 -93.5zM305 105q70 0 110 60t40 168t-40 168.5t-110 60.5t-110.5 -60.5t-40.5 -168.5q0 -107 40.5 -167.5t110.5 -60.5z" />
    <glyph glyph-name="omacron" unicode="&#x14d;" horiz-adv-x="448" 
d="M102 677h243v-86h-243v86zM225 -11q-91 0 -145 68t-54 183q0 114 54 182t145 68q90 0 143.5 -68t53.5 -182q0 -115 -53.5 -183t-143.5 -68zM224 98q38 0 60 37.5t22 104.5q0 66 -22 103t-60 37t-60 -37t-22 -103q0 -67 22 -104.5t60 -37.5z" />
    <glyph glyph-name="Obreve" unicode="&#x14e;" horiz-adv-x="609" 
d="M351 862h80q0 -69 -34 -110.5t-92 -41.5t-92.5 41.5t-34.5 110.5h81q0 -30 12.5 -46.5t33.5 -16.5q46 0 46 63zM305 -12q-126 0 -200.5 93.5t-74.5 251.5t74.5 252t200.5 94q125 0 199.5 -94t74.5 -252t-74.5 -251.5t-199.5 -93.5zM305 105q70 0 110 60t40 168t-40 168.5
t-110 60.5t-110.5 -60.5t-40.5 -168.5q0 -107 40.5 -167.5t110.5 -60.5z" />
    <glyph glyph-name="obreve" unicode="&#x14f;" horiz-adv-x="448" 
d="M270 702h80q0 -69 -34 -110.5t-92 -41.5t-92.5 41.5t-34.5 110.5h81q0 -30 12.5 -46.5t33.5 -16.5q46 0 46 63zM225 -11q-91 0 -145 68t-54 183q0 114 54 182t145 68q90 0 143.5 -68t53.5 -182q0 -115 -53.5 -183t-143.5 -68zM224 98q38 0 60 37.5t22 104.5q0 66 -22 103
t-60 37t-60 -37t-22 -103q0 -67 22 -104.5t60 -37.5z" />
    <glyph glyph-name="Ohungarumlaut" unicode="&#x150;" horiz-adv-x="609" 
d="M149 714l79 151h125l-99 -151h-105zM309 714l79 151h126l-100 -151h-105zM305 -12q-126 0 -200.5 93.5t-74.5 251.5t74.5 252t200.5 94q125 0 199.5 -94t74.5 -252t-74.5 -251.5t-199.5 -93.5zM305 105q70 0 110 60t40 168t-40 168.5t-110 60.5t-110.5 -60.5
t-40.5 -168.5q0 -107 40.5 -167.5t110.5 -60.5z" />
    <glyph glyph-name="ohungarumlaut" unicode="&#x151;" horiz-adv-x="448" 
d="M68 554l79 151h125l-99 -151h-105zM228 554l79 151h126l-100 -151h-105zM225 -11q-91 0 -145 68t-54 183q0 114 54 182t145 68q90 0 143.5 -68t53.5 -182q0 -115 -53.5 -183t-143.5 -68zM224 98q38 0 60 37.5t22 104.5q0 66 -22 103t-60 37t-60 -37t-22 -103
q0 -67 22 -104.5t60 -37.5z" />
    <glyph glyph-name="OE" unicode="&#x152;" horiz-adv-x="738" 
d="M325 0q-142 0 -218.5 90.5t-76.5 242.5t76.5 243t218.5 91h377v-117h-229v-150h172v-116h-172v-167h229v-117h-377zM325 117h24v433h-24q-87 0 -129 -58t-42 -159t42 -158.5t129 -57.5z" />
    <glyph glyph-name="oe" unicode="&#x153;" horiz-adv-x="677" 
d="M651 249q0 -26 -3 -47h-243q13 -107 99 -107q58 0 108 36l30 -99q-64 -43 -144 -43q-98 0 -148 79q-46 -79 -133 -79t-139 68t-52 183q0 114 52 182t139 68q84 0 131 -75q44 75 124 75t129.5 -65.5t49.5 -175.5zM474 389q-59 0 -70 -100h134q-6 100 -64 100zM216 98
q35 0 54.5 37.5t19.5 104.5q0 66 -19.5 103t-54.5 37q-34 0 -54 -37.5t-20 -102.5q0 -66 20 -104t54 -38z" />
    <glyph glyph-name="Racute" unicode="&#x154;" horiz-adv-x="530" 
d="M384 865l-99 -151h-108l79 151h128zM365 0l-130 242h-55v-242h-124v667h211q102 0 162 -58.5t60 -154.5q0 -70 -33 -121t-93 -74l144 -259h-142zM180 550v-199h87q45 0 71.5 27.5t26.5 72.5t-26.5 72t-71.5 27h-87z" />
    <glyph glyph-name="racute" unicode="&#x155;" horiz-adv-x="313" 
d="M297 705l-99 -151h-108l79 151h128zM256 487q29 0 52 -10l-15 -115q-21 9 -43 9q-86 0 -86 -115v-256h-116v481h108v-76q30 82 100 82z" />
    <glyph glyph-name="uni0156" unicode="&#x156;" horiz-adv-x="530" 
d="M363 259l144 -259h-142l-130 242h-55v-242h-124v667h211q102 0 162 -58.5t60 -154.5q0 -70 -33 -121t-93 -74zM180 550v-199h87q45 0 71.5 27.5t26.5 72.5t-26.5 72t-71.5 27h-87zM178 -175l26 118h130l-51 -118h-105z" />
    <glyph glyph-name="uni0157" unicode="&#x157;" horiz-adv-x="313" 
d="M256 487q29 0 52 -10l-15 -115q-21 9 -43 9q-86 0 -86 -115v-256h-116v481h108v-76q30 82 100 82zM23 -175l26 118h130l-51 -118h-105z" />
    <glyph glyph-name="Rcaron" unicode="&#x158;" horiz-adv-x="530" 
d="M195 714l-79 151h104l41 -75l40 75h104l-79 -151h-131zM365 0l-130 242h-55v-242h-124v667h211q102 0 162 -58.5t60 -154.5q0 -70 -33 -121t-93 -74l144 -259h-142zM180 550v-199h87q45 0 71.5 27.5t26.5 72.5t-26.5 72t-71.5 27h-87z" />
    <glyph glyph-name="rcaron" unicode="&#x159;" horiz-adv-x="313" 
d="M112 555l-79 151h104l41 -75l40 75h104l-79 -151h-131zM156 405q30 82 100 82q29 0 52 -10l-15 -115q-21 9 -43 9q-86 0 -86 -115v-256h-116v481h108v-76z" />
    <glyph glyph-name="Sacute" unicode="&#x15a;" horiz-adv-x="474" 
d="M153 714l79 151h128l-99 -151h-108zM41 30l26 115q66 -40 141 -40q51 0 81 22t30 58q0 28 -20 48.5t-50 32.5t-65 30t-65 39t-50 60.5t-20 93.5q0 91 55 141t153 50q99 0 166 -41l-25 -114q-63 39 -133 39q-92 0 -92 -72q0 -36 28 -60.5t67.5 -40.5t79 -36.5t67.5 -62
t28 -102.5q0 -94 -62 -147.5t-169 -53.5q-102 0 -171 41z" />
    <glyph glyph-name="sacute" unicode="&#x15b;" horiz-adv-x="355" 
d="M89 554l79 151h128l-99 -151h-108zM17 21l26 106q53 -34 109 -34q31 0 49 13t18 33t-19.5 33t-47.5 23.5t-55.5 25t-47 46t-19.5 77.5q0 70 42 107.5t118 37.5q77 0 131 -31l-27 -102q-47 30 -97 30q-53 0 -53 -40q0 -22 19.5 -36t47 -24t55.5 -23.5t47.5 -43t19.5 -74.5
q0 -73 -47.5 -114t-129.5 -41q-79 0 -139 31z" />
    <glyph glyph-name="Scircumflex" unicode="&#x15c;" horiz-adv-x="474" 
d="M237 789l-41 -75h-104l79 151h131l79 -151h-104zM173 492q0 -36 28 -60.5t67.5 -40.5t79 -36.5t67.5 -62t28 -102.5q0 -94 -62 -147.5t-169 -53.5q-102 0 -171 41l26 115q66 -40 141 -40q51 0 81 22t30 58q0 28 -20 48.5t-50 32.5t-65 30t-65 39t-50 60.5t-20 93.5
q0 91 55 141t153 50q99 0 166 -41l-25 -114q-63 39 -133 39q-92 0 -92 -72z" />
    <glyph glyph-name="scircumflex" unicode="&#x15d;" horiz-adv-x="355" 
d="M177 629l-41 -75h-104l79 151h131l79 -151h-104zM144 346q0 -22 19.5 -36t47 -24t55.5 -23.5t47.5 -43t19.5 -74.5q0 -73 -47.5 -114t-129.5 -41q-79 0 -139 31l26 106q53 -34 109 -34q31 0 49 13t18 33t-19.5 33t-47.5 23.5t-55.5 25t-47 46t-19.5 77.5q0 70 42 107.5
t118 37.5q77 0 131 -31l-27 -102q-47 30 -97 30q-53 0 -53 -40z" />
    <glyph glyph-name="Scedilla" unicode="&#x15e;" horiz-adv-x="474" 
d="M443 190q0 -82 -47.5 -133.5t-131.5 -63.5l-6 -30q30 -3 47 -22t17 -49q0 -36 -23.5 -56.5t-63.5 -20.5q-34 0 -58 13l12 56q13 -8 28 -8q28 0 28 20q0 19 -21 19q-7 0 -13 -3l-17 6l13 71q-98 1 -166 41l26 115q66 -40 141 -40q51 0 81 22t30 58q0 28 -20 48.5t-50 32.5
t-65 30t-65 39t-50 60.5t-20 93.5q0 91 55 141t153 50q99 0 166 -41l-25 -114q-63 39 -133 39q-92 0 -92 -72q0 -36 28 -60.5t67.5 -40.5t79 -36.5t67.5 -62t28 -102.5z" />
    <glyph glyph-name="scedilla" unicode="&#x15f;" horiz-adv-x="355" 
d="M333 145q0 -63 -36.5 -103t-100.5 -49l-6 -30q30 -3 47 -22t17 -49q0 -36 -23.5 -56.5t-63.5 -20.5q-34 0 -58 13l12 56q13 -8 28 -8q28 0 28 20q0 19 -21 19q-7 0 -13 -3l-17 6l13 72q-71 5 -122 31l26 106q53 -34 109 -34q31 0 49 13t18 33t-19.5 33t-47.5 23.5
t-55.5 25t-47 46t-19.5 77.5q0 70 42 107.5t118 37.5q77 0 131 -31l-27 -102q-47 30 -97 30q-53 0 -53 -40q0 -22 19.5 -36t47 -24t55.5 -23.5t47.5 -43t19.5 -74.5z" />
    <glyph glyph-name="Scaron" unicode="&#x160;" horiz-adv-x="474" 
d="M171 714l-79 151h104l41 -75l40 75h104l-79 -151h-131zM173 492q0 -36 28 -60.5t67.5 -40.5t79 -36.5t67.5 -62t28 -102.5q0 -94 -62 -147.5t-169 -53.5q-102 0 -171 41l26 115q66 -40 141 -40q51 0 81 22t30 58q0 28 -20 48.5t-50 32.5t-65 30t-65 39t-50 60.5t-20 93.5
q0 91 55 141t153 50q99 0 166 -41l-25 -114q-63 39 -133 39q-92 0 -92 -72z" />
    <glyph glyph-name="scaron" unicode="&#x161;" horiz-adv-x="355" 
d="M111 555l-79 151h104l41 -75l40 75h104l-79 -151h-131zM144 346q0 -22 19.5 -36t47 -24t55.5 -23.5t47.5 -43t19.5 -74.5q0 -73 -47.5 -114t-129.5 -41q-79 0 -139 31l26 106q53 -34 109 -34q31 0 49 13t18 33t-19.5 33t-47.5 23.5t-55.5 25t-47 46t-19.5 77.5
q0 70 42 107.5t118 37.5q77 0 131 -31l-27 -102q-47 30 -97 30q-53 0 -53 -40z" />
    <glyph glyph-name="uni0162" unicode="&#x162;" horiz-adv-x="471" 
d="M450 667v-117h-153v-550h-124v550h-152v117h429zM152 -175l26 118h130l-51 -118h-105z" />
    <glyph glyph-name="uni0163" unicode="&#x163;" horiz-adv-x="286" 
d="M189 -7q-66 0 -101 37t-35 106v237h-45v108h45v111l116 22v-133h99v-108h-99v-219q0 -54 49 -54q20 0 39 8l16 -100q-39 -15 -84 -15zM85 -175l26 118h130l-51 -118h-105z" />
    <glyph glyph-name="Tcaron" unicode="&#x164;" horiz-adv-x="471" 
d="M169 714l-79 151h104l41 -75l40 75h104l-79 -151h-131zM450 667v-117h-153v-550h-124v550h-152v117h429z" />
    <glyph glyph-name="tcaron" unicode="&#x165;" horiz-adv-x="286" 
d="M320 702l-56 -174h-70l14 174h112zM218 100q20 0 39 8l16 -100q-39 -15 -84 -15q-66 0 -101 37t-35 106v237h-45v108h45v111l116 22v-133h99v-108h-99v-219q0 -54 49 -54z" />
    <glyph glyph-name="Tbar" unicode="&#x166;" horiz-adv-x="471" 
d="M450 550h-153v-166h85v-100h-85v-284h-124v284h-87v100h87v166h-152v117h429v-117z" />
    <glyph glyph-name="tbar" unicode="&#x167;" horiz-adv-x="286" 
d="M257 108l16 -100q-39 -15 -84 -15q-66 0 -101 37t-35 106v75h-39v88h39v74h-45v108h45v111l116 22v-133h99v-108h-99v-74h77v-88h-77v-57q0 -54 49 -54q20 0 39 8z" />
    <glyph glyph-name="Utilde" unicode="&#x168;" horiz-adv-x="547" 
d="M123 710q0 69 25 111t71 42q25 0 43.5 -14t31.5 -28t24 -14q27 0 27 56h79q0 -69 -25 -111t-71 -42q-25 0 -44 14t-32 28t-23 14q-27 0 -27 -56h-79zM273 -12q-110 0 -171 65t-61 183v431h124v-419q0 -73 26 -108t82 -35t82.5 34.5t26.5 108.5v419h124v-431
q0 -118 -61 -183t-172 -65z" />
    <glyph glyph-name="utilde" unicode="&#x169;" horiz-adv-x="460" 
d="M186 606q-27 0 -27 -56h-79q0 69 25 111t71 42q25 0 43.5 -14t31.5 -28t24 -14q27 0 27 56h79q0 -69 -25 -111t-71 -42q-25 0 -44 14t-32 28t-23 14zM297 481h115v-481h-108v60q-35 -70 -118 -70q-68 0 -106.5 46.5t-38.5 130.5v314h116v-290q0 -92 67 -92
q34 0 53.5 23.5t19.5 65.5v293z" />
    <glyph glyph-name="Umacron" unicode="&#x16a;" horiz-adv-x="547" 
d="M151 814h243v-85h-243v85zM273 -12q-110 0 -171 65t-61 183v431h124v-419q0 -73 26 -108t82 -35t82.5 34.5t26.5 108.5v419h124v-431q0 -118 -61 -183t-172 -65z" />
    <glyph glyph-name="umacron" unicode="&#x16b;" horiz-adv-x="460" 
d="M351 677v-86h-243v86h243zM297 481h115v-481h-108v60q-35 -70 -118 -70q-68 0 -106.5 46.5t-38.5 130.5v314h116v-290q0 -92 67 -92q34 0 53.5 23.5t19.5 65.5v293z" />
    <glyph glyph-name="Ubreve" unicode="&#x16c;" horiz-adv-x="547" 
d="M319 862h80q0 -69 -34 -110.5t-92 -41.5t-92.5 41.5t-34.5 110.5h81q0 -30 12.5 -46.5t33.5 -16.5q46 0 46 63zM273 -12q-110 0 -171 65t-61 183v431h124v-419q0 -73 26 -108t82 -35t82.5 34.5t26.5 108.5v419h124v-431q0 -118 -61 -183t-172 -65z" />
    <glyph glyph-name="ubreve" unicode="&#x16d;" horiz-adv-x="460" 
d="M230 550q-58 0 -92.5 41.5t-34.5 110.5h81q0 -30 12.5 -46.5t33.5 -16.5q46 0 46 63h80q0 -69 -34 -110.5t-92 -41.5zM297 481h115v-481h-108v60q-35 -70 -118 -70q-68 0 -106.5 46.5t-38.5 130.5v314h116v-290q0 -92 67 -92q34 0 53.5 23.5t19.5 65.5v293z" />
    <glyph glyph-name="Uring" unicode="&#x16e;" horiz-adv-x="547" 
d="M273 698q-44 0 -73 30.5t-29 76.5t29 76t73 30t72.5 -30t28.5 -76t-29 -76.5t-72 -30.5zM273 752q20 0 33.5 15t13.5 38q0 22 -13.5 37t-33.5 15t-34 -15t-14 -37t14 -37.5t34 -15.5zM273 -12q-110 0 -171 65t-61 183v431h124v-419q0 -73 26 -108t82 -35t82.5 34.5
t26.5 108.5v419h124v-431q0 -118 -61 -183t-172 -65z" />
    <glyph glyph-name="uring" unicode="&#x16f;" horiz-adv-x="460" 
d="M230 538q-44 0 -73 30.5t-29 76.5t29 76t73 30t72.5 -30t28.5 -76t-29 -76.5t-72 -30.5zM230 697q-20 0 -34 -15t-14 -37t14 -37.5t34 -15.5t33.5 15t13.5 38q0 22 -13.5 37t-33.5 15zM297 481h115v-481h-108v60q-35 -70 -118 -70q-68 0 -106.5 46.5t-38.5 130.5v314h116
v-290q0 -92 67 -92q34 0 53.5 23.5t19.5 65.5v293z" />
    <glyph glyph-name="Uhungarumlaut" unicode="&#x170;" horiz-adv-x="547" 
d="M117 714l79 151h125l-99 -151h-105zM277 714l79 151h126l-100 -151h-105zM273 -12q-110 0 -171 65t-61 183v431h124v-419q0 -73 26 -108t82 -35t82.5 34.5t26.5 108.5v419h124v-431q0 -118 -61 -183t-172 -65z" />
    <glyph glyph-name="uhungarumlaut" unicode="&#x171;" horiz-adv-x="460" 
d="M278 705l-99 -151h-105l79 151h125zM339 554h-105l79 151h126zM297 188v293h115v-481h-108v60q-35 -70 -118 -70q-68 0 -106.5 46.5t-38.5 130.5v314h116v-290q0 -92 67 -92q34 0 53.5 23.5t19.5 65.5z" />
    <glyph glyph-name="Uogonek" unicode="&#x172;" horiz-adv-x="547" 
d="M382 667h124v-431q0 -119 -79 -218q-58 -69 -58 -101q0 -21 19 -21q12 0 23 6l15 -68q-28 -18 -66 -18q-34 0 -54 18.5t-20 53.5q0 50 49 106q-29 -6 -62 -6q-110 0 -171 65t-61 183v431h124v-419q0 -73 26 -108t82 -35t82.5 34.5t26.5 108.5v419z" />
    <glyph glyph-name="uogonek" unicode="&#x173;" horiz-adv-x="460" 
d="M411 -98l15 -68q-29 -18 -67 -18q-34 0 -53.5 18.5t-19.5 53.5q0 52 53 112h-35v60q-35 -70 -118 -70q-68 0 -106.5 46.5t-38.5 130.5v314h116v-290q0 -92 67 -92q34 0 53.5 23.5t19.5 65.5v293h115v-481q-44 -55 -44 -83q0 -21 20 -21q12 0 23 6z" />
    <glyph glyph-name="Wcircumflex" unicode="&#x174;" horiz-adv-x="836" 
d="M418 789l-41 -75h-104l79 151h131l79 -151h-104zM699 667h126l-149 -667h-171l-86 488l-87 -488h-172l-149 667h127l106 -527l94 527h160l94 -529z" />
    <glyph glyph-name="wcircumflex" unicode="&#x175;" horiz-adv-x="656" 
d="M328 629l-41 -75h-104l79 151h131l79 -151h-104zM534 481h115l-106 -481h-146l-69 335l-69 -335h-146l-106 481h115l64 -345l72 345h140l73 -347z" />
    <glyph glyph-name="Ycircumflex" unicode="&#x176;" horiz-adv-x="538" 
d="M268 789l-41 -75h-104l79 151h131l79 -151h-104zM399 667h147l-214 -392v-275h-125v275l-216 392h149l130 -264z" />
    <glyph glyph-name="ycircumflex" unicode="&#x177;" horiz-adv-x="439" 
d="M220 629l-41 -75h-104l79 151h131l79 -151h-104zM310 481h124l-158 -502q-28 -88 -68.5 -125t-105.5 -37q-33 0 -64 11l17 110q25 -7 40 -7q26 0 40.5 15.5t26.5 58.5l-158 476h124l93 -316z" />
    <glyph glyph-name="Ydieresis" unicode="&#x178;" horiz-adv-x="538" 
d="M186 714q-28 0 -45.5 19t-17.5 48t17.5 47.5t45.5 18.5t45.5 -18.5t17.5 -47.5t-17.5 -48t-45.5 -19zM349 714q-28 0 -45 19t-17 48t17 47.5t45 18.5t46 -18.5t18 -47.5t-18 -48t-46 -19zM207 0v275l-216 392h149l130 -264l129 264h147l-214 -392v-275h-125z" />
    <glyph glyph-name="Zacute" unicode="&#x179;" horiz-adv-x="498" 
d="M373 865l-99 -151h-108l79 151h128zM189 117h276v-117h-432v99l265 451h-253v117h409v-97z" />
    <glyph glyph-name="zacute" unicode="&#x17a;" horiz-adv-x="377" 
d="M308 705l-99 -151h-108l79 151h128zM170 106h180v-106h-323v90l171 283h-163v108h307v-90z" />
    <glyph glyph-name="Zdotaccent" unicode="&#x17b;" horiz-adv-x="498" 
d="M249 711q-31 0 -50 19.5t-19 50.5t19 50t50 19t50 -19t19 -50t-19 -50.5t-50 -19.5zM189 117h276v-117h-432v99l265 451h-253v117h409v-97z" />
    <glyph glyph-name="zdotaccent" unicode="&#x17c;" horiz-adv-x="377" 
d="M189 566q-31 0 -50 19.5t-19 49.5q0 31 19 50.5t50 19.5t50 -19.5t19 -50.5q0 -30 -19 -49.5t-50 -19.5zM170 106h180v-106h-323v90l171 283h-163v108h307v-90z" />
    <glyph glyph-name="Zcaron" unicode="&#x17d;" horiz-adv-x="498" 
d="M184 714l-79 151h104l41 -75l40 75h104l-79 -151h-131zM189 117h276v-117h-432v99l265 451h-253v117h409v-97z" />
    <glyph glyph-name="zcaron" unicode="&#x17e;" horiz-adv-x="377" 
d="M123 555l-79 151h104l41 -75l40 75h104l-79 -151h-131zM170 106h180v-106h-323v90l171 283h-163v108h307v-90z" />
    <glyph glyph-name="uni018F" unicode="&#x18f;" horiz-adv-x="559" 
d="M248 679q128 0 204.5 -93t76.5 -257q0 -156 -68.5 -248.5t-182.5 -92.5q-113 0 -180.5 89t-67.5 239q0 51 4 82h372q-13 83 -55 125.5t-108 42.5q-88 0 -158 -54l-31 104q81 63 194 63zM276 97q58 0 94 52t40 145h-263q1 -93 35.5 -145t93.5 -52z" />
    <glyph glyph-name="florin" unicode="&#x192;" horiz-adv-x="420" 
d="M350 562q-56 0 -65 -81l-2 -25h76v-107h-86l-17 -177q-9 -91 -51.5 -137t-107.5 -46q-49 0 -84 20l20 106q18 -10 37 -10q55 0 64 81l15 163h-77v107h87l4 39q9 91 51.5 137t108.5 46q47 0 83 -19l-19 -107q-18 10 -37 10z" />
    <glyph glyph-name="uni0218" unicode="&#x218;" horiz-adv-x="474" 
d="M41 30l26 115q66 -40 141 -40q51 0 81 22t30 58q0 28 -20 48.5t-50 32.5t-65 30t-65 39t-50 60.5t-20 93.5q0 91 55 141t153 50q99 0 166 -41l-25 -114q-63 39 -133 39q-92 0 -92 -72q0 -36 28 -60.5t67.5 -40.5t79 -36.5t67.5 -62t28 -102.5q0 -94 -62 -147.5
t-169 -53.5q-102 0 -171 41zM154 -175l26 118h130l-51 -118h-105z" />
    <glyph glyph-name="uni0219" unicode="&#x219;" horiz-adv-x="355" 
d="M17 21l26 106q53 -34 109 -34q31 0 49 13t18 33t-19.5 33t-47.5 23.5t-55.5 25t-47 46t-19.5 77.5q0 70 42 107.5t118 37.5q77 0 131 -31l-27 -102q-47 30 -97 30q-53 0 -53 -40q0 -22 19.5 -36t47 -24t55.5 -23.5t47.5 -43t19.5 -74.5q0 -73 -47.5 -114t-129.5 -41
q-79 0 -139 31zM86 -175l26 118h130l-51 -118h-105z" />
    <glyph glyph-name="uni021A" unicode="&#x21a;" horiz-adv-x="471" 
d="M450 667v-117h-153v-550h-124v550h-152v117h429zM152 -175l26 118h130l-51 -118h-105z" />
    <glyph glyph-name="uni021B" unicode="&#x21b;" horiz-adv-x="286" 
d="M189 -7q-66 0 -101 37t-35 106v237h-45v108h45v111l116 22v-133h99v-108h-99v-219q0 -54 49 -54q20 0 39 8l16 -100q-39 -15 -84 -15zM85 -175l26 118h130l-51 -118h-105z" />
    <glyph glyph-name="uni0237" unicode="&#x237;" horiz-adv-x="211" 
d="M-27 -174l7 103q10 -2 14 -2q54 0 54 68v486h116v-496q0 -78 -37.5 -121t-107.5 -43q-24 0 -46 5z" />
    <glyph glyph-name="uni0259" unicode="&#x259;" horiz-adv-x="427" 
d="M189 492q97 0 154.5 -67.5t57.5 -189.5q0 -111 -52 -177.5t-136 -66.5q-83 0 -135 63.5t-52 171.5q0 40 4 65h254q-19 94 -101 94q-57 0 -106 -35l-30 98q61 44 142 44zM211 91q33 0 53 29.5t24 83.5h-151q1 -54 20.5 -83.5t53.5 -29.5z" />
    <glyph glyph-name="circumflex" unicode="&#x2c6;" horiz-adv-x="369" 
d="M329 554h-104l-40 75l-41 -75h-104l79 151h131z" />
    <glyph glyph-name="caron" unicode="&#x2c7;" horiz-adv-x="369" 
d="M225 705h104l-79 -151h-131l-79 151h104l41 -75z" />
    <glyph glyph-name="uni02C9" unicode="&#x2c9;" horiz-adv-x="323" 
d="M40 676h243v-86h-243v86z" />
    <glyph glyph-name="breve" unicode="&#x2d8;" horiz-adv-x="333" 
d="M213 702h80q0 -69 -34 -110.5t-92 -41.5t-92.5 41.5t-34.5 110.5h81q0 -30 12.5 -46.5t33.5 -16.5q46 0 46 63z" />
    <glyph glyph-name="dotaccent" unicode="&#x2d9;" horiz-adv-x="218" 
d="M109 565q-31 0 -50 19.5t-19 49.5q0 31 19 50.5t50 19.5t50 -19.5t19 -50.5q0 -30 -19 -49.5t-50 -19.5z" />
    <glyph glyph-name="ring" unicode="&#x2da;" horiz-adv-x="283" 
d="M142 538q-44 0 -73 30.5t-29 76.5t29 76t73 30t72.5 -30t28.5 -76t-29 -76.5t-72 -30.5zM142 592q20 0 33.5 15t13.5 38q0 22 -13.5 37t-33.5 15t-34 -15t-14 -37t14 -37.5t34 -15.5z" />
    <glyph glyph-name="ogonek" unicode="&#x2db;" horiz-adv-x="220" 
d="M113 -184q-34 0 -53.5 18.5t-19.5 53.5q0 57 67 127l59 -15q-44 -55 -44 -83q0 -21 20 -21q12 0 23 6l15 -68q-29 -18 -67 -18z" />
    <glyph glyph-name="tilde" unicode="&#x2dc;" horiz-adv-x="381" 
d="M40 550q0 69 25 111t71 42q25 0 43.5 -14t31.5 -28t24 -14q27 0 27 56h79q0 -69 -25 -111t-71 -42q-25 0 -44 14t-32 28t-23 14q-27 0 -27 -56h-79z" />
    <glyph glyph-name="hungarumlaut" unicode="&#x2dd;" horiz-adv-x="445" 
d="M40 554l79 151h125l-99 -151h-105zM200 554l79 151h126l-100 -151h-105z" />
    <glyph glyph-name="gravecomb" unicode="&#x300;" 
d="M-40 554h-108l-99 151h128z" />
    <glyph glyph-name="acutecomb" unicode="&#x301;" 
d="M-247 554l79 151h128l-99 -151h-108z" />
    <glyph glyph-name="uni0302" unicode="&#x302;" 
d="M-40 554h-104l-40 75l-41 -75h-104l79 151h131z" />
    <glyph glyph-name="tildecomb" unicode="&#x303;" 
d="M-341 550q0 69 25 111t71 42q25 0 43.5 -14t31.5 -28t24 -14q27 0 27 56h79q0 -69 -25 -111t-71 -42q-25 0 -44 14t-32 28t-23 14q-27 0 -27 -56h-79z" />
    <glyph glyph-name="uni0304" unicode="&#x304;" 
d="M-283 676h243v-86h-243v86z" />
    <glyph glyph-name="uni0306" unicode="&#x306;" 
d="M-120 702h80q0 -69 -34 -110.5t-92 -41.5t-92.5 41.5t-34.5 110.5h81q0 -30 12.5 -46.5t33.5 -16.5q46 0 46 63z" />
    <glyph glyph-name="uni0307" unicode="&#x307;" 
d="M-109 565q-31 0 -50 19.5t-19 49.5q0 31 19 50.5t50 19.5t50 -19.5t19 -50.5q0 -30 -19 -49.5t-50 -19.5z" />
    <glyph glyph-name="uni0308" unicode="&#x308;" 
d="M-267 568q-28 0 -45.5 18.5t-17.5 47.5q0 30 17.5 48.5t45.5 18.5t45.5 -18.5t17.5 -48.5q0 -29 -17.5 -47.5t-45.5 -18.5zM-104 568q-28 0 -45 18.5t-17 47.5q0 30 17 48.5t45 18.5q29 0 46.5 -18.5t17.5 -48.5q0 -29 -18 -47.5t-46 -18.5z" />
    <glyph glyph-name="uni030A" unicode="&#x30a;" 
d="M-141 538q-44 0 -73 30.5t-29 76.5t29 76t73 30t72.5 -30t28.5 -76t-29 -76.5t-72 -30.5zM-141 592q20 0 33.5 15t13.5 38q0 22 -13.5 37t-33.5 15t-34 -15t-14 -37t14 -37.5t34 -15.5z" />
    <glyph glyph-name="uni030B" unicode="&#x30b;" 
d="M-405 554l79 151h125l-99 -151h-105zM-245 554l79 151h126l-100 -151h-105z" />
    <glyph glyph-name="uni030C" unicode="&#x30c;" 
d="M-144 705h104l-79 -151h-131l-79 151h104l41 -75z" />
    <glyph glyph-name="uni0312" unicode="&#x312;" 
d="M-40 705l-40 -152h-129l64 152h105z" />
    <glyph glyph-name="uni0326" unicode="&#x326;" 
d="M-196 -175l26 118h130l-51 -118h-105z" />
    <glyph glyph-name="uni0327" unicode="&#x327;" 
d="M-104 -37q30 -3 47 -22t17 -49q0 -36 -23.5 -56.5t-63.5 -20.5q-34 0 -58 13l12 56q13 -8 28 -8q28 0 28 20q0 19 -21 19q-7 0 -13 -3l-17 6l15 82h56z" />
    <glyph glyph-name="uni0328" unicode="&#x328;" 
d="M-107 -184q-34 0 -53.5 18.5t-19.5 53.5q0 57 67 127l59 -15q-44 -55 -44 -83q0 -21 20 -21q12 0 23 6l15 -68q-29 -18 -67 -18z" />
    <glyph glyph-name="uni0335" unicode="&#x335;" 
d="M-272 299h232v-88h-232v88z" />
    <glyph glyph-name="uni0336" unicode="&#x336;" 
d="M-272 299h232v-88h-232v88z" />
    <glyph glyph-name="uni0337" unicode="&#x337;" 
d="M-220 401l220 151v-111l-220 -152v112z" />
    <glyph glyph-name="uni0338" unicode="&#x338;" 
d="M-104 494l64 -37l-316 -472l-63 37z" />
    <glyph glyph-name="uni0394" unicode="&#x394;" horiz-adv-x="563" 
d="M563 0h-130l-70 241l-72 -241h-247l108 463h146l-59 204h117z" />
    <glyph glyph-name="uni03A9" unicode="&#x3a9;" horiz-adv-x="620" 
d="M487 107h105v-107h-251v109q55 15 87.5 76t32.5 154q0 104 -40.5 164t-110.5 60t-110.5 -60t-40.5 -164q0 -93 32.5 -154t87.5 -76v-109h-251v107h105q-98 87 -98 255q0 144 74.5 230.5t200.5 86.5q125 0 200 -86.5t75 -230.5q0 -167 -98 -255z" />
    <glyph glyph-name="uni03BC" unicode="&#x3bc;" horiz-adv-x="467" 
d="M445 102q6 0 18 2v-102q-29 -8 -63 -8q-71 0 -89 50q-37 -55 -102 -55q-21 0 -45 7v-171h-116v656h116v-289q0 -93 66 -93q35 0 54 23.5t19 66.5v292h116v-349q0 -30 26 -30z" />
    <glyph glyph-name="Wgrave" unicode="&#x1e80;" horiz-adv-x="836" 
d="M502 714h-108l-99 151h128zM699 667h126l-149 -667h-171l-86 488l-87 -488h-172l-149 667h127l106 -527l94 527h160l94 -529z" />
    <glyph glyph-name="wgrave" unicode="&#x1e81;" horiz-adv-x="656" 
d="M415 554h-108l-99 151h128zM534 481h115l-106 -481h-146l-69 335l-69 -335h-146l-106 481h115l64 -345l72 345h140l73 -347z" />
    <glyph glyph-name="Wacute" unicode="&#x1e82;" horiz-adv-x="836" 
d="M541 865l-99 -151h-108l79 151h128zM699 667h126l-149 -667h-171l-86 488l-87 -488h-172l-149 667h127l106 -527l94 527h160l94 -529z" />
    <glyph glyph-name="wacute" unicode="&#x1e83;" horiz-adv-x="656" 
d="M447 705l-99 -151h-108l79 151h128zM534 481h115l-106 -481h-146l-69 335l-69 -335h-146l-106 481h115l64 -345l72 345h140l73 -347z" />
    <glyph glyph-name="Wdieresis" unicode="&#x1e84;" horiz-adv-x="836" 
d="M336 714q-28 0 -45.5 19t-17.5 48t17.5 47.5t45.5 18.5t45.5 -18.5t17.5 -47.5t-17.5 -48t-45.5 -19zM499 714q-28 0 -45 19t-17 48t17 47.5t45 18.5t46 -18.5t18 -47.5t-18 -48t-46 -19zM699 667h126l-149 -667h-171l-86 488l-87 -488h-172l-149 667h127l106 -527
l94 527h160l94 -529z" />
    <glyph glyph-name="wdieresis" unicode="&#x1e85;" horiz-adv-x="656" 
d="M246 569q-28 0 -45.5 18.5t-17.5 47.5q0 30 17.5 48.5t45.5 18.5t45.5 -18.5t17.5 -48.5q0 -29 -17.5 -47.5t-45.5 -18.5zM409 569q-28 0 -45 18.5t-17 47.5q0 30 17 48.5t45 18.5q29 0 46.5 -18.5t17.5 -48.5q0 -29 -18 -47.5t-46 -18.5zM534 481h115l-106 -481h-146
l-69 335l-69 -335h-146l-106 481h115l64 -345l72 345h140l73 -347z" />
    <glyph glyph-name="uni1E9E" unicode="&#x1e9e;" horiz-adv-x="573" 
d="M394 400q69 -22 108 -74.5t39 -127.5q0 -96 -57.5 -152.5t-154.5 -56.5q-60 0 -112 24l32 110q31 -18 74 -18q95 0 95 93q0 107 -120 107q-22 0 -44 -3v89l111 136q-34 35 -86 35q-114 0 -114 -152v-410h-124v410q0 126 63.5 197.5t174.5 71.5q152 0 232 -135z" />
    <glyph glyph-name="Ygrave" unicode="&#x1ef2;" horiz-adv-x="538" 
d="M352 714h-108l-99 151h128zM207 0v275l-216 392h149l130 -264l129 264h147l-214 -392v-275h-125z" />
    <glyph glyph-name="ygrave" unicode="&#x1ef3;" horiz-adv-x="439" 
d="M307 554h-108l-99 151h128zM310 481h124l-158 -502q-28 -88 -68.5 -125t-105.5 -37q-33 0 -64 11l17 110q25 -7 40 -7q26 0 40.5 15.5t26.5 58.5l-158 476h124l93 -316z" />
    <glyph glyph-name="uni2011" unicode="&#x2011;" horiz-adv-x="260" 
d="M24 318h212v-116h-212v116z" />
    <glyph glyph-name="endash" unicode="&#x2013;" horiz-adv-x="404" 
d="M16 301h372v-82h-372v82z" />
    <glyph glyph-name="emdash" unicode="&#x2014;" horiz-adv-x="808" 
d="M16 301h776v-82h-776v82z" />
    <glyph glyph-name="quoteleft" unicode="&#x2018;" horiz-adv-x="225" 
d="M116 670l93 -22l-73 -257l-120 28z" />
    <glyph glyph-name="quoteright" unicode="&#x2019;" horiz-adv-x="225" 
d="M109 397l-93 22l73 257l120 -28z" />
    <glyph glyph-name="quotesinglbase" unicode="&#x201a;" horiz-adv-x="225" 
d="M109 -117l-93 22l73 257l120 -28z" />
    <glyph glyph-name="quotedblleft" unicode="&#x201c;" horiz-adv-x="430" 
d="M116 670l93 -22l-73 -257l-120 28zM321 670l94 -22l-74 -257l-120 28z" />
    <glyph glyph-name="quotedblright" unicode="&#x201d;" horiz-adv-x="430" 
d="M109 397l-93 22l73 257l120 -28zM314 397l-93 22l73 257l120 -28z" />
    <glyph glyph-name="quotedblbase" unicode="&#x201e;" horiz-adv-x="430" 
d="M109 -117l-93 22l73 257l120 -28zM314 -117l-93 22l73 257l120 -28z" />
    <glyph glyph-name="dagger" unicode="&#x2020;" horiz-adv-x="396" 
d="M380 474v-117h-121l-15 -417h-92l-15 417h-121v117h120v193h124v-193h120z" />
    <glyph glyph-name="daggerdbl" unicode="&#x2021;" horiz-adv-x="396" 
d="M259 410l-7 -164l7 -164h121v-117h-120v-140h-124v140h-120v117h121l7 164l-7 164h-121v117h120v140h124v-140h120v-117h-121z" />
    <glyph glyph-name="bullet" unicode="&#x2022;" horiz-adv-x="355" 
d="M177 211q-52 0 -87 35t-35 87t35 87t87 35t87.5 -35t35.5 -87t-35.5 -87t-87.5 -35z" />
    <glyph glyph-name="ellipsis" unicode="&#x2026;" horiz-adv-x="715" 
d="M106 -10q-34 0 -56 22.5t-22 57.5t22 57.5t56 22.5t56.5 -23t22.5 -57q0 -35 -22.5 -57.5t-56.5 -22.5zM357 -10q-34 0 -56 22.5t-22 57.5t22 57.5t56 22.5t56.5 -23t22.5 -57q0 -35 -22.5 -57.5t-56.5 -22.5zM609 -10q-34 0 -56 22.5t-22 57.5t22 57.5t56 22.5t56.5 -23
t22.5 -57q0 -35 -22.5 -57.5t-56.5 -22.5z" />
    <glyph glyph-name="perthousand" unicode="&#x2030;" horiz-adv-x="888" 
d="M152 361q-61 0 -96 42.5t-35 116.5q0 73 35 115t96 42t96.5 -42t35.5 -115q0 -74 -35.5 -116.5t-96.5 -42.5zM464 667h124l-424 -667h-124zM152 450q38 0 38 70q0 69 -38 69t-38 -69q0 -70 38 -70zM459 -9q-61 0 -96 42.5t-35 115.5t35 115.5t96 42.5t95.5 -42t34.5 -116
t-34.5 -116t-95.5 -42zM737 -9q-61 0 -95.5 42t-34.5 116t34.5 116t95.5 42t96 -42.5t35 -115.5t-35 -115.5t-96 -42.5zM460 80q38 0 38 69q0 70 -38 70t-38 -70q0 -69 38 -69zM736 80q38 0 38 69q0 70 -38 70t-38 -70q0 -69 38 -69z" />
    <glyph glyph-name="guilsinglleft" unicode="&#x2039;" horiz-adv-x="296" 
d="M272 437l-122 -179l122 -179h-142l-122 179l122 179h142z" />
    <glyph glyph-name="guilsinglright" unicode="&#x203a;" horiz-adv-x="296" 
d="M24 437h142l122 -179l-122 -179h-142l122 179z" />
    <glyph glyph-name="fraction" unicode="&#x2044;" horiz-adv-x="207" 
d="M-48 0h-105l408 667h106z" />
    <glyph glyph-name="uni2070" unicode="&#x2070;" horiz-adv-x="282" 
d="M140 395q-60 0 -93 55.5t-33 158.5t33 159t93 56q61 0 94 -55.5t33 -159.5q0 -103 -33 -158.5t-94 -55.5zM140 480q42 0 42 129q0 130 -42 130q-41 0 -41 -130q0 -129 41 -129z" />
    <glyph glyph-name="uni2074" unicode="&#x2074;" horiz-adv-x="279" 
d="M238 565h32v-81h-32v-81h-82v81h-148v81l103 252h127v-252zM88 565h71v174z" />
    <glyph glyph-name="uni2075" unicode="&#x2075;" horiz-adv-x="282" 
d="M118 395q-59 0 -104 36l31 80q32 -30 69 -30q28 0 43.5 15.5t15.5 43.5q0 57 -59 57q-18 0 -37 -11l-52 18l21 213h188v-86h-112l-7 -60q7 2 21 2q54 0 88.5 -37.5t34.5 -97.5q0 -63 -39.5 -103t-101.5 -40z" />
    <glyph glyph-name="uni2076" unicode="&#x2076;" horiz-adv-x="288" 
d="M146 686q58 0 93 -39t35 -104q0 -67 -35.5 -107t-94.5 -40t-94 40t-35 107q0 59 25 116t88 158h102q-41 -59 -87 -131h3zM144 481q21 0 33 16.5t12 45.5t-12 45.5t-33 16.5q-20 0 -32.5 -16.5t-12.5 -45.5t12.5 -45.5t32.5 -16.5z" />
    <glyph glyph-name="uni2077" unicode="&#x2077;" horiz-adv-x="285" 
d="M277 817l-151 -414h-91l120 330h-143v84h265z" />
    <glyph glyph-name="uni2078" unicode="&#x2078;" horiz-adv-x="281" 
d="M216 621q48 -28 48 -96q0 -59 -33.5 -94t-89.5 -35q-57 0 -90.5 35t-33.5 94q0 68 48 96q-37 28 -37 85q0 54 30 85.5t83 31.5q52 0 82.5 -31.5t30.5 -85.5q0 -56 -38 -85zM140 738q-30 0 -30 -40q0 -41 30 -41q31 0 31 41q0 40 -31 40zM141 481q39 0 39 48q0 50 -39 50
t-39 -50q0 -48 39 -48z" />
    <glyph glyph-name="uni2079" unicode="&#x2079;" horiz-adv-x="288" 
d="M144 824q59 0 94 -40t35 -107q0 -59 -24.5 -115.5t-87.5 -158.5h-102q47 67 86 131h-3q-58 0 -93 39t-35 104q0 67 35.5 107t94.5 40zM144 615q20 0 32.5 16.5t12.5 45.5t-12.5 45.5t-32.5 16.5t-32.5 -16.5t-12.5 -45.5t12.5 -45.5t32.5 -16.5z" />
    <glyph glyph-name="uni207A" unicode="&#x207a;" horiz-adv-x="284" 
d="M259 600v-71h-84v-104h-67v104h-83v71h83v104h67v-104h84z" />
    <glyph glyph-name="uni207B" unicode="&#x207b;" horiz-adv-x="285" 
d="M25 600h234v-71h-234v71z" />
    <glyph glyph-name="uni207C" unicode="&#x207c;" horiz-adv-x="285" 
d="M25 670h234v-71h-234v71zM25 530h234v-72h-234v72z" />
    <glyph glyph-name="uni207D" unicode="&#x207d;" horiz-adv-x="192" 
d="M185 330l-62 -44q-102 120 -102 281q0 162 102 280l61 -44q-88 -96 -88 -236q0 -141 89 -237z" />
    <glyph glyph-name="uni207E" unicode="&#x207e;" horiz-adv-x="192" 
d="M7 330q89 96 89 237t-88 236l61 44q102 -116 102 -280q0 -163 -102 -281z" />
    <glyph glyph-name="uni2080" unicode="&#x2080;" horiz-adv-x="282" 
d="M140 -183q-60 0 -93 55.5t-33 158.5t33 159t93 56q61 0 94 -55.5t33 -159.5q0 -103 -33 -158.5t-94 -55.5zM140 -98q42 0 42 129q0 130 -42 130q-41 0 -41 -130q0 -129 41 -129z" />
    <glyph glyph-name="uni2081" unicode="&#x2081;" horiz-adv-x="288" 
d="M202 -91h62v-84h-213v84h66v213l-64 -28l-17 83l162 69h4v-337z" />
    <glyph glyph-name="uni2082" unicode="&#x2082;" horiz-adv-x="281" 
d="M116 -91h138v-84h-244q4 55 20 96.5t36.5 64.5t41 42t34 39t13.5 44q0 50 -52 50q-38 0 -66 -26l-24 80q42 31 97 31q60 0 95.5 -36t35.5 -98q0 -38 -16 -70t-36 -50t-42 -40.5t-31 -42.5z" />
    <glyph glyph-name="uni2083" unicode="&#x2083;" horiz-adv-x="282" 
d="M180 38q62 -27 62 -99q0 -56 -39.5 -89t-105.5 -33q-47 0 -85 19l14 86q28 -20 66 -20q65 0 65 46q0 47 -65 47h-26v82h26q53 0 53 43q0 41 -47 41q-35 0 -63 -20l-13 80q37 25 85 25q54 0 88.5 -32.5t34.5 -84.5q0 -62 -50 -91z" />
    <glyph glyph-name="uni2084" unicode="&#x2084;" horiz-adv-x="279" 
d="M238 -13h32v-81h-32v-81h-82v81h-148v81l103 252h127v-252zM88 -13h71v174z" />
    <glyph glyph-name="uni2085" unicode="&#x2085;" horiz-adv-x="282" 
d="M118 -183q-59 0 -104 36l31 80q32 -30 69 -30q28 0 43.5 15.5t15.5 43.5q0 57 -59 57q-18 0 -37 -11l-52 18l21 213h188v-86h-112l-7 -60q7 2 21 2q54 0 88.5 -37.5t34.5 -97.5q0 -63 -39.5 -103t-101.5 -40z" />
    <glyph glyph-name="uni2086" unicode="&#x2086;" horiz-adv-x="288" 
d="M146 108q58 0 93 -39t35 -104q0 -67 -35.5 -107t-94.5 -40t-94 40t-35 107q0 59 25 116t88 158h102q-41 -59 -87 -131h3zM144 -97q21 0 33 16.5t12 45.5t-12 45.5t-33 16.5q-20 0 -32.5 -16.5t-12.5 -45.5t12.5 -45.5t32.5 -16.5z" />
    <glyph glyph-name="uni2087" unicode="&#x2087;" horiz-adv-x="285" 
d="M277 239l-151 -414h-91l120 330h-143v84h265z" />
    <glyph glyph-name="uni2088" unicode="&#x2088;" horiz-adv-x="281" 
d="M216 43q48 -28 48 -96q0 -59 -33.5 -94t-89.5 -35q-57 0 -90.5 35t-33.5 94q0 68 48 96q-37 28 -37 85q0 54 30 85.5t83 31.5q52 0 82.5 -31.5t30.5 -85.5q0 -56 -38 -85zM140 160q-30 0 -30 -40q0 -41 30 -41q31 0 31 41q0 40 -31 40zM141 -97q39 0 39 48q0 50 -39 50
t-39 -50q0 -48 39 -48z" />
    <glyph glyph-name="uni2089" unicode="&#x2089;" horiz-adv-x="288" 
d="M144 246q59 0 94 -40t35 -107q0 -59 -24.5 -115.5t-87.5 -158.5h-102q47 67 86 131h-3q-58 0 -93 39t-35 104q0 67 35.5 107t94.5 40zM144 37q20 0 32.5 16.5t12.5 45.5t-12.5 45.5t-32.5 16.5t-32.5 -16.5t-12.5 -45.5t12.5 -45.5t32.5 -16.5z" />
    <glyph glyph-name="uni208A" unicode="&#x208a;" horiz-adv-x="284" 
d="M259 22v-71h-84v-104h-67v104h-83v71h83v104h67v-104h84z" />
    <glyph glyph-name="uni208B" unicode="&#x208b;" horiz-adv-x="285" 
d="M25 22h234v-71h-234v71z" />
    <glyph glyph-name="uni208C" unicode="&#x208c;" horiz-adv-x="285" 
d="M25 92h234v-71h-234v71zM25 -48h234v-72h-234v72z" />
    <glyph glyph-name="uni208D" unicode="&#x208d;" horiz-adv-x="192" 
d="M185 -248l-62 -44q-102 120 -102 281q0 162 102 280l61 -44q-88 -96 -88 -236q0 -141 89 -237z" />
    <glyph glyph-name="uni208E" unicode="&#x208e;" horiz-adv-x="192" 
d="M7 -248q89 96 89 237t-88 236l61 44q102 -116 102 -280q0 -163 -102 -281z" />
    <glyph glyph-name="Euro" unicode="&#x20ac;" horiz-adv-x="420" 
d="M295 105q45 0 87 31l28 -110q-50 -38 -121 -38q-92 0 -155.5 64.5t-83.5 178.5h-39v76h32q-1 9 -1 26q0 19 1 28h-32v76h40q20 114 82.5 178t155.5 64q69 0 122 -39l-25 -112q-42 34 -91 34q-90 0 -120 -125h192l-16 -76h-185q-1 -9 -1 -28q0 -18 1 -26h174l-17 -76h-148
q13 -61 44.5 -93.5t75.5 -32.5z" />
    <glyph glyph-name="uni20B9" unicode="&#x20b9;" horiz-adv-x="420" 
d="M396 578h-87q21 -26 32 -53h55v-89h-44q-4 -61 -35 -106.5t-85 -68.5l144 -261h-149l-189 351h90q40 0 66 23t33 62h-203v89h192q-24 53 -88 53h-104v89h372v-89z" />
    <glyph glyph-name="uni20BA" unicode="&#x20ba;" horiz-adv-x="420" 
d="M285 327h123q0 -171 -58 -249t-186 -78h-124v223l-32 -20v92l32 20v59l-32 -20v92l32 20v201h124v-124l89 55v-92l-89 -55v-59l89 55v-91l-89 -56v-183q69 0 95 45.5t26 164.5z" />
    <glyph glyph-name="uni2113" unicode="&#x2113;" horiz-adv-x="371" 
d="M237 107q35 0 72 20l27 -106q-52 -31 -119 -31q-82 0 -126 45.5t-46 133.5q-24 -14 -37 -21v130q33 20 37 23v214q0 104 34.5 150.5t114.5 46.5q153 0 153 -166q0 -78 -40 -149.5t-138 -145.5v-54q0 -50 15.5 -70t52.5 -20zM195 605q-26 0 -26 -58v-142q54 67 54 141
q0 59 -28 59z" />
    <glyph glyph-name="published" unicode="&#x2117;" horiz-adv-x="623" 
d="M312 679q123 0 201 -96t78 -249q0 -154 -78 -250t-201 -96q-124 0 -202 96t-78 250q0 153 78 249t202 96zM312 53q95 0 153 77t58 204q0 126 -58 203t-153 77q-96 0 -154.5 -77t-58.5 -203q0 -127 58.5 -204t154.5 -77zM329 526q58 0 93 -35t35 -92q0 -59 -34.5 -93.5
t-93.5 -34.5h-42v-130h-81v385h123zM329 353q46 0 46 46q0 45 -46 45h-42v-91h42z" />
    <glyph glyph-name="trademark" unicode="&#x2122;" horiz-adv-x="589" 
d="M223 667v-73h-69v-231h-76v231h-67v73h212zM564 667v-304h-76v184l-67 -138h-28l-67 139v-185h-76v304h103l54 -121l55 121h102z" />
    <glyph glyph-name="uni2126" unicode="&#x2126;" horiz-adv-x="620" 
d="M487 107h105v-107h-251v109q55 15 87.5 76t32.5 154q0 104 -40.5 164t-110.5 60t-110.5 -60t-40.5 -164q0 -93 32.5 -154t87.5 -76v-109h-251v107h105q-98 87 -98 255q0 144 74.5 230.5t200.5 86.5q125 0 200 -86.5t75 -230.5q0 -167 -98 -255z" />
    <glyph glyph-name="estimated" unicode="&#x212e;" horiz-adv-x="812" 
d="M406 -10q-171 0 -272 95q-104 99 -104 248q0 148 105 248q103 96 271 96q154 0 260 -85q106 -86 116 -269h-598q-8 0 -11.5 -2.5t-3.5 -14.5v-168q0 -33 70.5 -77t166.5 -44q69 0 132 30.5t106 78.5h70q-72 -80 -141 -107q-73 -29 -167 -29zM184 345h441q11 0 14 3.5
t3 12.5v165q0 41 -79 84t-159 43q-61 0 -118.5 -24.5t-87 -52t-29.5 -43.5v-180q0 -8 15 -8z" />
    <glyph glyph-name="arrowleft" unicode="&#x2190;" horiz-adv-x="758" 
d="M718 397v-127h-447l156 -149l-87 -88l-300 300l300 300l87 -87l-155 -149h446z" />
    <glyph glyph-name="arrowup" unicode="&#x2191;" horiz-adv-x="680" 
d="M640 378l-87 -87l-150 156v-447h-127v446l-149 -155l-87 87l300 300z" />
    <glyph glyph-name="arrowright" unicode="&#x2192;" horiz-adv-x="758" 
d="M418 633l300 -300l-300 -300l-87 87l156 150h-447v127h446l-155 149z" />
    <glyph glyph-name="arrowdown" unicode="&#x2193;" horiz-adv-x="680" 
d="M553 379l87 -87l-300 -300l-300 300l87 87l150 -156v447h127v-446z" />
    <glyph glyph-name="uni2196" unicode="&#x2196;" horiz-adv-x="604" 
d="M564 159l-90 -90l-315 315l4 -215h-123v424h424v-123l-216 5z" />
    <glyph glyph-name="uni2197" unicode="&#x2197;" horiz-adv-x="604" 
d="M140 591l424 1v-425h-123l4 215l-315 -315l-90 90l316 316l-216 -5v123z" />
    <glyph glyph-name="uni2198" unicode="&#x2198;" horiz-adv-x="604" 
d="M441 515h123v-424h-424v123l216 -5l-316 316l90 90l316 -316z" />
    <glyph glyph-name="uni2199" unicode="&#x2199;" horiz-adv-x="604" 
d="M565 525l-316 -315l216 4v-123h-425v424h123l-4 -216l316 316z" />
    <glyph glyph-name="partialdiff" unicode="&#x2202;" horiz-adv-x="448" 
d="M214 678q102 0 164.5 -91t62.5 -260q0 -167 -58.5 -252.5t-157.5 -85.5q-88 0 -143 65t-55 168q0 98 50.5 160t130.5 62q70 0 117 -55q-17 179 -128 179q-50 0 -93 -32l-20 104q55 38 130 38zM224 99q37 0 59.5 34t22.5 89t-22.5 88.5t-59.5 33.5q-36 0 -59 -34t-23 -88
q0 -55 23 -89t59 -34z" />
    <glyph glyph-name="uni2206" unicode="&#x2206;" horiz-adv-x="563" 
d="M563 0h-130l-70 241l-72 -241h-247l108 463h146l-59 204h117z" />
    <glyph glyph-name="product" unicode="&#x220f;" horiz-adv-x="575" 
d="M56 -175v842h463v-842h-124v725h-215v-725h-124z" />
    <glyph glyph-name="summation" unicode="&#x2211;" horiz-adv-x="469" 
d="M436 667v-117h-245l160 -304l-160 -304h245v-117h-403v97l170 324l-170 324v97h403z" />
    <glyph glyph-name="minus" unicode="&#x2212;" horiz-adv-x="437" 
d="M37 310h363v-100h-363v100z" />
    <glyph glyph-name="uni2215" unicode="&#x2215;" horiz-adv-x="536" 
d="M131 0h-116l288 667h114z" />
    <glyph glyph-name="uni2219" unicode="&#x2219;" horiz-adv-x="536" 
d="M258 174q-34 0 -56 22.5t-22 57.5t22 57.5t56 22.5t56.5 -23t22.5 -57q0 -35 -22.5 -57.5t-56.5 -22.5z" />
    <glyph glyph-name="radical" unicode="&#x221a;" horiz-adv-x="600" 
d="M483 702h108l-260 -877h-156l-86 372h-81v104h165l84 -365z" />
    <glyph glyph-name="infinity" unicode="&#x221e;" horiz-adv-x="653" 
d="M478 448q67 0 109 -52.5t42 -135.5t-42 -135.5t-109 -52.5q-87 0 -151 111q-66 -111 -152 -111q-67 0 -109 52.5t-42 135.5t42 135.5t109 52.5q85 0 152 -111q65 111 151 111zM181 174q23 0 42 21.5t44 64.5q-25 43 -44 64.5t-42 21.5t-36.5 -23t-13.5 -63t13.5 -63
t36.5 -23zM472 174q23 0 36.5 23t13.5 63t-13.5 63t-36.5 23t-42 -21.5t-44 -64.5q25 -43 44 -64.5t42 -21.5z" />
    <glyph glyph-name="integral" unicode="&#x222b;" horiz-adv-x="414" 
d="M-5 -166l20 107q18 -10 38 -10q59 0 68 81l50 483q9 91 52 137t111 46q52 0 85 -20l-19 -106q-18 10 -39 10q-58 0 -67 -81l-50 -483q-9 -91 -52.5 -137t-111.5 -46q-49 0 -85 19z" />
    <glyph glyph-name="approxequal" unicode="&#x2248;" horiz-adv-x="437" 
d="M40 291q0 77 31 124.5t88 47.5q29 0 52 -18t39 -36t28 -18q27 0 27 72h92q0 -78 -31 -125t-88 -47q-29 0 -52 17.5t-39 35.5t-28 18q-27 0 -27 -71h-92zM40 57q0 78 31 125t88 47q29 0 52 -17.5t39 -35.5t28 -18q27 0 27 71h92q0 -77 -31 -124.5t-88 -47.5q-29 0 -52 18
t-39 36t-28 18q-27 0 -27 -72h-92z" />
    <glyph glyph-name="notequal" unicode="&#x2260;" horiz-adv-x="437" 
d="M400 321h-96l-56 -121h152v-101h-189l-49 -107h-99l48 107h-74v101h112l56 121h-168v101h206l48 106h100l-48 -106h57v-101z" />
    <glyph glyph-name="lessequal" unicode="&#x2264;" horiz-adv-x="437" 
d="M400 533v-107l-286 -100l286 -101v-107l-363 132v152zM37 -13v100h363v-100h-363z" />
    <glyph glyph-name="greaterequal" unicode="&#x2265;" horiz-adv-x="437" 
d="M37 533l363 -131v-152l-363 -132v107l286 101l-286 100v107zM37 -13v100h363v-100h-363z" />
    <glyph glyph-name="lozenge" unicode="&#x25ca;" horiz-adv-x="535" 
d="M352 667l167 -421l-167 -421h-168l-168 421l168 421h168zM268 -66l119 312l-119 312l-120 -312z" />
    <glyph glyph-name="uni2610" unicode="&#x2610;" horiz-adv-x="571" 
d="M16 0v667h539v-667h-539zM98 82h375v503h-375v-503z" />
    <glyph glyph-name="uni2611" unicode="&#x2611;" horiz-adv-x="571" 
d="M16 667h539v-667h-539v667zM473 82v503h-375v-503h375zM212 117q-40 140 -98 176l48 77q52 -24 88 -117q63 246 157 306l55 -85q-45 -30 -89 -127t-69 -230h-92z" />
    <glyph glyph-name="uni2612" unicode="&#x2612;" horiz-adv-x="571" 
d="M16 667h539v-667h-539v667zM473 82v503h-375v-503h375zM178 108l-68 53q43 91 102 183q-49 81 -83 147l74 62q24 -50 69 -126q62 80 126 135l61 -91q-68 -49 -133 -128q50 -76 109 -151l-67 -73q-48 62 -102 142q-49 -73 -88 -153z" />
    <glyph glyph-name="uni2713" unicode="&#x2713;" horiz-adv-x="571" 
d="M481 675l70 -116q-77 -43 -152 -197t-119 -363h-107q-68 202 -157 247l59 105q84 -34 139 -171q109 406 267 495z" />
    <glyph glyph-name="uni2717" unicode="&#x2717;" horiz-adv-x="571" 
d="M556 561q-108 -76 -225 -218q92 -138 178 -242l-87 -88q-83 103 -168 229q-80 -112 -149 -247l-90 62q78 155 171 289q-85 133 -143 244l98 72q58 -111 121 -212q109 141 215 225z" />
    <glyph glyph-name="uniFEFF" unicode="&#xfeff;" 
 />
    <glyph glyph-name="a.ss01" horiz-adv-x="407" 
d="M180 490q90 0 139.5 -50.5t49.5 -142.5v-297h-108v43q-35 -54 -106 -54q-63 0 -100 40.5t-37 110.5q0 71 39.5 112t106.5 41q52 0 90 -21v16q0 96 -94 96q-54 0 -98 -30l-18 100q57 36 136 36zM192 78q29 0 45.5 18.5t16.5 54.5v40q-23 13 -53 13q-32 0 -49.5 -17
t-17.5 -47q0 -29 15 -45.5t43 -16.5z" />
    <glyph glyph-name="aacute.ss01" horiz-adv-x="407" 
d="M315 705l-99 -151h-108l79 151h128zM180 490q90 0 139.5 -50.5t49.5 -142.5v-297h-108v43q-35 -54 -106 -54q-63 0 -100 40.5t-37 110.5q0 71 39.5 112t106.5 41q52 0 90 -21v16q0 96 -94 96q-54 0 -98 -30l-18 100q57 36 136 36zM192 78q29 0 45.5 18.5t16.5 54.5v40
q-23 13 -53 13q-32 0 -49.5 -17t-17.5 -47q0 -29 15 -45.5t43 -16.5z" />
    <glyph glyph-name="abreve.ss01" horiz-adv-x="407" 
d="M196 550q-58 0 -92.5 41.5t-34.5 110.5h81q0 -30 12.5 -46.5t33.5 -16.5q46 0 46 63h80q0 -69 -34 -110.5t-92 -41.5zM180 490q90 0 139.5 -50.5t49.5 -142.5v-297h-108v43q-35 -54 -106 -54q-63 0 -100 40.5t-37 110.5q0 71 39.5 112t106.5 41q52 0 90 -21v16
q0 96 -94 96q-54 0 -98 -30l-18 100q57 36 136 36zM192 78q29 0 45.5 18.5t16.5 54.5v40q-23 13 -53 13q-32 0 -49.5 -17t-17.5 -47q0 -29 15 -45.5t43 -16.5z" />
    <glyph glyph-name="acircumflex.ss01" horiz-adv-x="407" 
d="M196 629l-41 -75h-104l79 151h131l79 -151h-104zM180 490q90 0 139.5 -50.5t49.5 -142.5v-297h-108v43q-35 -54 -106 -54q-63 0 -100 40.5t-37 110.5q0 71 39.5 112t106.5 41q52 0 90 -21v16q0 96 -94 96q-54 0 -98 -30l-18 100q57 36 136 36zM192 78q29 0 45.5 18.5
t16.5 54.5v40q-23 13 -53 13q-32 0 -49.5 -17t-17.5 -47q0 -29 15 -45.5t43 -16.5z" />
    <glyph glyph-name="adieresis.ss01" horiz-adv-x="407" 
d="M114 569q-28 0 -45.5 18.5t-17.5 47.5q0 30 17.5 48.5t45.5 18.5t45.5 -18.5t17.5 -48.5q0 -29 -17.5 -47.5t-45.5 -18.5zM277 569q-28 0 -45 18.5t-17 47.5q0 30 17 48.5t45 18.5q29 0 46.5 -18.5t17.5 -48.5q0 -29 -18 -47.5t-46 -18.5zM180 490q90 0 139.5 -50.5
t49.5 -142.5v-297h-108v43q-35 -54 -106 -54q-63 0 -100 40.5t-37 110.5q0 71 39.5 112t106.5 41q52 0 90 -21v16q0 96 -94 96q-54 0 -98 -30l-18 100q57 36 136 36zM192 78q29 0 45.5 18.5t16.5 54.5v40q-23 13 -53 13q-32 0 -49.5 -17t-17.5 -47q0 -29 15 -45.5t43 -16.5z
" />
    <glyph glyph-name="agrave.ss01" horiz-adv-x="407" 
d="M283 554h-108l-99 151h128zM180 490q90 0 139.5 -50.5t49.5 -142.5v-297h-108v43q-35 -54 -106 -54q-63 0 -100 40.5t-37 110.5q0 71 39.5 112t106.5 41q52 0 90 -21v16q0 96 -94 96q-54 0 -98 -30l-18 100q57 36 136 36zM192 78q29 0 45.5 18.5t16.5 54.5v40
q-23 13 -53 13q-32 0 -49.5 -17t-17.5 -47q0 -29 15 -45.5t43 -16.5z" />
    <glyph glyph-name="amacron.ss01" horiz-adv-x="407" 
d="M317 677v-86h-243v86h243zM180 490q90 0 139.5 -50.5t49.5 -142.5v-297h-108v43q-35 -54 -106 -54q-63 0 -100 40.5t-37 110.5q0 71 39.5 112t106.5 41q52 0 90 -21v16q0 96 -94 96q-54 0 -98 -30l-18 100q57 36 136 36zM192 78q29 0 45.5 18.5t16.5 54.5v40
q-23 13 -53 13q-32 0 -49.5 -17t-17.5 -47q0 -29 15 -45.5t43 -16.5z" />
    <glyph glyph-name="aogonek.ss01" horiz-adv-x="407" 
d="M368 -99l15 -68q-29 -18 -67 -18q-34 0 -53.5 18.5t-19.5 53.5q0 52 54 113h-36v43q-35 -54 -106 -54q-63 0 -100 40.5t-37 110.5q0 71 39.5 112t106.5 41q52 0 90 -21v16q0 96 -94 96q-54 0 -98 -30l-18 100q57 36 136 36q90 0 139.5 -50.5t49.5 -142.5v-297h-4l4 -1
q-44 -55 -44 -83q0 -21 20 -21q13 0 23 6zM192 78q29 0 45.5 18.5t16.5 54.5v40q-23 13 -53 13q-32 0 -49.5 -17t-17.5 -47q0 -29 15 -45.5t43 -16.5z" />
    <glyph glyph-name="aring.ss01" horiz-adv-x="407" 
d="M196 538q-44 0 -73 30.5t-29 76.5t29 76t73 30t72.5 -30t28.5 -76t-29 -76.5t-72 -30.5zM196 697q-20 0 -34 -15t-14 -37t14 -37.5t34 -15.5t33.5 15t13.5 38q0 22 -13.5 37t-33.5 15zM180 490q90 0 139.5 -50.5t49.5 -142.5v-297h-108v43q-35 -54 -106 -54
q-63 0 -100 40.5t-37 110.5q0 71 39.5 112t106.5 41q52 0 90 -21v16q0 96 -94 96q-54 0 -98 -30l-18 100q57 36 136 36zM192 78q29 0 45.5 18.5t16.5 54.5v40q-23 13 -53 13q-32 0 -49.5 -17t-17.5 -47q0 -29 15 -45.5t43 -16.5z" />
    <glyph glyph-name="atilde.ss01" horiz-adv-x="407" 
d="M152 606q-27 0 -27 -56h-79q0 69 25 111t71 42q25 0 43.5 -14t31.5 -28t24 -14q27 0 27 56h79q0 -69 -25 -111t-71 -42q-25 0 -44 14t-32 28t-23 14zM180 490q90 0 139.5 -50.5t49.5 -142.5v-297h-108v43q-35 -54 -106 -54q-63 0 -100 40.5t-37 110.5q0 71 39.5 112
t106.5 41q52 0 90 -21v16q0 96 -94 96q-54 0 -98 -30l-18 100q57 36 136 36zM192 78q29 0 45.5 18.5t16.5 54.5v40q-23 13 -53 13q-32 0 -49.5 -17t-17.5 -47q0 -29 15 -45.5t43 -16.5z" />
    <glyph glyph-name="f_i" horiz-adv-x="481" 
d="M216 604q-47 0 -47 -55v-68h88v-108h-88v-373h-116v373h-45v108h45v74q0 75 37.5 115t108.5 40q38 0 71 -14l-17 -100q-19 8 -37 8zM376 565q-31 0 -50 19.5t-19 49.5q0 31 19 50.5t50 19.5t50 -19.5t19 -50.5q0 -30 -19 -49.5t-50 -19.5zM318 0v481h116v-481h-116z" />
    <glyph glyph-name="f_l" horiz-adv-x="514" 
d="M216 604q-47 0 -47 -55v-68h88v-108h-88v-373h-116v373h-45v108h45v74q0 75 37.5 115t108.5 40q38 0 71 -14l-17 -100q-19 8 -37 8zM497 106l12 -98q-29 -13 -74 -13q-60 0 -88.5 31.5t-28.5 100.5v575h116v-554q0 -47 36 -47q14 0 27 5z" />
    <glyph glyph-name="zero.lf" horiz-adv-x="466" 
d="M233 -12q-98 0 -155 93t-57 252t57 252t155 93t155 -93t57 -252t-57 -252t-155 -93zM233 105q43 0 65.5 60t22.5 168q0 109 -22.5 169t-65.5 60t-65.5 -60t-22.5 -169q0 -108 22.5 -168t65.5 -60z" />
    <glyph glyph-name="one.lf" horiz-adv-x="330" 
d="M240 679h10v-679h-124v503l-102 -47l-24 114z" />
    <glyph glyph-name="two.lf" horiz-adv-x="420" 
d="M166 116h215v-116h-366q5 85 30.5 150t58.5 103t65 69.5t54 66.5t22 77q0 45 -23 70t-65 25q-57 0 -99 -40l-32 106q62 51 145 51q90 0 143.5 -57t53.5 -152q0 -52 -17 -95.5t-43 -75t-53 -59t-52.5 -59.5t-36.5 -64z" />
    <glyph glyph-name="three.lf" horiz-adv-x="420" 
d="M274 343q89 -43 89 -156q0 -91 -58.5 -145t-156.5 -54q-78 0 -130 36l18 114q42 -33 104 -33q47 0 73.5 23.5t26.5 66.5t-27 66.5t-76 23.5h-28v110h28q42 0 63.5 22t21.5 62q0 38 -21 60t-59 22q-50 0 -93 -34l-18 111q55 40 127 40q85 0 137 -52t52 -137
q0 -101 -73 -146z" />
    <glyph glyph-name="four.lf" horiz-adv-x="434" 
d="M364 253h51v-111h-51v-142h-119v142h-226v111l154 414h191v-414zM134 253h111v298z" />
    <glyph glyph-name="five.lf" horiz-adv-x="420" 
d="M174 -12q-87 0 -153 57l42 109q48 -49 106 -49q44 0 68.5 30t24.5 82q0 104 -87 104q-35 0 -63 -21l-77 24l33 343h281v-117h-175l-11 -130q16 6 38 6q82 0 133.5 -58t51.5 -152q0 -100 -59.5 -164t-152.5 -64z" />
    <glyph glyph-name="six.lf" horiz-adv-x="420" 
d="M219 445q80 0 130 -62.5t50 -162.5q0 -103 -52.5 -167.5t-136.5 -64.5t-136 64t-52 168q0 90 42.5 190t135.5 257h136q-21 -37 -64 -111t-64 -111h11zM210 105q30 0 47.5 30.5t17.5 84.5t-17.5 84.5t-47.5 30.5t-47.5 -31t-17.5 -84q0 -54 17.5 -84.5t47.5 -30.5z" />
    <glyph glyph-name="seven.lf" horiz-adv-x="417" 
d="M412 667l-230 -667h-126l190 550h-225v117h391z" />
    <glyph glyph-name="eight.lf" horiz-adv-x="420" 
d="M318 351q77 -45 77 -160q0 -93 -50 -148t-136 -55q-85 0 -135 55t-50 148q0 115 78 160q-56 44 -56 142q0 86 42.5 135.5t120.5 49.5q79 0 122 -50t43 -135q0 -97 -56 -142zM209 561q-48 0 -48 -78q0 -80 48 -80q49 0 49 80q0 78 -49 78zM209 105q63 0 63 94q0 95 -63 95
q-30 0 -46 -25t-16 -70t16.5 -69.5t45.5 -24.5z" />
    <glyph glyph-name="nine.lf" horiz-adv-x="420" 
d="M210 679q83 0 135.5 -64.5t52.5 -167.5q0 -90 -42.5 -190t-135.5 -257h-137l129 222h-11q-80 0 -130 62.5t-50 162.5q0 103 52.5 167.5t136.5 64.5zM144 447q0 -53 17.5 -84t47.5 -31t48 30.5t18 84.5t-18 84.5t-48 30.5t-47.5 -30.5t-17.5 -84.5z" />
    <glyph glyph-name="zero.dnom" horiz-adv-x="282" 
d="M140 -8q-60 0 -93 55.5t-33 158.5t33 159t93 56q61 0 94 -55.5t33 -159.5q0 -103 -33 -158.5t-94 -55.5zM140 77q42 0 42 129q0 130 -42 130q-41 0 -41 -130q0 -129 41 -129z" />
    <glyph glyph-name="one.dnom" horiz-adv-x="288" 
d="M202 84h62v-84h-213v84h66v213l-64 -28l-17 83l162 69h4v-337z" />
    <glyph glyph-name="two.dnom" horiz-adv-x="281" 
d="M116 84h138v-84h-244q4 55 20 96.5t36.5 64.5t41 42t34 39t13.5 44q0 50 -52 50q-38 0 -66 -26l-24 80q42 31 97 31q60 0 95.5 -36t35.5 -98q0 -38 -16 -70t-36 -50t-42 -40.5t-31 -42.5z" />
    <glyph glyph-name="three.dnom" horiz-adv-x="282" 
d="M180 213q62 -27 62 -99q0 -56 -39.5 -89t-105.5 -33q-47 0 -85 19l14 86q28 -20 66 -20q65 0 65 46q0 47 -65 47h-26v82h26q53 0 53 43q0 41 -47 41q-35 0 -63 -20l-13 80q37 25 85 25q54 0 88.5 -32.5t34.5 -84.5q0 -62 -50 -91z" />
    <glyph glyph-name="four.dnom" horiz-adv-x="279" 
d="M238 162h32v-81h-32v-81h-82v81h-148v81l103 252h127v-252zM88 162h71v174z" />
    <glyph glyph-name="five.dnom" horiz-adv-x="282" 
d="M118 -8q-59 0 -104 36l31 80q32 -30 69 -30q28 0 43.5 15.5t15.5 43.5q0 57 -59 57q-18 0 -37 -11l-52 18l21 213h188v-86h-112l-7 -60q7 2 21 2q54 0 88.5 -37.5t34.5 -97.5q0 -63 -39.5 -103t-101.5 -40z" />
    <glyph glyph-name="six.dnom" horiz-adv-x="288" 
d="M146 283q58 0 93 -39t35 -104q0 -67 -35.5 -107t-94.5 -40t-94 40t-35 107q0 59 25 116t88 158h102q-41 -59 -87 -131h3zM144 78q21 0 33 16.5t12 45.5t-12 45.5t-33 16.5q-20 0 -32.5 -16.5t-12.5 -45.5t12.5 -45.5t32.5 -16.5z" />
    <glyph glyph-name="seven.dnom" horiz-adv-x="285" 
d="M277 414l-151 -414h-91l120 330h-143v84h265z" />
    <glyph glyph-name="eight.dnom" horiz-adv-x="281" 
d="M216 218q48 -28 48 -96q0 -59 -33.5 -94t-89.5 -35q-57 0 -90.5 35t-33.5 94q0 68 48 96q-37 28 -37 85q0 54 30 85.5t83 31.5q52 0 82.5 -31.5t30.5 -85.5q0 -57 -38 -85zM140 335q-30 0 -30 -40q0 -41 30 -41q31 0 31 41q0 40 -31 40zM141 78q39 0 39 48q0 50 -39 50
t-39 -50q0 -48 39 -48z" />
    <glyph glyph-name="nine.dnom" horiz-adv-x="288" 
d="M144 421q59 0 94 -40t35 -107q0 -59 -24.5 -115.5t-87.5 -158.5h-102q47 67 86 131h-3q-58 0 -93 39t-35 104q0 67 35.5 107t94.5 40zM144 212q20 0 32.5 16.5t12.5 45.5t-12.5 45.5t-32.5 16.5t-32.5 -16.5t-12.5 -45.5t12.5 -45.5t32.5 -16.5z" />
    <glyph glyph-name="zero.numr" horiz-adv-x="282" 
d="M140 245q-60 0 -93 55.5t-33 158.5t33 159t93 56q61 0 94 -55.5t33 -159.5q0 -103 -33 -158.5t-94 -55.5zM140 330q42 0 42 129q0 130 -42 130q-41 0 -41 -130q0 -129 41 -129z" />
    <glyph glyph-name="one.numr" horiz-adv-x="288" 
d="M202 337h62v-84h-213v84h66v213l-64 -28l-17 83l162 69h4v-337z" />
    <glyph glyph-name="two.numr" horiz-adv-x="281" 
d="M116 337h138v-84h-244q4 55 20 96.5t36.5 64.5t41 42t34 39t13.5 44q0 50 -52 50q-38 0 -66 -26l-24 80q42 31 97 31q60 0 95.5 -36t35.5 -98q0 -38 -16 -70t-36 -50t-42 -40.5t-31 -42.5z" />
    <glyph glyph-name="three.numr" horiz-adv-x="282" 
d="M180 466q62 -27 62 -99q0 -56 -39.5 -89t-105.5 -33q-47 0 -85 19l14 86q28 -20 66 -20q65 0 65 46q0 47 -65 47h-26v82h26q53 0 53 43q0 41 -47 41q-35 0 -63 -20l-13 80q37 25 85 25q54 0 88.5 -32.5t34.5 -84.5q0 -62 -50 -91z" />
    <glyph glyph-name="four.numr" horiz-adv-x="279" 
d="M238 415h32v-81h-32v-81h-82v81h-148v81l103 252h127v-252zM88 415h71v174z" />
    <glyph glyph-name="five.numr" horiz-adv-x="282" 
d="M118 245q-59 0 -104 36l31 80q31 -30 69 -30q28 0 43.5 15.5t15.5 43.5q0 57 -59 57q-18 0 -37 -11l-52 18l21 213h188v-86h-112l-7 -60q7 2 21 2q54 0 88.5 -37.5t34.5 -97.5q0 -63 -39.5 -103t-101.5 -40z" />
    <glyph glyph-name="six.numr" horiz-adv-x="288" 
d="M146 536q58 0 93 -39t35 -104q0 -67 -35.5 -107t-94.5 -40t-94 40t-35 107q0 59 25 116t88 158h102q-41 -59 -87 -131h3zM144 331q21 0 33 16.5t12 45.5t-12 45.5t-33 16.5q-20 0 -32.5 -16.5t-12.5 -45.5t12.5 -45.5t32.5 -16.5z" />
    <glyph glyph-name="seven.numr" horiz-adv-x="285" 
d="M277 667l-151 -414h-91l120 330h-143v84h265z" />
    <glyph glyph-name="eight.numr" horiz-adv-x="281" 
d="M216 471q48 -28 48 -96q0 -59 -33.5 -94t-89.5 -35q-57 0 -90.5 35t-33.5 94q0 68 48 96q-37 28 -37 85q0 54 30 85.5t83 31.5q52 0 82.5 -31.5t30.5 -85.5q0 -56 -38 -85zM140 588q-30 0 -30 -40q0 -41 30 -41q31 0 31 41q0 40 -31 40zM141 331q39 0 39 48q0 50 -39 50
t-39 -50q0 -48 39 -48z" />
    <glyph glyph-name="nine.numr" horiz-adv-x="288" 
d="M144 674q59 0 94 -40t35 -107q0 -59 -24.5 -115.5t-87.5 -158.5h-102q47 67 86 131h-3q-58 0 -93 39t-35 104q0 67 35.5 107t94.5 40zM144 465q20 0 32.5 16.5t12.5 45.5t-12.5 45.5t-32.5 16.5t-32.5 -16.5t-12.5 -45.5t12.5 -45.5t32.5 -16.5z" />
    <glyph glyph-name="caroncomb.alt" 
d="M-166 528l14 174h112l-56 -174h-70z" />
    <glyph glyph-name="uni0308.case" 
d="M-267 714q-28 0 -45.5 19t-17.5 48t17.5 47.5t45.5 18.5t45.5 -18.5t17.5 -47.5t-17.5 -48t-45.5 -19zM-104 714q-28 0 -45 19t-17 48t17 47.5t45 18.5t46 -18.5t18 -47.5t-18 -48t-46 -19z" />
    <glyph glyph-name="uni0307.case" 
d="M-109 711q-31 0 -50 19.5t-19 50.5t19 50t50 19t50 -19t19 -50t-19 -50.5t-50 -19.5z" />
    <glyph glyph-name="gravecomb.case" 
d="M-40 714h-108l-99 151h128z" />
    <glyph glyph-name="acutecomb.case" 
d="M-247 714l79 151h128l-99 -151h-108z" />
    <glyph glyph-name="uni030B.case" 
d="M-405 714l79 151h125l-99 -151h-105zM-245 714l79 151h126l-100 -151h-105z" />
    <glyph glyph-name="uni0302.case" 
d="M-40 714h-104l-40 75l-41 -75h-104l79 151h131z" />
    <glyph glyph-name="uni030C.case" 
d="M-144 865h104l-79 -151h-131l-79 151h104l41 -75z" />
    <glyph glyph-name="uni0306.case" 
d="M-120 862h80q0 -69 -34 -110.5t-92 -41.5t-92.5 41.5t-34.5 110.5h81q0 -30 12.5 -46.5t33.5 -16.5q46 0 46 63z" />
    <glyph glyph-name="uni030A.case" 
d="M-141 698q-44 0 -73 30.5t-29 76.5t29 76t73 30t72.5 -30t28.5 -76t-29 -76.5t-72 -30.5zM-141 752q20 0 33.5 15t13.5 38q0 22 -13.5 37t-33.5 15t-34 -15t-14 -37t14 -37.5t34 -15.5z" />
    <glyph glyph-name="tildecomb.case" 
d="M-341 710q0 69 25 111t71 42q25 0 43.5 -14t31.5 -28t24 -14q27 0 27 56h79q0 -69 -25 -111t-71 -42q-25 0 -44 14t-32 28t-23 14q-27 0 -27 -56h-79z" />
    <glyph glyph-name="uni0304.case" 
d="M-283 814h243v-85h-243v85z" />
    <glyph glyph-name="uni0335.case" 
d="M-336 392h296v-100h-296v100z" />
    <glyph glyph-name="uni0336.case" 
d="M-596 592h556v-87h-556v87z" />
    <glyph glyph-name="uni0337.case" 
d="M-335 324l295 203v-111l-295 -203v111z" />
    <glyph glyph-name="uni0338.case" 
d="M-112 682l72 -46l-430 -651l-72 46z" />
    <glyph glyph-name="uni0308.narrow" 
d="M-241 568q-26 0 -42.5 18.5t-16.5 47.5q0 30 16.5 48.5t42.5 18.5t42 -18.5t16 -48.5q0 -29 -16 -47.5t-42 -18.5zM-99 568q-26 0 -42 18.5t-16 47.5q0 30 16 48.5t42 18.5t42.5 -18.5t16.5 -48.5q0 -29 -16.5 -47.5t-42.5 -18.5z" />
    <glyph glyph-name="tildecomb.narrow" 
d="M-291 550q0 69 21 111t59 42q22 0 38 -14t26.5 -28t17.5 -14q19 0 19 56h70q0 -69 -21 -111t-58 -42q-22 0 -38 14t-26.5 28t-17.5 14q-20 0 -20 -56h-70z" />
    <glyph glyph-name="uni0304.narrow" 
d="M-268 676h228v-86h-228v86z" />
    <glyph glyph-name="acute.case" horiz-adv-x="287" 
d="M40 714l79 151h128l-99 -151h-108z" />
    <glyph glyph-name="breve.case" horiz-adv-x="333" 
d="M213 862h80q0 -69 -34 -110.5t-92 -41.5t-92.5 41.5t-34.5 110.5h81q0 -30 12.5 -46.5t33.5 -16.5q46 0 46 63z" />
    <glyph glyph-name="caron.case" horiz-adv-x="369" 
d="M225 865h104l-79 -151h-131l-79 151h104l41 -75z" />
    <glyph glyph-name="circumflex.case" horiz-adv-x="369" 
d="M329 714h-104l-40 75l-41 -75h-104l79 151h131z" />
    <glyph glyph-name="dieresis.case" horiz-adv-x="370" 
d="M103 714q-28 0 -45.5 19t-17.5 48t17.5 47.5t45.5 18.5t45.5 -18.5t17.5 -47.5t-17.5 -48t-45.5 -19zM266 714q-28 0 -45 19t-17 48t17 47.5t45 18.5t46 -18.5t18 -47.5t-18 -48t-46 -19z" />
    <glyph glyph-name="dotaccent.case" horiz-adv-x="218" 
d="M109 711q-31 0 -50 19.5t-19 50.5t19 50t50 19t50 -19t19 -50t-19 -50.5t-50 -19.5z" />
    <glyph glyph-name="grave.case" horiz-adv-x="287" 
d="M252 714h-108l-99 151h129z" />
    <glyph glyph-name="hungarumlaut.case" horiz-adv-x="445" 
d="M40 714l79 151h125l-99 -151h-105zM200 714l79 151h126l-100 -151h-105z" />
    <glyph glyph-name="macron.case" horiz-adv-x="323" 
d="M40 814h243v-85h-243v85z" />
    <glyph glyph-name="ring.case" horiz-adv-x="283" 
d="M142 698q-44 0 -73 30.5t-29 76.5t29 76t73 30t72.5 -30t28.5 -76t-29 -76.5t-72 -30.5zM142 752q20 0 33.5 15t13.5 38q0 22 -13.5 37t-33.5 15t-34 -15t-14 -37t14 -37.5t34 -15.5z" />
    <glyph glyph-name="tilde.case" horiz-adv-x="381" 
d="M40 710q0 69 25 111t71 42q25 0 43.5 -14t31.5 -28t24 -14q27 0 27 56h79q0 -69 -25 -111t-71 -42q-25 0 -44 14t-32 28t-23 14q-27 0 -27 -56h-79z" />
    </font>
</defs>
</svg>
