<?xml version="1.0" standalone="no"?>
<!DOCTYPE svg PUBLIC "-//W3C//DTD SVG 1.1//EN" "http://www.w3.org/Graphics/SVG/1.1/DTD/svg11.dtd" >
<svg xmlns="http://www.w3.org/2000/svg" xmlns:xlink="http://www.w3.org/1999/xlink" version="1.1">
<metadata>
Created by FontForge 20161013 at Wed Apr 12 11:55:57 2017
 By ,,,
Copyright 2017 Allianz SE All rights preserved
</metadata>
<defs>
<font id="AllianzNeo-SemiBoldItalic" horiz-adv-x="0" >
  <font-face 
    font-family="Allianz Neo SemiBold"
    font-weight="600"
    font-style="italic"
    font-stretch="normal"
    units-per-em="1000"
    panose-1="2 11 7 4 2 2 3 9 2 4"
    ascent="764"
    descent="-236"
    x-height="478"
    cap-height="667"
    bbox="-686 -291 1066 908"
    underline-thickness="50"
    underline-position="-200"
    slope="-11.3"
    unicode-range="U+000D-FEFF"
  />
<missing-glyph horiz-adv-x="480" 
d="M38 0v667h440v-667h-440zM106 68h304v531h-304v-531z" />
    <glyph glyph-name="uniFB00" unicode="ff" horiz-adv-x="661" 
d="M241 537l-12 -59h121l-19 -96h-121l-76 -382h-104l76 382h-65l19 96h65l16 79q32 153 174 153q52 0 91 -17l-35 -89q-27 11 -56 11q-31 0 -48.5 -17.5t-25.5 -60.5zM654 615q-31 0 -48.5 -17.5t-25.5 -60.5l-12 -59h121l-19 -96h-121l-76 -382h-104l76 382h-65l19 96h65
l16 79q32 153 174 153q52 0 91 -17l-35 -89q-27 11 -56 11z" />
    <glyph glyph-name="fi" unicode="fi" horiz-adv-x="562" 
d="M350 478l-19 -96h-121l-76 -382h-104l76 382h-65l19 96h65l16 79q32 153 174 153q52 0 91 -17l-35 -89q-27 11 -56 11q-31 0 -48.5 -17.5t-25.5 -60.5l-12 -59h121zM521 699q29 0 47.5 -18t18.5 -46t-18.5 -45.5t-47.5 -17.5t-47.5 17.5t-18.5 45.5t18.5 46t47.5 18z
M343 0l95 478h104l-95 -478h-104z" />
    <glyph glyph-name="fl" unicode="fl" horiz-adv-x="596" 
d="M241 537l-12 -59h121l-19 -96h-121l-76 -382h-104l76 382h-65l19 96h65l16 79q32 153 174 153q52 0 91 -17l-35 -89q-27 11 -56 11q-31 0 -48.5 -17.5t-25.5 -60.5zM473 122q0 -32 37 -32q20 0 37 6l-8 -95q-23 -6 -54 -6q-60 0 -89.5 23.5t-29.5 77.5q0 27 7 59l110 547
h104l-111 -555q-3 -15 -3 -25z" />
    <glyph glyph-name="uniFB03" unicode="ffi" horiz-adv-x="901" 
d="M241 537l-12 -59h121l-19 -96h-121l-76 -382h-104l76 382h-65l19 96h65l16 79q32 153 174 153q52 0 91 -17l-35 -89q-27 11 -56 11q-31 0 -48.5 -17.5t-25.5 -60.5zM689 478l-19 -96h-121l-76 -382h-104l76 382h-65l19 96h65l16 79q32 153 174 153q52 0 91 -17l-35 -89
q-27 11 -56 11q-31 0 -48.5 -17.5t-25.5 -60.5l-12 -59h121zM860 699q29 0 47.5 -18t18.5 -46t-18.5 -45.5t-47.5 -17.5t-47.5 17.5t-18.5 45.5t18.5 46t47.5 18zM682 0l95 478h104l-95 -478h-104z" />
    <glyph glyph-name="uniFB04" unicode="ffl" horiz-adv-x="935" 
d="M241 537l-12 -59h121l-19 -96h-121l-76 -382h-104l76 382h-65l19 96h65l16 79q32 153 174 153q52 0 91 -17l-35 -89q-27 11 -56 11q-31 0 -48.5 -17.5t-25.5 -60.5zM580 537l-12 -59h121l-19 -96h-121l-76 -382h-104l76 382h-65l19 96h65l16 79q32 153 174 153
q52 0 91 -17l-35 -89q-27 11 -56 11q-31 0 -48.5 -17.5t-25.5 -60.5zM812 122q0 -32 37 -32q21 0 37 6l-8 -95q-22 -6 -54 -6q-60 0 -89.5 23.5t-29.5 77.5q0 27 7 59l110 547h104l-111 -555q-3 -15 -3 -25z" />
    <glyph glyph-name=".notdef" horiz-adv-x="480" 
d="M38 0v667h440v-667h-440zM106 68h304v531h-304v-531z" />
    <glyph glyph-name=".null" 
 />
    <glyph glyph-name="nonmarkingreturn" horiz-adv-x="333" 
 />
    <glyph glyph-name="NULL" 
 />
    <glyph glyph-name="NULL" 
 />
    <glyph glyph-name="CR" unicode="&#xd;" horiz-adv-x="223" 
 />
    <glyph glyph-name="space" unicode=" " horiz-adv-x="223" 
 />
    <glyph glyph-name="exclam" unicode="!" horiz-adv-x="251" 
d="M75 206l79 461h113l-104 -461h-88zM91 -10q-30 0 -50 19.5t-20 50.5q0 30 20 50t50 20q31 0 50.5 -20t19.5 -50q0 -31 -19.5 -50.5t-50.5 -19.5z" />
    <glyph glyph-name="quotedbl" unicode="&#x22;" horiz-adv-x="361" 
d="M87 420l34 247h119l-64 -247h-89zM258 420l34 247h119l-64 -247h-89z" />
    <glyph glyph-name="numbersign" unicode="#" horiz-adv-x="646" 
d="M634 405h-103l-53 -142h102l-33 -90h-103l-65 -173h-95l65 173h-135l-65 -173h-95l65 173h-102l33 90h103l53 142h-102l34 89h102l65 173h95l-65 -173h135l65 173h95l-65 -173h102zM383 263l53 142h-135l-53 -142h135z" />
    <glyph glyph-name="dollar" unicode="$" horiz-adv-x="536" 
d="M335 542q-53 0 -83.5 -21t-30.5 -54q0 -27 26.5 -47t64.5 -35t76 -33.5t64.5 -54.5t26.5 -86q0 -72 -54.5 -121t-139.5 -62l-14 -68h-106l13 65q-92 6 -149 40l45 102q64 -40 151 -40q62 0 101.5 20.5t39.5 55.5q0 25 -26.5 44t-64 34t-75 34t-64 55.5t-26.5 88.5
q0 74 53 124t139 60l12 63h104l-13 -65q79 -11 125 -40l-44 -100q-67 41 -151 41z" />
    <glyph glyph-name="percent" unicode="%" horiz-adv-x="736" 
d="M222 365q-62 0 -100 38t-38 100q0 75 45.5 124.5t122.5 49.5q62 0 99.5 -38t37.5 -101q0 -74 -45.5 -123.5t-121.5 -49.5zM654 667h119l-653 -667h-120zM228 445q35 0 53.5 26.5t18.5 62.5q0 29 -14 45.5t-40 16.5q-35 0 -53.5 -26.5t-18.5 -62.5q0 -28 14.5 -45
t39.5 -17zM523 -9q-61 0 -99 38.5t-38 100.5q0 75 45 124.5t122 49.5q62 0 99.5 -38t37.5 -101q0 -75 -45.5 -124.5t-121.5 -49.5zM529 72q34 0 53 26.5t19 61.5q0 29 -14 46t-40 17q-35 0 -53.5 -26.5t-18.5 -63.5q0 -28 14.5 -44.5t39.5 -16.5z" />
    <glyph glyph-name="ampersand" unicode="&#x26;" horiz-adv-x="648" 
d="M618 333q-37 -108 -99 -191q24 -27 86 -93l-93 -57q-14 14 -68 73q-94 -77 -210 -77q-93 0 -149 52t-56 132q0 66 38.5 112t117.5 91q-35 63 -35 124q0 78 50.5 128.5t131.5 50.5q68 0 113 -39t45 -103q0 -99 -156 -185l30 -35q45 -52 90 -102q37 58 64 133zM329 581
q-32 0 -52.5 -21.5t-20.5 -56.5q0 -36 24 -78q53 28 78 51.5t25 55.5q0 23 -14 36t-40 13zM244 85q74 0 137 49q-27 30 -103 116q-14 15 -42 49q-54 -29 -80 -57t-26 -65q0 -42 29.5 -67t84.5 -25z" />
    <glyph glyph-name="quotesingle" unicode="'" horiz-adv-x="190" 
d="M87 420l34 247h119l-64 -247h-89z" />
    <glyph glyph-name="parenleft" unicode="(" horiz-adv-x="341" 
d="M246 -133l-86 -53q-123 140 -123 354q0 152 80.5 296.5t221.5 249.5l75 -60q-126 -89 -201 -220.5t-75 -268.5q0 -182 108 -298z" />
    <glyph glyph-name="parenright" unicode=")" horiz-adv-x="343" 
d="M106 661l87 53q123 -142 123 -354q0 -152 -81 -296.5t-222 -249.5l-75 60q125 89 200.5 220.5t75.5 268.5q0 182 -108 298z" />
    <glyph glyph-name="asterisk" unicode="*" horiz-adv-x="417" 
d="M170 324l-68 63l99 88l-125 46l39 84l115 -66l4 132l92 -11l-27 -130l127 37l18 -91l-132 -14l74 -109l-81 -46l-54 122z" />
    <glyph glyph-name="plus" unicode="+" horiz-adv-x="540" 
d="M512 306v-91h-179v-180h-91v180h-180v91h180v179h91v-179h179z" />
    <glyph glyph-name="comma" unicode="," horiz-adv-x="235" 
d="M11 -153l-83 21l136 263l104 -26z" />
    <glyph glyph-name="hyphen" unicode="-" horiz-adv-x="311" 
d="M49 312h242l-21 -104h-242z" />
    <glyph glyph-name="period" unicode="." horiz-adv-x="232" 
d="M78 -10q-32 0 -52.5 21t-20.5 52t20.5 51.5t52.5 20.5t52.5 -20.5t20.5 -51.5t-20.5 -52t-52.5 -21z" />
    <glyph glyph-name="slash" unicode="/" horiz-adv-x="420" 
d="M24 -175h-109l474 842h109z" />
    <glyph glyph-name="zero" unicode="0" horiz-adv-x="536" 
d="M230 -12q-89 0 -140.5 62t-51.5 169q0 83 20.5 163.5t58 147t97.5 107.5t132 41q89 0 140 -62.5t51 -170.5q0 -82 -20.5 -162t-58 -146.5t-97 -107.5t-131.5 -41zM240 93q55 0 99 58t64.5 135.5t20.5 150.5q0 65 -23.5 101t-67.5 36q-55 0 -98.5 -59t-64 -137t-20.5 -151
q0 -64 23 -99t67 -35z" />
    <glyph glyph-name="one" unicode="1" horiz-adv-x="536" 
d="M328 104h129l-20 -104h-387l20 104h147l83 417l-154 -58l-2 108l289 108h10z" />
    <glyph glyph-name="two" unicode="2" horiz-adv-x="536" 
d="M513 505q0 -45 -15 -84.5t-41 -69.5t-58 -56t-68 -49t-68.5 -44t-62 -46.5t-46.5 -51.5h300l-20 -104h-456q19 70 59 127.5t85.5 92.5t95 69t89.5 60t65.5 62.5t25.5 78.5q0 39 -24.5 61t-70.5 22q-94 0 -172 -61l-14 99q96 67 205 67q93 0 142 -46t49 -127z" />
    <glyph glyph-name="three" unicode="3" horiz-adv-x="536" 
d="M356 342q95 -36 95 -135q0 -98 -76.5 -158.5t-197.5 -60.5q-116 0 -189 47l42 102q55 -44 150 -44q72 0 115.5 30t43.5 81q0 86 -130 86h-47l19 100h47q66 0 106 30t40 82q0 34 -24 52.5t-68 18.5q-81 0 -154 -44l-2 98q85 51 187 51q81 0 128.5 -40.5t47.5 -112.5
q0 -62 -35 -110t-98 -73z" />
    <glyph glyph-name="four" unicode="4" horiz-adv-x="536" 
d="M434 248h87l-20 -99h-87l-30 -149h-108l30 149h-307l20 99l328 419h170zM326 248l63 318l-249 -318h186z" />
    <glyph glyph-name="five" unicode="5" horiz-adv-x="536" 
d="M503 563h-239l-53 -154q40 15 89 15q87 0 136.5 -47.5t49.5 -134.5q0 -106 -77 -180t-200 -74q-129 0 -207 67l60 99q59 -60 152 -60q70 0 114.5 40t44.5 100q0 46 -29 71t-84 25q-65 0 -121 -28l-65 22l113 343h336z" />
    <glyph glyph-name="six" unicode="6" horiz-adv-x="536" 
d="M315 442q88 0 139 -52t51 -139q0 -110 -76.5 -186.5t-194.5 -76.5q-92 0 -151 51.5t-59 137.5q0 102 85.5 224.5t231.5 265.5h144q-120 -120 -219 -231q24 6 49 6zM246 92q62 0 103 44t41 106q0 47 -28 74t-76 27q-65 0 -106.5 -44t-41.5 -106q0 -45 30 -73t78 -28z" />
    <glyph glyph-name="seven" unicode="7" horiz-adv-x="536" 
d="M596 667l-438 -667h-129l371 563h-304l20 104h480z" />
    <glyph glyph-name="eight" unicode="8" horiz-adv-x="536" 
d="M405 347q87 -42 87 -137q0 -99 -68.5 -160.5t-184.5 -61.5q-95 0 -154.5 46.5t-59.5 123.5q0 71 40.5 122t112.5 75q-67 41 -67 117q0 91 62 148.5t165 57.5q85 0 136.5 -41.5t51.5 -110.5q0 -61 -31.5 -107.5t-89.5 -71.5zM328 574q-51 0 -80 -28t-29 -72
q0 -35 23 -55.5t62 -20.5q50 0 80.5 29t30.5 72q0 34 -23.5 54.5t-63.5 20.5zM247 92q63 0 98 32t35 87q0 39 -29 63.5t-76 24.5q-62 0 -99 -33t-37 -88q0 -40 29 -63t79 -23z" />
    <glyph glyph-name="nine" unicode="9" horiz-adv-x="536" 
d="M339 679q93 0 152 -51.5t59 -137.5q0 -102 -86 -224t-232 -266h-144q117 116 220 231q-26 -6 -50 -6q-87 0 -138 52t-51 139q0 110 76 186.5t194 76.5zM287 324q66 0 107.5 44t41.5 106q0 45 -30 73t-78 28q-63 0 -104 -44t-41 -106q0 -46 28.5 -73.5t75.5 -27.5z" />
    <glyph glyph-name="colon" unicode=":" horiz-adv-x="233" 
d="M149 339q-31 0 -52 20.5t-21 52.5q0 31 20.5 51.5t52.5 20.5t52.5 -20.5t20.5 -51.5q0 -32 -21 -52.5t-52 -20.5zM79 -6q-31 0 -52 21t-21 52t20.5 51.5t52.5 20.5t52.5 -20.5t20.5 -51.5t-21 -52t-52 -21z" />
    <glyph glyph-name="uni003B" unicode=";" horiz-adv-x="251" 
d="M170 345q-32 0 -52.5 20.5t-20.5 52.5q0 31 20.5 51.5t52.5 20.5t52.5 -20.5t20.5 -51.5q0 -32 -20.5 -52.5t-52.5 -20.5zM13 -139l-83 21l136 263l104 -26z" />
    <glyph glyph-name="less" unicode="&#x3c;" horiz-adv-x="540" 
d="M600 498v-100l-370 -138l370 -138v-100l-450 168v140z" />
    <glyph glyph-name="equal" unicode="=" horiz-adv-x="540" 
d="M62 415h450v-91h-450v91zM62 196h450v-91h-450v91z" />
    <glyph glyph-name="greater" unicode="&#x3e;" horiz-adv-x="540" 
d="M62 498l450 -168v-140l-450 -168v100l370 138l-370 138v100z" />
    <glyph glyph-name="question" unicode="?" horiz-adv-x="469" 
d="M117 206l2 9q9 44 38 79.5t64 58.5t69 44.5t56.5 47.5t22.5 57q0 33 -25.5 52t-74.5 19q-88 0 -159 -49l-14 106q82 48 181 48q97 0 150.5 -42.5t53.5 -121.5q0 -52 -23.5 -92t-58 -64.5t-69.5 -45t-62.5 -45t-33.5 -52.5l-2 -9h-115zM147 -11q-31 0 -51 20t-20 51
q0 30 20 50t51 20q30 0 50 -20t20 -50q0 -31 -20 -51t-50 -20z" />
    <glyph glyph-name="at" unicode="@" horiz-adv-x="901" 
d="M676 450l-50 -252q-7 -26 -0.5 -40.5t29.5 -14.5q57 0 93 62.5t36 135.5q0 113 -73.5 182t-198.5 69q-161 0 -271 -115t-110 -275q0 -125 75 -200.5t203 -75.5q130 0 230 51l24 -93q-116 -55 -255 -55q-170 0 -273 103.5t-103 263.5q0 134 62.5 247t173.5 179t245 66
q165 0 267.5 -92.5t102.5 -240.5q0 -123 -70 -216t-177 -93q-49 0 -74 23t-27 64q-62 -75 -150 -75q-64 0 -100 43t-36 121q0 89 59.5 162.5t149.5 73.5q88 0 120 -69l12 61h86zM426 145q43 0 75.5 27.5t41.5 73.5l3 16q9 51 -12.5 80.5t-68.5 29.5q-49 0 -85 -42t-36 -100
q0 -39 22 -62t60 -23z" />
    <glyph glyph-name="A" unicode="A" horiz-adv-x="653" 
d="M492 0l-32 171h-286l-100 -171h-121l396 667h126l130 -667h-113zM236 277h205l-50 265z" />
    <glyph glyph-name="B" unicode="B" horiz-adv-x="638" 
d="M513 343q81 -40 81 -134q0 -91 -71 -150t-184 -59h-306l133 667h246q104 0 157.5 -40t53.5 -116q0 -54 -28.5 -98t-81.5 -70zM403 563h-147l-34 -174h166q54 0 86.5 27t32.5 70q0 77 -104 77zM345 104q64 0 101 30t37 76q0 39 -27.5 60t-77.5 21h-176l-37 -187h180z" />
    <glyph glyph-name="C" unicode="C" horiz-adv-x="620" 
d="M337 -12q-135 0 -210.5 77t-75.5 212q0 170 108 286t277 116q68 0 127 -19.5t94 -54.5l-46 -92q-67 62 -173 62q-119 0 -196 -82.5t-77 -205.5q0 -92 46 -143.5t133 -51.5q105 0 195 62l12 -111q-96 -55 -214 -55z" />
    <glyph glyph-name="D" unicode="D" horiz-adv-x="675" 
d="M33 0l133 667h175q159 0 240.5 -72t81.5 -207q0 -170 -112.5 -279t-300.5 -109h-217zM165 104h90q133 0 213 75.5t80 197.5q0 186 -217 186h-74z" />
    <glyph glyph-name="E" unicode="E" horiz-adv-x="560" 
d="M586 563h-329l-34 -168h260l-21 -106h-260l-37 -185h329l-20 -104h-441l133 667h441z" />
    <glyph glyph-name="F" unicode="F" horiz-adv-x="547" 
d="M586 563h-330l-39 -195h269l-21 -104h-268l-53 -264h-111l133 667h441z" />
    <glyph glyph-name="G" unicode="G" horiz-adv-x="669" 
d="M368 264l21 105h249l-62 -312q-100 -69 -244 -69q-132 0 -206.5 77t-74.5 212q0 170 108 286t276 116q153 0 229 -70l-49 -96q-67 62 -176 62q-120 0 -197 -82.5t-77 -205.5q0 -92 46.5 -143.5t132.5 -51.5q74 0 133 31l28 141h-137z" />
    <glyph glyph-name="H" unicode="H" horiz-adv-x="698" 
d="M591 667h112l-133 -667h-112l58 289h-314l-58 -289h-111l133 667h111l-54 -272h314z" />
    <glyph glyph-name="I" unicode="I" horiz-adv-x="272" 
d="M166 667h111l-133 -667h-111z" />
    <glyph glyph-name="J" unicode="J" horiz-adv-x="370" 
d="M56 -9q-58 0 -96 14l38 101q26 -10 60 -10q49 0 78 24t39 78l93 469h111l-97 -490q-18 -92 -77.5 -139t-148.5 -47z" />
    <glyph glyph-name="K" unicode="K" horiz-adv-x="663" 
d="M723 667l-355 -302l238 -365h-134l-189 293l-97 -83l-42 -210h-111l133 667h111l-61 -304l354 304h153z" />
    <glyph glyph-name="L" unicode="L" horiz-adv-x="490" 
d="M33 0l133 667h111l-112 -563h285l-20 -104h-397z" />
    <glyph glyph-name="M" unicode="M" horiz-adv-x="902" 
d="M907 667l-133 -667h-112l104 520l-320 -405h-41l-157 404l-104 -519h-111l133 667h143l147 -378l298 378h153z" />
    <glyph glyph-name="N" unicode="N" horiz-adv-x="752" 
d="M646 667h111l-133 -667h-146l-228 530l-106 -530h-111l133 667h146l228 -530z" />
    <glyph glyph-name="O" unicode="O" horiz-adv-x="747" 
d="M365 -12q-138 0 -224.5 84.5t-86.5 223.5q0 164 102.5 273.5t263.5 109.5q138 0 224.5 -84.5t86.5 -224.5q0 -163 -102.5 -272.5t-263.5 -109.5zM365 92q109 0 180.5 78.5t71.5 193.5q0 94 -54.5 152t-144.5 58q-107 0 -178 -78t-71 -194q0 -94 53 -152t143 -58z" />
    <glyph glyph-name="P" unicode="P" horiz-adv-x="613" 
d="M395 667q110 0 170 -49t60 -140q0 -102 -73.5 -167t-189.5 -65h-169l-49 -246h-111l133 667h229zM370 350q64 0 102.5 32t38.5 86q0 46 -31 70.5t-91 24.5h-133l-42 -213h156z" />
    <glyph glyph-name="Q" unicode="Q" horiz-adv-x="747" 
d="M731 370q0 -176 -115 -286l68 -71l-85 -58l-67 71q-76 -38 -167 -38q-138 0 -224.5 84.5t-86.5 223.5q0 164 102.5 273.5t263.5 109.5q138 0 224.5 -84.5t86.5 -224.5zM365 92q47 0 90 17l-97 103l88 51l94 -98q77 79 77 199q0 94 -54.5 152t-144.5 58q-107 0 -178 -78
t-71 -194q0 -94 53 -152t143 -58z" />
    <glyph glyph-name="R" unicode="R" horiz-adv-x="636" 
d="M625 486q0 -85 -55.5 -149t-143.5 -81l130 -256h-123l-122 251h-117l-50 -251h-111l133 667h225q116 0 175 -48.5t59 -132.5zM373 349q65 0 102 33.5t37 88.5q0 92 -124 92h-132l-42 -214h159z" />
    <glyph glyph-name="S" unicode="S" horiz-adv-x="563" 
d="M23 38l43 97q70 -43 163 -43q74 0 121 26t47 68q0 31 -30 53.5t-72.5 39.5t-84.5 38.5t-72 61.5t-30 96q0 89 70 146t182 57q123 0 202 -51l-43 -98q-69 46 -160 46q-62 0 -99 -25t-37 -66q0 -33 29.5 -57t72 -41t84.5 -37.5t72 -59t31 -92.5q1 -92 -78.5 -150.5
t-204.5 -58.5q-130 0 -206 50z" />
    <glyph glyph-name="T" unicode="T" horiz-adv-x="546" 
d="M609 667l-21 -104h-195l-112 -563h-111l112 563h-195l21 104h501z" />
    <glyph glyph-name="U" unicode="U" horiz-adv-x="664" 
d="M296 -12q-112 0 -171 54.5t-59 159.5q0 42 10 89l75 376h111l-77 -387q-8 -40 -8 -68q0 -119 126 -119q79 0 126 46t66 142l77 386h112l-81 -405q-55 -274 -307 -274z" />
    <glyph glyph-name="V" unicode="V" horiz-adv-x="679" 
d="M631 667h127l-408 -667h-117l-142 667h115l104 -544z" />
    <glyph glyph-name="W" unicode="W" horiz-adv-x="992" 
d="M947 667h119l-336 -667h-137l-45 498l-244 -498h-137l-69 667h109l50 -533l261 533h116l49 -537z" />
    <glyph glyph-name="X" unicode="X" horiz-adv-x="676" 
d="M619 0h-133l-138 265l-240 -265h-146l328 349l-176 318h131l126 -241l218 241h145l-304 -324z" />
    <glyph glyph-name="Y" unicode="Y" horiz-adv-x="626" 
d="M210 0l57 283l-189 384h132l127 -274l236 274h146l-341 -383l-57 -284h-111z" />
    <glyph glyph-name="Z" unicode="Z" horiz-adv-x="606" 
d="M638 668l-17 -88l-451 -475h370l-21 -105h-529l18 89l452 474h-343l20 105h501z" />
    <glyph glyph-name="bracketleft" unicode="[" horiz-adv-x="350" 
d="M266 -78l-19 -97h-261l175 877h261l-19 -97h-157l-137 -683h157z" />
    <glyph glyph-name="backslash" unicode="\" horiz-adv-x="420" 
d="M233 -175l-138 842h105l138 -842h-105z" />
    <glyph glyph-name="bracketright" unicode="]" horiz-adv-x="350" 
d="M-42 -78h157l136 683h-157l19 97h261l-175 -877h-261z" />
    <glyph glyph-name="asciicircum" unicode="^" horiz-adv-x="407" 
d="M55 415l138 252h107l137 -252h-98l-93 169l-93 -169h-98z" />
    <glyph glyph-name="underscore" unicode="_" horiz-adv-x="500" 
d="M-59 -55h500l-15 -74h-500z" />
    <glyph glyph-name="grave" unicode="`" horiz-adv-x="294" 
d="M317 555h-92l-92 148h110z" />
    <glyph glyph-name="a" unicode="a" horiz-adv-x="578" 
d="M460 478h98l-95 -478h-98l13 66q-71 -77 -167 -77q-83 0 -133 55.5t-50 148.5q0 121 77 208t186 87t153 -91zM247 88q69 0 115.5 52.5t46.5 131.5q0 55 -30 86.5t-84 31.5q-65 0 -111.5 -52.5t-46.5 -126.5q0 -57 29.5 -90t80.5 -33z" />
    <glyph glyph-name="b" unicode="b" horiz-adv-x="582" 
d="M366 488q84 0 134 -55t50 -147q0 -123 -77 -210t-186 -87t-152 92l-17 -81h-97l140 702h104l-57 -282q68 68 158 68zM282 88q66 0 113 52.5t47 125.5q0 58 -30 91t-81 33q-69 0 -115 -53t-46 -131q0 -55 29.5 -86.5t82.5 -31.5z" />
    <glyph glyph-name="c" unicode="c" horiz-adv-x="449" 
d="M245 -11q-98 0 -154.5 57t-56.5 163q0 115 76.5 197t201.5 82q98 0 154 -47l-47 -94q-45 43 -113 43q-76 0 -121 -52.5t-45 -125.5q0 -60 32 -92t91 -32q58 0 115 31l8 -94q-67 -36 -141 -36z" />
    <glyph glyph-name="d" unicode="d" horiz-adv-x="579" 
d="M499 702h104l-140 -702h-98l13 65q-70 -76 -165 -76q-84 0 -134 55.5t-50 147.5q0 122 77 209t186 87q104 0 148 -84zM247 88q69 0 115.5 52.5t46.5 131.5q0 55 -30 86.5t-83 31.5q-66 0 -112.5 -52.5t-46.5 -126.5q0 -57 29.5 -90t80.5 -33z" />
    <glyph glyph-name="e" unicode="e" horiz-adv-x="525" 
d="M493 307q0 -54 -16 -102h-339q3 -121 126 -121q80 0 159 41l12 -92q-82 -44 -178 -44q-104 0 -163.5 56t-59.5 163q0 119 76.5 199.5t191.5 80.5q88 0 139.5 -49t51.5 -132zM295 398q-52 0 -89 -32t-55 -82h240q1 5 1 15q0 46 -25 72.5t-72 26.5z" />
    <glyph glyph-name="f" unicode="f" horiz-adv-x="322" 
d="M315 615q-31 0 -48.5 -17.5t-25.5 -60.5l-12 -59h121l-19 -96h-121l-76 -382h-104l76 382h-65l19 96h65l16 79q32 153 174 153q52 0 91 -17l-35 -89q-27 11 -56 11z" />
    <glyph glyph-name="g" unicode="g" horiz-adv-x="578" 
d="M460 478h97l-88 -441q-21 -107 -93.5 -164t-190.5 -57q-114 0 -195 49l43 89q64 -43 150 -43q157 0 186 148l5 26q-72 -75 -168 -75q-81 0 -129 54t-48 140q0 117 74 200.5t188 83.5q112 0 152 -97zM247 105q71 0 117 52t46 123q0 50 -31 81t-82 31q-67 0 -113.5 -52
t-46.5 -118q0 -53 30 -85t80 -32z" />
    <glyph glyph-name="h" unicode="h" horiz-adv-x="556" 
d="M350 488q72 0 114.5 -44.5t42.5 -124.5q0 -35 -10 -83l-47 -236h-104l48 239q7 31 7 59q0 92 -88 92q-53 0 -88.5 -34t-48.5 -97l-51 -259h-104l140 702h104l-55 -276q55 62 140 62z" />
    <glyph glyph-name="i" unicode="i" horiz-adv-x="240" 
d="M199 572q-29 0 -47.5 17.5t-18.5 45.5t18.5 46t47.5 18t47.5 -18t18.5 -46t-18.5 -45.5t-47.5 -17.5zM116 478h104l-95 -478h-104z" />
    <glyph glyph-name="j" unicode="j" horiz-adv-x="240" 
d="M199 572q-29 0 -47.5 17.5t-18.5 45.5t18.5 46t47.5 18t47.5 -18t18.5 -46t-18.5 -45.5t-47.5 -17.5zM-124 -171l26 90q16 -2 25 -2q77 0 96 97l93 464h104l-96 -480q-34 -177 -187 -177q-35 0 -61 8z" />
    <glyph glyph-name="k" unicode="k" horiz-adv-x="522" 
d="M553 478l-251 -214l168 -264h-123l-125 197l-70 -60l-27 -137h-104l140 702h104l-85 -426l234 202h139z" />
    <glyph glyph-name="l" unicode="l" horiz-adv-x="274" 
d="M161 702h104l-111 -555q-3 -15 -3 -25q0 -32 37 -32q21 0 37 6l-8 -95q-23 -6 -54 -6q-60 0 -89.5 23.5t-29.5 77.5q0 27 7 59z" />
    <glyph glyph-name="m" unicode="m" horiz-adv-x="826" 
d="M642 488q65 0 101.5 -38t36.5 -113q0 -43 -9 -83l-51 -254h-104l53 260q6 33 6 52q0 78 -74 78q-47 0 -80.5 -30.5t-43.5 -85.5q-2 -16 -4 -23l-51 -251h-104l53 260q5 26 5 51q0 79 -74 79q-47 0 -79 -30t-44 -87l-54 -273h-104l95 478h97l-11 -58q56 68 147 68
q99 0 124 -85q62 85 169 85z" />
    <glyph glyph-name="n" unicode="n" horiz-adv-x="556" 
d="M350 488q72 0 114.5 -44.5t42.5 -124.5q0 -35 -10 -83l-47 -236h-104l48 239q7 31 7 59q0 92 -88 92q-53 0 -88.5 -34t-48.5 -97l-51 -259h-104l95 478h97l-12 -62q57 72 149 72z" />
    <glyph glyph-name="o" unicode="o" horiz-adv-x="552" 
d="M249 -11q-97 0 -156 61t-59 161q0 116 78 196.5t192 80.5q97 0 155 -59.5t58 -160.5q0 -118 -77 -198.5t-191 -80.5zM253 88q67 0 114 52t47 125q0 57 -31 91t-84 34q-67 0 -114 -51.5t-47 -124.5q0 -58 31 -92t84 -34z" />
    <glyph glyph-name="p" unicode="p" horiz-adv-x="582" 
d="M366 488q84 0 134 -55t50 -147q0 -123 -77 -210t-186 -87q-103 0 -148 83l-49 -247h-104l130 653h97l-13 -66q70 76 166 76zM283 88q65 0 112 52.5t47 125.5q0 58 -29.5 91t-81.5 33q-69 0 -115 -53t-46 -131q0 -56 30 -87t83 -31z" />
    <glyph glyph-name="q" unicode="q" horiz-adv-x="578" 
d="M460 478h98l-130 -653h-104l45 231q-67 -67 -157 -67q-83 0 -133.5 55.5t-50.5 147.5q0 122 77 209t186 87t153 -91zM247 88q69 0 115.5 52.5t46.5 131.5q0 55 -30 86.5t-84 31.5q-65 0 -111.5 -52.5t-46.5 -126.5q0 -57 29.5 -90t80.5 -33z" />
    <glyph glyph-name="r" unicode="r" horiz-adv-x="361" 
d="M337 485q32 0 62 -11l-36 -103q-24 9 -52 9q-53 0 -89 -36.5t-51 -109.5l-46 -234h-104l95 478h97l-15 -76q56 83 139 83z" />
    <glyph glyph-name="s" unicode="s" horiz-adv-x="418" 
d="M-9 30l41 87q56 -34 124 -34q45 0 74 15.5t29 40.5q0 20 -21 33.5t-51.5 23.5t-61 24t-51.5 42.5t-21 70.5q0 69 54.5 112t145.5 43q92 0 152 -35l-42 -90q-53 32 -120 32q-41 0 -62 -14t-21 -38q0 -20 21 -34t51.5 -25t61 -25.5t51.5 -42.5t21 -69q0 -71 -61.5 -114
t-152.5 -43q-92 0 -161 40z" />
    <glyph glyph-name="t" unicode="t" horiz-adv-x="334" 
d="M210 382l-44 -219q-3 -18 -3 -30q0 -43 50 -43q30 0 60 11l-3 -93q-45 -14 -89 -14q-124 0 -124 113q0 30 7 62l42 213h-65l19 96h65l23 114l108 22l-27 -136h128l-19 -96h-128z" />
    <glyph glyph-name="u" unicode="u" horiz-adv-x="556" 
d="M432 478h104l-96 -478h-97l12 63q-55 -73 -149 -73q-72 0 -114 44.5t-42 125.5q0 38 9 83l47 235h104l-48 -239q-7 -39 -7 -59q0 -91 88 -91q53 0 88.5 33.5t48.5 96.5z" />
    <glyph glyph-name="v" unicode="v" horiz-adv-x="504" 
d="M429 478h116l-287 -478h-107l-97 478h105l63 -362z" />
    <glyph glyph-name="w" unicode="w" horiz-adv-x="769" 
d="M698 478h108l-237 -478h-119l-45 342l-181 -342h-119l-45 478h103l27 -352l187 352h107l45 -353z" />
    <glyph glyph-name="x" unicode="x" horiz-adv-x="527" 
d="M475 0h-127l-88 180l-162 -180h-141l240 248l-131 230h128l80 -161l143 161h139l-220 -231z" />
    <glyph glyph-name="y" unicode="y" horiz-adv-x="502" 
d="M427 478h116l-304 -512q-50 -84 -95 -116.5t-108 -32.5q-47 0 -82 13l34 97q27 -8 55 -8q32 0 54.5 18t53.5 70l-97 471h107l64 -349z" />
    <glyph glyph-name="z" unicode="z" horiz-adv-x="465" 
d="M466 478l-17 -81l-296 -302h246l-19 -95h-391l17 81l297 301h-227l19 96h371z" />
    <glyph glyph-name="braceleft" unicode="{" horiz-adv-x="403" 
d="M420 702h55l-19 -97h-32q-125 0 -150 -120l-20 -105q-10 -49 -41 -81t-69 -43q27 -9 45 -33.5t18 -61.5q0 -8 -4 -30l-17 -89q-4 -15 -4 -33q0 -87 105 -87h32l-19 -97h-25q-93 0 -145 40.5t-52 124.5q0 29 6 65l13 65q3 15 3 28q0 36 -20.5 56.5t-52.5 20.5l16 78
q38 0 70 27.5t42 76.5l21 106q39 189 244 189z" />
    <glyph glyph-name="bar" unicode="|" horiz-adv-x="308" 
d="M193 702h107l-175 -877h-107z" />
    <glyph glyph-name="braceright" unicode="}" horiz-adv-x="404" 
d="M314 379q0 -36 20.5 -56.5t52.5 -20.5l-16 -78q-38 0 -70 -27.5t-42 -76.5l-22 -106q-37 -189 -243 -189h-55l19 97h31q60 0 99 30t51 90l21 105q10 49 41 81t69 43q-27 9 -45 33.5t-18 61.5q0 14 3 30l18 89q3 17 3 33q0 87 -105 87h-32l20 97h25q93 0 145 -40.5
t52 -124.5q0 -31 -7 -65l-13 -65q-2 -10 -2 -28z" />
    <glyph glyph-name="asciitilde" unicode="~" horiz-adv-x="566" 
d="M57 151q0 96 39 154.5t111 58.5q36 0 66 -16.5t46.5 -36.5t36.5 -36.5t38 -16.5q26 0 40 29t14 77h96q0 -96 -39 -154.5t-111 -58.5q-36 0 -66 16.5t-46.5 36.5t-36.5 36.5t-38 16.5q-26 0 -40 -29t-14 -77h-96z" />
    <glyph glyph-name="uni00A0" unicode="&#xa0;" horiz-adv-x="223" 
 />
    <glyph glyph-name="exclamdown" unicode="&#xa1;" horiz-adv-x="252" 
d="M161 348q-31 0 -51 20t-20 51q0 30 20 50t51 20q30 0 50 -20t20 -50q0 -31 -20 -51t-50 -20zM-16 -175l99 434h89l-75 -434h-113z" />
    <glyph glyph-name="cent" unicode="&#xa2;" horiz-adv-x="536" 
d="M348 490q-76 0 -121 -52.5t-45 -125.5q0 -60 32 -92t91 -32q58 0 115 31l8 -94q-53 -28 -110 -34l-18 -91h-102l20 98q-68 17 -105 71.5t-37 139.5q0 105 65 184t174 93l16 81h102l-17 -85q56 -11 92 -41l-47 -94q-45 43 -113 43z" />
    <glyph glyph-name="sterling" unicode="&#xa3;" horiz-adv-x="536" 
d="M249 104q63 0 97 20t55 68l101 -33q-37 -82 -96.5 -120.5t-157.5 -38.5h-263l20 104h79q54 63 54 144q0 14 -2 44h-93l18 93h66q-1 9 -1 27q0 121 67 192t180 71t179 -57l-51 -97q-48 50 -129 50q-68 0 -102.5 -42t-34.5 -118q0 -17 1 -26h161l-18 -93h-137q1 -12 1 -37
q0 -85 -54 -151h60z" />
    <glyph glyph-name="currency" unicode="&#xa4;" horiz-adv-x="536" 
d="M501 370q0 -81 -56 -152l57 -72l-78 -65l-57 72q-56 -31 -116 -31q-59 0 -105 33l-94 -78l-59 72l95 79q-14 34 -14 70q0 83 55 151l-58 73l79 65l58 -71q55 30 115 30q61 0 107 -33l92 77l59 -71l-94 -78q14 -34 14 -71zM171 312q0 -41 26 -67.5t71 -26.5
q54 0 94.5 41.5t40.5 96.5q0 41 -26 67.5t-71 26.5q-54 0 -94.5 -41.5t-40.5 -96.5z" />
    <glyph glyph-name="yen" unicode="&#xa5;" horiz-adv-x="536" 
d="M621 667l-251 -304h141l-17 -81h-161l-12 -59h161l-16 -82h-161l-28 -141h-111l28 141h-161l16 82h161l12 59h-161l16 81h139l-131 304h118l97 -237l190 237h131z" />
    <glyph glyph-name="brokenbar" unicode="&#xa6;" horiz-adv-x="308" 
d="M193 702h107l-66 -329h-107zM84 154h107l-66 -329h-107z" />
    <glyph glyph-name="section" unicode="&#xa7;" horiz-adv-x="515" 
d="M223 533q0 -30 27.5 -51t66.5 -35t78.5 -30.5t67 -48t27.5 -76.5q0 -127 -145 -167q60 -41 60 -111q0 -95 -75.5 -147t-195.5 -52q-105 0 -178 35l44 95q62 -35 142 -35q68 0 111.5 24.5t43.5 65.5q0 28 -27.5 47.5t-67 34t-79 31.5t-67 50t-27.5 80q0 129 144 164
q-58 44 -58 114q0 93 66.5 141t178.5 48q98 0 168 -36l-42 -92q-58 33 -135 33q-59 0 -93.5 -22.5t-34.5 -59.5zM247 184q60 0 98 24.5t38 62.5q0 71 -123 71q-56 0 -90 -22t-34 -63q0 -36 30.5 -54.5t80.5 -18.5z" />
    <glyph glyph-name="dieresis" unicode="&#xa8;" horiz-adv-x="396" 
d="M182 574q-27 0 -44 17t-17 44t17 44.5t44 17.5t44.5 -17.5t17.5 -44.5t-17.5 -44t-44.5 -17zM373 574q-27 0 -44 17t-17 44t17 44.5t44 17.5t44 -17.5t17 -44.5t-17 -44t-44 -17z" />
    <glyph glyph-name="copyright" unicode="&#xa9;" horiz-adv-x="771" 
d="M411 -12q-143 0 -244.5 101.5t-101.5 244.5t101.5 244t244.5 101t244 -101.5t101 -243.5q0 -143 -101 -244.5t-244 -101.5zM411 54q116 0 198 82t82 198q0 115 -82 197t-198 82t-198 -81.5t-82 -197.5t82 -198t198 -82zM422 135q-87 0 -140.5 55t-53.5 143q0 89 53.5 144
t140.5 55q78 0 128 -40l-22 -74q-43 40 -104 40q-55 0 -87 -34t-32 -91q0 -56 32 -90t87 -34q62 0 104 40l22 -74q-52 -40 -128 -40z" />
    <glyph glyph-name="ordfeminine" unicode="&#xaa;" horiz-adv-x="350" 
d="M234 677q135 0 135 -118q0 -17 -5 -44l-35 -181h-76l5 28q-36 -36 -96 -36q-49 0 -77 25.5t-28 69.5q0 51 40 83.5t102 32.5q46 0 86 -19l2 10q2 16 2 21q0 54 -66 54q-48 0 -100 -25l-2 75q51 24 113 24zM186 386q31 0 54.5 16t29.5 45l4 18q-23 11 -62 11
q-76 0 -76 -51q0 -39 50 -39z" />
    <glyph glyph-name="guillemotleft" unicode="&#xab;" horiz-adv-x="548" 
d="M341 438l-193 -182l121 -176h-123l-128 179l191 179h132zM554 438l-193 -182l121 -176h-123l-128 179l191 179h132z" />
    <glyph glyph-name="logicalnot" unicode="&#xac;" horiz-adv-x="540" 
d="M62 417h450v-360h-91v269h-359v91z" />
    <glyph glyph-name="uni00AD" unicode="&#xad;" horiz-adv-x="311" 
d="M49 312h242l-21 -104h-242z" />
    <glyph glyph-name="registered" unicode="&#xae;" horiz-adv-x="375" 
d="M245 679q68 0 116 -48.5t48 -116.5t-48 -116t-116 -48t-116.5 48t-48.5 116t48.5 116.5t116.5 48.5zM245 386q53 0 90.5 38t37.5 90q0 53 -37.5 91t-90.5 38t-91 -38t-38 -91t38 -90.5t91 -37.5zM314 546q0 -41 -37 -54l48 -67h-47l-44 63h-17v-63h-39v178h72
q29 0 46.5 -15.5t17.5 -41.5zM217 566v-42h33q26 0 26 21t-26 21h-33z" />
    <glyph glyph-name="macron" unicode="&#xaf;" horiz-adv-x="369" 
d="M127 673h289l-16 -78h-289z" />
    <glyph glyph-name="degree" unicode="&#xb0;" horiz-adv-x="317" 
d="M223 424q-53 0 -89.5 36t-36.5 90q0 53 36.5 89t89.5 36t89.5 -36t36.5 -89q0 -54 -36.5 -90t-89.5 -36zM223 485q28 0 46.5 19t18.5 46q0 28 -18.5 46.5t-46.5 18.5q-27 0 -45.5 -18.5t-18.5 -46.5q0 -27 19 -46t45 -19z" />
    <glyph glyph-name="plusminus" unicode="&#xb1;" horiz-adv-x="540" 
d="M333 368h179v-91h-179v-151h-91v151h-180v91h180v163h91v-163zM62 -10v92h450v-92h-450z" />
    <glyph glyph-name="uni00B2" unicode="&#xb2;" horiz-adv-x="351" 
d="M388 721q0 -49 -26 -88.5t-58 -60.5t-71.5 -47t-55.5 -46h184l-15 -76h-295q15 52 47 93t66.5 65.5t66.5 45.5t53 43.5t21 49.5q0 47 -54 47q-57 0 -108 -37l-10 73q58 41 134 41q61 0 91 -28t30 -75z" />
    <glyph glyph-name="uni00B3" unicode="&#xb3;" horiz-adv-x="352" 
d="M302 616q55 -24 55 -84q0 -61 -49.5 -99t-125.5 -38t-125 29l31 77q32 -29 93 -29q41 0 67.5 16t26.5 43q0 47 -77 47h-31l14 72h31q39 0 61 16t22 43q0 38 -51 38t-100 -30l-1 73q56 34 121 34q54 0 84.5 -26t30.5 -70q0 -76 -77 -112z" />
    <glyph glyph-name="acute" unicode="&#xb4;" horiz-adv-x="311" 
d="M103 555l133 148h128l-152 -148h-109z" />
    <glyph glyph-name="uni00B5" unicode="&#xb5;" horiz-adv-x="566" 
d="M539 91q9 0 23 2v-91q-25 -7 -61 -7q-48 0 -72 17.5t-30 56.5q-45 -79 -141 -79q-49 0 -84 22v-187h-104v653h104v-259q0 -131 108 -131q53 0 83.5 34t30.5 94v262h104v-341q0 -25 9 -35.5t30 -10.5z" />
    <glyph glyph-name="paragraph" unicode="&#xb6;" horiz-adv-x="670" 
d="M655 667l-168 -842h-104l149 745h-105l-149 -745h-104l93 466h-7q-84 0 -131.5 46t-47.5 124q0 89 61.5 147.5t162.5 58.5h350z" />
    <glyph glyph-name="periodcentered" unicode="&#xb7;" horiz-adv-x="231" 
d="M120 187q-32 0 -52.5 20.5t-20.5 52.5q0 31 20.5 51.5t52.5 20.5t52.5 -20.5t20.5 -51.5q0 -32 -20.5 -52.5t-52.5 -20.5z" />
    <glyph glyph-name="cedilla" unicode="&#xb8;" horiz-adv-x="253" 
d="M70 -40q34 0 53.5 -16.5t19.5 -44.5q0 -40 -30.5 -62t-81.5 -22q-45 0 -73 15l25 54q21 -13 48 -13q39 0 39 26q0 19 -29 19q-11 0 -25 -3l-17 6l36 83l53 -2z" />
    <glyph glyph-name="uni00B9" unicode="&#xb9;" horiz-adv-x="357" 
d="M288 479h82l-16 -76h-252l16 76h89l47 232l-96 -34l-1 79l193 68h7z" />
    <glyph glyph-name="ordmasculine" unicode="&#xba;" horiz-adv-x="388" 
d="M230 326q-67 0 -110.5 43t-43.5 112q0 81 53.5 138.5t134.5 57.5q68 0 110 -42.5t42 -112.5q0 -82 -51.5 -139t-134.5 -57zM235 402q45 0 72 33.5t27 77.5q0 39 -21 63t-56 24q-43 0 -70.5 -32.5t-27.5 -77.5q0 -40 21 -64t55 -24z" />
    <glyph glyph-name="guillemotright" unicode="&#xbb;" horiz-adv-x="549" 
d="M2 80l194 182l-122 176h123l128 -179l-191 -179h-132zM215 80l193 182l-121 176h123l128 -179l-191 -179h-132z" />
    <glyph glyph-name="onequarter" unicode="&#xbc;" horiz-adv-x="908" 
d="M72 253l16 76h89l47 232l-96 -34l-1 79l193 68h7l-69 -345h82l-16 -76h-252zM766 667h104l-639 -667h-104zM880 414l-51 -255h51l-14 -73h-52l-17 -86h-79l18 86h-193l15 73l202 255h120zM646 159h104l36 179z" />
    <glyph glyph-name="onehalf" unicode="&#xbd;" horiz-adv-x="943" 
d="M72 253l16 76h89l47 232l-96 -34l-1 79l193 68h7l-69 -345h82l-16 -76h-252zM766 667h104l-639 -667h-104zM899 318q0 -49 -26 -88.5t-58 -60.5t-71.5 -47t-55.5 -46h184l-15 -76h-295q15 52 47 93t66.5 65.5t66.5 45.5t53 43.5t21 49.5q0 47 -54 47q-57 0 -108 -37
l-10 73q58 41 134 41q61 0 91 -28t30 -75z" />
    <glyph glyph-name="threequarters" unicode="&#xbe;" horiz-adv-x="893" 
d="M327 382q0 -61 -49.5 -99t-125.5 -38t-125 29l31 77q32 -29 93 -29q41 0 67.5 16t26.5 43q0 47 -77 47h-31l14 72h31q39 0 61 16t22 43q0 38 -51 38t-100 -30l-1 73q56 34 121 34q54 0 84.5 -26t30.5 -70q0 -76 -77 -112q55 -24 55 -84zM751 667h104l-639 -667h-104z
M865 414l-51 -255h51l-14 -73h-52l-17 -86h-79l18 86h-193l15 73l202 255h120zM631 159h104l36 179z" />
    <glyph glyph-name="questiondown" unicode="&#xbf;" horiz-adv-x="469" 
d="M322 489q31 0 50.5 -20t19.5 -50q0 -31 -19.5 -50.5t-50.5 -19.5q-30 0 -50 19.5t-20 50.5q0 30 20 50t50 20zM351 273l-2 -10q-9 -44 -38 -79.5t-64 -58.5t-69 -44.5t-56.5 -47.5t-22.5 -57q0 -33 25.5 -52t75.5 -19q87 0 158 49l14 -106q-83 -47 -180 -47t-150.5 42.5
t-53.5 121.5q0 52 23.5 92t58 64.5t69.5 45t62.5 44.5t33.5 52l2 10h114z" />
    <glyph glyph-name="Agrave" unicode="&#xc0;" horiz-adv-x="653" 
d="M493 715h-92l-92 148h110zM492 0l-32 171h-286l-100 -171h-121l396 667h126l130 -667h-113zM236 277h205l-50 265z" />
    <glyph glyph-name="Aacute" unicode="&#xc1;" horiz-adv-x="653" 
d="M602 863l-152 -148h-109l133 148h128zM492 0l-32 171h-286l-100 -171h-121l396 667h126l130 -667h-113zM236 277h205l-50 265z" />
    <glyph glyph-name="Acircumflex" unicode="&#xc2;" horiz-adv-x="653" 
d="M441 800l-77 -85h-100l128 148h118l68 -148h-93zM492 0l-32 171h-286l-100 -171h-121l396 667h126l130 -667h-113zM236 277h205l-50 265z" />
    <glyph glyph-name="Atilde" unicode="&#xc3;" horiz-adv-x="653" 
d="M372 772q-38 0 -50 -61h-75q13 67 48 108t85 41q23 0 41 -9.5t28 -21t22.5 -21t25.5 -9.5q38 0 50 61h75q-13 -67 -48 -108t-84 -41q-29 0 -50 15.5t-37 30.5t-31 15zM475 667l130 -667h-113l-32 171h-286l-100 -171h-121l396 667h126zM236 277h205l-50 265z" />
    <glyph glyph-name="Adieresis" unicode="&#xc4;" horiz-adv-x="653" 
d="M336 714q-27 0 -44.5 17.5t-17.5 43.5q0 27 17.5 44.5t44.5 17.5t44 -17.5t17 -44.5q0 -26 -17 -43.5t-44 -17.5zM527 714q-27 0 -44 17t-17 44t17 44.5t44 17.5t44 -17.5t17 -44.5q0 -26 -17 -43.5t-44 -17.5zM492 0l-32 171h-286l-100 -171h-121l396 667h126l130 -667
h-113zM236 277h205l-50 265z" />
    <glyph glyph-name="Aring" unicode="&#xc5;" horiz-adv-x="653" 
d="M429 700q-43 0 -74 30.5t-31 73.5q0 44 31 74t74 30q44 0 73.5 -30t29.5 -74q0 -43 -30 -73.5t-73 -30.5zM429 858q-23 0 -39.5 -15.5t-16.5 -38.5t16.5 -39t39.5 -16q22 0 38 16t16 39t-15.5 38.5t-38.5 15.5zM492 0l-32 171h-286l-100 -171h-121l396 667h126l130 -667
h-113zM236 277h205l-50 265z" />
    <glyph glyph-name="AE" unicode="&#xc6;" horiz-adv-x="890" 
d="M916 563h-343l-19 -168h258l-20 -106h-249l-21 -185h302l-20 -104h-404l19 171h-233l-121 -171h-128l476 667h524zM261 277h169l31 283z" />
    <glyph glyph-name="Ccedilla" unicode="&#xc7;" horiz-adv-x="620" 
d="M438 575q-119 0 -196 -82.5t-77 -205.5q0 -92 46 -143.5t133 -51.5q105 0 195 62l12 -111q-96 -55 -214 -55h-7l-13 -28q34 0 53.5 -16.5t19.5 -44.5q0 -40 -30.5 -62t-81.5 -22q-45 0 -73 15l25 54q21 -13 48 -13q39 0 39 26q0 19 -29 19q-12 0 -25 -3l-17 6l32 73
q-108 16 -167.5 91t-59.5 194q0 170 108 286t277 116q68 0 127 -19.5t94 -54.5l-46 -92q-67 62 -173 62z" />
    <glyph glyph-name="Egrave" unicode="&#xc8;" horiz-adv-x="560" 
d="M467 715h-92l-92 148h110zM586 563h-329l-34 -168h260l-21 -106h-260l-37 -185h329l-20 -104h-441l133 667h441z" />
    <glyph glyph-name="Eacute" unicode="&#xc9;" horiz-adv-x="560" 
d="M315 715l133 148h128l-152 -148h-109zM586 563h-329l-34 -168h260l-21 -106h-260l-37 -185h329l-20 -104h-441l133 667h441z" />
    <glyph glyph-name="Ecircumflex" unicode="&#xca;" horiz-adv-x="560" 
d="M415 800l-77 -85h-100l128 148h118l68 -148h-93zM586 563h-329l-34 -168h260l-21 -106h-260l-37 -185h329l-20 -104h-441l133 667h441z" />
    <glyph glyph-name="Edieresis" unicode="&#xcb;" horiz-adv-x="560" 
d="M310 714q-27 0 -44.5 17.5t-17.5 43.5q0 27 17.5 44.5t44.5 17.5t44 -17.5t17 -44.5q0 -26 -17 -43.5t-44 -17.5zM501 714q-27 0 -44 17t-17 44t17 44.5t44 17.5t44 -17.5t17 -44.5q0 -26 -17 -43.5t-44 -17.5zM586 563h-329l-34 -168h260l-21 -106h-260l-37 -185h329
l-20 -104h-441l133 667h441z" />
    <glyph glyph-name="Igrave" unicode="&#xcc;" horiz-adv-x="272" 
d="M302 715h-92l-92 148h110zM166 667h111l-133 -667h-111z" />
    <glyph glyph-name="Iacute" unicode="&#xcd;" horiz-adv-x="272" 
d="M150 715l133 148h128l-152 -148h-109zM166 667h111l-133 -667h-111z" />
    <glyph glyph-name="Icircumflex" unicode="&#xce;" horiz-adv-x="272" 
d="M319 863l68 -148h-93l-44 85l-77 -85h-100l128 148h118zM33 0l133 667h111l-133 -667h-111z" />
    <glyph glyph-name="Idieresis" unicode="&#xcf;" horiz-adv-x="272" 
d="M145 714q-27 0 -44.5 17.5t-17.5 43.5q0 27 17.5 44.5t44.5 17.5t44 -17.5t17 -44.5q0 -26 -17 -43.5t-44 -17.5zM336 714q-27 0 -44 17t-17 44t17 44.5t44 17.5t44 -17.5t17 -44.5q0 -26 -17 -43.5t-44 -17.5zM166 667h111l-133 -667h-111z" />
    <glyph glyph-name="Eth" unicode="&#xd0;" horiz-adv-x="675" 
d="M341 667q159 0 240.5 -72t81.5 -207q0 -170 -112.5 -279t-300.5 -109h-217l59 296h-77l18 92h77l56 279h175zM255 104q133 0 213 75.5t80 197.5q0 186 -217 186h-74l-35 -175h165l-18 -92h-166l-38 -192h90z" />
    <glyph glyph-name="Ntilde" unicode="&#xd1;" horiz-adv-x="752" 
d="M422 772q-38 0 -50 -61h-75q13 67 48 108t85 41q23 0 41 -9.5t28 -21t22.5 -21t25.5 -9.5q38 0 50 61h75q-13 -67 -48 -108t-84 -41q-29 0 -50 15.5t-37 30.5t-31 15zM646 667h111l-133 -667h-146l-228 530l-106 -530h-111l133 667h146l228 -530z" />
    <glyph glyph-name="Ograve" unicode="&#xd2;" horiz-adv-x="747" 
d="M499 715h-92l-92 148h110zM365 -12q-138 0 -224.5 84.5t-86.5 223.5q0 164 102.5 273.5t263.5 109.5q138 0 224.5 -84.5t86.5 -224.5q0 -163 -102.5 -272.5t-263.5 -109.5zM365 92q109 0 180.5 78.5t71.5 193.5q0 94 -54.5 152t-144.5 58q-107 0 -178 -78t-71 -194
q0 -94 53 -152t143 -58z" />
    <glyph glyph-name="Oacute" unicode="&#xd3;" horiz-adv-x="747" 
d="M347 715l133 148h128l-152 -148h-109zM365 -12q-138 0 -224.5 84.5t-86.5 223.5q0 164 102.5 273.5t263.5 109.5q138 0 224.5 -84.5t86.5 -224.5q0 -163 -102.5 -272.5t-263.5 -109.5zM365 92q109 0 180.5 78.5t71.5 193.5q0 94 -54.5 152t-144.5 58q-107 0 -178 -78
t-71 -194q0 -94 53 -152t143 -58z" />
    <glyph glyph-name="Ocircumflex" unicode="&#xd4;" horiz-adv-x="747" 
d="M447 800l-77 -85h-100l128 148h118l68 -148h-93zM420 679q138 0 224.5 -84.5t86.5 -224.5q0 -163 -102.5 -272.5t-263.5 -109.5q-138 0 -224.5 84.5t-86.5 223.5q0 164 102.5 273.5t263.5 109.5zM365 92q109 0 180.5 78.5t71.5 193.5q0 94 -54.5 152t-144.5 58
q-107 0 -178 -78t-71 -194q0 -94 53 -152t143 -58z" />
    <glyph glyph-name="Otilde" unicode="&#xd5;" horiz-adv-x="747" 
d="M253 711q13 67 48 108t85 41q23 0 41 -9.5t28 -21t22.5 -21t25.5 -9.5q38 0 50 61h75q-13 -67 -48 -108t-84 -41q-29 0 -50 15.5t-37 30.5t-31 15q-38 0 -50 -61h-75zM365 -12q-138 0 -224.5 84.5t-86.5 223.5q0 164 102.5 273.5t263.5 109.5q138 0 224.5 -84.5
t86.5 -224.5q0 -163 -102.5 -272.5t-263.5 -109.5zM365 92q109 0 180.5 78.5t71.5 193.5q0 94 -54.5 152t-144.5 58q-107 0 -178 -78t-71 -194q0 -94 53 -152t143 -58z" />
    <glyph glyph-name="Odieresis" unicode="&#xd6;" horiz-adv-x="747" 
d="M342 714q-27 0 -44.5 17.5t-17.5 43.5q0 27 17.5 44.5t44.5 17.5t44 -17.5t17 -44.5q0 -26 -17 -43.5t-44 -17.5zM533 714q-27 0 -44 17t-17 44t17 44.5t44 17.5t44 -17.5t17 -44.5q0 -26 -17 -43.5t-44 -17.5zM365 -12q-138 0 -224.5 84.5t-86.5 223.5
q0 164 102.5 273.5t263.5 109.5q138 0 224.5 -84.5t86.5 -224.5q0 -163 -102.5 -272.5t-263.5 -109.5zM365 92q109 0 180.5 78.5t71.5 193.5q0 94 -54.5 152t-144.5 58q-107 0 -178 -78t-71 -194q0 -94 53 -152t143 -58z" />
    <glyph glyph-name="multiply" unicode="&#xd7;" horiz-adv-x="540" 
d="M487 396l-135 -136l135 -135l-64 -64l-135 135l-135 -135l-64 64l135 135l-135 135l63 64l136 -135l135 135z" />
    <glyph glyph-name="Oslash" unicode="&#xd8;" horiz-adv-x="747" 
d="M754 633l-78 -76q55 -79 55 -187q0 -163 -102.5 -272.5t-263.5 -109.5q-121 0 -204 66l-72 -70l-60 46l81 79q-56 78 -56 187q0 164 102.5 273.5t263.5 109.5q122 0 205 -67l69 67zM169 302q0 -63 25 -111l350 342q-52 41 -126 41q-107 0 -178 -78t-71 -194zM617 364
q0 63 -25 111l-351 -343q51 -40 124 -40q109 0 180.5 78.5t71.5 193.5z" />
    <glyph glyph-name="Ugrave" unicode="&#xd9;" horiz-adv-x="664" 
d="M499 715h-92l-92 148h110zM296 -12q-112 0 -171 54.5t-59 159.5q0 42 10 89l75 376h111l-77 -387q-8 -40 -8 -68q0 -119 126 -119q79 0 126 46t66 142l77 386h112l-81 -405q-55 -274 -307 -274z" />
    <glyph glyph-name="Uacute" unicode="&#xda;" horiz-adv-x="664" 
d="M347 715l133 148h128l-152 -148h-109zM296 -12q-112 0 -171 54.5t-59 159.5q0 42 10 89l75 376h111l-77 -387q-8 -40 -8 -68q0 -119 126 -119q79 0 126 46t66 142l77 386h112l-81 -405q-55 -274 -307 -274z" />
    <glyph glyph-name="Ucircumflex" unicode="&#xdb;" horiz-adv-x="664" 
d="M447 800l-77 -85h-100l128 148h118l68 -148h-93zM572 667h112l-81 -405q-55 -274 -307 -274q-112 0 -171 54.5t-59 159.5q0 42 10 89l75 376h111l-77 -387q-8 -40 -8 -68q0 -119 126 -119q79 0 126 46t66 142z" />
    <glyph glyph-name="Udieresis" unicode="&#xdc;" horiz-adv-x="664" 
d="M342 714q-27 0 -44.5 17.5t-17.5 43.5q0 27 17.5 44.5t44.5 17.5t44 -17.5t17 -44.5q0 -26 -17 -43.5t-44 -17.5zM533 714q-27 0 -44 17t-17 44t17 44.5t44 17.5t44 -17.5t17 -44.5q0 -26 -17 -43.5t-44 -17.5zM296 -12q-112 0 -171 54.5t-59 159.5q0 42 10 89l75 376
h111l-77 -387q-8 -40 -8 -68q0 -119 126 -119q79 0 126 46t66 142l77 386h112l-81 -405q-55 -274 -307 -274z" />
    <glyph glyph-name="Yacute" unicode="&#xdd;" horiz-adv-x="626" 
d="M324 715l133 148h128l-152 -148h-109zM210 0l57 283l-189 384h132l127 -274l236 274h146l-341 -383l-57 -284h-111z" />
    <glyph glyph-name="Thorn" unicode="&#xde;" horiz-adv-x="627" 
d="M380 558q116 0 176 -49t60 -143q0 -106 -74.5 -172.5t-193.5 -66.5h-169l-25 -127h-111l133 667h111l-22 -109h115zM360 231q65 0 103.5 33.5t38.5 91.5q0 97 -129 97h-129l-44 -222h160z" />
    <glyph glyph-name="germandbls" unicode="&#xdf;" horiz-adv-x="592" 
d="M450 372q97 -37 97 -152q0 -95 -71 -163t-179 -68q-78 0 -128 31l42 92q39 -24 90 -24q63 0 102 36t39 92q0 100 -119 100h-49l19 97h40q54 0 90.5 35.5t36.5 83.5q0 39 -24.5 60.5t-68.5 21.5q-120 0 -153 -166l-89 -448h-104l93 467q23 118 90 180.5t172 62.5
q84 0 135 -44t51 -122q0 -56 -30 -101.5t-82 -70.5z" />
    <glyph glyph-name="agrave" unicode="&#xe0;" horiz-adv-x="578" 
d="M426 555h-92l-92 148h110zM460 478h98l-95 -478h-98l13 66q-71 -77 -167 -77q-83 0 -133 55.5t-50 148.5q0 121 77 208t186 87t153 -91zM247 88q69 0 115.5 52.5t46.5 131.5q0 55 -30 86.5t-84 31.5q-65 0 -111.5 -52.5t-46.5 -126.5q0 -57 29.5 -90t80.5 -33z" />
    <glyph glyph-name="aacute" unicode="&#xe1;" horiz-adv-x="578" 
d="M521 702l-152 -148h-109l133 148h128zM460 478h98l-95 -478h-98l13 66q-71 -77 -167 -77q-83 0 -133 55.5t-50 148.5q0 121 77 208t186 87t153 -91zM247 88q69 0 115.5 52.5t46.5 131.5q0 55 -30 86.5t-84 31.5q-65 0 -111.5 -52.5t-46.5 -126.5q0 -57 29.5 -90t80.5 -33
z" />
    <glyph glyph-name="acircumflex" unicode="&#xe2;" horiz-adv-x="578" 
d="M368 639l-77 -85h-100l128 148h118l68 -148h-93zM460 478h98l-95 -478h-98l13 66q-71 -77 -167 -77q-83 0 -133 55.5t-50 148.5q0 121 77 208t186 87t153 -91zM247 88q69 0 115.5 52.5t46.5 131.5q0 55 -30 86.5t-84 31.5q-65 0 -111.5 -52.5t-46.5 -126.5
q0 -57 29.5 -90t80.5 -33z" />
    <glyph glyph-name="atilde" unicode="&#xe3;" horiz-adv-x="578" 
d="M299 611q-38 0 -50 -61h-75q13 67 48 108t85 41q29 0 50 -15.5t36.5 -30.5t30.5 -15q38 0 50 61h75q-13 -67 -48 -108t-84 -41q-23 0 -41.5 9.5t-28.5 21t-22.5 21t-25.5 9.5zM460 478h98l-95 -478h-98l13 66q-71 -77 -167 -77q-83 0 -133 55.5t-50 148.5q0 121 77 208
t186 87t153 -91zM247 88q69 0 115.5 52.5t46.5 131.5q0 55 -30 86.5t-84 31.5q-65 0 -111.5 -52.5t-46.5 -126.5q0 -57 29.5 -90t80.5 -33z" />
    <glyph glyph-name="adieresis" unicode="&#xe4;" horiz-adv-x="578" 
d="M253 574q-27 0 -44 17t-17 44t17 44.5t44 17.5t44.5 -17.5t17.5 -44.5t-17.5 -44t-44.5 -17zM444 574q-27 0 -44 17t-17 44t17 44.5t44 17.5t44 -17.5t17 -44.5t-17 -44t-44 -17zM460 478h98l-95 -478h-98l13 66q-71 -77 -167 -77q-83 0 -133 55.5t-50 148.5
q0 121 77 208t186 87t153 -91zM247 88q69 0 115.5 52.5t46.5 131.5q0 55 -30 86.5t-84 31.5q-65 0 -111.5 -52.5t-46.5 -126.5q0 -57 29.5 -90t80.5 -33z" />
    <glyph glyph-name="aring" unicode="&#xe5;" horiz-adv-x="578" 
d="M351 540q-43 0 -74 30.5t-31 73.5q0 44 31 74t74 30q44 0 73.5 -30t29.5 -74q0 -43 -30 -73.5t-73 -30.5zM351 698q-23 0 -39.5 -15.5t-16.5 -38.5t16.5 -39t39.5 -16q22 0 38 16t16 39t-15.5 38.5t-38.5 15.5zM460 478h98l-95 -478h-98l13 66q-71 -77 -167 -77
q-83 0 -133 55.5t-50 148.5q0 121 77 208t186 87t153 -91zM247 88q69 0 115.5 52.5t46.5 131.5q0 55 -30 86.5t-84 31.5q-65 0 -111.5 -52.5t-46.5 -126.5q0 -57 29.5 -90t80.5 -33z" />
    <glyph glyph-name="ae" unicode="&#xe6;" horiz-adv-x="808" 
d="M777 307q0 -51 -17 -102h-327q3 -121 117 -121q74 0 153 41l12 -89q-83 -47 -175 -47q-142 0 -185 104q-57 -104 -190 -104q-75 0 -117.5 34t-42.5 97q0 75 58.5 119.5t173.5 44.5h104q3 16 3 32q0 76 -92 76q-80 0 -151 -37l-3 95q78 38 172 38q109 0 148 -75
q73 75 178 75q81 0 131 -49.5t50 -131.5zM586 398q-50 0 -86.5 -32t-53.5 -82h229q1 7 1 18q0 45 -24 70.5t-66 25.5zM320 178l6 28h-90q-127 0 -127 -75q0 -56 78 -56q52 0 87.5 27t45.5 76z" />
    <glyph glyph-name="ccedilla" unicode="&#xe7;" horiz-adv-x="449" 
d="M306 390q-76 0 -121 -52.5t-45 -125.5q0 -60 32 -92t91 -32q58 0 115 31l8 -94q-67 -36 -141 -36h-17l-13 -29q34 0 53.5 -16.5t19.5 -44.5q0 -40 -30.5 -62t-81.5 -22q-45 0 -73 15l25 54q21 -13 48 -13q39 0 39 26q0 19 -29 19q-12 0 -25 -3l-17 6l34 78
q-68 18 -106 72t-38 140q0 115 76.5 197t201.5 82q98 0 154 -47l-47 -94q-45 43 -113 43z" />
    <glyph glyph-name="egrave" unicode="&#xe8;" horiz-adv-x="525" 
d="M404 555h-92l-92 148h110zM493 307q0 -54 -16 -102h-339q3 -121 126 -121q80 0 159 41l12 -92q-82 -44 -178 -44q-104 0 -163.5 56t-59.5 163q0 119 76.5 199.5t191.5 80.5q88 0 139.5 -49t51.5 -132zM295 398q-52 0 -89 -32t-55 -82h240q1 5 1 15q0 46 -25 72.5
t-72 26.5z" />
    <glyph glyph-name="eacute" unicode="&#xe9;" horiz-adv-x="525" 
d="M499 702l-152 -148h-109l133 148h128zM302 488q88 0 139.5 -49t51.5 -132q0 -54 -16 -102h-339q3 -121 126 -121q80 0 159 41l12 -92q-82 -44 -178 -44q-104 0 -163.5 56t-59.5 163q0 119 76.5 199.5t191.5 80.5zM295 398q-52 0 -89 -32t-55 -82h240q1 5 1 15
q0 46 -25 72.5t-72 26.5z" />
    <glyph glyph-name="ecircumflex" unicode="&#xea;" horiz-adv-x="525" 
d="M346 639l-77 -85h-100l128 148h118l68 -148h-93zM493 307q0 -54 -16 -102h-339q3 -121 126 -121q80 0 159 41l12 -92q-82 -44 -178 -44q-104 0 -163.5 56t-59.5 163q0 119 76.5 199.5t191.5 80.5q88 0 139.5 -49t51.5 -132zM295 398q-52 0 -89 -32t-55 -82h240q1 5 1 15
q0 46 -25 72.5t-72 26.5z" />
    <glyph glyph-name="edieresis" unicode="&#xeb;" horiz-adv-x="525" 
d="M231 574q-27 0 -44 17t-17 44t17 44.5t44 17.5t44.5 -17.5t17.5 -44.5t-17.5 -44t-44.5 -17zM422 574q-27 0 -44 17t-17 44t17 44.5t44 17.5t44 -17.5t17 -44.5t-17 -44t-44 -17zM493 307q0 -54 -16 -102h-339q3 -121 126 -121q80 0 159 41l12 -92q-82 -44 -178 -44
q-104 0 -163.5 56t-59.5 163q0 119 76.5 199.5t191.5 80.5q88 0 139.5 -49t51.5 -132zM295 398q-52 0 -89 -32t-55 -82h240q1 5 1 15q0 46 -25 72.5t-72 26.5z" />
    <glyph glyph-name="igrave" unicode="&#xec;" horiz-adv-x="240" 
d="M261 555h-92l-92 148h110zM116 478h104l-95 -478h-104z" />
    <glyph glyph-name="iacute" unicode="&#xed;" horiz-adv-x="240" 
d="M95 554l133 148h128l-152 -148h-109zM116 478h104l-95 -478h-104z" />
    <glyph glyph-name="icircumflex" unicode="&#xee;" horiz-adv-x="240" 
d="M272 702l68 -148h-93l-44 85l-77 -85h-100l128 148h118zM21 0l95 478h104l-95 -478h-104z" />
    <glyph glyph-name="idieresis" unicode="&#xef;" horiz-adv-x="240" 
d="M114 574q-26 0 -42.5 17t-16.5 44t16.5 44.5t42.5 17.5t43 -17.5t17 -44.5t-17 -44t-43 -17zM279 574q-26 0 -43 17t-17 44t17 44.5t43 17.5t42.5 -17.5t16.5 -44.5t-16.5 -44t-42.5 -17zM116 478h104l-95 -478h-104z" />
    <glyph glyph-name="eth" unicode="&#xf0;" horiz-adv-x="550" 
d="M532 628l-78 -33q71 -113 71 -258q0 -152 -77 -250t-213 -98q-100 0 -153 52.5t-53 148.5q0 105 74 181.5t183 76.5q84 0 136 -49q-15 83 -69 154l-159 -67l-3 68l118 49q-32 30 -61 50l104 57q35 -28 63 -62l114 48zM248 88q69 0 115 46t46 116q0 47 -32 76.5t-84 29.5
q-69 0 -113 -47t-44 -111q0 -51 29.5 -80.5t82.5 -29.5z" />
    <glyph glyph-name="ntilde" unicode="&#xf1;" horiz-adv-x="556" 
d="M292 611q-38 0 -50 -61h-75q13 67 48 108t85 41q29 0 50 -15.5t36.5 -30.5t30.5 -15q38 0 50 61h75q-13 -67 -48 -108t-84 -41q-23 0 -41.5 9.5t-28.5 21t-22.5 21t-25.5 9.5zM350 488q72 0 114.5 -44.5t42.5 -124.5q0 -35 -10 -83l-47 -236h-104l48 239q7 31 7 59
q0 92 -88 92q-53 0 -88.5 -34t-48.5 -97l-51 -259h-104l95 478h97l-12 -62q57 72 149 72z" />
    <glyph glyph-name="ograve" unicode="&#xf2;" horiz-adv-x="552" 
d="M417 555h-92l-92 148h110zM249 -11q-97 0 -156 61t-59 161q0 116 78 196.5t192 80.5q97 0 155 -59.5t58 -160.5q0 -118 -77 -198.5t-191 -80.5zM253 88q67 0 114 52t47 125q0 57 -31 91t-84 34q-67 0 -114 -51.5t-47 -124.5q0 -58 31 -92t84 -34z" />
    <glyph glyph-name="oacute" unicode="&#xf3;" horiz-adv-x="552" 
d="M251 554l133 148h128l-152 -148h-109zM249 -11q-97 0 -156 61t-59 161q0 116 78 196.5t192 80.5q97 0 155 -59.5t58 -160.5q0 -118 -77 -198.5t-191 -80.5zM253 88q67 0 114 52t47 125q0 57 -31 91t-84 34q-67 0 -114 -51.5t-47 -124.5q0 -58 31 -92t84 -34z" />
    <glyph glyph-name="ocircumflex" unicode="&#xf4;" horiz-adv-x="552" 
d="M359 639l-77 -85h-100l128 148h118l68 -148h-93zM304 488q97 0 155 -59.5t58 -160.5q0 -118 -77 -198.5t-191 -80.5q-97 0 -156 61t-59 161q0 116 78 196.5t192 80.5zM253 88q67 0 114 52t47 125q0 57 -31 91t-84 34q-67 0 -114 -51.5t-47 -124.5q0 -58 31 -92t84 -34z
" />
    <glyph glyph-name="otilde" unicode="&#xf5;" horiz-adv-x="552" 
d="M165 550q13 67 48 108t85 41q29 0 50 -15.5t36.5 -30.5t30.5 -15q38 0 50 61h75q-13 -67 -48 -108t-84 -41q-23 0 -41.5 9.5t-28.5 21t-22.5 21t-25.5 9.5q-38 0 -50 -61h-75zM249 -11q-97 0 -156 61t-59 161q0 116 78 196.5t192 80.5q97 0 155 -59.5t58 -160.5
q0 -118 -77 -198.5t-191 -80.5zM253 88q67 0 114 52t47 125q0 57 -31 91t-84 34q-67 0 -114 -51.5t-47 -124.5q0 -58 31 -92t84 -34z" />
    <glyph glyph-name="odieresis" unicode="&#xf6;" horiz-adv-x="552" 
d="M244 574q-27 0 -44 17t-17 44t17 44.5t44 17.5t44.5 -17.5t17.5 -44.5t-17.5 -44t-44.5 -17zM435 574q-27 0 -44 17t-17 44t17 44.5t44 17.5t44 -17.5t17 -44.5t-17 -44t-44 -17zM249 -11q-97 0 -156 61t-59 161q0 116 78 196.5t192 80.5q97 0 155 -59.5t58 -160.5
q0 -118 -77 -198.5t-191 -80.5zM253 88q67 0 114 52t47 125q0 57 -31 91t-84 34q-67 0 -114 -51.5t-47 -124.5q0 -58 31 -92t84 -34z" />
    <glyph glyph-name="divide" unicode="&#xf7;" horiz-adv-x="540" 
d="M287 377q-28 0 -46.5 18.5t-18.5 46.5t18 46.5t47 18.5t47.5 -18.5t18.5 -46.5t-19 -46.5t-47 -18.5zM62 306h450v-91h-450v91zM287 13q-29 0 -47 18.5t-18 46.5q0 29 18.5 47.5t46.5 18.5q29 0 47.5 -19t18.5 -47t-18.5 -46.5t-47.5 -18.5z" />
    <glyph glyph-name="oslash" unicode="&#xf8;" horiz-adv-x="552" 
d="M542 452l-57 -55q33 -55 33 -129q0 -117 -78.5 -198t-193.5 -81q-81 0 -137 45l-49 -48l-51 38l59 57q-34 54 -34 130q0 116 79.5 196.5t193.5 80.5q82 0 136 -43l47 46zM133 213q0 -35 10 -59l228 221q-29 21 -71 21q-69 0 -118 -54t-49 -129zM419 266q0 34 -10 58
l-229 -222q31 -21 72 -21q69 0 118 54.5t49 130.5z" />
    <glyph glyph-name="ugrave" unicode="&#xf9;" horiz-adv-x="556" 
d="M415 555h-92l-92 148h110zM432 478h104l-96 -478h-97l12 63q-55 -73 -149 -73q-72 0 -114 44.5t-42 125.5q0 38 9 83l47 235h104l-48 -239q-7 -39 -7 -59q0 -91 88 -91q53 0 88.5 33.5t48.5 96.5z" />
    <glyph glyph-name="uacute" unicode="&#xfa;" horiz-adv-x="556" 
d="M510 702l-152 -148h-109l133 148h128zM432 478h104l-96 -478h-97l12 63q-55 -73 -149 -73q-72 0 -114 44.5t-42 125.5q0 38 9 83l47 235h104l-48 -239q-7 -39 -7 -59q0 -91 88 -91q53 0 88.5 33.5t48.5 96.5z" />
    <glyph glyph-name="ucircumflex" unicode="&#xfb;" horiz-adv-x="556" 
d="M357 639l-77 -85h-100l128 148h118l68 -148h-93zM432 478h104l-96 -478h-97l12 63q-55 -73 -149 -73q-72 0 -114 44.5t-42 125.5q0 38 9 83l47 235h104l-48 -239q-7 -39 -7 -59q0 -91 88 -91q53 0 88.5 33.5t48.5 96.5z" />
    <glyph glyph-name="udieresis" unicode="&#xfc;" horiz-adv-x="556" 
d="M242 574q-27 0 -44 17t-17 44t17 44.5t44 17.5t44.5 -17.5t17.5 -44.5t-17.5 -44t-44.5 -17zM433 574q-27 0 -44 17t-17 44t17 44.5t44 17.5t44 -17.5t17 -44.5t-17 -44t-44 -17zM432 478h104l-96 -478h-97l12 63q-55 -73 -149 -73q-72 0 -114 44.5t-42 125.5q0 38 9 83
l47 235h104l-48 -239q-7 -39 -7 -59q0 -91 88 -91q53 0 88.5 33.5t48.5 96.5z" />
    <glyph glyph-name="yacute" unicode="&#xfd;" horiz-adv-x="502" 
d="M482 702l-152 -148h-109l133 148h128zM427 478h116l-304 -512q-50 -84 -95 -116.5t-108 -32.5q-47 0 -82 13l34 97q27 -8 55 -8q32 0 54.5 18t53.5 70l-97 471h107l64 -349z" />
    <glyph glyph-name="thorn" unicode="&#xfe;" horiz-adv-x="582" 
d="M366 488q84 0 134 -55t50 -147q0 -123 -77 -210t-186 -87q-103 0 -148 83l-49 -247h-104l175 877h104l-57 -282q68 68 158 68zM283 88q65 0 112 52.5t47 125.5q0 58 -30 91t-81 33q-69 0 -115 -53t-46 -131q0 -56 30 -87t83 -31z" />
    <glyph glyph-name="ydieresis" unicode="&#xff;" horiz-adv-x="502" 
d="M214 574q-27 0 -44 17t-17 44t17 44.5t44 17.5t44.5 -17.5t17.5 -44.5t-17.5 -44t-44.5 -17zM405 574q-27 0 -44 17t-17 44t17 44.5t44 17.5t44 -17.5t17 -44.5t-17 -44t-44 -17zM427 478h116l-304 -512q-50 -84 -95 -116.5t-108 -32.5q-47 0 -82 13l34 97q27 -8 55 -8
q32 0 54.5 18t53.5 70l-97 471h107l64 -349z" />
    <glyph glyph-name="Amacron" unicode="&#x100;" horiz-adv-x="653" 
d="M584 807l-16 -78h-289l16 78h289zM492 0l-32 171h-286l-100 -171h-121l396 667h126l130 -667h-113zM236 277h205l-50 265z" />
    <glyph glyph-name="amacron" unicode="&#x101;" horiz-adv-x="578" 
d="M517 673l-16 -78h-289l16 78h289zM460 478h98l-95 -478h-98l13 66q-71 -77 -167 -77q-83 0 -133 55.5t-50 148.5q0 121 77 208t186 87t153 -91zM247 88q69 0 115.5 52.5t46.5 131.5q0 55 -30 86.5t-84 31.5q-65 0 -111.5 -52.5t-46.5 -126.5q0 -57 29.5 -90t80.5 -33z
" />
    <glyph glyph-name="Abreve" unicode="&#x102;" horiz-adv-x="653" 
d="M430 711q-55 0 -89.5 32t-34.5 84q0 15 3 32h74q-2 -12 -2 -19q0 -22 14 -35t39 -13q28 0 49.5 18.5t27.5 48.5h82q-13 -66 -57 -107t-106 -41zM492 0l-32 171h-286l-100 -171h-121l396 667h126l130 -667h-113zM236 277h205l-50 265z" />
    <glyph glyph-name="abreve" unicode="&#x103;" horiz-adv-x="578" 
d="M356 550q-55 0 -89.5 32t-34.5 84q0 16 3 32h74q-2 -12 -2 -19q0 -22 14 -35t39 -13q28 0 49.5 18.5t27.5 48.5h82q-13 -66 -57 -107t-106 -41zM460 478h98l-95 -478h-98l13 66q-71 -77 -167 -77q-83 0 -133 55.5t-50 148.5q0 121 77 208t186 87t153 -91zM247 88
q69 0 115.5 52.5t46.5 131.5q0 55 -30 86.5t-84 31.5q-65 0 -111.5 -52.5t-46.5 -126.5q0 -57 29.5 -90t80.5 -33z" />
    <glyph glyph-name="Aogonek" unicode="&#x104;" horiz-adv-x="653" 
d="M560 0q-80 -59 -80 -93q0 -19 23 -19q24 0 44 11l2 -62q-39 -21 -83 -21q-71 0 -71 57q0 62 96 130l-31 168h-286l-100 -171h-121l396 667h126l130 -667h-45zM236 277h205l-50 265z" />
    <glyph glyph-name="aogonek" unicode="&#x105;" horiz-adv-x="578" 
d="M463 0q-80 -59 -80 -93q0 -19 23 -19q24 0 44 11l2 -62q-39 -21 -83 -21q-71 0 -71 57q0 60 92 127h-25l13 66q-71 -77 -167 -77q-83 0 -133 55.5t-50 148.5q0 121 77 208t186 87t153 -91l16 81h98zM247 88q69 0 115.5 52.5t46.5 131.5q0 55 -30 86.5t-84 31.5
q-65 0 -111.5 -52.5t-46.5 -126.5q0 -57 29.5 -90t80.5 -33z" />
    <glyph glyph-name="Cacute" unicode="&#x106;" horiz-adv-x="620" 
d="M366 715l133 148h128l-152 -148h-109zM337 -12q-135 0 -210.5 77t-75.5 212q0 170 108 286t277 116q68 0 127 -19.5t94 -54.5l-46 -92q-67 62 -173 62q-119 0 -196 -82.5t-77 -205.5q0 -92 46 -143.5t133 -51.5q105 0 195 62l12 -111q-96 -55 -214 -55z" />
    <glyph glyph-name="cacute" unicode="&#x107;" horiz-adv-x="449" 
d="M228 554l133 148h128l-152 -148h-109zM245 -11q-98 0 -154.5 57t-56.5 163q0 115 76.5 197t201.5 82q98 0 154 -47l-47 -94q-45 43 -113 43q-76 0 -121 -52.5t-45 -125.5q0 -60 32 -92t91 -32q58 0 115 31l8 -94q-67 -36 -141 -36z" />
    <glyph glyph-name="Ccircumflex" unicode="&#x108;" horiz-adv-x="620" 
d="M466 800l-77 -85h-100l128 148h118l68 -148h-93zM438 575q-119 0 -196 -82.5t-77 -205.5q0 -92 46 -143.5t133 -51.5q105 0 195 62l12 -111q-96 -55 -214 -55q-135 0 -210.5 77t-75.5 212q0 170 108 286t277 116q68 0 127 -19.5t94 -54.5l-46 -92q-67 62 -173 62z" />
    <glyph glyph-name="ccircumflex" unicode="&#x109;" horiz-adv-x="449" 
d="M336 639l-77 -85h-100l128 148h118l68 -148h-93zM34 209q0 115 76.5 197t201.5 82q98 0 154 -47l-47 -94q-45 43 -113 43q-76 0 -121 -52.5t-45 -125.5q0 -60 32 -92t91 -32q58 0 115 31l8 -94q-67 -36 -141 -36q-98 0 -154.5 57t-56.5 163z" />
    <glyph glyph-name="Cdotaccent" unicode="&#x10a;" horiz-adv-x="620" 
d="M456 712q-29 0 -47.5 17.5t-18.5 45.5t18.5 46t47.5 18t47.5 -18t18.5 -46t-18.5 -45.5t-47.5 -17.5zM337 -12q-135 0 -210.5 77t-75.5 212q0 170 108 286t277 116q68 0 127 -19.5t94 -54.5l-46 -92q-67 62 -173 62q-119 0 -196 -82.5t-77 -205.5q0 -92 46 -143.5
t133 -51.5q105 0 195 62l12 -111q-96 -55 -214 -55z" />
    <glyph glyph-name="cdotaccent" unicode="&#x10b;" horiz-adv-x="449" 
d="M333 572q-29 0 -47.5 17.5t-18.5 45.5t18.5 46t47.5 18t47.5 -18t18.5 -46t-18.5 -45.5t-47.5 -17.5zM245 -11q-98 0 -154.5 57t-56.5 163q0 115 76.5 197t201.5 82q98 0 154 -47l-47 -94q-45 43 -113 43q-76 0 -121 -52.5t-45 -125.5q0 -60 32 -92t91 -32q58 0 115 31
l8 -94q-67 -36 -141 -36z" />
    <glyph glyph-name="Ccaron" unicode="&#x10c;" horiz-adv-x="620" 
d="M387 715l-68 148h93l43 -85l78 85h100l-128 -148h-118zM438 575q-119 0 -196 -82.5t-77 -205.5q0 -92 46 -143.5t133 -51.5q105 0 195 62l12 -111q-96 -55 -214 -55q-135 0 -210.5 77t-75.5 212q0 170 108 286t277 116q68 0 127 -19.5t94 -54.5l-46 -92q-67 62 -173 62z
" />
    <glyph glyph-name="ccaron" unicode="&#x10d;" horiz-adv-x="449" 
d="M257 555l-68 148h93l43 -85l78 85h100l-128 -148h-118zM34 209q0 115 76.5 197t201.5 82q98 0 154 -47l-47 -94q-45 43 -113 43q-76 0 -121 -52.5t-45 -125.5q0 -60 32 -92t91 -32q58 0 115 31l8 -94q-67 -36 -141 -36q-98 0 -154.5 57t-56.5 163z" />
    <glyph glyph-name="Dcaron" unicode="&#x10e;" horiz-adv-x="675" 
d="M365 715l-68 148h93l43 -85l78 85h100l-128 -148h-118zM341 667q159 0 240.5 -72t81.5 -207q0 -170 -112.5 -279t-300.5 -109h-217l133 667h175zM255 104q133 0 213 75.5t80 197.5q0 186 -217 186h-74l-92 -459h90z" />
    <glyph glyph-name="dcaron" unicode="&#x10f;" horiz-adv-x="616" 
d="M499 702h104l-140 -702h-98l13 65q-70 -76 -165 -76q-84 0 -134 55.5t-50 147.5q0 122 77 209t186 87q104 0 148 -84zM655 702h104l-92 -172h-70zM247 88q69 0 115.5 52.5t46.5 131.5q0 55 -30 86.5t-83 31.5q-66 0 -112.5 -52.5t-46.5 -126.5q0 -57 29.5 -90t80.5 -33z
" />
    <glyph glyph-name="Dcroat" unicode="&#x110;" horiz-adv-x="675" 
d="M341 667q159 0 240.5 -72t81.5 -207q0 -170 -112.5 -279t-300.5 -109h-217l59 296h-77l18 92h77l56 279h175zM255 104q133 0 213 75.5t80 197.5q0 186 -217 186h-74l-35 -175h165l-18 -92h-166l-38 -192h90z" />
    <glyph glyph-name="dcroat" unicode="&#x111;" horiz-adv-x="579" 
d="M648 644l-20 -80h-53l-112 -564h-98l13 65q-70 -76 -165 -76q-84 0 -134 55.5t-50 147.5q0 122 77 209t186 87q104 0 148 -84l32 160h-160l19 80h157l11 58h104l-12 -58h57zM247 88q69 0 115.5 52.5t46.5 131.5q0 55 -30 86.5t-83 31.5q-66 0 -112.5 -52.5t-46.5 -126.5
q0 -57 29.5 -90t80.5 -33z" />
    <glyph glyph-name="Emacron" unicode="&#x112;" horiz-adv-x="560" 
d="M269 807h289l-16 -78h-289zM586 563h-329l-34 -168h260l-21 -106h-260l-37 -185h329l-20 -104h-441l133 667h441z" />
    <glyph glyph-name="emacron" unicode="&#x113;" horiz-adv-x="525" 
d="M495 673l-16 -78h-289l16 78h289zM302 488q88 0 139.5 -49t51.5 -132q0 -54 -16 -102h-339q3 -121 126 -121q80 0 159 41l12 -92q-82 -44 -178 -44q-104 0 -163.5 56t-59.5 163q0 119 76.5 199.5t191.5 80.5zM295 398q-52 0 -89 -32t-55 -82h240q1 5 1 15q0 46 -25 72.5
t-72 26.5z" />
    <glyph glyph-name="Ebreve" unicode="&#x114;" horiz-adv-x="560" 
d="M485 859h82q-13 -66 -57 -107t-106 -41q-55 0 -89.5 32t-34.5 84q0 15 3 32h74q-2 -12 -2 -19q0 -22 14 -35t39 -13q28 0 49.5 18.5t27.5 48.5zM586 563h-329l-34 -168h260l-21 -106h-260l-37 -185h329l-20 -104h-441l133 667h441z" />
    <glyph glyph-name="ebreve" unicode="&#x115;" horiz-adv-x="525" 
d="M334 550q-55 0 -89.5 32t-34.5 84q0 16 3 32h74q-2 -12 -2 -19q0 -22 14 -35t39 -13q28 0 49.5 18.5t27.5 48.5h82q-13 -66 -57 -107t-106 -41zM302 488q88 0 139.5 -49t51.5 -132q0 -54 -16 -102h-339q3 -121 126 -121q80 0 159 41l12 -92q-82 -44 -178 -44
q-104 0 -163.5 56t-59.5 163q0 119 76.5 199.5t191.5 80.5zM295 398q-52 0 -89 -32t-55 -82h240q1 5 1 15q0 46 -25 72.5t-72 26.5z" />
    <glyph glyph-name="Edotaccent" unicode="&#x116;" horiz-adv-x="560" 
d="M405 712q-29 0 -47.5 17.5t-18.5 45.5t18.5 46t47.5 18t47.5 -18t18.5 -46t-18.5 -45.5t-47.5 -17.5zM586 563h-329l-34 -168h260l-21 -106h-260l-37 -185h329l-20 -104h-441l133 667h441z" />
    <glyph glyph-name="edotaccent" unicode="&#x117;" horiz-adv-x="525" 
d="M343 572q-29 0 -47.5 17.5t-18.5 45.5t18.5 46t47.5 18t47.5 -18t18.5 -46t-18.5 -45.5t-47.5 -17.5zM493 307q0 -54 -16 -102h-339q3 -121 126 -121q80 0 159 41l12 -92q-82 -44 -178 -44q-104 0 -163.5 56t-59.5 163q0 119 76.5 199.5t191.5 80.5q88 0 139.5 -49
t51.5 -132zM295 398q-52 0 -89 -32t-55 -82h240q1 5 1 15q0 46 -25 72.5t-72 26.5z" />
    <glyph glyph-name="Eogonek" unicode="&#x118;" horiz-adv-x="560" 
d="M586 563h-329l-34 -168h260l-21 -106h-260l-37 -185h329l-20 -104h-22q-80 -59 -80 -93q0 -19 23 -19q24 0 44 11l2 -62q-39 -21 -83 -21q-71 0 -71 57q0 60 92 127h-346l133 667h441z" />
    <glyph glyph-name="eogonek" unicode="&#x119;" horiz-adv-x="525" 
d="M493 307q0 -54 -16 -102h-339q3 -121 119 -121q81 0 162 46l11 -90q-84 -59 -110.5 -87t-26.5 -49q0 -18 22 -18q25 0 45 11l2 -62q-39 -21 -83 -21q-71 0 -71 57q0 58 96 124q-28 -6 -57 -6q-100 0 -156.5 56t-56.5 163q0 112 74 196t194 84q88 0 139.5 -49t51.5 -132z
M295 398q-52 0 -89 -32t-55 -82h240q1 5 1 15q0 46 -25 72.5t-72 26.5z" />
    <glyph glyph-name="Ecaron" unicode="&#x11a;" horiz-adv-x="560" 
d="M336 715l-68 148h93l43 -85l78 85h100l-128 -148h-118zM586 563h-329l-34 -168h260l-21 -106h-260l-37 -185h329l-20 -104h-441l133 667h441z" />
    <glyph glyph-name="ecaron" unicode="&#x11b;" horiz-adv-x="525" 
d="M267 555l-68 148h93l43 -85l78 85h100l-128 -148h-118zM302 488q88 0 139.5 -49t51.5 -132q0 -54 -16 -102h-339q3 -121 126 -121q80 0 159 41l12 -92q-82 -44 -178 -44q-104 0 -163.5 56t-59.5 163q0 119 76.5 199.5t191.5 80.5zM295 398q-52 0 -89 -32t-55 -82h240
q1 5 1 15q0 46 -25 72.5t-72 26.5z" />
    <glyph glyph-name="Gcircumflex" unicode="&#x11c;" horiz-adv-x="669" 
d="M474 800l-77 -85h-100l128 148h118l68 -148h-93zM368 264l21 105h249l-62 -312q-100 -69 -244 -69q-132 0 -206.5 77t-74.5 212q0 170 108 286t276 116q153 0 229 -70l-49 -96q-67 62 -176 62q-120 0 -197 -82.5t-77 -205.5q0 -92 46.5 -143.5t132.5 -51.5q74 0 133 31
l28 141h-137z" />
    <glyph glyph-name="gcircumflex" unicode="&#x11d;" horiz-adv-x="578" 
d="M370 639l-77 -85h-100l128 148h118l68 -148h-93zM460 478h97l-88 -441q-21 -107 -93.5 -164t-190.5 -57q-114 0 -195 49l43 89q64 -43 150 -43q157 0 186 148l5 26q-72 -75 -168 -75q-81 0 -129 54t-48 140q0 117 74 200.5t188 83.5q112 0 152 -97zM247 105q71 0 117 52
t46 123q0 50 -31 81t-82 31q-67 0 -113.5 -52t-46.5 -118q0 -53 30 -85t80 -32z" />
    <glyph glyph-name="Gbreve" unicode="&#x11e;" horiz-adv-x="669" 
d="M463 711q-55 0 -89.5 32t-34.5 84q0 15 3 32h74q-2 -12 -2 -19q0 -22 14 -35t39 -13q28 0 49.5 18.5t27.5 48.5h82q-13 -66 -57 -107t-106 -41zM368 264l21 105h249l-62 -312q-100 -69 -244 -69q-132 0 -206.5 77t-74.5 212q0 170 108 286t276 116q153 0 229 -70l-49 -96
q-67 62 -176 62q-120 0 -197 -82.5t-77 -205.5q0 -92 46.5 -143.5t132.5 -51.5q74 0 133 31l28 141h-137z" />
    <glyph glyph-name="gbreve" unicode="&#x11f;" horiz-adv-x="578" 
d="M358 550q-55 0 -89.5 32t-34.5 84q0 16 3 32h74q-2 -12 -2 -19q0 -22 14 -35t39 -13q28 0 49.5 18.5t27.5 48.5h82q-13 -66 -57 -107t-106 -41zM460 478h97l-88 -441q-21 -107 -93.5 -164t-190.5 -57q-114 0 -195 49l43 89q64 -43 150 -43q157 0 186 148l5 26
q-72 -75 -168 -75q-81 0 -129 54t-48 140q0 117 74 200.5t188 83.5q112 0 152 -97zM247 105q71 0 117 52t46 123q0 50 -31 81t-82 31q-67 0 -113.5 -52t-46.5 -118q0 -53 30 -85t80 -32z" />
    <glyph glyph-name="Gdotaccent" unicode="&#x120;" horiz-adv-x="669" 
d="M464 712q-29 0 -47.5 17.5t-18.5 45.5t18.5 46t47.5 18t47.5 -18t18.5 -46t-18.5 -45.5t-47.5 -17.5zM368 264l21 105h249l-62 -312q-100 -69 -244 -69q-132 0 -206.5 77t-74.5 212q0 170 108 286t276 116q153 0 229 -70l-49 -96q-67 62 -176 62q-120 0 -197 -82.5
t-77 -205.5q0 -92 46.5 -143.5t132.5 -51.5q74 0 133 31l28 141h-137z" />
    <glyph glyph-name="gdotaccent" unicode="&#x121;" horiz-adv-x="578" 
d="M367 572q-29 0 -47.5 17.5t-18.5 45.5t18.5 46t47.5 18t47.5 -18t18.5 -46t-18.5 -45.5t-47.5 -17.5zM460 478h97l-88 -441q-21 -107 -93.5 -164t-190.5 -57q-114 0 -195 49l43 89q64 -43 150 -43q157 0 186 148l5 26q-72 -75 -168 -75q-81 0 -129 54t-48 140
q0 117 74 200.5t188 83.5q112 0 152 -97zM247 105q71 0 117 52t46 123q0 50 -31 81t-82 31q-67 0 -113.5 -52t-46.5 -118q0 -53 30 -85t80 -32z" />
    <glyph glyph-name="uni0122" unicode="&#x122;" horiz-adv-x="669" 
d="M368 264l21 105h249l-62 -312q-100 -69 -244 -69q-132 0 -206.5 77t-74.5 212q0 170 108 286t276 116q153 0 229 -70l-49 -96q-67 62 -176 62q-120 0 -197 -82.5t-77 -205.5q0 -92 46.5 -143.5t132.5 -51.5q74 0 133 31l28 141h-137zM190 -175l63 118h121l-84 -118h-100z
" />
    <glyph glyph-name="uni0123" unicode="&#x123;" horiz-adv-x="578" 
d="M464 703l-83 -148h-116l105 148h94zM460 478h97l-88 -441q-21 -107 -93.5 -164t-190.5 -57q-114 0 -195 49l43 89q64 -43 150 -43q157 0 186 148l5 26q-72 -75 -168 -75q-81 0 -129 54t-48 140q0 117 74 200.5t188 83.5q112 0 152 -97zM247 105q71 0 117 52t46 123
q0 50 -31 81t-82 31q-67 0 -113.5 -52t-46.5 -118q0 -53 30 -85t80 -32z" />
    <glyph glyph-name="Hcircumflex" unicode="&#x124;" horiz-adv-x="698" 
d="M463 800l-77 -85h-100l128 148h118l68 -148h-93zM591 667h112l-133 -667h-112l58 289h-314l-58 -289h-111l133 667h111l-54 -272h314z" />
    <glyph glyph-name="hcircumflex" unicode="&#x125;" horiz-adv-x="556" 
d="M400 835l-77 -85h-100l128 148h118l68 -148h-93zM350 488q72 0 114.5 -44.5t42.5 -124.5q0 -35 -10 -83l-47 -236h-104l48 239q7 31 7 59q0 92 -88 92q-53 0 -88.5 -34t-48.5 -97l-51 -259h-104l140 702h104l-55 -276q55 62 140 62z" />
    <glyph glyph-name="Hbar" unicode="&#x126;" horiz-adv-x="698" 
d="M748 587l-15 -80h-62l-101 -507h-112l58 289h-314l-58 -289h-111l101 507h-60l15 80h61l16 80h111l-16 -80h314l16 80h112l-16 -80h61zM537 395l22 112h-314l-22 -112h314z" />
    <glyph glyph-name="hbar" unicode="&#x127;" horiz-adv-x="556" 
d="M350 488q72 0 114.5 -44.5t42.5 -124.5q0 -35 -10 -83l-47 -236h-104l48 239q7 31 7 59q0 92 -88 92q-53 0 -88.5 -34t-48.5 -97l-51 -259h-104l112 564h-55l19 80h52l12 58h104l-12 -58h161l-20 -80h-156l-28 -138q55 62 140 62z" />
    <glyph glyph-name="Itilde" unicode="&#x128;" horiz-adv-x="272" 
d="M56 711q13 67 48 108t85 41q23 0 41 -9.5t28 -21t22.5 -21t25.5 -9.5q38 0 50 61h75q-13 -67 -48 -108t-84 -41q-29 0 -50 15.5t-37 30.5t-31 15q-38 0 -50 -61h-75zM166 667h111l-133 -667h-111z" />
    <glyph glyph-name="itilde" unicode="&#x129;" horiz-adv-x="240" 
d="M35 550q13 68 43 108.5t73 40.5q26 0 44.5 -15.5t30.5 -30.5t24 -15q27 0 39 61h70q-13 -68 -43.5 -108.5t-73.5 -40.5q-21 0 -37 9.5t-24 21t-18 21t-19 9.5q-29 0 -39 -61h-70zM116 478h104l-95 -478h-104z" />
    <glyph glyph-name="Imacron" unicode="&#x12a;" horiz-adv-x="272" 
d="M104 807h289l-16 -78h-289zM166 667h111l-133 -667h-111z" />
    <glyph glyph-name="imacron" unicode="&#x12b;" horiz-adv-x="240" 
d="M77 673h261l-16 -78h-261zM116 478h104l-95 -478h-104z" />
    <glyph glyph-name="Ibreve" unicode="&#x12c;" horiz-adv-x="272" 
d="M320 859h82q-13 -66 -57 -107t-106 -41q-55 0 -89.5 32t-34.5 84q0 15 3 32h74q-2 -12 -2 -19q0 -22 14 -35t39 -13q28 0 49.5 18.5t27.5 48.5zM166 667h111l-133 -667h-111z" />
    <glyph glyph-name="ibreve" unicode="&#x12d;" horiz-adv-x="240" 
d="M272 698h82q-13 -66 -57 -107t-106 -41q-55 0 -89.5 32t-34.5 84q0 16 3 32h74q-2 -12 -2 -19q0 -22 14 -35t39 -13q28 0 49.5 18.5t27.5 48.5zM116 478h104l-95 -478h-104z" />
    <glyph glyph-name="Iogonek" unicode="&#x12e;" horiz-adv-x="272" 
d="M144 0q-80 -59 -80 -93q0 -19 23 -19q24 0 44 11l2 -62q-39 -21 -83 -21q-71 0 -71 57q0 60 92 127h-38l133 667h111z" />
    <glyph glyph-name="iogonek" unicode="&#x12f;" horiz-adv-x="240" 
d="M200 699q29 0 47.5 -18t18.5 -46t-18.5 -45.5t-47.5 -17.5t-47.5 17.5t-18.5 45.5t18.5 46t47.5 18zM21 0l95 478h104l-95 -478q-80 -59 -80 -93q0 -19 23 -19q24 0 44 11l2 -62q-39 -21 -83 -21q-71 0 -71 57q0 60 92 127h-31z" />
    <glyph glyph-name="Idotaccent" unicode="&#x130;" horiz-adv-x="272" 
d="M240 712q-29 0 -47.5 17.5t-18.5 45.5t18.5 46t47.5 18t47.5 -18t18.5 -46t-18.5 -45.5t-47.5 -17.5zM166 667h111l-133 -667h-111z" />
    <glyph glyph-name="dotlessi" unicode="&#x131;" horiz-adv-x="240" 
d="M116 478h104l-95 -478h-104z" />
    <glyph glyph-name="IJ" unicode="&#x132;" horiz-adv-x="642" 
d="M166 667h111l-133 -667h-111zM328 -9q-58 0 -96 14l38 101q26 -10 60 -10q49 0 78 24t39 78l93 469h111l-97 -490q-18 -92 -77.5 -139t-148.5 -47z" />
    <glyph glyph-name="ij" unicode="&#x133;" horiz-adv-x="480" 
d="M199 572q-29 0 -47.5 17.5t-18.5 45.5t18.5 46t47.5 18t47.5 -18t18.5 -46t-18.5 -45.5t-47.5 -17.5zM439 572q-29 0 -47.5 17.5t-18.5 45.5t18.5 46t47.5 18t47.5 -18t18.5 -46t-18.5 -45.5t-47.5 -17.5zM116 478h104l-95 -478h-104zM116 -171l26 90q16 -2 25 -2
q77 0 96 97l93 464h104l-96 -480q-34 -177 -187 -177q-35 0 -61 8z" />
    <glyph glyph-name="Jcircumflex" unicode="&#x134;" horiz-adv-x="370" 
d="M422 863l68 -148h-93l-44 85l-77 -85h-100l128 148h118zM175 198l93 469h111l-97 -490q-18 -92 -77.5 -139t-148.5 -47q-58 0 -96 14l38 101q26 -10 60 -10q49 0 78 24t39 78z" />
    <glyph glyph-name="jcircumflex" unicode="&#x135;" horiz-adv-x="240" 
d="M272 702l68 -148h-93l-44 85l-77 -85h-100l128 148h118zM23 14l93 464h104l-96 -480q-34 -177 -187 -177q-35 0 -61 8l26 90q16 -2 25 -2q77 0 96 97z" />
    <glyph glyph-name="uni0136" unicode="&#x136;" horiz-adv-x="663" 
d="M723 667l-355 -302l238 -365h-134l-189 293l-97 -83l-42 -210h-111l133 667h111l-61 -304l354 304h153zM150 -175l63 118h121l-84 -118h-100z" />
    <glyph glyph-name="uni0137" unicode="&#x137;" horiz-adv-x="522" 
d="M553 478l-251 -214l168 -264h-123l-125 197l-70 -60l-27 -137h-104l140 702h104l-85 -426l234 202h139zM87 -175l63 118h121l-84 -118h-100z" />
    <glyph glyph-name="kgreenlandic" unicode="&#x138;" horiz-adv-x="522" 
d="M553 478l-251 -214l168 -264h-123l-125 197l-70 -60l-27 -137h-104l95 478h104l-40 -202l234 202h139z" />
    <glyph glyph-name="Lacute" unicode="&#x139;" horiz-adv-x="490" 
d="M199 715l133 148h128l-152 -148h-109zM33 0l133 667h111l-112 -563h285l-20 -104h-397z" />
    <glyph glyph-name="lacute" unicode="&#x13a;" horiz-adv-x="274" 
d="M155 750l133 148h128l-152 -148h-109zM161 702h104l-111 -555q-3 -15 -3 -25q0 -32 37 -32q21 0 37 6l-8 -95q-23 -6 -54 -6q-60 0 -89.5 23.5t-29.5 77.5q0 27 7 59z" />
    <glyph glyph-name="uni013B" unicode="&#x13b;" horiz-adv-x="490" 
d="M33 0l133 667h111l-112 -563h285l-20 -104h-397zM109 -175l63 118h121l-84 -118h-100z" />
    <glyph glyph-name="uni013C" unicode="&#x13c;" horiz-adv-x="274" 
d="M161 702h104l-111 -555q-3 -15 -3 -25q0 -32 37 -32q21 0 37 6l-8 -95q-23 -6 -54 -6q-60 0 -89.5 23.5t-29.5 77.5q0 27 7 59zM-36 -175l63 118h121l-84 -118h-100z" />
    <glyph glyph-name="Lcaron" unicode="&#x13d;" horiz-adv-x="490" 
d="M33 0l133 667h111l-112 -563h285l-20 -104h-397zM295 495l58 172h104l-92 -172h-70z" />
    <glyph glyph-name="lcaron" unicode="&#x13e;" horiz-adv-x="291" 
d="M161 702h104l-111 -555q-3 -15 -3 -25q0 -32 37 -32q21 0 37 6l-8 -95q-23 -6 -54 -6q-60 0 -89.5 23.5t-29.5 77.5q0 27 7 59zM256 530l58 172h104l-92 -172h-70z" />
    <glyph glyph-name="Ldot" unicode="&#x13f;" horiz-adv-x="530" 
d="M33 0l133 667h111l-112 -563h285l-20 -104h-397zM401 304q-31 0 -52 21t-21 52t20.5 51.5t52.5 20.5t52.5 -20.5t20.5 -51.5t-21 -52t-52 -21z" />
    <glyph glyph-name="ldot" unicode="&#x140;" horiz-adv-x="375" 
d="M161 702h104l-111 -555q-3 -15 -3 -25q0 -32 37 -32q21 0 37 6l-8 -95q-23 -6 -54 -6q-60 0 -89.5 23.5t-29.5 77.5q0 27 7 59zM324 287q-32 0 -52.5 20.5t-20.5 52.5q0 31 20.5 51.5t52.5 20.5t52.5 -20.5t20.5 -51.5q0 -32 -20.5 -52.5t-52.5 -20.5z" />
    <glyph glyph-name="Lslash" unicode="&#x141;" horiz-adv-x="490" 
d="M165 104h285l-20 -104h-397l51 255l-81 -42l23 116l81 42l59 296h111l-46 -232l181 94l-24 -117l-180 -93z" />
    <glyph glyph-name="lslash" unicode="&#x142;" horiz-adv-x="274" 
d="M199 371l-45 -224q-3 -15 -3 -25q0 -32 37 -32q21 0 37 6l-8 -95q-23 -6 -54 -6q-60 0 -89.5 23.5t-29.5 77.5q0 27 7 59l31 156l-68 -36l20 101l69 36l58 290h104l-46 -230l89 46l-20 -100z" />
    <glyph glyph-name="Nacute" unicode="&#x143;" horiz-adv-x="752" 
d="M652 863l-152 -148h-109l133 148h128zM646 667h111l-133 -667h-146l-228 530l-106 -530h-111l133 667h146l228 -530z" />
    <glyph glyph-name="nacute" unicode="&#x144;" horiz-adv-x="556" 
d="M514 702l-152 -148h-109l133 148h128zM350 488q72 0 114.5 -44.5t42.5 -124.5q0 -35 -10 -83l-47 -236h-104l48 239q7 31 7 59q0 92 -88 92q-53 0 -88.5 -34t-48.5 -97l-51 -259h-104l95 478h97l-12 -62q57 72 149 72z" />
    <glyph glyph-name="uni0145" unicode="&#x145;" horiz-adv-x="752" 
d="M646 667h111l-133 -667h-146l-228 530l-106 -530h-111l133 667h146l228 -530zM207 -175l63 118h121l-84 -118h-100z" />
    <glyph glyph-name="uni0146" unicode="&#x146;" horiz-adv-x="556" 
d="M350 488q72 0 114.5 -44.5t42.5 -124.5q0 -35 -10 -83l-47 -236h-104l48 239q7 31 7 59q0 92 -88 92q-53 0 -88.5 -34t-48.5 -97l-51 -259h-104l95 478h97l-12 -62q57 72 149 72zM109 -175l63 118h121l-84 -118h-100z" />
    <glyph glyph-name="Ncaron" unicode="&#x147;" horiz-adv-x="752" 
d="M412 715l-68 148h93l43 -85l78 85h100l-128 -148h-118zM646 667h111l-133 -667h-146l-228 530l-106 -530h-111l133 667h146l228 -530z" />
    <glyph glyph-name="ncaron" unicode="&#x148;" horiz-adv-x="556" 
d="M282 555l-68 148h93l43 -85l78 85h100l-128 -148h-118zM350 488q72 0 114.5 -44.5t42.5 -124.5q0 -35 -10 -83l-47 -236h-104l48 239q7 31 7 59q0 92 -88 92q-53 0 -88.5 -34t-48.5 -97l-51 -259h-104l95 478h97l-12 -62q57 72 149 72z" />
    <glyph glyph-name="napostrophe" unicode="&#x149;" horiz-adv-x="775" 
d="M197 677l110 -29l-157 -244l-89 22zM569 488q72 0 114.5 -44.5t42.5 -124.5q0 -35 -10 -83l-47 -236h-104l48 239q7 31 7 59q0 92 -88 92q-53 0 -88.5 -34t-48.5 -97l-51 -259h-104l95 478h97l-12 -62q57 72 149 72z" />
    <glyph glyph-name="Eng" unicode="&#x14a;" horiz-adv-x="752" 
d="M646 667h111l-132 -666q-19 -93 -76 -139.5t-144 -46.5q-61 0 -103 15l37 99q31 -9 62 -9q91 0 113 90l-262 531l-108 -541h-111l133 667h147l237 -479z" />
    <glyph glyph-name="eng" unicode="&#x14b;" horiz-adv-x="556" 
d="M507 319q0 -35 -10 -83l-47 -238q-34 -177 -187 -177q-33 0 -61 7l26 91q12 -2 26 -2q38 0 61.5 22.5t33.5 74.5l45 225q7 31 7 59q0 92 -88 92q-53 0 -88.5 -34t-48.5 -97l-51 -259h-104l95 478h97l-12 -62q57 72 149 72q72 0 114.5 -44.5t42.5 -124.5z" />
    <glyph glyph-name="Omacron" unicode="&#x14c;" horiz-adv-x="747" 
d="M301 807h289l-16 -78h-289zM365 -12q-138 0 -224.5 84.5t-86.5 223.5q0 164 102.5 273.5t263.5 109.5q138 0 224.5 -84.5t86.5 -224.5q0 -163 -102.5 -272.5t-263.5 -109.5zM365 92q109 0 180.5 78.5t71.5 193.5q0 94 -54.5 152t-144.5 58q-107 0 -178 -78t-71 -194
q0 -94 53 -152t143 -58z" />
    <glyph glyph-name="omacron" unicode="&#x14d;" horiz-adv-x="552" 
d="M219 673h289l-16 -78h-289zM249 -11q-97 0 -156 61t-59 161q0 116 78 196.5t192 80.5q97 0 155 -59.5t58 -160.5q0 -118 -77 -198.5t-191 -80.5zM253 88q67 0 114 52t47 125q0 57 -31 91t-84 34q-67 0 -114 -51.5t-47 -124.5q0 -58 31 -92t84 -34z" />
    <glyph glyph-name="Obreve" unicode="&#x14e;" horiz-adv-x="747" 
d="M517 859h82q-13 -66 -57 -107t-106 -41q-55 0 -89.5 32t-34.5 84q0 15 3 32h74q-2 -12 -2 -19q0 -22 14 -35t39 -13q28 0 49.5 18.5t27.5 48.5zM365 -12q-138 0 -224.5 84.5t-86.5 223.5q0 164 102.5 273.5t263.5 109.5q138 0 224.5 -84.5t86.5 -224.5
q0 -163 -102.5 -272.5t-263.5 -109.5zM365 92q109 0 180.5 78.5t71.5 193.5q0 94 -54.5 152t-144.5 58q-107 0 -178 -78t-71 -194q0 -94 53 -152t143 -58z" />
    <glyph glyph-name="obreve" unicode="&#x14f;" horiz-adv-x="552" 
d="M428 698h82q-13 -66 -57 -107t-106 -41q-55 0 -89.5 32t-34.5 84q0 16 3 32h74q-2 -12 -2 -19q0 -22 14 -35t39 -13q28 0 49.5 18.5t27.5 48.5zM249 -11q-97 0 -156 61t-59 161q0 116 78 196.5t192 80.5q97 0 155 -59.5t58 -160.5q0 -118 -77 -198.5t-191 -80.5zM253 88
q67 0 114 52t47 125q0 57 -31 91t-84 34q-67 0 -114 -51.5t-47 -124.5q0 -58 31 -92t84 -34z" />
    <glyph glyph-name="Ohungarumlaut" unicode="&#x150;" horiz-adv-x="747" 
d="M290 715l133 148h119l-152 -148h-100zM458 715l134 148h119l-152 -148h-101zM365 -12q-138 0 -224.5 84.5t-86.5 223.5q0 164 102.5 273.5t263.5 109.5q138 0 224.5 -84.5t86.5 -224.5q0 -163 -102.5 -272.5t-263.5 -109.5zM365 92q109 0 180.5 78.5t71.5 193.5
q0 94 -54.5 152t-144.5 58q-107 0 -178 -78t-71 -194q0 -94 53 -152t143 -58z" />
    <glyph glyph-name="ohungarumlaut" unicode="&#x151;" horiz-adv-x="552" 
d="M162 555l133 148h119l-152 -148h-100zM330 555l134 148h119l-152 -148h-101zM249 -11q-97 0 -156 61t-59 161q0 116 78 196.5t192 80.5q97 0 155 -59.5t58 -160.5q0 -118 -77 -198.5t-191 -80.5zM253 88q67 0 114 52t47 125q0 57 -31 91t-84 34q-67 0 -114 -51.5
t-47 -124.5q0 -58 31 -92t84 -34z" />
    <glyph glyph-name="OE" unicode="&#x152;" horiz-adv-x="895" 
d="M372 0q-158 0 -239.5 71.5t-81.5 205.5q0 172 112.5 281t300.5 109h478l-21 -104h-300l-33 -168h229l-20 -106h-230l-38 -185h300l-20 -104h-437zM380 104h37l92 459h-49q-133 0 -214.5 -77.5t-81.5 -202.5q0 -179 216 -179z" />
    <glyph glyph-name="oe" unicode="&#x153;" horiz-adv-x="879" 
d="M847 307q0 -54 -16 -102h-327q3 -121 117 -121q74 0 153 41l11 -89q-83 -47 -174 -47q-135 0 -180 94q-76 -94 -192 -94q-92 0 -148.5 61t-56.5 161q0 115 79.5 196t191.5 81q120 0 168 -93q74 93 193 93q81 0 131 -49.5t50 -131.5zM657 398q-50 0 -86.5 -32t-53.5 -82
h229q1 7 1 18q0 44 -24 70t-66 26zM248 88q67 0 112.5 51.5t45.5 124.5q0 58 -29.5 92t-80.5 34q-64 0 -111 -52t-47 -124q0 -58 30 -92t80 -34z" />
    <glyph glyph-name="Racute" unicode="&#x154;" horiz-adv-x="636" 
d="M588 863l-152 -148h-109l133 148h128zM625 486q0 -85 -55.5 -149t-143.5 -81l130 -256h-123l-122 251h-117l-50 -251h-111l133 667h225q116 0 175 -48.5t59 -132.5zM373 349q65 0 102 33.5t37 88.5q0 92 -124 92h-132l-42 -214h159z" />
    <glyph glyph-name="racute" unicode="&#x155;" horiz-adv-x="361" 
d="M446 702l-152 -148h-109l133 148h128zM198 402q56 83 139 83q32 0 62 -11l-36 -103q-24 9 -52 9q-53 0 -89 -36.5t-51 -109.5l-46 -234h-104l95 478h97z" />
    <glyph glyph-name="uni0156" unicode="&#x156;" horiz-adv-x="636" 
d="M625 486q0 -85 -55.5 -149t-143.5 -81l130 -256h-123l-122 251h-117l-50 -251h-111l133 667h225q116 0 175 -48.5t59 -132.5zM373 349q65 0 102 33.5t37 88.5q0 92 -124 92h-132l-42 -214h159zM143 -175l63 118h121l-84 -118h-100z" />
    <glyph glyph-name="uni0157" unicode="&#x157;" horiz-adv-x="361" 
d="M337 485q32 0 62 -11l-36 -103q-24 9 -52 9q-53 0 -89 -36.5t-51 -109.5l-46 -234h-104l95 478h97l-15 -76q56 83 139 83zM-57 -175l63 118h121l-84 -118h-100z" />
    <glyph glyph-name="Rcaron" unicode="&#x158;" horiz-adv-x="636" 
d="M348 715l-68 148h93l43 -85l78 85h100l-128 -148h-118zM625 486q0 -85 -55.5 -149t-143.5 -81l130 -256h-123l-122 251h-117l-50 -251h-111l133 667h225q116 0 175 -48.5t59 -132.5zM373 349q65 0 102 33.5t37 88.5q0 92 -124 92h-132l-42 -214h159z" />
    <glyph glyph-name="rcaron" unicode="&#x159;" horiz-adv-x="361" 
d="M214 555l-68 148h93l43 -85l78 85h100l-128 -148h-118zM198 402q56 83 139 83q32 0 62 -11l-36 -103q-24 9 -52 9q-53 0 -89 -36.5t-51 -109.5l-46 -234h-104l95 478h97z" />
    <glyph glyph-name="Sacute" unicode="&#x15a;" horiz-adv-x="563" 
d="M296 715l133 148h128l-152 -148h-109zM23 38l43 97q70 -43 163 -43q74 0 121 26t47 68q0 31 -30 53.5t-72.5 39.5t-84.5 38.5t-72 61.5t-30 96q0 89 70 146t182 57q123 0 202 -51l-43 -98q-69 46 -160 46q-62 0 -99 -25t-37 -66q0 -33 29.5 -57t72 -41t84.5 -37.5t72 -59
t31 -92.5q1 -92 -78.5 -150.5t-204.5 -58.5q-130 0 -206 50z" />
    <glyph glyph-name="sacute" unicode="&#x15b;" horiz-adv-x="418" 
d="M184 554l133 148h128l-152 -148h-109zM-9 30l41 87q56 -34 124 -34q45 0 74 15.5t29 40.5q0 20 -21 33.5t-51.5 23.5t-61 24t-51.5 42.5t-21 70.5q0 69 54.5 112t145.5 43q92 0 152 -35l-42 -90q-53 32 -120 32q-41 0 -62 -14t-21 -38q0 -20 21 -34t51.5 -25t61 -25.5
t51.5 -42.5t21 -69q0 -71 -61.5 -114t-152.5 -43q-92 0 -161 40z" />
    <glyph glyph-name="Scircumflex" unicode="&#x15c;" horiz-adv-x="563" 
d="M396 800l-77 -85h-100l128 148h118l68 -148h-93zM359 575q-62 0 -99 -25t-37 -66q0 -33 29.5 -57t72 -41t84.5 -37.5t72 -59t31 -92.5q1 -92 -78.5 -150.5t-204.5 -58.5q-130 0 -206 50l43 97q70 -43 163 -43q74 0 121 26t47 68q0 31 -30 53.5t-72.5 39.5t-84.5 38.5
t-72 61.5t-30 96q0 89 70 146t182 57q123 0 202 -51l-43 -98q-69 46 -160 46z" />
    <glyph glyph-name="scircumflex" unicode="&#x15d;" horiz-adv-x="418" 
d="M292 639l-77 -85h-100l128 148h118l68 -148h-93zM243 395q-41 0 -62 -14t-21 -38q0 -20 21 -34t51.5 -25t61 -25.5t51.5 -42.5t21 -69q0 -71 -61.5 -114t-152.5 -43q-92 0 -161 40l41 87q56 -34 124 -34q45 0 74 15.5t29 40.5q0 20 -21 33.5t-51.5 23.5t-61 24
t-51.5 42.5t-21 70.5q0 69 54.5 112t145.5 43q92 0 152 -35l-42 -90q-53 32 -120 32z" />
    <glyph glyph-name="Scedilla" unicode="&#x15e;" horiz-adv-x="563" 
d="M359 575q-62 0 -99 -25t-37 -66q0 -33 29.5 -57t72 -41t84.5 -37.5t72 -59t31 -92.5q1 -86 -69 -143t-183 -65l-13 -29q34 0 53.5 -16.5t19.5 -44.5q0 -40 -30.5 -62t-81.5 -22q-45 0 -73 15l25 54q21 -13 48 -13q39 0 39 26q0 19 -29 19q-12 0 -25 -3l-17 6l30 69
q-115 5 -183 50l43 97q70 -43 163 -43q74 0 121 26t47 68q0 31 -30 53.5t-72.5 39.5t-84.5 38.5t-72 61.5t-30 96q0 89 70 146t182 57q123 0 202 -51l-43 -98q-69 46 -160 46z" />
    <glyph glyph-name="scedilla" unicode="&#x15f;" horiz-adv-x="418" 
d="M160 343q0 -20 21 -34t51.5 -25t61 -25.5t51.5 -42.5t21 -69q0 -66 -53 -108t-135 -48l-14 -31q34 0 53.5 -16.5t19.5 -44.5q0 -40 -30.5 -62t-81.5 -22q-45 0 -73 15l25 54q21 -13 48 -13q39 0 39 26q0 19 -29 19q-11 0 -25 -3l-17 6l31 72q-77 6 -133 39l41 87
q56 -34 124 -34q45 0 74 15.5t29 40.5q0 20 -21 33.5t-51.5 23.5t-61 24t-51.5 42.5t-21 70.5q0 69 54.5 112t145.5 43q92 0 152 -35l-42 -90q-53 32 -120 32q-41 0 -62 -14t-21 -38z" />
    <glyph glyph-name="Scaron" unicode="&#x160;" horiz-adv-x="563" 
d="M317 715l-68 148h93l43 -85l78 85h100l-128 -148h-118zM108 475q0 89 70 146t182 57q123 0 202 -51l-43 -98q-69 46 -160 46q-62 0 -99 -25t-37 -66q0 -33 29.5 -57t72 -41t84.5 -37.5t72 -59t31 -92.5q1 -92 -78.5 -150.5t-204.5 -58.5q-130 0 -206 50l43 97
q70 -43 163 -43q74 0 121 26t47 68q0 31 -30 53.5t-72.5 39.5t-84.5 38.5t-72 61.5t-30 96z" />
    <glyph glyph-name="scaron" unicode="&#x161;" horiz-adv-x="418" 
d="M213 555l-68 148h93l43 -85l78 85h100l-128 -148h-118zM243 395q-41 0 -62 -14t-21 -38q0 -20 21 -34t51.5 -25t61 -25.5t51.5 -42.5t21 -69q0 -71 -61.5 -114t-152.5 -43q-92 0 -161 40l41 87q56 -34 124 -34q45 0 74 15.5t29 40.5q0 20 -21 33.5t-51.5 23.5t-61 24
t-51.5 42.5t-21 70.5q0 69 54.5 112t145.5 43q92 0 152 -35l-42 -90q-53 32 -120 32z" />
    <glyph glyph-name="uni0162" unicode="&#x162;" horiz-adv-x="546" 
d="M609 667l-21 -104h-195l-112 -563h-111l112 563h-195l21 104h501zM99 -175l63 118h121l-84 -118h-100z" />
    <glyph glyph-name="uni0163" unicode="&#x163;" horiz-adv-x="334" 
d="M210 382l-44 -219q-3 -18 -3 -30q0 -43 50 -43q30 0 60 11l-3 -93q-45 -14 -89 -14q-124 0 -124 113q0 30 7 62l42 213h-65l19 96h65l23 114l108 22l-27 -136h128l-19 -96h-128zM29 -175l63 118h121l-84 -118h-100z" />
    <glyph glyph-name="Tcaron" unicode="&#x164;" horiz-adv-x="546" 
d="M308 715l-68 148h93l43 -85l78 85h100l-128 -148h-118zM609 667l-21 -104h-195l-112 -563h-111l112 563h-195l21 104h501z" />
    <glyph glyph-name="tcaron" unicode="&#x165;" horiz-adv-x="334" 
d="M435 702l-92 -172h-70l58 172h104zM256 614l-27 -136h128l-19 -96h-128l-44 -219q-3 -18 -3 -30q0 -43 50 -43q30 0 60 11l-3 -93q-45 -14 -89 -14q-124 0 -124 113q0 30 7 62l42 213h-65l19 96h65l23 114z" />
    <glyph glyph-name="Tbar" unicode="&#x166;" horiz-adv-x="546" 
d="M588 563h-195l-36 -183h120l-18 -92h-121l-57 -288h-111l57 288h-122l18 92h123l36 183h-195l21 104h501z" />
    <glyph glyph-name="tbar" unicode="&#x167;" horiz-adv-x="334" 
d="M338 382h-128l-17 -85h104l-17 -80h-103l-11 -54q-3 -18 -3 -30q0 -43 50 -43q30 0 60 11l-3 -93q-45 -14 -89 -14q-124 0 -124 113q0 30 7 62l10 48h-58l17 80h56l17 85h-65l19 96h65l23 114l108 22l-27 -136h128z" />
    <glyph glyph-name="Utilde" unicode="&#x168;" horiz-adv-x="664" 
d="M253 711q13 67 48 108t85 41q23 0 41 -9.5t28 -21t22.5 -21t25.5 -9.5q38 0 50 61h75q-13 -67 -48 -108t-84 -41q-29 0 -50 15.5t-37 30.5t-31 15q-38 0 -50 -61h-75zM296 -12q-112 0 -171 54.5t-59 159.5q0 42 10 89l75 376h111l-77 -387q-8 -40 -8 -68q0 -119 126 -119
q79 0 126 46t66 142l77 386h112l-81 -405q-55 -274 -307 -274z" />
    <glyph glyph-name="utilde" unicode="&#x169;" horiz-adv-x="556" 
d="M288 611q-38 0 -50 -61h-75q13 67 48 108t85 41q29 0 50 -15.5t36.5 -30.5t30.5 -15q38 0 50 61h75q-13 -67 -48 -108t-84 -41q-23 0 -41.5 9.5t-28.5 21t-22.5 21t-25.5 9.5zM380 219l52 259h104l-96 -478h-97l12 63q-55 -73 -149 -73q-72 0 -114 44.5t-42 125.5
q0 38 9 83l47 235h104l-48 -239q-7 -39 -7 -59q0 -91 88 -91q53 0 88.5 33.5t48.5 96.5z" />
    <glyph glyph-name="Umacron" unicode="&#x16a;" horiz-adv-x="664" 
d="M301 807h289l-16 -78h-289zM296 -12q-112 0 -171 54.5t-59 159.5q0 42 10 89l75 376h111l-77 -387q-8 -40 -8 -68q0 -119 126 -119q79 0 126 46t66 142l77 386h112l-81 -405q-55 -274 -307 -274z" />
    <glyph glyph-name="umacron" unicode="&#x16b;" horiz-adv-x="556" 
d="M506 673l-16 -78h-289l16 78h289zM432 478h104l-96 -478h-97l12 63q-55 -73 -149 -73q-72 0 -114 44.5t-42 125.5q0 38 9 83l47 235h104l-48 -239q-7 -39 -7 -59q0 -91 88 -91q53 0 88.5 33.5t48.5 96.5z" />
    <glyph glyph-name="Ubreve" unicode="&#x16c;" horiz-adv-x="664" 
d="M517 859h82q-13 -66 -57 -107t-106 -41q-55 0 -89.5 32t-34.5 84q0 15 3 32h74q-2 -12 -2 -19q0 -22 14 -35t39 -13q28 0 49.5 18.5t27.5 48.5zM296 -12q-112 0 -171 54.5t-59 159.5q0 42 10 89l75 376h111l-77 -387q-8 -40 -8 -68q0 -119 126 -119q79 0 126 46t66 142
l77 386h112l-81 -405q-55 -274 -307 -274z" />
    <glyph glyph-name="ubreve" unicode="&#x16d;" horiz-adv-x="556" 
d="M345 550q-55 0 -89.5 32t-34.5 84q0 16 3 32h74q-2 -12 -2 -19q0 -22 14 -35t39 -13q28 0 49.5 18.5t27.5 48.5h82q-13 -66 -57 -107t-106 -41zM432 478h104l-96 -478h-97l12 63q-55 -73 -149 -73q-72 0 -114 44.5t-42 125.5q0 38 9 83l47 235h104l-48 -239
q-7 -39 -7 -59q0 -91 88 -91q53 0 88.5 33.5t48.5 96.5z" />
    <glyph glyph-name="Uring" unicode="&#x16e;" horiz-adv-x="664" 
d="M435 700q-43 0 -74 30.5t-31 73.5q0 44 31 74t74 30q44 0 73.5 -30t29.5 -74q0 -43 -30 -73.5t-73 -30.5zM435 749q22 0 38 16t16 39t-15.5 38.5t-38.5 15.5t-39.5 -15.5t-16.5 -38.5t16.5 -39t39.5 -16zM296 -12q-112 0 -171 54.5t-59 159.5q0 42 10 89l75 376h111
l-77 -387q-8 -40 -8 -68q0 -119 126 -119q79 0 126 46t66 142l77 386h112l-81 -405q-55 -274 -307 -274z" />
    <glyph glyph-name="uring" unicode="&#x16f;" horiz-adv-x="556" 
d="M340 540q-43 0 -74 30.5t-31 73.5q0 44 31 74t74 30q44 0 73.5 -30t29.5 -74q0 -43 -30 -73.5t-73 -30.5zM340 698q-23 0 -39.5 -15.5t-16.5 -38.5t16.5 -39t39.5 -16q22 0 38 16t16 39t-15.5 38.5t-38.5 15.5zM432 478h104l-96 -478h-97l12 63q-55 -73 -149 -73
q-72 0 -114 44.5t-42 125.5q0 38 9 83l47 235h104l-48 -239q-7 -39 -7 -59q0 -91 88 -91q53 0 88.5 33.5t48.5 96.5z" />
    <glyph glyph-name="Uhungarumlaut" unicode="&#x170;" horiz-adv-x="664" 
d="M290 715l133 148h119l-152 -148h-100zM458 715l134 148h119l-152 -148h-101zM296 -12q-112 0 -171 54.5t-59 159.5q0 42 10 89l75 376h111l-77 -387q-8 -40 -8 -68q0 -119 126 -119q79 0 126 46t66 142l77 386h112l-81 -405q-55 -274 -307 -274z" />
    <glyph glyph-name="uhungarumlaut" unicode="&#x171;" horiz-adv-x="556" 
d="M412 703l-152 -148h-100l133 148h119zM429 555h-101l134 148h119zM380 219l52 259h104l-96 -478h-97l12 63q-55 -73 -149 -73q-72 0 -114 44.5t-42 125.5q0 38 9 83l47 235h104l-48 -239q-7 -39 -7 -59q0 -91 88 -91q53 0 88.5 33.5t48.5 96.5z" />
    <glyph glyph-name="Uogonek" unicode="&#x172;" horiz-adv-x="664" 
d="M572 667h112l-78 -393q-33 -167 -137 -248q-35 -28 -45.5 -37t-30.5 -27.5t-26 -30t-6 -23.5q0 -20 26 -20q21 0 41 11l2 -62q-39 -21 -83 -21q-34 0 -52.5 14.5t-18.5 40.5q0 60 80 123q-30 -6 -60 -6q-112 0 -171 54.5t-59 157.5q0 41 9 89l76 378h111l-77 -387
q-8 -40 -8 -67q0 -120 126 -120q79 0 126 46t66 142z" />
    <glyph glyph-name="uogonek" unicode="&#x173;" horiz-adv-x="556" 
d="M440 0q-80 -59 -80 -93q0 -19 23 -19q24 0 44 11l2 -62q-39 -21 -83 -21q-71 0 -71 57q0 60 92 127h-24l12 63q-55 -73 -149 -73q-72 0 -114 44.5t-42 125.5q0 38 9 83l47 235h104l-48 -239q-7 -39 -7 -59q0 -91 88 -91q53 0 88.5 33.5t48.5 96.5l52 259h104z" />
    <glyph glyph-name="Wcircumflex" unicode="&#x174;" horiz-adv-x="992" 
d="M611 800l-77 -85h-100l128 148h118l68 -148h-93zM947 667h119l-336 -667h-137l-45 498l-244 -498h-137l-69 667h109l50 -533l261 533h116l49 -537z" />
    <glyph glyph-name="wcircumflex" unicode="&#x175;" horiz-adv-x="769" 
d="M467 639l-77 -85h-100l128 148h118l68 -148h-93zM698 478h108l-237 -478h-119l-45 342l-181 -342h-119l-45 478h103l27 -352l187 352h107l45 -353z" />
    <glyph glyph-name="Ycircumflex" unicode="&#x176;" horiz-adv-x="626" 
d="M424 800l-77 -85h-100l128 148h118l68 -148h-93zM573 667h146l-341 -383l-57 -284h-111l57 283l-189 384h132l127 -274z" />
    <glyph glyph-name="ycircumflex" unicode="&#x177;" horiz-adv-x="502" 
d="M329 639l-77 -85h-100l128 148h118l68 -148h-93zM427 478h116l-304 -512q-50 -84 -95 -116.5t-108 -32.5q-47 0 -82 13l34 97q27 -8 55 -8q32 0 54.5 18t53.5 70l-97 471h107l64 -349z" />
    <glyph glyph-name="Ydieresis" unicode="&#x178;" horiz-adv-x="626" 
d="M319 714q-27 0 -44.5 17.5t-17.5 43.5q0 27 17.5 44.5t44.5 17.5t44 -17.5t17 -44.5q0 -26 -17 -43.5t-44 -17.5zM510 714q-27 0 -44 17t-17 44t17 44.5t44 17.5t44 -17.5t17 -44.5q0 -26 -17 -43.5t-44 -17.5zM210 0l57 283l-189 384h132l127 -274l236 274h146
l-341 -383l-57 -284h-111z" />
    <glyph glyph-name="Zacute" unicode="&#x179;" horiz-adv-x="606" 
d="M579 864l-152 -148h-109l133 148h128zM638 668l-17 -88l-451 -475h370l-21 -105h-529l18 89l452 474h-343l20 105h501z" />
    <glyph glyph-name="zacute" unicode="&#x17a;" horiz-adv-x="465" 
d="M469 702l-152 -148h-109l133 148h128zM76 382l19 96h371l-17 -81l-296 -302h246l-19 -95h-391l17 81l297 301h-227z" />
    <glyph glyph-name="Zdotaccent" unicode="&#x17b;" horiz-adv-x="606" 
d="M408 713q-29 0 -47.5 17.5t-18.5 45.5t18.5 46t47.5 18t47.5 -18t18.5 -46t-18.5 -45.5t-47.5 -17.5zM638 668l-17 -88l-451 -475h370l-21 -105h-529l18 89l452 474h-343l20 105h501z" />
    <glyph glyph-name="zdotaccent" unicode="&#x17c;" horiz-adv-x="465" 
d="M313 572q-29 0 -47.5 17.5t-18.5 45.5t18.5 46t47.5 18t47.5 -18t18.5 -46t-18.5 -45.5t-47.5 -17.5zM466 478l-17 -81l-296 -302h246l-19 -95h-391l17 81l297 301h-227l19 96h371z" />
    <glyph glyph-name="Zcaron" unicode="&#x17d;" horiz-adv-x="606" 
d="M339 716l-68 148h93l43 -85l78 85h100l-128 -148h-118zM638 668l-17 -88l-451 -475h370l-21 -105h-529l18 89l452 474h-343l20 105h501z" />
    <glyph glyph-name="zcaron" unicode="&#x17e;" horiz-adv-x="465" 
d="M237 555l-68 148h93l43 -85l78 85h100l-128 -148h-118zM76 382l19 96h371l-17 -81l-296 -302h246l-19 -95h-391l17 81l297 301h-227z" />
    <glyph glyph-name="uni018F" unicode="&#x18f;" horiz-adv-x="693" 
d="M384 679q138 0 217.5 -78.5t79.5 -217.5q0 -159 -105.5 -277t-260.5 -118q-124 0 -195.5 70.5t-71.5 187.5q0 75 27 153h487q-7 82 -54.5 125t-129.5 43q-109 0 -212 -62l-15 111q107 63 233 63zM318 95q88 0 150 56t85 142h-386q-4 -20 -4 -42q0 -71 41 -113.5
t114 -42.5z" />
    <glyph glyph-name="florin" unicode="&#x192;" horiz-adv-x="536" 
d="M500 573q-70 0 -102 -87l-11 -30h115l-19 -97h-130l-68 -191q-64 -179 -205 -179q-68 0 -103 26l39 95q21 -16 58 -16q70 0 102 87l64 178h-107l19 97h123l15 43q64 179 205 179q67 0 102 -26l-39 -95q-25 16 -58 16z" />
    <glyph glyph-name="uni0218" unicode="&#x218;" horiz-adv-x="563" 
d="M23 38l43 97q70 -43 163 -43q74 0 121 26t47 68q0 31 -30 53.5t-72.5 39.5t-84.5 38.5t-72 61.5t-30 96q0 89 70 146t182 57q123 0 202 -51l-43 -98q-69 46 -160 46q-62 0 -99 -25t-37 -66q0 -33 29.5 -57t72 -41t84.5 -37.5t72 -59t31 -92.5q1 -92 -78.5 -150.5
t-204.5 -58.5q-130 0 -206 50zM112 -175l63 118h121l-84 -118h-100z" />
    <glyph glyph-name="uni0219" unicode="&#x219;" horiz-adv-x="418" 
d="M-9 30l41 87q56 -34 124 -34q45 0 74 15.5t29 40.5q0 20 -21 33.5t-51.5 23.5t-61 24t-51.5 42.5t-21 70.5q0 69 54.5 112t145.5 43q92 0 152 -35l-42 -90q-53 32 -120 32q-41 0 -62 -14t-21 -38q0 -20 21 -34t51.5 -25t61 -25.5t51.5 -42.5t21 -69q0 -71 -61.5 -114
t-152.5 -43q-92 0 -161 40zM29 -175l63 118h121l-84 -118h-100z" />
    <glyph glyph-name="uni021A" unicode="&#x21a;" horiz-adv-x="546" 
d="M609 667l-21 -104h-195l-112 -563h-111l112 563h-195l21 104h501zM99 -175l63 118h121l-84 -118h-100z" />
    <glyph glyph-name="uni021B" unicode="&#x21b;" horiz-adv-x="334" 
d="M210 382l-44 -219q-3 -18 -3 -30q0 -43 50 -43q30 0 60 11l-3 -93q-45 -14 -89 -14q-124 0 -124 113q0 30 7 62l42 213h-65l19 96h65l23 114l108 22l-27 -136h128l-19 -96h-128zM29 -175l63 118h121l-84 -118h-100z" />
    <glyph glyph-name="uni0237" unicode="&#x237;" horiz-adv-x="240" 
d="M-124 -171l26 90q16 -2 25 -2q77 0 96 97l93 464h104l-96 -480q-34 -177 -187 -177q-35 0 -61 8z" />
    <glyph glyph-name="uni0259" unicode="&#x259;" horiz-adv-x="525" 
d="M267 489q104 0 163.5 -58.5t59.5 -162.5q0 -114 -73.5 -196.5t-187.5 -82.5q-92 0 -146 52.5t-54 140.5q0 47 17 107h333q-15 98 -121 98q-73 0 -140 -39l-13 100q73 41 162 41zM230 87q53 0 91 33.5t53 85.5h-233q-2 -18 -2 -23q0 -45 23.5 -70.5t67.5 -25.5z" />
    <glyph glyph-name="circumflex" unicode="&#x2c6;" horiz-adv-x="395" 
d="M417 555h-93l-44 85l-77 -85h-100l128 148h118z" />
    <glyph glyph-name="caron" unicode="&#x2c7;" horiz-adv-x="395" 
d="M347 703h100l-128 -148h-118l-68 148h93l43 -85z" />
    <glyph glyph-name="uni02C9" unicode="&#x2c9;" horiz-adv-x="369" 
d="M127 673h289l-16 -78h-289z" />
    <glyph glyph-name="breve" unicode="&#x2d8;" horiz-adv-x="364" 
d="M334 699h82q-13 -66 -57 -107t-106 -41q-55 0 -89.5 32t-34.5 84q0 15 3 32h74q-2 -12 -2 -19q0 -22 14 -35t39 -13q28 0 49.5 18.5t27.5 48.5z" />
    <glyph glyph-name="dotaccent" unicode="&#x2d9;" horiz-adv-x="215" 
d="M187 572q-29 0 -47.5 17.5t-18.5 45.5t18.5 46t47.5 18t47.5 -18t18.5 -46t-18.5 -45.5t-47.5 -17.5z" />
    <glyph glyph-name="ring" unicode="&#x2da;" horiz-adv-x="292" 
d="M228 540q-43 0 -74 30.5t-31 73.5q0 44 31 74t74 30q44 0 73.5 -30t29.5 -74q0 -43 -30 -73.5t-73 -30.5zM228 589q22 0 38 16t16 39t-15.5 38.5t-38.5 15.5t-39.5 -15.5t-16.5 -38.5t16.5 -39t39.5 -16z" />
    <glyph glyph-name="ogonek" unicode="&#x2db;" horiz-adv-x="242" 
d="M39 -184q-71 0 -71 57q0 67 111 140l54 -13q-80 -59 -80 -93q0 -19 23 -19q24 0 44 11l2 -62q-39 -21 -83 -21z" />
    <glyph glyph-name="tilde" unicode="&#x2dc;" horiz-adv-x="425" 
d="M102 551q13 67 48 108t85 41q23 0 41 -9.5t28 -21t22.5 -21t25.5 -9.5q38 0 50 61h75q-13 -67 -48 -108t-84 -41q-29 0 -50 15.5t-37 30.5t-31 15q-38 0 -50 -61h-75z" />
    <glyph glyph-name="hungarumlaut" unicode="&#x2dd;" horiz-adv-x="471" 
d="M103 555l133 148h119l-152 -148h-100zM271 555l134 148h119l-152 -148h-101z" />
    <glyph glyph-name="gravecomb" unicode="&#x300;" 
d="M23 555h-92l-92 148h110z" />
    <glyph glyph-name="acutecomb" unicode="&#x301;" 
d="M-208 555l133 148h128l-152 -148h-109z" />
    <glyph glyph-name="uni0302" unicode="&#x302;" 
d="M22 555h-93l-44 85l-77 -85h-100l128 148h118z" />
    <glyph glyph-name="tildecomb" unicode="&#x303;" 
d="M-323 551q13 67 48 108t85 41q23 0 41 -9.5t28 -21t22.5 -21t25.5 -9.5q38 0 50 61h75q-13 -67 -48 -108t-84 -41q-29 0 -50 15.5t-37 30.5t-31 15q-38 0 -50 -61h-75z" />
    <glyph glyph-name="uni0304" unicode="&#x304;" 
d="M-242 673h289l-16 -78h-289z" />
    <glyph glyph-name="uni0306" unicode="&#x306;" 
d="M-30 699h82q-13 -66 -57 -107t-106 -41q-55 0 -89.5 32t-34.5 84q0 15 3 32h74q-2 -12 -2 -19q0 -22 14 -35t39 -13q28 0 49.5 18.5t27.5 48.5z" />
    <glyph glyph-name="uni0307" unicode="&#x307;" 
d="M-28 572q-29 0 -47.5 17.5t-18.5 45.5t18.5 46t47.5 18t47.5 -18t18.5 -46t-18.5 -45.5t-47.5 -17.5z" />
    <glyph glyph-name="uni0308" unicode="&#x308;" 
d="M-214 574q-27 0 -44 17t-17 44t17 44.5t44 17.5t44.5 -17.5t17.5 -44.5t-17.5 -44t-44.5 -17zM-23 574q-27 0 -44 17t-17 44t17 44.5t44 17.5t44 -17.5t17 -44.5t-17 -44t-44 -17z" />
    <glyph glyph-name="uni030A" unicode="&#x30a;" 
d="M-64 540q-43 0 -74 30.5t-31 73.5q0 44 31 74t74 30q44 0 73.5 -30t29.5 -74q0 -43 -30 -73.5t-73 -30.5zM-64 589q22 0 38 16t16 39t-15.5 38.5t-38.5 15.5t-39.5 -15.5t-16.5 -38.5t16.5 -39t39.5 -16z" />
    <glyph glyph-name="uni030B" unicode="&#x30b;" 
d="M-368 555l133 148h119l-152 -148h-100zM-200 555l134 148h119l-152 -148h-101z" />
    <glyph glyph-name="uni030C" unicode="&#x30c;" 
d="M-48 703h100l-128 -148h-118l-68 148h93l43 -85z" />
    <glyph glyph-name="uni0312" unicode="&#x312;" 
d="M53 703l-83 -148h-116l105 148h94z" />
    <glyph glyph-name="uni0326" unicode="&#x326;" 
d="M-283 -175l63 118h121l-84 -118h-100z" />
    <glyph glyph-name="uni0327" unicode="&#x327;" 
d="M-183 -40q34 0 53.5 -16.5t19.5 -44.5q0 -40 -30.5 -62t-81.5 -22q-45 0 -73 15l25 54q21 -13 48 -13q39 0 39 26q0 19 -29 19q-12 0 -25 -3l-17 6l36 83l53 -2z" />
    <glyph glyph-name="uni0328" unicode="&#x328;" 
d="M-203 -184q-71 0 -71 57q0 67 111 140l54 -13q-80 -59 -80 -93q0 -19 23 -19q24 0 44 11l2 -62q-39 -21 -83 -21z" />
    <glyph glyph-name="uni0335" unicode="&#x335;" 
d="M-292 297h264l-17 -80h-264z" />
    <glyph glyph-name="uni0336" unicode="&#x336;" 
d="M-292 297h264l-17 -80h-264z" />
    <glyph glyph-name="uni0337" unicode="&#x337;" 
d="M-214 399l274 142l-20 -100l-274 -143z" />
    <glyph glyph-name="uni0338" unicode="&#x338;" 
d="M-49 491l52 -39l-482 -466l-51 39z" />
    <glyph glyph-name="uni0394" unicode="&#x394;" horiz-adv-x="653" 
d="M386 667l263 -667h-652l263 667h126zM154 104h338l-169 438z" />
    <glyph glyph-name="uni03A9" unicode="&#x3a9;" horiz-adv-x="777" 
d="M621 97h133v-97h-297v98q81 16 129 79.5t48 155.5q0 108 -63.5 175t-164.5 67t-164.5 -67t-63.5 -175q0 -92 48.5 -155.5t128.5 -79.5v-98h-297v97h133q-59 42 -91.5 108t-32.5 148q0 145 94 235.5t245 90.5t245 -90.5t94 -235.5q0 -82 -32.5 -148t-91.5 -108z" />
    <glyph glyph-name="uni03BC" unicode="&#x3bc;" horiz-adv-x="566" 
d="M539 91q9 0 23 2v-91q-25 -7 -61 -7q-48 0 -72 17.5t-30 56.5q-45 -79 -141 -79q-49 0 -84 22v-187h-104v653h104v-259q0 -131 108 -131q53 0 83.5 34t30.5 94v262h104v-341q0 -25 9 -35.5t30 -10.5z" />
    <glyph glyph-name="Wgrave" unicode="&#x1e80;" horiz-adv-x="992" 
d="M663 715h-92l-92 148h110zM947 667h119l-336 -667h-137l-45 498l-244 -498h-137l-69 667h109l50 -533l261 533h116l49 -537z" />
    <glyph glyph-name="wgrave" unicode="&#x1e81;" horiz-adv-x="769" 
d="M525 555h-92l-92 148h110zM698 478h108l-237 -478h-119l-45 342l-181 -342h-119l-45 478h103l27 -352l187 352h107l45 -353z" />
    <glyph glyph-name="Wacute" unicode="&#x1e82;" horiz-adv-x="992" 
d="M772 863l-152 -148h-109l133 148h128zM947 667h119l-336 -667h-137l-45 498l-244 -498h-137l-69 667h109l50 -533l261 533h116l49 -537z" />
    <glyph glyph-name="wacute" unicode="&#x1e83;" horiz-adv-x="769" 
d="M620 702l-152 -148h-109l133 148h128zM698 478h108l-237 -478h-119l-45 342l-181 -342h-119l-45 478h103l27 -352l187 352h107l45 -353z" />
    <glyph glyph-name="Wdieresis" unicode="&#x1e84;" horiz-adv-x="992" 
d="M506 714q-27 0 -44.5 17.5t-17.5 43.5q0 27 17.5 44.5t44.5 17.5t44 -17.5t17 -44.5q0 -26 -17 -43.5t-44 -17.5zM697 714q-27 0 -44 17t-17 44t17 44.5t44 17.5t44 -17.5t17 -44.5q0 -26 -17 -43.5t-44 -17.5zM947 667h119l-336 -667h-137l-45 498l-244 -498h-137
l-69 667h109l50 -533l261 533h116l49 -537z" />
    <glyph glyph-name="wdieresis" unicode="&#x1e85;" horiz-adv-x="769" 
d="M352 574q-27 0 -44 17t-17 44t17 44.5t44 17.5t44.5 -17.5t17.5 -44.5t-17.5 -44t-44.5 -17zM543 574q-27 0 -44 17t-17 44t17 44.5t44 17.5t44 -17.5t17 -44.5t-17 -44t-44 -17zM698 478h108l-237 -478h-119l-45 342l-181 -342h-119l-45 478h103l27 -352l187 352h107
l45 -353z" />
    <glyph glyph-name="uni1E9E" unicode="&#x1e9e;" horiz-adv-x="705" 
d="M507 398q75 -17 114.5 -63.5t39.5 -115.5q0 -104 -78 -167t-196 -63q-100 0 -161 35l54 97q40 -27 110 -27q72 0 115 31.5t43 87.5q0 99 -146 99q-27 0 -57 -3l17 81l177 147q-46 37 -123 37q-87 0 -139 -46.5t-73 -150.5l-75 -377h-111l79 395q57 284 324 284
q185 0 264 -133z" />
    <glyph glyph-name="Ygrave" unicode="&#x1ef2;" horiz-adv-x="626" 
d="M476 715h-92l-92 148h110zM210 0l57 283l-189 384h132l127 -274l236 274h146l-341 -383l-57 -284h-111z" />
    <glyph glyph-name="ygrave" unicode="&#x1ef3;" horiz-adv-x="502" 
d="M387 555h-92l-92 148h110zM427 478h116l-304 -512q-50 -84 -95 -116.5t-108 -32.5q-47 0 -82 13l34 97q27 -8 55 -8q32 0 54.5 18t53.5 70l-97 471h107l64 -349z" />
    <glyph glyph-name="uni2011" unicode="&#x2011;" horiz-adv-x="311" 
d="M49 312h242l-21 -104h-242z" />
    <glyph glyph-name="endash" unicode="&#x2013;" horiz-adv-x="500" 
d="M32 297h460l-15 -74h-460z" />
    <glyph glyph-name="emdash" unicode="&#x2014;" horiz-adv-x="1000" 
d="M32 297h960l-15 -74h-960z" />
    <glyph glyph-name="quoteleft" unicode="&#x2018;" horiz-adv-x="248" 
d="M219 678l89 -23l-135 -250l-111 28z" />
    <glyph glyph-name="quoteright" unicode="&#x2019;" horiz-adv-x="249" 
d="M150 404l-89 22l136 251l110 -29z" />
    <glyph glyph-name="quotesinglbase" unicode="&#x201a;" horiz-adv-x="249" 
d="M42 -133l-89 22l136 251l110 -29z" />
    <glyph glyph-name="quotedblleft" unicode="&#x201c;" horiz-adv-x="433" 
d="M219 678l89 -23l-135 -250l-111 28zM404 678l89 -23l-135 -250l-111 28z" />
    <glyph glyph-name="quotedblright" unicode="&#x201d;" horiz-adv-x="434" 
d="M150 404l-89 22l136 251l110 -29zM335 404l-89 22l136 251l110 -29z" />
    <glyph glyph-name="quotedblbase" unicode="&#x201e;" horiz-adv-x="434" 
d="M42 -133l-89 22l136 251l110 -29zM227 -133l-89 22l136 251l110 -29z" />
    <glyph glyph-name="dagger" unicode="&#x2020;" horiz-adv-x="479" 
d="M502 469l-21 -105h-161l-99 -424h-82l70 424h-161l21 105h160l40 198h112l-40 -198h161z" />
    <glyph glyph-name="daggerdbl" unicode="&#x2021;" horiz-adv-x="479" 
d="M331 419l-42 -173l-28 -173h162l-21 -105h-161l-28 -143h-112l29 143h-162l21 105h163l41 173l28 173h-163l22 105h161l28 143h112l-28 -143h160l-21 -105h-161z" />
    <glyph glyph-name="bullet" unicode="&#x2022;" horiz-adv-x="418" 
d="M223 209q-52 0 -87.5 35.5t-35.5 88.5t35.5 88.5t87.5 35.5q53 0 88.5 -35.5t35.5 -88.5t-35.5 -88.5t-88.5 -35.5z" />
    <glyph glyph-name="ellipsis" unicode="&#x2026;" horiz-adv-x="705" 
d="M78 -10q-32 0 -52.5 21t-20.5 52t20.5 51.5t52.5 20.5t52.5 -20.5t20.5 -51.5t-20.5 -52t-52.5 -21zM314 -10q-32 0 -52.5 21t-20.5 52t20.5 51.5t52.5 20.5t52.5 -20.5t20.5 -51.5t-20.5 -52t-52.5 -21zM551 -10q-31 0 -52 21t-21 52t20.5 51.5t52.5 20.5t52.5 -20.5
t20.5 -51.5t-21 -52t-52 -21z" />
    <glyph glyph-name="perthousand" unicode="&#x2030;" horiz-adv-x="1039" 
d="M222 365q-62 0 -100 38t-38 100q0 75 45.5 124.5t122.5 49.5q62 0 99.5 -38t37.5 -101q0 -74 -45.5 -123.5t-121.5 -49.5zM654 667h119l-653 -667h-120zM228 445q35 0 53.5 26.5t18.5 62.5q0 29 -14 45.5t-40 16.5q-35 0 -53.5 -26.5t-18.5 -62.5q0 -28 14.5 -45
t39.5 -17zM500 -9q-61 0 -99 38.5t-38 100.5q0 75 45 124.5t122 49.5q62 0 99.5 -38t37.5 -101q0 -75 -45.5 -124.5t-121.5 -49.5zM826 -9q-62 0 -100 38.5t-38 100.5q0 75 45.5 124.5t121.5 49.5q62 0 100 -38t38 -101q0 -75 -45.5 -124.5t-121.5 -49.5zM506 72
q35 0 54 26.5t19 61.5q0 29 -14.5 46t-40.5 17q-35 0 -53.5 -26.5t-18.5 -63.5q0 -28 14.5 -44.5t39.5 -16.5zM832 72q34 0 53 26.5t19 61.5q0 29 -14.5 46t-40.5 17q-34 0 -52.5 -26.5t-18.5 -63.5q0 -28 14.5 -44.5t39.5 -16.5z" />
    <glyph glyph-name="guilsinglleft" unicode="&#x2039;" horiz-adv-x="336" 
d="M341 438l-193 -182l121 -176h-123l-128 179l191 179h132z" />
    <glyph glyph-name="guilsinglright" unicode="&#x203a;" horiz-adv-x="336" 
d="M2 78l193 182l-121 176h123l128 -179l-191 -179h-132z" />
    <glyph glyph-name="fraction" unicode="&#x2044;" horiz-adv-x="225" 
d="M-136 0h-104l639 667h104z" />
    <glyph glyph-name="uni2070" unicode="&#x2070;" horiz-adv-x="351" 
d="M215 394q-57 0 -92 40t-35 107q0 70 22 133t68 106t106 43q57 0 91.5 -40t34.5 -107q0 -111 -53 -196.5t-142 -85.5zM223 471q47 0 76 64.5t29 131.5q0 37 -14 58t-39 21q-47 0 -75.5 -64.5t-28.5 -131.5q0 -38 13.5 -58.5t38.5 -20.5z" />
    <glyph glyph-name="uni2074" unicode="&#x2074;" horiz-adv-x="346" 
d="M399 817l-51 -255h51l-14 -73h-52l-17 -86h-79l18 86h-193l15 73l202 255h120zM165 562h104l36 179z" />
    <glyph glyph-name="uni2075" unicode="&#x2075;" horiz-adv-x="353" 
d="M388 739h-149l-27 -76q27 8 53 8q55 0 85.5 -31t30.5 -83q0 -71 -48.5 -116.5t-128.5 -45.5q-85 0 -137 41l46 75q35 -38 93 -38q41 0 66.5 19.5t25.5 53.5q0 54 -68 54q-33 0 -71 -15l-48 16l72 216h221z" />
    <glyph glyph-name="uni2076" unicode="&#x2076;" horiz-adv-x="352" 
d="M269 684q57 0 91 -32.5t34 -83.5q0 -74 -50 -123t-126 -49q-60 0 -98.5 33.5t-38.5 86.5q0 29 13 62t26.5 55.5t49.5 63t52 57t63 63.5h103q-49 -45 -139 -135q12 2 20 2zM225 473q38 0 62 23t24 58q0 25 -17 41t-45 16q-36 0 -61 -23.5t-25 -58.5q0 -24 17.5 -40
t44.5 -16z" />
    <glyph glyph-name="uni2077" unicode="&#x2077;" horiz-adv-x="353" 
d="M452 817l-277 -414h-94l225 336h-184l16 78h314z" />
    <glyph glyph-name="uni2078" unicode="&#x2078;" horiz-adv-x="350" 
d="M335 618q48 -28 48 -84q0 -62 -43 -100t-115 -38q-63 0 -103 30t-40 76q0 89 86 121q-37 28 -37 71q0 58 40.5 93.5t108.5 35.5q56 0 90 -27t34 -69q0 -75 -69 -109zM272 746q-28 0 -44 -14.5t-16 -37.5q0 -17 12.5 -29t34.5 -12q28 0 45 15t17 37q0 41 -49 41zM228 473
q35 0 54.5 16t19.5 44q0 22 -17 35.5t-46 13.5q-35 0 -54.5 -17t-19.5 -47q0 -21 16.5 -33t46.5 -12z" />
    <glyph glyph-name="uni2079" unicode="&#x2079;" horiz-adv-x="353" 
d="M284 824q60 0 98.5 -33.5t38.5 -86.5q0 -35 -14 -69.5t-46.5 -75t-56.5 -66.5t-74 -76l-14 -14h-102q23 21 139 135q-14 -2 -21 -2q-57 0 -91 32.5t-34 83.5q0 74 50 123t127 49zM252 609q36 0 61 23.5t25 58.5q0 24 -17.5 40t-44.5 16q-37 0 -61 -23t-24 -58
q0 -25 16.5 -41t44.5 -16z" />
    <glyph glyph-name="uni207A" unicode="&#x207a;" horiz-adv-x="352" 
d="M381 596v-64h-112v-107h-65v107h-112v64h112v108h65v-108h112z" />
    <glyph glyph-name="uni207B" unicode="&#x207b;" horiz-adv-x="352" 
d="M98 596h289v-64h-289v64z" />
    <glyph glyph-name="uni207C" unicode="&#x207c;" horiz-adv-x="368" 
d="M101 665h289v-64h-289v64zM101 528h289v-65h-289v65z" />
    <glyph glyph-name="uni207D" unicode="&#x207d;" horiz-adv-x="227" 
d="M232 324l-63 -37q-79 88 -79 225q0 92 51 180t140 154l53 -41q-78 -55 -124.5 -132t-46.5 -160q0 -115 69 -189z" />
    <glyph glyph-name="uni207E" unicode="&#x207e;" horiz-adv-x="228" 
d="M126 809l63 37q79 -88 79 -225q0 -92 -50.5 -180t-139.5 -154l-54 41q78 55 124.5 132t46.5 160q0 114 -69 189z" />
    <glyph glyph-name="uni2080" unicode="&#x2080;" horiz-adv-x="351" 
d="M100 -183q-57 0 -92 40t-35 107q0 70 22 133t68 106t106 43q57 0 91.5 -40t34.5 -107q0 -111 -53 -196.5t-142 -85.5zM108 -106q47 0 76 64.5t29 131.5q0 37 -14 58t-39 21q-47 0 -75.5 -64.5t-28.5 -131.5q0 -38 13.5 -58.5t38.5 -20.5z" />
    <glyph glyph-name="uni2081" unicode="&#x2081;" horiz-adv-x="357" 
d="M172 -99h82l-16 -76h-252l16 76h89l47 232l-96 -34l-1 79l193 68h7z" />
    <glyph glyph-name="uni2082" unicode="&#x2082;" horiz-adv-x="351" 
d="M272 143q0 -49 -26 -88.5t-58 -60.5t-71.5 -47t-55.5 -46h184l-15 -76h-295q15 52 47 93t66.5 65.5t66.5 45.5t53 43.5t21 49.5q0 47 -54 47q-57 0 -108 -37l-10 73q58 41 134 41q61 0 91 -28t30 -75z" />
    <glyph glyph-name="uni2083" unicode="&#x2083;" horiz-adv-x="352" 
d="M186 38q55 -24 55 -84q0 -61 -49.5 -99t-125.5 -38t-125 29l31 77q32 -29 93 -29q41 0 67.5 16t26.5 43q0 47 -77 47h-31l14 72h31q39 0 61 16t22 43q0 38 -51 38t-100 -30l-1 73q56 34 121 34q54 0 84.5 -26t30.5 -70q0 -76 -77 -112z" />
    <glyph glyph-name="uni2084" unicode="&#x2084;" horiz-adv-x="346" 
d="M283 239l-51 -255h51l-14 -73h-52l-17 -86h-79l18 86h-193l15 73l202 255h120zM49 -16h104l36 179z" />
    <glyph glyph-name="uni2085" unicode="&#x2085;" horiz-adv-x="353" 
d="M272 161h-149l-27 -76q27 8 53 8q55 0 85.5 -31t30.5 -83q0 -71 -48.5 -116.5t-128.5 -45.5q-85 0 -137 41l46 75q35 -38 93 -38q41 0 66.5 19.5t25.5 53.5q0 54 -68 54q-33 0 -71 -15l-48 16l72 216h221z" />
    <glyph glyph-name="uni2086" unicode="&#x2086;" horiz-adv-x="352" 
d="M153 106q57 0 91 -32.5t34 -83.5q0 -74 -50 -123t-126 -49q-60 0 -98.5 33.5t-38.5 86.5q0 29 13 62t26.5 55.5t49.5 63t52 57t63 63.5h103q-49 -45 -139 -135q12 2 20 2zM109 -105q38 0 62 23t24 58q0 25 -17 41t-45 16q-36 0 -61 -23.5t-25 -58.5q0 -24 17.5 -40
t44.5 -16z" />
    <glyph glyph-name="uni2087" unicode="&#x2087;" horiz-adv-x="353" 
d="M336 239l-277 -414h-94l225 336h-184l16 78h314z" />
    <glyph glyph-name="uni2088" unicode="&#x2088;" horiz-adv-x="350" 
d="M219 40q48 -28 48 -84q0 -62 -43 -100t-115 -38q-63 0 -103 30t-40 76q0 89 86 121q-37 28 -37 71q0 58 40.5 93.5t108.5 35.5q56 0 90 -27t34 -69q0 -75 -69 -109zM156 168q-28 0 -44 -14.5t-16 -37.5q0 -17 12.5 -29t34.5 -12q28 0 45 15t17 37q0 41 -49 41zM112 -105
q35 0 54.5 16t19.5 44q0 22 -17 35.5t-46 13.5q-35 0 -54.5 -17t-19.5 -47q0 -21 16.5 -33t46.5 -12z" />
    <glyph glyph-name="uni2089" unicode="&#x2089;" horiz-adv-x="353" 
d="M168 246q60 0 98.5 -33.5t38.5 -86.5q0 -35 -14 -69.5t-46.5 -75t-56.5 -66.5t-74 -76l-14 -14h-102q23 21 139 135q-14 -2 -21 -2q-57 0 -91 32.5t-34 83.5q0 74 50 123t127 49zM136 31q36 0 61 23.5t25 58.5q0 24 -17.5 40t-44.5 16q-37 0 -61 -23t-24 -58
q0 -25 16.5 -41t44.5 -16z" />
    <glyph glyph-name="uni208A" unicode="&#x208a;" horiz-adv-x="352" 
d="M272 18v-64h-112v-107h-65v107h-112v64h112v108h65v-108h112z" />
    <glyph glyph-name="uni208B" unicode="&#x208b;" horiz-adv-x="352" 
d="M-17 18h289v-64h-289v64z" />
    <glyph glyph-name="uni208C" unicode="&#x208c;" horiz-adv-x="352" 
d="M-14 87h289v-64h-289v64zM-14 -50h289v-65h-289v65z" />
    <glyph glyph-name="uni208D" unicode="&#x208d;" horiz-adv-x="227" 
d="M115 -254l-63 -37q-79 88 -79 225q0 92 51 180t140 154l53 -41q-78 -55 -124.5 -132t-46.5 -160q0 -115 69 -189z" />
    <glyph glyph-name="uni208E" unicode="&#x208e;" horiz-adv-x="227" 
d="M10 231l63 37q79 -88 79 -225q0 -92 -50.5 -180t-139.5 -154l-54 41q78 55 124.5 132t46.5 160q0 114 -69 189z" />
    <glyph glyph-name="Euro" unicode="&#x20ac;" horiz-adv-x="536" 
d="M414 575q-68 0 -119.5 -38.5t-81.5 -102.5h290l-32 -70h-282q-7 -33 -8 -60h261l-34 -70h-225q11 -67 50 -104.5t102 -37.5q70 0 136 43l8 -106q-70 -41 -156 -41q-107 0 -175.5 67.5t-79.5 178.5h-52l15 70h36q1 27 8 60h-33l14 70h38q40 110 125.5 177.5t198.5 67.5
q111 0 174 -58l-45 -96q-53 50 -133 50z" />
    <glyph glyph-name="uni20B9" unicode="&#x20b9;" horiz-adv-x="536" 
d="M568 586h-130q23 -26 30 -59h89l-16 -81h-70q-12 -68 -66.5 -118.5t-133.5 -68.5l130 -259h-135l-172 349h114q62 0 100.5 27t50.5 70h-280l16 81h262q-20 59 -97 59h-154l16 81h462z" />
    <glyph glyph-name="uni20BA" unicode="&#x20ba;" horiz-adv-x="536" 
d="M417 327h111q-34 -172 -126 -249.5t-264 -77.5h-112l47 234l-67 -30l17 87l67 30l13 63l-67 -30l17 87l67 30l39 196h111l-28 -141l151 68l-17 -87l-151 -68l-13 -63l151 68l-17 -87l-151 -68l-37 -185q117 0 175.5 50.5t83.5 172.5z" />
    <glyph glyph-name="uni2113" unicode="&#x2113;" horiz-adv-x="425" 
d="M287 96q49 0 86 23l26 -99q-57 -30 -130 -30q-89 0 -137 47.5t-51 140.5q-24 -14 -51 -27v117q11 6 51 28v199q0 113 38.5 165t123.5 52q82 0 123 -44.5t41 -119.5q0 -80 -49 -153.5t-166 -150.5v-35q0 -62 22.5 -87.5t72.5 -25.5zM192 522v-152q104 85 104 178
q0 67 -53 67q-26 0 -38.5 -20.5t-12.5 -72.5z" />
    <glyph glyph-name="published" unicode="&#x2117;" horiz-adv-x="771" 
d="M412 679q142 0 243.5 -101.5t101.5 -243.5q0 -143 -101 -244.5t-244 -101.5t-244.5 101.5t-101.5 244.5t101.5 244t244.5 101zM412 54q116 0 198 82t82 198q0 115 -82 197t-198 82t-198 -81.5t-82 -197.5t82 -198t198 -82zM446 525q62 0 100 -34t38 -90t-38 -90.5
t-100 -34.5h-76v-134h-78v383h154zM446 351q28 0 44 13.5t16 36.5t-16 37t-44 14h-76v-101h76z" />
    <glyph glyph-name="trademark" unicode="&#x2122;" horiz-adv-x="680" 
d="M307 667v-66h-85v-235h-70v235h-86v66h241zM699 366h-71v208l-94 -161h-26l-96 163l1 -210h-70l-1 301h91l84 -143l84 143h97z" />
    <glyph glyph-name="uni2126" unicode="&#x2126;" horiz-adv-x="777" 
d="M621 97h133v-97h-297v98q81 16 129 79.5t48 155.5q0 108 -63.5 175t-164.5 67t-164.5 -67t-63.5 -175q0 -92 48.5 -155.5t128.5 -79.5v-98h-297v97h133q-59 42 -91.5 108t-32.5 148q0 145 94 235.5t245 90.5t245 -90.5t94 -235.5q0 -82 -32.5 -148t-91.5 -108z" />
    <glyph glyph-name="estimated" unicode="&#x212e;" horiz-adv-x="812" 
d="M423 -10q-173 0 -272 95q-104 99 -104 248q0 150 105 248q103 96 271 96q154 0 260 -85q106 -86 116 -269h-598q-8 0 -11.5 -2.5t-3.5 -14.5v-168q0 -33 70.5 -77t166.5 -44q69 0 132 30.5t106 78.5h70q-72 -80 -141 -107q-73 -29 -167 -29zM201 345h441q11 0 14 3.5
t3 12.5v165q0 41 -79 84t-159 43q-61 0 -118.5 -24.5t-87 -52t-29.5 -43.5v-180q0 -8 15 -8z" />
    <glyph glyph-name="arrowleft" unicode="&#x2190;" horiz-adv-x="758" 
d="M735 385v-104h-487l174 -169l-72 -71l-293 293l293 293l72 -72l-176 -170h489z" />
    <glyph glyph-name="arrowup" unicode="&#x2191;" horiz-adv-x="666" 
d="M643 385l-71 -71l-170 175v-489h-104v489l-169 -175l-72 71l293 293z" />
    <glyph glyph-name="arrowright" unicode="&#x2192;" horiz-adv-x="758" 
d="M442 626l293 -293l-293 -293l-71 72l176 170h-490v104h488l-174 169z" />
    <glyph glyph-name="arrowdown" unicode="&#x2193;" horiz-adv-x="666" 
d="M572 354l71 -72l-293 -293l-293 293l72 72l170 -177v490h104v-488z" />
    <glyph glyph-name="uni2196" unicode="&#x2196;" horiz-adv-x="596" 
d="M573 143l-73 -73l-346 346l4 -244h-101v414h414v-101l-244 4z" />
    <glyph glyph-name="uni2197" unicode="&#x2197;" horiz-adv-x="597" 
d="M160 584h414v-414h-101l4 245l-346 -347l-74 74l346 345l-243 -4v101z" />
    <glyph glyph-name="uni2198" unicode="&#x2198;" horiz-adv-x="596" 
d="M472 508h101v-415h-414v101l245 -3l-347 345l74 74l345 -346z" />
    <glyph glyph-name="uni2199" unicode="&#x2199;" horiz-adv-x="596" 
d="M574 536l-346 -345l243 4v-101h-414v414h101l-4 -245l346 347z" />
    <glyph glyph-name="partialdiff" unicode="&#x2202;" horiz-adv-x="558" 
d="M267 678q124 0 198 -90t74 -260q0 -168 -71.5 -253.5t-192.5 -85.5q-107 0 -174.5 65t-67.5 168q0 100 63.5 162t164.5 62q113 0 175 -82q-7 108 -55 161.5t-129 53.5q-65 0 -118 -32l-18 93q69 38 151 38zM275 88q61 0 99 37t38 97t-38 97t-99 37q-62 0 -100 -37
t-38 -97t38 -97t100 -37z" />
    <glyph glyph-name="uni2206" unicode="&#x2206;" horiz-adv-x="653" 
d="M386 667l263 -667h-652l263 667h126zM154 104h338l-169 438z" />
    <glyph glyph-name="product" unicode="&#x220f;" horiz-adv-x="698" 
d="M98 -175v842h537v-842h-112v738h-314v-738h-111z" />
    <glyph glyph-name="summation" unicode="&#x2211;" horiz-adv-x="569" 
d="M548 667v-104h-349l228 -317l-228 -317h349v-104h-493v87l239 334l-239 334v87h493z" />
    <glyph glyph-name="minus" unicode="&#x2212;" horiz-adv-x="540" 
d="M62 306h450v-91h-450v91z" />
    <glyph glyph-name="uni2215" unicode="&#x2215;" horiz-adv-x="536" 
d="M92 0h-111l502 667h110z" />
    <glyph glyph-name="uni2219" unicode="&#x2219;" horiz-adv-x="536" 
d="M280 187q-32 0 -52.5 20.5t-20.5 52.5q0 31 20.5 51.5t52.5 20.5t52.5 -20.5t20.5 -51.5q0 -32 -20.5 -52.5t-52.5 -20.5z" />
    <glyph glyph-name="radical" unicode="&#x221a;" horiz-adv-x="692" 
d="M595 702h104l-323 -877h-142l-111 377h-96v94h172l110 -371z" />
    <glyph glyph-name="infinity" unicode="&#x221e;" horiz-adv-x="817" 
d="M615 445q82 0 133 -51.5t51 -133.5q0 -83 -51 -134.5t-133 -51.5q-61 0 -105 31t-84 85q-41 -55 -85 -85.5t-105 -30.5q-82 0 -132.5 51.5t-50.5 134.5t50.5 134t132.5 51q61 0 105 -30.5t85 -85.5q40 54 84 85t105 31zM236 166q40 0 69.5 23.5t64.5 70.5
q-35 46 -64.5 69.5t-69.5 23.5q-39 0 -62 -25t-23 -68t23 -68.5t62 -25.5zM615 166q39 0 62 25.5t23 68.5t-23 68t-62 25q-40 0 -69.5 -23.5t-64.5 -69.5q35 -47 64.5 -70.5t69.5 -23.5z" />
    <glyph glyph-name="integral" unicode="&#x222b;" horiz-adv-x="510" 
d="M12 -159l20 95q27 -16 61 -16q72 0 85 87l77 492q13 89 58 134t114 45q65 0 105 -26l-20 -95q-26 16 -61 16q-71 0 -85 -87l-76 -491q-28 -179 -173 -179q-64 0 -105 25z" />
    <glyph glyph-name="approxequal" unicode="&#x2248;" horiz-adv-x="540" 
d="M73 291q0 76 34.5 122t98.5 46q30 0 55 -12t39 -27t32.5 -27t36.5 -12q23 0 35.5 21.5t12.5 56.5h85q0 -75 -35 -121.5t-98 -46.5q-38 0 -67 19.5t-51.5 38.5t-44.5 19q-23 0 -35.5 -21t-12.5 -56h-85zM73 61q0 76 34.5 122t98.5 46q38 0 67 -19.5t51.5 -38.5t44.5 -19
q23 0 35.5 21t12.5 56h85q0 -75 -35 -121.5t-98 -46.5q-30 0 -55 12t-39 27t-32.5 27t-36.5 12q-23 0 -35.5 -21.5t-12.5 -56.5h-85z" />
    <glyph glyph-name="notequal" unicode="&#x2260;" horiz-adv-x="540" 
d="M512 324h-135l-76 -128h211v-91h-257l-64 -109h-90l64 109h-103v91h150l75 128h-225v91h272l65 109h89l-64 -109h88v-91z" />
    <glyph glyph-name="lessequal" unicode="&#x2264;" horiz-adv-x="540" 
d="M603 530v-97l-367 -109l367 -109v-96l-450 136v138zM153 -10v91h450v-91h-450z" />
    <glyph glyph-name="greaterequal" unicode="&#x2265;" horiz-adv-x="540" 
d="M62 530l450 -137v-138l-450 -136v96l367 109l-367 109v97zM62 -10v91h450v-91h-450z" />
    <glyph glyph-name="lozenge" unicode="&#x25ca;" horiz-adv-x="622" 
d="M384 667l215 -421l-215 -421h-141l-215 421l215 421h141zM313 -91l168 337l-168 337l-167 -337z" />
    <glyph glyph-name="uni2610" unicode="&#x2610;" horiz-adv-x="707" 
d="M37 0v667h667v-667h-667zM117 80h508v508h-508v-508z" />
    <glyph glyph-name="uni2611" unicode="&#x2611;" horiz-adv-x="707" 
d="M37 667h667v-667h-667v667zM625 80v508h-508v-508h508zM283 112q-55 144 -140 183l46 69q83 -30 132 -142q89 278 225 342l54 -77q-67 -31 -129 -132t-100 -243h-88z" />
    <glyph glyph-name="uni2612" unicode="&#x2612;" horiz-adv-x="707" 
d="M37 667h667v-667h-667v667zM625 80v508h-508v-508h508zM211 104l-67 49q63 102 142 191q-65 78 -117 156l72 56q46 -71 106 -145q93 95 188 155l60 -82q-99 -57 -189 -142q74 -83 154 -160l-65 -66q-67 64 -152 161q-72 -81 -132 -173z" />
    <glyph glyph-name="uni2713" unicode="&#x2713;" horiz-adv-x="707" 
d="M621 675l60 -104q-98 -43 -195 -201t-154 -371h-97q-86 205 -199 248l52 95q112 -36 187 -199q66 209 155.5 347.5t190.5 184.5z" />
    <glyph glyph-name="uni2717" unicode="&#x2717;" horiz-adv-x="707" 
d="M697 573q-141 -79 -292 -229q102 -125 224 -250l-78 -79q-112 115 -222 249q-117 -130 -203 -269l-81 55q94 155 217 299q-103 132 -174 248l88 65q67 -110 160 -231q148 154 290 244z" />
    <glyph glyph-name="uniFEFF" unicode="&#xfeff;" 
 />
    <glyph glyph-name="a.ss01" horiz-adv-x="494" 
d="M260 488q91 0 139 -41t48 -119q0 -31 -7 -65l-52 -263h-97l9 49q-58 -60 -153 -60q-68 0 -104.5 36t-36.5 102q0 71 56.5 117.5t144.5 46.5q74 0 130 -27l2 11q5 28 5 39q0 37 -26.5 57.5t-73.5 20.5q-74 0 -143 -36l-2 97q75 35 161 35zM188 70q51 0 85 25t44 72l5 26
q-42 17 -98 17q-54 0 -84 -21t-30 -57q0 -62 78 -62z" />
    <glyph glyph-name="aacute.ss01" horiz-adv-x="494" 
d="M468 702l-152 -148h-109l133 148h128zM260 488q91 0 139 -41t48 -119q0 -31 -7 -65l-52 -263h-97l9 49q-58 -60 -153 -60q-68 0 -104.5 36t-36.5 102q0 71 56.5 117.5t144.5 46.5q74 0 130 -27l2 11q5 28 5 39q0 37 -26.5 57.5t-73.5 20.5q-74 0 -143 -36l-2 97
q75 35 161 35zM188 70q51 0 85 25t44 72l5 26q-42 17 -98 17q-54 0 -84 -21t-30 -57q0 -62 78 -62z" />
    <glyph glyph-name="abreve.ss01" horiz-adv-x="494" 
d="M303 550q-55 0 -89.5 32t-34.5 84q0 16 3 32h74q-2 -12 -2 -19q0 -22 14 -35t39 -13q28 0 49.5 18.5t27.5 48.5h82q-13 -66 -57 -107t-106 -41zM260 488q91 0 139 -41t48 -119q0 -31 -7 -65l-52 -263h-97l9 49q-58 -60 -153 -60q-68 0 -104.5 36t-36.5 102
q0 71 56.5 117.5t144.5 46.5q74 0 130 -27l2 11q5 28 5 39q0 37 -26.5 57.5t-73.5 20.5q-74 0 -143 -36l-2 97q75 35 161 35zM188 70q51 0 85 25t44 72l5 26q-42 17 -98 17q-54 0 -84 -21t-30 -57q0 -62 78 -62z" />
    <glyph glyph-name="acircumflex.ss01" horiz-adv-x="494" 
d="M315 639l-77 -85h-100l128 148h118l68 -148h-93zM260 488q91 0 139 -41t48 -119q0 -31 -7 -65l-52 -263h-97l9 49q-58 -60 -153 -60q-68 0 -104.5 36t-36.5 102q0 71 56.5 117.5t144.5 46.5q74 0 130 -27l2 11q5 28 5 39q0 37 -26.5 57.5t-73.5 20.5q-74 0 -143 -36
l-2 97q75 35 161 35zM188 70q51 0 85 25t44 72l5 26q-42 17 -98 17q-54 0 -84 -21t-30 -57q0 -62 78 -62z" />
    <glyph glyph-name="adieresis.ss01" horiz-adv-x="494" 
d="M200 574q-27 0 -44 17t-17 44t17 44.5t44 17.5t44.5 -17.5t17.5 -44.5t-17.5 -44t-44.5 -17zM391 574q-27 0 -44 17t-17 44t17 44.5t44 17.5t44 -17.5t17 -44.5t-17 -44t-44 -17zM260 488q91 0 139 -41t48 -119q0 -31 -7 -65l-52 -263h-97l9 49q-58 -60 -153 -60
q-68 0 -104.5 36t-36.5 102q0 71 56.5 117.5t144.5 46.5q74 0 130 -27l2 11q5 28 5 39q0 37 -26.5 57.5t-73.5 20.5q-74 0 -143 -36l-2 97q75 35 161 35zM188 70q51 0 85 25t44 72l5 26q-42 17 -98 17q-54 0 -84 -21t-30 -57q0 -62 78 -62z" />
    <glyph glyph-name="agrave.ss01" horiz-adv-x="494" 
d="M373 555h-92l-92 148h110zM260 488q91 0 139 -41t48 -119q0 -31 -7 -65l-52 -263h-97l9 49q-58 -60 -153 -60q-68 0 -104.5 36t-36.5 102q0 71 56.5 117.5t144.5 46.5q74 0 130 -27l2 11q5 28 5 39q0 37 -26.5 57.5t-73.5 20.5q-74 0 -143 -36l-2 97q75 35 161 35z
M188 70q51 0 85 25t44 72l5 26q-42 17 -98 17q-54 0 -84 -21t-30 -57q0 -62 78 -62z" />
    <glyph glyph-name="amacron.ss01" horiz-adv-x="494" 
d="M175 673h289l-16 -78h-289zM260 488q91 0 139 -41t48 -119q0 -31 -7 -65l-52 -263h-97l9 49q-58 -60 -153 -60q-68 0 -104.5 36t-36.5 102q0 71 56.5 117.5t144.5 46.5q74 0 130 -27l2 11q5 28 5 39q0 37 -26.5 57.5t-73.5 20.5q-74 0 -143 -36l-2 97q75 35 161 35z
M188 70q51 0 85 25t44 72l5 26q-42 17 -98 17q-54 0 -84 -21t-30 -57q0 -62 78 -62z" />
    <glyph glyph-name="aogonek.ss01" horiz-adv-x="494" 
d="M260 488q91 0 139 -41t48 -119q0 -31 -7 -65l-52 -263q-80 -59 -80 -93q0 -19 23 -19q24 0 44 11l2 -62q-39 -21 -83 -21q-71 0 -71 57q0 60 92 127h-24l9 49q-58 -60 -153 -60q-68 0 -104.5 36t-36.5 102q0 71 56.5 117.5t144.5 46.5q74 0 130 -27l2 11q5 28 5 39
q0 37 -26.5 57.5t-73.5 20.5q-74 0 -143 -36l-2 97q75 35 161 35zM188 70q51 0 85 25t44 72l5 26q-42 17 -98 17q-54 0 -84 -21t-30 -57q0 -62 78 -62z" />
    <glyph glyph-name="aring.ss01" horiz-adv-x="494" 
d="M298 540q-43 0 -74 30.5t-31 73.5q0 44 31 74t74 30q44 0 73.5 -30t29.5 -74q0 -43 -30 -73.5t-73 -30.5zM298 698q-23 0 -39.5 -15.5t-16.5 -38.5t16.5 -39t39.5 -16q22 0 38 16t16 39t-15.5 38.5t-38.5 15.5zM260 488q91 0 139 -41t48 -119q0 -31 -7 -65l-52 -263h-97
l9 49q-58 -60 -153 -60q-68 0 -104.5 36t-36.5 102q0 71 56.5 117.5t144.5 46.5q74 0 130 -27l2 11q5 28 5 39q0 37 -26.5 57.5t-73.5 20.5q-74 0 -143 -36l-2 97q75 35 161 35zM188 70q51 0 85 25t44 72l5 26q-42 17 -98 17q-54 0 -84 -21t-30 -57q0 -62 78 -62z" />
    <glyph glyph-name="atilde.ss01" horiz-adv-x="494" 
d="M246 611q-38 0 -50 -61h-75q13 67 48 108t85 41q29 0 50 -15.5t36.5 -30.5t30.5 -15q38 0 50 61h75q-13 -67 -48 -108t-84 -41q-23 0 -41.5 9.5t-28.5 21t-22.5 21t-25.5 9.5zM260 488q91 0 139 -41t48 -119q0 -31 -7 -65l-52 -263h-97l9 49q-58 -60 -153 -60
q-68 0 -104.5 36t-36.5 102q0 71 56.5 117.5t144.5 46.5q74 0 130 -27l2 11q5 28 5 39q0 37 -26.5 57.5t-73.5 20.5q-74 0 -143 -36l-2 97q75 35 161 35zM188 70q51 0 85 25t44 72l5 26q-42 17 -98 17q-54 0 -84 -21t-30 -57q0 -62 78 -62z" />
    <glyph glyph-name="f_i" horiz-adv-x="562" 
d="M350 478l-19 -96h-121l-76 -382h-104l76 382h-65l19 96h65l16 79q32 153 174 153q52 0 91 -17l-35 -89q-27 11 -56 11q-31 0 -48.5 -17.5t-25.5 -60.5l-12 -59h121zM521 699q29 0 47.5 -18t18.5 -46t-18.5 -45.5t-47.5 -17.5t-47.5 17.5t-18.5 45.5t18.5 46t47.5 18z
M343 0l95 478h104l-95 -478h-104z" />
    <glyph glyph-name="f_l" horiz-adv-x="596" 
d="M241 537l-12 -59h121l-19 -96h-121l-76 -382h-104l76 382h-65l19 96h65l16 79q32 153 174 153q52 0 91 -17l-35 -89q-27 11 -56 11q-31 0 -48.5 -17.5t-25.5 -60.5zM473 122q0 -32 37 -32q20 0 37 6l-8 -95q-23 -6 -54 -6q-60 0 -89.5 23.5t-29.5 77.5q0 27 7 59l110 547
h104l-111 -555q-3 -15 -3 -25z" />
    <glyph glyph-name="zero.lf" horiz-adv-x="565" 
d="M247 -12q-95 0 -152 64t-57 173q0 84 22 164t61.5 145t101.5 104.5t135 39.5q95 0 151 -64.5t56 -173.5q0 -113 -36 -214.5t-110.5 -169.5t-171.5 -68zM255 93q60 0 107 55t68.5 130.5t21.5 151.5q0 68 -27.5 106t-77.5 38q-60 0 -106.5 -55.5t-68 -131.5t-21.5 -152
q0 -68 27.5 -105t76.5 -37z" />
    <glyph glyph-name="one.lf" horiz-adv-x="390" 
d="M358 679h10l-136 -679h-111l104 521l-155 -58l-2 108z" />
    <glyph glyph-name="two.lf" horiz-adv-x="536" 
d="M513 505q0 -45 -15 -84.5t-41 -69.5t-58 -56t-68 -49t-68.5 -44t-62 -46.5t-46.5 -51.5h300l-20 -104h-456q19 70 59 127.5t85.5 92.5t95 69t89.5 60t65.5 62.5t25.5 78.5q0 39 -24.5 61t-70.5 22q-94 0 -172 -61l-14 99q96 67 205 67q93 0 142 -46t49 -127z" />
    <glyph glyph-name="three.lf" horiz-adv-x="536" 
d="M356 342q95 -36 95 -135q0 -98 -76.5 -158.5t-197.5 -60.5q-116 0 -189 47l42 102q55 -44 150 -44q72 0 115.5 30t43.5 81q0 86 -130 86h-47l19 100h47q66 0 106 30t40 82q0 34 -24 52.5t-68 18.5q-81 0 -154 -44l-2 98q85 51 187 51q81 0 128.5 -40.5t47.5 -112.5
q0 -62 -35 -110t-98 -73z" />
    <glyph glyph-name="four.lf" horiz-adv-x="550" 
d="M441 248h87l-20 -99h-87l-30 -149h-108l30 149h-307l20 99l328 419h170zM333 248l63 318l-249 -318h186z" />
    <glyph glyph-name="five.lf" horiz-adv-x="536" 
d="M503 563h-239l-53 -154q40 15 89 15q87 0 136.5 -47.5t49.5 -134.5q0 -106 -77 -180t-200 -74q-129 0 -207 67l60 99q59 -60 152 -60q70 0 114.5 40t44.5 100q0 46 -29 71t-84 25q-65 0 -121 -28l-65 22l113 343h336z" />
    <glyph glyph-name="six.lf" horiz-adv-x="536" 
d="M315 442q88 0 139 -52t51 -139q0 -110 -76.5 -186.5t-194.5 -76.5q-92 0 -151 51.5t-59 137.5q0 102 85.5 224.5t231.5 265.5h144q-120 -120 -219 -231q24 6 49 6zM246 92q62 0 103 44t41 106q0 47 -28 74t-76 27q-65 0 -106.5 -44t-41.5 -106q0 -45 30 -73t78 -28z" />
    <glyph glyph-name="seven.lf" horiz-adv-x="508" 
d="M587 667l-438 -667h-129l371 563h-304l20 104h480z" />
    <glyph glyph-name="eight.lf" horiz-adv-x="536" 
d="M405 347q87 -42 87 -137q0 -99 -68.5 -160.5t-184.5 -61.5q-95 0 -154.5 46.5t-59.5 123.5q0 71 40.5 122t112.5 75q-67 41 -67 117q0 91 62 148.5t165 57.5q85 0 136.5 -41.5t51.5 -110.5q0 -61 -31.5 -107.5t-89.5 -71.5zM328 574q-51 0 -80 -28t-29 -72
q0 -35 23 -55.5t62 -20.5q50 0 80.5 29t30.5 72q0 34 -23.5 54.5t-63.5 20.5zM247 92q63 0 98 32t35 87q0 39 -29 63.5t-76 24.5q-62 0 -99 -33t-37 -88q0 -40 29 -63t79 -23z" />
    <glyph glyph-name="nine.lf" horiz-adv-x="536" 
d="M339 679q93 0 152 -51.5t59 -137.5q0 -102 -86 -224t-232 -266h-144q117 116 220 231q-26 -6 -50 -6q-87 0 -138 52t-51 139q0 110 76 186.5t194 76.5zM287 324q66 0 107.5 44t41.5 106q0 45 -30 73t-78 28q-63 0 -104 -44t-41 -106q0 -46 28.5 -73.5t75.5 -27.5z" />
    <glyph glyph-name="zero.dnom" horiz-adv-x="351" 
d="M135 -8q-57 0 -92 40t-35 107q0 70 22 133t68 106t106 43q57 0 91.5 -40t34.5 -107q0 -111 -53 -196.5t-142 -85.5zM143 69q47 0 76 64.5t29 131.5q0 37 -14 58t-39 21q-47 0 -75.5 -64.5t-28.5 -131.5q0 -38 13.5 -58.5t38.5 -20.5z" />
    <glyph glyph-name="one.dnom" horiz-adv-x="357" 
d="M207 76h82l-16 -76h-252l16 76h89l47 232l-96 -34l-1 79l193 68h7z" />
    <glyph glyph-name="two.dnom" horiz-adv-x="351" 
d="M307 318q0 -49 -26 -88.5t-58 -60.5t-71.5 -47t-55.5 -46h184l-15 -76h-295q15 52 47 93t66.5 65.5t66.5 45.5t53 43.5t21 49.5q0 47 -54 47q-57 0 -108 -37l-10 73q58 41 134 41q61 0 91 -28t30 -75z" />
    <glyph glyph-name="three.dnom" horiz-adv-x="352" 
d="M221 213q55 -24 55 -84q0 -61 -49.5 -99t-125.5 -38t-125 29l31 77q32 -29 93 -29q41 0 67.5 16t26.5 43q0 47 -77 47h-31l14 72h31q39 0 61 16t22 43q0 38 -51 38t-100 -30l-1 73q56 34 121 34q54 0 84.5 -26t30.5 -70q0 -76 -77 -112z" />
    <glyph glyph-name="four.dnom" horiz-adv-x="346" 
d="M318 414l-51 -255h51l-14 -73h-52l-17 -86h-79l18 86h-193l15 73l202 255h120zM84 159h104l36 179z" />
    <glyph glyph-name="five.dnom" horiz-adv-x="353" 
d="M307 336h-149l-27 -76q27 8 53 8q55 0 85.5 -31t30.5 -83q0 -71 -48.5 -116.5t-128.5 -45.5q-85 0 -137 41l46 75q35 -38 93 -38q41 0 66.5 19.5t25.5 53.5q0 54 -68 54q-33 0 -71 -15l-48 16l72 216h221z" />
    <glyph glyph-name="six.dnom" horiz-adv-x="352" 
d="M188 281q57 0 91 -32.5t34 -83.5q0 -74 -50 -123t-126 -49q-60 0 -98.5 33.5t-38.5 86.5q0 29 13 62t26.5 55.5t49.5 63t52 57t63 63.5h103q-49 -45 -139 -135q12 2 20 2zM144 70q38 0 62 23t24 58q0 25 -17 41t-45 16q-36 0 -61 -23.5t-25 -58.5q0 -24 17.5 -40
t44.5 -16z" />
    <glyph glyph-name="seven.dnom" horiz-adv-x="353" 
d="M371 414l-277 -414h-94l225 336h-184l16 78h314z" />
    <glyph glyph-name="eight.dnom" horiz-adv-x="350" 
d="M254 215q48 -28 48 -84q0 -62 -43 -100t-115 -38q-63 0 -103 30t-40 76q0 89 86 121q-37 28 -37 71q0 58 40.5 93.5t108.5 35.5q56 0 90 -27t34 -69q0 -74 -69 -109zM191 343q-28 0 -44 -14.5t-16 -37.5q0 -17 12.5 -29t34.5 -12q28 0 45 15t17 37q0 41 -49 41zM147 70
q35 0 54.5 16t19.5 44q0 22 -17 35.5t-46 13.5q-35 0 -54.5 -17t-19.5 -47q0 -21 16.5 -33t46.5 -12z" />
    <glyph glyph-name="nine.dnom" horiz-adv-x="353" 
d="M203 421q60 0 98.5 -33.5t38.5 -86.5q0 -35 -14 -69.5t-46.5 -75t-56.5 -66.5t-74 -76l-14 -14h-102q23 21 139 135q-14 -2 -21 -2q-57 0 -91 32.5t-34 83.5q0 74 50 123t127 49zM171 206q36 0 61 23.5t25 58.5q0 24 -17.5 40t-44.5 16q-37 0 -61 -23t-24 -58
q0 -25 16.5 -41t44.5 -16z" />
    <glyph glyph-name="zero.numr" horiz-adv-x="351" 
d="M186 245q-57 0 -92 40t-35 107q0 70 22 133t68 106t106 43q57 0 91.5 -40t34.5 -107q0 -111 -53 -196.5t-142 -85.5zM194 322q47 0 76 64.5t29 131.5q0 37 -14 58t-39 21q-47 0 -75.5 -64.5t-28.5 -131.5q0 -38 13.5 -58.5t38.5 -20.5z" />
    <glyph glyph-name="one.numr" horiz-adv-x="357" 
d="M258 329h82l-16 -76h-252l16 76h89l47 232l-96 -34l-1 79l193 68h7z" />
    <glyph glyph-name="two.numr" horiz-adv-x="351" 
d="M358 571q0 -49 -26 -88.5t-58 -60.5t-71.5 -47t-55.5 -46h184l-15 -76h-295q15 52 47 93t66.5 65.5t66.5 45.5t53 43.5t21 49.5q0 47 -54 47q-57 0 -108 -37l-10 73q58 41 134 41q61 0 91 -28t30 -75z" />
    <glyph glyph-name="three.numr" horiz-adv-x="352" 
d="M272 466q55 -24 55 -84q0 -61 -49.5 -99t-125.5 -38t-125 29l31 77q32 -29 93 -29q41 0 67.5 16t26.5 43q0 47 -77 47h-31l14 72h31q39 0 61 16t22 43q0 38 -51 38t-100 -30l-1 73q56 34 121 34q54 0 84.5 -26t30.5 -70q0 -76 -77 -112z" />
    <glyph glyph-name="four.numr" horiz-adv-x="346" 
d="M369 667l-51 -255h51l-14 -73h-52l-17 -86h-79l18 86h-193l15 73l202 255h120zM135 412h104l36 179z" />
    <glyph glyph-name="five.numr" horiz-adv-x="353" 
d="M358 589h-149l-27 -76q27 8 53 8q55 0 85.5 -31t30.5 -83q0 -71 -48.5 -116.5t-128.5 -45.5q-85 0 -137 41l46 75q35 -38 93 -38q41 0 66.5 19.5t25.5 53.5q0 54 -68 54q-33 0 -71 -15l-48 16l72 216h221z" />
    <glyph glyph-name="six.numr" horiz-adv-x="352" 
d="M239 534q57 0 91 -32.5t34 -83.5q0 -74 -50 -123t-126 -49q-60 0 -98.5 33.5t-38.5 86.5q0 29 13 62t26.5 55.5t49.5 63t52 57t63 63.5h103q-49 -45 -139 -135q12 2 20 2zM195 323q38 0 62 23t24 58q0 25 -17 41t-45 16q-36 0 -61 -23.5t-25 -58.5q0 -24 17.5 -40
t44.5 -16z" />
    <glyph glyph-name="seven.numr" horiz-adv-x="353" 
d="M422 667l-277 -414h-94l225 336h-184l16 78h314z" />
    <glyph glyph-name="eight.numr" horiz-adv-x="350" 
d="M305 468q48 -28 48 -84q0 -62 -43 -100t-115 -38q-63 0 -103 30t-40 76q0 89 86 121q-37 28 -37 71q0 58 40.5 93.5t108.5 35.5q56 0 90 -27t34 -69q0 -75 -69 -109zM242 596q-28 0 -44 -14.5t-16 -37.5q0 -17 12.5 -29t34.5 -12q28 0 45 15t17 37q0 41 -49 41zM198 323
q35 0 54.5 16t19.5 44q0 22 -17 35.5t-46 13.5q-35 0 -54.5 -17t-19.5 -47q0 -21 16.5 -33t46.5 -12z" />
    <glyph glyph-name="nine.numr" horiz-adv-x="353" 
d="M254 674q60 0 98.5 -33.5t38.5 -86.5q0 -35 -14 -69.5t-46.5 -75t-56.5 -66.5t-74 -76l-14 -14h-102q23 21 139 135q-14 -2 -21 -2q-57 0 -91 32.5t-34 83.5q0 74 50 123t127 49zM222 459q36 0 61 23.5t25 58.5q0 24 -17.5 40t-44.5 16q-37 0 -61 -23t-24 -58
q0 -25 16.5 -41t44.5 -16z" />
    <glyph glyph-name="caroncomb.alt" 
d="M-109 530l58 172h104l-92 -172h-70z" />
    <glyph glyph-name="uni0308.case" 
d="M-186 714q-27 0 -44.5 17.5t-17.5 43.5q0 27 17.5 44.5t44.5 17.5t44 -17.5t17 -44.5q0 -26 -17 -43.5t-44 -17.5zM5 714q-27 0 -44 17t-17 44t17 44.5t44 17.5t44 -17.5t17 -44.5q0 -26 -17 -43.5t-44 -17.5z" />
    <glyph glyph-name="uni0307.case" 
d="M-25 712q-29 0 -47.5 17.5t-18.5 45.5t18.5 46t47.5 18t47.5 -18t18.5 -46t-18.5 -45.5t-47.5 -17.5z" />
    <glyph glyph-name="gravecomb.case" 
d="M15 715h-92l-92 148h110z" />
    <glyph glyph-name="acutecomb.case" 
d="M-199 715l133 148h128l-152 -148h-109z" />
    <glyph glyph-name="uni030B.case" 
d="M-365 715l133 148h119l-152 -148h-100zM-197 715l134 148h119l-152 -148h-101z" />
    <glyph glyph-name="uni0302.case" 
d="M22 715h-93l-44 85l-77 -85h-100l128 148h118z" />
    <glyph glyph-name="uni030C.case" 
d="M-48 863h100l-128 -148h-118l-68 148h93l43 -85z" />
    <glyph glyph-name="uni0306.case" 
d="M-30 859h82q-13 -66 -57 -107t-106 -41q-55 0 -89.5 32t-34.5 84q0 15 3 32h74q-2 -12 -2 -19q0 -22 14 -35t39 -13q28 0 49.5 18.5t27.5 48.5z" />
    <glyph glyph-name="uni030A.case" 
d="M-32 700q-43 0 -74 30.5t-31 73.5q0 44 31 74t74 30q44 0 73.5 -30t29.5 -74q0 -43 -30 -73.5t-73 -30.5zM-32 749q22 0 38 16t16 39t-15.5 38.5t-38.5 15.5t-39.5 -15.5t-16.5 -38.5t16.5 -39t39.5 -16z" />
    <glyph glyph-name="tildecomb.case" 
d="M-324 711q13 67 48 108t85 41q23 0 41 -9.5t28 -21t22.5 -21t25.5 -9.5q38 0 50 61h75q-13 -67 -48 -108t-84 -41q-29 0 -50 15.5t-37 30.5t-31 15q-38 0 -50 -61h-75z" />
    <glyph glyph-name="uni0304.case" 
d="M-242 807h289l-16 -78h-289z" />
    <glyph glyph-name="uni0335.case" 
d="M-365 388h354l-18 -92h-354z" />
    <glyph glyph-name="uni0336.case" 
d="M-631 587h659l-15 -80h-659z" />
    <glyph glyph-name="uni0337.case" 
d="M-368 329l386 200l-24 -117l-385 -199z" />
    <glyph glyph-name="uni0338.case" 
d="M-21 680l60 -46l-665 -649l-60 46z" />
    <glyph glyph-name="uni0308.narrow" 
d="M-186 574q-26 0 -42.5 17t-16.5 44t16.5 44.5t42.5 17.5t43 -17.5t17 -44.5t-17 -44t-43 -17zM-21 574q-26 0 -43 17t-17 44t17 44.5t43 17.5t42.5 -17.5t16.5 -44.5t-16.5 -44t-42.5 -17z" />
    <glyph glyph-name="tildecomb.narrow" 
d="M-272 551q13 68 43 108.5t73 40.5q21 0 37 -9.5t24 -21t18 -21t20 -9.5q27 0 39 61h70q-13 -68 -43.5 -108.5t-73.5 -40.5q-26 0 -44.5 15.5t-30.5 30.5t-23 15q-29 0 -39 -61h-70z" />
    <glyph glyph-name="uni0304.narrow" 
d="M-214 673h261l-16 -78h-261z" />
    <glyph glyph-name="acute.case" horiz-adv-x="311" 
d="M135 715l133 148h128l-152 -148h-109z" />
    <glyph glyph-name="breve.case" horiz-adv-x="364" 
d="M366 859h82q-13 -66 -57 -107t-106 -41q-55 0 -89.5 32t-34.5 84q0 15 3 32h74q-2 -12 -2 -19q0 -22 14 -35t39 -13q28 0 49.5 18.5t27.5 48.5z" />
    <glyph glyph-name="caron.case" horiz-adv-x="395" 
d="M379 863h100l-128 -148h-118l-69 148h93l44 -85z" />
    <glyph glyph-name="circumflex.case" horiz-adv-x="395" 
d="M449 715h-93l-44 85l-77 -85h-100l128 148h118z" />
    <glyph glyph-name="dieresis.case" horiz-adv-x="396" 
d="M210 714q-27 0 -44.5 17.5t-17.5 43.5q0 27 17.5 44.5t44.5 17.5t44 -17.5t17 -44.5q0 -26 -17 -43.5t-44 -17.5zM401 714q-27 0 -44 17t-17 44t17 44.5t44 17.5t44 -17.5t17 -44.5q0 -26 -17 -43.5t-44 -17.5z" />
    <glyph glyph-name="dotaccent.case" horiz-adv-x="215" 
d="M214 712q-29 0 -47.5 17.5t-18.5 45.5t18.5 46t47.5 18q30 0 48.5 -17.5t18.5 -46.5q0 -28 -18.5 -45.5t-48.5 -17.5z" />
    <glyph glyph-name="grave.case" horiz-adv-x="294" 
d="M349 715h-92l-93 148h111z" />
    <glyph glyph-name="hungarumlaut.case" horiz-adv-x="472" 
d="M135 715l133 148h119l-152 -148h-100zM303 715l134 148h119l-152 -148h-101z" />
    <glyph glyph-name="macron.case" horiz-adv-x="370" 
d="M154 807h289l-16 -78h-289z" />
    <glyph glyph-name="ring.case" horiz-adv-x="292" 
d="M260 700q-43 0 -74 30.5t-31 73.5q0 44 31 74t74 30q44 0 73.5 -30t29.5 -74q0 -43 -30 -73.5t-73 -30.5zM260 749q22 0 38 16t16 39t-15.5 38.5t-38.5 15.5t-39.5 -15.5t-16.5 -38.5t16.5 -39t39.5 -16z" />
    <glyph glyph-name="tilde.case" horiz-adv-x="425" 
d="M134 711q13 67 48 108t85 41q23 0 41 -9.5t28 -21t22.5 -21t25.5 -9.5q38 0 50 61h75q-13 -67 -48 -108t-84 -41q-29 0 -50 15.5t-37 30.5t-31 15q-38 0 -50 -61h-75z" />
    </font>
</defs>
</svg>
