<?xml version="1.0" standalone="no"?>
<!DOCTYPE svg PUBLIC "-//W3C//DTD SVG 1.1//EN" "http://www.w3.org/Graphics/SVG/1.1/DTD/svg11.dtd" >
<svg xmlns="http://www.w3.org/2000/svg" xmlns:xlink="http://www.w3.org/1999/xlink" version="1.1">
<metadata>
Created by FontForge 20161013 at Tue Mar 21 20:11:40 2017
 By ,,,
Copyright 2017 Allianz SE  All rights preserved
</metadata>
<defs>
<font id="AllianzNeo-CondensedLight" horiz-adv-x="0" >
  <font-face 
    font-family="Allianz Neo Condensed Light"
    font-weight="300"
    font-stretch="condensed"
    units-per-em="1000"
    panose-1="2 11 3 6 2 2 3 2 2 4"
    ascent="764"
    descent="-236"
    x-height="472"
    cap-height="667"
    bbox="-526 -289 782 895"
    underline-thickness="50"
    underline-position="-200"
    unicode-range="U+000D-FEFF"
  />
<missing-glyph horiz-adv-x="372" 
d="M15 0v667h342v-667h-342zM75 59h222v549h-222v-549z" />
    <glyph glyph-name="uniFB00" unicode="ff" horiz-adv-x="506" 
d="M189 664q-34 0 -50 -19.5t-16 -62.5v-110h109v-48h-109v-424h-50v424h-61v48h61v114q0 60 29 92t84 32q28 0 51 -9l-7 -45q-21 8 -41 8zM380 582v-110h109v-48h-109v-424h-50v424h-61v48h61v114q0 60 29 92t84 32q29 0 51 -9l-7 -45q-21 8 -41 8q-34 0 -50 -19.5
t-16 -62.5z" />
    <glyph glyph-name="fi" unicode="fi" horiz-adv-x="418" 
d="M189 664q-34 0 -50 -19.5t-16 -62.5v-110h109v-48h-109v-424h-50v424h-61v48h61v114q0 60 29 92t84 32q28 0 51 -9l-7 -45q-21 8 -41 8zM333 680q17 0 28 -11t11 -29q0 -17 -11 -28t-28 -11t-27.5 11t-10.5 28q0 18 10.5 29t27.5 11zM309 0v472h49v-472h-49z" />
    <glyph glyph-name="fl" unicode="fl" horiz-adv-x="444" 
d="M189 664q-34 0 -50 -19.5t-16 -62.5v-110h109v-48h-109v-424h-50v424h-61v48h61v114q0 60 29 92t84 32q28 0 51 -9l-7 -45q-21 8 -41 8zM430 46l5 -42q-17 -9 -47 -9q-41 0 -60 22t-19 70v615h49v-607q0 -54 44 -54q15 0 28 5z" />
    <glyph glyph-name="uniFB03" unicode="ffi" horiz-adv-x="675" 
d="M189 664q-34 0 -50 -19.5t-16 -62.5v-110h109v-48h-109v-424h-50v424h-61v48h61v114q0 60 29 92t84 32q28 0 51 -9l-7 -45q-21 8 -41 8zM446 664q-34 0 -50 -19.5t-16 -62.5v-110h109v-48h-109v-424h-50v424h-61v48h61v114q0 60 29 92t84 32q29 0 51 -9l-7 -45
q-21 8 -41 8zM590 680q17 0 28 -11t11 -29q0 -17 -11 -28t-28 -11t-27.5 11t-10.5 28q0 18 10.5 29t27.5 11zM566 0v472h49v-472h-49z" />
    <glyph glyph-name="uniFB04" unicode="ffl" horiz-adv-x="701" 
d="M189 664q-34 0 -50 -19.5t-16 -62.5v-110h109v-48h-109v-424h-50v424h-61v48h61v114q0 60 29 92t84 32q28 0 51 -9l-7 -45q-21 8 -41 8zM446 664q-34 0 -50 -19.5t-16 -62.5v-110h109v-48h-109v-424h-50v424h-61v48h61v114q0 60 29 92t84 32q29 0 51 -9l-7 -45
q-21 8 -41 8zM687 46l5 -42q-16 -9 -47 -9q-41 0 -60 22t-19 70v615h49v-607q0 -54 44 -54q15 0 28 5z" />
    <glyph glyph-name=".notdef" horiz-adv-x="372" 
d="M15 0v667h342v-667h-342zM75 59h222v549h-222v-549z" />
    <glyph glyph-name=".null" 
 />
    <glyph glyph-name="nonmarkingreturn" horiz-adv-x="333" 
 />
    <glyph glyph-name="NULL" 
 />
    <glyph glyph-name="NULL" 
 />
    <glyph glyph-name="CR" unicode="&#xd;" horiz-adv-x="217" 
 />
    <glyph glyph-name="space" unicode=" " horiz-adv-x="217" 
 />
    <glyph glyph-name="exclam" unicode="!" horiz-adv-x="168" 
d="M63 170l-6 497h54l-6 -497h-42zM84 -10q-17 0 -28.5 11.5t-11.5 28.5t11.5 28t28.5 11t28 -11t11 -28t-11 -28.5t-28 -11.5z" />
    <glyph glyph-name="quotedbl" unicode="&#x22;" horiz-adv-x="249" 
d="M40 444l-6 223h56l-7 -223h-43zM166 444l-6 223h56l-7 -223h-43z" />
    <glyph glyph-name="numbersign" unicode="#" horiz-adv-x="491" 
d="M462 426h-97l-25 -185h96l-6 -44h-96l-27 -197h-45l27 197h-125l-27 -197h-45l27 197h-96l6 44h96l26 185h-96l5 44h97l27 197h44l-27 -197h126l27 197h44l-27 -197h96zM295 241l26 185h-126l-25 -185h125z" />
    <glyph glyph-name="dollar" unicode="$" horiz-adv-x="420" 
d="M376 187q0 -63 -37.5 -105.5t-103.5 -55.5v-66h-48v62h-2q-77 0 -132 32l10 52q54 -33 121 -33h3v243q-63 29 -97.5 66t-34.5 104q0 65 34.5 106t97.5 50v64h48v-62q67 -5 117 -35l-10 -53q-53 35 -107 38v-243q34 -16 52.5 -26.5t42.5 -30t35 -46t11 -61.5zM108 489
q0 -71 79 -114v217q-39 -9 -59 -36.5t-20 -66.5zM235 79q42 11 65 39t23 67t-22.5 63t-65.5 45v-214z" />
    <glyph glyph-name="percent" unicode="%" horiz-adv-x="537" 
d="M133 382q-49 0 -78 40t-29 107q0 68 29 107.5t78 39.5q50 0 78.5 -39.5t28.5 -107.5t-29 -107.5t-78 -39.5zM441 667h57l-402 -667h-57zM133 426q29 0 46 28t17 75t-17 75t-46 28t-46 -28t-17 -75t17 -75t46 -28zM403 -9q-49 0 -77.5 39.5t-28.5 107.5t28.5 107.5
t77.5 39.5q50 0 78.5 -39.5t28.5 -107.5t-29 -107.5t-78 -39.5zM403 35q30 0 46.5 27.5t16.5 75.5t-16.5 75.5t-46.5 27.5q-28 0 -45 -28t-17 -75t17 -75t45 -28z" />
    <glyph glyph-name="ampersand" unicode="&#x26;" horiz-adv-x="491" 
d="M486 26l-44 -31l-74 84q-64 -90 -159 -90q-80 0 -128.5 57t-48.5 136q0 62 28 105t76 84q-51 85 -51 161q0 65 34 104.5t89 39.5q50 0 80 -34.5t30 -90.5q0 -32 -9.5 -59.5t-29.5 -51.5t-36 -38.5t-43 -36.5q19 -28 65 -84q58 -69 96 -113q30 70 42 176l49 -7
q-13 -123 -55 -210q47 -54 89 -101zM205 628q-32 0 -51 -26t-19 -71q0 -60 40 -128q49 39 71 70t22 74q0 38 -17 59.5t-46 21.5zM207 38q78 0 128 79q-63 74 -109 131q-51 64 -65 86q-40 -34 -59.5 -68.5t-19.5 -81.5q0 -61 33 -103.5t92 -42.5z" />
    <glyph glyph-name="quotesingle" unicode="'" horiz-adv-x="123" 
d="M40 444l-6 223h56l-7 -223h-43z" />
    <glyph glyph-name="parenleft" unicode="(" horiz-adv-x="251" 
d="M234 -148l-35 -33q-76 76 -118.5 191.5t-42.5 253.5t42.5 253.5t118.5 191.5l35 -33q-69 -70 -108 -177.5t-39 -234.5t39 -234.5t108 -177.5z" />
    <glyph glyph-name="parenright" unicode=")" horiz-adv-x="251" 
d="M17 -148q69 70 108 177.5t39 234.5t-39 234.5t-108 177.5l35 33q76 -76 118.5 -191.5t42.5 -253.5t-42.5 -253.5t-118.5 -191.5z" />
    <glyph glyph-name="asterisk" unicode="*" horiz-adv-x="319" 
d="M96 327l-37 29l73 122l-112 41l14 47l108 -55l-5 156h46l-7 -156l109 55l14 -47l-112 -41l73 -122l-37 -29l-64 130z" />
    <glyph glyph-name="plus" unicode="+" horiz-adv-x="418" 
d="M383 283v-45h-152v-203h-44v203h-152v45h152v202h44v-202h152z" />
    <glyph glyph-name="comma" unicode="," horiz-adv-x="152" 
d="M49 -144l-39 10l56 205l49 -12z" />
    <glyph glyph-name="hyphen" unicode="-" horiz-adv-x="236" 
d="M30 285h177v-50h-177v50z" />
    <glyph glyph-name="period" unicode="." horiz-adv-x="153" 
d="M76 -9q-16 0 -27 11t-11 28t11 28.5t27 11.5q17 0 28 -11.5t11 -28.5t-11 -28t-28 -11z" />
    <glyph glyph-name="slash" unicode="/" horiz-adv-x="295" 
d="M50 -175h-50l237 842h50z" />
    <glyph glyph-name="zero" unicode="0" horiz-adv-x="420" 
d="M209 -11q-86 0 -133 89.5t-47 254.5t47 255t133 90q87 0 134.5 -90t47.5 -255t-47.5 -254.5t-134.5 -89.5zM209 39q62 0 95.5 76.5t33.5 217.5t-33.5 218t-95.5 77q-61 0 -94.5 -77t-33.5 -218q0 -140 33.5 -217t94.5 -77z" />
    <glyph glyph-name="one" unicode="1" horiz-adv-x="420" 
d="M256 49h110v-49h-285v49h123v552l-129 -74l-10 49l182 103h9v-630z" />
    <glyph glyph-name="two" unicode="2" horiz-adv-x="420" 
d="M88 49h285v-49h-349q6 72 37.5 132t71 100t78 77t65 82t26.5 97q0 63 -37 101t-98 38q-69 0 -121 -54l-15 50q59 54 139 54q82 0 133 -52t51 -136q0 -57 -24 -106.5t-59.5 -87t-72.5 -72.5t-68.5 -80t-41.5 -94z" />
    <glyph glyph-name="three" unicode="3" horiz-adv-x="420" 
d="M234 341q118 -34 118 -163q0 -87 -53.5 -138t-145.5 -51q-76 0 -131 35l11 49q50 -34 119 -34q70 0 109 36.5t39 102.5t-41.5 101.5t-117.5 35.5h-28v50h28q68 0 104 35t36 100q0 59 -32.5 93t-89.5 34q-59 0 -108 -39l-11 49q54 40 122 40q77 0 124 -48t47 -129
q0 -121 -99 -159zM12 547q16 24 39 41l11 -53z" />
    <glyph glyph-name="four" unicode="4" horiz-adv-x="420" 
d="M320 225h86v-47h-86v-178h-50v178h-256v47l227 442h79v-442zM66 225h204v397z" />
    <glyph glyph-name="five" unicode="5" horiz-adv-x="420" 
d="M180 -11q-82 0 -144 51l17 52q55 -52 127 -52q66 0 104.5 45t38.5 122q0 73 -35.5 114t-99.5 41q-54 0 -101 -33l-34 11l38 327h246v-51h-200l-27 -226q38 21 82 21q83 0 133.5 -55.5t50.5 -148.5q0 -97 -54 -157.5t-142 -60.5z" />
    <glyph glyph-name="six" unicode="6" horiz-adv-x="420" 
d="M212 437q81 0 129 -61t48 -164t-48.5 -163.5t-129.5 -60.5q-83 0 -131.5 60.5t-48.5 163.5q0 87 42.5 186t152.5 269h63q-97 -147 -157 -257q32 27 80 27zM211 39q57 0 91 46.5t34 126.5q0 81 -34 128t-91 47q-59 0 -93.5 -46.5t-34.5 -128.5q0 -80 34.5 -126.5
t93.5 -46.5z" />
    <glyph glyph-name="seven" unicode="7" horiz-adv-x="420" 
d="M392 667l-259 -667h-56l239 616h-284v51h360z" />
    <glyph glyph-name="eight" unicode="8" horiz-adv-x="420" 
d="M288 350q96 -42 96 -169q0 -89 -47 -141t-127 -52t-127 52t-47 141q0 127 96 169q-76 41 -76 153q0 80 41.5 127.5t112.5 47.5t112.5 -47.5t41.5 -127.5q0 -112 -76 -153zM210 627q-49 0 -76 -33t-27 -92q0 -60 28 -95t75 -35t75 35t28 95q0 58 -27.5 91.5t-75.5 33.5z
M210 39q57 0 89.5 37.5t32.5 104.5t-33 104.5t-89 37.5t-89 -37.5t-33 -104.5t32.5 -104.5t89.5 -37.5z" />
    <glyph glyph-name="nine" unicode="9" horiz-adv-x="420" 
d="M209 679q82 0 130.5 -60.5t48.5 -163.5q0 -87 -42.5 -186t-152.5 -269h-62q97 150 156 256q-33 -26 -80 -26q-80 0 -128 61t-48 164t48.5 163.5t129.5 60.5zM83 455q0 -81 34.5 -128t91.5 -47q58 0 92.5 46.5t34.5 128.5q0 80 -34.5 126.5t-92.5 46.5q-57 0 -91.5 -46.5
t-34.5 -126.5z" />
    <glyph glyph-name="colon" unicode=":" horiz-adv-x="153" 
d="M76 389q-16 0 -27 11t-11 28t11 28.5t27 11.5q17 0 28 -11.5t11 -28.5t-11 -28t-28 -11zM76 3q-16 0 -27 11t-11 28t11 28.5t27 11.5q17 0 28 -11.5t11 -28.5t-11 -28t-28 -11z" />
    <glyph glyph-name="uni003B" unicode=";" horiz-adv-x="160" 
d="M83 389q-16 0 -27 11t-11 28t11 28.5t27 11.5q17 0 28 -11.5t11 -28.5t-11 -28t-28 -11zM49 -111l-39 10l56 205l49 -12z" />
    <glyph glyph-name="less" unicode="&#x3c;" horiz-adv-x="418" 
d="M383 472v-51l-315 -161l315 -161v-50l-348 178v66z" />
    <glyph glyph-name="equal" unicode="=" horiz-adv-x="418" 
d="M35 383h348v-46h-348v46zM35 183h348v-45h-348v45z" />
    <glyph glyph-name="greater" unicode="&#x3e;" horiz-adv-x="418" 
d="M35 472l348 -179v-66l-348 -178v50l315 161l-315 161v51z" />
    <glyph glyph-name="question" unicode="?" horiz-adv-x="350" 
d="M108 170v20q0 45 16 82.5t38.5 64t45 51.5t38.5 56t16 67q0 53 -30.5 84.5t-82.5 31.5q-69 0 -120 -56l-15 49q59 57 140 57q72 0 116.5 -44.5t44.5 -119.5q0 -45 -16 -81.5t-39.5 -62.5t-46.5 -50.5t-39 -57.5t-16 -71v-20h-50zM133 -10q-16 0 -26.5 11.5t-10.5 28.5
t10.5 28.5t26.5 11.5t26.5 -11.5t10.5 -28.5t-10.5 -28.5t-26.5 -11.5z" />
    <glyph glyph-name="at" unicode="@" horiz-adv-x="666" 
d="M427 448h43v-279q0 -71 42 -71q39 0 62.5 52t23.5 140q0 148 -70 237t-187 89q-120 0 -192 -96t-72 -257q0 -165 72.5 -263.5t192.5 -98.5q106 0 175 52l20 -44q-36 -26 -89.5 -41.5t-105.5 -15.5q-141 0 -226.5 112t-85.5 299q0 182 85 291.5t226 109.5
q138 0 221.5 -102t83.5 -272q0 -110 -36.5 -175.5t-97.5 -65.5q-38 0 -60 25t-25 68q-35 -81 -107 -81q-60 0 -97.5 54t-37.5 144q0 89 37.5 143t97.5 54q77 0 107 -85v77zM330 107q43 0 68.5 40t25.5 112q0 71 -25.5 111t-68.5 40q-44 0 -72 -41.5t-28 -109.5
q0 -69 27.5 -110.5t72.5 -41.5z" />
    <glyph glyph-name="A" unicode="A" horiz-adv-x="473" 
d="M416 0l-65 220h-229l-65 -220h-55l202 667h65l202 -667h-55zM137 270h199l-99 338z" />
    <glyph glyph-name="B" unicode="B" horiz-adv-x="485" 
d="M328 344q56 -18 87 -61.5t31 -104.5q0 -80 -51.5 -129t-140.5 -49h-183v667h163q87 0 138 -47.5t51 -124.5q0 -109 -95 -151zM234 618h-111v-255h111q64 0 100.5 35t36.5 93q0 57 -37 92t-100 35zM254 49q66 0 103 36.5t37 96.5q0 61 -37 98t-103 37h-131v-268h131z" />
    <glyph glyph-name="C" unicode="C" horiz-adv-x="497" 
d="M309 -12q-124 0 -197.5 93t-73.5 252t73.5 252.5t197.5 93.5q95 0 160 -54l-13 -50q-64 53 -147 53q-101 0 -160 -79.5t-59 -215.5q0 -135 59 -214.5t160 -79.5q85 0 146 52l14 -49q-66 -54 -160 -54z" />
    <glyph glyph-name="D" unicode="D" horiz-adv-x="534" 
d="M71 0v667h132q141 0 217.5 -91t76.5 -243t-76.5 -242.5t-217.5 -90.5h-132zM123 51h80q117 0 178.5 76.5t61.5 205.5q0 130 -61.5 206.5t-178.5 76.5h-80v-565z" />
    <glyph glyph-name="E" unicode="E" horiz-adv-x="417" 
d="M392 616h-269v-249h215v-50h-215v-266h269v-51h-321v667h321v-51z" />
    <glyph glyph-name="F" unicode="F" horiz-adv-x="404" 
d="M383 616h-260v-261h214v-50h-214v-305h-52v667h312v-51z" />
    <glyph glyph-name="G" unicode="G" horiz-adv-x="533" 
d="M297 335h183v-290q-68 -57 -174 -57q-123 0 -195.5 93t-72.5 252t73.5 252.5t197.5 93.5q95 0 160 -54l-13 -49q-64 53 -147 53q-100 0 -159.5 -80t-59.5 -216q0 -135 58.5 -214.5t157.5 -79.5q70 0 122 33v212h-131v51z" />
    <glyph glyph-name="H" unicode="H" horiz-adv-x="529" 
d="M405 667h53v-667h-53v317h-282v-317h-52v667h52v-300h282v300z" />
    <glyph glyph-name="I" unicode="I" horiz-adv-x="194" 
d="M71 667h52v-667h-52v667z" />
    <glyph glyph-name="J" unicode="J" horiz-adv-x="260" 
d="M66 -8q-34 0 -61 10l8 49q21 -8 47 -8q83 0 83 102v522h52v-528q0 -70 -34 -108.5t-95 -38.5z" />
    <glyph glyph-name="K" unicode="K" horiz-adv-x="478" 
d="M405 0l-224 311l-58 -75v-236h-52v667h52v-349l268 349h66l-244 -314l257 -353h-65z" />
    <glyph glyph-name="L" unicode="L" horiz-adv-x="354" 
d="M71 0v667h52v-616h227v-51h-279z" />
    <glyph glyph-name="M" unicode="M" horiz-adv-x="681" 
d="M610 667v-667h-53v594l-204 -467h-26l-204 469v-596h-52v667h74l195 -446l195 446h75z" />
    <glyph glyph-name="N" unicode="N" horiz-adv-x="571" 
d="M447 667h53v-667h-72l-305 595v-595h-52v667h72l304 -595v595z" />
    <glyph glyph-name="O" unicode="O" horiz-adv-x="599" 
d="M299 -12q-119 0 -190 93.5t-71 251.5t71 252t190 94t190.5 -94t71.5 -252t-71.5 -251.5t-190.5 -93.5zM299 39q95 0 152 79.5t57 214.5t-57 215t-152 80t-152 -80t-57 -215t57 -214.5t152 -79.5z" />
    <glyph glyph-name="P" unicode="P" horiz-adv-x="464" 
d="M237 667q92 0 145.5 -52t53.5 -137q0 -84 -53.5 -136.5t-145.5 -52.5h-114v-289h-52v667h166zM237 340q68 0 107 38t39 100q0 63 -38.5 100.5t-107.5 37.5h-114v-276h114z" />
    <glyph glyph-name="Q" unicode="Q" horiz-adv-x="599" 
d="M568 -14l-42 -29l-75 84q-64 -53 -152 -53q-119 0 -190 93.5t-71 251.5t71 252t190 94t190.5 -94t71.5 -252q0 -162 -75 -256zM299 39q65 0 117 41l-110 123l42 28l102 -114q58 80 58 216q0 135 -57 215t-152 80t-152 -80t-57 -215t57 -214.5t152 -79.5z" />
    <glyph glyph-name="R" unicode="R" horiz-adv-x="484" 
d="M454 0h-61l-155 289h-1h-114v-289h-52v667h166q92 0 145.5 -52t53.5 -137q0 -70 -38 -119t-105 -64zM123 616v-276h114q68 0 107 38t39 100q0 63 -38.5 100.5t-107.5 37.5h-114z" />
    <glyph glyph-name="S" unicode="S" horiz-adv-x="425" 
d="M43 23l10 54q60 -37 135 -37q69 0 109 35.5t40 92.5q0 47 -30 78.5t-72.5 51t-84.5 41.5t-72 63.5t-30 103.5q0 80 47 127t131 47q80 0 142 -36l-10 -54q-62 39 -131 39q-62 0 -94 -32.5t-32 -87.5q0 -51 30 -85t72 -54t84.5 -41t72.5 -60t30 -98q0 -83 -54.5 -132.5
t-146.5 -49.5q-86 0 -146 34z" />
    <glyph glyph-name="T" unicode="T" horiz-adv-x="392" 
d="M378 667v-51h-156v-616h-52v616h-156v51h364z" />
    <glyph glyph-name="U" unicode="U" horiz-adv-x="492" 
d="M246 -11q-92 0 -141 58t-49 164v456h52v-450q0 -178 138 -178t138 178v450h53v-456q0 -106 -49.5 -164t-141.5 -58z" />
    <glyph glyph-name="V" unicode="V" horiz-adv-x="494" 
d="M432 667h57l-210 -667h-64l-210 667h56l186 -607z" />
    <glyph glyph-name="W" unicode="W" horiz-adv-x="734" 
d="M671 667h53l-154 -667h-73l-130 583l-130 -583h-73l-155 667h55l136 -606l136 606h63l135 -606z" />
    <glyph glyph-name="X" unicode="X" horiz-adv-x="495" 
d="M487 0h-63l-176 308l-177 -308h-63l204 346l-190 321h63l163 -282l161 282h63l-189 -321z" />
    <glyph glyph-name="Y" unicode="Y" horiz-adv-x="451" 
d="M200 0v291l-204 376h66l164 -317l164 317h65l-203 -376v-291h-52z" />
    <glyph glyph-name="Z" unicode="Z" horiz-adv-x="457" 
d="M92 51h338v-51h-404v43l328 574h-317v50h383v-42z" />
    <glyph glyph-name="bracketleft" unicode="[" horiz-adv-x="255" 
d="M238 -129v-46h-178v877h178v-46h-129v-785h129z" />
    <glyph glyph-name="backslash" unicode="\" horiz-adv-x="295" 
d="M245 -175l-237 842h50l237 -842h-50z" />
    <glyph glyph-name="bracketright" unicode="]" horiz-adv-x="255" 
d="M18 -129h128v785h-128v46h178v-877h-178v46z" />
    <glyph glyph-name="asciicircum" unicode="^" horiz-adv-x="298" 
d="M12 415l111 252h52l111 -252h-47l-90 213l-89 -213h-48z" />
    <glyph glyph-name="underscore" unicode="_" horiz-adv-x="387" 
d="M0 -73h387v-36h-387v36z" />
    <glyph glyph-name="grave" unicode="`" horiz-adv-x="223" 
d="M183 563h-49l-94 131h58z" />
    <glyph glyph-name="a" unicode="a" horiz-adv-x="447" 
d="M206 -9q-79 0 -126 66.5t-47 178.5t47 178.5t126 66.5q99 0 135 -103v94h47v-472h-47v94q-37 -103 -135 -103zM213 38q59 0 92.5 53t33.5 145t-33.5 145t-92.5 53t-95 -54t-36 -144t36 -144t95 -54z" />
    <glyph glyph-name="b" unicode="b" horiz-adv-x="447" 
d="M241 481q79 0 126.5 -66.5t47.5 -178.5t-47.5 -178.5t-126.5 -66.5q-96 0 -135 103v-94h-46v702h49v-312q39 91 132 91zM234 38q59 0 95 54t36 144t-36 144t-95 54t-92 -53t-33 -145t33 -145t92 -53z" />
    <glyph glyph-name="c" unicode="c" horiz-adv-x="354" 
d="M220 -11q-84 0 -135.5 68t-51.5 179t51.5 178t135.5 67q66 0 111 -40l-10 -46q-41 39 -99 39q-64 0 -102 -54.5t-38 -143.5q0 -90 38 -144.5t102 -54.5q57 0 99 39l11 -47q-46 -40 -112 -40z" />
    <glyph glyph-name="d" unicode="d" horiz-adv-x="447" 
d="M339 702h49v-702h-47v94q-37 -103 -135 -103q-79 0 -126 66.5t-47 178.5t47 178.5t126 66.5q94 0 133 -93v314zM213 38q59 0 92.5 53t33.5 145t-33.5 145t-92.5 53t-95 -54t-36 -144t36 -144t95 -54z" />
    <glyph glyph-name="e" unicode="e" horiz-adv-x="408" 
d="M375 245q0 -20 -1 -28h-292q4 -86 43 -133.5t102 -47.5q73 0 122 43l12 -42q-53 -48 -136 -48q-88 0 -140 66t-52 181q0 113 46.5 179t124.5 66t124.5 -64t46.5 -172zM205 435q-52 0 -84.5 -45.5t-37.5 -125.5h243q-2 78 -34.5 124.5t-86.5 46.5z" />
    <glyph glyph-name="f" unicode="f" horiz-adv-x="249" 
d="M123 582v-110h109v-48h-109v-424h-50v424h-61v48h61v114q0 60 29 92t84 32q28 0 51 -9l-7 -45q-21 8 -41 8q-34 0 -50 -19.5t-16 -62.5z" />
    <glyph glyph-name="g" unicode="g" horiz-adv-x="447" 
d="M341 472h47v-459q0 -94 -50 -145.5t-142 -51.5q-75 0 -140 35l12 48q57 -36 126 -36q71 0 108 40t37 116v77q-40 -94 -133 -94q-79 0 -126 65.5t-47 174.5t47 174t126 65q99 0 135 -103v94zM213 50q59 0 92.5 51t33.5 141q0 89 -33.5 140.5t-92.5 51.5t-95 -52t-36 -140
t36 -140t95 -52z" />
    <glyph glyph-name="h" unicode="h" horiz-adv-x="425" 
d="M231 481q65 0 103.5 -45.5t38.5 -129.5v-306h-50v300q0 66 -28 100t-77 34q-51 0 -80 -35t-29 -98v-301h-49v702h49v-293q35 72 122 72z" />
    <glyph glyph-name="i" unicode="i" horiz-adv-x="169" 
d="M84 601q-17 0 -27.5 11t-10.5 28q0 18 10.5 29t27.5 11t28 -11t11 -29q0 -17 -11 -28t-28 -11zM60 472h49v-472h-49v472z" />
    <glyph glyph-name="j" unicode="j" horiz-adv-x="169" 
d="M85 601q-17 0 -28 11t-11 28q0 18 11 29t28 11t27.5 -11t10.5 -29q0 -17 -11 -28t-27 -11zM-39 -174l4 46q16 -4 26 -4q69 0 69 98v506h49v-513q0 -138 -112 -138q-21 0 -36 5z" />
    <glyph glyph-name="k" unicode="k" horiz-adv-x="379" 
d="M312 0l-162 218l-41 -50v-168h-49v702h49v-463l186 233h64l-179 -218l193 -254h-61z" />
    <glyph glyph-name="l" unicode="l" horiz-adv-x="195" 
d="M60 702h49v-607q0 -54 44 -54q15 0 28 5l5 -42q-16 -9 -47 -9q-41 0 -60 22t-19 70v615z" />
    <glyph glyph-name="m" unicode="m" horiz-adv-x="647" 
d="M458 481q62 0 99 -44t37 -124v-313h-49v306q0 63 -25.5 95.5t-69.5 32.5q-46 0 -72.5 -33t-26.5 -92v-309h-49v307q0 63 -25.5 95t-70.5 32t-71 -33t-26 -92v-309h-49v472h46v-60q31 69 113 69q87 0 119 -84q29 84 120 84z" />
    <glyph glyph-name="n" unicode="n" horiz-adv-x="425" 
d="M230 481q65 0 104 -45.5t39 -129.5v-306h-50v300q0 66 -28 100t-77 34q-51 0 -80 -35t-29 -98v-301h-49v472h46v-69q34 78 124 78z" />
    <glyph glyph-name="o" unicode="o" horiz-adv-x="434" 
d="M217 -11q-84 0 -134 67t-50 180q0 112 50 179t134 67t134 -67t50 -179q0 -113 -50 -180t-134 -67zM217 37q62 0 98.5 54t36.5 145t-36.5 144.5t-98.5 53.5t-98.5 -53.5t-36.5 -144.5t36.5 -145t98.5 -54z" />
    <glyph glyph-name="p" unicode="p" horiz-adv-x="447" 
d="M241 481q79 0 126.5 -66.5t47.5 -178.5t-47.5 -178.5t-126.5 -66.5q-93 0 -132 91v-257h-49v647h46v-94q38 103 135 103zM234 38q59 0 95 54t36 144t-36 144t-95 54t-92 -53t-33 -145t33 -145t92 -53z" />
    <glyph glyph-name="q" unicode="q" horiz-adv-x="447" 
d="M341 472h47v-647h-49v259q-39 -93 -133 -93q-79 0 -126 66.5t-47 178.5t47 178.5t126 66.5q99 0 135 -103v94zM213 38q59 0 92.5 53t33.5 145t-33.5 145t-92.5 53t-95 -54t-36 -144t36 -144t95 -54z" />
    <glyph glyph-name="r" unicode="r" horiz-adv-x="261" 
d="M209 478q26 0 43 -8l-5 -49q-21 8 -40 8q-46 0 -72 -37t-26 -109v-283h-49v472h46v-70q31 76 103 76z" />
    <glyph glyph-name="s" unicode="s" horiz-adv-x="321" 
d="M24 15l11 49q44 -28 102 -28q49 0 77.5 23.5t28.5 62.5q0 33 -22 53.5t-53 32.5t-62 26t-53 43.5t-22 75.5q0 61 36 94.5t102 33.5q65 0 108 -26l-10 -49q-43 28 -98 28q-44 0 -66.5 -21t-22.5 -58q0 -34 22 -56t53 -33.5t62.5 -25.5t53.5 -42t22 -72q0 -64 -42 -100.5
t-114 -36.5q-67 0 -113 26z" />
    <glyph glyph-name="t" unicode="t" horiz-adv-x="253" 
d="M229 49l6 -45q-25 -11 -59 -11q-50 0 -76.5 30t-26.5 86v315h-61v48h61v129l50 4v-133h109v-48h-109v-310q0 -74 60 -74q25 0 46 9z" />
    <glyph glyph-name="u" unicode="u" horiz-adv-x="425" 
d="M317 472h49v-472h-47v67q-35 -76 -123 -76q-65 0 -104 46t-39 129v306h49v-299q0 -66 28 -100t77 -34q51 0 80.5 34.5t29.5 97.5v301z" />
    <glyph glyph-name="v" unicode="v" horiz-adv-x="382" 
d="M320 472h53l-154 -472h-56l-154 472h53l129 -411z" />
    <glyph glyph-name="w" unicode="w" horiz-adv-x="584" 
d="M523 472h51l-115 -472h-68l-99 411l-100 -411h-67l-115 472h51l98 -417l101 417h64l100 -417z" />
    <glyph glyph-name="x" unicode="x" horiz-adv-x="372" 
d="M366 0h-58l-121 213l-122 -213h-59l146 245l-135 227h59l111 -194l109 194h59l-134 -227z" />
    <glyph glyph-name="y" unicode="y" horiz-adv-x="377" 
d="M315 472h53l-158 -490q-31 -96 -62 -130t-77 -34q-21 0 -51 7l7 47q24 -7 44 -7q29 0 49 26.5t44 109.5l-155 471h53l127 -398z" />
    <glyph glyph-name="z" unicode="z" horiz-adv-x="358" 
d="M92 46h235v-46h-296v39l227 386h-219v47h280v-39z" />
    <glyph glyph-name="braceleft" unicode="{" horiz-adv-x="299" 
d="M152 398q0 -54 -21.5 -90t-50.5 -44q30 -9 51 -44.5t21 -89.5v-110q0 -72 29.5 -110.5t78.5 -38.5h21v-46h-22q-70 0 -113 48t-43 136v110q0 58 -23 91t-57 33v42q34 0 57 33t23 91v109q0 88 43 136t113 48h22v-46h-21q-49 0 -78.5 -38.5t-29.5 -110.5v-109z" />
    <glyph glyph-name="bar" unicode="|" horiz-adv-x="232" 
d="M91 702h50v-877h-50v877z" />
    <glyph glyph-name="braceright" unicode="}" horiz-adv-x="299" 
d="M196 409q0 -58 23 -91t56 -33v-42q-33 0 -56 -33t-23 -91v-110q0 -88 -43 -136t-113 -48h-22v46h20q49 0 78.5 38.5t29.5 110.5v110q0 54 21.5 89.5t51.5 44.5q-30 8 -51.5 44t-21.5 90v109q0 72 -29.5 110.5t-78.5 38.5h-20v46h22q70 0 113 -48t43 -136v-109z" />
    <glyph glyph-name="asciitilde" unicode="~" horiz-adv-x="428" 
d="M40 170q0 81 26 129.5t74 48.5q27 0 49.5 -20t35 -43.5t30 -43.5t35.5 -20q26 0 40 34.5t14 92.5h44q0 -81 -25.5 -129.5t-73.5 -48.5q-27 0 -50 20t-35.5 43.5t-30 43.5t-35.5 20q-26 0 -40 -34.5t-14 -92.5h-44z" />
    <glyph glyph-name="uni00A0" unicode="&#xa0;" horiz-adv-x="217" 
 />
    <glyph glyph-name="exclamdown" unicode="&#xa1;" horiz-adv-x="151" 
d="M75 482q17 0 28.5 -11.5t11.5 -28.5t-11.5 -28t-28.5 -11t-28 11t-11 28t11 28.5t28 11.5zM96 285l6 -460h-54l6 460h42z" />
    <glyph glyph-name="cent" unicode="&#xa2;" horiz-adv-x="420" 
d="M360 129q-38 -33 -91 -39v-90h-48v91q-73 11 -116.5 77t-43.5 168q0 101 43.5 166.5t116.5 76.5v88h48v-87q54 -6 90 -39l-10 -46q-33 32 -80 38v-395q47 6 80 38zM110 336q0 -79 30 -131.5t81 -64.5v391q-51 -12 -81 -64.5t-30 -130.5z" />
    <glyph glyph-name="sterling" unicode="&#xa3;" horiz-adv-x="420" 
d="M349 150l48 -10q-14 -71 -52.5 -105.5t-107.5 -34.5h-206v51h65q29 58 29 128q0 43 -19 130h-75v50h64q-18 81 -18 133q0 84 45.5 133.5t121.5 49.5q70 0 127 -46l-14 -48q-46 43 -107 43q-56 0 -88.5 -36.5t-32.5 -99.5q0 -44 17 -129h130v-50h-119q17 -85 17 -130
q0 -70 -29 -128h89q51 0 78.5 24t36.5 75z" />
    <glyph glyph-name="currency" unicode="&#xa4;" horiz-adv-x="420" 
d="M372 334q0 -76 -32 -130l62 -78l-34 -36l-60 75q-41 -38 -98 -38q-56 0 -99 38l-60 -75l-33 36l62 77q-32 56 -32 131q0 76 32 130l-62 78l33 36l60 -75q43 38 99 38q57 0 98 -38l60 75l34 -36l-62 -78q32 -54 32 -130zM210 178q51 0 83 43.5t32 112.5t-32 112.5
t-83 43.5t-83 -43.5t-32 -112.5t32 -112.5t83 -43.5z" />
    <glyph glyph-name="yen" unicode="&#xa5;" horiz-adv-x="420" 
d="M414 667l-169 -319h128v-49h-137v-83h137v-49h-137v-167h-52v167h-136v49h136v83h-136v49h127l-170 319h61l144 -280l143 280h61z" />
    <glyph glyph-name="brokenbar" unicode="&#xa6;" horiz-adv-x="232" 
d="M91 702h50v-329h-50v329zM91 154h50v-329h-50v329z" />
    <glyph glyph-name="section" unicode="&#xa7;" horiz-adv-x="377" 
d="M232 120q95 -38 95 -140q0 -77 -48.5 -121t-132.5 -44q-71 0 -122 28l11 49q49 -30 111 -30t97 31t35 83q0 44 -26 70.5t-63.5 40.5t-75 30t-63.5 52t-26 94q0 61 30 99t85 47q-94 41 -94 147q0 72 42.5 113.5t117.5 41.5q66 0 117 -28l-9 -48q-49 29 -108 29
q-54 0 -82.5 -28.5t-28.5 -77.5q0 -47 26.5 -75t64 -42.5t74.5 -29.5t63.5 -49.5t26.5 -89.5q0 -60 -31 -99.5t-86 -52.5zM73 265q0 -55 32 -83t82 -28q52 0 82 31t30 84q0 49 -33 76t-90 27q-50 0 -76.5 -28.5t-26.5 -78.5z" />
    <glyph glyph-name="dieresis" unicode="&#xa8;" horiz-adv-x="290" 
d="M91 601q-17 0 -27.5 11t-10.5 28t10.5 28t27.5 11q16 0 26.5 -11t10.5 -28t-10.5 -28t-26.5 -11zM200 601q-17 0 -27.5 11t-10.5 28t10.5 28t27.5 11q16 0 26.5 -11t10.5 -28t-10.5 -28t-26.5 -11z" />
    <glyph glyph-name="copyright" unicode="&#xa9;" horiz-adv-x="597" 
d="M299 -12q-119 0 -193.5 96t-74.5 250q0 153 74.5 249t193.5 96q118 0 192.5 -96t74.5 -249q0 -154 -74.5 -250t-192.5 -96zM299 27q100 0 163.5 85t63.5 222q0 136 -63.5 221t-163.5 85q-101 0 -164.5 -85t-63.5 -221q0 -137 63.5 -222t164.5 -85zM312 136
q-71 0 -113.5 53t-42.5 144t42.5 144.5t113.5 53.5q56 0 94 -32l-11 -42q-36 31 -83 31q-54 0 -85.5 -41.5t-31.5 -113.5q0 -71 31.5 -112.5t85.5 -41.5q47 0 82 30l12 -42q-42 -31 -94 -31z" />
    <glyph glyph-name="ordfeminine" unicode="&#xaa;" horiz-adv-x="263" 
d="M119 674q52 0 80.5 -31.5t28.5 -89.5v-217h-38v44q-26 -52 -84 -52q-43 0 -66.5 27t-23.5 74q0 49 26.5 76.5t73.5 27.5q39 0 71 -16v32q0 83 -75 83q-39 0 -72 -25l-8 38q38 29 87 29zM116 365q33 0 52 25.5t19 71.5v20q-28 14 -61 14t-51 -17.5t-18 -49.5q0 -30 15 -47
t44 -17z" />
    <glyph glyph-name="guillemotleft" unicode="&#xab;" horiz-adv-x="408" 
d="M204 439l-127 -179l127 -179h-62l-127 179l127 179h62zM377 439l-127 -179l127 -179h-62l-127 179l127 179h62z" />
    <glyph glyph-name="logicalnot" unicode="&#xac;" horiz-adv-x="418" 
d="M35 413h348v-352h-44v306h-304v46z" />
    <glyph glyph-name="uni00AD" unicode="&#xad;" horiz-adv-x="236" 
d="M30 285h177v-50h-177v50z" />
    <glyph glyph-name="registered" unicode="&#xae;" horiz-adv-x="285" 
d="M143 679q50 0 86 -46t36 -111q0 -64 -36 -110t-86 -46q-51 0 -87 45.5t-36 110.5t36 111t87 46zM143 391q42 0 72 38.5t30 92.5q0 55 -30 93.5t-72 38.5q-43 0 -72.5 -38.5t-29.5 -93.5q0 -54 29.5 -92.5t72.5 -38.5zM193 559q0 -40 -32 -51l40 -74h-25l-38 72h-22v-72
h-21v177h50q22 0 35 -14.5t13 -37.5zM116 587v-57h29q27 0 27 29q0 28 -27 28h-29z" />
    <glyph glyph-name="macron" unicode="&#xaf;" horiz-adv-x="295" 
d="M40 658h215v-42h-215v42z" />
    <glyph glyph-name="degree" unicode="&#xb0;" horiz-adv-x="242" 
d="M121 434q-42 0 -68 32.5t-26 86.5t26 87t68 33t68 -33t26 -87t-26 -86.5t-68 -32.5zM121 469q26 0 42.5 23.5t16.5 60.5q0 39 -16.5 62t-42.5 23t-42.5 -23t-16.5 -62q0 -37 16.5 -60.5t42.5 -23.5z" />
    <glyph glyph-name="plusminus" unicode="&#xb1;" horiz-adv-x="418" 
d="M231 338h152v-46h-152v-180h-44v180h-152v46h152v179h44v-179zM35 4v46h348v-46h-348z" />
    <glyph glyph-name="uni00B2" unicode="&#xb2;" horiz-adv-x="272" 
d="M66 446h173v-43h-222q4 47 22.5 84.5t42.5 62t47 46.5t39 48.5t16 57.5q0 36 -20 57t-54 21q-44 0 -78 -34l-13 40q39 37 93 37q51 0 82 -32.5t31 -88.5q0 -35 -14 -65t-35 -51.5t-43 -41.5t-41.5 -45.5t-25.5 -52.5z" />
    <glyph glyph-name="uni00B3" unicode="&#xb3;" horiz-adv-x="273" 
d="M156 615q70 -22 70 -101q0 -54 -35 -86t-94 -32q-47 0 -82 20l8 42q32 -19 72 -19q43 0 66.5 20.5t23.5 57.5t-24 57t-68 20h-22v40h22q39 0 59.5 19.5t20.5 54.5q0 34 -18.5 53t-52.5 19q-36 0 -68 -23l-8 38q36 28 80 28q49 0 78.5 -30.5t29.5 -80.5q0 -74 -58 -97z
" />
    <glyph glyph-name="acute" unicode="&#xb4;" horiz-adv-x="223" 
d="M40 563l85 131h58l-93 -131h-50z" />
    <glyph glyph-name="uni00B5" unicode="&#xb5;" horiz-adv-x="428" 
d="M406 43q8 0 18 2v-44q-12 -4 -30 -4q-34 0 -51.5 14t-21.5 47q-36 -67 -112 -67q-65 0 -100 47v-213h-49v647h49v-294q0 -69 27.5 -104.5t76.5 -35.5q50 0 78.5 36.5t28.5 100.5v297h49v-381q0 -27 8.5 -37.5t28.5 -10.5z" />
    <glyph glyph-name="paragraph" unicode="&#xb6;" horiz-adv-x="477" 
d="M386 667v-842h-49v794h-94v-794h-49v503h-25q-65 0 -103 46.5t-38 122.5q0 77 38 123.5t103 46.5h217z" />
    <glyph glyph-name="periodcentered" unicode="&#xb7;" horiz-adv-x="153" 
d="M76 219q-16 0 -27 11t-11 28t11 28.5t27 11.5q17 0 28 -11.5t11 -28.5t-11 -28t-28 -11z" />
    <glyph glyph-name="cedilla" unicode="&#xb8;" horiz-adv-x="205" 
d="M101 -48q29 0 46.5 -17.5t17.5 -48.5q0 -33 -20 -51t-53 -18q-32 0 -52 14l7 34q18 -13 40 -13q19 0 29.5 9.5t10.5 26.5q0 34 -36 34q-12 0 -21 -4l-12 6l16 76h28l-10 -48h9z" />
    <glyph glyph-name="uni00B9" unicode="&#xb9;" horiz-adv-x="277" 
d="M171 446h68v-43h-184v43h76v313l-77 -42l-9 41l120 66h6v-378z" />
    <glyph glyph-name="ordmasculine" unicode="&#xba;" horiz-adv-x="306" 
d="M153 328q-59 0 -94.5 47t-35.5 126t35.5 126t94.5 47t94 -47t35 -126t-35 -126t-94 -47zM153 372q41 0 65 35t24 94t-24 94t-65 35t-65 -35t-24 -94t24 -94t65 -35z" />
    <glyph glyph-name="guillemotright" unicode="&#xbb;" horiz-adv-x="408" 
d="M30 439h63l127 -179l-127 -179h-63l127 179zM204 439h62l127 -179l-127 -179h-62l126 179z" />
    <glyph glyph-name="onequarter" unicode="&#xbc;" horiz-adv-x="676" 
d="M239 253h-184v43h76v313l-77 -42l-9 41l120 66h6v-378h68v-43zM530 667h49l-391 -667h-50zM616 145h50v-41h-50v-104h-40v104h-158v41l136 269h62v-269zM460 145h116v229z" />
    <glyph glyph-name="onehalf" unicode="&#xbd;" horiz-adv-x="703" 
d="M239 253h-184v43h76v313l-77 -42l-9 41l120 66h6v-378h68v-43zM530 667h49l-391 -667h-50zM497 43h173v-43h-222q4 47 22.5 84.5t42.5 62t47 46.5t39 48.5t16 57.5q0 36 -20 57t-54 21q-44 0 -78 -34l-13 40q39 37 93 37q51 0 82 -32.5t31 -88.5q0 -35 -14 -65t-35 -51.5
t-43 -41.5t-41.5 -45.5t-25.5 -52.5z" />
    <glyph glyph-name="threequarters" unicode="&#xbe;" horiz-adv-x="664" 
d="M226 364q0 -54 -35 -86t-94 -32q-47 0 -82 20l8 42q32 -19 72 -19q43 0 66.5 20.5t23.5 57.5t-24 57t-68 20h-22v40h22q39 0 59.5 19.5t20.5 54.5q0 34 -18.5 53t-52.5 19q-36 0 -68 -23l-8 38q36 28 80 28q49 0 78.5 -30.5t29.5 -80.5q0 -74 -58 -97q70 -22 70 -101z
M518 667h49l-391 -667h-50zM604 145h50v-41h-50v-104h-40v104h-158v41l136 269h62v-269zM448 145h116v229z" />
    <glyph glyph-name="questiondown" unicode="&#xbf;" horiz-adv-x="350" 
d="M217 483q16 0 26.5 -11.5t10.5 -28.5t-10.5 -28.5t-26.5 -11.5t-26.5 11.5t-10.5 28.5t10.5 28.5t26.5 11.5zM242 303v-20q0 -45 -16 -82.5t-38.5 -64t-45 -51.5t-38.5 -56t-16 -67q0 -53 30.5 -84t82.5 -31q68 0 120 55l15 -49q-57 -57 -140 -57q-72 0 -116.5 44.5
t-44.5 119.5q0 45 16 81.5t39.5 62.5t46.5 50.5t39 57.5t16 71v20h50z" />
    <glyph glyph-name="Agrave" unicode="&#xc0;" horiz-adv-x="473" 
d="M288 723h-49l-94 131h58zM416 0l-65 220h-229l-65 -220h-55l202 667h65l202 -667h-55zM137 270h199l-99 338z" />
    <glyph glyph-name="Aacute" unicode="&#xc1;" horiz-adv-x="473" 
d="M329 854l-93 -131h-50l85 131h58zM416 0l-65 220h-229l-65 -220h-55l202 667h65l202 -667h-55zM137 270h199l-99 338z" />
    <glyph glyph-name="Acircumflex" unicode="&#xc2;" horiz-adv-x="473" 
d="M237 817l-58 -94h-47l76 131h57l76 -131h-47zM416 0l-65 220h-229l-65 -220h-55l202 667h65l202 -667h-55zM137 270h199l-99 338z" />
    <glyph glyph-name="Atilde" unicode="&#xc3;" horiz-adv-x="473" 
d="M187 802q-35 0 -35 -83h-38q0 58 18.5 93t52.5 35q19 0 35 -13t24.5 -28.5t20 -28.5t23.5 -13q35 0 35 83h38q0 -57 -18.5 -92.5t-52.5 -35.5q-19 0 -35 13t-24.5 28.5t-20 28.5t-23.5 13zM416 0l-65 220h-229l-65 -220h-55l202 667h65l202 -667h-55zM137 270h199
l-99 338z" />
    <glyph glyph-name="Adieresis" unicode="&#xc4;" horiz-adv-x="473" 
d="M183 728q-17 0 -27.5 11t-10.5 28t11 28.5t27 11.5t26.5 -11.5t10.5 -28.5t-10.5 -28t-26.5 -11zM292 728q-17 0 -27.5 11t-10.5 28t11 28.5t27 11.5t26.5 -11.5t10.5 -28.5t-10.5 -28t-26.5 -11zM416 0l-65 220h-229l-65 -220h-55l202 667h65l202 -667h-55zM137 270h199
l-99 338z" />
    <glyph glyph-name="Aring" unicode="&#xc5;" horiz-adv-x="473" 
d="M236 708q-39 0 -64 26t-25 67t25 67.5t64 26.5t64.5 -26.5t25.5 -67.5q0 -40 -25.5 -66.5t-64.5 -26.5zM236 866q-26 0 -43.5 -18.5t-17.5 -46.5t17.5 -47t43.5 -19q28 0 45 18.5t17 47.5t-17 47t-45 18zM416 0l-65 220h-229l-65 -220h-55l202 667h65l202 -667h-55z
M137 270h199l-99 338z" />
    <glyph glyph-name="AE" unicode="&#xc6;" horiz-adv-x="648" 
d="M623 616h-285l17 -249h214v-50h-210l18 -266h246v-51h-295l-16 220h-180l-85 -220h-59l260 667h375v-51zM151 270h158l-24 345z" />
    <glyph glyph-name="Ccedilla" unicode="&#xc7;" horiz-adv-x="497" 
d="M309 -12l-8 -37h9q29 0 46.5 -17.5t17.5 -48.5q0 -33 -20 -51t-53 -18q-32 0 -52 14l7 34q18 -13 40 -13q19 0 29.5 9.5t10.5 26.5q0 34 -36 34q-12 0 -21 -4l-12 6l14 66q-112 11 -177.5 103t-65.5 241q0 159 73.5 252.5t197.5 93.5q95 0 160 -54l-13 -50
q-64 53 -147 53q-101 0 -160 -79.5t-59 -215.5q0 -135 59 -214.5t160 -79.5q85 0 146 52l14 -49q-66 -54 -160 -54z" />
    <glyph glyph-name="Egrave" unicode="&#xc8;" horiz-adv-x="417" 
d="M283 723h-49l-94 131h58zM392 616h-269v-249h215v-50h-215v-266h269v-51h-321v667h321v-51z" />
    <glyph glyph-name="Eacute" unicode="&#xc9;" horiz-adv-x="417" 
d="M181 723l85 131h58l-93 -131h-50zM392 616h-269v-249h215v-50h-215v-266h269v-51h-321v667h321v-51z" />
    <glyph glyph-name="Ecircumflex" unicode="&#xca;" horiz-adv-x="417" 
d="M232 817l-58 -94h-47l76 131h57l76 -131h-47zM392 616h-269v-249h215v-50h-215v-266h269v-51h-321v667h321v-51z" />
    <glyph glyph-name="Edieresis" unicode="&#xcb;" horiz-adv-x="417" 
d="M178 728q-17 0 -27.5 11t-10.5 28t11 28.5t27 11.5t26.5 -11.5t10.5 -28.5t-10.5 -28t-26.5 -11zM287 728q-17 0 -27.5 11t-10.5 28t11 28.5t27 11.5t26.5 -11.5t10.5 -28.5t-10.5 -28t-26.5 -11zM392 616h-269v-249h215v-50h-215v-266h269v-51h-321v667h321v-51z" />
    <glyph glyph-name="Igrave" unicode="&#xcc;" horiz-adv-x="194" 
d="M148 723h-49l-94 131h58zM71 667h52v-667h-52v667z" />
    <glyph glyph-name="Iacute" unicode="&#xcd;" horiz-adv-x="194" 
d="M46 723l85 131h58l-93 -131h-50zM71 667h52v-667h-52v667z" />
    <glyph glyph-name="Icircumflex" unicode="&#xce;" horiz-adv-x="194" 
d="M125 854l76 -131h-47l-57 94l-58 -94h-47l76 131h57zM71 0v667h52v-667h-52z" />
    <glyph glyph-name="Idieresis" unicode="&#xcf;" horiz-adv-x="194" 
d="M43 728q-17 0 -27.5 11t-10.5 28t11 28.5t27 11.5t26.5 -11.5t10.5 -28.5t-10.5 -28t-26.5 -11zM152 728q-17 0 -27.5 11t-10.5 28t11 28.5t27 11.5t26.5 -11.5t10.5 -28.5t-10.5 -28t-26.5 -11zM71 667h52v-667h-52v667z" />
    <glyph glyph-name="Eth" unicode="&#xd0;" horiz-adv-x="534" 
d="M203 667q141 0 217.5 -91t76.5 -243t-76.5 -242.5t-217.5 -90.5h-132v313h-66v46h66v308h132zM203 51q117 0 178.5 76.5t61.5 205.5q0 130 -61.5 206.5t-178.5 76.5h-80v-257h147v-46h-147v-262h80z" />
    <glyph glyph-name="Ntilde" unicode="&#xd1;" horiz-adv-x="571" 
d="M235 802q-35 0 -35 -83h-38q0 58 18.5 93t52.5 35q19 0 35 -13t24.5 -28.5t20 -28.5t23.5 -13q35 0 35 83h38q0 -57 -18.5 -92.5t-52.5 -35.5q-19 0 -35 13t-24.5 28.5t-20 28.5t-23.5 13zM447 667h53v-667h-72l-305 595v-595h-52v667h72l304 -595v595z" />
    <glyph glyph-name="Ograve" unicode="&#xd2;" horiz-adv-x="599" 
d="M350 723h-49l-94 131h58zM299 -12q-119 0 -190 93.5t-71 251.5t71 252t190 94t190.5 -94t71.5 -252t-71.5 -251.5t-190.5 -93.5zM299 39q95 0 152 79.5t57 214.5t-57 215t-152 80t-152 -80t-57 -215t57 -214.5t152 -79.5z" />
    <glyph glyph-name="Oacute" unicode="&#xd3;" horiz-adv-x="599" 
d="M248 723l85 131h58l-93 -131h-50zM299 -12q-119 0 -190 93.5t-71 251.5t71 252t190 94t190.5 -94t71.5 -252t-71.5 -251.5t-190.5 -93.5zM299 39q95 0 152 79.5t57 214.5t-57 215t-152 80t-152 -80t-57 -215t57 -214.5t152 -79.5z" />
    <glyph glyph-name="Ocircumflex" unicode="&#xd4;" horiz-adv-x="599" 
d="M299 817l-58 -94h-47l76 131h57l76 -131h-47zM299 679q119 0 190.5 -94t71.5 -252t-71.5 -251.5t-190.5 -93.5t-190 93.5t-71 251.5t71 252t190 94zM299 39q95 0 152 79.5t57 214.5t-57 215t-152 80t-152 -80t-57 -215t57 -214.5t152 -79.5z" />
    <glyph glyph-name="Otilde" unicode="&#xd5;" horiz-adv-x="599" 
d="M176 719q0 58 18.5 93t52.5 35q19 0 35 -13t24.5 -28.5t20 -28.5t23.5 -13q35 0 35 83h38q0 -57 -18.5 -92.5t-52.5 -35.5q-19 0 -35 13t-24.5 28.5t-20 28.5t-23.5 13q-35 0 -35 -83h-38zM299 -12q-119 0 -190 93.5t-71 251.5t71 252t190 94t190.5 -94t71.5 -252
t-71.5 -251.5t-190.5 -93.5zM299 39q95 0 152 79.5t57 214.5t-57 215t-152 80t-152 -80t-57 -215t57 -214.5t152 -79.5z" />
    <glyph glyph-name="Odieresis" unicode="&#xd6;" horiz-adv-x="599" 
d="M245 728q-17 0 -27.5 11t-10.5 28t11 28.5t27 11.5t26.5 -11.5t10.5 -28.5t-10.5 -28t-26.5 -11zM354 728q-17 0 -27.5 11t-10.5 28t11 28.5t27 11.5t26.5 -11.5t10.5 -28.5t-10.5 -28t-26.5 -11zM299 -12q-119 0 -190 93.5t-71 251.5t71 252t190 94t190.5 -94t71.5 -252
t-71.5 -251.5t-190.5 -93.5zM299 39q95 0 152 79.5t57 214.5t-57 215t-152 80t-152 -80t-57 -215t57 -214.5t152 -79.5z" />
    <glyph glyph-name="multiply" unicode="&#xd7;" horiz-adv-x="418" 
d="M354 416l-118 -156l118 -156l-35 -27l-110 146l-110 -146l-35 27l117 156l-117 156l34 27l111 -147l110 147z" />
    <glyph glyph-name="Oslash" unicode="&#xd8;" horiz-adv-x="599" 
d="M485 591q76 -95 76 -258q0 -158 -71.5 -251.5t-190.5 -93.5q-92 0 -159 59l-35 -56l-33 21l41 64q-75 94 -75 257q0 158 71 252t190 94q92 0 159 -59l34 54l33 -21zM90 333q0 -129 53 -209l286 450q-54 54 -130 54q-95 0 -152 -80t-57 -215zM299 39q95 0 152 79.5
t57 214.5q0 131 -53 209l-286 -450q55 -53 130 -53z" />
    <glyph glyph-name="Ugrave" unicode="&#xd9;" horiz-adv-x="492" 
d="M297 723h-49l-94 131h58zM246 -11q-92 0 -141 58t-49 164v456h52v-450q0 -178 138 -178t138 178v450h53v-456q0 -106 -49.5 -164t-141.5 -58z" />
    <glyph glyph-name="Uacute" unicode="&#xda;" horiz-adv-x="492" 
d="M195 723l85 131h58l-93 -131h-50zM246 -11q-92 0 -141 58t-49 164v456h52v-450q0 -178 138 -178t138 178v450h53v-456q0 -106 -49.5 -164t-141.5 -58z" />
    <glyph glyph-name="Ucircumflex" unicode="&#xdb;" horiz-adv-x="492" 
d="M246 817l-58 -94h-47l76 131h57l76 -131h-47zM384 667h53v-456q0 -106 -49.5 -164t-141.5 -58t-141 58t-49 164v456h52v-450q0 -178 138 -178t138 178v450z" />
    <glyph glyph-name="Udieresis" unicode="&#xdc;" horiz-adv-x="492" 
d="M192 728q-17 0 -27.5 11t-10.5 28t11 28.5t27 11.5t26.5 -11.5t10.5 -28.5t-10.5 -28t-26.5 -11zM301 728q-17 0 -27.5 11t-10.5 28t11 28.5t27 11.5t26.5 -11.5t10.5 -28.5t-10.5 -28t-26.5 -11zM246 -11q-92 0 -141 58t-49 164v456h52v-450q0 -178 138 -178t138 178
v450h53v-456q0 -106 -49.5 -164t-141.5 -58z" />
    <glyph glyph-name="Yacute" unicode="&#xdd;" horiz-adv-x="451" 
d="M175 723l85 131h58l-93 -131h-50zM200 0v291l-204 376h66l164 -317l164 317h65l-203 -376v-291h-52z" />
    <glyph glyph-name="Thorn" unicode="&#xde;" horiz-adv-x="468" 
d="M233 544q96 0 151.5 -55.5t55.5 -146.5q0 -90 -56 -146t-151 -56h-102v-140h-52v667h52v-123h102zM233 191q72 0 113 41t41 110t-41 110t-113 41h-102v-302h102z" />
    <glyph glyph-name="germandbls" unicode="&#xdf;" horiz-adv-x="445" 
d="M289 372q55 -18 86 -66.5t31 -116.5q0 -89 -48.5 -144t-126.5 -55q-48 0 -83 19l10 45q32 -17 70 -17q58 0 93.5 41.5t35.5 110.5q0 70 -38 112t-100 42h-37v47h31q53 0 85.5 39.5t32.5 103.5q0 59 -30 94.5t-80 35.5q-53 0 -82.5 -41t-29.5 -123v-499h-49v500
q0 104 41.5 157t117.5 53q72 0 115.5 -48t43.5 -128q0 -57 -23.5 -99.5t-65.5 -62.5z" />
    <glyph glyph-name="agrave" unicode="&#xe0;" horiz-adv-x="447" 
d="M278 563h-49l-94 131h58zM206 -9q-79 0 -126 66.5t-47 178.5t47 178.5t126 66.5q99 0 135 -103v94h47v-472h-47v94q-37 -103 -135 -103zM213 38q59 0 92.5 53t33.5 145t-33.5 145t-92.5 53t-95 -54t-36 -144t36 -144t95 -54z" />
    <glyph glyph-name="aacute" unicode="&#xe1;" horiz-adv-x="447" 
d="M165 563l85 131h58l-93 -131h-50zM206 -9q-79 0 -126 66.5t-47 178.5t47 178.5t126 66.5q99 0 135 -103v94h47v-472h-47v94q-37 -103 -135 -103zM213 38q59 0 92.5 53t33.5 145t-33.5 145t-92.5 53t-95 -54t-36 -144t36 -144t95 -54z" />
    <glyph glyph-name="acircumflex" unicode="&#xe2;" horiz-adv-x="447" 
d="M222 657l-58 -94h-47l76 131h57l76 -131h-47zM341 472h47v-472h-47v94q-37 -103 -135 -103q-79 0 -126 66.5t-47 178.5t47 178.5t126 66.5q99 0 135 -103v94zM213 38q59 0 92.5 53t33.5 145t-33.5 145t-92.5 53t-95 -54t-36 -144t36 -144t95 -54z" />
    <glyph glyph-name="atilde" unicode="&#xe3;" horiz-adv-x="447" 
d="M99 559q0 58 18.5 93t52.5 35q19 0 35 -13t24.5 -28.5t20 -28.5t23.5 -13q35 0 35 83h38q0 -57 -18.5 -92.5t-52.5 -35.5q-19 0 -35 13t-24.5 28.5t-20 28.5t-23.5 13q-35 0 -35 -83h-38zM206 -9q-79 0 -126 66.5t-47 178.5t47 178.5t126 66.5q99 0 135 -103v94h47v-472
h-47v94q-37 -103 -135 -103zM213 38q59 0 92.5 53t33.5 145t-33.5 145t-92.5 53t-95 -54t-36 -144t36 -144t95 -54z" />
    <glyph glyph-name="adieresis" unicode="&#xe4;" horiz-adv-x="447" 
d="M167 601q-17 0 -27.5 11t-10.5 28t10.5 28t27.5 11q16 0 26.5 -11t10.5 -28t-10.5 -28t-26.5 -11zM276 601q-17 0 -27.5 11t-10.5 28t10.5 28t27.5 11q16 0 26.5 -11t10.5 -28t-10.5 -28t-26.5 -11zM206 -9q-79 0 -126 66.5t-47 178.5t47 178.5t126 66.5q99 0 135 -103
v94h47v-472h-47v94q-37 -103 -135 -103zM213 38q59 0 92.5 53t33.5 145t-33.5 145t-92.5 53t-95 -54t-36 -144t36 -144t95 -54z" />
    <glyph glyph-name="aring" unicode="&#xe5;" horiz-adv-x="447" 
d="M222 547q-39 0 -64 26t-25 67t25 67.5t64 26.5t64.5 -26.5t25.5 -67.5q0 -40 -25.5 -66.5t-64.5 -26.5zM222 574q28 0 45 18.5t17 47.5t-17 47t-45 18q-26 0 -43.5 -18.5t-17.5 -46.5t17.5 -47t43.5 -19zM206 -9q-79 0 -126 66.5t-47 178.5t47 178.5t126 66.5
q99 0 135 -103v94h47v-472h-47v94q-37 -103 -135 -103zM213 38q59 0 92.5 53t33.5 145t-33.5 145t-92.5 53t-95 -54t-36 -144t36 -144t95 -54z" />
    <glyph glyph-name="ae" unicode="&#xe6;" horiz-adv-x="635" 
d="M602 245q0 -18 -1 -26h-281q4 -86 42 -134.5t100 -48.5q67 0 115 40l12 -43q-52 -44 -128 -44q-117 0 -161 118q-15 -57 -52 -87.5t-91 -30.5q-62 0 -97.5 37t-35.5 101q0 139 164 139h84v42q0 61 -28.5 93.5t-81.5 32.5q-58 0 -106 -39l-9 45q53 41 121 41
q111 0 137 -96q42 96 135 96q74 0 118 -64t44 -172zM440 435q-50 0 -82 -45t-37 -124h232q-2 78 -32.5 123.5t-80.5 45.5zM160 35q52 0 82 40t30 114v30h-83q-63 0 -89.5 -23.5t-26.5 -68.5q0 -44 22 -68t65 -24z" />
    <glyph glyph-name="ccedilla" unicode="&#xe7;" horiz-adv-x="354" 
d="M212 -49q29 0 46.5 -17.5t17.5 -48.5q0 -33 -20 -51t-53 -18q-32 0 -52 14l7 34q18 -13 40 -13q19 0 29.5 9.5t10.5 26.5q0 34 -36 34q-12 0 -21 -4l-12 6l15 70q-69 14 -110 79.5t-41 163.5q0 111 51.5 178t135.5 67q66 0 111 -40l-10 -46q-41 39 -99 39
q-64 0 -102 -54.5t-38 -143.5q0 -90 38 -144.5t102 -54.5q57 0 99 39l11 -47q-46 -40 -112 -40h-9l-8 -38h9z" />
    <glyph glyph-name="egrave" unicode="&#xe8;" horiz-adv-x="408" 
d="M260 563h-49l-94 131h58zM375 245q0 -20 -1 -28h-292q4 -86 43 -133.5t102 -47.5q73 0 122 43l12 -42q-53 -48 -136 -48q-88 0 -140 66t-52 181q0 113 46.5 179t124.5 66t124.5 -64t46.5 -172zM205 435q-52 0 -84.5 -45.5t-37.5 -125.5h243q-2 78 -34.5 124.5t-86.5 46.5
z" />
    <glyph glyph-name="eacute" unicode="&#xe9;" horiz-adv-x="408" 
d="M290 694l-93 -131h-50l85 131h58zM375 245q0 -20 -1 -28h-292q4 -86 43 -133.5t102 -47.5q73 0 122 43l12 -42q-53 -48 -136 -48q-88 0 -140 66t-52 181q0 113 46.5 179t124.5 66t124.5 -64t46.5 -172zM205 435q-52 0 -84.5 -45.5t-37.5 -125.5h243q-2 78 -34.5 124.5
t-86.5 46.5z" />
    <glyph glyph-name="ecircumflex" unicode="&#xea;" horiz-adv-x="408" 
d="M204 657l-58 -94h-47l76 131h57l76 -131h-47zM375 245q0 -20 -1 -28h-292q4 -86 43 -133.5t102 -47.5q73 0 122 43l12 -42q-53 -48 -136 -48q-88 0 -140 66t-52 181q0 113 46.5 179t124.5 66t124.5 -64t46.5 -172zM205 435q-52 0 -84.5 -45.5t-37.5 -125.5h243
q-2 78 -34.5 124.5t-86.5 46.5z" />
    <glyph glyph-name="edieresis" unicode="&#xeb;" horiz-adv-x="408" 
d="M149 601q-17 0 -27.5 11t-10.5 28t10.5 28t27.5 11q16 0 26.5 -11t10.5 -28t-10.5 -28t-26.5 -11zM258 601q-17 0 -27.5 11t-10.5 28t10.5 28t27.5 11q16 0 26.5 -11t10.5 -28t-10.5 -28t-26.5 -11zM375 245q0 -20 -1 -28h-292q4 -86 43 -133.5t102 -47.5q73 0 122 43
l12 -42q-53 -48 -136 -48q-88 0 -140 66t-52 181q0 113 46.5 179t124.5 66t124.5 -64t46.5 -172zM205 435q-52 0 -84.5 -45.5t-37.5 -125.5h243q-2 78 -34.5 124.5t-86.5 46.5z" />
    <glyph glyph-name="igrave" unicode="&#xec;" horiz-adv-x="169" 
d="M140 563h-49l-94 131h58zM60 472h49v-472h-49v472z" />
    <glyph glyph-name="iacute" unicode="&#xed;" horiz-adv-x="169" 
d="M27 563l85 131h58l-93 -131h-50zM60 472h49v-472h-49v472z" />
    <glyph glyph-name="icircumflex" unicode="&#xee;" horiz-adv-x="169" 
d="M112 694l76 -131h-47l-57 94l-58 -94h-47l76 131h57zM60 0v472h49v-472h-49z" />
    <glyph glyph-name="idieresis" unicode="&#xef;" horiz-adv-x="169" 
d="M25 601q-16 0 -26 11t-10 28t10 28t26 11t26 -11t10 -28t-10 -28t-26 -11zM141 601q-16 0 -26 11t-10 28t10 28t26 11t26 -11t10 -28t-10 -28t-26 -11zM60 472h49v-472h-49v472z" />
    <glyph glyph-name="eth" unicode="&#xf0;" horiz-adv-x="435" 
d="M281 618q121 -162 121 -385q0 -113 -50 -178t-134 -65q-85 0 -135 63t-50 170q0 106 48.5 169t129.5 63q79 0 126 -63q-28 110 -98 200l-116 -74l-8 39l100 64q-27 30 -62 57l43 29q34 -28 61 -59l73 47l9 -40zM218 37q62 0 98.5 50.5t36.5 135.5t-36.5 136t-98.5 51
t-99 -50.5t-37 -136.5q0 -85 37 -135.5t99 -50.5z" />
    <glyph glyph-name="ntilde" unicode="&#xf1;" horiz-adv-x="425" 
d="M161 642q-35 0 -35 -83h-38q0 58 18.5 93t52.5 35q19 0 35 -13t24.5 -28.5t20 -28.5t23.5 -13q35 0 35 83h38q0 -57 -18.5 -92.5t-52.5 -35.5q-19 0 -35 13t-24.5 28.5t-20 28.5t-23.5 13zM230 481q65 0 104 -45.5t39 -129.5v-306h-50v300q0 66 -28 100t-77 34
q-51 0 -80 -35t-29 -98v-301h-49v472h46v-69q34 78 124 78z" />
    <glyph glyph-name="ograve" unicode="&#xf2;" horiz-adv-x="434" 
d="M273 563h-49l-94 131h58zM217 -11q-84 0 -134 67t-50 180q0 112 50 179t134 67t134 -67t50 -179q0 -113 -50 -180t-134 -67zM217 37q62 0 98.5 54t36.5 145t-36.5 144.5t-98.5 53.5t-98.5 -53.5t-36.5 -144.5t36.5 -145t98.5 -54z" />
    <glyph glyph-name="oacute" unicode="&#xf3;" horiz-adv-x="434" 
d="M160 563l85 131h58l-93 -131h-50zM217 -11q-84 0 -134 67t-50 180q0 112 50 179t134 67t134 -67t50 -179q0 -113 -50 -180t-134 -67zM217 37q62 0 98.5 54t36.5 145t-36.5 144.5t-98.5 53.5t-98.5 -53.5t-36.5 -144.5t36.5 -145t98.5 -54z" />
    <glyph glyph-name="ocircumflex" unicode="&#xf4;" horiz-adv-x="434" 
d="M217 657l-58 -94h-47l76 131h57l76 -131h-47zM217 482q84 0 134 -67t50 -179q0 -113 -50 -180t-134 -67t-134 67t-50 180q0 112 50 179t134 67zM217 37q62 0 98.5 54t36.5 145t-36.5 144.5t-98.5 53.5t-98.5 -53.5t-36.5 -144.5t36.5 -145t98.5 -54z" />
    <glyph glyph-name="otilde" unicode="&#xf5;" horiz-adv-x="434" 
d="M94 559q0 58 18.5 93t52.5 35q19 0 35 -13t24.5 -28.5t20 -28.5t23.5 -13q35 0 35 83h38q0 -57 -18.5 -92.5t-52.5 -35.5q-19 0 -35 13t-24.5 28.5t-20 28.5t-23.5 13q-35 0 -35 -83h-38zM217 -11q-84 0 -134 67t-50 180q0 112 50 179t134 67t134 -67t50 -179
q0 -113 -50 -180t-134 -67zM217 37q62 0 98.5 54t36.5 145t-36.5 144.5t-98.5 53.5t-98.5 -53.5t-36.5 -144.5t36.5 -145t98.5 -54z" />
    <glyph glyph-name="odieresis" unicode="&#xf6;" horiz-adv-x="434" 
d="M162 601q-17 0 -27.5 11t-10.5 28t10.5 28t27.5 11q16 0 26.5 -11t10.5 -28t-10.5 -28t-26.5 -11zM271 601q-17 0 -27.5 11t-10.5 28t10.5 28t27.5 11q16 0 26.5 -11t10.5 -28t-10.5 -28t-26.5 -11zM217 -11q-84 0 -134 67t-50 180q0 112 50 179t134 67t134 -67t50 -179
q0 -113 -50 -180t-134 -67zM217 37q62 0 98.5 54t36.5 145t-36.5 144.5t-98.5 53.5t-98.5 -53.5t-36.5 -144.5t36.5 -145t98.5 -54z" />
    <glyph glyph-name="divide" unicode="&#xf7;" horiz-adv-x="418" 
d="M209 390q-15 0 -25 11.5t-10 28.5t10 28.5t25 11.5t25 -11.5t10 -28.5t-10 -28.5t-25 -11.5zM35 283h348v-45h-348v45zM209 51q-15 0 -25 11.5t-10 28.5t10 28.5t25 11.5t25 -11.5t10 -28.5t-10 -28.5t-25 -11.5z" />
    <glyph glyph-name="oslash" unicode="&#xf8;" horiz-adv-x="434" 
d="M351 415q50 -66 50 -179t-50 -180t-134 -67q-66 0 -111 42l-25 -39l-29 17l30 48q-49 68 -49 179q0 112 50 179t134 67q64 0 110 -40l25 39l30 -17zM82 236q0 -80 29 -133l189 296q-33 35 -83 35q-62 0 -98.5 -53.5t-36.5 -144.5zM217 37q62 0 98.5 54t36.5 145
q0 80 -30 134l-189 -297q34 -36 84 -36z" />
    <glyph glyph-name="ugrave" unicode="&#xf9;" horiz-adv-x="425" 
d="M266 563h-49l-94 131h58zM317 472h49v-472h-47v67q-35 -76 -123 -76q-65 0 -104 46t-39 129v306h49v-299q0 -66 28 -100t77 -34q51 0 80.5 34.5t29.5 97.5v301z" />
    <glyph glyph-name="uacute" unicode="&#xfa;" horiz-adv-x="425" 
d="M296 694l-93 -131h-50l85 131h58zM317 472h49v-472h-47v67q-35 -76 -123 -76q-65 0 -104 46t-39 129v306h49v-299q0 -66 28 -100t77 -34q51 0 80.5 34.5t29.5 97.5v301z" />
    <glyph glyph-name="ucircumflex" unicode="&#xfb;" horiz-adv-x="425" 
d="M210 657l-58 -94h-47l76 131h57l76 -131h-47zM317 472h49v-472h-47v67q-35 -76 -123 -76q-65 0 -104 46t-39 129v306h49v-299q0 -66 28 -100t77 -34q51 0 80.5 34.5t29.5 97.5v301z" />
    <glyph glyph-name="udieresis" unicode="&#xfc;" horiz-adv-x="425" 
d="M155 601q-17 0 -27.5 11t-10.5 28t10.5 28t27.5 11q16 0 26.5 -11t10.5 -28t-10.5 -28t-26.5 -11zM264 601q-17 0 -27.5 11t-10.5 28t10.5 28t27.5 11q16 0 26.5 -11t10.5 -28t-10.5 -28t-26.5 -11zM317 472h49v-472h-47v67q-35 -76 -123 -76q-65 0 -104 46t-39 129v306
h49v-299q0 -66 28 -100t77 -34q51 0 80.5 34.5t29.5 97.5v301z" />
    <glyph glyph-name="yacute" unicode="&#xfd;" horiz-adv-x="377" 
d="M275 694l-93 -131h-50l85 131h58zM315 472h53l-158 -490q-31 -96 -62 -130t-77 -34q-21 0 -51 7l7 47q24 -7 44 -7q29 0 49 26.5t44 109.5l-155 471h53l127 -398z" />
    <glyph glyph-name="thorn" unicode="&#xfe;" horiz-adv-x="447" 
d="M241 481q79 0 126.5 -66.5t47.5 -178.5t-47.5 -178.5t-126.5 -66.5q-93 0 -132 91v-257h-49v877h49v-312q39 91 132 91zM234 38q59 0 95 54t36 144t-36 144t-95 54t-92 -53t-33 -145t33 -145t92 -53z" />
    <glyph glyph-name="ydieresis" unicode="&#xff;" horiz-adv-x="377" 
d="M134 601q-17 0 -27.5 11t-10.5 28t10.5 28t27.5 11q16 0 26.5 -11t10.5 -28t-10.5 -28t-26.5 -11zM243 601q-17 0 -27.5 11t-10.5 28t10.5 28t27.5 11q16 0 26.5 -11t10.5 -28t-10.5 -28t-26.5 -11zM315 472h53l-158 -490q-31 -96 -62 -130t-77 -34q-21 0 -51 7l7 47
q24 -7 44 -7q29 0 49 26.5t44 109.5l-155 471h53l127 -398z" />
    <glyph glyph-name="Amacron" unicode="&#x100;" horiz-adv-x="473" 
d="M344 785v-42h-215v42h215zM416 0l-65 220h-229l-65 -220h-55l202 667h65l202 -667h-55zM137 270h199l-99 338z" />
    <glyph glyph-name="amacron" unicode="&#x101;" horiz-adv-x="447" 
d="M114 658h215v-42h-215v42zM206 -9q-79 0 -126 66.5t-47 178.5t47 178.5t126 66.5q99 0 135 -103v94h47v-472h-47v94q-37 -103 -135 -103zM213 38q59 0 92.5 53t33.5 145t-33.5 145t-92.5 53t-95 -54t-36 -144t36 -144t95 -54z" />
    <glyph glyph-name="Abreve" unicode="&#x102;" horiz-adv-x="473" 
d="M237 719q-44 0 -71 34t-27 91h40q0 -37 15.5 -58.5t42.5 -21.5t43 21.5t16 58.5h39q0 -57 -26.5 -91t-71.5 -34zM416 0l-65 220h-229l-65 -220h-55l202 667h65l202 -667h-55zM137 270h199l-99 338z" />
    <glyph glyph-name="abreve" unicode="&#x103;" horiz-adv-x="447" 
d="M281 684h39q0 -57 -26.5 -91t-71.5 -34q-44 0 -71 34t-27 91h40q0 -37 15.5 -58.5t42.5 -21.5t43 21.5t16 58.5zM206 -9q-79 0 -126 66.5t-47 178.5t47 178.5t126 66.5q99 0 135 -103v94h47v-472h-47v94q-37 -103 -135 -103zM213 38q59 0 92.5 53t33.5 145t-33.5 145
t-92.5 53t-95 -54t-36 -144t36 -144t95 -54z" />
    <glyph glyph-name="Aogonek" unicode="&#x104;" horiz-adv-x="473" 
d="M466 -133l8 -36q-22 -15 -53 -15q-29 0 -46 17.5t-17 48.5q0 54 58 118l-65 220h-229l-65 -220h-55l202 667h65l202 -667h-18q-55 -63 -55 -108q0 -36 33 -36q19 0 35 11zM137 270h199l-99 338z" />
    <glyph glyph-name="aogonek" unicode="&#x105;" horiz-adv-x="447" 
d="M401 -133l8 -36q-23 -15 -53 -15q-29 0 -46 17.5t-17 48.5q0 54 58 118h-10v94q-37 -103 -135 -103q-79 0 -126 66.5t-47 178.5t47 178.5t126 66.5q99 0 135 -103v94h47v-472q-55 -63 -55 -108q0 -36 33 -36q19 0 35 11zM213 38q59 0 92.5 53t33.5 145t-33.5 145
t-92.5 53t-95 -54t-36 -144t36 -144t95 -54z" />
    <glyph glyph-name="Cacute" unicode="&#x106;" horiz-adv-x="497" 
d="M246 723l85 131h58l-93 -131h-50zM309 -12q-124 0 -197.5 93t-73.5 252t73.5 252.5t197.5 93.5q95 0 160 -54l-13 -50q-64 53 -147 53q-101 0 -160 -79.5t-59 -215.5q0 -135 59 -214.5t160 -79.5q85 0 146 52l14 -49q-66 -54 -160 -54z" />
    <glyph glyph-name="cacute" unicode="&#x107;" horiz-adv-x="354" 
d="M142 563l85 131h58l-93 -131h-50zM220 -11q-84 0 -135.5 68t-51.5 179t51.5 178t135.5 67q66 0 111 -40l-10 -46q-41 39 -99 39q-64 0 -102 -54.5t-38 -143.5q0 -90 38 -144.5t102 -54.5q57 0 99 39l11 -47q-46 -40 -112 -40z" />
    <glyph glyph-name="Ccircumflex" unicode="&#x108;" horiz-adv-x="497" 
d="M297 817l-58 -94h-47l76 131h57l76 -131h-47zM309 39q85 0 146 52l14 -49q-66 -54 -160 -54q-124 0 -197.5 93t-73.5 252t73.5 252.5t197.5 93.5q95 0 160 -54l-13 -50q-64 53 -147 53q-101 0 -160 -79.5t-59 -215.5q0 -135 59 -214.5t160 -79.5z" />
    <glyph glyph-name="ccircumflex" unicode="&#x109;" horiz-adv-x="354" 
d="M199 657l-58 -94h-47l76 131h57l76 -131h-47zM321 76l11 -47q-46 -40 -112 -40q-84 0 -135.5 68t-51.5 179t51.5 178t135.5 67q66 0 111 -40l-10 -46q-41 39 -99 39q-64 0 -102 -54.5t-38 -143.5q0 -90 38 -144.5t102 -54.5q57 0 99 39z" />
    <glyph glyph-name="Cdotaccent" unicode="&#x10a;" horiz-adv-x="497" 
d="M297 728q-17 0 -27.5 11t-10.5 28t11 28.5t27 11.5q17 0 28 -11.5t11 -28.5t-11 -28t-28 -11zM309 -12q-124 0 -197.5 93t-73.5 252t73.5 252.5t197.5 93.5q95 0 160 -54l-13 -50q-64 53 -147 53q-101 0 -160 -79.5t-59 -215.5q0 -135 59 -214.5t160 -79.5q85 0 146 52
l14 -49q-66 -54 -160 -54z" />
    <glyph glyph-name="cdotaccent" unicode="&#x10b;" horiz-adv-x="354" 
d="M199 601q-17 0 -27.5 11t-10.5 28t10.5 28t27.5 11t28 -11t11 -28t-11 -28t-28 -11zM220 -11q-84 0 -135.5 68t-51.5 179t51.5 178t135.5 67q66 0 111 -40l-10 -46q-41 39 -99 39q-64 0 -102 -54.5t-38 -143.5q0 -90 38 -144.5t102 -54.5q57 0 99 39l11 -47
q-46 -40 -112 -40z" />
    <glyph glyph-name="Ccaron" unicode="&#x10c;" horiz-adv-x="497" 
d="M268 723l-76 131h47l58 -97l57 97h47l-76 -131h-57zM309 39q85 0 146 52l14 -49q-66 -54 -160 -54q-124 0 -197.5 93t-73.5 252t73.5 252.5t197.5 93.5q95 0 160 -54l-13 -50q-64 53 -147 53q-101 0 -160 -79.5t-59 -215.5q0 -135 59 -214.5t160 -79.5z" />
    <glyph glyph-name="ccaron" unicode="&#x10d;" horiz-adv-x="354" 
d="M170 563l-76 131h47l58 -97l57 97h47l-76 -131h-57zM321 76l11 -47q-46 -40 -112 -40q-84 0 -135.5 68t-51.5 179t51.5 178t135.5 67q66 0 111 -40l-10 -46q-41 39 -99 39q-64 0 -102 -54.5t-38 -143.5q0 -90 38 -144.5t102 -54.5q57 0 99 39z" />
    <glyph glyph-name="Dcaron" unicode="&#x10e;" horiz-adv-x="534" 
d="M231 723l-76 131h47l58 -97l57 97h47l-76 -131h-57zM203 667q141 0 217.5 -91t76.5 -243t-76.5 -242.5t-217.5 -90.5h-132v667h132zM203 51q117 0 178.5 76.5t61.5 205.5q0 130 -61.5 206.5t-178.5 76.5h-80v-565h80z" />
    <glyph glyph-name="dcaron" unicode="&#x10f;" horiz-adv-x="461" 
d="M339 388v314h49v-702h-47v94q-37 -103 -135 -103q-79 0 -126 66.5t-47 178.5t47 178.5t126 66.5q94 0 133 -93zM444 702h50l-36 -162h-37zM213 38q59 0 92.5 53t33.5 145t-33.5 145t-92.5 53t-95 -54t-36 -144t36 -144t95 -54z" />
    <glyph glyph-name="Dcroat" unicode="&#x110;" horiz-adv-x="534" 
d="M203 667q141 0 217.5 -91t76.5 -243t-76.5 -242.5t-217.5 -90.5h-132v313h-66v46h66v308h132zM203 51q117 0 178.5 76.5t61.5 205.5q0 130 -61.5 206.5t-178.5 76.5h-80v-257h147v-46h-147v-262h80z" />
    <glyph glyph-name="dcroat" unicode="&#x111;" horiz-adv-x="447" 
d="M434 627v-46h-46v-581h-47v94q-37 -103 -135 -103q-79 0 -126 66.5t-47 178.5t47 178.5t126 66.5q94 0 133 -93v193h-129v46h129v75h49v-75h46zM213 38q59 0 92.5 53t33.5 145t-33.5 145t-92.5 53t-95 -54t-36 -144t36 -144t95 -54z" />
    <glyph glyph-name="Emacron" unicode="&#x112;" horiz-adv-x="417" 
d="M124 785h215v-42h-215v42zM392 616h-269v-249h215v-50h-215v-266h269v-51h-321v667h321v-51z" />
    <glyph glyph-name="emacron" unicode="&#x113;" horiz-adv-x="408" 
d="M311 658v-42h-215v42h215zM375 245q0 -20 -1 -28h-292q4 -86 43 -133.5t102 -47.5q73 0 122 43l12 -42q-53 -48 -136 -48q-88 0 -140 66t-52 181q0 113 46.5 179t124.5 66t124.5 -64t46.5 -172zM205 435q-52 0 -84.5 -45.5t-37.5 -125.5h243q-2 78 -34.5 124.5
t-86.5 46.5z" />
    <glyph glyph-name="Ebreve" unicode="&#x114;" horiz-adv-x="417" 
d="M291 844h39q0 -57 -26.5 -91t-71.5 -34q-44 0 -71 34t-27 91h40q0 -37 15.5 -58.5t42.5 -21.5t43 21.5t16 58.5zM392 616h-269v-249h215v-50h-215v-266h269v-51h-321v667h321v-51z" />
    <glyph glyph-name="ebreve" unicode="&#x115;" horiz-adv-x="408" 
d="M204 559q-44 0 -71 34t-27 91h40q0 -37 15.5 -58.5t42.5 -21.5t43 21.5t16 58.5h39q0 -57 -26.5 -91t-71.5 -34zM375 245q0 -20 -1 -28h-292q4 -86 43 -133.5t102 -47.5q73 0 122 43l12 -42q-53 -48 -136 -48q-88 0 -140 66t-52 181q0 113 46.5 179t124.5 66t124.5 -64
t46.5 -172zM205 435q-52 0 -84.5 -45.5t-37.5 -125.5h243q-2 78 -34.5 124.5t-86.5 46.5z" />
    <glyph glyph-name="Edotaccent" unicode="&#x116;" horiz-adv-x="417" 
d="M232 728q-17 0 -27.5 11t-10.5 28t11 28.5t27 11.5q17 0 28 -11.5t11 -28.5t-11 -28t-28 -11zM392 616h-269v-249h215v-50h-215v-266h269v-51h-321v667h321v-51z" />
    <glyph glyph-name="edotaccent" unicode="&#x117;" horiz-adv-x="408" 
d="M204 601q-17 0 -27.5 11t-10.5 28t10.5 28t27.5 11t28 -11t11 -28t-11 -28t-28 -11zM375 245q0 -20 -1 -28h-292q4 -86 43 -133.5t102 -47.5q73 0 122 43l12 -42q-53 -48 -136 -48q-88 0 -140 66t-52 181q0 113 46.5 179t124.5 66t124.5 -64t46.5 -172zM205 435
q-52 0 -84.5 -45.5t-37.5 -125.5h243q-2 78 -34.5 124.5t-86.5 46.5z" />
    <glyph glyph-name="Eogonek" unicode="&#x118;" horiz-adv-x="417" 
d="M392 616h-269v-249h215v-50h-215v-266h269v-51h-21q-55 -63 -55 -108q0 -36 33 -36q19 0 35 11l8 -36q-22 -15 -53 -15q-29 0 -46 17.5t-17 48.5q0 54 58 118h-263v667h321v-51z" />
    <glyph glyph-name="eogonek" unicode="&#x119;" horiz-adv-x="408" 
d="M375 245q0 -20 -1 -28h-292q4 -86 43 -133.5t102 -47.5q71 0 122 44l12 -43q-92 -88 -92 -146q0 -35 34 -35q18 0 35 11l8 -36q-24 -16 -53 -16t-46 17.5t-17 48.5q0 52 59 118q-29 -10 -64 -10q-88 0 -140 66t-52 181q0 113 46.5 179t124.5 66t124.5 -64t46.5 -172z
M205 435q-52 0 -84.5 -45.5t-37.5 -125.5h243q-2 78 -34.5 124.5t-86.5 46.5z" />
    <glyph glyph-name="Ecaron" unicode="&#x11a;" horiz-adv-x="417" 
d="M203 723l-76 131h47l58 -97l57 97h47l-76 -131h-57zM392 616h-269v-249h215v-50h-215v-266h269v-51h-321v667h321v-51z" />
    <glyph glyph-name="ecaron" unicode="&#x11b;" horiz-adv-x="408" 
d="M175 563l-76 131h47l58 -97l57 97h47l-76 -131h-57zM375 245q0 -20 -1 -28h-292q4 -86 43 -133.5t102 -47.5q73 0 122 43l12 -42q-53 -48 -136 -48q-88 0 -140 66t-52 181q0 113 46.5 179t124.5 66t124.5 -64t46.5 -172zM205 435q-52 0 -84.5 -45.5t-37.5 -125.5h243
q-2 78 -34.5 124.5t-86.5 46.5z" />
    <glyph glyph-name="Gcircumflex" unicode="&#x11c;" horiz-adv-x="533" 
d="M297 817l-58 -94h-47l76 131h57l76 -131h-47zM297 335h183v-290q-68 -57 -174 -57q-123 0 -195.5 93t-72.5 252t73.5 252.5t197.5 93.5q95 0 160 -54l-13 -49q-64 53 -147 53q-100 0 -159.5 -80t-59.5 -216q0 -135 58.5 -214.5t157.5 -79.5q70 0 122 33v212h-131v51z" />
    <glyph glyph-name="gcircumflex" unicode="&#x11d;" horiz-adv-x="447" 
d="M224 657l-58 -94h-47l76 131h57l76 -131h-47zM341 472h47v-459q0 -94 -50 -145.5t-142 -51.5q-75 0 -140 35l12 48q57 -36 126 -36q71 0 108 40t37 116v77q-40 -94 -133 -94q-79 0 -126 65.5t-47 174.5t47 174t126 65q99 0 135 -103v94zM213 50q59 0 92.5 51t33.5 141
q0 89 -33.5 140.5t-92.5 51.5t-95 -52t-36 -140t36 -140t95 -52z" />
    <glyph glyph-name="Gbreve" unicode="&#x11e;" horiz-adv-x="533" 
d="M297 719q-44 0 -71 34t-27 91h40q0 -37 15.5 -58.5t42.5 -21.5t43 21.5t16 58.5h39q0 -57 -26.5 -91t-71.5 -34zM297 335h183v-290q-68 -57 -174 -57q-123 0 -195.5 93t-72.5 252t73.5 252.5t197.5 93.5q95 0 160 -54l-13 -49q-64 53 -147 53q-100 0 -159.5 -80
t-59.5 -216q0 -135 58.5 -214.5t157.5 -79.5q70 0 122 33v212h-131v51z" />
    <glyph glyph-name="gbreve" unicode="&#x11f;" horiz-adv-x="447" 
d="M224 559q-44 0 -71 34t-27 91h40q0 -37 15.5 -58.5t42.5 -21.5t43 21.5t16 58.5h39q0 -57 -26.5 -91t-71.5 -34zM341 472h47v-459q0 -94 -50 -145.5t-142 -51.5q-75 0 -140 35l12 48q57 -36 126 -36q71 0 108 40t37 116v77q-40 -94 -133 -94q-79 0 -126 65.5t-47 174.5
t47 174t126 65q99 0 135 -103v94zM213 50q59 0 92.5 51t33.5 141q0 89 -33.5 140.5t-92.5 51.5t-95 -52t-36 -140t36 -140t95 -52z" />
    <glyph glyph-name="Gdotaccent" unicode="&#x120;" horiz-adv-x="533" 
d="M297 728q-17 0 -27.5 11t-10.5 28t11 28.5t27 11.5q17 0 28 -11.5t11 -28.5t-11 -28t-28 -11zM297 335h183v-290q-68 -57 -174 -57q-123 0 -195.5 93t-72.5 252t73.5 252.5t197.5 93.5q95 0 160 -54l-13 -49q-64 53 -147 53q-100 0 -159.5 -80t-59.5 -216
q0 -135 58.5 -214.5t157.5 -79.5q70 0 122 33v212h-131v51z" />
    <glyph glyph-name="gdotaccent" unicode="&#x121;" horiz-adv-x="447" 
d="M224 601q-17 0 -27.5 11t-10.5 28t10.5 28t27.5 11t28 -11t11 -28t-11 -28t-28 -11zM341 472h47v-459q0 -94 -50 -145.5t-142 -51.5q-75 0 -140 35l12 48q57 -36 126 -36q71 0 108 40t37 116v77q-40 -94 -133 -94q-79 0 -126 65.5t-47 174.5t47 174t126 65q99 0 135 -103
v94zM213 50q59 0 92.5 51t33.5 141q0 89 -33.5 140.5t-92.5 51.5t-95 -52t-36 -140t36 -140t95 -52z" />
    <glyph glyph-name="uni0122" unicode="&#x122;" horiz-adv-x="533" 
d="M297 335h183v-290q-68 -57 -174 -57q-123 0 -195.5 93t-72.5 252t73.5 252.5t197.5 93.5q95 0 160 -54l-13 -49q-64 53 -147 53q-100 0 -159.5 -80t-59.5 -216q0 -135 58.5 -214.5t157.5 -79.5q70 0 122 33v212h-131v51zM247 -175l34 118h55l-44 -118h-45z" />
    <glyph glyph-name="uni0123" unicode="&#x123;" horiz-adv-x="447" 
d="M273 694l-44 -131h-55l54 131h45zM341 472h47v-459q0 -94 -50 -145.5t-142 -51.5q-75 0 -140 35l12 48q57 -36 126 -36q71 0 108 40t37 116v77q-40 -94 -133 -94q-79 0 -126 65.5t-47 174.5t47 174t126 65q99 0 135 -103v94zM213 50q59 0 92.5 51t33.5 141
q0 89 -33.5 140.5t-92.5 51.5t-95 -52t-36 -140t36 -140t95 -52z" />
    <glyph glyph-name="Hcircumflex" unicode="&#x124;" horiz-adv-x="529" 
d="M264 817l-58 -94h-47l76 131h57l76 -131h-47zM405 667h53v-667h-53v317h-282v-317h-52v667h52v-300h282v300z" />
    <glyph glyph-name="hcircumflex" unicode="&#x125;" horiz-adv-x="425" 
d="M211 852l-58 -94h-47l76 131h57l76 -131h-47zM231 481q65 0 103.5 -45.5t38.5 -129.5v-306h-50v300q0 66 -28 100t-77 34q-51 0 -80 -35t-29 -98v-301h-49v702h49v-293q35 72 122 72z" />
    <glyph glyph-name="Hbar" unicode="&#x126;" horiz-adv-x="529" 
d="M507 563v-47h-49v-516h-53v317h-282v-317h-52v516h-50v47h50v104h52v-104h282v104h53v-104h49zM405 367v149h-282v-149h282z" />
    <glyph glyph-name="hbar" unicode="&#x127;" horiz-adv-x="425" 
d="M231 481q65 0 103.5 -45.5t38.5 -129.5v-306h-50v300q0 66 -28 100t-77 34q-51 0 -80 -35t-29 -98v-301h-49v581h-46v46h46v75h49v-75h129v-46h-129v-172q35 72 122 72z" />
    <glyph glyph-name="Itilde" unicode="&#x128;" horiz-adv-x="194" 
d="M-26 719q0 58 18.5 93t52.5 35q19 0 35 -13t24.5 -28.5t20 -28.5t23.5 -13q35 0 35 83h38q0 -57 -18.5 -92.5t-52.5 -35.5q-19 0 -35 13t-24.5 28.5t-20 28.5t-23.5 13q-35 0 -35 -83h-38zM71 667h52v-667h-52v667z" />
    <glyph glyph-name="itilde" unicode="&#x129;" horiz-adv-x="169" 
d="M-23 559q0 58 16 93t45 35q16 0 29.5 -13t21 -28.5t17 -28.5t19.5 -13q28 0 28 83h36q0 -57 -16 -92.5t-45 -35.5q-16 0 -29.5 13t-21 28.5t-17 28.5t-19.5 13q-27 0 -27 -83h-37zM60 472h49v-472h-49v472z" />
    <glyph glyph-name="Imacron" unicode="&#x12a;" horiz-adv-x="194" 
d="M-11 785h215v-42h-215v42zM71 667h52v-667h-52v667z" />
    <glyph glyph-name="imacron" unicode="&#x12b;" horiz-adv-x="169" 
d="M-10 658h187v-42h-187v42zM60 472h49v-472h-49v472z" />
    <glyph glyph-name="Ibreve" unicode="&#x12c;" horiz-adv-x="194" 
d="M156 844h39q0 -57 -26.5 -91t-71.5 -34q-44 0 -71 34t-27 91h40q0 -37 15.5 -58.5t42.5 -21.5t43 21.5t16 58.5zM71 667h52v-667h-52v667z" />
    <glyph glyph-name="ibreve" unicode="&#x12d;" horiz-adv-x="169" 
d="M143 684h39q0 -57 -26.5 -91t-71.5 -34q-44 0 -71 34t-27 91h40q0 -37 15.5 -58.5t42.5 -21.5t43 21.5t16 58.5zM60 472h49v-472h-49v472z" />
    <glyph glyph-name="Iogonek" unicode="&#x12e;" horiz-adv-x="194" 
d="M136 -133l8 -36q-22 -15 -53 -15q-29 0 -46 17.5t-17 48.5q0 54 58 118h-15v667h52v-667q-55 -63 -55 -108q0 -36 33 -36q19 0 35 11z" />
    <glyph glyph-name="iogonek" unicode="&#x12f;" horiz-adv-x="169" 
d="M84 601q-17 0 -27.5 11t-10.5 28t10.5 28t27.5 11t28 -11t11 -28t-11 -28t-28 -11zM122 -133l8 -36q-23 -15 -53 -15q-29 0 -46 17.5t-17 48.5q0 54 58 118h-12v472h49v-472q-55 -63 -55 -108q0 -36 33 -36q19 0 35 11z" />
    <glyph glyph-name="Idotaccent" unicode="&#x130;" horiz-adv-x="194" 
d="M97 728q-17 0 -27.5 11t-10.5 28t11 28.5t27 11.5q17 0 28 -11.5t11 -28.5t-11 -28t-28 -11zM71 667h52v-667h-52v667z" />
    <glyph glyph-name="dotlessi" unicode="&#x131;" horiz-adv-x="169" 
d="M60 472h49v-472h-49v472z" />
    <glyph glyph-name="IJ" unicode="&#x132;" horiz-adv-x="454" 
d="M71 667h52v-667h-52v667zM260 -8q-34 0 -61 10l8 49q21 -8 47 -8q83 0 83 102v522h52v-528q0 -70 -34 -108.5t-95 -38.5z" />
    <glyph glyph-name="ij" unicode="&#x133;" horiz-adv-x="338" 
d="M84 601q-17 0 -27.5 11t-10.5 28q0 18 10.5 29t27.5 11t28 -11t11 -29q0 -17 -11 -28t-28 -11zM254 601q-17 0 -28 11t-11 28q0 18 11 29t28 11t27.5 -11t10.5 -29q0 -17 -11 -28t-27 -11zM60 472h49v-472h-49v472zM130 -174l4 46q16 -4 26 -4q69 0 69 98v506h49v-513
q0 -138 -112 -138q-21 0 -36 5z" />
    <glyph glyph-name="Jcircumflex" unicode="&#x134;" horiz-adv-x="260" 
d="M197 854l76 -131h-47l-57 94l-58 -94h-47l76 131h57zM143 145v522h52v-528q0 -70 -34 -108.5t-95 -38.5q-34 0 -61 10l8 49q21 -8 47 -8q83 0 83 102z" />
    <glyph glyph-name="jcircumflex" unicode="&#x135;" horiz-adv-x="169" 
d="M113 694l76 -131h-47l-57 94l-58 -94h-47l76 131h57zM60 -34v506h49v-513q0 -138 -112 -138q-21 0 -36 5l4 46q16 -4 26 -4q69 0 69 98z" />
    <glyph glyph-name="uni0136" unicode="&#x136;" horiz-adv-x="478" 
d="M213 353l257 -353h-65l-224 311l-58 -75v-236h-52v667h52v-349l268 349h66zM179 -175l34 118h55l-44 -118h-45z" />
    <glyph glyph-name="uni0137" unicode="&#x137;" horiz-adv-x="379" 
d="M180 254l193 -254h-61l-162 218l-41 -50v-168h-49v702h49v-463l186 233h64zM135 -175l34 118h55l-44 -118h-45z" />
    <glyph glyph-name="kgreenlandic" unicode="&#x138;" horiz-adv-x="379" 
d="M312 0l-162 218l-41 -50v-168h-49v472h49v-233l186 233h64l-179 -218l193 -254h-61z" />
    <glyph glyph-name="Lacute" unicode="&#x139;" horiz-adv-x="354" 
d="M83 723l85 131h58l-93 -131h-50zM71 0v667h52v-616h227v-51h-279z" />
    <glyph glyph-name="lacute" unicode="&#x13a;" horiz-adv-x="195" 
d="M41 758l85 131h58l-93 -131h-50zM60 702h49v-607q0 -54 44 -54q15 0 28 5l5 -42q-16 -9 -47 -9q-41 0 -60 22t-19 70v615z" />
    <glyph glyph-name="uni013B" unicode="&#x13b;" horiz-adv-x="354" 
d="M71 0v667h52v-616h227v-51h-279zM160 -175l34 118h55l-44 -118h-45z" />
    <glyph glyph-name="uni013C" unicode="&#x13c;" horiz-adv-x="195" 
d="M60 702h49v-607q0 -54 44 -54q15 0 28 5l5 -42q-16 -9 -47 -9q-41 0 -60 22t-19 70v615zM42 -175l34 118h55l-44 -118h-45z" />
    <glyph glyph-name="Lcaron" unicode="&#x13d;" horiz-adv-x="354" 
d="M71 0v667h52v-616h227v-51h-279zM177 505l23 162h50l-36 -162h-37z" />
    <glyph glyph-name="lcaron" unicode="&#x13e;" horiz-adv-x="195" 
d="M60 702h49v-607q0 -54 44 -54q15 0 28 5l5 -42q-16 -9 -47 -9q-41 0 -60 22t-19 70v615zM142 540l23 162h50l-36 -162h-37z" />
    <glyph glyph-name="Ldot" unicode="&#x13f;" horiz-adv-x="387" 
d="M71 0v667h52v-616h227v-51h-279zM301 324q-16 0 -27 11t-11 28t11 28.5t27 11.5q17 0 28 -11.5t11 -28.5t-11 -28t-28 -11z" />
    <glyph glyph-name="ldot" unicode="&#x140;" horiz-adv-x="276" 
d="M60 702h49v-607q0 -54 44 -54q15 0 28 5l5 -42q-16 -9 -47 -9q-41 0 -60 22t-19 70v615zM223 319q-16 0 -27 11t-11 28t11 28.5t27 11.5q17 0 28 -11.5t11 -28.5t-11 -28t-28 -11z" />
    <glyph glyph-name="Lslash" unicode="&#x141;" horiz-adv-x="354" 
d="M123 51h227v-51h-279v301l-61 -44v47l61 45v318h52v-280l139 102v-49l-139 -101v-288z" />
    <glyph glyph-name="lslash" unicode="&#x142;" horiz-adv-x="195" 
d="M181 46l5 -42q-16 -9 -47 -9q-41 0 -60 22t-19 70v281l-56 -41v50l56 41v284h49v-248l76 55v-49l-76 -56v-309q0 -54 44 -54q15 0 28 5z" />
    <glyph glyph-name="Nacute" unicode="&#x143;" horiz-adv-x="571" 
d="M377 854l-93 -131h-50l85 131h58zM447 667h53v-667h-72l-305 595v-595h-52v667h72l304 -595v595z" />
    <glyph glyph-name="nacute" unicode="&#x144;" horiz-adv-x="425" 
d="M297 694l-93 -131h-50l85 131h58zM230 481q65 0 104 -45.5t39 -129.5v-306h-50v300q0 66 -28 100t-77 34q-51 0 -80 -35t-29 -98v-301h-49v472h46v-69q34 78 124 78z" />
    <glyph glyph-name="uni0145" unicode="&#x145;" horiz-adv-x="571" 
d="M447 667h53v-667h-72l-305 595v-595h-52v667h72l304 -595v595zM235 -175l34 118h55l-44 -118h-45z" />
    <glyph glyph-name="uni0146" unicode="&#x146;" horiz-adv-x="425" 
d="M230 481q65 0 104 -45.5t39 -129.5v-306h-50v300q0 66 -28 100t-77 34q-51 0 -80 -35t-29 -98v-301h-49v472h46v-69q34 78 124 78zM161 -175l34 118h55l-44 -118h-45z" />
    <glyph glyph-name="Ncaron" unicode="&#x147;" horiz-adv-x="571" 
d="M256 723l-76 131h47l58 -97l57 97h47l-76 -131h-57zM447 667h53v-667h-72l-305 595v-595h-52v667h72l304 -595v595z" />
    <glyph glyph-name="ncaron" unicode="&#x148;" horiz-adv-x="425" 
d="M182 563l-76 131h47l58 -97l57 97h47l-76 -131h-57zM230 481q65 0 104 -45.5t39 -129.5v-306h-50v300q0 66 -28 100t-77 34q-51 0 -80 -35t-29 -98v-301h-49v472h46v-69q34 78 124 78z" />
    <glyph glyph-name="napostrophe" unicode="&#x149;" horiz-adv-x="554" 
d="M20 455l61 216l51 -12l-72 -214zM359 481q65 0 104 -45.5t39 -129.5v-306h-50v300q0 66 -28 100t-77 34q-51 0 -80 -35t-29 -98v-301h-49v472h46v-69q34 78 124 78z" />
    <glyph glyph-name="Eng" unicode="&#x14a;" horiz-adv-x="571" 
d="M447 667h53v-692q0 -76 -34 -117.5t-95 -41.5q-34 0 -62 10l9 49q23 -9 46 -9q83 0 83 115v24l-324 586v-591h-52v667h70l306 -560v560z" />
    <glyph glyph-name="eng" unicode="&#x14b;" horiz-adv-x="425" 
d="M230 481q65 0 104 -45.5t39 -129.5v-347q0 -138 -112 -138q-19 0 -36 5l4 46q14 -4 26 -4q68 0 68 98v334q0 66 -28 100t-77 34q-51 0 -80 -35t-29 -98v-301h-49v472h46v-69q34 78 124 78z" />
    <glyph glyph-name="Omacron" unicode="&#x14c;" horiz-adv-x="599" 
d="M191 785h215v-42h-215v42zM299 -12q-119 0 -190 93.5t-71 251.5t71 252t190 94t190.5 -94t71.5 -252t-71.5 -251.5t-190.5 -93.5zM299 39q95 0 152 79.5t57 214.5t-57 215t-152 80t-152 -80t-57 -215t57 -214.5t152 -79.5z" />
    <glyph glyph-name="omacron" unicode="&#x14d;" horiz-adv-x="434" 
d="M109 658h215v-42h-215v42zM217 -11q-84 0 -134 67t-50 180q0 112 50 179t134 67t134 -67t50 -179q0 -113 -50 -180t-134 -67zM217 37q62 0 98.5 54t36.5 145t-36.5 144.5t-98.5 53.5t-98.5 -53.5t-36.5 -144.5t36.5 -145t98.5 -54z" />
    <glyph glyph-name="Obreve" unicode="&#x14e;" horiz-adv-x="599" 
d="M358 844h39q0 -57 -26.5 -91t-71.5 -34q-44 0 -71 34t-27 91h40q0 -37 15.5 -58.5t42.5 -21.5t43 21.5t16 58.5zM299 -12q-119 0 -190 93.5t-71 251.5t71 252t190 94t190.5 -94t71.5 -252t-71.5 -251.5t-190.5 -93.5zM299 39q95 0 152 79.5t57 214.5t-57 215t-152 80
t-152 -80t-57 -215t57 -214.5t152 -79.5z" />
    <glyph glyph-name="obreve" unicode="&#x14f;" horiz-adv-x="434" 
d="M276 684h39q0 -57 -26.5 -91t-71.5 -34q-44 0 -71 34t-27 91h40q0 -37 15.5 -58.5t42.5 -21.5t43 21.5t16 58.5zM217 -11q-84 0 -134 67t-50 180q0 112 50 179t134 67t134 -67t50 -179q0 -113 -50 -180t-134 -67zM217 37q62 0 98.5 54t36.5 145t-36.5 144.5t-98.5 53.5
t-98.5 -53.5t-36.5 -144.5t36.5 -145t98.5 -54z" />
    <glyph glyph-name="Ohungarumlaut" unicode="&#x150;" horiz-adv-x="599" 
d="M200 723l85 131h56l-93 -131h-48zM307 723l86 131h56l-94 -131h-48zM299 -12q-119 0 -190 93.5t-71 251.5t71 252t190 94t190.5 -94t71.5 -252t-71.5 -251.5t-190.5 -93.5zM299 39q95 0 152 79.5t57 214.5t-57 215t-152 80t-152 -80t-57 -215t57 -214.5t152 -79.5z" />
    <glyph glyph-name="ohungarumlaut" unicode="&#x151;" horiz-adv-x="434" 
d="M118 563l85 131h56l-93 -131h-48zM225 563l86 131h56l-94 -131h-48zM217 -11q-84 0 -134 67t-50 180q0 112 50 179t134 67t134 -67t50 -179q0 -113 -50 -180t-134 -67zM217 37q62 0 98.5 54t36.5 145t-36.5 144.5t-98.5 53.5t-98.5 -53.5t-36.5 -144.5t36.5 -145
t98.5 -54z" />
    <glyph glyph-name="OE" unicode="&#x152;" horiz-adv-x="684" 
d="M326 0q-138 0 -213 90.5t-75 242.5t75 243t213 91h332v-51h-245v-249h191v-50h-191v-266h245v-51h-332zM326 51h34v565h-34q-115 0 -175 -76t-60 -207q0 -129 60 -205.5t175 -76.5z" />
    <glyph glyph-name="oe" unicode="&#x153;" horiz-adv-x="700" 
d="M667 245v-28h-280q4 -86 41 -133.5t97 -47.5q68 0 117 44l12 -44q-50 -47 -130 -47q-117 0 -161 125q-20 -60 -59.5 -92.5t-93.5 -32.5q-81 0 -129 67t-48 180t48 179.5t129 66.5q54 0 93 -31.5t59 -89.5q19 58 55 89t86 31q75 0 119.5 -64t44.5 -172zM504 435
q-50 0 -80.5 -45.5t-35.5 -125.5h231q-2 78 -33 124.5t-82 46.5zM210 37q59 0 94 54t35 145t-35 144.5t-94 53.5q-58 0 -93 -54t-35 -144q0 -91 35 -145t93 -54z" />
    <glyph glyph-name="Racute" unicode="&#x154;" horiz-adv-x="484" 
d="M329 854l-93 -131h-50l85 131h58zM454 0h-61l-155 289h-1h-114v-289h-52v667h166q92 0 145.5 -52t53.5 -137q0 -70 -38 -119t-105 -64zM123 616v-276h114q68 0 107 38t39 100q0 63 -38.5 100.5t-107.5 37.5h-114z" />
    <glyph glyph-name="racute" unicode="&#x155;" horiz-adv-x="261" 
d="M241 694l-93 -131h-50l85 131h58zM209 478q26 0 43 -8l-5 -49q-21 8 -40 8q-46 0 -72 -37t-26 -109v-283h-49v472h46v-70q31 76 103 76z" />
    <glyph glyph-name="uni0156" unicode="&#x156;" horiz-adv-x="484" 
d="M293 295l161 -295h-61l-155 289h-1h-114v-289h-52v667h166q92 0 145.5 -52t53.5 -137q0 -70 -38 -119t-105 -64zM123 616v-276h114q68 0 107 38t39 100q0 63 -38.5 100.5t-107.5 37.5h-114zM187 -175l34 118h55l-44 -118h-45z" />
    <glyph glyph-name="uni0157" unicode="&#x157;" horiz-adv-x="261" 
d="M209 478q26 0 43 -8l-5 -49q-21 8 -40 8q-46 0 -72 -37t-26 -109v-283h-49v472h46v-70q31 76 103 76zM34 -175l34 118h55l-44 -118h-45z" />
    <glyph glyph-name="Rcaron" unicode="&#x158;" horiz-adv-x="484" 
d="M208 723l-76 131h47l58 -97l57 97h47l-76 -131h-57zM454 0h-61l-155 289h-1h-114v-289h-52v667h166q92 0 145.5 -52t53.5 -137q0 -70 -38 -119t-105 -64zM123 616v-276h114q68 0 107 38t39 100q0 63 -38.5 100.5t-107.5 37.5h-114z" />
    <glyph glyph-name="rcaron" unicode="&#x159;" horiz-adv-x="261" 
d="M126 563l-76 131h47l58 -97l57 97h47l-76 -131h-57zM106 402q31 76 103 76q26 0 43 -8l-5 -49q-21 8 -40 8q-46 0 -72 -37t-26 -109v-283h-49v472h46v-70z" />
    <glyph glyph-name="Sacute" unicode="&#x15a;" horiz-adv-x="425" 
d="M162 723l85 131h58l-93 -131h-50zM43 23l10 54q60 -37 135 -37q69 0 109 35.5t40 92.5q0 47 -30 78.5t-72.5 51t-84.5 41.5t-72 63.5t-30 103.5q0 80 47 127t131 47q80 0 142 -36l-10 -54q-62 39 -131 39q-62 0 -94 -32.5t-32 -87.5q0 -51 30 -85t72 -54t84.5 -41
t72.5 -60t30 -98q0 -83 -54.5 -132.5t-146.5 -49.5q-86 0 -146 34z" />
    <glyph glyph-name="sacute" unicode="&#x15b;" horiz-adv-x="321" 
d="M97 563l85 131h58l-93 -131h-50zM24 15l11 49q44 -28 102 -28q49 0 77.5 23.5t28.5 62.5q0 33 -22 53.5t-53 32.5t-62 26t-53 43.5t-22 75.5q0 61 36 94.5t102 33.5q65 0 108 -26l-10 -49q-43 28 -98 28q-44 0 -66.5 -21t-22.5 -58q0 -34 22 -56t53 -33.5t62.5 -25.5
t53.5 -42t22 -72q0 -64 -42 -100.5t-114 -36.5q-67 0 -113 26z" />
    <glyph glyph-name="Scircumflex" unicode="&#x15c;" horiz-adv-x="425" 
d="M213 817l-58 -94h-47l76 131h57l76 -131h-47zM101 509q0 -51 30 -85t72 -54t84.5 -41t72.5 -60t30 -98q0 -83 -54.5 -132.5t-146.5 -49.5q-86 0 -146 34l10 54q60 -37 135 -37q69 0 109 35.5t40 92.5q0 47 -30 78.5t-72.5 51t-84.5 41.5t-72 63.5t-30 103.5q0 80 47 127
t131 47q80 0 142 -36l-10 -54q-62 39 -131 39q-62 0 -94 -32.5t-32 -87.5z" />
    <glyph glyph-name="scircumflex" unicode="&#x15d;" horiz-adv-x="321" 
d="M154 657l-58 -94h-47l76 131h57l76 -131h-47zM80 355q0 -34 22 -56t53 -33.5t62.5 -25.5t53.5 -42t22 -72q0 -64 -42 -100.5t-114 -36.5q-67 0 -113 26l11 49q44 -28 102 -28q49 0 77.5 23.5t28.5 62.5q0 33 -22 53.5t-53 32.5t-62 26t-53 43.5t-22 75.5q0 61 36 94.5
t102 33.5q65 0 108 -26l-10 -49q-43 28 -98 28q-44 0 -66.5 -21t-22.5 -58z" />
    <glyph glyph-name="Scedilla" unicode="&#x15e;" horiz-adv-x="425" 
d="M390 171q0 -75 -44 -122.5t-121 -57.5l-8 -39h9q29 0 46.5 -17.5t17.5 -48.5q0 -33 -20 -51t-53 -18q-32 0 -52 14l7 34q18 -13 40 -13q19 0 29.5 9.5t10.5 26.5q0 34 -36 34q-12 0 -21 -4l-12 6l14 65h-8q-86 0 -146 34l10 54q60 -37 135 -37q69 0 109 35.5t40 92.5
q0 47 -30 78.5t-72.5 51t-84.5 41.5t-72 63.5t-30 103.5q0 80 47 127t131 47q80 0 142 -36l-10 -54q-62 39 -131 39q-62 0 -94 -32.5t-32 -87.5q0 -51 30 -85t72 -54t84.5 -41t72.5 -60t30 -98z" />
    <glyph glyph-name="scedilla" unicode="&#x15f;" horiz-adv-x="321" 
d="M293 126q0 -60 -36.5 -95.5t-100.5 -40.5l-8 -39h9q29 0 46.5 -17.5t17.5 -48.5q0 -33 -20 -51t-53 -18q-32 0 -52 14l7 34q18 -13 40 -13q19 0 29.5 9.5t10.5 26.5q0 34 -36 34q-12 0 -21 -4l-12 6l14 66q-61 2 -104 26l11 49q44 -28 102 -28q49 0 77.5 23.5t28.5 62.5
q0 33 -22 53.5t-53 32.5t-62 26t-53 43.5t-22 75.5q0 61 36 94.5t102 33.5q65 0 108 -26l-10 -49q-43 28 -98 28q-44 0 -66.5 -21t-22.5 -58q0 -34 22 -56t53 -33.5t62.5 -25.5t53.5 -42t22 -72z" />
    <glyph glyph-name="Scaron" unicode="&#x160;" horiz-adv-x="425" 
d="M184 723l-76 131h47l58 -97l57 97h47l-76 -131h-57zM101 509q0 -51 30 -85t72 -54t84.5 -41t72.5 -60t30 -98q0 -83 -54.5 -132.5t-146.5 -49.5q-86 0 -146 34l10 54q60 -37 135 -37q69 0 109 35.5t40 92.5q0 47 -30 78.5t-72.5 51t-84.5 41.5t-72 63.5t-30 103.5
q0 80 47 127t131 47q80 0 142 -36l-10 -54q-62 39 -131 39q-62 0 -94 -32.5t-32 -87.5z" />
    <glyph glyph-name="scaron" unicode="&#x161;" horiz-adv-x="321" 
d="M125 563l-76 131h47l58 -97l57 97h47l-76 -131h-57zM80 355q0 -34 22 -56t53 -33.5t62.5 -25.5t53.5 -42t22 -72q0 -64 -42 -100.5t-114 -36.5q-67 0 -113 26l11 49q44 -28 102 -28q49 0 77.5 23.5t28.5 62.5q0 33 -22 53.5t-53 32.5t-62 26t-53 43.5t-22 75.5
q0 61 36 94.5t102 33.5q65 0 108 -26l-10 -49q-43 28 -98 28q-44 0 -66.5 -21t-22.5 -58z" />
    <glyph glyph-name="uni0162" unicode="&#x162;" horiz-adv-x="392" 
d="M378 667v-51h-156v-616h-52v616h-156v51h364zM146 -175l34 118h55l-44 -118h-45z" />
    <glyph glyph-name="uni0163" unicode="&#x163;" horiz-adv-x="253" 
d="M176 -7q-50 0 -76.5 30t-26.5 86v315h-61v48h61v129l50 4v-133h109v-48h-109v-310q0 -74 60 -74q25 0 46 9l6 -45q-25 -11 -59 -11zM97 -175l34 118h55l-44 -118h-45z" />
    <glyph glyph-name="Tcaron" unicode="&#x164;" horiz-adv-x="392" 
d="M167 723l-76 131h47l58 -97l57 97h47l-76 -131h-57zM378 667v-51h-156v-616h-52v616h-156v51h364z" />
    <glyph glyph-name="tcaron" unicode="&#x165;" horiz-adv-x="253" 
d="M234 702l-36 -162h-37l23 162h50zM229 49l6 -45q-25 -11 -59 -11q-50 0 -76.5 30t-26.5 86v315h-61v48h61v129l50 4v-133h109v-48h-109v-310q0 -74 60 -74q25 0 46 9z" />
    <glyph glyph-name="Tbar" unicode="&#x166;" horiz-adv-x="392" 
d="M378 616h-156v-259h106v-46h-106v-311h-52v311h-107v46h107v259h-156v51h364v-51z" />
    <glyph glyph-name="tbar" unicode="&#x167;" horiz-adv-x="253" 
d="M229 49l6 -45q-25 -11 -59 -11q-50 0 -76.5 30t-26.5 86v135h-56v46h56v134h-61v48h61v129l50 4v-133h109v-48h-109v-134h80v-46h-80v-130q0 -74 60 -74q25 0 46 9z" />
    <glyph glyph-name="Utilde" unicode="&#x168;" horiz-adv-x="492" 
d="M123 719q0 58 18.5 93t52.5 35q19 0 35 -13t24.5 -28.5t20 -28.5t23.5 -13q35 0 35 83h38q0 -57 -18.5 -92.5t-52.5 -35.5q-19 0 -35 13t-24.5 28.5t-20 28.5t-23.5 13q-35 0 -35 -83h-38zM246 -11q-92 0 -141 58t-49 164v456h52v-450q0 -178 138 -178t138 178v450h53
v-456q0 -106 -49.5 -164t-141.5 -58z" />
    <glyph glyph-name="utilde" unicode="&#x169;" horiz-adv-x="425" 
d="M160 642q-35 0 -35 -83h-38q0 58 18.5 93t52.5 35q19 0 35 -13t24.5 -28.5t20 -28.5t23.5 -13q35 0 35 83h38q0 -57 -18.5 -92.5t-52.5 -35.5q-19 0 -35 13t-24.5 28.5t-20 28.5t-23.5 13zM317 472h49v-472h-47v67q-35 -76 -123 -76q-65 0 -104 46t-39 129v306h49v-299
q0 -66 28 -100t77 -34q51 0 80.5 34.5t29.5 97.5v301z" />
    <glyph glyph-name="Umacron" unicode="&#x16a;" horiz-adv-x="492" 
d="M138 785h215v-42h-215v42zM246 -11q-92 0 -141 58t-49 164v456h52v-450q0 -178 138 -178t138 178v450h53v-456q0 -106 -49.5 -164t-141.5 -58z" />
    <glyph glyph-name="umacron" unicode="&#x16b;" horiz-adv-x="425" 
d="M317 658v-42h-215v42h215zM317 472h49v-472h-47v67q-35 -76 -123 -76q-65 0 -104 46t-39 129v306h49v-299q0 -66 28 -100t77 -34q51 0 80.5 34.5t29.5 97.5v301z" />
    <glyph glyph-name="Ubreve" unicode="&#x16c;" horiz-adv-x="492" 
d="M305 844h39q0 -57 -26.5 -91t-71.5 -34q-44 0 -71 34t-27 91h40q0 -37 15.5 -58.5t42.5 -21.5t43 21.5t16 58.5zM246 -11q-92 0 -141 58t-49 164v456h52v-450q0 -178 138 -178t138 178v450h53v-456q0 -106 -49.5 -164t-141.5 -58z" />
    <glyph glyph-name="ubreve" unicode="&#x16d;" horiz-adv-x="425" 
d="M210 559q-44 0 -71 34t-27 91h40q0 -37 15.5 -58.5t42.5 -21.5t43 21.5t16 58.5h39q0 -57 -26.5 -91t-71.5 -34zM317 472h49v-472h-47v67q-35 -76 -123 -76q-65 0 -104 46t-39 129v306h49v-299q0 -66 28 -100t77 -34q51 0 80.5 34.5t29.5 97.5v301z" />
    <glyph glyph-name="Uring" unicode="&#x16e;" horiz-adv-x="492" 
d="M245 708q-39 0 -64 26t-25 67t25 67.5t64 26.5t64.5 -26.5t25.5 -67.5q0 -40 -25.5 -66.5t-64.5 -26.5zM245 735q28 0 45 18.5t17 47.5t-17 47t-45 18q-26 0 -43.5 -18.5t-17.5 -46.5t17.5 -47t43.5 -19zM246 -11q-92 0 -141 58t-49 164v456h52v-450q0 -178 138 -178
t138 178v450h53v-456q0 -106 -49.5 -164t-141.5 -58z" />
    <glyph glyph-name="uring" unicode="&#x16f;" horiz-adv-x="425" 
d="M210 547q-39 0 -64 26t-25 67t25 67.5t64 26.5t64.5 -26.5t25.5 -67.5q0 -40 -25.5 -66.5t-64.5 -26.5zM210 705q-26 0 -43.5 -18.5t-17.5 -46.5t17.5 -47t43.5 -19q28 0 45 18.5t17 47.5t-17 47t-45 18zM317 472h49v-472h-47v67q-35 -76 -123 -76q-65 0 -104 46t-39 129
v306h49v-299q0 -66 28 -100t77 -34q51 0 80.5 34.5t29.5 97.5v301z" />
    <glyph glyph-name="Uhungarumlaut" unicode="&#x170;" horiz-adv-x="492" 
d="M147 723l85 131h56l-93 -131h-48zM254 723l86 131h56l-94 -131h-48zM246 -11q-92 0 -141 58t-49 164v456h52v-450q0 -178 138 -178t138 178v450h53v-456q0 -106 -49.5 -164t-141.5 -58z" />
    <glyph glyph-name="uhungarumlaut" unicode="&#x171;" horiz-adv-x="425" 
d="M252 694l-93 -131h-48l85 131h56zM266 563h-48l86 131h56zM317 472h49v-472h-47v67q-35 -76 -123 -76q-65 0 -104 46t-39 129v306h49v-299q0 -66 28 -100t77 -34q51 0 80.5 34.5t29.5 97.5v301z" />
    <glyph glyph-name="Uogonek" unicode="&#x172;" horiz-adv-x="492" 
d="M437 211q0 -74 -20.5 -118t-56.5 -82q-68 -70 -68 -119q0 -36 33 -36q19 0 35 11l8 -36q-22 -15 -53 -15q-29 0 -46 17.5t-17 48.5q0 52 57 115q-30 -8 -63 -8q-92 0 -141 58t-49 164v456h52v-450q0 -178 138 -178t138 178v450h53v-456z" />
    <glyph glyph-name="uogonek" unicode="&#x173;" horiz-adv-x="425" 
d="M379 -133l8 -36q-23 -15 -53 -15q-29 0 -46 17.5t-17 48.5q0 54 58 118h-10v67q-35 -76 -123 -76q-65 0 -104 46t-39 129v306h49v-299q0 -66 28 -100t77 -34q51 0 80.5 34.5t29.5 97.5v301h49v-472q-55 -63 -55 -108q0 -36 33 -36q19 0 35 11z" />
    <glyph glyph-name="Wcircumflex" unicode="&#x174;" horiz-adv-x="734" 
d="M367 817l-58 -94h-47l76 131h57l76 -131h-47zM671 667h53l-154 -667h-73l-130 583l-130 -583h-73l-155 667h55l136 -606l136 606h63l135 -606z" />
    <glyph glyph-name="wcircumflex" unicode="&#x175;" horiz-adv-x="584" 
d="M292 657l-58 -94h-47l76 131h57l76 -131h-47zM523 472h51l-115 -472h-68l-99 411l-100 -411h-67l-115 472h51l98 -417l101 417h64l100 -417z" />
    <glyph glyph-name="Ycircumflex" unicode="&#x176;" horiz-adv-x="451" 
d="M226 817l-58 -94h-47l76 131h57l76 -131h-47zM390 667h65l-203 -376v-291h-52v291l-204 376h66l164 -317z" />
    <glyph glyph-name="ycircumflex" unicode="&#x177;" horiz-adv-x="377" 
d="M189 657l-58 -94h-47l76 131h57l76 -131h-47zM315 472h53l-158 -490q-31 -96 -62 -130t-77 -34q-21 0 -51 7l7 47q24 -7 44 -7q29 0 49 26.5t44 109.5l-155 471h53l127 -398z" />
    <glyph glyph-name="Ydieresis" unicode="&#x178;" horiz-adv-x="451" 
d="M172 728q-17 0 -27.5 11t-10.5 28t11 28.5t27 11.5t26.5 -11.5t10.5 -28.5t-10.5 -28t-26.5 -11zM281 728q-17 0 -27.5 11t-10.5 28t11 28.5t27 11.5t26.5 -11.5t10.5 -28.5t-10.5 -28t-26.5 -11zM200 0v291l-204 376h66l164 -317l164 317h65l-203 -376v-291h-52z" />
    <glyph glyph-name="Zacute" unicode="&#x179;" horiz-adv-x="457" 
d="M321 854l-93 -131h-50l85 131h58zM92 51h338v-51h-404v43l328 574h-317v50h383v-42z" />
    <glyph glyph-name="zacute" unicode="&#x17a;" horiz-adv-x="358" 
d="M265 694l-93 -131h-50l85 131h58zM92 46h235v-46h-296v39l227 386h-219v47h280v-39z" />
    <glyph glyph-name="Zdotaccent" unicode="&#x17b;" horiz-adv-x="457" 
d="M229 728q-17 0 -27.5 11t-10.5 28t11 28.5t27 11.5q17 0 28 -11.5t11 -28.5t-11 -28t-28 -11zM92 51h338v-51h-404v43l328 574h-317v50h383v-42z" />
    <glyph glyph-name="zdotaccent" unicode="&#x17c;" horiz-adv-x="358" 
d="M179 601q-17 0 -27.5 11t-10.5 28t10.5 28t27.5 11t28 -11t11 -28t-11 -28t-28 -11zM92 46h235v-46h-296v39l227 386h-219v47h280v-39z" />
    <glyph glyph-name="Zcaron" unicode="&#x17d;" horiz-adv-x="457" 
d="M200 723l-76 131h47l58 -97l57 97h47l-76 -131h-57zM92 51h338v-51h-404v43l328 574h-317v50h383v-42z" />
    <glyph glyph-name="zcaron" unicode="&#x17e;" horiz-adv-x="358" 
d="M150 563l-76 131h47l58 -97l57 97h47l-76 -131h-57zM92 46h235v-46h-296v39l227 386h-219v47h280v-39z" />
    <glyph glyph-name="uni018F" unicode="&#x18f;" horiz-adv-x="547" 
d="M246 678q120 0 191.5 -92.5t71.5 -253.5q0 -158 -65 -251t-173 -93t-170.5 89.5t-62.5 240.5q0 26 2 56h416q-9 120 -65.5 187t-145.5 67q-102 0 -170 -65l-14 50q74 65 185 65zM270 38q84 0 135.5 77t52.5 208h-369v-15q0 -123 49 -196.5t132 -73.5z" />
    <glyph glyph-name="florin" unicode="&#x192;" horiz-adv-x="420" 
d="M350 626q-74 0 -90 -119l-7 -51h105v-48h-111l-35 -255q-22 -162 -133 -162q-31 0 -59 14l9 45q20 -9 40 -9q74 0 90 119l34 248h-96v48h102l8 58q22 162 133 162q32 0 60 -14l-10 -45q-20 9 -40 9z" />
    <glyph glyph-name="uni0218" unicode="&#x218;" horiz-adv-x="425" 
d="M43 23l10 54q60 -37 135 -37q69 0 109 35.5t40 92.5q0 47 -30 78.5t-72.5 51t-84.5 41.5t-72 63.5t-30 103.5q0 80 47 127t131 47q80 0 142 -36l-10 -54q-62 39 -131 39q-62 0 -94 -32.5t-32 -87.5q0 -51 30 -85t72 -54t84.5 -41t72.5 -60t30 -98q0 -83 -54.5 -132.5
t-146.5 -49.5q-86 0 -146 34zM163 -175l34 118h55l-44 -118h-45z" />
    <glyph glyph-name="uni0219" unicode="&#x219;" horiz-adv-x="321" 
d="M24 15l11 49q44 -28 102 -28q49 0 77.5 23.5t28.5 62.5q0 33 -22 53.5t-53 32.5t-62 26t-53 43.5t-22 75.5q0 61 36 94.5t102 33.5q65 0 108 -26l-10 -49q-43 28 -98 28q-44 0 -66.5 -21t-22.5 -58q0 -34 22 -56t53 -33.5t62.5 -25.5t53.5 -42t22 -72q0 -64 -42 -100.5
t-114 -36.5q-67 0 -113 26zM94 -176l34 118h55l-44 -118h-45z" />
    <glyph glyph-name="uni021A" unicode="&#x21a;" horiz-adv-x="392" 
d="M378 667v-51h-156v-616h-52v616h-156v51h364zM146 -175l34 118h55l-44 -118h-45z" />
    <glyph glyph-name="uni021B" unicode="&#x21b;" horiz-adv-x="253" 
d="M176 -7q-50 0 -76.5 30t-26.5 86v315h-61v48h61v129l50 4v-133h109v-48h-109v-310q0 -74 60 -74q25 0 46 9l6 -45q-25 -11 -59 -11zM97 -175l34 118h55l-44 -118h-45z" />
    <glyph glyph-name="uni0237" unicode="&#x237;" horiz-adv-x="169" 
d="M-39 -174l4 46q16 -4 26 -4q69 0 69 98v506h49v-513q0 -138 -112 -138q-21 0 -36 5z" />
    <glyph glyph-name="uni0259" unicode="&#x259;" horiz-adv-x="408" 
d="M184 483q88 0 139.5 -66t51.5 -181q0 -112 -47 -178.5t-125 -66.5t-124 64t-46 172q0 20 2 46h289q-7 78 -44.5 120.5t-97.5 42.5q-70 0 -121 -43l-12 43q54 47 135 47zM202 38q55 0 88.5 50t35.5 137h-244v-9q0 -82 32.5 -130t87.5 -48z" />
    <glyph glyph-name="circumflex" unicode="&#x2c6;" horiz-adv-x="289" 
d="M249 563h-47l-57 94l-58 -94h-47l76 131h57z" />
    <glyph glyph-name="caron" unicode="&#x2c7;" horiz-adv-x="289" 
d="M202 694h47l-76 -131h-57l-76 131h47l58 -97z" />
    <glyph glyph-name="uni02C9" unicode="&#x2c9;" horiz-adv-x="295" 
d="M40 658h215v-42h-215v42z" />
    <glyph glyph-name="breve" unicode="&#x2d8;" horiz-adv-x="276" 
d="M197 684h39q0 -57 -26.5 -91t-71.5 -34q-44 0 -71 34t-27 91h40q0 -37 15.5 -58.5t42.5 -21.5t43 21.5t16 58.5z" />
    <glyph glyph-name="dotaccent" unicode="&#x2d9;" horiz-adv-x="157" 
d="M78 601q-17 0 -27.5 11t-10.5 28t10.5 28t27.5 11t28 -11t11 -28t-11 -28t-28 -11z" />
    <glyph glyph-name="ring" unicode="&#x2da;" horiz-adv-x="259" 
d="M129 548q-39 0 -64 26t-25 67t25 67.5t64 26.5t64.5 -26.5t25.5 -67.5q0 -40 -25.5 -66.5t-64.5 -26.5zM129 575q28 0 45 18.5t17 47.5t-17 47t-45 18q-26 0 -43.5 -18.5t-17.5 -46.5t17.5 -47t43.5 -19z" />
    <glyph glyph-name="ogonek" unicode="&#x2db;" horiz-adv-x="196" 
d="M103 -184q-29 0 -46 17.5t-17 48.5q0 58 67 128l28 -10q-55 -63 -55 -108q0 -36 33 -36q19 0 35 11l8 -36q-22 -15 -53 -15z" />
    <glyph glyph-name="tilde" unicode="&#x2dc;" horiz-adv-x="327" 
d="M40 559q0 58 18.5 93t52.5 35q19 0 35 -13t24.5 -28.5t20 -28.5t23.5 -13q35 0 35 83h38q0 -57 -18.5 -92.5t-52.5 -35.5q-19 0 -35 13t-24.5 28.5t-20 28.5t-23.5 13q-35 0 -35 -83h-38z" />
    <glyph glyph-name="hungarumlaut" unicode="&#x2dd;" horiz-adv-x="329" 
d="M40 563l85 131h56l-93 -131h-48zM147 563l86 131h56l-94 -131h-48z" />
    <glyph glyph-name="gravecomb" unicode="&#x300;" 
d="M-40 563h-49l-94 131h58z" />
    <glyph glyph-name="acutecomb" unicode="&#x301;" 
d="M-183 563l85 131h58l-93 -131h-50z" />
    <glyph glyph-name="uni0302" unicode="&#x302;" 
d="M-40 563h-47l-57 94l-58 -94h-47l76 131h57z" />
    <glyph glyph-name="tildecomb" unicode="&#x303;" 
d="M-287 559q0 58 18.5 93t52.5 35q19 0 35 -13t24.5 -28.5t20 -28.5t23.5 -13q35 0 35 83h38q0 -57 -18.5 -92.5t-52.5 -35.5q-19 0 -35 13t-24.5 28.5t-20 28.5t-23.5 13q-35 0 -35 -83h-38z" />
    <glyph glyph-name="uni0304" unicode="&#x304;" 
d="M-255 658h215v-42h-215v42z" />
    <glyph glyph-name="uni0306" unicode="&#x306;" 
d="M-79 684h39q0 -57 -26.5 -91t-71.5 -34q-44 0 -71 34t-27 91h40q0 -37 15.5 -58.5t42.5 -21.5t43 21.5t16 58.5z" />
    <glyph glyph-name="uni0307" unicode="&#x307;" 
d="M-79 601q-17 0 -27.5 11t-10.5 28t10.5 28t27.5 11t28 -11t11 -28t-11 -28t-28 -11z" />
    <glyph glyph-name="uni0308" unicode="&#x308;" 
d="M-199 601q-17 0 -27.5 11t-10.5 28t10.5 28t27.5 11q16 0 26.5 -11t10.5 -28t-10.5 -28t-26.5 -11zM-90 601q-17 0 -27.5 11t-10.5 28t10.5 28t27.5 11q16 0 26.5 -11t10.5 -28t-10.5 -28t-26.5 -11z" />
    <glyph glyph-name="uni030A" unicode="&#x30a;" 
d="M-130 548q-39 0 -64 26t-25 67t25 67.5t64 26.5t64.5 -26.5t25.5 -67.5q0 -40 -25.5 -66.5t-64.5 -26.5zM-130 575q28 0 45 18.5t17 47.5t-17 47t-45 18q-26 0 -43.5 -18.5t-17.5 -46.5t17.5 -47t43.5 -19z" />
    <glyph glyph-name="uni030B" unicode="&#x30b;" 
d="M-289 563l85 131h56l-93 -131h-48zM-182 563l86 131h56l-94 -131h-48z" />
    <glyph glyph-name="uni030C" unicode="&#x30c;" 
d="M-87 694h47l-76 -131h-57l-76 131h47l58 -97z" />
    <glyph glyph-name="uni0312" unicode="&#x312;" 
d="M-40 694l-44 -131h-55l54 131h45z" />
    <glyph glyph-name="uni0326" unicode="&#x326;" 
d="M-129 -175l34 118h55l-44 -118h-45z" />
    <glyph glyph-name="uni0327" unicode="&#x327;" 
d="M-104 -48q29 0 46.5 -17.5t17.5 -48.5q0 -33 -20 -51t-53 -18q-32 0 -52 14l7 34q18 -13 40 -13q19 0 29.5 9.5t10.5 26.5q0 34 -36 34q-12 0 -21 -4l-12 6l16 76h28l-10 -48h9z" />
    <glyph glyph-name="uni0328" unicode="&#x328;" 
d="M-93 -184q-29 0 -46 17.5t-17 48.5q0 58 67 128l28 -10q-55 -63 -55 -108q0 -36 33 -36q19 0 35 11l8 -36q-22 -15 -53 -15z" />
    <glyph glyph-name="uni0335" unicode="&#x335;" 
d="M-226 290h186v-46h-186v46z" />
    <glyph glyph-name="uni0336" unicode="&#x336;" 
d="M-226 290h186v-46h-186v46z" />
    <glyph glyph-name="uni0337" unicode="&#x337;" 
d="M-181 385l181 132v-49l-181 -133v50z" />
    <glyph glyph-name="uni0338" unicode="&#x338;" 
d="M-69 481l29 -17l-300 -472l-30 17z" />
    <glyph glyph-name="uni0394" unicode="&#x394;" horiz-adv-x="473" 
d="M416 0l-81 273l-82 -239l-8 -34h-230l103 435h170l-69 232h50l70 -232h5l-2 -9l129 -426h-55zM309 283h23l-13 44z" />
    <glyph glyph-name="uni03A9" unicode="&#x3a9;" horiz-adv-x="610" 
d="M435 46h138v-46h-220v46q74 21 117.5 98t43.5 192q0 134 -57 213.5t-152 79.5t-152.5 -80t-57.5 -213q0 -115 43.5 -192t117.5 -98v-46h-220v46h138q-61 39 -96 116.5t-35 180.5q0 152 71.5 243.5t190.5 91.5t190 -91.5t71 -243.5q0 -103 -35 -180.5t-96 -116.5z" />
    <glyph glyph-name="uni03BC" unicode="&#x3bc;" horiz-adv-x="428" 
d="M406 43q8 0 18 2v-44q-12 -4 -30 -4q-34 0 -51.5 14t-21.5 47q-36 -67 -112 -67q-65 0 -100 47v-213h-49v647h49v-294q0 -69 27.5 -104.5t76.5 -35.5q50 0 78.5 36.5t28.5 100.5v297h49v-381q0 -27 8.5 -37.5t28.5 -10.5z" />
    <glyph glyph-name="Wgrave" unicode="&#x1e80;" horiz-adv-x="734" 
d="M418 723h-49l-94 131h58zM671 667h53l-154 -667h-73l-130 583l-130 -583h-73l-155 667h55l136 -606l136 606h63l135 -606z" />
    <glyph glyph-name="wgrave" unicode="&#x1e81;" horiz-adv-x="584" 
d="M348 563h-49l-94 131h58zM523 472h51l-115 -472h-68l-99 411l-100 -411h-67l-115 472h51l98 -417l101 417h64l100 -417z" />
    <glyph glyph-name="Wacute" unicode="&#x1e82;" horiz-adv-x="734" 
d="M459 854l-93 -131h-50l85 131h58zM671 667h53l-154 -667h-73l-130 583l-130 -583h-73l-155 667h55l136 -606l136 606h63l135 -606z" />
    <glyph glyph-name="wacute" unicode="&#x1e83;" horiz-adv-x="584" 
d="M378 694l-93 -131h-50l85 131h58zM523 472h51l-115 -472h-68l-99 411l-100 -411h-67l-115 472h51l98 -417l101 417h64l100 -417z" />
    <glyph glyph-name="Wdieresis" unicode="&#x1e84;" horiz-adv-x="734" 
d="M313 728q-17 0 -27.5 11t-10.5 28t11 28.5t27 11.5t26.5 -11.5t10.5 -28.5t-10.5 -28t-26.5 -11zM422 728q-17 0 -27.5 11t-10.5 28t11 28.5t27 11.5t26.5 -11.5t10.5 -28.5t-10.5 -28t-26.5 -11zM671 667h53l-154 -667h-73l-130 583l-130 -583h-73l-155 667h55l136 -606
l136 606h63l135 -606z" />
    <glyph glyph-name="wdieresis" unicode="&#x1e85;" horiz-adv-x="584" 
d="M237 601q-17 0 -27.5 11t-10.5 28t10.5 28t27.5 11q16 0 26.5 -11t10.5 -28t-10.5 -28t-26.5 -11zM346 601q-17 0 -27.5 11t-10.5 28t10.5 28t27.5 11q16 0 26.5 -11t10.5 -28t-10.5 -28t-26.5 -11zM523 472h51l-115 -472h-68l-99 411l-100 -411h-67l-115 472h51l98 -417
l101 417h64l100 -417z" />
    <glyph glyph-name="uni1E9E" unicode="&#x1e9e;" horiz-adv-x="541" 
d="M326 389q84 -11 131.5 -65t47.5 -140q0 -90 -52.5 -141.5t-144.5 -51.5q-58 0 -109 21l15 50q44 -21 94 -21q69 0 107 37.5t38 105.5q0 76 -42.5 118.5t-120.5 42.5q-18 0 -27 -1v39l146 170q-55 74 -143 74q-77 0 -117.5 -51t-40.5 -148v-428h-52v428q0 118 55.5 184
t154.5 66q131 0 205 -121z" />
    <glyph glyph-name="Ygrave" unicode="&#x1ef2;" horiz-adv-x="451" 
d="M277 723h-49l-94 131h58zM200 0v291l-204 376h66l164 -317l164 317h65l-203 -376v-291h-52z" />
    <glyph glyph-name="ygrave" unicode="&#x1ef3;" horiz-adv-x="377" 
d="M245 563h-49l-94 131h58zM315 472h53l-158 -490q-31 -96 -62 -130t-77 -34q-21 0 -51 7l7 47q24 -7 44 -7q29 0 49 26.5t44 109.5l-155 471h53l127 -398z" />
    <glyph glyph-name="uni2011" unicode="&#x2011;" horiz-adv-x="236" 
d="M30 285h177v-50h-177v50z" />
    <glyph glyph-name="endash" unicode="&#x2013;" horiz-adv-x="387" 
d="M15 278h357v-36h-357v36z" />
    <glyph glyph-name="emdash" unicode="&#x2014;" horiz-adv-x="774" 
d="M15 278h744v-36h-744v36z" />
    <glyph glyph-name="quoteleft" unicode="&#x2018;" horiz-adv-x="152" 
d="M92 669l40 -10l-60 -217l-52 13z" />
    <glyph glyph-name="quoteright" unicode="&#x2019;" horiz-adv-x="152" 
d="M60 445l-40 10l61 216l51 -12z" />
    <glyph glyph-name="quotesinglbase" unicode="&#x201a;" horiz-adv-x="152" 
d="M60 -145l-40 10l61 216l51 -12z" />
    <glyph glyph-name="quotedblleft" unicode="&#x201c;" horiz-adv-x="291" 
d="M92 669l40 -10l-60 -217l-52 13zM231 669l40 -10l-61 -217l-51 13z" />
    <glyph glyph-name="quotedblright" unicode="&#x201d;" horiz-adv-x="291" 
d="M60 445l-40 10l61 216l51 -12zM199 445l-40 10l61 216l51 -12z" />
    <glyph glyph-name="quotedblbase" unicode="&#x201e;" horiz-adv-x="291" 
d="M60 -145l-40 10l61 216l51 -12zM199 -145l-40 10l61 216l51 -12z" />
    <glyph glyph-name="dagger" unicode="&#x2020;" horiz-adv-x="361" 
d="M341 446v-50h-134l-7 -456h-39l-6 456h-135v50h135v221h52v-221h134z" />
    <glyph glyph-name="daggerdbl" unicode="&#x2021;" horiz-adv-x="361" 
d="M207 458l-3 -212l3 -212h134v-51h-134v-158h-52v158h-135v51h135l3 212l-3 212h-135v51h135v158h52v-158h134v-51h-134z" />
    <glyph glyph-name="bullet" unicode="&#x2022;" horiz-adv-x="335" 
d="M167 242q-39 0 -65 26t-26 65t26 65t65 26t65.5 -26t26.5 -65t-26.5 -65t-65.5 -26z" />
    <glyph glyph-name="ellipsis" unicode="&#x2026;" horiz-adv-x="557" 
d="M76 -9q-16 0 -27 11t-11 28t11 28.5t27 11.5q17 0 28 -11.5t11 -28.5t-11 -28t-28 -11zM278 -9q-16 0 -27 11t-11 28t11 28.5t27 11.5q17 0 28 -11.5t11 -28.5t-11 -28t-28 -11zM480 -9q-16 0 -27 11t-11 28t11 28.5t27 11.5q17 0 28 -11.5t11 -28.5t-11 -28t-28 -11z
" />
    <glyph glyph-name="perthousand" unicode="&#x2030;" horiz-adv-x="749" 
d="M133 382q-49 0 -78 40t-29 107q0 68 29 107.5t78 39.5q50 0 78.5 -39.5t28.5 -107.5t-29 -107.5t-78 -39.5zM441 667h57l-402 -667h-57zM133 426q29 0 46 28t17 75t-17 75t-46 28t-46 -28t-17 -75t17 -75t46 -28zM379 -9q-49 0 -78 39.5t-29 107.5t28.5 107.5t78.5 39.5
q49 0 77.5 -39.5t28.5 -107.5t-28.5 -107.5t-77.5 -39.5zM617 -9q-49 0 -78 39.5t-29 107.5t28.5 107.5t78.5 39.5q49 0 77.5 -39.5t28.5 -107.5t-28.5 -107.5t-77.5 -39.5zM379 35q29 0 45.5 27.5t16.5 75.5t-16.5 75.5t-45.5 27.5t-46 -28t-17 -75t17 -75t46 -28zM617 35
q28 0 45 28t17 75t-17 75t-45 28q-30 0 -47 -27.5t-17 -75.5t17 -75.5t47 -27.5z" />
    <glyph glyph-name="guilsinglleft" unicode="&#x2039;" horiz-adv-x="234" 
d="M204 439l-127 -179l127 -179h-62l-127 179l127 179h62z" />
    <glyph glyph-name="guilsinglright" unicode="&#x203a;" horiz-adv-x="234" 
d="M30 439h63l127 -179l-127 -179h-63l127 179z" />
    <glyph glyph-name="fraction" unicode="&#x2044;" horiz-adv-x="146" 
d="M-97 0h-50l392 667h49z" />
    <glyph glyph-name="uni2070" unicode="&#x2070;" horiz-adv-x="272" 
d="M136 396q-56 0 -86 55.5t-30 157.5q0 103 30 158.5t86 55.5q55 0 85 -55.5t30 -158.5q0 -102 -30 -157.5t-85 -55.5zM136 439q35 0 54.5 44t19.5 126t-19.5 126.5t-54.5 44.5q-36 0 -55.5 -44.5t-19.5 -126.5t19.5 -126t55.5 -44z" />
    <glyph glyph-name="uni2074" unicode="&#x2074;" horiz-adv-x="268" 
d="M208 548h50v-41h-50v-104h-40v104h-158v41l136 269h62v-269zM52 548h116v229z" />
    <glyph glyph-name="uni2075" unicode="&#x2075;" horiz-adv-x="273" 
d="M117 396q-52 0 -92 32l14 41q33 -30 77 -30q40 0 63 25.5t23 68.5q0 42 -22 65t-63 23q-31 0 -54 -13l-26 8l22 201h160v-43h-124l-14 -123q19 9 44 9q53 0 85.5 -35.5t32.5 -93.5q0 -60 -35 -97.5t-91 -37.5z" />
    <glyph glyph-name="uni2076" unicode="&#x2076;" horiz-adv-x="271" 
d="M138 671q51 0 81.5 -37t30.5 -100t-31 -100.5t-83 -37.5t-83 37.5t-31 100.5q0 53 26.5 113.5t93.5 169.5h49q-55 -85 -92 -154q16 8 39 8zM136 439q33 0 53 26t20 69q0 45 -20 71.5t-53 26.5t-53 -26.5t-20 -71.5q0 -43 20 -69t53 -26z" />
    <glyph glyph-name="uni2077" unicode="&#x2077;" horiz-adv-x="272" 
d="M253 817l-160 -414h-43l143 372h-170v42h230z" />
    <glyph glyph-name="uni2078" unicode="&#x2078;" horiz-adv-x="273" 
d="M186 620q62 -24 62 -104q0 -55 -30 -87.5t-81 -32.5q-52 0 -82 32.5t-30 87.5q0 81 62 104q-50 24 -50 94q0 50 27 79.5t73 29.5t72.5 -29.5t26.5 -79.5q0 -70 -50 -94zM137 780q-28 0 -43.5 -18.5t-15.5 -51.5t15.5 -52t43.5 -19q26 0 42 19t16 52t-15.5 51.5
t-42.5 18.5zM137 439q33 0 51.5 20.5t18.5 59.5q0 37 -19 58t-51 21q-33 0 -52 -21t-19 -58q0 -39 19 -59.5t52 -20.5z" />
    <glyph glyph-name="uni2079" unicode="&#x2079;" horiz-adv-x="271" 
d="M136 824q52 0 83 -37.5t31 -100.5q0 -53 -26.5 -113.5t-94.5 -169.5h-48q54 86 92 154q-16 -8 -39 -8q-52 0 -82 37t-30 100t31 100.5t83 37.5zM63 686q0 -45 19.5 -71.5t53.5 -26.5q33 0 53 26.5t20 71.5q0 43 -20 69t-53 26q-34 0 -53.5 -25.5t-19.5 -69.5z" />
    <glyph glyph-name="uni207A" unicode="&#x207a;" horiz-adv-x="272" 
d="M248 583v-38h-95v-120h-34v120h-95v38h95v121h34v-121h95z" />
    <glyph glyph-name="uni207B" unicode="&#x207b;" horiz-adv-x="272" 
d="M24 583h223v-38h-223v38z" />
    <glyph glyph-name="uni207C" unicode="&#x207c;" horiz-adv-x="272" 
d="M24 647h223v-37h-223v37zM24 518h223v-37h-223v37z" />
    <glyph glyph-name="uni207D" unicode="&#x207d;" horiz-adv-x="169" 
d="M158 315l-29 -26q-103 105 -103 278q0 172 103 277l28 -26q-93 -95 -93 -251q0 -160 94 -252z" />
    <glyph glyph-name="uni207E" unicode="&#x207e;" horiz-adv-x="169" 
d="M12 315q93 93 93 252q0 156 -93 251l28 26q103 -105 103 -277q0 -173 -103 -278z" />
    <glyph glyph-name="uni2080" unicode="&#x2080;" horiz-adv-x="272" 
d="M136 -182q-56 0 -86 55.5t-30 157.5q0 103 30 158.5t86 55.5q55 0 85 -55.5t30 -158.5q0 -102 -30 -157.5t-85 -55.5zM136 -139q35 0 54.5 44t19.5 126t-19.5 126.5t-54.5 44.5q-36 0 -55.5 -44.5t-19.5 -126.5t19.5 -126t55.5 -44z" />
    <glyph glyph-name="uni2081" unicode="&#x2081;" horiz-adv-x="277" 
d="M171 -132h68v-43h-184v43h76v313l-77 -42l-9 41l120 66h6v-378z" />
    <glyph glyph-name="uni2082" unicode="&#x2082;" horiz-adv-x="272" 
d="M66 -132h173v-43h-222q4 47 22.5 84.5t42.5 62t47 46.5t39 48.5t16 57.5q0 36 -20 57t-54 21q-44 0 -78 -34l-13 40q39 37 93 37q51 0 82 -32.5t31 -88.5q0 -35 -14 -65t-35 -51.5t-43 -41.5t-41.5 -45.5t-25.5 -52.5z" />
    <glyph glyph-name="uni2083" unicode="&#x2083;" horiz-adv-x="273" 
d="M156 37q70 -22 70 -101q0 -54 -35 -86t-94 -32q-47 0 -82 20l8 42q32 -19 72 -19q43 0 66.5 20.5t23.5 57.5t-24 57t-68 20h-22v40h22q39 0 59.5 19.5t20.5 54.5q0 34 -18.5 53t-52.5 19q-36 0 -68 -23l-8 38q36 28 80 28q49 0 78.5 -30.5t29.5 -80.5q0 -74 -58 -97z" />
    <glyph glyph-name="uni2084" unicode="&#x2084;" horiz-adv-x="268" 
d="M208 -30h50v-41h-50v-104h-40v104h-158v41l136 269h62v-269zM52 -30h116v229z" />
    <glyph glyph-name="uni2085" unicode="&#x2085;" horiz-adv-x="273" 
d="M117 -182q-52 0 -92 32l14 41q33 -30 77 -30q40 0 63 25.5t23 68.5q0 42 -22 65t-63 23q-31 0 -54 -13l-26 8l22 201h160v-43h-124l-14 -123q19 9 44 9q53 0 85.5 -35.5t32.5 -93.5q0 -60 -35 -97.5t-91 -37.5z" />
    <glyph glyph-name="uni2086" unicode="&#x2086;" horiz-adv-x="271" 
d="M138 93q51 0 81.5 -37t30.5 -100t-31 -100.5t-83 -37.5t-83 37.5t-31 100.5q0 53 26.5 113.5t93.5 169.5h49q-55 -85 -92 -154q16 8 39 8zM136 -139q33 0 53 26t20 69q0 45 -20 71.5t-53 26.5t-53 -26.5t-20 -71.5q0 -43 20 -69t53 -26z" />
    <glyph glyph-name="uni2087" unicode="&#x2087;" horiz-adv-x="272" 
d="M253 239l-160 -414h-43l143 372h-170v42h230z" />
    <glyph glyph-name="uni2088" unicode="&#x2088;" horiz-adv-x="273" 
d="M186 42q62 -24 62 -104q0 -55 -30 -87.5t-81 -32.5q-52 0 -82 32.5t-30 87.5q0 81 62 104q-50 24 -50 94q0 50 27 79.5t73 29.5t72.5 -29.5t26.5 -79.5q0 -70 -50 -94zM137 202q-28 0 -43.5 -18.5t-15.5 -51.5t15.5 -52t43.5 -19q26 0 42 19t16 52t-15.5 51.5t-42.5 18.5
zM137 -139q33 0 51.5 20.5t18.5 59.5q0 37 -19 58t-51 21q-33 0 -52 -21t-19 -58q0 -39 19 -59.5t52 -20.5z" />
    <glyph glyph-name="uni2089" unicode="&#x2089;" horiz-adv-x="271" 
d="M136 246q52 0 83 -37.5t31 -100.5q0 -53 -26.5 -113.5t-94.5 -169.5h-48q54 86 92 154q-16 -8 -39 -8q-52 0 -82 37t-30 100t31 100.5t83 37.5zM63 108q0 -45 19.5 -71.5t53.5 -26.5q33 0 53 26.5t20 71.5q0 43 -20 69t-53 26q-34 0 -53.5 -25.5t-19.5 -69.5z" />
    <glyph glyph-name="uni208A" unicode="&#x208a;" horiz-adv-x="272" 
d="M248 5v-38h-95v-120h-34v120h-95v38h95v121h34v-121h95z" />
    <glyph glyph-name="uni208B" unicode="&#x208b;" horiz-adv-x="272" 
d="M24 5h223v-38h-223v38z" />
    <glyph glyph-name="uni208C" unicode="&#x208c;" horiz-adv-x="272" 
d="M24 69h223v-37h-223v37zM24 -60h223v-37h-223v37z" />
    <glyph glyph-name="uni208D" unicode="&#x208d;" horiz-adv-x="169" 
d="M158 -263l-29 -26q-103 105 -103 278q0 172 103 277l28 -26q-93 -95 -93 -251q0 -160 94 -252z" />
    <glyph glyph-name="uni208E" unicode="&#x208e;" horiz-adv-x="169" 
d="M12 -263q93 93 93 252q0 156 -93 251l28 26q103 -105 103 -277q0 -173 -103 -278z" />
    <glyph glyph-name="Euro" unicode="&#x20ac;" horiz-adv-x="420" 
d="M279 39q62 0 113 43l12 -49q-54 -45 -127 -45q-88 0 -149 69t-79 187h-33v49h28q-1 13 -1 40q0 29 1 43h-28v49h33q18 118 78 186t150 68q72 0 128 -45l-12 -49q-51 43 -114 43q-69 0 -115.5 -54t-61.5 -149h256l-11 -49h-251q-1 -14 -1 -43q0 -27 1 -40h233l-11 -49
h-216q15 -95 62 -150t115 -55z" />
    <glyph glyph-name="uni20B9" unicode="&#x20b9;" horiz-adv-x="420" 
d="M383 667v-49h-138q43 -30 59 -83h79v-49h-71v-8q0 -73 -39.5 -123t-109.5 -62l168 -293h-62l-192 340h44q65 0 102 38t37 100v8h-223v49h214q-31 83 -130 83h-84v49h346z" />
    <glyph glyph-name="uni20BA" unicode="&#x20ba;" horiz-adv-x="420" 
d="M339 327h52q0 -171 -63 -249t-202 -78h-53v254l-61 -40v55l61 40v93l-61 -40v55l61 40v210h53v-175l125 82v-55l-125 -82v-93l125 82v-54l-125 -83v-238q115 0 164 64t49 212z" />
    <glyph glyph-name="uni2113" unicode="&#x2113;" horiz-adv-x="302" 
d="M189 42q34 0 65 17l11 -48q-36 -20 -83 -20q-127 0 -127 147v61q-9 -7 -42 -34l-1 55q30 26 43 39v287q0 86 26 125.5t79 39.5q109 0 109 -153q0 -82 -37 -155.5t-125 -157.5v-99q0 -104 82 -104zM161 660q-27 0 -40.5 -25.5t-13.5 -86.5v-236q110 121 110 246
q0 102 -56 102z" />
    <glyph glyph-name="published" unicode="&#x2117;" horiz-adv-x="597" 
d="M299 679q118 0 192.5 -96t74.5 -249q0 -154 -74.5 -250t-192.5 -96q-119 0 -193.5 96t-74.5 250q0 153 74.5 249t193.5 96zM299 27q100 0 163.5 85t63.5 222q0 136 -63.5 221t-163.5 85q-101 0 -164.5 -85t-63.5 -221q0 -137 63.5 -222t164.5 -85zM310 524
q51 0 82.5 -30.5t31.5 -80.5t-31.5 -80.5t-82.5 -30.5h-55v-159h-40v381h95zM310 344q34 0 54 18.5t20 50.5t-19.5 50.5t-54.5 18.5h-55v-138h55z" />
    <glyph glyph-name="trademark" unicode="&#x2122;" horiz-adv-x="485" 
d="M175 667v-32h-66v-258h-35v258h-67v32h168zM453 667v-290h-36v230l-83 -177h-13l-83 179v-232h-34v290h45l79 -175l78 175h47z" />
    <glyph glyph-name="uni2126" unicode="&#x2126;" horiz-adv-x="610" 
d="M435 46h138v-46h-220v46q74 21 117.5 98t43.5 192q0 134 -57 213.5t-152 79.5t-152.5 -80t-57.5 -213q0 -115 43.5 -192t117.5 -98v-46h-220v46h138q-61 39 -96 116.5t-35 180.5q0 152 71.5 243.5t190.5 91.5t190 -91.5t71 -243.5q0 -103 -35 -180.5t-96 -116.5z" />
    <glyph glyph-name="estimated" unicode="&#x212e;" horiz-adv-x="812" 
d="M406 -10q-171 0 -272 95q-104 99 -104 248q0 148 105 248q103 96 271 96q154 0 260 -85q106 -86 116 -269h-598q-8 0 -11.5 -2.5t-3.5 -14.5v-168q0 -33 70.5 -77t166.5 -44q69 0 132 30.5t106 78.5h70q-72 -80 -141 -107q-73 -29 -167 -29zM184 345h441q11 0 14 3.5
t3 12.5v165q0 41 -79 84t-159 43q-61 0 -118.5 -24.5t-87 -52t-29.5 -43.5v-180q0 -8 15 -8z" />
    <glyph glyph-name="arrowleft" unicode="&#x2190;" horiz-adv-x="758" 
d="M718 360v-52h-584l219 -215l-36 -35l-277 276l277 278l36 -36l-219 -216h584z" />
    <glyph glyph-name="arrowup" unicode="&#x2191;" horiz-adv-x="634" 
d="M594 401l-36 -36l-215 219v-584h-52v584l-215 -219l-36 36l277 277z" />
    <glyph glyph-name="arrowright" unicode="&#x2192;" horiz-adv-x="758" 
d="M441 611l277 -276l-277 -278l-36 36l219 216h-584v52h584l-219 215z" />
    <glyph glyph-name="arrowdown" unicode="&#x2193;" horiz-adv-x="634" 
d="M558 296l36 -36l-277 -277l-277 277l36 36l215 -219v584h52v-584z" />
    <glyph glyph-name="uni2196" unicode="&#x2196;" horiz-adv-x="578" 
d="M538 107l-37 -36l-413 413l3 -307h-50l-1 392h392v-51l-307 2z" />
    <glyph glyph-name="uni2197" unicode="&#x2197;" horiz-adv-x="578" 
d="M146 568l392 1v-392h-51l3 308l-413 -414l-37 37l413 413l-307 -3v50z" />
    <glyph glyph-name="uni2198" unicode="&#x2198;" horiz-adv-x="578" 
d="M145 101v51l308 -3l-413 413l37 37l412 -412l-3 306h51l1 -392h-393z" />
    <glyph glyph-name="uni2199" unicode="&#x2199;" horiz-adv-x="578" 
d="M538 562l-413 -413l307 3v-51h-392v392h50l-2 -307l413 413z" />
    <glyph glyph-name="partialdiff" unicode="&#x2202;" horiz-adv-x="434" 
d="M215 676q94 0 148.5 -87.5t54.5 -257.5q0 -174 -54.5 -257.5t-146.5 -83.5q-82 0 -133.5 64.5t-51.5 168.5q0 103 49.5 167.5t129.5 64.5q55 0 96.5 -33t62.5 -91v1q0 149 -42.5 223t-118.5 74q-51 0 -94 -32l-9 45q50 34 109 34zM217 37q61 0 98.5 51.5t37.5 134.5
q0 84 -37.5 135.5t-98.5 51.5t-98 -51.5t-37 -135.5q0 -83 37 -134.5t98 -51.5z" />
    <glyph glyph-name="uni2206" unicode="&#x2206;" horiz-adv-x="473" 
d="M416 0l-81 273l-82 -239l-8 -34h-230l103 435h170l-69 232h50l70 -232h5l-2 -9l129 -426h-55zM309 283h23l-13 44z" />
    <glyph glyph-name="product" unicode="&#x220f;" horiz-adv-x="529" 
d="M71 -175v842h387v-842h-53v791h-282v-791h-52z" />
    <glyph glyph-name="summation" unicode="&#x2211;" horiz-adv-x="429" 
d="M402 667v-51h-309l189 -370l-189 -370h309v-51h-376v43l194 378l-194 378v43h376z" />
    <glyph glyph-name="minus" unicode="&#x2212;" horiz-adv-x="418" 
d="M35 283h348v-45h-348v45z" />
    <glyph glyph-name="uni2215" unicode="&#x2215;" horiz-adv-x="536" 
d="M85 0h-52l297 667h51z" />
    <glyph glyph-name="uni2219" unicode="&#x2219;" horiz-adv-x="536" 
d="M253 219q-16 0 -27 11t-11 28t11 28.5t27 11.5q17 0 28 -11.5t11 -28.5t-11 -28t-28 -11z" />
    <glyph glyph-name="radical" unicode="&#x221a;" horiz-adv-x="494" 
d="M439 702h47l-250 -877h-68l-90 401h-70v44h107l89 -395z" />
    <glyph glyph-name="infinity" unicode="&#x221e;" horiz-adv-x="637" 
d="M472 433q59 0 96 -48t37 -126t-36.5 -125.5t-96.5 -47.5q-49 0 -84 35.5t-69 98.5q-18 -31 -31 -51t-32.5 -41t-42 -31.5t-48.5 -10.5q-60 0 -96.5 48t-36.5 125q0 78 36.5 126t96.5 48q49 0 83 -34.5t71 -99.5q34 63 69 98.5t84 35.5zM165 133q21 0 39 9.5t34 30.5
t26.5 38t26.5 48q-16 31 -26.5 48.5t-26.5 38.5t-34 30.5t-39 9.5q-39 0 -62 -34.5t-23 -92.5t23 -92t62 -34zM472 133q39 0 62.5 34t23.5 92t-23.5 92.5t-62.5 34.5q-40 0 -67.5 -32t-59.5 -95q22 -41 36 -63.5t38.5 -42.5t52.5 -20z" />
    <glyph glyph-name="integral" unicode="&#x222b;" horiz-adv-x="391" 
d="M-4 -170l9 47q20 -9 37 -9q76 0 92 118l71 528q21 162 134 162q33 0 57 -13l-10 -46q-17 9 -37 9q-75 0 -92 -119l-70 -527q-11 -81 -46 -122t-89 -41q-32 0 -56 13z" />
    <glyph glyph-name="approxequal" unicode="&#x2248;" horiz-adv-x="419" 
d="M48 293q0 66 24 106.5t68 40.5q24 0 44.5 -16t32.5 -34.5t28.5 -34.5t32.5 -16q25 0 38 27.5t13 73.5h42q0 -67 -24.5 -107t-68.5 -40q-24 0 -44.5 16t-32 34.5t-28 34.5t-33.5 16q-25 0 -38 -27.5t-13 -73.5h-41zM48 80q0 67 24 107t68 40q24 0 44.5 -16t32.5 -34.5
t28.5 -34.5t32.5 -16q25 0 38 27.5t13 73.5h42q0 -66 -24.5 -106.5t-68.5 -40.5q-24 0 -44.5 16t-32 34.5t-28 34.5t-33.5 16q-25 0 -38 -27.5t-13 -73.5h-41z" />
    <glyph glyph-name="notequal" unicode="&#x2260;" horiz-adv-x="418" 
d="M383 337h-110l-78 -154h188v-45h-207l-63 -126h-44l63 126h-97v45h117l78 154h-195v46h214l62 125h44l-62 -125h90v-46z" />
    <glyph glyph-name="lessequal" unicode="&#x2264;" horiz-adv-x="418" 
d="M383 516v-50l-317 -150l317 -150v-50l-348 165v70zM35 4v45h348v-45h-348z" />
    <glyph glyph-name="greaterequal" unicode="&#x2265;" horiz-adv-x="418" 
d="M35 516l348 -165v-70l-348 -165v50l317 150l-317 150v50zM35 4v45h348v-45h-348z" />
    <glyph glyph-name="lozenge" unicode="&#x25ca;" horiz-adv-x="450" 
d="M261 667l165 -421l-165 -421h-72l-165 421l165 421h72zM225 -130l145 376l-145 376l-145 -376z" />
    <glyph glyph-name="uni2610" unicode="&#x2610;" horiz-adv-x="547" 
d="M15 0v667h517v-667h-517zM56 41h435v585h-435v-585z" />
    <glyph glyph-name="uni2611" unicode="&#x2611;" horiz-adv-x="547" 
d="M15 667h517v-667h-517v667zM491 41v585h-435v-585h435zM208 88q-47 168 -125 211l23 40q77 -36 121 -178q38 169 91 279t116 148l27 -44q-63 -38 -118 -157.5t-90 -298.5h-45z" />
    <glyph glyph-name="uni2612" unicode="&#x2612;" horiz-adv-x="547" 
d="M15 667h517v-667h-517v667zM491 41v585h-435v-585h435zM123 91l-33 27q58 123 130 228q-71 111 -110 191l37 32q41 -84 102 -181q89 122 176 192l30 -46q-89 -67 -179 -188q58 -90 148 -206l-33 -37q-79 101 -144 201q-69 -99 -124 -213z" />
    <glyph glyph-name="uni2713" unicode="&#x2713;" horiz-adv-x="547" 
d="M473 674l28 -49q-79 -42 -157 -216.5t-125 -410.5h-46q-72 222 -159 257l24 45q87 -32 152 -220q51 231 126 390.5t157 203.5z" />
    <glyph glyph-name="uni2717" unicode="&#x2717;" horiz-adv-x="547" 
d="M519 626q-123 -96 -250 -275q101 -170 190 -292l-37 -37q-85 116 -184 283q-98 -148 -171 -309l-39 26q79 173 183 330q-92 162 -143 279l42 30q46 -107 132 -262q126 178 244 275z" />
    <glyph glyph-name="uniFEFF" unicode="&#xfeff;" 
 />
    <glyph glyph-name="a.ss01" horiz-adv-x="375" 
d="M171 482q73 0 113.5 -41.5t40.5 -115.5v-325h-46v76q-34 -87 -123 -87q-62 0 -97 39t-35 105q0 70 39.5 109.5t109.5 39.5q55 0 103 -19v54q0 57 -28.5 87t-81.5 30q-61 0 -109 -40l-10 48q55 40 124 40zM164 35q52 0 82 40.5t30 113.5v31q-51 17 -98 17q-51 0 -78 -27.5
t-27 -76.5q0 -46 23.5 -72t67.5 -26z" />
    <glyph glyph-name="aacute.ss01" horiz-adv-x="375" 
d="M261 694l-93 -131h-50l85 131h58zM171 482q73 0 113.5 -41.5t40.5 -115.5v-325h-46v76q-34 -87 -123 -87q-62 0 -97 39t-35 105q0 70 39.5 109.5t109.5 39.5q55 0 103 -19v54q0 57 -28.5 87t-81.5 30q-61 0 -109 -40l-10 48q55 40 124 40zM164 35q52 0 82 40.5t30 113.5
v31q-51 17 -98 17q-51 0 -78 -27.5t-27 -76.5q0 -46 23.5 -72t67.5 -26z" />
    <glyph glyph-name="abreve.ss01" horiz-adv-x="375" 
d="M175 559q-44 0 -71 34t-27 91h40q0 -37 15.5 -58.5t42.5 -21.5t43 21.5t16 58.5h39q0 -57 -26.5 -91t-71.5 -34zM171 482q73 0 113.5 -41.5t40.5 -115.5v-325h-46v76q-34 -87 -123 -87q-62 0 -97 39t-35 105q0 70 39.5 109.5t109.5 39.5q55 0 103 -19v54q0 57 -28.5 87
t-81.5 30q-61 0 -109 -40l-10 48q55 40 124 40zM164 35q52 0 82 40.5t30 113.5v31q-51 17 -98 17q-51 0 -78 -27.5t-27 -76.5q0 -46 23.5 -72t67.5 -26z" />
    <glyph glyph-name="acircumflex.ss01" horiz-adv-x="375" 
d="M175 657l-58 -94h-47l76 131h57l76 -131h-47zM171 482q73 0 113.5 -41.5t40.5 -115.5v-325h-46v76q-34 -87 -123 -87q-62 0 -97 39t-35 105q0 70 39.5 109.5t109.5 39.5q55 0 103 -19v54q0 57 -28.5 87t-81.5 30q-61 0 -109 -40l-10 48q55 40 124 40zM164 35
q52 0 82 40.5t30 113.5v31q-51 17 -98 17q-51 0 -78 -27.5t-27 -76.5q0 -46 23.5 -72t67.5 -26z" />
    <glyph glyph-name="adieresis.ss01" horiz-adv-x="375" 
d="M120 601q-17 0 -27.5 11t-10.5 28t10.5 28t27.5 11q16 0 26.5 -11t10.5 -28t-10.5 -28t-26.5 -11zM229 601q-17 0 -27.5 11t-10.5 28t10.5 28t27.5 11q16 0 26.5 -11t10.5 -28t-10.5 -28t-26.5 -11zM171 482q73 0 113.5 -41.5t40.5 -115.5v-325h-46v76q-34 -87 -123 -87
q-62 0 -97 39t-35 105q0 70 39.5 109.5t109.5 39.5q55 0 103 -19v54q0 57 -28.5 87t-81.5 30q-61 0 -109 -40l-10 48q55 40 124 40zM164 35q52 0 82 40.5t30 113.5v31q-51 17 -98 17q-51 0 -78 -27.5t-27 -76.5q0 -46 23.5 -72t67.5 -26z" />
    <glyph glyph-name="agrave.ss01" horiz-adv-x="375" 
d="M231 563h-49l-94 131h58zM171 482q73 0 113.5 -41.5t40.5 -115.5v-325h-46v76q-34 -87 -123 -87q-62 0 -97 39t-35 105q0 70 39.5 109.5t109.5 39.5q55 0 103 -19v54q0 57 -28.5 87t-81.5 30q-61 0 -109 -40l-10 48q55 40 124 40zM164 35q52 0 82 40.5t30 113.5v31
q-51 17 -98 17q-51 0 -78 -27.5t-27 -76.5q0 -46 23.5 -72t67.5 -26z" />
    <glyph glyph-name="amacron.ss01" horiz-adv-x="375" 
d="M282 658v-42h-215v42h215zM171 482q73 0 113.5 -41.5t40.5 -115.5v-325h-46v76q-34 -87 -123 -87q-62 0 -97 39t-35 105q0 70 39.5 109.5t109.5 39.5q55 0 103 -19v54q0 57 -28.5 87t-81.5 30q-61 0 -109 -40l-10 48q55 40 124 40zM164 35q52 0 82 40.5t30 113.5v31
q-51 17 -98 17q-51 0 -78 -27.5t-27 -76.5q0 -46 23.5 -72t67.5 -26z" />
    <glyph glyph-name="aogonek.ss01" horiz-adv-x="375" 
d="M334 -134l8 -36q-22 -15 -53 -15q-29 0 -46 17.5t-17 48.5q0 54 59 119h-6v76q-34 -87 -123 -87q-62 0 -97 39t-35 105q0 70 39.5 109.5t109.5 39.5q55 0 103 -19v54q0 57 -28.5 87t-81.5 30q-61 0 -109 -40l-10 48q55 40 124 40q73 0 113.5 -41.5t40.5 -115.5v-325h-7
l3 -1q-55 -63 -55 -108q0 -36 33 -36q19 0 35 11zM164 35q52 0 82 40.5t30 113.5v31q-51 17 -98 17q-51 0 -78 -27.5t-27 -76.5q0 -46 23.5 -72t67.5 -26z" />
    <glyph glyph-name="aring.ss01" horiz-adv-x="375" 
d="M175 547q-39 0 -64 26t-25 67t25 67.5t64 26.5t64.5 -26.5t25.5 -67.5q0 -40 -25.5 -66.5t-64.5 -26.5zM175 705q-26 0 -43.5 -18.5t-17.5 -46.5t17.5 -47t43.5 -19q28 0 45 18.5t17 47.5t-17 47t-45 18zM171 482q73 0 113.5 -41.5t40.5 -115.5v-325h-46v76
q-34 -87 -123 -87q-62 0 -97 39t-35 105q0 70 39.5 109.5t109.5 39.5q55 0 103 -19v54q0 57 -28.5 87t-81.5 30q-61 0 -109 -40l-10 48q55 40 124 40zM164 35q52 0 82 40.5t30 113.5v31q-51 17 -98 17q-51 0 -78 -27.5t-27 -76.5q0 -46 23.5 -72t67.5 -26z" />
    <glyph glyph-name="atilde.ss01" horiz-adv-x="375" 
d="M125 642q-35 0 -35 -83h-38q0 58 18.5 93t52.5 35q19 0 35 -13t24.5 -28.5t20 -28.5t23.5 -13q35 0 35 83h38q0 -57 -18.5 -92.5t-52.5 -35.5q-19 0 -35 13t-24.5 28.5t-20 28.5t-23.5 13zM171 482q73 0 113.5 -41.5t40.5 -115.5v-325h-46v76q-34 -87 -123 -87
q-62 0 -97 39t-35 105q0 70 39.5 109.5t109.5 39.5q55 0 103 -19v54q0 57 -28.5 87t-81.5 30q-61 0 -109 -40l-10 48q55 40 124 40zM164 35q52 0 82 40.5t30 113.5v31q-51 17 -98 17q-51 0 -78 -27.5t-27 -76.5q0 -46 23.5 -72t67.5 -26z" />
    <glyph glyph-name="f_i" horiz-adv-x="418" 
d="M189 664q-34 0 -50 -19.5t-16 -62.5v-110h109v-48h-109v-424h-50v424h-61v48h61v114q0 60 29 92t84 32q28 0 51 -9l-7 -45q-21 8 -41 8zM333 680q17 0 28 -11t11 -29q0 -17 -11 -28t-28 -11t-27.5 11t-10.5 28q0 18 10.5 29t27.5 11zM309 0v472h49v-472h-49z" />
    <glyph glyph-name="f_l" horiz-adv-x="444" 
d="M189 664q-34 0 -50 -19.5t-16 -62.5v-110h109v-48h-109v-424h-50v424h-61v48h61v114q0 60 29 92t84 32q28 0 51 -9l-7 -45q-21 8 -41 8zM430 46l5 -42q-17 -9 -47 -9q-41 0 -60 22t-19 70v615h49v-607q0 -54 44 -54q15 0 28 5z" />
    <glyph glyph-name="zero.lf" horiz-adv-x="429" 
d="M214 -11q-85 0 -135 93t-50 251t50 251.5t135 93.5t135.5 -93.5t50.5 -251.5q0 -157 -50.5 -250.5t-135.5 -93.5zM214 39q62 0 97.5 80t35.5 214q0 135 -35.5 215t-97.5 80q-61 0 -97 -80t-36 -215q0 -134 36 -214t97 -80z" />
    <glyph glyph-name="one.lf" horiz-adv-x="293" 
d="M187 679h9v-679h-52v600l-126 -73l-11 49z" />
    <glyph glyph-name="two.lf" horiz-adv-x="420" 
d="M88 49h285v-49h-349q6 72 37.5 132t71 100t78 77t65 82t26.5 97q0 63 -37 101t-98 38q-69 0 -121 -54l-15 50q59 54 139 54q82 0 133 -52t51 -136q0 -57 -24 -106.5t-59.5 -87t-72.5 -72.5t-68.5 -80t-41.5 -94z" />
    <glyph glyph-name="three.lf" horiz-adv-x="420" 
d="M234 341q118 -34 118 -163q0 -87 -53.5 -138t-145.5 -51q-76 0 -131 35l11 49q50 -34 119 -34q70 0 109 36.5t39 102.5t-41.5 101.5t-117.5 35.5h-28v50h28q68 0 104 35t36 100q0 59 -32.5 93t-89.5 34q-59 0 -108 -39l-11 49q54 40 122 40q77 0 124 -48t47 -129
q0 -121 -99 -159zM12 547q16 24 39 41l11 -53z" />
    <glyph glyph-name="four.lf" horiz-adv-x="434" 
d="M327 225h86v-47h-86v-178h-50v178h-256v47l227 442h79v-442zM73 225h204v397z" />
    <glyph glyph-name="five.lf" horiz-adv-x="420" 
d="M180 -11q-82 0 -144 51l17 52q55 -52 127 -52q66 0 104.5 45t38.5 122q0 73 -35.5 114t-99.5 41q-54 0 -101 -33l-34 11l38 327h246v-51h-200l-27 -226q38 21 82 21q83 0 133.5 -55.5t50.5 -148.5q0 -97 -54 -157.5t-142 -60.5z" />
    <glyph glyph-name="six.lf" horiz-adv-x="420" 
d="M212 437q81 0 129 -61t48 -164t-48.5 -163.5t-129.5 -60.5q-83 0 -131.5 60.5t-48.5 163.5q0 87 42.5 186t152.5 269h63q-97 -147 -157 -257q32 27 80 27zM211 39q57 0 91 46.5t34 126.5q0 81 -34 128t-91 47q-59 0 -93.5 -46.5t-34.5 -128.5q0 -80 34.5 -126.5
t93.5 -46.5z" />
    <glyph glyph-name="seven.lf" horiz-adv-x="378" 
d="M374 667l-259 -667h-56l239 616h-284v51h360z" />
    <glyph glyph-name="eight.lf" horiz-adv-x="420" 
d="M288 350q96 -42 96 -169q0 -89 -47 -141t-127 -52t-127 52t-47 141q0 127 96 169q-76 41 -76 153q0 80 41.5 127.5t112.5 47.5t112.5 -47.5t41.5 -127.5q0 -112 -76 -153zM210 627q-49 0 -76 -33t-27 -92q0 -60 28 -95t75 -35t75 35t28 95q0 58 -27.5 91.5t-75.5 33.5z
M210 39q57 0 89.5 37.5t32.5 104.5t-33 104.5t-89 37.5t-89 -37.5t-33 -104.5t32.5 -104.5t89.5 -37.5z" />
    <glyph glyph-name="nine.lf" horiz-adv-x="420" 
d="M209 679q82 0 130.5 -60.5t48.5 -163.5q0 -87 -42.5 -186t-152.5 -269h-62q97 150 156 256q-33 -26 -80 -26q-80 0 -128 61t-48 164t48.5 163.5t129.5 60.5zM83 455q0 -81 34.5 -128t91.5 -47q58 0 92.5 46.5t34.5 128.5q0 80 -34.5 126.5t-92.5 46.5q-57 0 -91.5 -46.5
t-34.5 -126.5z" />
    <glyph glyph-name="zero.dnom" horiz-adv-x="272" 
d="M136 -7q-56 0 -86 55.5t-30 157.5q0 103 30 158.5t86 55.5q55 0 85 -55.5t30 -158.5q0 -102 -30 -157.5t-85 -55.5zM136 36q35 0 54.5 44t19.5 126t-19.5 126.5t-54.5 44.5q-36 0 -55.5 -44.5t-19.5 -126.5t19.5 -126t55.5 -44z" />
    <glyph glyph-name="one.dnom" horiz-adv-x="277" 
d="M171 43h68v-43h-184v43h76v313l-77 -42l-9 41l120 66h6v-378z" />
    <glyph glyph-name="two.dnom" horiz-adv-x="272" 
d="M66 43h173v-43h-222q4 47 22.5 84.5t42.5 62t47 46.5t39 48.5t16 57.5q0 36 -20 57t-54 21q-44 0 -78 -34l-13 40q39 37 93 37q51 0 82 -32.5t31 -88.5q0 -35 -14 -65t-35 -51.5t-43 -41.5t-41.5 -45.5t-25.5 -52.5z" />
    <glyph glyph-name="three.dnom" horiz-adv-x="273" 
d="M156 212q70 -22 70 -101q0 -54 -35 -86t-94 -32q-47 0 -82 20l8 42q32 -19 72 -19q43 0 66.5 20.5t23.5 57.5t-24 57t-68 20h-22v40h22q39 0 59.5 19.5t20.5 54.5q0 34 -18.5 53t-52.5 19q-36 0 -68 -23l-8 38q36 28 80 28q49 0 78.5 -30.5t29.5 -80.5q0 -74 -58 -97z
" />
    <glyph glyph-name="four.dnom" horiz-adv-x="268" 
d="M208 145h50v-41h-50v-104h-40v104h-158v41l136 269h62v-269zM52 145h116v229z" />
    <glyph glyph-name="five.dnom" horiz-adv-x="273" 
d="M117 -7q-52 0 -92 32l14 41q33 -30 77 -30q40 0 63 25.5t23 68.5q0 42 -22 65t-63 23q-31 0 -54 -13l-26 8l22 201h160v-43h-124l-14 -123q19 9 44 9q53 0 85.5 -35.5t32.5 -93.5q0 -60 -35 -97.5t-91 -37.5z" />
    <glyph glyph-name="six.dnom" horiz-adv-x="271" 
d="M138 268q51 0 81.5 -37t30.5 -100t-31 -100.5t-83 -37.5t-83 37.5t-31 100.5q0 53 26.5 113.5t93.5 169.5h49q-55 -85 -92 -154q16 8 39 8zM136 36q33 0 53 26t20 69q0 45 -20 71.5t-53 26.5t-53 -26.5t-20 -71.5q0 -43 20 -69t53 -26z" />
    <glyph glyph-name="seven.dnom" horiz-adv-x="272" 
d="M253 414l-160 -414h-43l143 372h-170v42h230z" />
    <glyph glyph-name="eight.dnom" horiz-adv-x="273" 
d="M186 217q62 -24 62 -104q0 -55 -30 -87.5t-81 -32.5q-52 0 -82 32.5t-30 87.5q0 81 62 104q-50 24 -50 94q0 50 27 79.5t73 29.5t72.5 -29.5t26.5 -79.5q0 -70 -50 -94zM137 377q-28 0 -43.5 -18.5t-15.5 -51.5t15.5 -52t43.5 -19q26 0 42 19t16 52t-15.5 51.5
t-42.5 18.5zM137 36q33 0 51.5 20.5t18.5 59.5q0 37 -19 58t-51 21q-33 0 -52 -21t-19 -58q0 -39 19 -59.5t52 -20.5z" />
    <glyph glyph-name="nine.dnom" horiz-adv-x="271" 
d="M136 421q52 0 83 -37.5t31 -100.5q0 -53 -26.5 -113.5t-94.5 -169.5h-48q54 86 92 154q-16 -8 -39 -8q-52 0 -82 37t-30 100t31 100.5t83 37.5zM63 283q0 -45 19.5 -71.5t53.5 -26.5q33 0 53 26.5t20 71.5q0 43 -20 69t-53 26q-34 0 -53.5 -25.5t-19.5 -69.5z" />
    <glyph glyph-name="zero.numr" horiz-adv-x="272" 
d="M136 246q-56 0 -86 55.5t-30 157.5q0 103 30 158.5t86 55.5q55 0 85 -55.5t30 -158.5q0 -102 -30 -157.5t-85 -55.5zM136 289q35 0 54.5 44t19.5 126t-19.5 126.5t-54.5 44.5q-36 0 -55.5 -44.5t-19.5 -126.5t19.5 -126t55.5 -44z" />
    <glyph glyph-name="one.numr" horiz-adv-x="277" 
d="M171 296h68v-43h-184v43h76v313l-77 -42l-9 41l120 66h6v-378z" />
    <glyph glyph-name="two.numr" horiz-adv-x="272" 
d="M66 296h173v-43h-222q4 47 22.5 84.5t42.5 62t47 46.5t39 48.5t16 57.5q0 36 -20 57t-54 21q-44 0 -78 -34l-13 40q39 37 93 37q51 0 82 -32.5t31 -88.5q0 -35 -14 -65t-35 -51.5t-43 -41.5t-41.5 -45.5t-25.5 -52.5z" />
    <glyph glyph-name="three.numr" horiz-adv-x="273" 
d="M156 465q70 -22 70 -101q0 -54 -35 -86t-94 -32q-47 0 -82 20l8 42q32 -19 72 -19q43 0 66.5 20.5t23.5 57.5t-24 57t-68 20h-22v40h22q39 0 59.5 19.5t20.5 54.5q0 34 -18.5 53t-52.5 19q-36 0 -68 -23l-8 38q36 28 80 28q49 0 78.5 -30.5t29.5 -80.5q0 -74 -58 -97z
" />
    <glyph glyph-name="four.numr" horiz-adv-x="268" 
d="M208 398h50v-41h-50v-104h-40v104h-158v41l136 269h62v-269zM52 398h116v229z" />
    <glyph glyph-name="five.numr" horiz-adv-x="273" 
d="M117 246q-52 0 -92 32l14 41q33 -30 77 -30q40 0 63 25.5t23 68.5q0 42 -22 65t-63 23q-31 0 -54 -13l-26 8l22 201h160v-43h-124l-14 -123q19 9 44 9q53 0 85.5 -35.5t32.5 -93.5q0 -60 -35 -97.5t-91 -37.5z" />
    <glyph glyph-name="six.numr" horiz-adv-x="271" 
d="M138 521q51 0 81.5 -37t30.5 -100t-31 -100.5t-83 -37.5t-83 37.5t-31 100.5q0 53 26.5 113.5t93.5 169.5h49q-55 -85 -92 -154q16 8 39 8zM136 289q33 0 53 26t20 69q0 45 -20 71.5t-53 26.5t-53 -26.5t-20 -71.5q0 -43 20 -69t53 -26z" />
    <glyph glyph-name="seven.numr" horiz-adv-x="272" 
d="M253 667l-160 -414h-43l143 372h-170v42h230z" />
    <glyph glyph-name="eight.numr" horiz-adv-x="273" 
d="M186 470q62 -24 62 -104q0 -55 -30 -87.5t-81 -32.5q-52 0 -82 32.5t-30 87.5q0 81 62 104q-50 24 -50 94q0 50 27 79.5t73 29.5t72.5 -29.5t26.5 -79.5q0 -70 -50 -94zM137 630q-28 0 -43.5 -18.5t-15.5 -51.5t15.5 -52t43.5 -19q26 0 42 19t16 52t-15.5 51.5
t-42.5 18.5zM137 289q33 0 51.5 20.5t18.5 59.5q0 37 -19 58t-51 21q-33 0 -52 -21t-19 -58q0 -39 19 -59.5t52 -20.5z" />
    <glyph glyph-name="nine.numr" horiz-adv-x="271" 
d="M136 674q52 0 83 -37.5t31 -100.5q0 -53 -26.5 -113.5t-94.5 -169.5h-48q54 86 92 154q-16 -8 -39 -8q-52 0 -82 37t-30 100t31 100.5t83 37.5zM63 536q0 -45 19.5 -71.5t53.5 -26.5q33 0 53 26.5t20 71.5q0 43 -20 69t-53 26q-34 0 -53.5 -25.5t-19.5 -69.5z" />
    <glyph glyph-name="caroncomb.alt" 
d="M-113 540l23 162h50l-36 -162h-37z" />
    <glyph glyph-name="uni0308.case" 
d="M-199 728q-17 0 -27.5 11t-10.5 28t11 28.5t27 11.5t26.5 -11.5t10.5 -28.5t-10.5 -28t-26.5 -11zM-90 728q-17 0 -27.5 11t-10.5 28t11 28.5t27 11.5t26.5 -11.5t10.5 -28.5t-10.5 -28t-26.5 -11z" />
    <glyph glyph-name="uni0307.case" 
d="M-79 728q-17 0 -27.5 11t-10.5 28t11 28.5t27 11.5q17 0 28 -11.5t11 -28.5t-11 -28t-28 -11z" />
    <glyph glyph-name="gravecomb.case" 
d="M-40 723h-49l-94 131h58z" />
    <glyph glyph-name="acutecomb.case" 
d="M-183 723l85 131h58l-93 -131h-50z" />
    <glyph glyph-name="uni030B.case" 
d="M-289 723l85 131h56l-93 -131h-48zM-182 723l86 131h56l-94 -131h-48z" />
    <glyph glyph-name="uni0302.case" 
d="M-40 723h-47l-57 94l-58 -94h-47l76 131h57z" />
    <glyph glyph-name="uni030C.case" 
d="M-87 854h47l-76 -131h-57l-76 131h47l58 -97z" />
    <glyph glyph-name="uni0306.case" 
d="M-79 844h39q0 -57 -26.5 -91t-71.5 -34q-44 0 -71 34t-27 91h40q0 -37 15.5 -58.5t42.5 -21.5t43 21.5t16 58.5z" />
    <glyph glyph-name="uni030A.case" 
d="M-130 708q-39 0 -64 26t-25 67t25 67.5t64 26.5t64.5 -26.5t25.5 -67.5q0 -40 -25.5 -66.5t-64.5 -26.5zM-130 735q28 0 45 18.5t17 47.5t-17 47t-45 18q-26 0 -43.5 -18.5t-17.5 -46.5t17.5 -47t43.5 -19z" />
    <glyph glyph-name="tildecomb.case" 
d="M-287 719q0 58 18.5 93t52.5 35q19 0 35 -13t24.5 -28.5t20 -28.5t23.5 -13q35 0 35 83h38q0 -57 -18.5 -92.5t-52.5 -35.5q-19 0 -35 13t-24.5 28.5t-20 28.5t-23.5 13q-35 0 -35 -83h-38z" />
    <glyph glyph-name="uni0304.case" 
d="M-255 785h215v-42h-215v42z" />
    <glyph glyph-name="uni0335.case" 
d="M-305 365h265v-46h-265v46z" />
    <glyph glyph-name="uni0336.case" 
d="M-526 563h486v-47h-486v47z" />
    <glyph glyph-name="uni0337.case" 
d="M-292 304l252 185v-49l-252 -183v47z" />
    <glyph glyph-name="uni0338.case" 
d="M-73 675l33 -21l-420 -662l-33 21z" />
    <glyph glyph-name="uni0308.narrow" 
d="M-192 601q-16 0 -26 11t-10 28t10 28t26 11t26 -11t10 -28t-10 -28t-26 -11zM-76 601q-16 0 -26 11t-10 28t10 28t26 11t26 -11t10 -28t-10 -28t-26 -11z" />
    <glyph glyph-name="tildecomb.narrow" 
d="M-252 559q0 58 16 93t45 35q16 0 29.5 -13t21 -28.5t17 -28.5t19.5 -13q28 0 28 83h36q0 -57 -16 -92.5t-45 -35.5q-16 0 -29.5 13t-21 28.5t-17 28.5t-19.5 13q-27 0 -27 -83h-37z" />
    <glyph glyph-name="uni0304.narrow" 
d="M-227 658h187v-42h-187v42z" />
    <glyph glyph-name="acute.case" horiz-adv-x="223" 
d="M40 723l85 131h58l-93 -131h-50z" />
    <glyph glyph-name="breve.case" horiz-adv-x="276" 
d="M197 844h39q0 -57 -26.5 -91t-71.5 -34q-44 0 -71 34t-27 91h40q0 -37 15.5 -58.5t42.5 -21.5t43 21.5t16 58.5z" />
    <glyph glyph-name="caron.case" horiz-adv-x="289" 
d="M202 854h47l-76 -131h-57l-76 131h47l58 -97z" />
    <glyph glyph-name="circumflex.case" horiz-adv-x="289" 
d="M249 723h-47l-57 94l-58 -94h-47l76 131h57z" />
    <glyph glyph-name="dieresis.case" horiz-adv-x="290" 
d="M91 728q-17 0 -27.5 11t-10.5 28t11 28.5t27 11.5t26.5 -11.5t10.5 -28.5t-10.5 -28t-26.5 -11zM200 728q-17 0 -27.5 11t-10.5 28t11 28.5t27 11.5t26.5 -11.5t10.5 -28.5t-10.5 -28t-26.5 -11z" />
    <glyph glyph-name="dotaccent.case" horiz-adv-x="157" 
d="M78 728q-17 0 -27.5 11t-10.5 28t11 28.5t27 11.5q17 0 28 -11.5t11 -28.5t-11 -28t-28 -11z" />
    <glyph glyph-name="grave.case" horiz-adv-x="223" 
d="M209 723h-49l-94 131h58z" />
    <glyph glyph-name="hungarumlaut.case" horiz-adv-x="329" 
d="M40 723l85 131h56l-93 -131h-48zM147 723l86 131h56l-94 -131h-48z" />
    <glyph glyph-name="macron.case" horiz-adv-x="295" 
d="M40 785h215v-42h-215v42z" />
    <glyph glyph-name="ring.case" horiz-adv-x="259" 
d="M129 708q-39 0 -64 26t-25 67t25 67.5t64 26.5t64.5 -26.5t25.5 -67.5q0 -40 -25.5 -66.5t-64.5 -26.5zM129 735q28 0 45 18.5t17 47.5t-17 47t-45 18q-26 0 -43.5 -18.5t-17.5 -46.5t17.5 -47t43.5 -19z" />
    <glyph glyph-name="tilde.case" horiz-adv-x="327" 
d="M40 719q0 58 18.5 93t52.5 35q19 0 35 -13t24.5 -28.5t20 -28.5t23.5 -13q35 0 35 83h38q0 -57 -18.5 -92.5t-52.5 -35.5q-19 0 -35 13t-24.5 28.5t-20 28.5t-23.5 13q-35 0 -35 -83h-38z" />
    </font>
</defs>
</svg>
