<?xml version="1.0" standalone="no"?>
<!DOCTYPE svg PUBLIC "-//W3C//DTD SVG 1.1//EN" "http://www.w3.org/Graphics/SVG/1.1/DTD/svg11.dtd" >
<svg xmlns="http://www.w3.org/2000/svg" xmlns:xlink="http://www.w3.org/1999/xlink" version="1.1">
<metadata>
Created by FontForge 20161013 at Tue Mar 21 20:11:46 2017
 By ,,,
Copyright 2017 Allianz SE  All rights preserved
</metadata>
<defs>
<font id="AllianzNeo-Regular" horiz-adv-x="0" >
  <font-face 
    font-family="Allianz Neo"
    font-weight="400"
    font-stretch="normal"
    units-per-em="1000"
    panose-1="2 11 5 4 2 2 3 2 2 4"
    ascent="764"
    descent="-236"
    x-height="475"
    cap-height="667"
    bbox="-681 -290 980 902"
    underline-thickness="50"
    underline-position="-200"
    unicode-range="U+000D-FEFF"
  />
<missing-glyph horiz-adv-x="480" 
d="M20 0v667h440v-667h-440zM88 68h304v531h-304v-531z" />
    <glyph glyph-name="uniFB00" unicode="ff" horiz-adv-x="643" 
d="M236 636q-71 0 -71 -85v-76h130v-76h-130v-399h-80v399h-71v76h71v82q0 73 37 113t106 40q39 0 75 -13l-13 -71q-24 10 -54 10zM492 551v-76h130v-76h-130v-399h-80v399h-71v76h71v82q0 73 37 113t106 40q39 0 75 -13l-13 -71q-24 10 -54 10q-71 0 -71 -85z" />
    <glyph glyph-name="fi" unicode="fi" horiz-adv-x="542" 
d="M236 636q-71 0 -71 -85v-76h130v-76h-130v-399h-80v399h-71v76h71v82q0 73 37 113t106 40q39 0 75 -13l-13 -71q-24 10 -54 10zM429 695q25 0 40.5 -15.5t15.5 -40.5t-15.5 -40.5t-40.5 -15.5t-41 15.5t-16 40.5t16 40.5t41 15.5zM389 0v475h80v-475h-80z" />
    <glyph glyph-name="fl" unicode="fl" horiz-adv-x="573" 
d="M236 636q-71 0 -71 -85v-76h130v-76h-130v-399h-80v399h-71v76h71v82q0 73 37 113t106 40q39 0 75 -13l-13 -71q-24 10 -54 10zM550 74l9 -69q-21 -10 -62 -10q-56 0 -82 27.5t-26 87.5v592h80v-578q0 -55 48 -55q18 0 33 5z" />
    <glyph glyph-name="uniFB03" unicode="ffi" horiz-adv-x="869" 
d="M236 636q-71 0 -71 -85v-76h130v-76h-130v-399h-80v399h-71v76h71v82q0 73 37 113t106 40q39 0 75 -13l-13 -71q-24 10 -54 10zM563 636q-71 0 -71 -85v-76h130v-76h-130v-399h-80v399h-71v76h71v82q0 73 37 113t106 40q39 0 75 -13l-13 -71q-24 10 -54 10zM756 695
q25 0 40.5 -15.5t15.5 -40.5t-15.5 -40.5t-40.5 -15.5t-41 15.5t-16 40.5t16 40.5t41 15.5zM716 0v475h80v-475h-80z" />
    <glyph glyph-name="uniFB04" unicode="ffl" horiz-adv-x="900" 
d="M236 636q-71 0 -71 -85v-76h130v-76h-130v-399h-80v399h-71v76h71v82q0 73 37 113t106 40q39 0 75 -13l-13 -71q-24 10 -54 10zM563 636q-71 0 -71 -85v-76h130v-76h-130v-399h-80v399h-71v76h71v82q0 73 37 113t106 40q39 0 75 -13l-13 -71q-24 10 -54 10zM877 74l9 -69
q-21 -10 -62 -10q-56 0 -82 27.5t-26 87.5v592h80v-578q0 -55 48 -55q18 0 33 5z" />
    <glyph glyph-name=".notdef" horiz-adv-x="480" 
d="M20 0v667h440v-667h-440zM88 68h304v531h-304v-531z" />
    <glyph glyph-name=".null" 
 />
    <glyph glyph-name="nonmarkingreturn" horiz-adv-x="333" 
 />
    <glyph glyph-name="NULL" 
 />
    <glyph glyph-name="NULL" 
 />
    <glyph glyph-name="CR" unicode="&#xd;" horiz-adv-x="220" 
 />
    <glyph glyph-name="space" unicode=" " horiz-adv-x="220" 
 />
    <glyph glyph-name="exclam" unicode="!" horiz-adv-x="234" 
d="M83 187l-11 480h90l-11 -480h-68zM117 -11q-25 0 -41.5 16.5t-16.5 41.5t16.5 42t41.5 17t41.5 -17t16.5 -42t-16.5 -41.5t-41.5 -16.5z" />
    <glyph glyph-name="quotedbl" unicode="&#x22;" horiz-adv-x="314" 
d="M50 424l-11 243h91l-11 -243h-69zM196 424l-11 243h91l-11 -243h-69z" />
    <glyph glyph-name="numbersign" unicode="#" horiz-adv-x="636" 
d="M593 414h-115l-28 -161h115l-13 -70h-115l-32 -183h-72l32 183h-148l-32 -183h-72l32 183h-115l12 70h116l28 161h-115l12 70h116l32 183h72l-32 -183h148l32 183h72l-32 -183h115zM378 253l28 161h-148l-28 -161h148z" />
    <glyph glyph-name="dollar" unicode="$" horiz-adv-x="536" 
d="M479 200q0 -69 -45.5 -114.5t-126.5 -58.5v-67h-76v63q-96 3 -165 39l20 83q64 -37 145 -40v201q-76 27 -118.5 64t-42.5 107q0 68 42.5 111.5t118.5 53.5v64h76v-62q86 -6 146 -40l-20 -82q-58 34 -126 42v-195q39 -14 63.5 -25t53 -30.5t42 -48t13.5 -65.5zM156 480
q0 -53 75 -84v164q-75 -16 -75 -80zM307 112q41 10 64 32t23 52t-22.5 49.5t-64.5 34.5v-168z" />
    <glyph glyph-name="percent" unicode="%" horiz-adv-x="711" 
d="M175 373q-66 0 -104.5 41t-38.5 111t38.5 110.5t104.5 40.5t104.5 -40.5t38.5 -110.5t-38.5 -111t-104.5 -41zM565 667h96l-516 -667h-95zM175 441q33 0 51 22.5t18 61.5t-18 61t-51 22q-32 0 -50 -22t-18 -61t18 -61.5t50 -22.5zM535 -9q-66 0 -104.5 41.5t-38.5 110.5
q0 70 38.5 111t104.5 41q67 0 105.5 -41t38.5 -111q0 -69 -39 -110.5t-105 -41.5zM535 59q33 0 51 22.5t18 61.5t-18 61.5t-51 22.5q-32 0 -50 -22.5t-18 -61.5t18 -61.5t50 -22.5z" />
    <glyph glyph-name="ampersand" unicode="&#x26;" horiz-adv-x="641" 
d="M635 39l-72 -46l-88 78q-82 -82 -201 -82q-104 0 -169 58t-65 140q0 102 124 185q-59 79 -59 151q0 69 47 111.5t121 42.5q67 0 108 -37.5t41 -96.5t-37.5 -100.5t-101.5 -81.5q29 -29 62 -59q82 -76 118 -108q32 60 46 152l83 -12q-16 -115 -66 -197q9 -8 49 -44z
M270 600q-37 0 -59 -21t-22 -57q0 -50 45 -106q56 34 80.5 60t24.5 60q0 30 -18.5 47t-50.5 17zM272 66q84 0 143 59q-82 74 -135 124q-31 28 -68 67q-46 -31 -67.5 -59t-21.5 -66q0 -53 39.5 -89t109.5 -36z" />
    <glyph glyph-name="quotesingle" unicode="'" horiz-adv-x="169" 
d="M50 424l-11 243h91l-11 -243h-69z" />
    <glyph glyph-name="parenleft" unicode="(" horiz-adv-x="326" 
d="M311 -138l-62 -46q-98 82 -151.5 196.5t-53.5 251.5t53.5 251.5t151.5 196.5l62 -46q-88 -71 -137.5 -175t-49.5 -227t49.5 -227t137.5 -175z" />
    <glyph glyph-name="parenright" unicode=")" horiz-adv-x="326" 
d="M15 -138q88 71 137.5 175t49.5 227t-49.5 227t-137.5 175l62 46q98 -82 151.5 -196.5t53.5 -251.5t-53.5 -251.5t-151.5 -196.5z" />
    <glyph glyph-name="asterisk" unicode="*" horiz-adv-x="415" 
d="M133 319l-62 45l92 108l-139 34l24 73l132 -54l-11 142h77l-11 -142l131 54l25 -73l-139 -34l92 -108l-62 -45l-75 121z" />
    <glyph glyph-name="plus" unicode="+" horiz-adv-x="540" 
d="M495 297v-73h-189v-189h-73v189h-188v73h188v188h73v-188h189z" />
    <glyph glyph-name="comma" unicode="," horiz-adv-x="211" 
d="M71 -149l-61 15l78 238l79 -20z" />
    <glyph glyph-name="hyphen" unicode="-" horiz-adv-x="303" 
d="M39 300h225v-80h-225v80z" />
    <glyph glyph-name="period" unicode="." horiz-adv-x="212" 
d="M106 -9q-26 0 -42 16.5t-16 41.5t16.5 41.5t41.5 16.5t41.5 -16.5t16.5 -41.5t-16 -41.5t-42 -16.5z" />
    <glyph glyph-name="slash" unicode="/" horiz-adv-x="399" 
d="M83 -175h-83l306 842h83z" />
    <glyph glyph-name="zero" unicode="0" horiz-adv-x="536" 
d="M268 -12q-107 0 -170 93.5t-63 251.5q0 159 63 252.5t170 93.5t170 -93.5t63 -252.5q0 -158 -63 -251.5t-170 -93.5zM268 70q69 0 108.5 71t39.5 192q0 122 -39.5 193t-108.5 71t-108.5 -71t-39.5 -193q0 -121 39.5 -192t108.5 -71z" />
    <glyph glyph-name="one" unicode="1" horiz-adv-x="536" 
d="M338 80h137v-80h-371v80h149v481l-156 -68l-17 79l247 107h11v-599z" />
    <glyph glyph-name="two" unicode="2" horiz-adv-x="536" 
d="M135 80h343v-80h-449q6 56 28 103t52.5 79.5t66 60.5t70 52.5t62.5 49t45.5 56t17.5 67.5q0 58 -38.5 93t-104.5 35q-91 0 -156 -70l-27 80q77 72 188 72q100 0 161.5 -57.5t61.5 -150.5q0 -57 -27.5 -104t-70 -80.5t-86 -63.5t-83 -66.5t-54.5 -75.5z" />
    <glyph glyph-name="three" unicode="3" horiz-adv-x="536" 
d="M330 343q123 -40 123 -160q0 -89 -66 -142t-176 -53q-109 0 -182 43l21 82q62 -43 160 -43q75 0 116 30t41 85t-44 85t-126 30h-45v80h45q71 0 108.5 29t37.5 83q0 49 -32.5 76.5t-90.5 27.5q-84 0 -151 -51l-19 79q76 54 173 54q92 0 148.5 -50.5t56.5 -133.5
q0 -108 -98 -151z" />
    <glyph glyph-name="four" unicode="4" horiz-adv-x="536" 
d="M418 238h100v-76h-100v-162h-83v162h-317v76l273 429h127v-429zM106 238h229v359z" />
    <glyph glyph-name="five" unicode="5" horiz-adv-x="536" 
d="M241 -11q-116 0 -197 63l31 80q70 -61 162 -61q74 0 116.5 38t42.5 103q0 63 -40.5 98t-115.5 35q-67 0 -122 -31l-55 17l48 336h322v-82h-247l-27 -180q41 17 96 17q103 0 165 -58t62 -153q0 -99 -66.5 -160.5t-174.5 -61.5z" />
    <glyph glyph-name="six" unicode="6" horiz-adv-x="536" 
d="M270 446q104 0 168 -63t64 -165q0 -103 -64.5 -166.5t-168.5 -63.5t-169 63.5t-65 166.5q0 92 54 187t187 262h105q-116 -141 -194 -241q36 20 83 20zM269 70q66 0 107 41t41 107t-41 106.5t-107 40.5t-107.5 -40.5t-41.5 -106.5t41.5 -107t107.5 -41z" />
    <glyph glyph-name="seven" unicode="7" horiz-adv-x="536" 
d="M505 667l-322 -667h-94l283 585h-336v82h469z" />
    <glyph glyph-name="eight" unicode="8" horiz-adv-x="536" 
d="M384 351q109 -44 109 -164q0 -91 -61 -145t-164 -54t-164 54t-61 145q0 120 109 164q-85 45 -85 147q0 82 54.5 131t146.5 49t146.5 -49t54.5 -131q0 -102 -85 -147zM268 596q-56 0 -86 -26.5t-30 -74.5q0 -50 31.5 -79t84.5 -29t84.5 29t31.5 79q0 48 -30 74.5t-86 26.5
zM268 70q66 0 102.5 31t36.5 89q0 56 -37.5 87.5t-101.5 31.5t-101.5 -31.5t-37.5 -87.5q0 -58 36.5 -89t102.5 -31z" />
    <glyph glyph-name="nine" unicode="9" horiz-adv-x="536" 
d="M267 679q104 0 169 -63.5t65 -166.5q0 -92 -54 -187t-187 -262h-105q116 141 194 241q-36 -20 -83 -20q-104 0 -168 63t-64 165q0 103 64.5 166.5t168.5 63.5zM267 302q66 0 107.5 40.5t41.5 106.5t-41.5 107t-107.5 41t-107 -41t-41 -107t41 -106.5t107 -40.5z" />
    <glyph glyph-name="colon" unicode=":" horiz-adv-x="212" 
d="M106 370q-26 0 -42 16t-16 42q0 25 16.5 41.5t41.5 16.5t41.5 -16.5t16.5 -41.5q0 -26 -16 -42t-42 -16zM106 -9q-26 0 -42 16.5t-16 41.5t16.5 41.5t41.5 16.5t41.5 -16.5t16.5 -41.5t-16 -41.5t-42 -16.5z" />
    <glyph glyph-name="uni003B" unicode=";" horiz-adv-x="225" 
d="M119 372q-25 0 -41.5 16t-16.5 42q0 25 16.5 41.5t41.5 16.5t41.5 -16.5t16.5 -41.5q0 -26 -16.5 -42t-41.5 -16zM71 -123l-61 15l78 238l79 -20z" />
    <glyph glyph-name="less" unicode="&#x3c;" horiz-adv-x="540" 
d="M495 495v-81l-389 -154l389 -154v-80l-450 178v112z" />
    <glyph glyph-name="equal" unicode="=" horiz-adv-x="540" 
d="M45 402h450v-73h-450v73zM45 192h450v-73h-450v73z" />
    <glyph glyph-name="greater" unicode="&#x3e;" horiz-adv-x="540" 
d="M45 495l450 -179v-112l-450 -178v80l389 154l-389 154v81z" />
    <glyph glyph-name="question" unicode="?" horiz-adv-x="454" 
d="M133 187v15q0 37 14 67.5t35.5 50.5t46 41t46 38t35.5 41t14 52q0 46 -36 75t-96 29q-87 0 -147 -55l-26 74q74 63 181 63q94 0 152 -50t58 -132q0 -47 -20 -83.5t-49 -59.5t-57.5 -43.5t-48.5 -47.5t-20 -60v-15h-82zM174 -11q-25 0 -41.5 16.5t-16.5 41.5t16.5 42
t41.5 17t42 -17t17 -42t-17 -41.5t-42 -16.5z" />
    <glyph glyph-name="at" unicode="@" horiz-adv-x="884" 
d="M547 449h71v-261q0 -33 10.5 -48t36.5 -15q45 0 75 45.5t30 123.5q0 135 -91 221.5t-233 86.5q-147 0 -240 -94.5t-93 -244.5q0 -154 93 -251t240 -97q59 0 119.5 15t101.5 41l33 -69q-48 -29 -117.5 -46t-136.5 -17q-178 0 -294 119.5t-116 304.5q0 181 115.5 298
t294.5 117q176 0 289 -108t113 -276q0 -111 -51 -179t-132 -68q-100 0 -116 90q-47 -78 -134 -78q-75 0 -123.5 56t-48.5 144q0 87 48.5 142.5t123.5 55.5q85 0 132 -71v63zM433 131q49 0 79 33t30 95t-30 94.5t-79 32.5q-50 0 -82 -35.5t-32 -91.5t32 -92t82 -36z" />
    <glyph glyph-name="A" unicode="A" horiz-adv-x="625" 
d="M535 0l-74 192h-296l-75 -192h-90l263 667h99l263 -667h-90zM196 274h233l-116 300z" />
    <glyph glyph-name="B" unicode="B" horiz-adv-x="630" 
d="M467 346q57 -21 88.5 -63.5t31.5 -100.5q0 -81 -60.5 -131.5t-164.5 -50.5h-275v667h251q101 0 160 -48.5t59 -127.5q0 -98 -90 -145zM338 587h-165v-209h165q62 0 97.5 28.5t35.5 75.5t-35.5 76t-97.5 29zM362 80q66 0 102.5 30.5t36.5 80.5t-36.5 80.5t-102.5 30.5
h-189v-222h189z" />
    <glyph glyph-name="C" unicode="C" horiz-adv-x="634" 
d="M382 -12q-150 0 -244 94.5t-94 250.5t94 251t244 95q130 0 216 -65l-25 -81q-81 64 -191 64q-115 0 -184 -72.5t-69 -191.5t69 -191t184 -72q110 0 191 63l25 -80q-84 -65 -216 -65z" />
    <glyph glyph-name="D" unicode="D" horiz-adv-x="678" 
d="M87 0v667h201q166 0 256 -91t90 -243t-90 -242.5t-256 -90.5h-201zM173 82h115q127 0 194 68t67 183q0 116 -67 184t-194 68h-115v-503z" />
    <glyph glyph-name="E" unicode="E" horiz-adv-x="548" 
d="M513 585h-340v-202h270v-82h-270v-219h340v-82h-426v667h426v-82z" />
    <glyph glyph-name="F" unicode="F" horiz-adv-x="532" 
d="M506 585h-333v-222h272v-81h-272v-282h-86v667h419v-82z" />
    <glyph glyph-name="G" unicode="G" horiz-adv-x="680" 
d="M375 353h242v-287q-88 -78 -235 -78q-150 0 -244 94.5t-94 250.5t94 251t244 95q130 0 216 -65l-24 -79q-83 64 -192 64q-115 0 -184 -73t-69 -193t69 -192.5t184 -72.5q83 0 149 37v167h-156v81z" />
    <glyph glyph-name="H" unicode="H" horiz-adv-x="689" 
d="M517 667h85v-667h-85v301h-344v-301h-86v667h86v-284h344v284z" />
    <glyph glyph-name="I" unicode="I" horiz-adv-x="260" 
d="M87 667h86v-667h-86v667z" />
    <glyph glyph-name="J" unicode="J" horiz-adv-x="351" 
d="M92 -8q-45 0 -87 11l15 79q31 -9 60 -9q104 0 104 106v488h85v-499q0 -84 -47 -130t-130 -46z" />
    <glyph glyph-name="K" unicode="K" horiz-adv-x="635" 
d="M513 0l-266 299l-74 -75v-224h-86v667h86v-326l322 326h115l-306 -311l322 -356h-113z" />
    <glyph glyph-name="L" unicode="L" horiz-adv-x="472" 
d="M87 0v667h86v-585h289v-82h-375z" />
    <glyph glyph-name="M" unicode="M" horiz-adv-x="889" 
d="M802 667v-667h-86v552l-256 -432h-31l-256 434v-554h-86v667h114l244 -413l244 413h113z" />
    <glyph glyph-name="N" unicode="N" horiz-adv-x="744" 
d="M571 667h86v-667h-116l-368 563v-563h-86v667h115l369 -563v563z" />
    <glyph glyph-name="O" unicode="O" horiz-adv-x="764" 
d="M382 -12q-150 0 -244 95.5t-94 249.5t94 250t244 96t244 -96t94 -250t-94 -249.5t-244 -95.5zM382 70q112 0 182 73t70 190q0 118 -70 191t-182 73t-182.5 -73t-70.5 -191q0 -117 70.5 -190t182.5 -73z" />
    <glyph glyph-name="P" unicode="P" horiz-adv-x="602" 
d="M337 667q106 0 168 -55.5t62 -145.5t-62 -145.5t-168 -55.5h-164v-265h-86v667h250zM337 347q68 0 106 32.5t38 86.5t-38 86.5t-106 32.5h-164v-238h164z" />
    <glyph glyph-name="Q" unicode="Q" horiz-adv-x="764" 
d="M735 3l-68 -49l-97 85q-80 -51 -188 -51q-150 0 -244 95.5t-94 249.5t94 250t244 96t244 -96t94 -250q0 -147 -87 -242zM382 70q67 0 121 28l-125 109l70 44l120 -104q66 72 66 186q0 118 -70 191t-182 73t-182.5 -73t-70.5 -191q0 -117 70.5 -190t182.5 -73z" />
    <glyph glyph-name="R" unicode="R" horiz-adv-x="626" 
d="M484 0l-184 266h-127v-266h-86v667h250q106 0 168 -55t62 -145q0 -75 -45 -127.5t-124 -68.5l192 -271h-106zM173 585v-239h164q68 0 106 33t38 87t-38 86.5t-106 32.5h-164z" />
    <glyph glyph-name="S" unicode="S" horiz-adv-x="549" 
d="M53 31l20 84q79 -46 178 -46q78 0 124 30.5t46 78.5q0 41 -37.5 67t-90.5 43t-106.5 37t-91 62t-37.5 106q0 86 60 136t165 50q114 0 194 -45l-20 -85q-78 48 -172 48q-70 0 -105.5 -27.5t-35.5 -71.5q0 -43 37.5 -71t90.5 -45t106 -37t90.5 -60.5t37.5 -102.5
q0 -89 -68.5 -141.5t-185.5 -52.5q-118 0 -199 43z" />
    <glyph glyph-name="T" unicode="T" horiz-adv-x="523" 
d="M503 667v-82h-199v-585h-86v585h-198v82h483z" />
    <glyph glyph-name="U" unicode="U" horiz-adv-x="650" 
d="M326 -12q-123 0 -188.5 71.5t-65.5 199.5v408h86v-398q0 -101 41 -150t127 -49q85 0 125.5 49t40.5 150v398h86v-408q0 -128 -65 -199.5t-187 -71.5z" />
    <glyph glyph-name="V" unicode="V" horiz-adv-x="655" 
d="M556 667h93l-276 -667h-91l-276 667h93l229 -573z" />
    <glyph glyph-name="W" unicode="W" horiz-adv-x="966" 
d="M867 667h87l-204 -667h-102l-164 535l-166 -535h-102l-204 667h89l167 -562l174 562h84l173 -563z" />
    <glyph glyph-name="X" unicode="X" horiz-adv-x="654" 
d="M644 0h-108l-208 284l-209 -284h-109l262 346l-243 321h109l190 -258l189 258h108l-241 -321z" />
    <glyph glyph-name="Y" unicode="Y" horiz-adv-x="600" 
d="M258 0v290l-264 377h107l199 -291l199 291h107l-262 -377v-290h-86z" />
    <glyph glyph-name="Z" unicode="Z" horiz-adv-x="601" 
d="M157 82h406v-82h-525v68l393 518h-379v82h497v-68z" />
    <glyph glyph-name="bracketleft" unicode="[" horiz-adv-x="337" 
d="M316 -101v-74h-243v877h243v-74h-163v-729h163z" />
    <glyph glyph-name="backslash" unicode="\" horiz-adv-x="399" 
d="M316 -175l-306 842h83l306 -842h-83z" />
    <glyph glyph-name="bracketright" unicode="]" horiz-adv-x="337" 
d="M22 -101h162v729h-162v74h242v-877h-242v74z" />
    <glyph glyph-name="asciicircum" unicode="^" horiz-adv-x="394" 
d="M14 415l142 252h83l141 -252h-79l-103 188l-104 -188h-80z" />
    <glyph glyph-name="underscore" unicode="_" horiz-adv-x="500" 
d="M0 -64h500v-57h-500v57z" />
    <glyph glyph-name="grave" unicode="`" horiz-adv-x="283" 
d="M243 559h-82l-121 140h96z" />
    <glyph glyph-name="a" unicode="a" horiz-adv-x="576" 
d="M258 -10q-98 0 -159.5 69t-61.5 179q0 109 61.5 178t159.5 69q107 0 170 -86v76h75v-475h-75v76q-63 -86 -170 -86zM273 66q68 0 109 46.5t41 125.5t-41.5 125t-108.5 46q-70 0 -113 -47.5t-43 -123.5q0 -77 43 -124.5t113 -47.5z" />
    <glyph glyph-name="b" unicode="b" horiz-adv-x="576" 
d="M317 485q98 0 160 -69t62 -178q0 -110 -62 -179t-160 -69q-106 0 -169 86v-76h-75v702h80v-296q62 79 164 79zM303 66q69 0 112.5 48t43.5 124t-43.5 123.5t-112.5 47.5q-68 0 -109 -46t-41 -125q0 -80 41 -126t109 -46z" />
    <glyph glyph-name="c" unicode="c" horiz-adv-x="449" 
d="M274 -11q-106 0 -171.5 68t-65.5 181q0 112 65.5 179.5t171.5 67.5q90 0 150 -48l-19 -75q-55 47 -130 47q-72 0 -115 -46.5t-43 -124.5q0 -79 43 -126t115 -47q75 0 130 47l19 -74q-60 -49 -150 -49z" />
    <glyph glyph-name="d" unicode="d" horiz-adv-x="576" 
d="M423 702h80v-702h-75v76q-63 -86 -170 -86q-98 0 -159.5 69t-61.5 179q0 109 61.5 178t159.5 69q103 0 165 -79v296zM273 66q68 0 109 46.5t41 125.5t-41.5 125t-108.5 46q-70 0 -113 -47.5t-43 -123.5q0 -77 43 -124.5t113 -47.5z" />
    <glyph glyph-name="e" unicode="e" horiz-adv-x="523" 
d="M484 247q0 -16 -2 -38h-364q8 -71 52.5 -108t115.5 -37q88 0 157 48l22 -69q-74 -54 -180 -54q-112 0 -180 66.5t-68 182.5q0 110 62 178.5t161 68.5q100 0 162 -66t62 -172zM262 412q-58 0 -95.5 -35t-47.5 -97h284q-5 60 -43 96t-98 36z" />
    <glyph glyph-name="f" unicode="f" horiz-adv-x="316" 
d="M165 551v-76h130v-76h-130v-399h-80v399h-71v76h71v82q0 73 37 113t106 40q39 0 75 -13l-13 -71q-24 10 -54 10q-71 0 -71 -85z" />
    <glyph glyph-name="g" unicode="g" horiz-adv-x="576" 
d="M428 475h75v-423q0 -112 -66.5 -174t-187.5 -62q-102 0 -188 47l21 73q72 -45 160 -45q181 0 181 169v27q-62 -80 -165 -80q-98 0 -159.5 66.5t-61.5 172.5t61.5 172.5t159.5 66.5q107 0 170 -86v76zM273 83q67 0 108.5 44t41.5 119q0 76 -41 120t-109 44
q-70 0 -113 -45.5t-43 -118.5t43 -118t113 -45z" />
    <glyph glyph-name="h" unicode="h" horiz-adv-x="548" 
d="M302 485q83 0 133 -55.5t50 -153.5v-276h-80v263q0 73 -32.5 109.5t-90.5 36.5q-60 0 -94.5 -38t-34.5 -105v-266h-80v702h80v-290q48 73 149 73z" />
    <glyph glyph-name="i" unicode="i" horiz-adv-x="226" 
d="M113 583q-25 0 -41 15.5t-16 40.5t16 40.5t41 15.5t40.5 -15.5t15.5 -40.5t-15.5 -40.5t-40.5 -15.5zM73 475h80v-475h-80v475z" />
    <glyph glyph-name="j" unicode="j" horiz-adv-x="226" 
d="M113 583q-25 0 -41 15.5t-16 40.5t16 40.5t41 15.5t40.5 -15.5t15.5 -40.5t-15.5 -40.5t-40.5 -15.5zM-49 -174l7 74q12 -3 32 -3q42 0 62.5 25.5t20.5 84.5v468h80v-478q0 -85 -40 -130.5t-116 -45.5q-24 0 -46 5z" />
    <glyph glyph-name="k" unicode="k" horiz-adv-x="496" 
d="M386 0l-182 202l-51 -53v-149h-80v702h80v-449l217 222h104l-216 -219l232 -256h-104z" />
    <glyph glyph-name="l" unicode="l" horiz-adv-x="257" 
d="M73 702h80v-578q0 -55 48 -55q18 0 33 5l9 -69q-21 -10 -62 -10q-56 0 -82 27.5t-26 87.5v592z" />
    <glyph glyph-name="m" unicode="m" horiz-adv-x="825" 
d="M587 485q79 0 127 -53.5t48 -147.5v-284h-80v271q0 69 -29.5 103.5t-81.5 34.5q-53 0 -83.5 -35t-30.5 -98v-276h-80v271q0 69 -29.5 103.5t-82.5 34.5q-52 0 -82 -35t-30 -98v-276h-80v475h75v-64q44 74 140 74q103 0 146 -88q44 88 153 88z" />
    <glyph glyph-name="n" unicode="n" horiz-adv-x="548" 
d="M302 485q83 0 133 -55.5t50 -153.5v-276h-80v263q0 73 -32.5 109.5t-90.5 36.5q-60 0 -94.5 -38t-34.5 -105v-266h-80v475h75v-71q49 81 154 81z" />
    <glyph glyph-name="o" unicode="o" horiz-adv-x="553" 
d="M277 -11q-107 0 -173.5 69t-66.5 180q0 110 66.5 178.5t173.5 68.5q106 0 172.5 -68.5t66.5 -178.5q0 -111 -66 -180t-173 -69zM277 65q70 0 114.5 48.5t44.5 124.5t-44.5 123.5t-114.5 47.5q-71 0 -115.5 -47.5t-44.5 -123.5q0 -77 44.5 -125t115.5 -48z" />
    <glyph glyph-name="p" unicode="p" horiz-adv-x="576" 
d="M317 485q98 0 160 -69t62 -178q0 -110 -62 -179t-160 -69q-102 0 -164 79v-244h-80v650h75v-76q63 86 169 86zM303 66q69 0 112.5 48t43.5 124t-43.5 123.5t-112.5 47.5q-68 0 -109 -46t-41 -125q0 -80 41 -126t109 -46z" />
    <glyph glyph-name="q" unicode="q" horiz-adv-x="576" 
d="M428 475h75v-650h-80v244q-62 -79 -165 -79q-98 0 -159.5 69t-61.5 179q0 109 61.5 178t159.5 69q107 0 170 -86v76zM273 66q68 0 109 46.5t41 125.5t-41.5 125t-108.5 46q-70 0 -113 -47.5t-43 -123.5q0 -77 43 -124.5t113 -47.5z" />
    <glyph glyph-name="r" unicode="r" horiz-adv-x="344" 
d="M274 482q31 0 55 -10l-11 -79q-24 8 -47 8q-56 0 -87 -36.5t-31 -108.5v-256h-80v475h75v-76q40 83 126 83z" />
    <glyph glyph-name="s" unicode="s" horiz-adv-x="406" 
d="M29 22l20 75q58 -33 131 -33q52 0 82 18t30 48q0 27 -26.5 43t-64 26t-75 23.5t-64 45.5t-26.5 81q0 65 45 100.5t125 35.5q87 0 145 -32l-18 -75q-56 32 -126 32q-91 0 -91 -60q0 -29 26.5 -46t64 -27t75 -22.5t64 -42.5t26.5 -77q0 -69 -51.5 -107.5t-140.5 -38.5
q-90 0 -151 33z" />
    <glyph glyph-name="t" unicode="t" horiz-adv-x="322" 
d="M290 80l12 -72q-35 -14 -79 -14q-67 0 -102.5 37t-35.5 105v263h-71v76h71v120l80 16v-136h131v-76h-131v-254q0 -75 68 -75q31 0 57 10z" />
    <glyph glyph-name="u" unicode="u" horiz-adv-x="548" 
d="M395 475h80v-475h-75v71q-49 -81 -153 -81q-84 0 -134 55.5t-50 153.5v276h80v-263q0 -73 32.5 -109.5t90.5 -36.5q60 0 94.5 38t34.5 105v266z" />
    <glyph glyph-name="v" unicode="v" horiz-adv-x="484" 
d="M390 475h85l-192 -475h-83l-192 475h86l148 -385z" />
    <glyph glyph-name="w" unicode="w" horiz-adv-x="745" 
d="M650 475h82l-141 -475h-97l-122 373l-123 -373h-96l-140 475h82l108 -380l125 380h89l124 -380z" />
    <glyph glyph-name="x" unicode="x" horiz-adv-x="501" 
d="M495 0h-102l-141 194l-142 -194h-104l192 247l-178 228h104l128 -176l126 176h103l-176 -228z" />
    <glyph glyph-name="y" unicode="y" horiz-adv-x="479" 
d="M281 -4v-1l-8 -19q-34 -88 -75 -123t-102 -35q-34 0 -68 8l10 76q32 -7 57 -7q36 0 57.5 20.5t48.5 87.5l-193 472h86l146 -376l145 376h86z" />
    <glyph glyph-name="z" unicode="z" horiz-adv-x="464" 
d="M149 75h275v-75h-385v63l265 336h-255v76h365v-62z" />
    <glyph glyph-name="braceleft" unicode="{" horiz-adv-x="392" 
d="M208 392q0 -51 -26 -84.5t-62 -43.5q36 -11 62 -44.5t26 -83.5v-104q0 -64 36.5 -98.5t96.5 -34.5h30v-74h-31q-96 0 -154 49t-58 140v105q0 52 -29 82t-69 30v66q41 0 69.5 30t28.5 82v104q0 91 58 140t154 49h31v-74h-30q-60 0 -96.5 -34.5t-36.5 -98.5v-103z" />
    <glyph glyph-name="bar" unicode="|" horiz-adv-x="297" 
d="M107 702h83v-877h-83v877z" />
    <glyph glyph-name="braceright" unicode="}" horiz-adv-x="392" 
d="M264 409q0 -52 28.5 -82t69.5 -30v-66q-40 0 -69 -30t-29 -82v-105q0 -91 -58 -140t-154 -49h-30v74h29q61 0 97 34.5t36 98.5v104q0 51 26 84t63 44q-37 10 -63 43.5t-26 84.5v103q0 64 -36 98.5t-97 34.5h-29v74h30q96 0 154 -49t58 -140v-104z" />
    <glyph glyph-name="asciitilde" unicode="~" horiz-adv-x="545" 
d="M40 160q0 89 36 143t101 54q36 0 65.5 -18t45.5 -39.5t37.5 -39.5t42.5 -18q30 0 46.5 31.5t16.5 83.5h74q0 -89 -36 -143t-101 -54q-36 0 -65.5 18t-45.5 39.5t-37.5 39.5t-42.5 18q-30 0 -46.5 -31.5t-16.5 -83.5h-74z" />
    <glyph glyph-name="uni00A0" unicode="&#xa0;" horiz-adv-x="220" 
 />
    <glyph glyph-name="exclamdown" unicode="&#xa1;" horiz-adv-x="217" 
d="M108 486q25 0 42 -16.5t17 -41.5t-17 -41.5t-42 -16.5t-41.5 16.5t-16.5 41.5t16.5 41.5t41.5 16.5zM143 269l10 -444h-90l11 444h69z" />
    <glyph glyph-name="cent" unicode="&#xa2;" horiz-adv-x="536" 
d="M435 212l19 -74q-46 -37 -110 -46v-92h-80v92q-89 13 -143 79t-54 167q0 100 54 165.5t143 78.5v85h80v-85q65 -9 110 -45l-19 -75q-40 34 -91 43v-336q53 9 91 43zM147 338q0 -66 31.5 -111t85.5 -57v335q-54 -13 -85.5 -57t-31.5 -110z" />
    <glyph glyph-name="sterling" unicode="&#xa3;" horiz-adv-x="536" 
d="M434 172l77 -23q-19 -76 -69.5 -112.5t-143.5 -36.5h-261v82h82q33 50 33 111q0 40 -20 104h-95v79h71q-15 53 -15 101q0 90 56.5 144t150.5 54q101 0 173 -57l-24 -77q-60 52 -140 52q-61 0 -96 -33.5t-35 -93.5q0 -38 14 -90h167v-79h-144q17 -64 17 -104
q0 -61 -32 -111h93q64 0 97 21.5t44 68.5z" />
    <glyph glyph-name="currency" unicode="&#xa4;" horiz-adv-x="536" 
d="M479 334q0 -65 -36 -118l78 -79l-56 -56l-79 78q-53 -36 -118 -36t-118 36l-79 -78l-56 56l78 79q-36 53 -36 118t36 118l-78 79l56 56l79 -78q53 36 118 36t118 -37l79 79l56 -56l-79 -79q37 -53 37 -118zM137 334q0 -54 38.5 -92.5t92.5 -38.5t92.5 38.5t38.5 92.5
t-38.5 92.5t-92.5 38.5t-92.5 -38.5t-38.5 -92.5z" />
    <glyph glyph-name="yen" unicode="&#xa5;" horiz-adv-x="536" 
d="M532 667l-203 -310h151v-75h-169v-62h169v-74h-169v-146h-84v146h-169v74h169v62h-169v75h151l-205 310h101l164 -257l162 257h101z" />
    <glyph glyph-name="brokenbar" unicode="&#xa6;" horiz-adv-x="297" 
d="M107 702h83v-329h-83v329zM107 154h83v-329h-83v329z" />
    <glyph glyph-name="section" unicode="&#xa7;" horiz-adv-x="494" 
d="M339 125q94 -39 94 -135q0 -82 -61.5 -128.5t-169.5 -46.5q-98 0 -172 34l21 76q66 -35 151 -35q70 0 110.5 26t40.5 69q0 37 -33.5 59.5t-81 35.5t-95 29.5t-81 55t-33.5 98.5q0 112 118 143q-92 42 -92 141q0 77 54 120.5t150 43.5t164 -35l-17 -75q-65 34 -147 34
q-61 0 -92.5 -23t-31.5 -63t33.5 -64.5t81.5 -37t95.5 -28.5t81 -52t33.5 -94q0 -110 -121 -148zM233 353q-62 0 -93 -23t-31 -65q0 -47 39 -69.5t100 -22.5t96.5 25.5t35.5 69.5q0 39 -37.5 62t-109.5 23z" />
    <glyph glyph-name="dieresis" unicode="&#xa8;" horiz-adv-x="378" 
d="M96 584q-25 0 -40.5 15.5t-15.5 39.5q0 25 15.5 40.5t40.5 15.5q24 0 39.5 -15.5t15.5 -40.5q0 -24 -15.5 -39.5t-39.5 -15.5zM283 584q-25 0 -40.5 15.5t-15.5 39.5q0 25 15.5 40.5t40.5 15.5q24 0 39.5 -15.5t15.5 -40.5q0 -24 -15.5 -39.5t-39.5 -15.5z" />
    <glyph glyph-name="copyright" unicode="&#xa9;" horiz-adv-x="771" 
d="M386 -12q-143 0 -244.5 101.5t-101.5 244.5t101.5 244t244.5 101q142 0 243.5 -101.5t101.5 -243.5q0 -143 -101 -244.5t-244 -101.5zM386 51q117 0 199.5 82.5t82.5 200.5q0 117 -82.5 199.5t-199.5 82.5q-118 0 -200.5 -82.5t-82.5 -199.5q0 -118 82.5 -200.5
t200.5 -82.5zM396 133q-87 0 -141.5 55.5t-54.5 144.5t54.5 145t141.5 56q78 0 130 -42l-20 -66q-46 43 -110 43q-59 0 -94.5 -37t-35.5 -99t35.5 -98.5t94.5 -36.5q67 0 110 43l20 -67q-55 -41 -130 -41z" />
    <glyph glyph-name="ordfeminine" unicode="&#xaa;" horiz-adv-x="348" 
d="M156 675q70 0 109 -35.5t39 -100.5v-206h-66v38q-31 -46 -100 -46q-55 0 -87 28t-32 76q0 50 34.5 79t94.5 29q45 0 86 -18v13q0 37 -23 57.5t-66 20.5q-45 0 -91 -27l-14 62q52 30 116 30zM155 380q36 0 57.5 18.5t21.5 52.5v18q-32 12 -69 12q-76 0 -76 -52
q0 -22 17 -35.5t49 -13.5z" />
    <glyph glyph-name="guillemotleft" unicode="&#xab;" horiz-adv-x="512" 
d="M281 439l-162 -179l162 -179h-103l-161 179l161 179h103zM476 439l-162 -179l162 -179h-103l-161 179l161 179h103z" />
    <glyph glyph-name="logicalnot" unicode="&#xac;" horiz-adv-x="540" 
d="M45 421h450v-368h-73v295h-377v73z" />
    <glyph glyph-name="uni00AD" unicode="&#xad;" horiz-adv-x="303" 
d="M39 300h225v-80h-225v80z" />
    <glyph glyph-name="registered" unicode="&#xae;" horiz-adv-x="371" 
d="M186 679q67 0 114 -47.5t47 -113.5q0 -67 -47 -114.5t-114 -47.5t-114.5 47.5t-47.5 114.5q0 66 47.5 113.5t114.5 47.5zM186 391q52 0 89 37t37 90q0 52 -37 89t-89 37t-89 -37t-37 -89q0 -53 37 -90t89 -37zM254 551q0 -40 -39 -53l50 -70h-42l-46 66h-22v-66h-35v179
h69q29 0 47 -15.5t18 -40.5zM155 573v-45h34q30 0 30 23q0 22 -30 22h-34z" />
    <glyph glyph-name="macron" unicode="&#xaf;" horiz-adv-x="363" 
d="M40 668h283v-65h-283v65z" />
    <glyph glyph-name="degree" unicode="&#xb0;" horiz-adv-x="315" 
d="M157 428q-52 0 -87.5 35.5t-35.5 87.5q0 53 35.5 88t87.5 35q53 0 88.5 -35t35.5 -88q0 -52 -35.5 -87.5t-88.5 -35.5zM157 483q29 0 48.5 19.5t19.5 48.5t-19.5 48.5t-48.5 19.5q-28 0 -47.5 -19.5t-19.5 -48.5q0 -28 19.5 -48t47.5 -20z" />
    <glyph glyph-name="plusminus" unicode="&#xb1;" horiz-adv-x="540" 
d="M306 364h189v-73h-189v-165h-73v165h-188v73h188v167h73v-167zM45 -9v73h450v-73h-450z" />
    <glyph glyph-name="uni00B2" unicode="&#xb2;" horiz-adv-x="352" 
d="M107 468h205v-65h-292q4 43 21 77.5t39.5 55t48 40.5t46.5 34.5t35 35t14 44.5q0 31 -22 49.5t-60 18.5q-57 0 -95 -38l-20 62q47 41 119 41q67 0 107.5 -36t40.5 -96q0 -42 -25 -75.5t-55.5 -52.5t-63 -44.5t-43.5 -50.5z" />
    <glyph glyph-name="uni00B3" unicode="&#xb3;" horiz-adv-x="355" 
d="M221 616q75 -26 75 -99q0 -55 -43.5 -88t-115.5 -33q-69 0 -117 27l15 65q42 -27 99 -27q43 0 67 16t24 45q0 61 -96 61h-29v62h29q81 0 81 57q0 26 -19 41t-53 15q-50 0 -90 -29l-14 61q49 33 111 33q61 0 98.5 -31.5t37.5 -83.5q0 -65 -60 -92z" />
    <glyph glyph-name="acute" unicode="&#xb4;" horiz-adv-x="283" 
d="M40 559l107 140h96l-121 -140h-82z" />
    <glyph glyph-name="uni00B5" unicode="&#xb5;" horiz-adv-x="557" 
d="M530 70q8 0 22 2v-71q-22 -5 -45 -5q-85 0 -99 70q-45 -76 -141 -76q-71 0 -114 43v-208h-80v650h80v-263q0 -73 32.5 -109.5t90.5 -36.5q60 0 94.5 38t34.5 105v266h80v-350q0 -31 10.5 -43t34.5 -12z" />
    <glyph glyph-name="paragraph" unicode="&#xb6;" horiz-adv-x="635" 
d="M528 667v-842h-80v765h-115v-765h-80v482h-29q-87 0 -138 49.5t-51 130.5t51 130.5t138 49.5h304z" />
    <glyph glyph-name="periodcentered" unicode="&#xb7;" horiz-adv-x="212" 
d="M106 203q-26 0 -42 16.5t-16 41.5t16.5 41.5t41.5 16.5t41.5 -16.5t16.5 -41.5t-16 -41.5t-42 -16.5z" />
    <glyph glyph-name="cedilla" unicode="&#xb8;" horiz-adv-x="245" 
d="M122 -40q39 0 61 -18.5t22 -51.5q0 -35 -25.5 -54.5t-69.5 -19.5q-42 0 -70 15l13 51q23 -13 51 -13q41 0 41 25q0 23 -38 23q-14 0 -26 -4l-17 7l19 80h46l-10 -40h3z" />
    <glyph glyph-name="uni00B9" unicode="&#xb9;" horiz-adv-x="359" 
d="M232 468h84v-65h-247v65h94v261l-93 -37l-14 65l170 67h6v-356z" />
    <glyph glyph-name="ordmasculine" unicode="&#xba;" horiz-adv-x="390" 
d="M195 325q-76 0 -122.5 48.5t-46.5 126.5t47 126.5t122 48.5t122 -49t47 -126q0 -78 -47 -126.5t-122 -48.5zM195 392q44 0 71.5 30t27.5 78t-27.5 78t-71.5 30t-71.5 -30t-27.5 -78t27.5 -78t71.5 -30z" />
    <glyph glyph-name="guillemotright" unicode="&#xbb;" horiz-adv-x="512" 
d="M37 439h102l162 -179l-162 -179h-102l161 179zM231 439h103l161 -179l-161 -179h-103l162 179z" />
    <glyph glyph-name="onequarter" unicode="&#xbc;" horiz-adv-x="894" 
d="M316 253h-247v65h94v261l-93 -37l-14 65l170 67h6v-356h84v-65zM685 667h82l-506 -667h-82zM825 154h57v-63h-57v-91h-68v91h-197v63l159 260h106v-260zM631 154h126v206z" />
    <glyph glyph-name="onehalf" unicode="&#xbd;" horiz-adv-x="929" 
d="M316 253h-247v65h94v261l-93 -37l-14 65l170 67h6v-356h84v-65zM685 667h82l-506 -667h-82zM684 65h205v-65h-292q4 43 21 77.5t39.5 55t48 40.5t46.5 34.5t35 35t14 44.5q0 31 -22 49.5t-60 18.5q-57 0 -95 -38l-20 62q47 41 119 41q67 0 107.5 -36t40.5 -96
q0 -42 -25 -75.5t-55.5 -52.5t-63 -44.5t-43.5 -50.5z" />
    <glyph glyph-name="threequarters" unicode="&#xbe;" horiz-adv-x="880" 
d="M296 367q0 -55 -43.5 -88t-115.5 -33q-69 0 -117 27l15 65q42 -27 99 -27q43 0 67 16t24 45q0 61 -96 61h-29v62h29q81 0 81 57q0 26 -19 41t-53 15q-50 0 -90 -29l-14 61q49 33 111 33q61 0 98.5 -31.5t37.5 -83.5q0 -65 -60 -92q75 -26 75 -99zM671 667h82l-506 -667
h-82zM811 154h57v-63h-57v-91h-68v91h-197v63l159 260h106v-260zM617 154h126v206z" />
    <glyph glyph-name="questiondown" unicode="&#xbf;" horiz-adv-x="454" 
d="M280 486q25 0 41.5 -16.5t16.5 -41.5t-16.5 -41.5t-41.5 -16.5t-41.5 16.5t-16.5 41.5t16.5 41.5t41.5 16.5zM321 288v-15q0 -37 -14 -67.5t-35.5 -50.5t-46 -41t-46 -38t-35.5 -41t-14 -52q0 -46 36 -75t96 -29q87 0 148 55l25 -74q-74 -63 -181 -63q-94 0 -152 50
t-58 132q0 40 14.5 72.5t36 52.5t47 40.5t47 36.5t36 40t14.5 52v15h82z" />
    <glyph glyph-name="Agrave" unicode="&#xc0;" horiz-adv-x="625" 
d="M384 719h-82l-121 140h96zM535 0l-74 192h-296l-75 -192h-90l263 667h99l263 -667h-90zM196 274h233l-116 300z" />
    <glyph glyph-name="Aacute" unicode="&#xc1;" horiz-adv-x="625" 
d="M444 859l-121 -140h-82l107 140h96zM535 0l-74 192h-296l-75 -192h-90l263 667h99l263 -667h-90zM196 274h233l-116 300z" />
    <glyph glyph-name="Acircumflex" unicode="&#xc2;" horiz-adv-x="625" 
d="M313 807l-66 -88h-78l99 140h91l98 -140h-78zM535 0l-74 192h-296l-75 -192h-90l263 667h99l263 -667h-90zM196 274h233l-116 300z" />
    <glyph glyph-name="Atilde" unicode="&#xc3;" horiz-adv-x="625" 
d="M251 783q-18 0 -28.5 -18.5t-10.5 -49.5h-64q0 63 25.5 101t72.5 38q30 0 54 -17t42 -34t33 -17q38 0 38 68h65q0 -63 -26 -101t-73 -38q-29 0 -53 17t-42 34t-33 17zM535 0l-74 192h-296l-75 -192h-90l263 667h99l263 -667h-90zM196 274h233l-116 300z" />
    <glyph glyph-name="Adieresis" unicode="&#xc4;" horiz-adv-x="625" 
d="M220 716q-25 0 -40.5 16t-15.5 40t15.5 40t40.5 16q24 0 39.5 -16t15.5 -40t-15.5 -40t-39.5 -16zM407 716q-25 0 -40.5 16t-15.5 40t15.5 40t40.5 16q24 0 39.5 -16t15.5 -40t-15.5 -40t-39.5 -16zM535 0l-74 192h-296l-75 -192h-90l263 667h99l263 -667h-90zM196 274
h233l-116 300z" />
    <glyph glyph-name="Aring" unicode="&#xc5;" horiz-adv-x="625" 
d="M313 703q-41 0 -70.5 29.5t-29.5 70.5q0 42 29 70.5t71 28.5q43 0 71.5 -28.5t28.5 -70.5t-29 -71t-71 -29zM313 861q-25 0 -41.5 -16.5t-16.5 -41.5t16.5 -42t41.5 -17t41.5 17t16.5 42t-16.5 41.5t-41.5 16.5zM535 0l-74 192h-296l-75 -192h-90l263 667h99l263 -667
h-90zM196 274h233l-116 300z" />
    <glyph glyph-name="AE" unicode="&#xc6;" horiz-adv-x="859" 
d="M824 585h-358l19 -202h269v-82h-262l20 -219h312v-82h-390l-17 192h-238l-98 -192h-96l343 667h496v-82zM221 274h188l-28 312z" />
    <glyph glyph-name="Ccedilla" unicode="&#xc7;" horiz-adv-x="634" 
d="M598 53q-84 -65 -215 -65l-7 -28h3q39 0 61 -18.5t22 -51.5q0 -35 -25.5 -54.5t-69.5 -19.5q-42 0 -70 15l13 51q23 -13 51 -13q41 0 41 25q0 23 -38 23q-14 0 -26 -4l-17 7l17 70q-133 14 -213.5 107t-80.5 236q0 156 94 251t244 95q130 0 216 -65l-25 -81
q-81 64 -191 64q-115 0 -184 -72.5t-69 -191.5t69 -191t184 -72q110 0 191 63z" />
    <glyph glyph-name="Egrave" unicode="&#xc8;" horiz-adv-x="548" 
d="M371 719h-82l-121 140h96zM513 585h-340v-202h270v-82h-270v-219h340v-82h-426v667h426v-82z" />
    <glyph glyph-name="Eacute" unicode="&#xc9;" horiz-adv-x="548" 
d="M228 719l107 140h96l-121 -140h-82zM513 585h-340v-202h270v-82h-270v-219h340v-82h-426v667h426v-82z" />
    <glyph glyph-name="Ecircumflex" unicode="&#xca;" horiz-adv-x="548" 
d="M300 807l-66 -88h-78l99 140h91l98 -140h-78zM513 585h-340v-202h270v-82h-270v-219h340v-82h-426v667h426v-82z" />
    <glyph glyph-name="Edieresis" unicode="&#xcb;" horiz-adv-x="548" 
d="M207 716q-25 0 -40.5 16t-15.5 40t15.5 40t40.5 16q24 0 39.5 -16t15.5 -40t-15.5 -40t-39.5 -16zM394 716q-25 0 -40.5 16t-15.5 40t15.5 40t40.5 16q24 0 39.5 -16t15.5 -40t-15.5 -40t-39.5 -16zM513 585h-340v-202h270v-82h-270v-219h340v-82h-426v667h426v-82z" />
    <glyph glyph-name="Igrave" unicode="&#xcc;" horiz-adv-x="260" 
d="M201 719h-82l-121 140h96zM87 667h86v-667h-86v667z" />
    <glyph glyph-name="Iacute" unicode="&#xcd;" horiz-adv-x="260" 
d="M58 719l107 140h96l-121 -140h-82zM87 667h86v-667h-86v667z" />
    <glyph glyph-name="Icircumflex" unicode="&#xce;" horiz-adv-x="260" 
d="M176 859l98 -140h-78l-66 88l-66 -88h-78l99 140h91zM87 0v667h86v-667h-86z" />
    <glyph glyph-name="Idieresis" unicode="&#xcf;" horiz-adv-x="260" 
d="M37 716q-25 0 -40.5 16t-15.5 40t15.5 40t40.5 16q24 0 39.5 -16t15.5 -40t-15.5 -40t-39.5 -16zM224 716q-25 0 -40.5 16t-15.5 40t15.5 40t40.5 16q24 0 39.5 -16t15.5 -40t-15.5 -40t-39.5 -16zM87 667h86v-667h-86v667z" />
    <glyph glyph-name="Eth" unicode="&#xd0;" horiz-adv-x="678" 
d="M288 667q166 0 256 -91t90 -243t-90 -242.5t-256 -90.5h-201v305h-83v74h83v288h201zM288 82q127 0 194 68t67 183q0 116 -67 184t-194 68h-115v-206h178v-74h-178v-223h115z" />
    <glyph glyph-name="Ntilde" unicode="&#xd1;" horiz-adv-x="744" 
d="M310 783q-18 0 -28.5 -18.5t-10.5 -49.5h-64q0 63 25.5 101t72.5 38q30 0 54 -17t42 -34t33 -17q38 0 38 68h65q0 -63 -26 -101t-73 -38q-29 0 -53 17t-42 34t-33 17zM571 667h86v-667h-116l-368 563v-563h-86v667h115l369 -563v563z" />
    <glyph glyph-name="Ograve" unicode="&#xd2;" horiz-adv-x="764" 
d="M453 719h-82l-121 140h96zM382 -12q-150 0 -244 95.5t-94 249.5t94 250t244 96t244 -96t94 -250t-94 -249.5t-244 -95.5zM382 70q112 0 182 73t70 190q0 118 -70 191t-182 73t-182.5 -73t-70.5 -191q0 -117 70.5 -190t182.5 -73z" />
    <glyph glyph-name="Oacute" unicode="&#xd3;" horiz-adv-x="764" 
d="M310 719l107 140h96l-121 -140h-82zM382 -12q-150 0 -244 95.5t-94 249.5t94 250t244 96t244 -96t94 -250t-94 -249.5t-244 -95.5zM382 70q112 0 182 73t70 190q0 118 -70 191t-182 73t-182.5 -73t-70.5 -191q0 -117 70.5 -190t182.5 -73z" />
    <glyph glyph-name="Ocircumflex" unicode="&#xd4;" horiz-adv-x="764" 
d="M382 807l-66 -88h-78l99 140h91l98 -140h-78zM382 679q150 0 244 -96t94 -250t-94 -249.5t-244 -95.5t-244 95.5t-94 249.5t94 250t244 96zM382 70q112 0 182 73t70 190q0 118 -70 191t-182 73t-182.5 -73t-70.5 -191q0 -117 70.5 -190t182.5 -73z" />
    <glyph glyph-name="Otilde" unicode="&#xd5;" horiz-adv-x="764" 
d="M217 715q0 63 25.5 101t72.5 38q30 0 54 -17t42 -34t33 -17q38 0 38 68h65q0 -63 -26 -101t-73 -38q-29 0 -53 17t-42 34t-33 17q-18 0 -28.5 -18.5t-10.5 -49.5h-64zM382 -12q-150 0 -244 95.5t-94 249.5t94 250t244 96t244 -96t94 -250t-94 -249.5t-244 -95.5zM382 70
q112 0 182 73t70 190q0 118 -70 191t-182 73t-182.5 -73t-70.5 -191q0 -117 70.5 -190t182.5 -73z" />
    <glyph glyph-name="Odieresis" unicode="&#xd6;" horiz-adv-x="764" 
d="M289 716q-25 0 -40.5 16t-15.5 40t15.5 40t40.5 16q24 0 39.5 -16t15.5 -40t-15.5 -40t-39.5 -16zM476 716q-25 0 -40.5 16t-15.5 40t15.5 40t40.5 16q24 0 39.5 -16t15.5 -40t-15.5 -40t-39.5 -16zM382 -12q-150 0 -244 95.5t-94 249.5t94 250t244 96t244 -96t94 -250
t-94 -249.5t-244 -95.5zM382 70q112 0 182 73t70 190q0 118 -70 191t-182 73t-182.5 -73t-70.5 -191q0 -117 70.5 -190t182.5 -73z" />
    <glyph glyph-name="multiply" unicode="&#xd7;" horiz-adv-x="540" 
d="M463 402l-141 -142l141 -141l-51 -52l-142 141l-141 -141l-52 52l141 141l-141 141l52 52l141 -141l141 141z" />
    <glyph glyph-name="Oslash" unicode="&#xd8;" horiz-adv-x="764" 
d="M627 582q93 -96 93 -249q0 -154 -94 -249.5t-244 -95.5q-112 0 -196 56l-46 -56l-55 33l52 64q-93 95 -93 248q0 154 94 250t244 96q114 0 196 -56l45 54l55 -33zM129 333q0 -110 63 -182l333 406q-62 40 -143 40q-112 0 -182.5 -73t-70.5 -191zM382 70q112 0 182 73
t70 190q0 109 -62 182l-332 -405q60 -40 142 -40z" />
    <glyph glyph-name="Ugrave" unicode="&#xd9;" horiz-adv-x="650" 
d="M397 719h-82l-121 140h96zM326 -12q-123 0 -188.5 71.5t-65.5 199.5v408h86v-398q0 -101 41 -150t127 -49q85 0 125.5 49t40.5 150v398h86v-408q0 -128 -65 -199.5t-187 -71.5z" />
    <glyph glyph-name="Uacute" unicode="&#xda;" horiz-adv-x="650" 
d="M254 719l107 140h96l-121 -140h-82zM326 -12q-123 0 -188.5 71.5t-65.5 199.5v408h86v-398q0 -101 41 -150t127 -49q85 0 125.5 49t40.5 150v398h86v-408q0 -128 -65 -199.5t-187 -71.5z" />
    <glyph glyph-name="Ucircumflex" unicode="&#xdb;" horiz-adv-x="650" 
d="M326 807l-66 -88h-78l99 140h91l98 -140h-78zM492 667h86v-408q0 -128 -65 -199.5t-187 -71.5q-123 0 -188.5 71.5t-65.5 199.5v408h86v-398q0 -101 41 -150t127 -49q85 0 125.5 49t40.5 150v398z" />
    <glyph glyph-name="Udieresis" unicode="&#xdc;" horiz-adv-x="650" 
d="M233 716q-25 0 -40.5 16t-15.5 40t15.5 40t40.5 16q24 0 39.5 -16t15.5 -40t-15.5 -40t-39.5 -16zM420 716q-25 0 -40.5 16t-15.5 40t15.5 40t40.5 16q24 0 39.5 -16t15.5 -40t-15.5 -40t-39.5 -16zM326 -12q-123 0 -188.5 71.5t-65.5 199.5v408h86v-398q0 -101 41 -150
t127 -49q85 0 125.5 49t40.5 150v398h86v-408q0 -128 -65 -199.5t-187 -71.5z" />
    <glyph glyph-name="Yacute" unicode="&#xdd;" horiz-adv-x="600" 
d="M228 719l107 140h96l-121 -140h-82zM258 0v290l-264 377h107l199 -291l199 291h107l-262 -377v-290h-86z" />
    <glyph glyph-name="Thorn" unicode="&#xde;" horiz-adv-x="612" 
d="M347 551q106 0 168 -57.5t62 -151.5t-62 -151.5t-168 -57.5h-164v-133h-86v667h86v-116h164zM347 215q68 0 106 34.5t38 92.5t-37.5 92.5t-106.5 34.5h-164v-254h164z" />
    <glyph glyph-name="germandbls" unicode="&#xdf;" horiz-adv-x="579" 
d="M411 375q58 -21 90.5 -67.5t32.5 -111.5q0 -93 -58.5 -149.5t-153.5 -56.5q-73 0 -123 28l19 73q41 -25 99 -25q62 0 99.5 35t37.5 95q0 61 -41 97t-108 36h-58v75h47q56 0 91.5 32t35.5 84q0 51 -36.5 82.5t-94.5 31.5q-65 0 -101 -44.5t-36 -133.5v-456h-80v458
q0 123 55.5 187.5t157.5 64.5q94 0 153 -52t59 -136q0 -102 -87 -147z" />
    <glyph glyph-name="agrave" unicode="&#xe0;" horiz-adv-x="576" 
d="M362 558h-82l-121 140h96zM258 -10q-98 0 -159.5 69t-61.5 179q0 109 61.5 178t159.5 69q107 0 170 -86v76h75v-475h-75v76q-63 -86 -170 -86zM273 66q68 0 109 46.5t41 125.5t-41.5 125t-108.5 46q-70 0 -113 -47.5t-43 -123.5q0 -77 43 -124.5t113 -47.5z" />
    <glyph glyph-name="aacute" unicode="&#xe1;" horiz-adv-x="576" 
d="M198 558l107 140h96l-121 -140h-82zM258 -10q-98 0 -159.5 69t-61.5 179q0 109 61.5 178t159.5 69q107 0 170 -86v76h75v-475h-75v76q-63 -86 -170 -86zM273 66q68 0 109 46.5t41 125.5t-41.5 125t-108.5 46q-70 0 -113 -47.5t-43 -123.5q0 -77 43 -124.5t113 -47.5z" />
    <glyph glyph-name="acircumflex" unicode="&#xe2;" horiz-adv-x="576" 
d="M280 646l-66 -88h-78l99 140h91l98 -140h-78zM428 475h75v-475h-75v76q-63 -86 -170 -86q-98 0 -159.5 69t-61.5 179q0 109 61.5 178t159.5 69q107 0 170 -86v76zM273 66q68 0 109 46.5t41 125.5t-41.5 125t-108.5 46q-70 0 -113 -47.5t-43 -123.5q0 -77 43 -124.5
t113 -47.5z" />
    <glyph glyph-name="atilde" unicode="&#xe3;" horiz-adv-x="576" 
d="M115 554q0 63 25.5 101t72.5 38q30 0 54 -17t42 -34t33 -17q38 0 38 68h65q0 -63 -26 -101t-73 -38q-29 0 -53 17t-42 34t-33 17q-18 0 -28.5 -18.5t-10.5 -49.5h-64zM258 -10q-98 0 -159.5 69t-61.5 179q0 109 61.5 178t159.5 69q107 0 170 -86v76h75v-475h-75v76
q-63 -86 -170 -86zM273 66q68 0 109 46.5t41 125.5t-41.5 125t-108.5 46q-70 0 -113 -47.5t-43 -123.5q0 -77 43 -124.5t113 -47.5z" />
    <glyph glyph-name="adieresis" unicode="&#xe4;" horiz-adv-x="576" 
d="M187 584q-25 0 -40.5 15.5t-15.5 39.5q0 25 15.5 40.5t40.5 15.5q24 0 39.5 -15.5t15.5 -40.5q0 -24 -15.5 -39.5t-39.5 -15.5zM374 584q-25 0 -40.5 15.5t-15.5 39.5q0 25 15.5 40.5t40.5 15.5q24 0 39.5 -15.5t15.5 -40.5q0 -24 -15.5 -39.5t-39.5 -15.5zM258 -10
q-98 0 -159.5 69t-61.5 179q0 109 61.5 178t159.5 69q107 0 170 -86v76h75v-475h-75v76q-63 -86 -170 -86zM273 66q68 0 109 46.5t41 125.5t-41.5 125t-108.5 46q-70 0 -113 -47.5t-43 -123.5q0 -77 43 -124.5t113 -47.5z" />
    <glyph glyph-name="aring" unicode="&#xe5;" horiz-adv-x="576" 
d="M280 543q-41 0 -70.5 29.5t-29.5 70.5q0 42 29 70.5t71 28.5q43 0 71.5 -28.5t28.5 -70.5t-29 -71t-71 -29zM280 584q25 0 41.5 17t16.5 42t-16.5 41.5t-41.5 16.5t-41.5 -16.5t-16.5 -41.5t16.5 -42t41.5 -17zM258 -10q-98 0 -159.5 69t-61.5 179q0 109 61.5 178
t159.5 69q107 0 170 -86v76h75v-475h-75v76q-63 -86 -170 -86zM273 66q68 0 109 46.5t41 125.5t-41.5 125t-108.5 46q-70 0 -113 -47.5t-43 -123.5q0 -77 43 -124.5t113 -47.5z" />
    <glyph glyph-name="ae" unicode="&#xe6;" horiz-adv-x="815" 
d="M775 247q0 -27 -1 -38h-349q8 -71 51 -108t110 -37q86 0 149 48l22 -69q-73 -54 -173 -54q-141 0 -198 107q-19 -52 -66 -79.5t-114 -27.5q-82 0 -130 40.5t-48 108.5q0 67 49 104.5t145 37.5h120v7q0 60 -34 91.5t-98 31.5q-71 0 -134 -42l-17 73q68 44 160 44
q132 0 174 -90q56 90 167 90q95 0 155 -66t60 -172zM561 412q-55 0 -90.5 -35t-44.5 -97h268q-5 60 -40.5 96t-92.5 36zM211 60q61 0 96 31.5t35 88.5v29h-116q-64 0 -91 -18t-27 -52q0 -37 26 -58t77 -21z" />
    <glyph glyph-name="ccedilla" unicode="&#xe7;" horiz-adv-x="449" 
d="M424 38q-60 -49 -150 -49l-7 -29h3q39 0 61 -18.5t22 -51.5q0 -35 -25.5 -54.5t-69.5 -19.5q-42 0 -70 15l13 51q23 -13 51 -13q41 0 41 25q0 23 -38 23q-14 0 -26 -4l-17 7l17 73q-87 14 -139.5 79.5t-52.5 165.5q0 112 65.5 179.5t171.5 67.5q90 0 150 -48l-19 -75
q-55 47 -130 47q-72 0 -115 -46.5t-43 -124.5q0 -79 43 -126t115 -47q75 0 130 47z" />
    <glyph glyph-name="egrave" unicode="&#xe8;" horiz-adv-x="523" 
d="M342 558h-82l-121 140h96zM484 247q0 -16 -2 -38h-364q8 -71 52.5 -108t115.5 -37q88 0 157 48l22 -69q-74 -54 -180 -54q-112 0 -180 66.5t-68 182.5q0 110 62 178.5t161 68.5q100 0 162 -66t62 -172zM262 412q-58 0 -95.5 -35t-47.5 -97h284q-5 60 -43 96t-98 36z" />
    <glyph glyph-name="eacute" unicode="&#xe9;" horiz-adv-x="523" 
d="M381 698l-121 -140h-82l107 140h96zM484 247q0 -16 -2 -38h-364q8 -71 52.5 -108t115.5 -37q88 0 157 48l22 -69q-74 -54 -180 -54q-112 0 -180 66.5t-68 182.5q0 110 62 178.5t161 68.5q100 0 162 -66t62 -172zM262 412q-58 0 -95.5 -35t-47.5 -97h284q-5 60 -43 96
t-98 36z" />
    <glyph glyph-name="ecircumflex" unicode="&#xea;" horiz-adv-x="523" 
d="M260 646l-66 -88h-78l99 140h91l98 -140h-78zM484 247q0 -16 -2 -38h-364q8 -71 52.5 -108t115.5 -37q88 0 157 48l22 -69q-74 -54 -180 -54q-112 0 -180 66.5t-68 182.5q0 110 62 178.5t161 68.5q100 0 162 -66t62 -172zM262 412q-58 0 -95.5 -35t-47.5 -97h284
q-5 60 -43 96t-98 36z" />
    <glyph glyph-name="edieresis" unicode="&#xeb;" horiz-adv-x="523" 
d="M167 584q-25 0 -40.5 15.5t-15.5 39.5q0 25 15.5 40.5t40.5 15.5q24 0 39.5 -15.5t15.5 -40.5q0 -24 -15.5 -39.5t-39.5 -15.5zM354 584q-25 0 -40.5 15.5t-15.5 39.5q0 25 15.5 40.5t40.5 15.5q24 0 39.5 -15.5t15.5 -40.5q0 -24 -15.5 -39.5t-39.5 -15.5zM484 247
q0 -16 -2 -38h-364q8 -71 52.5 -108t115.5 -37q88 0 157 48l22 -69q-74 -54 -180 -54q-112 0 -180 66.5t-68 182.5q0 110 62 178.5t161 68.5q100 0 162 -66t62 -172zM262 412q-58 0 -95.5 -35t-47.5 -97h284q-5 60 -43 96t-98 36z" />
    <glyph glyph-name="igrave" unicode="&#xec;" horiz-adv-x="226" 
d="M195 558h-82l-121 140h96zM73 475h80v-475h-80v475z" />
    <glyph glyph-name="iacute" unicode="&#xed;" horiz-adv-x="226" 
d="M31 558l107 140h96l-121 -140h-82zM73 475h80v-475h-80v475z" />
    <glyph glyph-name="icircumflex" unicode="&#xee;" horiz-adv-x="226" 
d="M159 698l98 -140h-78l-66 88l-66 -88h-78l99 140h91zM73 0v475h80v-475h-80z" />
    <glyph glyph-name="idieresis" unicode="&#xef;" horiz-adv-x="226" 
d="M35 584q-25 0 -40.5 15.5t-15.5 39.5q0 25 15.5 40.5t40.5 15.5q23 0 38.5 -15.5t15.5 -40.5q0 -24 -15.5 -39.5t-38.5 -15.5zM192 584q-25 0 -40.5 15.5t-15.5 39.5q0 25 15.5 40.5t40.5 15.5q24 0 39.5 -15.5t15.5 -40.5q0 -24 -15.5 -39.5t-39.5 -15.5zM73 475h80
v-475h-80v475z" />
    <glyph glyph-name="eth" unicode="&#xf0;" horiz-adv-x="553" 
d="M374 604q142 -159 142 -365q0 -118 -65 -183.5t-174 -65.5q-107 0 -173.5 64.5t-66.5 168.5q0 102 64 165.5t166 63.5q88 0 145 -48q-34 90 -109 166l-151 -73l-14 59l118 57q-31 25 -74 52l71 44q38 -25 77 -60l99 47l14 -59zM277 66q71 0 115 43.5t44 113.5t-44 113
t-115 43q-72 0 -116 -43t-44 -113q0 -71 44 -114t116 -43z" />
    <glyph glyph-name="ntilde" unicode="&#xf1;" horiz-adv-x="548" 
d="M213 622q-18 0 -28.5 -18.5t-10.5 -49.5h-64q0 63 25.5 101t72.5 38q30 0 54 -17t42 -34t33 -17q38 0 38 68h65q0 -63 -26 -101t-73 -38q-29 0 -53 17t-42 34t-33 17zM302 485q83 0 133 -55.5t50 -153.5v-276h-80v263q0 73 -32.5 109.5t-90.5 36.5q-60 0 -94.5 -38
t-34.5 -105v-266h-80v475h75v-71q49 81 154 81z" />
    <glyph glyph-name="ograve" unicode="&#xf2;" horiz-adv-x="553" 
d="M359 558h-82l-121 140h96zM277 -11q-107 0 -173.5 69t-66.5 180q0 110 66.5 178.5t173.5 68.5q106 0 172.5 -68.5t66.5 -178.5q0 -111 -66 -180t-173 -69zM277 65q70 0 114.5 48.5t44.5 124.5t-44.5 123.5t-114.5 47.5q-71 0 -115.5 -47.5t-44.5 -123.5q0 -77 44.5 -125
t115.5 -48z" />
    <glyph glyph-name="oacute" unicode="&#xf3;" horiz-adv-x="553" 
d="M195 558l107 140h96l-121 -140h-82zM277 -11q-107 0 -173.5 69t-66.5 180q0 110 66.5 178.5t173.5 68.5q106 0 172.5 -68.5t66.5 -178.5q0 -111 -66 -180t-173 -69zM277 65q70 0 114.5 48.5t44.5 124.5t-44.5 123.5t-114.5 47.5q-71 0 -115.5 -47.5t-44.5 -123.5
q0 -77 44.5 -125t115.5 -48z" />
    <glyph glyph-name="ocircumflex" unicode="&#xf4;" horiz-adv-x="553" 
d="M277 646l-66 -88h-78l99 140h91l98 -140h-78zM277 485q106 0 172.5 -68.5t66.5 -178.5q0 -111 -66 -180t-173 -69t-173.5 69t-66.5 180q0 110 66.5 178.5t173.5 68.5zM277 65q70 0 114.5 48.5t44.5 124.5t-44.5 123.5t-114.5 47.5q-71 0 -115.5 -47.5t-44.5 -123.5
q0 -77 44.5 -125t115.5 -48z" />
    <glyph glyph-name="otilde" unicode="&#xf5;" horiz-adv-x="553" 
d="M112 554q0 63 25.5 101t72.5 38q30 0 54 -17t42 -34t33 -17q38 0 38 68h65q0 -63 -26 -101t-73 -38q-29 0 -53 17t-42 34t-33 17q-18 0 -28.5 -18.5t-10.5 -49.5h-64zM277 -11q-107 0 -173.5 69t-66.5 180q0 110 66.5 178.5t173.5 68.5q106 0 172.5 -68.5t66.5 -178.5
q0 -111 -66 -180t-173 -69zM277 65q70 0 114.5 48.5t44.5 124.5t-44.5 123.5t-114.5 47.5q-71 0 -115.5 -47.5t-44.5 -123.5q0 -77 44.5 -125t115.5 -48z" />
    <glyph glyph-name="odieresis" unicode="&#xf6;" horiz-adv-x="553" 
d="M184 584q-25 0 -40.5 15.5t-15.5 39.5q0 25 15.5 40.5t40.5 15.5q24 0 39.5 -15.5t15.5 -40.5q0 -24 -15.5 -39.5t-39.5 -15.5zM371 584q-25 0 -40.5 15.5t-15.5 39.5q0 25 15.5 40.5t40.5 15.5q24 0 39.5 -15.5t15.5 -40.5q0 -24 -15.5 -39.5t-39.5 -15.5zM277 -11
q-107 0 -173.5 69t-66.5 180q0 110 66.5 178.5t173.5 68.5q106 0 172.5 -68.5t66.5 -178.5q0 -111 -66 -180t-173 -69zM277 65q70 0 114.5 48.5t44.5 124.5t-44.5 123.5t-114.5 47.5q-71 0 -115.5 -47.5t-44.5 -123.5q0 -77 44.5 -125t115.5 -48z" />
    <glyph glyph-name="divide" unicode="&#xf7;" horiz-adv-x="540" 
d="M270 381q-24 0 -40.5 16.5t-16.5 40.5t16.5 40.5t40.5 16.5t40.5 -16.5t16.5 -40.5t-16.5 -40.5t-40.5 -16.5zM45 297h450v-73h-450v73zM270 26q-24 0 -40.5 16t-16.5 41q0 24 16.5 40.5t40.5 16.5t40.5 -16.5t16.5 -40.5q0 -25 -16.5 -41t-40.5 -16z" />
    <glyph glyph-name="oslash" unicode="&#xf8;" horiz-adv-x="553" 
d="M454 412q62 -68 62 -174q0 -111 -66 -180t-173 -69q-79 0 -137 39l-32 -39l-49 26l39 48q-61 69 -61 175q0 110 66.5 178.5t173.5 68.5q76 0 135 -38l33 40l49 -26zM116 238q0 -67 34 -112l213 261q-37 23 -86 23q-72 0 -116.5 -47.5t-44.5 -124.5zM277 64q71 0 116 48.5
t45 125.5q0 66 -35 112l-214 -262q40 -24 88 -24z" />
    <glyph glyph-name="ugrave" unicode="&#xf9;" horiz-adv-x="548" 
d="M352 558h-82l-121 140h96zM395 475h80v-475h-75v71q-49 -81 -153 -81q-84 0 -134 55.5t-50 153.5v276h80v-263q0 -73 32.5 -109.5t90.5 -36.5q60 0 94.5 38t34.5 105v266z" />
    <glyph glyph-name="uacute" unicode="&#xfa;" horiz-adv-x="548" 
d="M391 698l-121 -140h-82l107 140h96zM395 475h80v-475h-75v71q-49 -81 -153 -81q-84 0 -134 55.5t-50 153.5v276h80v-263q0 -73 32.5 -109.5t90.5 -36.5q60 0 94.5 38t34.5 105v266z" />
    <glyph glyph-name="ucircumflex" unicode="&#xfb;" horiz-adv-x="548" 
d="M270 646l-66 -88h-78l99 140h91l98 -140h-78zM395 475h80v-475h-75v71q-49 -81 -153 -81q-84 0 -134 55.5t-50 153.5v276h80v-263q0 -73 32.5 -109.5t90.5 -36.5q60 0 94.5 38t34.5 105v266z" />
    <glyph glyph-name="udieresis" unicode="&#xfc;" horiz-adv-x="548" 
d="M177 584q-25 0 -40.5 15.5t-15.5 39.5q0 25 15.5 40.5t40.5 15.5q24 0 39.5 -15.5t15.5 -40.5q0 -24 -15.5 -39.5t-39.5 -15.5zM364 584q-25 0 -40.5 15.5t-15.5 39.5q0 25 15.5 40.5t40.5 15.5q24 0 39.5 -15.5t15.5 -40.5q0 -24 -15.5 -39.5t-39.5 -15.5zM395 475h80
v-475h-75v71q-49 -81 -153 -81q-84 0 -134 55.5t-50 153.5v276h80v-263q0 -73 32.5 -109.5t90.5 -36.5q60 0 94.5 38t34.5 105v266z" />
    <glyph glyph-name="yacute" unicode="&#xfd;" horiz-adv-x="479" 
d="M361 698l-121 -140h-82l107 140h96zM281 -4v-1l-8 -19q-34 -88 -75 -123t-102 -35q-34 0 -68 8l10 76q32 -7 57 -7q36 0 57.5 20.5t48.5 87.5l-193 472h86l146 -376l145 376h86z" />
    <glyph glyph-name="thorn" unicode="&#xfe;" horiz-adv-x="576" 
d="M317 485q98 0 160 -69t62 -178q0 -110 -62 -179t-160 -69q-102 0 -164 79v-244h-80v877h80v-296q62 79 164 79zM303 66q69 0 112.5 48t43.5 124t-43.5 123.5t-112.5 47.5q-68 0 -109 -46t-41 -125q0 -80 41 -126t109 -46z" />
    <glyph glyph-name="ydieresis" unicode="&#xff;" horiz-adv-x="479" 
d="M147 584q-25 0 -40.5 15.5t-15.5 39.5q0 25 15.5 40.5t40.5 15.5q24 0 39.5 -15.5t15.5 -40.5q0 -24 -15.5 -39.5t-39.5 -15.5zM334 584q-25 0 -40.5 15.5t-15.5 39.5q0 25 15.5 40.5t40.5 15.5q24 0 39.5 -15.5t15.5 -40.5q0 -24 -15.5 -39.5t-39.5 -15.5zM281 -4v-1
l-8 -19q-34 -88 -75 -123t-102 -35q-34 0 -68 8l10 76q32 -7 57 -7q36 0 57.5 20.5t48.5 87.5l-193 472h86l146 -376l145 376h86z" />
    <glyph glyph-name="Amacron" unicode="&#x100;" horiz-adv-x="625" 
d="M455 800v-66h-283v66h283zM535 0l-74 192h-296l-75 -192h-90l263 667h99l263 -667h-90zM196 274h233l-116 300z" />
    <glyph glyph-name="amacron" unicode="&#x101;" horiz-adv-x="576" 
d="M139 668h283v-65h-283v65zM258 -10q-98 0 -159.5 69t-61.5 179q0 109 61.5 178t159.5 69q107 0 170 -86v76h75v-475h-75v76q-63 -86 -170 -86zM273 66q68 0 109 46.5t41 125.5t-41.5 125t-108.5 46q-70 0 -113 -47.5t-43 -123.5q0 -77 43 -124.5t113 -47.5z" />
    <glyph glyph-name="Abreve" unicode="&#x102;" horiz-adv-x="625" 
d="M313 715q-58 0 -95.5 38t-37.5 97h67q0 -29 18.5 -47.5t47.5 -18.5t47.5 18.5t18.5 47.5h67q0 -59 -37 -97t-96 -38zM535 0l-74 192h-296l-75 -192h-90l263 667h99l263 -667h-90zM196 274h233l-116 300z" />
    <glyph glyph-name="abreve" unicode="&#x103;" horiz-adv-x="576" 
d="M346 689h67q0 -59 -37 -97t-96 -38q-58 0 -95.5 38t-37.5 97h67q0 -29 18.5 -47.5t47.5 -18.5t47.5 18.5t18.5 47.5zM258 -10q-98 0 -159.5 69t-61.5 179q0 109 61.5 178t159.5 69q107 0 170 -86v76h75v-475h-75v76q-63 -86 -170 -86zM273 66q68 0 109 46.5t41 125.5
t-41.5 125t-108.5 46q-70 0 -113 -47.5t-43 -123.5q0 -77 43 -124.5t113 -47.5z" />
    <glyph glyph-name="Aogonek" unicode="&#x104;" horiz-adv-x="625" 
d="M568 -122q18 0 42 12l12 -54q-31 -20 -74 -20q-39 0 -61 18.5t-22 51.5q0 53 70 115l-74 191h-296l-75 -192h-90l263 667h99l263 -667h-27q-66 -59 -66 -92q0 -30 36 -30zM196 274h233l-116 300z" />
    <glyph glyph-name="aogonek" unicode="&#x105;" horiz-adv-x="576" 
d="M515 -110l12 -54q-31 -20 -74 -20q-39 0 -61 18.5t-22 51.5q0 53 69 114h-11v76q-63 -86 -170 -86q-98 0 -159.5 69t-61.5 179q0 109 61.5 178t159.5 69q107 0 170 -86v76h75v-475q-66 -59 -66 -92q0 -30 36 -30q18 0 42 12zM273 66q68 0 109 46.5t41 125.5t-41.5 125
t-108.5 46q-70 0 -113 -47.5t-43 -123.5q0 -77 43 -124.5t113 -47.5z" />
    <glyph glyph-name="Cacute" unicode="&#x106;" horiz-adv-x="634" 
d="M291 719l107 140h96l-121 -140h-82zM382 -12q-150 0 -244 94.5t-94 250.5t94 251t244 95q130 0 216 -65l-25 -81q-81 64 -191 64q-115 0 -184 -72.5t-69 -191.5t69 -191t184 -72q110 0 191 63l25 -80q-84 -65 -216 -65z" />
    <glyph glyph-name="cacute" unicode="&#x107;" horiz-adv-x="449" 
d="M172 558l107 140h96l-121 -140h-82zM274 -11q-106 0 -171.5 68t-65.5 181q0 112 65.5 179.5t171.5 67.5q90 0 150 -48l-19 -75q-55 47 -130 47q-72 0 -115 -46.5t-43 -124.5q0 -79 43 -126t115 -47q75 0 130 47l19 -74q-60 -49 -150 -49z" />
    <glyph glyph-name="Ccircumflex" unicode="&#x108;" horiz-adv-x="634" 
d="M363 807l-66 -88h-78l99 140h91l98 -140h-78zM382 70q110 0 191 63l25 -80q-84 -65 -216 -65q-150 0 -244 94.5t-94 250.5t94 251t244 95q130 0 216 -65l-25 -81q-81 64 -191 64q-115 0 -184 -72.5t-69 -191.5t69 -191t184 -72z" />
    <glyph glyph-name="ccircumflex" unicode="&#x109;" horiz-adv-x="449" 
d="M254 646l-66 -88h-78l99 140h91l98 -140h-78zM275 65q75 0 130 47l19 -74q-60 -49 -150 -49q-106 0 -171.5 68t-65.5 181q0 112 65.5 179.5t171.5 67.5q90 0 150 -48l-19 -75q-55 47 -130 47q-72 0 -115 -46.5t-43 -124.5q0 -79 43 -126t115 -47z" />
    <glyph glyph-name="Cdotaccent" unicode="&#x10a;" horiz-adv-x="634" 
d="M362 716q-25 0 -40.5 15.5t-15.5 40.5t15.5 40.5t40.5 15.5t41 -15.5t16 -40.5t-16 -40.5t-41 -15.5zM382 -12q-150 0 -244 94.5t-94 250.5t94 251t244 95q130 0 216 -65l-25 -81q-81 64 -191 64q-115 0 -184 -72.5t-69 -191.5t69 -191t184 -72q110 0 191 63l25 -80
q-84 -65 -216 -65z" />
    <glyph glyph-name="cdotaccent" unicode="&#x10b;" horiz-adv-x="449" 
d="M254 583q-25 0 -40.5 15.5t-15.5 40.5t15.5 40.5t40.5 15.5t41 -15.5t16 -40.5t-16 -40.5t-41 -15.5zM274 -11q-106 0 -171.5 68t-65.5 181q0 112 65.5 179.5t171.5 67.5q90 0 150 -48l-19 -75q-55 47 -130 47q-72 0 -115 -46.5t-43 -124.5q0 -79 43 -126t115 -47
q75 0 130 47l19 -74q-60 -49 -150 -49z" />
    <glyph glyph-name="Ccaron" unicode="&#x10c;" horiz-adv-x="634" 
d="M318 719l-99 140h78l66 -88l66 88h78l-98 -140h-91zM382 70q110 0 191 63l25 -80q-84 -65 -216 -65q-150 0 -244 94.5t-94 250.5t94 251t244 95q130 0 216 -65l-25 -81q-81 64 -191 64q-115 0 -184 -72.5t-69 -191.5t69 -191t184 -72z" />
    <glyph glyph-name="ccaron" unicode="&#x10d;" horiz-adv-x="449" 
d="M209 559l-99 140h78l66 -88l66 88h78l-98 -140h-91zM275 65q75 0 130 47l19 -74q-60 -49 -150 -49q-106 0 -171.5 68t-65.5 181q0 112 65.5 179.5t171.5 67.5q90 0 150 -48l-19 -75q-55 47 -130 47q-72 0 -115 -46.5t-43 -124.5q0 -79 43 -126t115 -47z" />
    <glyph glyph-name="Dcaron" unicode="&#x10e;" horiz-adv-x="678" 
d="M288 719l-99 140h78l66 -88l66 88h78l-98 -140h-91zM288 667q166 0 256 -91t90 -243t-90 -242.5t-256 -90.5h-201v667h201zM288 82q127 0 194 68t67 183q0 116 -67 184t-194 68h-115v-503h115z" />
    <glyph glyph-name="dcaron" unicode="&#x10f;" horiz-adv-x="602" 
d="M423 406v296h80v-702h-75v76q-63 -86 -170 -86q-98 0 -159.5 69t-61.5 179q0 109 61.5 178t159.5 69q103 0 165 -79zM561 702h83l-46 -166h-64zM273 66q68 0 109 46.5t41 125.5t-41.5 125t-108.5 46q-70 0 -113 -47.5t-43 -123.5q0 -77 43 -124.5t113 -47.5z" />
    <glyph glyph-name="Dcroat" unicode="&#x110;" horiz-adv-x="678" 
d="M288 667q166 0 256 -91t90 -243t-90 -242.5t-256 -90.5h-201v305h-83v74h83v288h201zM288 82q127 0 194 68t67 183q0 116 -67 184t-194 68h-115v-206h178v-74h-178v-223h115z" />
    <glyph glyph-name="dcroat" unicode="&#x111;" horiz-adv-x="576" 
d="M562 639v-70h-59v-569h-75v76q-63 -86 -170 -86q-98 0 -159.5 69t-61.5 179q0 109 61.5 178t159.5 69q103 0 165 -79v163h-161v70h161v63h80v-63h59zM273 66q68 0 109 46.5t41 125.5t-41.5 125t-108.5 46q-70 0 -113 -47.5t-43 -123.5q0 -77 43 -124.5t113 -47.5z" />
    <glyph glyph-name="Emacron" unicode="&#x112;" horiz-adv-x="548" 
d="M159 800h283v-66h-283v66zM513 585h-340v-202h270v-82h-270v-219h340v-82h-426v667h426v-82z" />
    <glyph glyph-name="emacron" unicode="&#x113;" horiz-adv-x="523" 
d="M402 668v-65h-283v65h283zM484 247q0 -16 -2 -38h-364q8 -71 52.5 -108t115.5 -37q88 0 157 48l22 -69q-74 -54 -180 -54q-112 0 -180 66.5t-68 182.5q0 110 62 178.5t161 68.5q100 0 162 -66t62 -172zM262 412q-58 0 -95.5 -35t-47.5 -97h284q-5 60 -43 96t-98 36z" />
    <glyph glyph-name="Ebreve" unicode="&#x114;" horiz-adv-x="548" 
d="M366 850h67q0 -59 -37 -97t-96 -38q-58 0 -95.5 38t-37.5 97h67q0 -29 18.5 -47.5t47.5 -18.5t47.5 18.5t18.5 47.5zM513 585h-340v-202h270v-82h-270v-219h340v-82h-426v667h426v-82z" />
    <glyph glyph-name="ebreve" unicode="&#x115;" horiz-adv-x="523" 
d="M260 554q-58 0 -95.5 38t-37.5 97h67q0 -29 18.5 -47.5t47.5 -18.5t47.5 18.5t18.5 47.5h67q0 -59 -37 -97t-96 -38zM484 247q0 -16 -2 -38h-364q8 -71 52.5 -108t115.5 -37q88 0 157 48l22 -69q-74 -54 -180 -54q-112 0 -180 66.5t-68 182.5q0 110 62 178.5t161 68.5
q100 0 162 -66t62 -172zM262 412q-58 0 -95.5 -35t-47.5 -97h284q-5 60 -43 96t-98 36z" />
    <glyph glyph-name="Edotaccent" unicode="&#x116;" horiz-adv-x="548" 
d="M299 716q-25 0 -40.5 15.5t-15.5 40.5t15.5 40.5t40.5 15.5t41 -15.5t16 -40.5t-16 -40.5t-41 -15.5zM513 585h-340v-202h270v-82h-270v-219h340v-82h-426v667h426v-82z" />
    <glyph glyph-name="edotaccent" unicode="&#x117;" horiz-adv-x="523" 
d="M260 583q-25 0 -40.5 15.5t-15.5 40.5t15.5 40.5t40.5 15.5t41 -15.5t16 -40.5t-16 -40.5t-41 -15.5zM484 247q0 -16 -2 -38h-364q8 -71 52.5 -108t115.5 -37q88 0 157 48l22 -69q-74 -54 -180 -54q-112 0 -180 66.5t-68 182.5q0 110 62 178.5t161 68.5q100 0 162 -66
t62 -172zM262 412q-58 0 -95.5 -35t-47.5 -97h284q-5 60 -43 96t-98 36z" />
    <glyph glyph-name="Eogonek" unicode="&#x118;" horiz-adv-x="548" 
d="M513 585h-340v-202h270v-82h-270v-219h340v-82h-28q-66 -59 -66 -92q0 -30 36 -30q18 0 42 12l12 -54q-31 -20 -74 -20q-39 0 -61 18.5t-22 51.5q0 53 69 114h-334v667h426v-82z" />
    <glyph glyph-name="eogonek" unicode="&#x119;" horiz-adv-x="523" 
d="M484 247q0 -16 -2 -38h-364q8 -71 52.5 -108t115.5 -37q91 0 157 49l22 -69q-67 -59 -91.5 -87.5t-24.5 -50.5q0 -30 36 -30q18 0 42 12l12 -54q-31 -20 -74 -20q-39 0 -61 18.5t-22 51.5q0 53 72 112q-31 -7 -69 -7q-112 0 -180 66.5t-68 182.5q0 110 62 178.5t161 68.5
q100 0 162 -66t62 -172zM262 412q-58 0 -95.5 -35t-47.5 -97h284q-5 60 -43 96t-98 36z" />
    <glyph glyph-name="Ecaron" unicode="&#x11a;" horiz-adv-x="548" 
d="M255 719l-99 140h78l66 -88l66 88h78l-98 -140h-91zM513 585h-340v-202h270v-82h-270v-219h340v-82h-426v667h426v-82z" />
    <glyph glyph-name="ecaron" unicode="&#x11b;" horiz-adv-x="523" 
d="M215 559l-99 140h78l66 -88l66 88h78l-98 -140h-91zM484 247q0 -16 -2 -38h-364q8 -71 52.5 -108t115.5 -37q88 0 157 48l22 -69q-74 -54 -180 -54q-112 0 -180 66.5t-68 182.5q0 110 62 178.5t161 68.5q100 0 162 -66t62 -172zM262 412q-58 0 -95.5 -35t-47.5 -97h284
q-5 60 -43 96t-98 36z" />
    <glyph glyph-name="Gcircumflex" unicode="&#x11c;" horiz-adv-x="680" 
d="M365 807l-66 -88h-78l99 140h91l98 -140h-78zM375 353h242v-287q-88 -78 -235 -78q-150 0 -244 94.5t-94 250.5t94 251t244 95q130 0 216 -65l-24 -79q-83 64 -192 64q-115 0 -184 -73t-69 -193t69 -192.5t184 -72.5q83 0 149 37v167h-156v81z" />
    <glyph glyph-name="gcircumflex" unicode="&#x11d;" horiz-adv-x="576" 
d="M286 646l-66 -88h-78l99 140h91l98 -140h-78zM428 475h75v-423q0 -112 -66.5 -174t-187.5 -62q-102 0 -188 47l21 73q72 -45 160 -45q181 0 181 169v27q-62 -80 -165 -80q-98 0 -159.5 66.5t-61.5 172.5t61.5 172.5t159.5 66.5q107 0 170 -86v76zM273 83q67 0 108.5 44
t41.5 119q0 76 -41 120t-109 44q-70 0 -113 -45.5t-43 -118.5t43 -118t113 -45z" />
    <glyph glyph-name="Gbreve" unicode="&#x11e;" horiz-adv-x="680" 
d="M365 715q-58 0 -95.5 38t-37.5 97h67q0 -29 18.5 -47.5t47.5 -18.5t47.5 18.5t18.5 47.5h67q0 -59 -37 -97t-96 -38zM375 353h242v-287q-88 -78 -235 -78q-150 0 -244 94.5t-94 250.5t94 251t244 95q130 0 216 -65l-24 -79q-83 64 -192 64q-115 0 -184 -73t-69 -193
t69 -192.5t184 -72.5q83 0 149 37v167h-156v81z" />
    <glyph glyph-name="gbreve" unicode="&#x11f;" horiz-adv-x="576" 
d="M286 554q-58 0 -95.5 38t-37.5 97h67q0 -29 18.5 -47.5t47.5 -18.5t47.5 18.5t18.5 47.5h67q0 -59 -37 -97t-96 -38zM428 475h75v-423q0 -112 -66.5 -174t-187.5 -62q-102 0 -188 47l21 73q72 -45 160 -45q181 0 181 169v27q-62 -80 -165 -80q-98 0 -159.5 66.5
t-61.5 172.5t61.5 172.5t159.5 66.5q107 0 170 -86v76zM273 83q67 0 108.5 44t41.5 119q0 76 -41 120t-109 44q-70 0 -113 -45.5t-43 -118.5t43 -118t113 -45z" />
    <glyph glyph-name="Gdotaccent" unicode="&#x120;" horiz-adv-x="680" 
d="M364 716q-25 0 -40.5 15.5t-15.5 40.5t15.5 40.5t40.5 15.5t41 -15.5t16 -40.5t-16 -40.5t-41 -15.5zM375 353h242v-287q-88 -78 -235 -78q-150 0 -244 94.5t-94 250.5t94 251t244 95q130 0 216 -65l-24 -79q-83 64 -192 64q-115 0 -184 -73t-69 -193t69 -192.5
t184 -72.5q83 0 149 37v167h-156v81z" />
    <glyph glyph-name="gdotaccent" unicode="&#x121;" horiz-adv-x="576" 
d="M286 583q-25 0 -40.5 15.5t-15.5 40.5t15.5 40.5t40.5 15.5t41 -15.5t16 -40.5t-16 -40.5t-41 -15.5zM428 475h75v-423q0 -112 -66.5 -174t-187.5 -62q-102 0 -188 47l21 73q72 -45 160 -45q181 0 181 169v27q-62 -80 -165 -80q-98 0 -159.5 66.5t-61.5 172.5t61.5 172.5
t159.5 66.5q107 0 170 -86v76zM273 83q67 0 108.5 44t41.5 119q0 76 -41 120t-109 44q-70 0 -113 -45.5t-43 -118.5t43 -118t113 -45z" />
    <glyph glyph-name="uni0122" unicode="&#x122;" horiz-adv-x="680" 
d="M375 353h242v-287q-88 -78 -235 -78q-150 0 -244 94.5t-94 250.5t94 251t244 95q130 0 216 -65l-24 -79q-83 64 -192 64q-115 0 -184 -73t-69 -193t69 -192.5t184 -72.5q83 0 149 37v167h-156v81zM291 -175l42 118h89l-58 -118h-73z" />
    <glyph glyph-name="uni0123" unicode="&#x123;" horiz-adv-x="576" 
d="M358 699l-56 -141h-89l72 141h73zM428 475h75v-423q0 -112 -66.5 -174t-187.5 -62q-102 0 -188 47l21 73q72 -45 160 -45q181 0 181 169v27q-62 -80 -165 -80q-98 0 -159.5 66.5t-61.5 172.5t61.5 172.5t159.5 66.5q107 0 170 -86v76zM273 83q67 0 108.5 44t41.5 119
q0 76 -41 120t-109 44q-70 0 -113 -45.5t-43 -118.5t43 -118t113 -45z" />
    <glyph glyph-name="Hcircumflex" unicode="&#x124;" horiz-adv-x="689" 
d="M345 807l-66 -88h-78l99 140h91l98 -140h-78zM517 667h85v-667h-85v301h-344v-301h-86v667h86v-284h344v284z" />
    <glyph glyph-name="hcircumflex" unicode="&#x125;" horiz-adv-x="548" 
d="M275 842l-66 -88h-78l99 140h91l98 -140h-78zM302 485q83 0 133 -55.5t50 -153.5v-276h-80v263q0 73 -32.5 109.5t-90.5 36.5q-60 0 -94.5 -38t-34.5 -105v-266h-80v702h80v-290q48 73 149 73z" />
    <glyph glyph-name="Hbar" unicode="&#x126;" horiz-adv-x="689" 
d="M665 580v-70h-63v-510h-85v301h-344v-301h-86v510h-63v70h63v87h86v-87h344v87h85v-87h63zM517 383v127h-344v-127h344z" />
    <glyph glyph-name="hbar" unicode="&#x127;" horiz-adv-x="548" 
d="M302 485q83 0 133 -55.5t50 -153.5v-276h-80v263q0 73 -32.5 109.5t-90.5 36.5q-60 0 -94.5 -38t-34.5 -105v-266h-80v569h-57v70h57v63h80v-63h163v-70h-163v-157q48 73 149 73z" />
    <glyph glyph-name="Itilde" unicode="&#x128;" horiz-adv-x="260" 
d="M-35 715q0 63 25.5 101t72.5 38q30 0 54 -17t42 -34t33 -17q38 0 38 68h65q0 -63 -26 -101t-73 -38q-29 0 -53 17t-42 34t-33 17q-18 0 -28.5 -18.5t-10.5 -49.5h-64zM87 667h86v-667h-86v667z" />
    <glyph glyph-name="itilde" unicode="&#x129;" horiz-adv-x="226" 
d="M-31 554q0 62 23 100.5t64 38.5q25 0 45.5 -17t35.5 -34t28 -17q28 0 28 68h63q0 -62 -23 -100.5t-64 -38.5q-25 0 -45.5 17t-35.5 34t-28 17q-28 0 -28 -68h-63zM73 475h80v-475h-80v475z" />
    <glyph glyph-name="Imacron" unicode="&#x12a;" horiz-adv-x="260" 
d="M-11 800h283v-66h-283v66zM87 667h86v-667h-86v667z" />
    <glyph glyph-name="imacron" unicode="&#x12b;" horiz-adv-x="226" 
d="M-10 668h246v-65h-246v65zM73 475h80v-475h-80v475z" />
    <glyph glyph-name="Ibreve" unicode="&#x12c;" horiz-adv-x="260" 
d="M196 850h67q0 -59 -37 -97t-96 -38q-58 0 -95.5 38t-37.5 97h67q0 -29 18.5 -47.5t47.5 -18.5t47.5 18.5t18.5 47.5zM87 667h86v-667h-86v667z" />
    <glyph glyph-name="ibreve" unicode="&#x12d;" horiz-adv-x="226" 
d="M179 689h67q0 -59 -37 -97t-96 -38q-58 0 -95.5 38t-37.5 97h67q0 -29 18.5 -47.5t47.5 -18.5t47.5 18.5t18.5 47.5zM73 475h80v-475h-80v475z" />
    <glyph glyph-name="Iogonek" unicode="&#x12e;" horiz-adv-x="260" 
d="M185 -110l12 -54q-31 -20 -74 -20q-39 0 -61 18.5t-22 51.5q0 53 69 114h-22v667h86v-667q-66 -59 -66 -92q0 -30 36 -30q18 0 42 12z" />
    <glyph glyph-name="iogonek" unicode="&#x12f;" horiz-adv-x="226" 
d="M113 583q-25 0 -40.5 15.5t-15.5 40.5t15.5 40.5t40.5 15.5t41 -15.5t16 -40.5t-16 -40.5t-41 -15.5zM165 -110l12 -54q-31 -20 -74 -20q-39 0 -61 18.5t-22 51.5q0 53 69 114h-16v475h80v-475q-66 -59 -66 -92q0 -30 36 -30q18 0 42 12z" />
    <glyph glyph-name="Idotaccent" unicode="&#x130;" horiz-adv-x="260" 
d="M129 716q-25 0 -40.5 15.5t-15.5 40.5t15.5 40.5t40.5 15.5t41 -15.5t16 -40.5t-16 -40.5t-41 -15.5zM87 667h86v-667h-86v667z" />
    <glyph glyph-name="dotlessi" unicode="&#x131;" horiz-adv-x="226" 
d="M73 475h80v-475h-80v475z" />
    <glyph glyph-name="IJ" unicode="&#x132;" horiz-adv-x="611" 
d="M87 667h86v-667h-86v667zM352 -8q-45 0 -87 11l15 79q31 -9 60 -9q104 0 104 106v488h85v-499q0 -84 -47 -130t-130 -46z" />
    <glyph glyph-name="ij" unicode="&#x133;" horiz-adv-x="452" 
d="M113 583q-25 0 -41 15.5t-16 40.5t16 40.5t41 15.5t40.5 -15.5t15.5 -40.5t-15.5 -40.5t-40.5 -15.5zM339 583q-25 0 -41 15.5t-16 40.5t16 40.5t41 15.5t40.5 -15.5t15.5 -40.5t-15.5 -40.5t-40.5 -15.5zM73 475h80v-475h-80v475zM177 -174l7 74q12 -3 32 -3
q42 0 62.5 25.5t20.5 84.5v468h80v-478q0 -85 -40 -130.5t-116 -45.5q-24 0 -46 5z" />
    <glyph glyph-name="Jcircumflex" unicode="&#x134;" horiz-adv-x="351" 
d="M273 859l98 -140h-78l-66 88l-66 -88h-78l99 140h91zM184 179v488h85v-499q0 -84 -47 -130t-130 -46q-45 0 -87 11l15 79q31 -9 60 -9q104 0 104 106z" />
    <glyph glyph-name="jcircumflex" unicode="&#x135;" horiz-adv-x="226" 
d="M159 698l98 -140h-78l-66 88l-66 -88h-78l99 140h91zM73 7v468h80v-478q0 -85 -40 -130.5t-116 -45.5q-24 0 -46 5l7 74q12 -3 32 -3q42 0 62.5 25.5t20.5 84.5z" />
    <glyph glyph-name="uni0136" unicode="&#x136;" horiz-adv-x="635" 
d="M304 356l322 -356h-113l-266 299l-74 -75v-224h-86v667h86v-326l322 326h115zM232 -175l42 118h89l-58 -118h-73z" />
    <glyph glyph-name="uni0137" unicode="&#x137;" horiz-adv-x="496" 
d="M258 256l232 -256h-104l-182 202l-51 -53v-149h-80v702h80v-449l217 222h104zM170 -175l42 118h89l-58 -118h-73z" />
    <glyph glyph-name="kgreenlandic" unicode="&#x138;" horiz-adv-x="496" 
d="M386 0l-182 202l-51 -53v-149h-80v475h80v-222l217 222h104l-216 -219l232 -256h-104z" />
    <glyph glyph-name="Lacute" unicode="&#x139;" horiz-adv-x="472" 
d="M107 719l107 140h96l-121 -140h-82zM87 0v667h86v-585h289v-82h-375z" />
    <glyph glyph-name="lacute" unicode="&#x13a;" horiz-adv-x="257" 
d="M51 754l107 140h96l-121 -140h-82zM73 702h80v-578q0 -55 48 -55q18 0 33 5l9 -69q-21 -10 -62 -10q-56 0 -82 27.5t-26 87.5v592z" />
    <glyph glyph-name="uni013B" unicode="&#x13b;" horiz-adv-x="472" 
d="M87 0v667h86v-585h289v-82h-375zM201 -175l42 118h89l-58 -118h-73z" />
    <glyph glyph-name="uni013C" unicode="&#x13c;" horiz-adv-x="257" 
d="M73 702h80v-578q0 -55 48 -55q18 0 33 5l9 -69q-21 -10 -62 -10q-56 0 -82 27.5t-26 87.5v592zM49 -175l42 118h89l-58 -118h-73z" />
    <glyph glyph-name="Lcaron" unicode="&#x13d;" horiz-adv-x="472" 
d="M87 0v667h86v-585h289v-82h-375zM240 501l27 166h83l-46 -166h-64z" />
    <glyph glyph-name="lcaron" unicode="&#x13e;" horiz-adv-x="261" 
d="M73 702h80v-578q0 -55 48 -55q18 0 33 5l9 -69q-21 -10 -62 -10q-56 0 -82 27.5t-26 87.5v592zM181 536l27 166h83l-46 -166h-64z" />
    <glyph glyph-name="Ldot" unicode="&#x13f;" horiz-adv-x="512" 
d="M87 0v667h86v-585h289v-82h-375zM414 315q-26 0 -42 16.5t-16 41.5t16.5 41.5t41.5 16.5t41.5 -16.5t16.5 -41.5t-16 -41.5t-42 -16.5z" />
    <glyph glyph-name="ldot" unicode="&#x140;" horiz-adv-x="348" 
d="M73 702h80v-578q0 -55 48 -55q18 0 33 5l9 -69q-21 -10 -62 -10q-56 0 -82 27.5t-26 87.5v592zM293 303q-25 0 -41.5 16.5t-16.5 41.5t16.5 41.5t41.5 16.5t41.5 -16.5t16.5 -41.5t-16.5 -41.5t-41.5 -16.5z" />
    <glyph glyph-name="Lslash" unicode="&#x141;" horiz-adv-x="472" 
d="M173 82h289v-82h-375v280l-76 -44v77l76 44v310h86v-260l172 100v-78l-172 -99v-248z" />
    <glyph glyph-name="lslash" unicode="&#x142;" horiz-adv-x="257" 
d="M234 74l9 -69q-21 -10 -62 -10q-56 0 -82 27.5t-26 87.5v230l-67 -39v79l67 39v283h80v-237l87 50v-78l-87 -51v-262q0 -55 48 -55q18 0 33 5z" />
    <glyph glyph-name="Nacute" unicode="&#x143;" horiz-adv-x="744" 
d="M503 859l-121 -140h-82l107 140h96zM571 667h86v-667h-116l-368 563v-563h-86v667h115l369 -563v563z" />
    <glyph glyph-name="nacute" unicode="&#x144;" horiz-adv-x="548" 
d="M396 698l-121 -140h-82l107 140h96zM302 485q83 0 133 -55.5t50 -153.5v-276h-80v263q0 73 -32.5 109.5t-90.5 36.5q-60 0 -94.5 -38t-34.5 -105v-266h-80v475h75v-71q49 81 154 81z" />
    <glyph glyph-name="uni0145" unicode="&#x145;" horiz-adv-x="744" 
d="M571 667h86v-667h-116l-368 563v-563h-86v667h115l369 -563v563zM298 -175l42 118h89l-58 -118h-73z" />
    <glyph glyph-name="uni0146" unicode="&#x146;" horiz-adv-x="548" 
d="M302 485q83 0 133 -55.5t50 -153.5v-276h-80v263q0 73 -32.5 109.5t-90.5 36.5q-60 0 -94.5 -38t-34.5 -105v-266h-80v475h75v-71q49 81 154 81zM201 -175l42 118h89l-58 -118h-73z" />
    <glyph glyph-name="Ncaron" unicode="&#x147;" horiz-adv-x="744" 
d="M327 719l-99 140h78l66 -88l66 88h78l-98 -140h-91zM571 667h86v-667h-116l-368 563v-563h-86v667h115l369 -563v563z" />
    <glyph glyph-name="ncaron" unicode="&#x148;" horiz-adv-x="548" 
d="M230 559l-99 140h78l66 -88l66 88h78l-98 -140h-91zM302 485q83 0 133 -55.5t50 -153.5v-276h-80v263q0 73 -32.5 109.5t-90.5 36.5q-60 0 -94.5 -38t-34.5 -105v-266h-80v475h75v-71q49 81 154 81z" />
    <glyph glyph-name="napostrophe" unicode="&#x149;" horiz-adv-x="736" 
d="M24 438l85 235l84 -20l-104 -232zM490 485q83 0 133 -55.5t50 -153.5v-276h-80v263q0 73 -32.5 109.5t-90.5 36.5q-60 0 -94.5 -38t-34.5 -105v-266h-80v475h75v-71q49 81 154 81z" />
    <glyph glyph-name="Eng" unicode="&#x14a;" horiz-adv-x="744" 
d="M571 667h86v-675q0 -85 -47 -131t-131 -46q-44 0 -86 11l14 80q31 -9 60 -9q104 0 104 104l-398 569v-570h-86v667h115l369 -527v527z" />
    <glyph glyph-name="eng" unicode="&#x14b;" horiz-adv-x="548" 
d="M302 485q83 0 133 -55.5t50 -153.5v-279q0 -85 -40 -130.5t-115 -45.5q-25 0 -47 5l7 74q14 -3 33 -3q41 0 61.5 25.5t20.5 84.5v256q0 73 -32.5 109.5t-90.5 36.5q-60 0 -94.5 -38t-34.5 -105v-266h-80v475h75v-71q49 81 154 81z" />
    <glyph glyph-name="Omacron" unicode="&#x14c;" horiz-adv-x="764" 
d="M241 800h283v-66h-283v66zM382 -12q-150 0 -244 95.5t-94 249.5t94 250t244 96t244 -96t94 -250t-94 -249.5t-244 -95.5zM382 70q112 0 182 73t70 190q0 118 -70 191t-182 73t-182.5 -73t-70.5 -191q0 -117 70.5 -190t182.5 -73z" />
    <glyph glyph-name="omacron" unicode="&#x14d;" horiz-adv-x="553" 
d="M136 668h283v-65h-283v65zM277 -11q-107 0 -173.5 69t-66.5 180q0 110 66.5 178.5t173.5 68.5q106 0 172.5 -68.5t66.5 -178.5q0 -111 -66 -180t-173 -69zM277 65q70 0 114.5 48.5t44.5 124.5t-44.5 123.5t-114.5 47.5q-71 0 -115.5 -47.5t-44.5 -123.5q0 -77 44.5 -125
t115.5 -48z" />
    <glyph glyph-name="Obreve" unicode="&#x14e;" horiz-adv-x="764" 
d="M448 850h67q0 -59 -37 -97t-96 -38q-58 0 -95.5 38t-37.5 97h67q0 -29 18.5 -47.5t47.5 -18.5t47.5 18.5t18.5 47.5zM382 -12q-150 0 -244 95.5t-94 249.5t94 250t244 96t244 -96t94 -250t-94 -249.5t-244 -95.5zM382 70q112 0 182 73t70 190q0 118 -70 191t-182 73
t-182.5 -73t-70.5 -191q0 -117 70.5 -190t182.5 -73z" />
    <glyph glyph-name="obreve" unicode="&#x14f;" horiz-adv-x="553" 
d="M343 689h67q0 -59 -37 -97t-96 -38q-58 0 -95.5 38t-37.5 97h67q0 -29 18.5 -47.5t47.5 -18.5t47.5 18.5t18.5 47.5zM277 -11q-107 0 -173.5 69t-66.5 180q0 110 66.5 178.5t173.5 68.5q106 0 172.5 -68.5t66.5 -178.5q0 -111 -66 -180t-173 -69zM277 65q70 0 114.5 48.5
t44.5 124.5t-44.5 123.5t-114.5 47.5q-71 0 -115.5 -47.5t-44.5 -123.5q0 -77 44.5 -125t115.5 -48z" />
    <glyph glyph-name="Ohungarumlaut" unicode="&#x150;" horiz-adv-x="764" 
d="M238 719l107 140h92l-121 -140h-78zM387 719l107 140h92l-121 -140h-78zM382 -12q-150 0 -244 95.5t-94 249.5t94 250t244 96t244 -96t94 -250t-94 -249.5t-244 -95.5zM382 70q112 0 182 73t70 190q0 118 -70 191t-182 73t-182.5 -73t-70.5 -191q0 -117 70.5 -190
t182.5 -73z" />
    <glyph glyph-name="ohungarumlaut" unicode="&#x151;" horiz-adv-x="553" 
d="M133 559l107 140h92l-121 -140h-78zM282 559l107 140h92l-121 -140h-78zM277 -11q-107 0 -173.5 69t-66.5 180q0 110 66.5 178.5t173.5 68.5q106 0 172.5 -68.5t66.5 -178.5q0 -111 -66 -180t-173 -69zM277 65q70 0 114.5 48.5t44.5 124.5t-44.5 123.5t-114.5 47.5
q-71 0 -115.5 -47.5t-44.5 -123.5q0 -77 44.5 -125t115.5 -48z" />
    <glyph glyph-name="OE" unicode="&#x152;" horiz-adv-x="883" 
d="M390 0q-166 0 -256 90.5t-90 242.5t90 243t256 91h457v-82h-310v-202h240v-82h-240v-219h310v-82h-457zM390 82h62v503h-62q-127 0 -194 -68t-67 -184q0 -115 67 -183t194 -68z" />
    <glyph glyph-name="oe" unicode="&#x153;" horiz-adv-x="888" 
d="M848 247q0 -27 -1 -38h-348q7 -71 50 -108t110 -37q86 0 149 48l23 -69q-72 -54 -174 -54q-141 0 -199 109q-58 -109 -190 -109q-103 0 -167 69t-64 180q0 110 64 178.5t167 68.5q132 0 189 -107q53 107 176 107q95 0 155 -66t60 -172zM634 412q-54 0 -89.5 -35
t-44.5 -97h268q-5 60 -41 96t-93 36zM268 65q66 0 108 48.5t42 124.5q0 75 -42 123t-108 48q-67 0 -109 -47.5t-42 -123.5q0 -77 42 -125t109 -48z" />
    <glyph glyph-name="Racute" unicode="&#x154;" horiz-adv-x="626" 
d="M438 859l-121 -140h-82l107 140h96zM484 0l-184 266h-127v-266h-86v667h250q106 0 168 -55t62 -145q0 -75 -45 -127.5t-124 -68.5l192 -271h-106zM173 585v-239h164q68 0 106 33t38 87t-38 86.5t-106 32.5h-164z" />
    <glyph glyph-name="racute" unicode="&#x155;" horiz-adv-x="344" 
d="M323 698l-121 -140h-82l107 140h96zM274 482q31 0 55 -10l-11 -79q-24 8 -47 8q-56 0 -87 -36.5t-31 -108.5v-256h-80v475h75v-76q40 83 126 83z" />
    <glyph glyph-name="uni0156" unicode="&#x156;" horiz-adv-x="626" 
d="M398 271l192 -271h-106l-184 266h-127v-266h-86v667h250q106 0 168 -55t62 -145q0 -75 -45 -127.5t-124 -68.5zM173 585v-239h164q68 0 106 33t38 87t-38 86.5t-106 32.5h-164zM233 -175l42 118h89l-58 -118h-73z" />
    <glyph glyph-name="uni0157" unicode="&#x157;" horiz-adv-x="344" 
d="M274 482q31 0 55 -10l-11 -79q-24 8 -47 8q-56 0 -87 -36.5t-31 -108.5v-256h-80v475h75v-76q40 83 126 83zM39 -175l42 118h89l-58 -118h-73z" />
    <glyph glyph-name="Rcaron" unicode="&#x158;" horiz-adv-x="626" 
d="M262 719l-99 140h78l66 -88l66 88h78l-98 -140h-91zM484 0l-184 266h-127v-266h-86v667h250q106 0 168 -55t62 -145q0 -75 -45 -127.5t-124 -68.5l192 -271h-106zM173 585v-239h164q68 0 106 33t38 87t-38 86.5t-106 32.5h-164z" />
    <glyph glyph-name="rcaron" unicode="&#x159;" horiz-adv-x="344" 
d="M157 559l-99 140h78l66 -88l66 88h78l-98 -140h-91zM148 399q40 83 126 83q31 0 55 -10l-11 -79q-24 8 -47 8q-56 0 -87 -36.5t-31 -108.5v-256h-80v475h75v-76z" />
    <glyph glyph-name="Sacute" unicode="&#x15a;" horiz-adv-x="549" 
d="M203 719l107 140h96l-121 -140h-82zM53 31l20 84q79 -46 178 -46q78 0 124 30.5t46 78.5q0 41 -37.5 67t-90.5 43t-106.5 37t-91 62t-37.5 106q0 86 60 136t165 50q114 0 194 -45l-20 -85q-78 48 -172 48q-70 0 -105.5 -27.5t-35.5 -71.5q0 -43 37.5 -71t90.5 -45
t106 -37t90.5 -60.5t37.5 -102.5q0 -89 -68.5 -141.5t-185.5 -52.5q-118 0 -199 43z" />
    <glyph glyph-name="sacute" unicode="&#x15b;" horiz-adv-x="406" 
d="M121 558l107 140h96l-121 -140h-82zM29 22l20 75q58 -33 131 -33q52 0 82 18t30 48q0 27 -26.5 43t-64 26t-75 23.5t-64 45.5t-26.5 81q0 65 45 100.5t125 35.5q87 0 145 -32l-18 -75q-56 32 -126 32q-91 0 -91 -60q0 -29 26.5 -46t64 -27t75 -22.5t64 -42.5t26.5 -77
q0 -69 -51.5 -107.5t-140.5 -38.5q-90 0 -151 33z" />
    <glyph glyph-name="Scircumflex" unicode="&#x15c;" horiz-adv-x="549" 
d="M275 807l-66 -88h-78l99 140h91l98 -140h-78zM144 498q0 -43 37.5 -71t90.5 -45t106 -37t90.5 -60.5t37.5 -102.5q0 -89 -68.5 -141.5t-185.5 -52.5q-118 0 -199 43l20 84q79 -46 178 -46q78 0 124 30.5t46 78.5q0 41 -37.5 67t-90.5 43t-106.5 37t-91 62t-37.5 106
q0 86 60 136t165 50q114 0 194 -45l-20 -85q-78 48 -172 48q-70 0 -105.5 -27.5t-35.5 -71.5z" />
    <glyph glyph-name="scircumflex" unicode="&#x15d;" horiz-adv-x="406" 
d="M203 646l-66 -88h-78l99 140h91l98 -140h-78zM116 350q0 -29 26.5 -46t64 -27t75 -22.5t64 -42.5t26.5 -77q0 -69 -51.5 -107.5t-140.5 -38.5q-90 0 -151 33l20 75q58 -33 131 -33q52 0 82 18t30 48q0 27 -26.5 43t-64 26t-75 23.5t-64 45.5t-26.5 81q0 65 45 100.5
t125 35.5q87 0 145 -32l-18 -75q-56 32 -126 32q-91 0 -91 -60z" />
    <glyph glyph-name="Scedilla" unicode="&#x15e;" horiz-adv-x="549" 
d="M506 182q0 -80 -56 -131t-154 -61l-8 -30h3q39 0 61 -18.5t22 -51.5q0 -35 -25.5 -54.5t-69.5 -19.5q-42 0 -70 15l13 51q23 -13 51 -13q41 0 41 25q0 23 -38 23q-14 0 -26 -4l-17 7l16 68q-116 0 -196 43l20 84q79 -46 178 -46q78 0 124 30.5t46 78.5q0 41 -37.5 67
t-90.5 43t-106.5 37t-91 62t-37.5 106q0 86 60 136t165 50q114 0 194 -45l-20 -85q-78 48 -172 48q-70 0 -105.5 -27.5t-35.5 -71.5q0 -43 37.5 -71t90.5 -45t106 -37t90.5 -60.5t37.5 -102.5z" />
    <glyph glyph-name="scedilla" unicode="&#x15f;" horiz-adv-x="406" 
d="M372 135q0 -62 -42 -99.5t-116 -44.5l-8 -31h3q39 0 61 -18.5t22 -51.5q0 -35 -25.5 -54.5t-69.5 -19.5q-42 0 -70 15l13 51q23 -13 51 -13q41 0 41 25q0 23 -38 23q-14 0 -26 -4l-17 7l16 69q-81 3 -138 33l20 75q58 -33 131 -33q52 0 82 18t30 48q0 27 -26.5 43t-64 26
t-75 23.5t-64 45.5t-26.5 81q0 65 45 100.5t125 35.5q87 0 145 -32l-18 -75q-56 32 -126 32q-91 0 -91 -60q0 -29 26.5 -46t64 -27t75 -22.5t64 -42.5t26.5 -77z" />
    <glyph glyph-name="Scaron" unicode="&#x160;" horiz-adv-x="549" 
d="M230 719l-99 140h78l66 -88l66 88h78l-98 -140h-91zM144 498q0 -43 37.5 -71t90.5 -45t106 -37t90.5 -60.5t37.5 -102.5q0 -89 -68.5 -141.5t-185.5 -52.5q-118 0 -199 43l20 84q79 -46 178 -46q78 0 124 30.5t46 78.5q0 41 -37.5 67t-90.5 43t-106.5 37t-91 62
t-37.5 106q0 86 60 136t165 50q114 0 194 -45l-20 -85q-78 48 -172 48q-70 0 -105.5 -27.5t-35.5 -71.5z" />
    <glyph glyph-name="scaron" unicode="&#x161;" horiz-adv-x="406" 
d="M158 559l-99 140h78l66 -88l66 88h78l-98 -140h-91zM116 350q0 -29 26.5 -46t64 -27t75 -22.5t64 -42.5t26.5 -77q0 -69 -51.5 -107.5t-140.5 -38.5q-90 0 -151 33l20 75q58 -33 131 -33q52 0 82 18t30 48q0 27 -26.5 43t-64 26t-75 23.5t-64 45.5t-26.5 81
q0 65 45 100.5t125 35.5q87 0 145 -32l-18 -75q-56 32 -126 32q-91 0 -91 -60z" />
    <glyph glyph-name="uni0162" unicode="&#x162;" horiz-adv-x="523" 
d="M503 667v-82h-199v-585h-86v585h-198v82h483zM188 -175l42 118h89l-58 -118h-73z" />
    <glyph glyph-name="uni0163" unicode="&#x163;" horiz-adv-x="322" 
d="M223 -6q-67 0 -102.5 37t-35.5 105v263h-71v76h71v120l80 16v-136h131v-76h-131v-254q0 -75 68 -75q31 0 57 10l12 -72q-35 -14 -79 -14zM121 -175l42 118h89l-58 -118h-73z" />
    <glyph glyph-name="Tcaron" unicode="&#x164;" horiz-adv-x="523" 
d="M217 719l-99 140h78l66 -88l66 88h78l-98 -140h-91zM503 667v-82h-199v-585h-86v585h-198v82h483z" />
    <glyph glyph-name="tcaron" unicode="&#x165;" horiz-adv-x="322" 
d="M313 702l-46 -166h-64l27 166h83zM233 70q31 0 57 10l12 -72q-35 -14 -79 -14q-67 0 -102.5 37t-35.5 105v263h-71v76h71v120l80 16v-136h131v-76h-131v-254q0 -75 68 -75z" />
    <glyph glyph-name="Tbar" unicode="&#x166;" horiz-adv-x="523" 
d="M503 585h-199v-214h131v-74h-131v-297h-86v297h-130v74h130v214h-198v82h483v-82z" />
    <glyph glyph-name="tbar" unicode="&#x167;" horiz-adv-x="322" 
d="M290 80l12 -72q-35 -14 -79 -14q-67 0 -102.5 37t-35.5 105v90h-63v71h63v102h-71v76h71v120l80 16v-136h131v-76h-131v-102h107v-71h-107v-81q0 -75 68 -75q31 0 57 10z" />
    <glyph glyph-name="Utilde" unicode="&#x168;" horiz-adv-x="650" 
d="M161 715q0 63 25.5 101t72.5 38q30 0 54 -17t42 -34t33 -17q38 0 38 68h65q0 -63 -26 -101t-73 -38q-29 0 -53 17t-42 34t-33 17q-18 0 -28.5 -18.5t-10.5 -49.5h-64zM326 -12q-123 0 -188.5 71.5t-65.5 199.5v408h86v-398q0 -101 41 -150t127 -49q85 0 125.5 49
t40.5 150v398h86v-408q0 -128 -65 -199.5t-187 -71.5z" />
    <glyph glyph-name="utilde" unicode="&#x169;" horiz-adv-x="548" 
d="M208 622q-18 0 -28.5 -18.5t-10.5 -49.5h-64q0 63 25.5 101t72.5 38q30 0 54 -17t42 -34t33 -17q38 0 38 68h65q0 -63 -26 -101t-73 -38q-29 0 -53 17t-42 34t-33 17zM395 475h80v-475h-75v71q-49 -81 -153 -81q-84 0 -134 55.5t-50 153.5v276h80v-263q0 -73 32.5 -109.5
t90.5 -36.5q60 0 94.5 38t34.5 105v266z" />
    <glyph glyph-name="Umacron" unicode="&#x16a;" horiz-adv-x="650" 
d="M185 800h283v-66h-283v66zM326 -12q-123 0 -188.5 71.5t-65.5 199.5v408h86v-398q0 -101 41 -150t127 -49q85 0 125.5 49t40.5 150v398h86v-408q0 -128 -65 -199.5t-187 -71.5z" />
    <glyph glyph-name="umacron" unicode="&#x16b;" horiz-adv-x="548" 
d="M412 668v-65h-283v65h283zM395 475h80v-475h-75v71q-49 -81 -153 -81q-84 0 -134 55.5t-50 153.5v276h80v-263q0 -73 32.5 -109.5t90.5 -36.5q60 0 94.5 38t34.5 105v266z" />
    <glyph glyph-name="Ubreve" unicode="&#x16c;" horiz-adv-x="650" 
d="M392 850h67q0 -59 -37 -97t-96 -38q-58 0 -95.5 38t-37.5 97h67q0 -29 18.5 -47.5t47.5 -18.5t47.5 18.5t18.5 47.5zM326 -12q-123 0 -188.5 71.5t-65.5 199.5v408h86v-398q0 -101 41 -150t127 -49q85 0 125.5 49t40.5 150v398h86v-408q0 -128 -65 -199.5t-187 -71.5z
" />
    <glyph glyph-name="ubreve" unicode="&#x16d;" horiz-adv-x="548" 
d="M270 554q-58 0 -95.5 38t-37.5 97h67q0 -29 18.5 -47.5t47.5 -18.5t47.5 18.5t18.5 47.5h67q0 -59 -37 -97t-96 -38zM395 475h80v-475h-75v71q-49 -81 -153 -81q-84 0 -134 55.5t-50 153.5v276h80v-263q0 -73 32.5 -109.5t90.5 -36.5q60 0 94.5 38t34.5 105v266z" />
    <glyph glyph-name="Uring" unicode="&#x16e;" horiz-adv-x="650" 
d="M326 703q-41 0 -70.5 29.5t-29.5 70.5q0 42 29 70.5t71 28.5q43 0 71.5 -28.5t28.5 -70.5t-29 -71t-71 -29zM326 744q25 0 41.5 17t16.5 42t-16.5 41.5t-41.5 16.5t-41.5 -16.5t-16.5 -41.5t16.5 -42t41.5 -17zM326 -12q-123 0 -188.5 71.5t-65.5 199.5v408h86v-398
q0 -101 41 -150t127 -49q85 0 125.5 49t40.5 150v398h86v-408q0 -128 -65 -199.5t-187 -71.5z" />
    <glyph glyph-name="uring" unicode="&#x16f;" horiz-adv-x="548" 
d="M270 543q-41 0 -70.5 29.5t-29.5 70.5q0 42 29 70.5t71 28.5q43 0 71.5 -28.5t28.5 -70.5t-29 -71t-71 -29zM270 701q-25 0 -41.5 -16.5t-16.5 -41.5t16.5 -42t41.5 -17t41.5 17t16.5 42t-16.5 41.5t-41.5 16.5zM395 475h80v-475h-75v71q-49 -81 -153 -81
q-84 0 -134 55.5t-50 153.5v276h80v-263q0 -73 32.5 -109.5t90.5 -36.5q60 0 94.5 38t34.5 105v266z" />
    <glyph glyph-name="Uhungarumlaut" unicode="&#x170;" horiz-adv-x="650" 
d="M182 719l107 140h92l-121 -140h-78zM331 719l107 140h92l-121 -140h-78zM326 -12q-123 0 -188.5 71.5t-65.5 199.5v408h86v-398q0 -101 41 -150t127 -49q85 0 125.5 49t40.5 150v398h86v-408q0 -128 -65 -199.5t-187 -71.5z" />
    <glyph glyph-name="uhungarumlaut" unicode="&#x171;" horiz-adv-x="548" 
d="M325 699l-121 -140h-78l107 140h92zM353 559h-78l107 140h92zM395 475h80v-475h-75v71q-49 -81 -153 -81q-84 0 -134 55.5t-50 153.5v276h80v-263q0 -73 32.5 -109.5t90.5 -36.5q60 0 94.5 38t34.5 105v266z" />
    <glyph glyph-name="Uogonek" unicode="&#x172;" horiz-adv-x="650" 
d="M489 23q-8 -8 -21 -20.5t-19.5 -19t-16 -16.5t-14 -16.5t-9.5 -14t-7 -14.5t-2 -14q0 -30 36 -30q18 0 42 12l12 -54q-31 -20 -74 -20q-39 0 -61 18.5t-22 51.5q0 51 70 111q-35 -9 -77 -9q-123 0 -188.5 71.5t-65.5 199.5v408h86v-398q0 -101 41 -150t127 -49
q85 0 125.5 49t40.5 150v398h86v-408q0 -145 -89 -236z" />
    <glyph glyph-name="uogonek" unicode="&#x173;" horiz-adv-x="548" 
d="M487 -110l12 -54q-31 -20 -74 -20q-39 0 -61 18.5t-22 51.5q0 53 69 114h-11v71q-49 -81 -153 -81q-84 0 -134 55.5t-50 153.5v276h80v-263q0 -73 32.5 -109.5t90.5 -36.5q60 0 94.5 38t34.5 105v266h80v-475q-66 -59 -66 -92q0 -30 36 -30q18 0 42 12z" />
    <glyph glyph-name="Wcircumflex" unicode="&#x174;" horiz-adv-x="966" 
d="M483 807l-66 -88h-78l99 140h91l98 -140h-78zM867 667h87l-204 -667h-102l-164 535l-166 -535h-102l-204 667h89l167 -562l174 562h84l173 -563z" />
    <glyph glyph-name="wcircumflex" unicode="&#x175;" horiz-adv-x="745" 
d="M372 646l-66 -88h-78l99 140h91l98 -140h-78zM650 475h82l-141 -475h-97l-122 373l-123 -373h-96l-140 475h82l108 -380l125 380h89l124 -380z" />
    <glyph glyph-name="Ycircumflex" unicode="&#x176;" horiz-adv-x="600" 
d="M300 807l-66 -88h-78l99 140h91l98 -140h-78zM499 667h107l-262 -377v-290h-86v290l-264 377h107l199 -291z" />
    <glyph glyph-name="ycircumflex" unicode="&#x177;" horiz-adv-x="479" 
d="M240 646l-66 -88h-78l99 140h91l98 -140h-78zM281 -4v-1l-8 -19q-34 -88 -75 -123t-102 -35q-34 0 -68 8l10 76q32 -7 57 -7q36 0 57.5 20.5t48.5 87.5l-193 472h86l146 -376l145 376h86z" />
    <glyph glyph-name="Ydieresis" unicode="&#x178;" horiz-adv-x="600" 
d="M207 716q-25 0 -40.5 16t-15.5 40t15.5 40t40.5 16q24 0 39.5 -16t15.5 -40t-15.5 -40t-39.5 -16zM394 716q-25 0 -40.5 16t-15.5 40t15.5 40t40.5 16q24 0 39.5 -16t15.5 -40t-15.5 -40t-39.5 -16zM258 0v290l-264 377h107l199 -291l199 291h107l-262 -377v-290h-86z
" />
    <glyph glyph-name="Zacute" unicode="&#x179;" horiz-adv-x="601" 
d="M432 860l-121 -140h-82l107 140h96zM157 82h406v-82h-525v68l393 518h-379v82h497v-68z" />
    <glyph glyph-name="zacute" unicode="&#x17a;" horiz-adv-x="464" 
d="M353 698l-121 -140h-82l107 140h96zM149 75h275v-75h-385v63l265 336h-255v76h365v-62z" />
    <glyph glyph-name="Zdotaccent" unicode="&#x17b;" horiz-adv-x="601" 
d="M300 717q-25 0 -40.5 15.5t-15.5 40.5t15.5 40.5t40.5 15.5t41 -15.5t16 -40.5t-16 -40.5t-41 -15.5zM157 82h406v-82h-525v68l393 518h-379v82h497v-68z" />
    <glyph glyph-name="zdotaccent" unicode="&#x17c;" horiz-adv-x="464" 
d="M232 583q-25 0 -40.5 15.5t-15.5 40.5t15.5 40.5t40.5 15.5t41 -15.5t16 -40.5t-16 -40.5t-41 -15.5zM149 75h275v-75h-385v63l265 336h-255v76h365v-62z" />
    <glyph glyph-name="Zcaron" unicode="&#x17d;" horiz-adv-x="601" 
d="M256 720l-99 140h78l66 -88l66 88h78l-98 -140h-91zM157 82h406v-82h-525v68l393 518h-379v82h497v-68z" />
    <glyph glyph-name="zcaron" unicode="&#x17e;" horiz-adv-x="464" 
d="M187 559l-99 140h78l66 -88l66 88h78l-98 -140h-91zM149 75h275v-75h-385v63l265 336h-255v76h365v-62z" />
    <glyph glyph-name="uni018F" unicode="&#x18f;" horiz-adv-x="704" 
d="M328 678q149 0 241 -93t92 -253q0 -154 -86 -249t-223 -95t-222.5 92t-85.5 239q0 36 5 71h523q-16 99 -81 153t-165 54q-127 0 -219 -73l-25 76q100 78 246 78zM351 68q98 0 159 65t67 177h-450v-7q0 -105 61.5 -170t162.5 -65z" />
    <glyph glyph-name="florin" unicode="&#x192;" horiz-adv-x="536" 
d="M435 596q-79 0 -96 -101l-7 -39h126v-77h-139l-36 -217q-28 -172 -164 -172q-59 0 -95 24l16 73q27 -16 61 -16q79 0 96 101l35 207h-115v77h128l8 49q28 172 164 172q59 0 95 -24l-16 -73q-27 16 -61 16z" />
    <glyph glyph-name="uni0218" unicode="&#x218;" horiz-adv-x="549" 
d="M53 31l20 84q79 -46 178 -46q78 0 124 30.5t46 78.5q0 41 -37.5 67t-90.5 43t-106.5 37t-91 62t-37.5 106q0 86 60 136t165 50q114 0 194 -45l-20 -85q-78 48 -172 48q-70 0 -105.5 -27.5t-35.5 -71.5q0 -43 37.5 -71t90.5 -45t106 -37t90.5 -60.5t37.5 -102.5
q0 -89 -68.5 -141.5t-185.5 -52.5q-118 0 -199 43zM201 -175l42 118h89l-58 -118h-73z" />
    <glyph glyph-name="uni0219" unicode="&#x219;" horiz-adv-x="406" 
d="M29 22l20 75q58 -33 131 -33q52 0 82 18t30 48q0 27 -26.5 43t-64 26t-75 23.5t-64 45.5t-26.5 81q0 65 45 100.5t125 35.5q87 0 145 -32l-18 -75q-56 32 -126 32q-91 0 -91 -60q0 -29 26.5 -46t64 -27t75 -22.5t64 -42.5t26.5 -77q0 -69 -51.5 -107.5t-140.5 -38.5
q-90 0 -151 33zM119 -175l42 118h89l-58 -118h-73z" />
    <glyph glyph-name="uni021A" unicode="&#x21a;" horiz-adv-x="523" 
d="M503 667v-82h-199v-585h-86v585h-198v82h483zM188 -175l42 118h89l-58 -118h-73z" />
    <glyph glyph-name="uni021B" unicode="&#x21b;" horiz-adv-x="322" 
d="M223 -6q-67 0 -102.5 37t-35.5 105v263h-71v76h71v120l80 16v-136h131v-76h-131v-254q0 -75 68 -75q31 0 57 10l12 -72q-35 -14 -79 -14zM121 -175l42 118h89l-58 -118h-73z" />
    <glyph glyph-name="uni0237" unicode="&#x237;" horiz-adv-x="226" 
d="M-49 -174l7 74q12 -3 32 -3q42 0 62.5 25.5t20.5 84.5v468h80v-478q0 -85 -40 -130.5t-116 -45.5q-24 0 -46 5z" />
    <glyph glyph-name="uni0259" unicode="&#x259;" horiz-adv-x="523" 
d="M245 486q109 0 175.5 -66.5t66.5 -181.5q0 -110 -62 -179t-162 -69q-99 0 -161 66.5t-62 172.5q0 35 4 56h358q-12 61 -54 93.5t-105 32.5q-88 0 -151 -48l-23 69q73 54 176 54zM262 63q62 0 100.5 40.5t43.5 110.5h-287v-2q0 -66 39 -107.5t104 -41.5z" />
    <glyph glyph-name="circumflex" unicode="&#x2c6;" horiz-adv-x="368" 
d="M328 559h-78l-66 88l-66 -88h-78l99 140h91z" />
    <glyph glyph-name="caron" unicode="&#x2c7;" horiz-adv-x="368" 
d="M250 699h78l-98 -140h-91l-99 140h78l66 -88z" />
    <glyph glyph-name="uni02C9" unicode="&#x2c9;" horiz-adv-x="363" 
d="M40 668h283v-65h-283v65z" />
    <glyph glyph-name="breve" unicode="&#x2d8;" horiz-adv-x="346" 
d="M239 690h67q0 -59 -37 -97t-96 -38q-58 0 -95.5 38t-37.5 97h67q0 -29 18.5 -47.5t47.5 -18.5t47.5 18.5t18.5 47.5z" />
    <glyph glyph-name="dotaccent" unicode="&#x2d9;" horiz-adv-x="193" 
d="M96 583q-25 0 -40.5 15.5t-15.5 40.5t15.5 40.5t40.5 15.5t41 -15.5t16 -40.5t-16 -40.5t-41 -15.5z" />
    <glyph glyph-name="ring" unicode="&#x2da;" horiz-adv-x="280" 
d="M140 543q-41 0 -70.5 29.5t-29.5 70.5q0 42 29 70.5t71 28.5q43 0 71.5 -28.5t28.5 -70.5t-29 -71t-71 -29zM140 584q25 0 41.5 17t16.5 42t-16.5 41.5t-41.5 16.5t-41.5 -16.5t-16.5 -41.5t16.5 -42t41.5 -17z" />
    <glyph glyph-name="ogonek" unicode="&#x2db;" horiz-adv-x="237" 
d="M123 -184q-39 0 -61 18.5t-22 51.5q0 57 83 126l50 -12q-66 -59 -66 -92q0 -30 36 -30q18 0 42 12l12 -54q-31 -20 -74 -20z" />
    <glyph glyph-name="tilde" unicode="&#x2dc;" horiz-adv-x="410" 
d="M40 555q0 63 25.5 101t72.5 38q30 0 54 -17t42 -34t33 -17q38 0 38 68h65q0 -63 -26 -101t-73 -38q-29 0 -53 17t-42 34t-33 17q-18 0 -28.5 -18.5t-10.5 -49.5h-64z" />
    <glyph glyph-name="hungarumlaut" unicode="&#x2dd;" horiz-adv-x="428" 
d="M40 559l107 140h92l-121 -140h-78zM189 559l107 140h92l-121 -140h-78z" />
    <glyph glyph-name="gravecomb" unicode="&#x300;" 
d="M-40 559h-82l-121 140h96z" />
    <glyph glyph-name="acutecomb" unicode="&#x301;" 
d="M-243 559l107 140h96l-121 -140h-82z" />
    <glyph glyph-name="uni0302" unicode="&#x302;" 
d="M-40 559h-78l-66 88l-66 -88h-78l99 140h91z" />
    <glyph glyph-name="tildecomb" unicode="&#x303;" 
d="M-370 555q0 63 25.5 101t72.5 38q30 0 54 -17t42 -34t33 -17q38 0 38 68h65q0 -63 -26 -101t-73 -38q-29 0 -53 17t-42 34t-33 17q-18 0 -28.5 -18.5t-10.5 -49.5h-64z" />
    <glyph glyph-name="uni0304" unicode="&#x304;" 
d="M-323 668h283v-65h-283v65z" />
    <glyph glyph-name="uni0306" unicode="&#x306;" 
d="M-107 690h67q0 -59 -37 -97t-96 -38q-58 0 -95.5 38t-37.5 97h67q0 -29 18.5 -47.5t47.5 -18.5t47.5 18.5t18.5 47.5z" />
    <glyph glyph-name="uni0307" unicode="&#x307;" 
d="M-97 583q-25 0 -40.5 15.5t-15.5 40.5t15.5 40.5t40.5 15.5t41 -15.5t16 -40.5t-16 -40.5t-41 -15.5z" />
    <glyph glyph-name="uni0308" unicode="&#x308;" 
d="M-282 584q-25 0 -40.5 15.5t-15.5 39.5q0 25 15.5 40.5t40.5 15.5q24 0 39.5 -15.5t15.5 -40.5q0 -24 -15.5 -39.5t-39.5 -15.5zM-95 584q-25 0 -40.5 15.5t-15.5 39.5q0 25 15.5 40.5t40.5 15.5q24 0 39.5 -15.5t15.5 -40.5q0 -24 -15.5 -39.5t-39.5 -15.5z" />
    <glyph glyph-name="uni030A" unicode="&#x30a;" 
d="M-140 543q-41 0 -70.5 29.5t-29.5 70.5q0 42 29 70.5t71 28.5q43 0 71.5 -28.5t28.5 -70.5t-29 -71t-71 -29zM-140 584q25 0 41.5 17t16.5 42t-16.5 41.5t-41.5 16.5t-41.5 -16.5t-16.5 -41.5t16.5 -42t41.5 -17z" />
    <glyph glyph-name="uni030B" unicode="&#x30b;" 
d="M-388 559l107 140h92l-121 -140h-78zM-239 559l107 140h92l-121 -140h-78z" />
    <glyph glyph-name="uni030C" unicode="&#x30c;" 
d="M-118 699h78l-98 -140h-91l-99 140h78l66 -88z" />
    <glyph glyph-name="uni0312" unicode="&#x312;" 
d="M-40 699l-56 -141h-89l72 141h73z" />
    <glyph glyph-name="uni0326" unicode="&#x326;" 
d="M-171 -175l42 118h89l-58 -118h-73z" />
    <glyph glyph-name="uni0327" unicode="&#x327;" 
d="M-123 -40q39 0 61 -18.5t22 -51.5q0 -35 -25.5 -54.5t-69.5 -19.5q-42 0 -70 15l13 51q23 -13 51 -13q41 0 41 25q0 23 -38 23q-14 0 -26 -4l-17 7l19 80h46l-10 -40h3z" />
    <glyph glyph-name="uni0328" unicode="&#x328;" 
d="M-114 -184q-39 0 -61 18.5t-22 51.5q0 57 83 126l50 -12q-66 -59 -66 -92q0 -30 36 -30q18 0 42 12l12 -54q-31 -20 -74 -20z" />
    <glyph glyph-name="uni0335" unicode="&#x335;" 
d="M-290 297h250v-71h-250v71z" />
    <glyph glyph-name="uni0336" unicode="&#x336;" 
d="M-290 297h250v-71h-250v71z" />
    <glyph glyph-name="uni0337" unicode="&#x337;" 
d="M-234 385l234 135v-78l-234 -136v79z" />
    <glyph glyph-name="uni0338" unicode="&#x338;" 
d="M-88 487l48 -26l-386 -472l-49 26z" />
    <glyph glyph-name="uni0394" unicode="&#x394;" horiz-adv-x="625" 
d="M362 667l263 -667h-625l263 667h99zM122 82h381l-190 492z" />
    <glyph glyph-name="uni03A9" unicode="&#x3a9;" horiz-adv-x="783" 
d="M592 74h147v-74h-289v75q89 18 142 87.5t53 170.5q0 118 -70.5 191.5t-182.5 73.5t-183 -73.5t-71 -191.5q0 -101 53.5 -170.5t142.5 -87.5v-75h-290v74h147q-65 42 -101.5 112t-36.5 160q0 148 94 240t245 92q150 0 244 -92t94 -240q0 -90 -36 -160t-102 -112z" />
    <glyph glyph-name="uni03BC" unicode="&#x3bc;" horiz-adv-x="557" 
d="M530 70q8 0 22 2v-71q-22 -5 -45 -5q-85 0 -99 70q-45 -76 -141 -76q-71 0 -114 43v-208h-80v650h80v-263q0 -73 32.5 -109.5t90.5 -36.5q60 0 94.5 38t34.5 105v266h80v-350q0 -31 10.5 -43t34.5 -12z" />
    <glyph glyph-name="Wgrave" unicode="&#x1e80;" horiz-adv-x="966" 
d="M554 719h-82l-121 140h96zM867 667h87l-204 -667h-102l-164 535l-166 -535h-102l-204 667h89l167 -562l174 562h84l173 -563z" />
    <glyph glyph-name="wgrave" unicode="&#x1e81;" horiz-adv-x="745" 
d="M454 558h-82l-121 140h96zM650 475h82l-141 -475h-97l-122 373l-123 -373h-96l-140 475h82l108 -380l125 380h89l124 -380z" />
    <glyph glyph-name="Wacute" unicode="&#x1e82;" horiz-adv-x="966" 
d="M614 859l-121 -140h-82l107 140h96zM867 667h87l-204 -667h-102l-164 535l-166 -535h-102l-204 667h89l167 -562l174 562h84l173 -563z" />
    <glyph glyph-name="wacute" unicode="&#x1e83;" horiz-adv-x="745" 
d="M493 698l-121 -140h-82l107 140h96zM650 475h82l-141 -475h-97l-122 373l-123 -373h-96l-140 475h82l108 -380l125 380h89l124 -380z" />
    <glyph glyph-name="Wdieresis" unicode="&#x1e84;" horiz-adv-x="966" 
d="M390 716q-25 0 -40.5 16t-15.5 40t15.5 40t40.5 16q24 0 39.5 -16t15.5 -40t-15.5 -40t-39.5 -16zM577 716q-25 0 -40.5 16t-15.5 40t15.5 40t40.5 16q24 0 39.5 -16t15.5 -40t-15.5 -40t-39.5 -16zM867 667h87l-204 -667h-102l-164 535l-166 -535h-102l-204 667h89
l167 -562l174 562h84l173 -563z" />
    <glyph glyph-name="wdieresis" unicode="&#x1e85;" horiz-adv-x="745" 
d="M279 584q-25 0 -40.5 15.5t-15.5 39.5q0 25 15.5 40.5t40.5 15.5q24 0 39.5 -15.5t15.5 -40.5q0 -24 -15.5 -39.5t-39.5 -15.5zM466 584q-25 0 -40.5 15.5t-15.5 39.5q0 25 15.5 40.5t40.5 15.5q24 0 39.5 -15.5t15.5 -40.5q0 -24 -15.5 -39.5t-39.5 -15.5zM650 475h82
l-141 -475h-97l-122 373l-123 -373h-96l-140 475h82l108 -380l125 380h89l124 -380z" />
    <glyph glyph-name="uni1E9E" unicode="&#x1e9e;" horiz-adv-x="703" 
d="M454 395q97 -15 152 -69t55 -136q0 -92 -65 -146t-177 -54q-87 0 -153 35l27 76q52 -30 126 -30q75 0 115.5 31t40.5 88q0 65 -49.5 100.5t-142.5 35.5q-29 0 -43 -1v62l167 159q-57 51 -151 51q-97 0 -147.5 -53t-50.5 -156v-388h-86v388q0 137 75.5 214t208.5 77
q169 0 262 -128z" />
    <glyph glyph-name="Ygrave" unicode="&#x1ef2;" horiz-adv-x="600" 
d="M371 719h-82l-121 140h96zM258 0v290l-264 377h107l199 -291l199 291h107l-262 -377v-290h-86z" />
    <glyph glyph-name="ygrave" unicode="&#x1ef3;" horiz-adv-x="479" 
d="M322 558h-82l-121 140h96zM281 -4v-1l-8 -19q-34 -88 -75 -123t-102 -35q-34 0 -68 8l10 76q32 -7 57 -7q36 0 57.5 20.5t48.5 87.5l-193 472h86l146 -376l145 376h86z" />
    <glyph glyph-name="uni2011" unicode="&#x2011;" horiz-adv-x="303" 
d="M39 300h225v-80h-225v80z" />
    <glyph glyph-name="endash" unicode="&#x2013;" horiz-adv-x="500" 
d="M20 289h460v-58h-460v58z" />
    <glyph glyph-name="emdash" unicode="&#x2014;" horiz-adv-x="1000" 
d="M20 289h960v-58h-960v58z" />
    <glyph glyph-name="quoteleft" unicode="&#x2018;" horiz-adv-x="218" 
d="M128 673l65 -17l-85 -235l-84 21z" />
    <glyph glyph-name="quoteright" unicode="&#x2019;" horiz-adv-x="218" 
d="M89 421l-65 17l85 235l84 -20z" />
    <glyph glyph-name="quotesinglbase" unicode="&#x201a;" horiz-adv-x="218" 
d="M89 -139l-65 17l85 235l84 -20z" />
    <glyph glyph-name="quotedblleft" unicode="&#x201c;" horiz-adv-x="384" 
d="M128 673l65 -17l-85 -235l-84 21zM295 673l65 -17l-85 -235l-84 21z" />
    <glyph glyph-name="quotedblright" unicode="&#x201d;" horiz-adv-x="384" 
d="M89 421l-65 17l85 235l84 -20zM255 421l-65 17l85 235l84 -20z" />
    <glyph glyph-name="quotedblbase" unicode="&#x201e;" horiz-adv-x="384" 
d="M89 -139l-65 17l85 235l84 -20zM255 -139l-65 17l85 235l84 -20z" />
    <glyph glyph-name="dagger" unicode="&#x2020;" horiz-adv-x="471" 
d="M447 459v-82h-168l-12 -437h-62l-12 437h-169v82h169v208h86v-208h168z" />
    <glyph glyph-name="daggerdbl" unicode="&#x2021;" horiz-adv-x="471" 
d="M279 436l-6 -190l6 -190h168v-82h-168v-149h-86v149h-169v82h169l6 190l-6 190h-169v82h169v149h86v-149h168v-82h-168z" />
    <glyph glyph-name="bullet" unicode="&#x2022;" horiz-adv-x="417" 
d="M208 220q-47 0 -79.5 32.5t-32.5 80.5t32.5 80.5t79.5 32.5q49 0 81 -32.5t32 -80.5t-32 -80.5t-81 -32.5z" />
    <glyph glyph-name="ellipsis" unicode="&#x2026;" horiz-adv-x="653" 
d="M106 -9q-26 0 -42 16.5t-16 41.5t16.5 41.5t41.5 16.5t41.5 -16.5t16.5 -41.5t-16 -41.5t-42 -16.5zM327 -9q-25 0 -41.5 16.5t-16.5 41.5t16.5 41.5t41.5 16.5t41.5 -16.5t16.5 -41.5t-16.5 -41.5t-41.5 -16.5zM547 -9q-25 0 -41.5 16.5t-16.5 41.5t16.5 41.5t41.5 16.5
t41.5 -16.5t16.5 -41.5t-16.5 -41.5t-41.5 -16.5z" />
    <glyph glyph-name="perthousand" unicode="&#x2030;" horiz-adv-x="996" 
d="M175 373q-66 0 -104.5 41t-38.5 111t38.5 110.5t104.5 40.5t104.5 -40.5t38.5 -110.5t-38.5 -111t-104.5 -41zM565 667h96l-516 -667h-95zM175 441q33 0 51 22.5t18 61.5t-18 61t-51 22q-32 0 -50 -22t-18 -61t18 -61.5t50 -22.5zM505 -9q-66 0 -104.5 41.5t-38.5 110.5
q0 70 38.5 111t104.5 41t104.5 -41t38.5 -111q0 -69 -38.5 -110.5t-104.5 -41.5zM821 -9q-66 0 -104.5 41.5t-38.5 110.5q0 70 38.5 111t104.5 41t104.5 -41t38.5 -111q0 -69 -38.5 -110.5t-104.5 -41.5zM505 59q33 0 51 22.5t18 61.5t-18 61.5t-51 22.5q-32 0 -50 -22.5
t-18 -61.5t18 -61.5t50 -22.5zM821 59q33 0 51 22.5t18 61.5t-18 61.5t-51 22.5q-32 0 -50 -22.5t-18 -61.5t18 -61.5t50 -22.5z" />
    <glyph glyph-name="guilsinglleft" unicode="&#x2039;" horiz-adv-x="318" 
d="M281 439l-162 -179l162 -179h-103l-161 179l161 179h103z" />
    <glyph glyph-name="guilsinglright" unicode="&#x203a;" horiz-adv-x="318" 
d="M37 439h102l162 -179l-162 -179h-102l161 179z" />
    <glyph glyph-name="fraction" unicode="&#x2044;" horiz-adv-x="208" 
d="M-108 0h-82l506 667h82z" />
    <glyph glyph-name="uni2070" unicode="&#x2070;" horiz-adv-x="351" 
d="M176 396q-70 0 -111 57.5t-41 155.5t41 156t111 58q69 0 110 -58t41 -156q0 -97 -41 -155t-110 -58zM176 461q38 0 59.5 39.5t21.5 108.5q0 70 -21.5 109.5t-59.5 39.5q-39 0 -60.5 -39.5t-21.5 -109.5q0 -69 21.5 -108.5t60.5 -39.5z" />
    <glyph glyph-name="uni2074" unicode="&#x2074;" horiz-adv-x="347" 
d="M278 557h57v-63h-57v-91h-68v91h-197v63l159 260h106v-260zM84 557h126v206z" />
    <glyph glyph-name="uni2075" unicode="&#x2075;" horiz-adv-x="355" 
d="M159 396q-75 0 -128 41l25 62q44 -38 100 -38q43 0 67 20.5t24 55.5q0 33 -23 51.5t-67 18.5q-37 0 -71 -17l-44 14l29 213h215v-66h-154l-14 -94q24 9 52 9q65 0 106 -36.5t41 -94.5q0 -62 -44 -100.5t-114 -38.5z" />
    <glyph glyph-name="uni2076" unicode="&#x2076;" horiz-adv-x="349" 
d="M178 677q65 0 106 -38.5t41 -100.5t-41.5 -102t-108.5 -40t-109 39.5t-42 102.5q0 55 34 113.5t118 165.5h80q-62 -74 -115 -145q18 5 37 5zM175 461q36 0 58.5 21.5t22.5 55.5q0 35 -22.5 56.5t-58.5 21.5t-58.5 -21t-22.5 -57q0 -34 22.5 -55.5t58.5 -21.5z" />
    <glyph glyph-name="uni2077" unicode="&#x2077;" horiz-adv-x="354" 
d="M332 817l-201 -414h-73l169 348h-202v66h307z" />
    <glyph glyph-name="uni2078" unicode="&#x2078;" horiz-adv-x="355" 
d="M256 621q68 -28 68 -101q0 -57 -39.5 -90.5t-106.5 -33.5q-68 0 -108 33.5t-40 90.5q0 73 69 101q-54 27 -54 89q0 52 35.5 82.5t97.5 30.5q61 0 96.5 -30.5t35.5 -82.5q0 -62 -54 -89zM178 758q-30 0 -46.5 -14.5t-16.5 -40.5q0 -25 16.5 -39.5t46.5 -14.5q28 0 45 14.5
t17 39.5q0 26 -16.5 40.5t-45.5 14.5zM178 461q36 0 56.5 16.5t20.5 46.5t-21 47t-56 17q-36 0 -57 -17t-21 -47t20.5 -46.5t57.5 -16.5z" />
    <glyph glyph-name="uni2079" unicode="&#x2079;" horiz-adv-x="349" 
d="M175 824q67 0 108.5 -40t41.5 -102q0 -55 -34 -113.5t-118 -165.5h-80q62 74 115 145q-14 -5 -37 -5q-65 0 -106 38.5t-41 100.5t42 102t109 40zM175 604q36 0 58.5 21t22.5 57q0 34 -23 55.5t-58 21.5q-36 0 -58.5 -21.5t-22.5 -55.5q0 -35 22.5 -56.5t58.5 -21.5z" />
    <glyph glyph-name="uni207A" unicode="&#x207a;" horiz-adv-x="352" 
d="M320 592v-56h-116v-111h-57v111h-116v56h116v112h57v-112h116z" />
    <glyph glyph-name="uni207B" unicode="&#x207b;" horiz-adv-x="351" 
d="M31 592h288v-56h-288v56z" />
    <glyph glyph-name="uni207C" unicode="&#x207c;" horiz-adv-x="351" 
d="M31 660h288v-56h-288v56zM31 525h288v-57h-288v57z" />
    <glyph glyph-name="uni207D" unicode="&#x207d;" horiz-adv-x="223" 
d="M212 323l-51 -35q-131 113 -131 279t131 278l51 -35q-116 -93 -116 -243q0 -149 116 -244z" />
    <glyph glyph-name="uni207E" unicode="&#x207e;" horiz-adv-x="224" 
d="M11 323q117 94 117 244q0 149 -117 243l51 35q131 -112 131 -278t-131 -279z" />
    <glyph glyph-name="uni2080" unicode="&#x2080;" horiz-adv-x="351" 
d="M176 -182q-70 0 -111 57.5t-41 155.5t41 156t111 58q69 0 110 -58t41 -156q0 -97 -41 -155t-110 -58zM176 -117q38 0 59.5 39.5t21.5 108.5q0 70 -21.5 109.5t-59.5 39.5q-39 0 -60.5 -39.5t-21.5 -109.5q0 -69 21.5 -108.5t60.5 -39.5z" />
    <glyph glyph-name="uni2081" unicode="&#x2081;" horiz-adv-x="359" 
d="M232 -110h84v-65h-247v65h94v261l-93 -37l-14 65l170 67h6v-356z" />
    <glyph glyph-name="uni2082" unicode="&#x2082;" horiz-adv-x="352" 
d="M107 -110h205v-65h-292q4 43 21 77.5t39.5 55t48 40.5t46.5 34.5t35 35t14 44.5q0 31 -22 49.5t-60 18.5q-57 0 -95 -38l-20 62q47 41 119 41q67 0 107.5 -36t40.5 -96q0 -42 -25 -75.5t-55.5 -52.5t-63 -44.5t-43.5 -50.5z" />
    <glyph glyph-name="uni2083" unicode="&#x2083;" horiz-adv-x="355" 
d="M221 38q75 -26 75 -99q0 -55 -43.5 -88t-115.5 -33q-69 0 -117 27l15 65q42 -27 99 -27q43 0 67 16t24 45q0 61 -96 61h-29v62h29q81 0 81 57q0 26 -19 41t-53 15q-50 0 -90 -29l-14 61q49 33 111 33q61 0 98.5 -31.5t37.5 -83.5q0 -65 -60 -92z" />
    <glyph glyph-name="uni2084" unicode="&#x2084;" horiz-adv-x="347" 
d="M278 -21h57v-63h-57v-91h-68v91h-197v63l159 260h106v-260zM84 -21h126v206z" />
    <glyph glyph-name="uni2085" unicode="&#x2085;" horiz-adv-x="355" 
d="M159 -182q-75 0 -128 41l25 62q44 -38 100 -38q43 0 67 20.5t24 55.5q0 33 -23 51.5t-67 18.5q-37 0 -71 -17l-44 14l29 213h215v-66h-154l-14 -94q24 9 52 9q65 0 106 -36.5t41 -94.5q0 -62 -44 -100.5t-114 -38.5z" />
    <glyph glyph-name="uni2086" unicode="&#x2086;" horiz-adv-x="349" 
d="M178 99q65 0 106 -38.5t41 -100.5t-41.5 -102t-108.5 -40t-109 39.5t-42 102.5q0 55 34 113.5t118 165.5h80q-62 -74 -115 -145q18 5 37 5zM175 -117q36 0 58.5 21.5t22.5 55.5q0 35 -22.5 56.5t-58.5 21.5t-58.5 -21t-22.5 -57q0 -34 22.5 -55.5t58.5 -21.5z" />
    <glyph glyph-name="uni2087" unicode="&#x2087;" horiz-adv-x="354" 
d="M332 239l-201 -414h-73l169 348h-202v66h307z" />
    <glyph glyph-name="uni2088" unicode="&#x2088;" horiz-adv-x="355" 
d="M256 43q68 -28 68 -101q0 -57 -39.5 -90.5t-106.5 -33.5q-68 0 -108 33.5t-40 90.5q0 73 69 101q-54 27 -54 89q0 52 35.5 82.5t97.5 30.5q61 0 96.5 -30.5t35.5 -82.5q0 -62 -54 -89zM178 180q-30 0 -46.5 -14.5t-16.5 -40.5q0 -25 16.5 -39.5t46.5 -14.5q28 0 45 14.5
t17 39.5q0 26 -16.5 40.5t-45.5 14.5zM178 -117q36 0 56.5 16.5t20.5 46.5t-21 47t-56 17q-36 0 -57 -17t-21 -47t20.5 -46.5t57.5 -16.5z" />
    <glyph glyph-name="uni2089" unicode="&#x2089;" horiz-adv-x="349" 
d="M175 246q67 0 108.5 -40t41.5 -102q0 -55 -34 -113.5t-118 -165.5h-80q62 74 115 145q-14 -5 -37 -5q-65 0 -106 38.5t-41 100.5t42 102t109 40zM175 26q36 0 58.5 21t22.5 57q0 34 -23 55.5t-58 21.5q-36 0 -58.5 -21.5t-22.5 -55.5q0 -35 22.5 -56.5t58.5 -21.5z" />
    <glyph glyph-name="uni208A" unicode="&#x208a;" horiz-adv-x="352" 
d="M320 14v-56h-116v-111h-57v111h-116v56h116v112h57v-112h116z" />
    <glyph glyph-name="uni208B" unicode="&#x208b;" horiz-adv-x="351" 
d="M31 14h288v-56h-288v56z" />
    <glyph glyph-name="uni208C" unicode="&#x208c;" horiz-adv-x="351" 
d="M31 82h288v-56h-288v56zM31 -53h288v-57h-288v57z" />
    <glyph glyph-name="uni208D" unicode="&#x208d;" horiz-adv-x="223" 
d="M212 -255l-51 -35q-131 113 -131 279t131 278l51 -35q-116 -93 -116 -243q0 -149 116 -244z" />
    <glyph glyph-name="uni208E" unicode="&#x208e;" horiz-adv-x="224" 
d="M11 -255q117 94 117 244q0 149 -117 243l51 35q131 -112 131 -278t-131 -279z" />
    <glyph glyph-name="Euro" unicode="&#x20ac;" horiz-adv-x="536" 
d="M344 70q84 0 149 54l23 -79q-69 -57 -173 -57q-106 0 -181 65.5t-100 178.5h-42v71h33q-1 10 -1 30q0 22 1 33h-33v71h43q25 113 99.5 177.5t180.5 64.5q100 0 173 -57l-23 -80q-64 55 -149 55q-71 0 -121.5 -42.5t-71.5 -117.5h313l-20 -71h-305q-1 -11 -1 -33
q0 -20 1 -30h287l-19 -71h-256q21 -76 71 -119t122 -43z" />
    <glyph glyph-name="uni20B9" unicode="&#x20b9;" horiz-adv-x="536" 
d="M497 667v-74h-146q29 -25 45 -63h101v-74h-90q-4 -72 -48 -121t-121 -63l192 -272h-105l-241 346h93q65 0 102.5 30t41.5 80h-282v74h269q-36 63 -131 63h-138v74h458z" />
    <glyph glyph-name="uni20BA" unicode="&#x20ba;" horiz-adv-x="536" 
d="M419 327h86q0 -171 -79.5 -249t-254.5 -78h-86v241l-71 -36v81l71 36v69l-71 -36v81l71 36v195h86v-152l150 75v-80l-150 -76v-69l150 75v-80l-150 -76v-202q136 0 192 55.5t56 189.5z" />
    <glyph glyph-name="uni2113" unicode="&#x2113;" horiz-adv-x="404" 
d="M255 73q45 0 85 22l19 -78q-49 -26 -117 -26q-174 0 -174 185v12q-50 -29 -53 -31l-1 90q28 17 54 33v234q0 102 36.5 149.5t110.5 47.5q72 0 111 -43t39 -117q0 -80 -48 -153.5t-163 -154.5v-52q0 -63 24 -90.5t77 -27.5zM154 523v-181q125 102 125 209q0 81 -64 81
q-31 0 -46 -24.5t-15 -84.5z" />
    <glyph glyph-name="published" unicode="&#x2117;" horiz-adv-x="771" 
d="M386 679q142 0 243.5 -101.5t101.5 -243.5q0 -143 -101 -244.5t-244 -101.5t-244.5 101.5t-101.5 244.5t101.5 244t244.5 101zM386 51q117 0 199.5 82.5t82.5 200.5q0 117 -82.5 199.5t-199.5 82.5q-118 0 -200.5 -82.5t-82.5 -199.5q0 -118 82.5 -200.5t200.5 -82.5z
M418 527q61 0 98.5 -33t37.5 -87q0 -55 -37 -88t-99 -33h-81v-146h-66v387h147zM418 351q32 0 50.5 14.5t18.5 41.5q0 55 -69 55h-81v-111h81z" />
    <glyph glyph-name="trademark" unicode="&#x2122;" horiz-adv-x="651" 
d="M238 667v-51h-86v-246h-55v246h-87v51h228zM612 667v-297h-57v223l-102 -173h-20l-102 173v-223h-56v297h74l94 -158l94 158h75z" />
    <glyph glyph-name="uni2126" unicode="&#x2126;" horiz-adv-x="783" 
d="M592 74h147v-74h-289v75q89 18 142 87.5t53 170.5q0 118 -70.5 191.5t-182.5 73.5t-183 -73.5t-71 -191.5q0 -101 53.5 -170.5t142.5 -87.5v-75h-290v74h147q-65 42 -101.5 112t-36.5 160q0 148 94 240t245 92q150 0 244 -92t94 -240q0 -90 -36 -160t-102 -112z" />
    <glyph glyph-name="estimated" unicode="&#x212e;" horiz-adv-x="812" 
d="M406 -10q-171 0 -272 95q-104 99 -104 248q0 148 105 248q103 96 271 96q154 0 260 -85q106 -86 116 -269h-598q-8 0 -11.5 -2.5t-3.5 -14.5v-168q0 -33 70.5 -77t166.5 -44q69 0 132 30.5t106 78.5h70q-72 -80 -141 -107q-73 -29 -167 -29zM184 345h441q11 0 14 3.5
t3 12.5v165q0 41 -79 84t-159 43q-61 0 -118.5 -24.5t-87 -52t-29.5 -43.5v-180q0 -8 15 -8z" />
    <glyph glyph-name="arrowleft" unicode="&#x2190;" horiz-adv-x="758" 
d="M718 375v-80h-533l196 -191l-55 -54l-286 285l286 286l55 -55l-196 -191h533z" />
    <glyph glyph-name="arrowup" unicode="&#x2191;" horiz-adv-x="651" 
d="M611 392l-55 -55l-191 196v-533h-80v533l-190 -196l-55 55l285 286z" />
    <glyph glyph-name="arrowright" unicode="&#x2192;" horiz-adv-x="758" 
d="M432 620l286 -285l-286 -286l-55 55l196 191h-533v80h533l-196 190z" />
    <glyph glyph-name="arrowdown" unicode="&#x2193;" horiz-adv-x="651" 
d="M556 321l55 -55l-285 -286l-286 286l55 55l191 -196v533h80v-533z" />
    <glyph glyph-name="uni2196" unicode="&#x2196;" horiz-adv-x="588" 
d="M548 120l-57 -57l-376 376l3 -272h-77l-1 404h405v-78l-273 3z" />
    <glyph glyph-name="uni2197" unicode="&#x2197;" horiz-adv-x="588" 
d="M144 570l404 1v-404h-78l3 273l-377 -377l-56 57l377 377l-273 -4v77z" />
    <glyph glyph-name="uni2198" unicode="&#x2198;" horiz-adv-x="588" 
d="M469 499h78v-404h-404v78l273 -3l-376 376l56 57l377 -377z" />
    <glyph glyph-name="uni2199" unicode="&#x2199;" horiz-adv-x="588" 
d="M548 546l-377 -377l273 4v-78l-404 -1v405h78l-3 -273l376 376z" />
    <glyph glyph-name="partialdiff" unicode="&#x2202;" horiz-adv-x="559" 
d="M275 677q122 0 194.5 -89t72.5 -259t-71 -254.5t-191 -84.5q-107 0 -173.5 64.5t-66.5 168.5q0 102 64 165.5t165 63.5q130 0 194 -99q-4 125 -56.5 186.5t-142.5 61.5q-64 0 -120 -32l-14 72q65 36 145 36zM280 66q71 0 115 43.5t44 113.5t-44 113t-115 43
q-72 0 -116 -43t-44 -113q0 -71 44 -114t116 -43z" />
    <glyph glyph-name="uni2206" unicode="&#x2206;" horiz-adv-x="625" 
d="M362 667l263 -667h-625l263 667h99zM122 82h381l-190 492z" />
    <glyph glyph-name="product" unicode="&#x220f;" horiz-adv-x="689" 
d="M87 -175v842h515v-842h-85v760h-344v-760h-86z" />
    <glyph glyph-name="summation" unicode="&#x2211;" horiz-adv-x="565" 
d="M527 667v-82h-378l244 -339l-244 -339h378v-82h-489v68l254 353l-254 353v68h489z" />
    <glyph glyph-name="minus" unicode="&#x2212;" horiz-adv-x="540" 
d="M45 297h450v-73h-450v73z" />
    <glyph glyph-name="uni2215" unicode="&#x2215;" horiz-adv-x="536" 
d="M123 0h-85l376 667h84z" />
    <glyph glyph-name="uni2219" unicode="&#x2219;" horiz-adv-x="536" 
d="M274 203q-26 0 -42 16.5t-16 41.5t16.5 41.5t41.5 16.5t41.5 -16.5t16.5 -41.5t-16 -41.5t-42 -16.5z" />
    <glyph glyph-name="radical" unicode="&#x221a;" horiz-adv-x="663" 
d="M570 702h83l-323 -877h-113l-115 388h-92v72h154l113 -382z" />
    <glyph glyph-name="infinity" unicode="&#x221e;" horiz-adv-x="823" 
d="M606 441q79 0 128.5 -50.5t49.5 -131.5t-49 -131t-129 -50q-63 0 -107.5 33t-86.5 92q-43 -60 -88 -92.5t-108 -32.5q-79 0 -128 50.5t-49 130.5q0 81 49 131.5t128 50.5q63 0 107.5 -33t88.5 -92q43 59 87 92t107 33zM216 153q46 0 79 27t71 79q-38 53 -71 80t-79 27
q-45 0 -71.5 -28.5t-26.5 -78.5q0 -49 26.5 -77.5t71.5 -28.5zM606 153q45 0 72 28.5t27 77.5q0 50 -27 78.5t-72 28.5t-78.5 -27.5t-71.5 -79.5q38 -52 71.5 -79t78.5 -27z" />
    <glyph glyph-name="integral" unicode="&#x222b;" horiz-adv-x="507" 
d="M-5 -159l16 73q27 -16 61 -16q79 0 96 101l85 506q28 172 164 172q59 0 95 -24l-16 -73q-27 16 -61 16q-79 0 -96 -101l-85 -506q-28 -172 -164 -172q-59 0 -95 24z" />
    <glyph glyph-name="approxequal" unicode="&#x2248;" horiz-adv-x="540" 
d="M59 292q0 71 33 114.5t92 43.5q38 0 67.5 -21.5t54 -43t50.5 -21.5q27 0 41.5 23.5t14.5 62.5h69q0 -71 -33 -114.5t-92 -43.5q-38 0 -67.5 21.5t-54 43t-50.5 21.5q-27 0 -41.5 -23.5t-14.5 -62.5h-69zM59 70q0 71 33 114.5t92 43.5q38 0 67.5 -21.5t54 -43t50.5 -21.5
q27 0 41.5 23.5t14.5 62.5h69q0 -71 -33 -114.5t-92 -43.5q-38 0 -67.5 21.5t-54 43t-50.5 21.5q-27 0 -41.5 -23.5t-14.5 -62.5h-69z" />
    <glyph glyph-name="notequal" unicode="&#x2260;" horiz-adv-x="540" 
d="M495 329h-142l-85 -137h227v-73h-266l-72 -116h-70l72 116h-114v73h154l84 137h-238v73h278l71 115h70l-71 -115h102v-73z" />
    <glyph glyph-name="lessequal" unicode="&#x2264;" horiz-adv-x="540" 
d="M495 530v-80l-386 -131l386 -132v-78l-450 154v112zM45 -10v73h450v-73h-450z" />
    <glyph glyph-name="greaterequal" unicode="&#x2265;" horiz-adv-x="540" 
d="M45 530l450 -155v-112l-450 -154v78l386 132l-386 131v80zM45 -10v73h450v-73h-450z" />
    <glyph glyph-name="lozenge" unicode="&#x25ca;" horiz-adv-x="597" 
d="M353 667l216 -421l-216 -421h-109l-215 421l215 421h109zM298 -111l179 357l-179 357l-178 -357z" />
    <glyph glyph-name="uni2610" unicode="&#x2610;" horiz-adv-x="707" 
d="M20 0v667h667v-667h-667zM90 70h527v527h-527v-527z" />
    <glyph glyph-name="uni2611" unicode="&#x2611;" horiz-adv-x="707" 
d="M20 667h667v-667h-667v667zM617 70v527h-527v-527h527zM266 105q-57 154 -147 190l41 62q41 -15 78 -54.5t62 -99.5q93 299 240 368l47 -67q-72 -33 -137.5 -139.5t-105.5 -259.5h-78z" />
    <glyph glyph-name="uni2612" unicode="&#x2612;" horiz-adv-x="707" 
d="M20 667h667v-667h-667v667zM617 70v527h-527v-527h527zM181 101l-58 42q63 103 150 202q-77 93 -124 166l62 49q54 -82 117 -157q100 103 201 167l52 -72q-104 -59 -202 -154q69 -80 165 -174l-56 -58q-73 70 -165 174q-79 -86 -142 -185z" />
    <glyph glyph-name="uni2713" unicode="&#x2713;" horiz-adv-x="707" 
d="M608 674l46 -80q-100 -42 -199.5 -207t-158.5 -389h-75q-91 213 -203 253l40 73q113 -35 193 -214q67 221 160.5 370t196.5 194z" />
    <glyph glyph-name="uni2717" unicode="&#x2717;" horiz-adv-x="707" 
d="M674 596q-151 -89 -307 -249q115 -146 234 -269l-61 -60q-117 122 -230 266q-119 -134 -214 -288l-63 42q102 169 226 312q-111 146 -178 262l67 49q66 -113 167 -247q155 166 305 260z" />
    <glyph glyph-name="uniFEFF" unicode="&#xfeff;" 
 />
    <glyph glyph-name="a.ss01" horiz-adv-x="485" 
d="M219 485q97 0 150 -49t53 -138v-298h-74v55q-45 -66 -145 -66q-81 0 -128 40t-47 109q0 71 51 112t140 41q69 0 123 -23v19q0 60 -34 91.5t-98 31.5q-71 0 -134 -42l-17 73q68 44 160 44zM212 58q60 0 95 31.5t35 87.5v25q-54 19 -116 19q-59 0 -88.5 -22t-29.5 -61
q0 -37 26.5 -58.5t77.5 -21.5z" />
    <glyph glyph-name="aacute.ss01" horiz-adv-x="485" 
d="M347 698l-121 -140h-82l107 140h96zM219 485q97 0 150 -49t53 -138v-298h-74v55q-45 -66 -145 -66q-81 0 -128 40t-47 109q0 71 51 112t140 41q69 0 123 -23v19q0 60 -34 91.5t-98 31.5q-71 0 -134 -42l-17 73q68 44 160 44zM212 58q60 0 95 31.5t35 87.5v25
q-54 19 -116 19q-59 0 -88.5 -22t-29.5 -61q0 -37 26.5 -58.5t77.5 -21.5z" />
    <glyph glyph-name="abreve.ss01" horiz-adv-x="485" 
d="M226 554q-58 0 -95.5 38t-37.5 97h67q0 -29 18.5 -47.5t47.5 -18.5t47.5 18.5t18.5 47.5h67q0 -59 -37 -97t-96 -38zM219 485q97 0 150 -49t53 -138v-298h-74v55q-45 -66 -145 -66q-81 0 -128 40t-47 109q0 71 51 112t140 41q69 0 123 -23v19q0 60 -34 91.5t-98 31.5
q-71 0 -134 -42l-17 73q68 44 160 44zM212 58q60 0 95 31.5t35 87.5v25q-54 19 -116 19q-59 0 -88.5 -22t-29.5 -61q0 -37 26.5 -58.5t77.5 -21.5z" />
    <glyph glyph-name="acircumflex.ss01" horiz-adv-x="485" 
d="M226 646l-66 -88h-78l99 140h91l98 -140h-78zM219 485q97 0 150 -49t53 -138v-298h-74v55q-45 -66 -145 -66q-81 0 -128 40t-47 109q0 71 51 112t140 41q69 0 123 -23v19q0 60 -34 91.5t-98 31.5q-71 0 -134 -42l-17 73q68 44 160 44zM212 58q60 0 95 31.5t35 87.5v25
q-54 19 -116 19q-59 0 -88.5 -22t-29.5 -61q0 -37 26.5 -58.5t77.5 -21.5z" />
    <glyph glyph-name="adieresis.ss01" horiz-adv-x="485" 
d="M133 584q-25 0 -40.5 15.5t-15.5 39.5q0 25 15.5 40.5t40.5 15.5q24 0 39.5 -15.5t15.5 -40.5q0 -24 -15.5 -39.5t-39.5 -15.5zM320 584q-25 0 -40.5 15.5t-15.5 39.5q0 25 15.5 40.5t40.5 15.5q24 0 39.5 -15.5t15.5 -40.5q0 -24 -15.5 -39.5t-39.5 -15.5zM219 485
q97 0 150 -49t53 -138v-298h-74v55q-45 -66 -145 -66q-81 0 -128 40t-47 109q0 71 51 112t140 41q69 0 123 -23v19q0 60 -34 91.5t-98 31.5q-71 0 -134 -42l-17 73q68 44 160 44zM212 58q60 0 95 31.5t35 87.5v25q-54 19 -116 19q-59 0 -88.5 -22t-29.5 -61
q0 -37 26.5 -58.5t77.5 -21.5z" />
    <glyph glyph-name="agrave.ss01" horiz-adv-x="485" 
d="M308 558h-82l-121 140h96zM219 485q97 0 150 -49t53 -138v-298h-74v55q-45 -66 -145 -66q-81 0 -128 40t-47 109q0 71 51 112t140 41q69 0 123 -23v19q0 60 -34 91.5t-98 31.5q-71 0 -134 -42l-17 73q68 44 160 44zM212 58q60 0 95 31.5t35 87.5v25q-54 19 -116 19
q-59 0 -88.5 -22t-29.5 -61q0 -37 26.5 -58.5t77.5 -21.5z" />
    <glyph glyph-name="amacron.ss01" horiz-adv-x="485" 
d="M368 668v-65h-283v65h283zM219 485q97 0 150 -49t53 -138v-298h-74v55q-45 -66 -145 -66q-81 0 -128 40t-47 109q0 71 51 112t140 41q69 0 123 -23v19q0 60 -34 91.5t-98 31.5q-71 0 -134 -42l-17 73q68 44 160 44zM212 58q60 0 95 31.5t35 87.5v25q-54 19 -116 19
q-59 0 -88.5 -22t-29.5 -61q0 -37 26.5 -58.5t77.5 -21.5z" />
    <glyph glyph-name="aogonek.ss01" horiz-adv-x="485" 
d="M428 -112l12 -54q-31 -20 -74 -20q-39 0 -61 18.5t-22 51.5q0 54 71 116h-6v55q-45 -66 -145 -66q-81 0 -128 40t-47 109q0 71 51 112t140 41q69 0 123 -23v19q0 60 -34 91.5t-98 31.5q-71 0 -134 -42l-17 73q68 44 160 44q97 0 150 -49t53 -138v-298h-14l8 -2
q-66 -59 -66 -92q0 -30 36 -30q18 0 42 12zM212 58q60 0 95 31.5t35 87.5v25q-54 19 -116 19q-59 0 -88.5 -22t-29.5 -61q0 -37 26.5 -58.5t77.5 -21.5z" />
    <glyph glyph-name="aring.ss01" horiz-adv-x="485" 
d="M226 543q-41 0 -70.5 29.5t-29.5 70.5q0 42 29 70.5t71 28.5q43 0 71.5 -28.5t28.5 -70.5t-29 -71t-71 -29zM226 701q-25 0 -41.5 -16.5t-16.5 -41.5t16.5 -42t41.5 -17t41.5 17t16.5 42t-16.5 41.5t-41.5 16.5zM219 485q97 0 150 -49t53 -138v-298h-74v55
q-45 -66 -145 -66q-81 0 -128 40t-47 109q0 71 51 112t140 41q69 0 123 -23v19q0 60 -34 91.5t-98 31.5q-71 0 -134 -42l-17 73q68 44 160 44zM212 58q60 0 95 31.5t35 87.5v25q-54 19 -116 19q-59 0 -88.5 -22t-29.5 -61q0 -37 26.5 -58.5t77.5 -21.5z" />
    <glyph glyph-name="atilde.ss01" horiz-adv-x="485" 
d="M164 622q-18 0 -28.5 -18.5t-10.5 -49.5h-64q0 63 25.5 101t72.5 38q30 0 54 -17t42 -34t33 -17q38 0 38 68h65q0 -63 -26 -101t-73 -38q-29 0 -53 17t-42 34t-33 17zM219 485q97 0 150 -49t53 -138v-298h-74v55q-45 -66 -145 -66q-81 0 -128 40t-47 109q0 71 51 112
t140 41q69 0 123 -23v19q0 60 -34 91.5t-98 31.5q-71 0 -134 -42l-17 73q68 44 160 44zM212 58q60 0 95 31.5t35 87.5v25q-54 19 -116 19q-59 0 -88.5 -22t-29.5 -61q0 -37 26.5 -58.5t77.5 -21.5z" />
    <glyph glyph-name="f_i" horiz-adv-x="542" 
d="M236 636q-71 0 -71 -85v-76h130v-76h-130v-399h-80v399h-71v76h71v82q0 73 37 113t106 40q39 0 75 -13l-13 -71q-24 10 -54 10zM429 695q25 0 40.5 -15.5t15.5 -40.5t-15.5 -40.5t-40.5 -15.5t-41 15.5t-16 40.5t16 40.5t41 15.5zM389 0v475h80v-475h-80z" />
    <glyph glyph-name="f_l" horiz-adv-x="573" 
d="M236 636q-71 0 -71 -85v-76h130v-76h-130v-399h-80v399h-71v76h71v82q0 73 37 113t106 40q39 0 75 -13l-13 -71q-24 10 -54 10zM550 74l9 -69q-21 -10 -62 -10q-56 0 -82 27.5t-26 87.5v592h80v-578q0 -55 48 -55q18 0 33 5z" />
    <glyph glyph-name="zero.lf" horiz-adv-x="559" 
d="M279 -12q-112 0 -178 93.5t-66 251.5q0 159 66 252.5t178 93.5q113 0 179 -93.5t66 -252.5q0 -158 -66.5 -251.5t-178.5 -93.5zM279 70q74 0 117 71t43 192q0 122 -43 193t-117 71q-73 0 -116 -71t-43 -193q0 -121 43 -192t116 -71z" />
    <glyph glyph-name="one.lf" horiz-adv-x="379" 
d="M251 679h11v-679h-85v561l-156 -68l-17 79z" />
    <glyph glyph-name="two.lf" horiz-adv-x="536" 
d="M135 80h343v-80h-449q6 56 28 103t52.5 79.5t66 60.5t70 52.5t62.5 49t45.5 56t17.5 67.5q0 58 -38.5 93t-104.5 35q-91 0 -156 -70l-27 80q77 72 188 72q100 0 161.5 -57.5t61.5 -150.5q0 -57 -27.5 -104t-70 -80.5t-86 -63.5t-83 -66.5t-54.5 -75.5z" />
    <glyph glyph-name="three.lf" horiz-adv-x="536" 
d="M330 343q123 -40 123 -160q0 -89 -66 -142t-176 -53q-109 0 -182 43l21 82q62 -43 160 -43q75 0 116 30t41 85t-44 85t-126 30h-45v80h45q71 0 108.5 29t37.5 83q0 49 -32.5 76.5t-90.5 27.5q-84 0 -151 -51l-19 79q76 54 173 54q92 0 148.5 -50.5t56.5 -133.5
q0 -108 -98 -151z" />
    <glyph glyph-name="four.lf" horiz-adv-x="550" 
d="M425 238h100v-76h-100v-162h-83v162h-317v76l273 429h127v-429zM113 238h229v359z" />
    <glyph glyph-name="five.lf" horiz-adv-x="536" 
d="M241 -11q-116 0 -197 63l31 80q70 -61 162 -61q74 0 116.5 38t42.5 103q0 63 -40.5 98t-115.5 35q-67 0 -122 -31l-55 17l48 336h322v-82h-247l-27 -180q41 17 96 17q103 0 165 -58t62 -153q0 -99 -66.5 -160.5t-174.5 -61.5z" />
    <glyph glyph-name="six.lf" horiz-adv-x="536" 
d="M270 446q104 0 168 -63t64 -165q0 -103 -64.5 -166.5t-168.5 -63.5t-169 63.5t-65 166.5q0 92 54 187t187 262h105q-116 -141 -194 -241q36 20 83 20zM269 70q66 0 107 41t41 107t-41 106.5t-107 40.5t-107.5 -40.5t-41.5 -106.5t41.5 -107t107.5 -41z" />
    <glyph glyph-name="seven.lf" horiz-adv-x="495" 
d="M489 667l-322 -667h-94l283 585h-336v82h469z" />
    <glyph glyph-name="eight.lf" horiz-adv-x="536" 
d="M384 351q109 -44 109 -164q0 -91 -61 -145t-164 -54t-164 54t-61 145q0 120 109 164q-85 45 -85 147q0 82 54.5 131t146.5 49t146.5 -49t54.5 -131q0 -102 -85 -147zM268 596q-56 0 -86 -26.5t-30 -74.5q0 -50 31.5 -79t84.5 -29t84.5 29t31.5 79q0 48 -30 74.5t-86 26.5
zM268 70q66 0 102.5 31t36.5 89q0 56 -37.5 87.5t-101.5 31.5t-101.5 -31.5t-37.5 -87.5q0 -58 36.5 -89t102.5 -31z" />
    <glyph glyph-name="nine.lf" horiz-adv-x="536" 
d="M267 679q104 0 169 -63.5t65 -166.5q0 -92 -54 -187t-187 -262h-105q116 141 194 241q-36 -20 -83 -20q-104 0 -168 63t-64 165q0 103 64.5 166.5t168.5 63.5zM267 302q66 0 107.5 40.5t41.5 106.5t-41.5 107t-107.5 41t-107 -41t-41 -107t41 -106.5t107 -40.5z" />
    <glyph glyph-name="zero.dnom" horiz-adv-x="351" 
d="M176 -7q-70 0 -111 57.5t-41 155.5t41 156t111 58q69 0 110 -58t41 -156q0 -97 -41 -155t-110 -58zM176 58q38 0 59.5 39.5t21.5 108.5q0 70 -21.5 109.5t-59.5 39.5q-39 0 -60.5 -39.5t-21.5 -109.5q0 -69 21.5 -108.5t60.5 -39.5z" />
    <glyph glyph-name="one.dnom" horiz-adv-x="359" 
d="M232 65h84v-65h-247v65h94v261l-93 -37l-14 65l170 67h6v-356z" />
    <glyph glyph-name="two.dnom" horiz-adv-x="352" 
d="M107 65h205v-65h-292q4 43 21 77.5t39.5 55t48 40.5t46.5 34.5t35 35t14 44.5q0 31 -22 49.5t-60 18.5q-57 0 -95 -38l-20 62q47 41 119 41q67 0 107.5 -36t40.5 -96q0 -42 -25 -75.5t-55.5 -52.5t-63 -44.5t-43.5 -50.5z" />
    <glyph glyph-name="three.dnom" horiz-adv-x="355" 
d="M221 213q75 -26 75 -99q0 -55 -43.5 -88t-115.5 -33q-69 0 -117 27l15 65q42 -27 99 -27q43 0 67 16t24 45q0 61 -96 61h-29v62h29q81 0 81 57q0 26 -19 41t-53 15q-50 0 -90 -29l-14 61q49 33 111 33q61 0 98.5 -31.5t37.5 -83.5q0 -65 -60 -92z" />
    <glyph glyph-name="four.dnom" horiz-adv-x="347" 
d="M278 154h57v-63h-57v-91h-68v91h-197v63l159 260h106v-260zM84 154h126v206z" />
    <glyph glyph-name="five.dnom" horiz-adv-x="355" 
d="M159 -7q-75 0 -128 41l25 62q44 -38 100 -38q43 0 67 20.5t24 55.5q0 33 -23 51.5t-67 18.5q-37 0 -71 -17l-44 14l29 213h215v-66h-154l-14 -94q24 9 52 9q65 0 106 -36.5t41 -94.5q0 -62 -44 -100.5t-114 -38.5z" />
    <glyph glyph-name="six.dnom" horiz-adv-x="349" 
d="M178 274q65 0 106 -38.5t41 -100.5t-41.5 -102t-108.5 -40t-109 39.5t-42 102.5q0 55 34 113.5t118 165.5h80q-62 -74 -115 -145q18 5 37 5zM175 58q36 0 58.5 21.5t22.5 55.5q0 35 -22.5 56.5t-58.5 21.5t-58.5 -21t-22.5 -57q0 -34 22.5 -55.5t58.5 -21.5z" />
    <glyph glyph-name="seven.dnom" horiz-adv-x="354" 
d="M332 414l-201 -414h-73l169 348h-202v66h307z" />
    <glyph glyph-name="eight.dnom" horiz-adv-x="355" 
d="M256 218q68 -28 68 -101q0 -57 -39.5 -90.5t-106.5 -33.5q-68 0 -108 33.5t-40 90.5q0 73 69 101q-54 27 -54 89q0 52 35.5 82.5t97.5 30.5q61 0 96.5 -30.5t35.5 -82.5q0 -62 -54 -89zM178 355q-30 0 -46.5 -14.5t-16.5 -40.5q0 -25 16.5 -39.5t46.5 -14.5q28 0 45 14.5
t17 39.5q0 26 -16.5 40.5t-45.5 14.5zM178 58q36 0 56.5 16.5t20.5 46.5t-21 47t-56 17q-36 0 -57 -17t-21 -47t20.5 -46.5t57.5 -16.5z" />
    <glyph glyph-name="nine.dnom" horiz-adv-x="349" 
d="M175 421q67 0 108.5 -40t41.5 -102q0 -55 -34 -113.5t-118 -165.5h-80q62 74 115 145q-14 -5 -37 -5q-65 0 -106 38.5t-41 100.5t42 102t109 40zM175 201q36 0 58.5 21t22.5 57q0 34 -23 55.5t-58 21.5q-36 0 -58.5 -21.5t-22.5 -55.5q0 -35 22.5 -56.5t58.5 -21.5z" />
    <glyph glyph-name="zero.numr" horiz-adv-x="351" 
d="M176 246q-70 0 -111 57.5t-41 155.5t41 156t111 58q69 0 110 -58t41 -156q0 -97 -41 -155t-110 -58zM176 311q38 0 59.5 39.5t21.5 108.5q0 70 -21.5 109.5t-59.5 39.5q-39 0 -60.5 -39.5t-21.5 -109.5q0 -69 21.5 -108.5t60.5 -39.5z" />
    <glyph glyph-name="one.numr" horiz-adv-x="359" 
d="M232 318h84v-65h-247v65h94v261l-93 -37l-14 65l170 67h6v-356z" />
    <glyph glyph-name="two.numr" horiz-adv-x="352" 
d="M107 318h205v-65h-292q4 43 21 77.5t39.5 55t48 40.5t46.5 34.5t35 35t14 44.5q0 31 -22 49.5t-60 18.5q-57 0 -95 -38l-20 62q47 41 119 41q67 0 107.5 -36t40.5 -96q0 -42 -25 -75.5t-55.5 -52.5t-63 -44.5t-43.5 -50.5z" />
    <glyph glyph-name="three.numr" horiz-adv-x="355" 
d="M221 466q75 -26 75 -99q0 -55 -43.5 -88t-115.5 -33q-69 0 -117 27l15 65q42 -27 99 -27q43 0 67 16t24 45q0 61 -96 61h-29v62h29q81 0 81 57q0 26 -19 41t-53 15q-50 0 -90 -29l-14 61q49 33 111 33q61 0 98.5 -31.5t37.5 -83.5q0 -65 -60 -92z" />
    <glyph glyph-name="four.numr" horiz-adv-x="347" 
d="M278 407h57v-63h-57v-91h-68v91h-197v63l159 260h106v-260zM84 407h126v206z" />
    <glyph glyph-name="five.numr" horiz-adv-x="355" 
d="M159 246q-75 0 -128 41l25 62q44 -38 100 -38q43 0 67 20.5t24 55.5q0 33 -23 51.5t-67 18.5q-37 0 -71 -17l-44 14l29 213h215v-66h-154l-14 -94q24 9 52 9q65 0 106 -36.5t41 -94.5q0 -62 -44 -100.5t-114 -38.5z" />
    <glyph glyph-name="six.numr" horiz-adv-x="349" 
d="M178 527q65 0 106 -38.5t41 -100.5t-41.5 -102t-108.5 -40t-109 39.5t-42 102.5q0 55 34 113.5t118 165.5h80q-62 -74 -115 -145q18 5 37 5zM175 311q36 0 58.5 21.5t22.5 55.5q0 35 -22.5 56.5t-58.5 21.5t-58.5 -21t-22.5 -57q0 -34 22.5 -55.5t58.5 -21.5z" />
    <glyph glyph-name="seven.numr" horiz-adv-x="354" 
d="M332 667l-201 -414h-73l169 348h-202v66h307z" />
    <glyph glyph-name="eight.numr" horiz-adv-x="355" 
d="M256 471q68 -28 68 -101q0 -57 -39.5 -90.5t-106.5 -33.5q-68 0 -108 33.5t-40 90.5q0 73 69 101q-54 27 -54 89q0 52 35.5 82.5t97.5 30.5q61 0 96.5 -30.5t35.5 -82.5q0 -62 -54 -89zM178 608q-30 0 -46.5 -14.5t-16.5 -40.5q0 -25 16.5 -39.5t46.5 -14.5q28 0 45 14.5
t17 39.5q0 26 -16.5 40.5t-45.5 14.5zM178 311q36 0 56.5 16.5t20.5 46.5t-21 47t-56 17q-36 0 -57 -17t-21 -47t20.5 -46.5t57.5 -16.5z" />
    <glyph glyph-name="nine.numr" horiz-adv-x="349" 
d="M175 674q67 0 108.5 -40t41.5 -102q0 -55 -34 -113.5t-118 -165.5h-80q62 74 115 145q-14 -5 -37 -5q-65 0 -106 38.5t-41 100.5t42 102t109 40zM175 454q36 0 58.5 21t22.5 57q0 34 -23 55.5t-58 21.5q-36 0 -58.5 -21.5t-22.5 -55.5q0 -35 22.5 -56.5t58.5 -21.5z" />
    <glyph glyph-name="caroncomb.alt" 
d="M-150 536l27 166h83l-46 -166h-64z" />
    <glyph glyph-name="uni0308.case" 
d="M-282 716q-25 0 -40.5 16t-15.5 40t15.5 40t40.5 16q24 0 39.5 -16t15.5 -40t-15.5 -40t-39.5 -16zM-95 716q-25 0 -40.5 16t-15.5 40t15.5 40t40.5 16q24 0 39.5 -16t15.5 -40t-15.5 -40t-39.5 -16z" />
    <glyph glyph-name="uni0307.case" 
d="M-97 716q-25 0 -40.5 15.5t-15.5 40.5t15.5 40.5t40.5 15.5t41 -15.5t16 -40.5t-16 -40.5t-41 -15.5z" />
    <glyph glyph-name="gravecomb.case" 
d="M-40 719h-82l-121 140h96z" />
    <glyph glyph-name="acutecomb.case" 
d="M-243 719l107 140h96l-121 -140h-82z" />
    <glyph glyph-name="uni030B.case" 
d="M-388 719l107 140h92l-121 -140h-78zM-239 719l107 140h92l-121 -140h-78z" />
    <glyph glyph-name="uni0302.case" 
d="M-40 719h-78l-66 88l-66 -88h-78l99 140h91z" />
    <glyph glyph-name="uni030C.case" 
d="M-118 859h78l-98 -140h-91l-99 140h78l66 -88z" />
    <glyph glyph-name="uni0306.case" 
d="M-107 850h67q0 -59 -37 -97t-96 -38q-58 0 -95.5 38t-37.5 97h67q0 -29 18.5 -47.5t47.5 -18.5t47.5 18.5t18.5 47.5z" />
    <glyph glyph-name="uni030A.case" 
d="M-140 703q-41 0 -70.5 29.5t-29.5 70.5q0 42 29 70.5t71 28.5q43 0 71.5 -28.5t28.5 -70.5t-29 -71t-71 -29zM-140 744q25 0 41.5 17t16.5 42t-16.5 41.5t-41.5 16.5t-41.5 -16.5t-16.5 -41.5t16.5 -42t41.5 -17z" />
    <glyph glyph-name="tildecomb.case" 
d="M-370 715q0 63 25.5 101t72.5 38q30 0 54 -17t42 -34t33 -17q38 0 38 68h65q0 -63 -26 -101t-73 -38q-29 0 -53 17t-42 34t-33 17q-18 0 -28.5 -18.5t-10.5 -49.5h-64z" />
    <glyph glyph-name="uni0304.case" 
d="M-323 800h283v-66h-283v66z" />
    <glyph glyph-name="uni0335.case" 
d="M-387 379h347v-74h-347v74z" />
    <glyph glyph-name="uni0336.case" 
d="M-681 580h641v-70h-641v70z" />
    <glyph glyph-name="uni0337.case" 
d="M-374 313l334 194v-78l-334 -193v77z" />
    <glyph glyph-name="uni0338.case" 
d="M-95 678l55 -33l-538 -656l-55 33z" />
    <glyph glyph-name="uni0308.narrow" 
d="M-252 584q-25 0 -40.5 15.5t-15.5 39.5q0 25 15.5 40.5t40.5 15.5q23 0 38.5 -15.5t15.5 -40.5q0 -24 -15.5 -39.5t-38.5 -15.5zM-95 584q-25 0 -40.5 15.5t-15.5 39.5q0 25 15.5 40.5t40.5 15.5q24 0 39.5 -15.5t15.5 -40.5q0 -24 -15.5 -39.5t-39.5 -15.5z" />
    <glyph glyph-name="tildecomb.narrow" 
d="M-327 555q0 62 23 100.5t64 38.5q25 0 45.5 -17t35.5 -34t28 -17q28 0 28 68h63q0 -62 -23 -100.5t-64 -38.5q-25 0 -45.5 17t-35.5 34t-28 17q-28 0 -28 -68h-63z" />
    <glyph glyph-name="uni0304.narrow" 
d="M-286 668h246v-65h-246v65z" />
    <glyph glyph-name="acute.case" horiz-adv-x="283" 
d="M40 719l107 140h96l-121 -140h-82z" />
    <glyph glyph-name="breve.case" horiz-adv-x="346" 
d="M239 850h67q0 -59 -37 -97t-96 -38q-58 0 -95.5 38t-37.5 97h67q0 -29 18.5 -47.5t47.5 -18.5t47.5 18.5t18.5 47.5z" />
    <glyph glyph-name="caron.case" horiz-adv-x="368" 
d="M250 859h78l-98 -140h-91l-99 140h78l66 -88z" />
    <glyph glyph-name="circumflex.case" horiz-adv-x="368" 
d="M328 719h-78l-66 88l-66 -88h-78l99 140h91z" />
    <glyph glyph-name="dieresis.case" horiz-adv-x="378" 
d="M96 716q-25 0 -40.5 16t-15.5 40t15.5 40t40.5 16q24 0 39.5 -16t15.5 -40t-15.5 -40t-39.5 -16zM283 716q-25 0 -40.5 16t-15.5 40t15.5 40t40.5 16q24 0 39.5 -16t15.5 -40t-15.5 -40t-39.5 -16z" />
    <glyph glyph-name="dotaccent.case" horiz-adv-x="193" 
d="M96 716q-25 0 -40.5 15.5t-15.5 40.5t15.5 40.5t40.5 15.5t41 -15.5t16 -40.5t-16 -40.5t-41 -15.5z" />
    <glyph glyph-name="grave.case" horiz-adv-x="283" 
d="M243 719h-82l-121 140h96z" />
    <glyph glyph-name="hungarumlaut.case" horiz-adv-x="428" 
d="M40 719l107 140h92l-121 -140h-78zM189 719l107 140h92l-121 -140h-78z" />
    <glyph glyph-name="macron.case" horiz-adv-x="363" 
d="M40 800h283v-66h-283v66z" />
    <glyph glyph-name="ring.case" horiz-adv-x="280" 
d="M140 703q-41 0 -70.5 29.5t-29.5 70.5q0 42 29 70.5t71 28.5q43 0 71.5 -28.5t28.5 -70.5t-29 -71t-71 -29zM140 744q25 0 41.5 17t16.5 42t-16.5 41.5t-41.5 16.5t-41.5 -16.5t-16.5 -41.5t16.5 -42t41.5 -17z" />
    <glyph glyph-name="tilde.case" horiz-adv-x="410" 
d="M40 715q0 63 25.5 101t72.5 38q30 0 54 -17t42 -34t33 -17q38 0 38 68h65q0 -63 -26 -101t-73 -38q-29 0 -53 17t-42 34t-33 17q-18 0 -28.5 -18.5t-10.5 -49.5h-64z" />
    </font>
</defs>
</svg>
