<?xml version="1.0" standalone="no"?>
<!DOCTYPE svg PUBLIC "-//W3C//DTD SVG 1.1//EN" "http://www.w3.org/Graphics/SVG/1.1/DTD/svg11.dtd" >
<svg xmlns="http://www.w3.org/2000/svg" xmlns:xlink="http://www.w3.org/1999/xlink" version="1.1">
<metadata>
Created by FontForge 20161013 at Wed Apr 12 11:55:56 2017
 By ,,,
Copyright 2017 Allianz SE All rights preserved
</metadata>
<defs>
<font id="AllianzNeo-SemiBold" horiz-adv-x="0" >
  <font-face 
    font-family="Allianz Neo SemiBold"
    font-weight="600"
    font-stretch="normal"
    units-per-em="1000"
    panose-1="2 11 7 4 2 2 3 2 2 4"
    ascent="764"
    descent="-236"
    x-height="478"
    cap-height="667"
    bbox="-699 -291 1006 908"
    underline-thickness="50"
    underline-position="-200"
    unicode-range="U+000D-FEFF"
  />
<missing-glyph horiz-adv-x="480" 
d="M20 0v667h440v-667h-440zM88 68h304v531h-304v-531z" />
    <glyph glyph-name="uniFB00" unicode="ff" horiz-adv-x="661" 
d="M245 614q-64 0 -64 -73v-63h122v-97h-122v-381h-104v381h-64v97h64v72q0 77 39 118.5t113 41.5q51 0 86 -16l-17 -90q-24 10 -53 10zM519 541v-63h122v-97h-122v-381h-104v381h-64v97h64v72q0 77 39 118.5t113 41.5q51 0 86 -16l-17 -90q-24 10 -53 10q-64 0 -64 -73z
" />
    <glyph glyph-name="fi" unicode="fi" horiz-adv-x="562" 
d="M245 614q-64 0 -64 -73v-63h122v-97h-122v-381h-104v381h-64v97h64v72q0 77 39 118.5t113 41.5q51 0 86 -16l-17 -90q-24 10 -53 10zM443 571q-30 0 -48.5 18t-18.5 47t18.5 47t48.5 18q29 0 48 -18.5t19 -46.5t-19 -46.5t-48 -18.5zM391 0v478h104v-478h-104z" />
    <glyph glyph-name="fl" unicode="fl" horiz-adv-x="596" 
d="M245 614q-64 0 -64 -73v-63h122v-97h-122v-381h-104v381h-64v97h64v72q0 77 39 118.5t113 41.5q51 0 86 -16l-17 -90q-24 10 -53 10zM575 97l11 -91q-27 -11 -74 -11q-63 0 -92 31t-29 100v576h104v-557q0 -54 47 -54q20 0 33 6z" />
    <glyph glyph-name="uniFB03" unicode="ffi" horiz-adv-x="900" 
d="M245 614q-64 0 -64 -73v-63h122v-97h-122v-381h-104v381h-64v97h64v72q0 77 39 118.5t113 41.5q51 0 86 -16l-17 -90q-24 10 -53 10zM583 614q-64 0 -64 -73v-63h122v-97h-122v-381h-104v381h-64v97h64v72q0 77 39 118.5t113 41.5q51 0 86 -16l-17 -90q-24 10 -53 10z
M781 571q-30 0 -48.5 18t-18.5 47t18.5 47t48.5 18q29 0 48 -18.5t19 -46.5t-19 -46.5t-48 -18.5zM729 0v478h104v-478h-104z" />
    <glyph glyph-name="uniFB04" unicode="ffl" horiz-adv-x="934" 
d="M245 614q-64 0 -64 -73v-63h122v-97h-122v-381h-104v381h-64v97h64v72q0 77 39 118.5t113 41.5q51 0 86 -16l-17 -90q-24 10 -53 10zM583 614q-64 0 -64 -73v-63h122v-97h-122v-381h-104v381h-64v97h64v72q0 77 39 118.5t113 41.5q51 0 86 -16l-17 -90q-24 10 -53 10z
M913 97l11 -91q-27 -11 -74 -11q-63 0 -92 31t-29 100v576h104v-557q0 -54 47 -54q20 0 33 6z" />
    <glyph glyph-name=".notdef" horiz-adv-x="480" 
d="M20 0v667h440v-667h-440zM88 68h304v531h-304v-531z" />
    <glyph glyph-name=".null" 
 />
    <glyph glyph-name="nonmarkingreturn" horiz-adv-x="333" 
 />
    <glyph glyph-name="NULL" 
 />
    <glyph glyph-name="NULL" 
 />
    <glyph glyph-name="CR" unicode="&#xd;" horiz-adv-x="223" 
 />
    <glyph glyph-name="space" unicode=" " horiz-adv-x="223" 
 />
    <glyph glyph-name="exclam" unicode="!" horiz-adv-x="252" 
d="M82 204l-13 463h114l-12 -463h-89zM126 -11q-31 0 -51 20t-20 51t20 51t51 20t51 -20t20 -51t-20 -51t-51 -20z" />
    <glyph glyph-name="quotedbl" unicode="&#x22;" horiz-adv-x="358" 
d="M50 417l-15 250h119l-15 -250h-89zM219 417l-15 250h119l-15 -250h-89z" />
    <glyph glyph-name="numbersign" unicode="#" horiz-adv-x="645" 
d="M599 405h-102l-25 -142h102l-16 -90h-102l-30 -173h-95l31 173h-134l-31 -173h-95l31 173h-103l16 90h103l25 142h-103l16 90h103l30 172h95l-30 -172h134l30 172h94l-30 -172h102zM378 263l25 142h-134l-25 -142h134z" />
    <glyph glyph-name="dollar" unicode="$" horiz-adv-x="536" 
d="M488 208q0 -69 -43 -115.5t-120 -62.5v-70h-104v64q-98 5 -163 41l25 103q71 -40 161 -40q61 0 96.5 21t35.5 54q0 29 -32.5 48.5t-78.5 33t-92 31.5t-78.5 57t-32.5 98q0 69 42 113.5t117 56.5v65h104v-63q81 -9 136 -39l-25 -104q-72 42 -154 42q-54 0 -81.5 -19
t-27.5 -50q0 -32 32.5 -52t78.5 -33.5t92.5 -30.5t79 -54.5t32.5 -94.5z" />
    <glyph glyph-name="percent" unicode="%" horiz-adv-x="736" 
d="M180 365q-69 0 -109.5 42t-40.5 114t40 114t110 42t110.5 -42t40.5 -114t-40.5 -114t-110.5 -42zM569 667h117l-519 -667h-117zM180 447q29 0 45 19.5t16 54.5t-16 54.5t-45 19.5q-28 0 -44 -19.5t-16 -54.5t16 -54.5t44 -19.5zM556 -9q-70 0 -110.5 42t-40.5 114
t40.5 114t110.5 42t110 -42t40 -114t-40.5 -114t-109.5 -42zM556 73q29 0 44.5 19.5t15.5 54.5t-15.5 54.5t-44.5 19.5t-45 -19.5t-16 -54.5t16 -54.5t45 -19.5z" />
    <glyph glyph-name="ampersand" unicode="&#x26;" horiz-adv-x="648" 
d="M642 51l-89 -59l-80 71q-80 -74 -195 -74q-106 0 -173 58.5t-67 143.5q0 99 115 181q-54 74 -54 144q0 72 50.5 117t126.5 45q71 0 114.5 -39t43.5 -102q0 -57 -35.5 -98.5t-95.5 -79.5l46 -43q18 -16 54.5 -49.5t54.5 -50.5q26 55 38 131l104 -14q-17 -110 -62 -189
q20 -18 55.5 -49.5t48.5 -43.5zM271 580q-30 0 -48.5 -16.5t-18.5 -47.5q0 -40 37 -90q49 30 68.5 52t19.5 49q0 25 -15.5 39t-42.5 14zM275 86q71 0 122 45q-76 68 -130 119l-53 52q-38 -27 -54.5 -51t-16.5 -55q0 -48 35.5 -79t96.5 -31z" />
    <glyph glyph-name="quotesingle" unicode="'" horiz-adv-x="189" 
d="M50 417l-15 250h119l-15 -250h-89z" />
    <glyph glyph-name="parenleft" unicode="(" horiz-adv-x="340" 
d="M327 -129l-83 -57q-204 181 -204 450t204 450l83 -57q-86 -72 -134.5 -173.5t-48.5 -219.5t48.5 -219.5t134.5 -173.5z" />
    <glyph glyph-name="parenright" unicode=")" horiz-adv-x="340" 
d="M14 -129q85 72 133.5 173.5t48.5 219.5t-48.5 219.5t-133.5 173.5l82 57q204 -180 204 -450t-204 -450z" />
    <glyph glyph-name="asterisk" unicode="*" horiz-adv-x="417" 
d="M141 314l-76 55l87 100l-129 29l29 90l122 -53l-13 132h95l-13 -132l122 53l29 -90l-129 -29l87 -100l-76 -55l-68 114z" />
    <glyph glyph-name="plus" unicode="+" horiz-adv-x="540" 
d="M495 306v-92h-179v-179h-92v179h-179v92h179v179h92v-179h179z" />
    <glyph glyph-name="comma" unicode="," horiz-adv-x="234" 
d="M88 -153l-82 19l83 264l105 -25z" />
    <glyph glyph-name="hyphen" unicode="-" horiz-adv-x="310" 
d="M35 312h240v-104h-240v104z" />
    <glyph glyph-name="period" unicode="." horiz-adv-x="231" 
d="M116 -10q-32 0 -52.5 20.5t-20.5 52.5t20.5 52.5t52.5 20.5q31 0 51.5 -20.5t20.5 -52.5t-20.5 -52.5t-51.5 -20.5z" />
    <glyph glyph-name="slash" unicode="/" horiz-adv-x="421" 
d="M105 -175h-105l306 842h105z" />
    <glyph glyph-name="zero" unicode="0" horiz-adv-x="536" 
d="M268 -12q-109 0 -173 93t-64 252t64 252.5t173 93.5t173 -93.5t64 -252.5t-64 -252t-173 -93zM268 93q59 0 92 64t33 176t-33 176t-92 64t-92 -64t-33 -176t33 -176t92 -64z" />
    <glyph glyph-name="one" unicode="1" horiz-adv-x="536" 
d="M353 104h131v-104h-387v104h145v423l-144 -59l-22 103l267 108h10v-575z" />
    <glyph glyph-name="two" unicode="2" horiz-adv-x="536" 
d="M165 104h317v-104h-456q6 69 33 124.5t63 89t76.5 65t74 55t56 57t22.5 71.5q0 51 -33.5 81t-93.5 30q-86 0 -148 -62l-33 100q77 67 188 67q104 0 167.5 -58.5t63.5 -155.5q0 -55 -25 -100t-63.5 -76.5t-79 -58.5t-77.5 -59.5t-52 -65.5z" />
    <glyph glyph-name="three" unicode="3" horiz-adv-x="536" 
d="M345 343q113 -42 113 -157q0 -91 -67.5 -144.5t-180.5 -53.5q-108 0 -182 44l23 104q61 -43 154 -43q67 0 104 25.5t37 72.5t-38.5 73t-109.5 26h-47v101h47q61 0 93 24t32 68q0 42 -29.5 66t-81.5 24q-79 0 -143 -48l-22 99q76 54 175 54q95 0 153.5 -51.5t58.5 -135.5
q0 -103 -89 -148z" />
    <glyph glyph-name="four" unicode="4" horiz-adv-x="536" 
d="M431 249h88v-100h-88v-149h-107v149h-307v100l246 418h168v-418zM131 249h193v327z" />
    <glyph glyph-name="five" unicode="5" horiz-adv-x="536" 
d="M240 -11q-119 0 -202 64l41 102q67 -61 156 -61q65 0 102.5 32.5t37.5 88.5q0 55 -35.5 85t-102.5 30q-60 0 -110 -28l-71 22l46 343h336v-105h-239l-21 -149q36 12 79 12q103 0 166 -58.5t63 -153.5q0 -100 -68 -162t-178 -62z" />
    <glyph glyph-name="six" unicode="6" horiz-adv-x="536" 
d="M273 445q103 0 167.5 -62.5t64.5 -163.5q0 -103 -65.5 -167t-170.5 -64q-106 0 -171.5 64t-65.5 167q0 91 54 187t182 261h130q-106 -131 -180 -230q24 8 55 8zM269 93q56 0 90.5 35t34.5 91t-34.5 91t-90.5 35t-91 -35t-35 -91t35 -91t91 -35z" />
    <glyph glyph-name="seven" unicode="7" horiz-adv-x="536" 
d="M511 667l-313 -667h-117l264 562h-315v105h481z" />
    <glyph glyph-name="eight" unicode="8" horiz-adv-x="536" 
d="M393 351q105 -45 105 -161q0 -92 -62 -147t-168 -55t-168 55t-62 147q0 116 105 161q-79 44 -79 144q0 84 54.5 133.5t149.5 49.5t149.5 -49.5t54.5 -133.5q0 -100 -79 -144zM268 573q-46 0 -71 -22.5t-25 -63.5q0 -42 25.5 -65.5t70.5 -23.5t70.5 23.5t25.5 65.5
q0 41 -25 63.5t-71 22.5zM268 93q56 0 87.5 27t31.5 76q0 48 -32 75t-87 27t-87 -27t-32 -75q0 -49 31.5 -76t87.5 -27z" />
    <glyph glyph-name="nine" unicode="9" horiz-adv-x="536" 
d="M267 679q106 0 171.5 -64t65.5 -167q0 -91 -54 -187t-182 -261h-130q106 131 180 230q-24 -8 -55 -8q-103 0 -167.5 62.5t-64.5 163.5q0 103 65.5 167t170.5 64zM267 322q56 0 91 35t35 91t-35 91t-91 35t-90.5 -35t-34.5 -91t34.5 -91t90.5 -35z" />
    <glyph glyph-name="colon" unicode=":" horiz-adv-x="231" 
d="M116 343q-32 0 -52.5 20.5t-20.5 52.5t20.5 52.5t52.5 20.5q31 0 51.5 -20.5t20.5 -52.5t-20.5 -52.5t-51.5 -20.5zM116 -10q-32 0 -52.5 20.5t-20.5 52.5t20.5 52.5t52.5 20.5q31 0 51.5 -20.5t20.5 -52.5t-20.5 -52.5t-51.5 -20.5z" />
    <glyph glyph-name="uni003B" unicode=";" horiz-adv-x="251" 
d="M136 348q-32 0 -52.5 20.5t-20.5 52.5t20.5 52.5t52.5 20.5q31 0 51.5 -20.5t20.5 -52.5t-20.5 -52.5t-51.5 -20.5zM88 -138l-82 19l83 264l105 -25z" />
    <glyph glyph-name="less" unicode="&#x3c;" horiz-adv-x="540" 
d="M495 502v-101l-371 -141l371 -141v-100l-450 171v140z" />
    <glyph glyph-name="equal" unicode="=" horiz-adv-x="540" 
d="M45 415h450v-92h-450v92zM45 197h450v-91h-450v91z" />
    <glyph glyph-name="greater" unicode="&#x3e;" horiz-adv-x="540" 
d="M45 502l450 -172v-140l-450 -171v100l371 141l-371 141v101z" />
    <glyph glyph-name="question" unicode="?" horiz-adv-x="467" 
d="M124 204v10q0 44 19.5 78t47.5 55t55.5 40t47 43t19.5 53q0 40 -33 65t-89 25q-83 0 -141 -50l-32 96q73 59 183 59q100 0 161.5 -51.5t61.5 -138.5q0 -47 -20 -83t-48 -57t-56.5 -39.5t-48.5 -42t-20 -52.5v-10h-107zM177 -11q-30 0 -50.5 20t-20.5 51t20.5 51t50.5 20
q31 0 51 -20t20 -51t-20 -51t-51 -20z" />
    <glyph glyph-name="at" unicode="@" horiz-adv-x="901" 
d="M546 450h87v-251q0 -30 9 -43t32 -13q41 0 68 41.5t27 113.5q0 129 -87.5 211t-226.5 82q-144 0 -234 -91t-90 -237q0 -149 90 -243t234 -94q128 0 216 53l40 -88q-48 -29 -118 -45.5t-138 -16.5q-184 0 -302.5 122.5t-118.5 311.5q0 185 118.5 305.5t302.5 120.5
q179 0 295.5 -110t116.5 -281q0 -115 -53.5 -183.5t-139.5 -68.5q-103 0 -124 87q-46 -75 -129 -75q-75 0 -123 56t-48 145q0 88 48 143.5t123 55.5q80 0 125 -66v58zM444 146q43 0 69.5 28.5t26.5 84.5t-26.5 84t-69.5 28q-44 0 -72 -31t-28 -81t28 -81.5t72 -31.5z" />
    <glyph glyph-name="A" unicode="A" horiz-adv-x="652" 
d="M535 0l-66 171h-286l-66 -171h-117l263 667h126l263 -667h-117zM223 276h206l-103 266z" />
    <glyph glyph-name="B" unicode="B" horiz-adv-x="638" 
d="M492 347q52 -23 80.5 -65t28.5 -96q0 -84 -61.5 -135t-166.5 -51h-293v667h270q102 0 161.5 -49.5t59.5 -130.5q0 -90 -79 -140zM350 563h-158v-174h158q51 0 80 23.5t29 63.5q0 39 -29 63t-80 24zM373 104q55 0 85.5 25.5t30.5 67.5q0 43 -30.5 68.5t-85.5 25.5h-181
v-187h181z" />
    <glyph glyph-name="C" unicode="C" horiz-adv-x="627" 
d="M378 -12q-150 0 -244 94.5t-94 250.5t94 251t244 95q132 0 216 -64l-31 -102q-78 61 -182 61q-105 0 -167 -65.5t-62 -175.5t62 -175t167 -65q102 0 182 61l31 -103q-85 -63 -216 -63z" />
    <glyph glyph-name="D" unicode="D" horiz-adv-x="675" 
d="M80 0v667h208q166 0 256.5 -91t90.5 -243t-90.5 -242.5t-256.5 -90.5h-208zM192 105h96q117 0 176.5 61t59.5 167t-59.5 167.5t-176.5 61.5h-96v-457z" />
    <glyph glyph-name="E" unicode="E" horiz-adv-x="560" 
d="M522 562h-330v-167h260v-106h-260v-184h330v-105h-442v667h442v-105z" />
    <glyph glyph-name="F" unicode="F" horiz-adv-x="547" 
d="M521 562h-329v-193h268v-105h-268v-264h-112v667h441v-105z" />
    <glyph glyph-name="G" unicode="G" horiz-adv-x="672" 
d="M364 369h250v-302q-85 -79 -236 -79q-150 0 -244 94.5t-94 250.5t94 251t244 95q132 0 216 -64l-31 -101q-78 61 -182 61q-105 0 -167 -66t-62 -176t62 -175.5t167 -65.5q68 0 122 28v144h-139v105z" />
    <glyph glyph-name="H" unicode="H" horiz-adv-x="698" 
d="M506 667h111v-667h-111v289h-314v-289h-112v667h112v-272h314v272z" />
    <glyph glyph-name="I" unicode="I" horiz-adv-x="272" 
d="M80 667h112v-667h-112v667z" />
    <glyph glyph-name="J" unicode="J" horiz-adv-x="369" 
d="M100 -9q-49 0 -94 12l18 102q32 -9 61 -9q98 0 98 99v472h111v-486q0 -92 -51 -141t-143 -49z" />
    <glyph glyph-name="K" unicode="K" horiz-adv-x="663" 
d="M510 0l-242 288l-76 -78v-210h-112v667h112v-309l298 309h147l-295 -303l311 -364h-143z" />
    <glyph glyph-name="L" unicode="L" horiz-adv-x="490" 
d="M80 0v667h112v-562h285v-105h-397z" />
    <glyph glyph-name="M" unicode="M" horiz-adv-x="901" 
d="M821 667v-667h-111v520l-239 -405h-41l-238 404v-519h-112v667h148l223 -377l222 377h148z" />
    <glyph glyph-name="N" unicode="N" horiz-adv-x="753" 
d="M561 667h111v-667h-149l-331 527v-527h-112v667h149l332 -527v527z" />
    <glyph glyph-name="O" unicode="O" horiz-adv-x="758" 
d="M379 -12q-151 0 -245 95.5t-94 249.5t94 250t245 96t245 -96t94 -250t-94 -249.5t-245 -95.5zM379 93q101 0 164.5 66.5t63.5 173.5q0 108 -63.5 174.5t-164.5 66.5t-164 -66.5t-63 -174.5q0 -107 63 -173.5t164 -66.5z" />
    <glyph glyph-name="P" unicode="P" horiz-adv-x="613" 
d="M346 667q108 0 171.5 -58t63.5 -153q0 -94 -63.5 -152.5t-171.5 -58.5h-154v-245h-112v667h266zM346 350q58 0 90.5 29t32.5 77t-32.5 77t-90.5 29h-154v-212h154z" />
    <glyph glyph-name="Q" unicode="Q" horiz-adv-x="758" 
d="M734 15l-83 -61l-91 80q-78 -46 -181 -46q-151 0 -245 95.5t-94 249.5t94 250t245 96t245 -96t94 -250q0 -141 -80 -235zM379 93q51 0 93 18l-114 99l87 55l109 -94q53 64 53 162q0 108 -63.5 174.5t-164.5 66.5t-164 -66.5t-63 -174.5q0 -107 63 -173.5t164 -66.5z" />
    <glyph glyph-name="R" unicode="R" horiz-adv-x="636" 
d="M468 0l-173 250h-103v-250h-112v667h266q108 0 171.5 -57.5t63.5 -151.5q0 -75 -42 -128t-117 -71l182 -259h-136zM192 562v-212h154q58 0 90.5 29t32.5 77t-32.5 77t-90.5 29h-154z" />
    <glyph glyph-name="S" unicode="S" horiz-adv-x="563" 
d="M53 33l24 105q80 -46 179 -46q71 0 112.5 25.5t41.5 66.5q0 35 -36.5 58t-88 38.5t-103.5 35.5t-88.5 63t-36.5 108q0 90 62.5 141t172.5 51q119 0 200 -46l-25 -106q-79 47 -171 47q-63 0 -95.5 -22.5t-32.5 -60.5t36.5 -62.5t88.5 -40t104 -35t88.5 -60.5t36.5 -104
q0 -93 -71 -147t-192 -54q-122 0 -206 45z" />
    <glyph glyph-name="T" unicode="T" horiz-adv-x="546" 
d="M523 667v-105h-195v-562h-111v562h-195v105h501z" />
    <glyph glyph-name="U" unicode="U" horiz-adv-x="663" 
d="M332 -12q-128 0 -197.5 74t-69.5 207v398h112v-387q0 -95 38 -141t117 -46t116.5 46t37.5 141v387h112v-398q0 -134 -69 -207.5t-197 -73.5z" />
    <glyph glyph-name="V" unicode="V" horiz-adv-x="679" 
d="M552 667h121l-275 -667h-117l-275 667h121l213 -543z" />
    <glyph glyph-name="W" unicode="W" horiz-adv-x="992" 
d="M867 667h112l-202 -667h-135l-145 495l-147 -495h-135l-203 667h115l156 -532l157 532h113l157 -534z" />
    <glyph glyph-name="X" unicode="X" horiz-adv-x="676" 
d="M667 0h-139l-189 267l-190 -267h-139l256 346l-237 321h139l171 -241l170 241h139l-237 -321z" />
    <glyph glyph-name="Y" unicode="Y" horiz-adv-x="625" 
d="M258 0v284l-265 383h138l182 -273l182 273h138l-264 -383v-284h-111z" />
    <glyph glyph-name="Z" unicode="Z" horiz-adv-x="607" 
d="M194 106h374v-106h-529v89l361 473h-347v106h501v-88z" />
    <glyph glyph-name="bracketleft" unicode="[" horiz-adv-x="350" 
d="M329 -78v-97h-261v877h261v-97h-157v-683h157z" />
    <glyph glyph-name="backslash" unicode="\" horiz-adv-x="421" 
d="M316 -175l-306 842h105l306 -842h-105z" />
    <glyph glyph-name="bracketright" unicode="]" horiz-adv-x="350" 
d="M21 -78h157v683h-157v97h261v-877h-261v97z" />
    <glyph glyph-name="asciicircum" unicode="^" horiz-adv-x="407" 
d="M13 415l137 252h107l138 -252h-99l-92 169l-92 -169h-99z" />
    <glyph glyph-name="underscore" unicode="_" horiz-adv-x="500" 
d="M0 -55h500v-75h-500v75z" />
    <glyph glyph-name="grave" unicode="`" horiz-adv-x="304" 
d="M264 555h-102l-122 148h120z" />
    <glyph glyph-name="a" unicode="a" horiz-adv-x="577" 
d="M252 -10q-96 0 -157 69t-61 180q0 110 61 179.5t157 69.5q101 0 160 -82v72h98v-478h-98v72q-59 -82 -160 -82zM275 88q60 0 95.5 40.5t35.5 110.5t-35.5 110.5t-95.5 40.5q-61 0 -99 -42t-38 -109q0 -68 38 -109.5t99 -41.5z" />
    <glyph glyph-name="b" unicode="b" horiz-adv-x="577" 
d="M326 488q96 0 156.5 -69.5t60.5 -179.5q0 -111 -60.5 -180t-156.5 -69q-101 0 -161 82v-72h-97v702h104v-287q60 73 154 73zM303 88q61 0 98.5 42t37.5 109t-37.5 109t-98.5 42q-60 0 -95.5 -40.5t-35.5 -110.5t35.5 -110.5t95.5 -40.5z" />
    <glyph glyph-name="c" unicode="c" horiz-adv-x="448" 
d="M274 -11q-106 0 -173 68.5t-67 181.5q0 112 66.5 180.5t173.5 68.5q88 0 151 -46l-27 -95q-52 43 -120 43q-64 0 -102 -40.5t-38 -110.5t38 -110.5t102 -40.5q66 0 120 41l27 -93q-62 -47 -151 -47z" />
    <glyph glyph-name="d" unicode="d" horiz-adv-x="577" 
d="M406 702h104v-702h-98v72q-59 -82 -160 -82q-96 0 -157 69t-61 180q0 110 61 179.5t157 69.5q95 0 154 -74v288zM275 88q60 0 95.5 40.5t35.5 110.5t-35.5 110.5t-95.5 40.5q-61 0 -99 -42t-38 -109q0 -68 38 -109.5t99 -41.5z" />
    <glyph glyph-name="e" unicode="e" horiz-adv-x="524" 
d="M487 248q0 -31 -2 -44h-346q10 -58 50 -88.5t103 -30.5q82 0 150 44l29 -88q-74 -52 -183 -52q-114 0 -184 67t-70 183q0 110 63 179.5t164 69.5q100 0 163 -66.5t63 -173.5zM263 397q-49 0 -81.5 -29.5t-41.5 -81.5h244q-6 51 -38 81t-83 30z" />
    <glyph glyph-name="f" unicode="f" horiz-adv-x="323" 
d="M181 541v-63h122v-97h-122v-381h-104v381h-64v97h64v72q0 77 39 118.5t113 41.5q51 0 86 -16l-17 -90q-24 10 -53 10q-64 0 -64 -73z" />
    <glyph glyph-name="g" unicode="g" horiz-adv-x="577" 
d="M412 478h98v-425q0 -113 -67.5 -175t-190.5 -62q-104 0 -191 46l28 92q71 -42 156 -42q161 0 161 149v23q-59 -74 -154 -74q-96 0 -157 66.5t-61 172.5t61 172.5t157 66.5q101 0 160 -82v72zM275 107q60 0 95.5 38t35.5 104t-35.5 104.5t-95.5 38.5q-61 0 -99 -39.5
t-38 -103.5q0 -63 38 -102.5t99 -39.5z" />
    <glyph glyph-name="h" unicode="h" horiz-adv-x="556" 
d="M317 488q84 0 132.5 -55.5t48.5 -153.5v-279h-104v259q0 131 -108 131q-53 0 -83.5 -33.5t-30.5 -94.5v-262h-104v702h104v-286q48 72 145 72z" />
    <glyph glyph-name="i" unicode="i" horiz-adv-x="239" 
d="M120 571q-30 0 -48.5 18t-18.5 47t18.5 47t48.5 18q29 0 48 -18.5t19 -46.5t-19 -46.5t-48 -18.5zM68 478h104v-478h-104v478z" />
    <glyph glyph-name="j" unicode="j" horiz-adv-x="239" 
d="M120 571q-30 0 -48.5 18t-18.5 47t18.5 47t48.5 18q29 0 48 -18.5t19 -46.5t-19 -46.5t-48 -18.5zM-44 -173l9 93q11 -3 26 -3q38 0 57.5 23t19.5 76v462h104v-472q0 -89 -42.5 -137t-122.5 -48q-30 0 -51 6z" />
    <glyph glyph-name="k" unicode="k" horiz-adv-x="520" 
d="M383 0l-159 191l-52 -53v-138h-104v702h104v-433l200 209h132l-210 -215l222 -263h-133z" />
    <glyph glyph-name="l" unicode="l" horiz-adv-x="273" 
d="M68 702h104v-557q0 -54 47 -54q19 0 33 6l11 -91q-27 -11 -74 -11q-63 0 -92 31t-29 100v576z" />
    <glyph glyph-name="m" unicode="m" horiz-adv-x="826" 
d="M596 488q79 0 125.5 -53.5t46.5 -147.5v-287h-104v267q0 123 -94 123q-47 0 -73.5 -30.5t-26.5 -84.5v-275h-104v267q0 123 -96 123q-46 0 -72 -30.5t-26 -84.5v-275h-104v478h97v-65q42 75 139 75q98 0 141 -83q44 83 151 83z" />
    <glyph glyph-name="n" unicode="n" horiz-adv-x="556" 
d="M317 488q84 0 132.5 -55.5t48.5 -153.5v-279h-104v259q0 131 -108 131q-53 0 -83.5 -33.5t-30.5 -94.5v-262h-104v478h97v-74q46 84 152 84z" />
    <glyph glyph-name="o" unicode="o" horiz-adv-x="552" 
d="M276 -11q-107 0 -174.5 69.5t-67.5 180.5q0 110 67.5 179.5t174.5 69.5t174 -69.5t67 -179.5q0 -111 -67 -180.5t-174 -69.5zM276 88q61 0 99 42t38 109t-38 109t-99 42t-99.5 -42t-38.5 -109t38 -109t100 -42z" />
    <glyph glyph-name="p" unicode="p" horiz-adv-x="577" 
d="M326 488q96 0 156.5 -69.5t60.5 -179.5q0 -111 -60.5 -180t-156.5 -69q-94 0 -154 73v-238h-104v653h97v-72q60 82 161 82zM303 88q61 0 98.5 42t37.5 109t-37.5 109t-98.5 42q-60 0 -95.5 -40.5t-35.5 -110.5t35.5 -110.5t95.5 -40.5z" />
    <glyph glyph-name="q" unicode="q" horiz-adv-x="577" 
d="M412 478h98v-653h-104v239q-59 -74 -154 -74q-96 0 -157 69t-61 180q0 110 61 179.5t157 69.5q101 0 160 -82v72zM275 88q60 0 95.5 40.5t35.5 110.5t-35.5 110.5t-95.5 40.5q-61 0 -99 -42t-38 -109q0 -68 38 -109.5t99 -41.5z" />
    <glyph glyph-name="r" unicode="r" horiz-adv-x="360" 
d="M290 485q32 0 60 -12l-15 -102q-24 9 -50 9q-53 0 -83 -35t-30 -105v-240h-104v478h97v-83q37 90 125 90z" />
    <glyph glyph-name="s" unicode="s" horiz-adv-x="418" 
d="M26 24l25 95q61 -35 135 -35q45 0 70.5 14.5t25.5 38.5q0 22 -25.5 35t-62 22.5t-72.5 23t-61.5 46t-25.5 81.5q0 69 47 106t132 37q87 0 153 -33l-26 -93q-56 32 -125 32q-77 0 -77 -47q0 -24 25.5 -38.5t61.5 -23.5t72.5 -22t62 -43.5t25.5 -78.5q0 -72 -53.5 -112
t-146.5 -40t-160 35z" />
    <glyph glyph-name="t" unicode="t" horiz-adv-x="334" 
d="M300 101l15 -91q-41 -16 -91 -16q-71 0 -109 39.5t-38 111.5v236h-64v97h64v115l104 20v-135h128v-97h-128v-221q0 -69 64 -69q27 0 55 10z" />
    <glyph glyph-name="u" unicode="u" horiz-adv-x="556" 
d="M384 478h104v-478h-98v73q-47 -83 -152 -83q-84 0 -132 55.5t-48 153.5v279h104v-259q0 -131 108 -131q53 0 83.5 34t30.5 94v262z" />
    <glyph glyph-name="v" unicode="v" horiz-adv-x="504" 
d="M387 478h111l-192 -478h-107l-192 478h111l134 -360z" />
    <glyph glyph-name="w" unicode="w" horiz-adv-x="769" 
d="M653 478h105l-141 -478h-120l-112 342l-113 -342h-120l-140 478h105l98 -352l116 352h109l115 -353z" />
    <glyph glyph-name="x" unicode="x" horiz-adv-x="526" 
d="M522 0h-133l-125 180l-126 -180h-133l189 248l-175 230h133l112 -162l111 162h133l-174 -230z" />
    <glyph glyph-name="y" unicode="y" horiz-adv-x="502" 
d="M384 478h111l-197 -500q-35 -88 -79 -124t-112 -36q-39 0 -73 9l15 99q31 -7 57 -7q33 0 53 17t40 68l-192 474h111l134 -349z" />
    <glyph glyph-name="z" unicode="z" horiz-adv-x="465" 
d="M178 96h250v-96h-391v81l240 300h-230v97h371v-81z" />
    <glyph glyph-name="braceleft" unicode="{" horiz-adv-x="403" 
d="M225 387q0 -48 -25 -80t-61 -43q36 -12 61 -44t25 -80v-98q0 -58 34 -89t91 -31h32v-97h-34q-103 0 -165 50t-62 142v103q0 48 -26.5 76t-64.5 28v80q38 0 64.5 27.5t26.5 76.5v102q0 92 62 142t165 50h34v-97h-32q-57 0 -91 -31t-34 -89v-98z" />
    <glyph glyph-name="bar" unicode="|" horiz-adv-x="308" 
d="M100 702h108v-877h-108v877z" />
    <glyph glyph-name="braceright" unicode="}" horiz-adv-x="403" 
d="M282 408q0 -49 26.5 -76.5t64.5 -27.5v-80q-38 0 -64.5 -28t-26.5 -76v-103q0 -92 -62 -142t-165 -50h-34v97h32q57 0 91 31t34 89v98q0 48 25 80t61 44q-36 11 -61 43t-25 80v98q0 58 -34 89t-91 31h-32v97h34q103 0 165 -50t62 -142v-102z" />
    <glyph glyph-name="asciitilde" unicode="~" horiz-adv-x="567" 
d="M40 151q0 96 39 154.5t111 58.5q36 0 66 -16.5t46.5 -36.5t36.5 -36.5t38 -16.5q26 0 40 29t14 77h96q0 -96 -39 -154.5t-111 -58.5q-36 0 -66 16.5t-46.5 36.5t-36.5 36.5t-38 16.5q-26 0 -40 -29t-14 -77h-96z" />
    <glyph glyph-name="uni00A0" unicode="&#xa0;" horiz-adv-x="223" 
 />
    <glyph glyph-name="exclamdown" unicode="&#xa1;" horiz-adv-x="242" 
d="M121 489q31 0 51 -20t20 -51t-20 -51t-51 -20t-51 20t-20 51t20 51t51 20zM166 258l12 -433h-114l12 433h90z" />
    <glyph glyph-name="cent" unicode="&#xa2;" horiz-adv-x="536" 
d="M428 229l27 -93q-44 -33 -100 -42v-94h-102v94q-86 16 -137.5 81.5t-51.5 163.5t51.5 163.5t137.5 80.5v84h102v-84q58 -9 100 -41l-27 -95q-52 43 -120 43q-64 0 -102 -40.5t-38 -110.5t38 -110.5t102 -40.5q66 0 120 41z" />
    <glyph glyph-name="sterling" unicode="&#xa3;" horiz-adv-x="536" 
d="M419 189l99 -29q-21 -83 -73.5 -121.5t-152.5 -38.5h-259v105h78q29 47 29 99q0 33 -15 87h-92v95h64q-12 48 -12 88q0 92 58.5 146.5t155.5 54.5q103 0 177 -57l-31 -97q-57 49 -133 49q-55 0 -85.5 -29t-30.5 -82q0 -31 10 -73h162v-95h-136q12 -50 12 -87
q0 -52 -28 -99h69q62 0 92.5 19.5t41.5 64.5z" />
    <glyph glyph-name="currency" unicode="&#xa4;" horiz-adv-x="536" 
d="M480 334q0 -61 -31 -111l75 -75l-70 -70l-75 75q-50 -31 -111 -31t-111 31l-75 -75l-70 70l75 75q-31 50 -31 111t31 111l-75 75l70 70l75 -75q50 31 111 31q59 0 111 -31l75 75l70 -70l-75 -75q31 -52 31 -111zM153 334q0 -47 34 -81t81 -34t81 34t34 81t-34 81t-81 34
t-81 -34t-34 -81z" />
    <glyph glyph-name="yen" unicode="&#xa5;" horiz-adv-x="536" 
d="M536 667l-191 -304h141v-84h-162v-56h162v-85h-162v-138h-110v138h-162v85h162v56h-162v84h140l-192 304h127l142 -237l141 237h126z" />
    <glyph glyph-name="brokenbar" unicode="&#xa6;" horiz-adv-x="308" 
d="M100 702h108v-329h-108v329zM100 154h108v-329h-108v329z" />
    <glyph glyph-name="section" unicode="&#xa7;" horiz-adv-x="513" 
d="M372 130q77 -43 77 -132q0 -86 -64.5 -134.5t-176.5 -48.5q-105 0 -178 35l25 96q70 -35 153 -35q64 0 100.5 22t36.5 60q0 33 -33 52.5t-79.5 32t-93 29.5t-79.5 56.5t-33 100.5q0 102 107 138q-76 45 -76 137q0 82 56.5 127t157.5 45q97 0 170 -34l-24 -95
q-66 33 -144 33q-55 0 -83.5 -19.5t-28.5 -54.5q0 -36 33 -57t80 -33.5t94 -28.5t80 -53.5t33 -96.5q0 -103 -110 -142zM242 341q-111 0 -111 -75q0 -40 35 -60.5t89 -20.5q56 0 89.5 22.5t33.5 59.5q0 34 -35.5 54t-100.5 20z" />
    <glyph glyph-name="dieresis" unicode="&#xa8;" horiz-adv-x="399" 
d="M104 573q-28 0 -46 17.5t-18 45.5t18 45.5t46 17.5q27 0 44.5 -17.5t17.5 -45.5t-17.5 -45.5t-44.5 -17.5zM296 573q-28 0 -45.5 17.5t-17.5 45.5t17.5 45.5t45.5 17.5t45.5 -17.5t17.5 -45.5t-17.5 -45.5t-45.5 -17.5z" />
    <glyph glyph-name="copyright" unicode="&#xa9;" horiz-adv-x="771" 
d="M386 -12q-143 0 -244.5 101.5t-101.5 244.5t101.5 244t244.5 101q142 0 243.5 -101.5t101.5 -243.5q0 -143 -101 -244.5t-244 -101.5zM386 57q114 0 195 81t81 196q0 114 -81 195t-195 81q-115 0 -196 -81t-81 -195q0 -115 81 -196t196 -81zM397 134q-87 0 -141 55
t-54 144t54 144.5t141 55.5q79 0 129 -41l-23 -76q-44 41 -105 41q-53 0 -85 -33.5t-32 -90.5q0 -56 32 -89.5t85 -33.5q63 0 106 41l22 -76q-54 -41 -129 -41z" />
    <glyph glyph-name="ordfeminine" unicode="&#xaa;" horiz-adv-x="351" 
d="M158 676q73 0 113 -37t40 -104v-202h-78v33q-32 -41 -96 -41q-55 0 -87 28.5t-32 76.5q0 50 34.5 79t92.5 29q46 0 83 -17v8q0 71 -84 71q-44 0 -89 -24l-15 71q50 29 118 29zM160 388q68 0 68 58v18q-23 11 -59 11q-68 0 -68 -45q0 -42 59 -42z" />
    <glyph glyph-name="guillemotleft" unicode="&#xab;" horiz-adv-x="549" 
d="M302 438l-158 -179l158 -179h-130l-158 179l158 179h130zM515 438l-158 -179l158 -179h-130l-158 179l158 179h130z" />
    <glyph glyph-name="logicalnot" unicode="&#xac;" horiz-adv-x="540" 
d="M45 420h450v-366h-92v274h-358v92z" />
    <glyph glyph-name="uni00AD" unicode="&#xad;" horiz-adv-x="310" 
d="M35 312h240v-104h-240v104z" />
    <glyph glyph-name="registered" unicode="&#xae;" horiz-adv-x="375" 
d="M187 679q68 0 116.5 -48.5t48.5 -116.5t-48.5 -116.5t-116.5 -48.5t-116 48.5t-48 116.5t48 116.5t116 48.5zM187 388q53 0 90 37t37 89t-37 89.5t-90 37.5q-52 0 -89 -37t-37 -90q0 -52 36.5 -89t89.5 -37zM257 545q0 -38 -36 -53l48 -67h-49l-43 62h-17v-62h-40v178h73
q29 0 46.5 -16t17.5 -42zM160 565v-41h33q25 0 25 21q0 20 -25 20h-33z" />
    <glyph glyph-name="macron" unicode="&#xaf;" horiz-adv-x="370" 
d="M40 674h290v-80h-290v80z" />
    <glyph glyph-name="degree" unicode="&#xb0;" horiz-adv-x="317" 
d="M158 424q-53 0 -89 36t-36 90q0 53 36 89t89 36t89.5 -36t36.5 -89q0 -54 -36.5 -90t-89.5 -36zM158 487q27 0 45 18.5t18 44.5t-18 44t-45 18q-26 0 -44 -18t-18 -44t18 -44.5t44 -18.5z" />
    <glyph glyph-name="plusminus" unicode="&#xb1;" horiz-adv-x="540" 
d="M316 372h179v-92h-179v-152h-92v152h-179v92h179v161h92v-161zM45 -12v92h450v-92h-450z" />
    <glyph glyph-name="uni00B2" unicode="&#xb2;" horiz-adv-x="351" 
d="M122 481h191v-78h-295q4 53 26 93t49.5 62.5t54.5 41t45.5 40t18.5 47.5q0 27 -19.5 42.5t-53.5 15.5q-55 0 -91 -36l-24 75q47 39 120 39q69 0 110.5 -36.5t41.5 -98.5q0 -33 -14 -59.5t-36.5 -45t-45.5 -34t-45.5 -33.5t-32.5 -35z" />
    <glyph glyph-name="uni00B3" unicode="&#xb3;" horiz-adv-x="354" 
d="M228 616q70 -27 70 -98q0 -56 -44.5 -89t-117.5 -33q-70 0 -116 27l16 79q37 -28 97 -28q81 0 81 50q0 53 -85 53h-30v74h30q70 0 70 48q0 46 -62 46q-49 0 -89 -29l-16 75q50 32 112 32t100.5 -32t38.5 -84q0 -63 -55 -91z" />
    <glyph glyph-name="acute" unicode="&#xb4;" horiz-adv-x="304" 
d="M40 555l104 148h120l-122 -148h-102z" />
    <glyph glyph-name="uni00B5" unicode="&#xb5;" horiz-adv-x="565" 
d="M537 92q9 0 23 2v-93q-36 -6 -60 -6q-89 0 -103 71q-44 -76 -139 -76q-49 0 -86 23v-188h-104v653h104v-259q0 -131 108 -131q53 0 83.5 34t30.5 94v262h104v-341q0 -25 9.5 -35t29.5 -10z" />
    <glyph glyph-name="paragraph" unicode="&#xb6;" horiz-adv-x="669" 
d="M569 667v-842h-104v744h-105v-744h-104v466h-24q-93 0 -146.5 52t-53.5 136t53.5 136t146.5 52h337z" />
    <glyph glyph-name="periodcentered" unicode="&#xb7;" horiz-adv-x="231" 
d="M116 188q-32 0 -52.5 20.5t-20.5 52.5t20.5 52.5t52.5 20.5q31 0 51.5 -20.5t20.5 -52.5t-20.5 -52.5t-51.5 -20.5z" />
    <glyph glyph-name="cedilla" unicode="&#xb8;" horiz-adv-x="251" 
d="M128 -38q38 -1 60.5 -20t22.5 -51q0 -36 -27 -56t-73 -20q-43 0 -71 15l14 56q19 -12 47 -12q36 0 36 21t-31 21q-13 0 -24 -4l-19 7l19 81h55z" />
    <glyph glyph-name="uni00B9" unicode="&#xb9;" horiz-adv-x="358" 
d="M240 481h81v-78h-253v78h89v231l-87 -33l-17 77l180 68h7v-343z" />
    <glyph glyph-name="ordmasculine" unicode="&#xba;" horiz-adv-x="388" 
d="M194 325q-76 0 -123 49t-47 127q0 77 47 126t123 49t123 -49t47 -126q0 -78 -47 -127t-123 -49zM194 404q38 0 62.5 27t24.5 70t-24.5 70t-62.5 27t-62.5 -27t-24.5 -70t24.5 -70t62.5 -27z" />
    <glyph glyph-name="guillemotright" unicode="&#xbb;" horiz-adv-x="549" 
d="M34 438h130l158 -179l-158 -179h-130l158 179zM247 438h130l158 -179l-158 -179h-130l158 179z" />
    <glyph glyph-name="onequarter" unicode="&#xbc;" horiz-adv-x="910" 
d="M321 253h-253v78h89v231l-87 -33l-17 77l180 68h7v-343h81v-78zM684 667h100l-506 -667h-100zM848 160h51v-75h-51v-85h-81v85h-191v75l147 254h125v-254zM661 160h106v183z" />
    <glyph glyph-name="onehalf" unicode="&#xbd;" horiz-adv-x="945" 
d="M321 253h-253v78h89v231l-87 -33l-17 77l180 68h7v-343h81v-78zM684 667h100l-506 -667h-100zM716 78h191v-78h-295q4 53 26 93t49.5 62.5t54.5 41t45.5 40t18.5 47.5q0 27 -19.5 42.5t-53.5 15.5q-55 0 -91 -36l-24 75q47 39 120 39q69 0 110.5 -36.5t41.5 -98.5
q0 -33 -14 -59.5t-36.5 -45t-45.5 -34t-45.5 -33.5t-32.5 -35z" />
    <glyph glyph-name="threequarters" unicode="&#xbe;" horiz-adv-x="896" 
d="M298 368q0 -56 -44.5 -89t-117.5 -33q-70 0 -116 27l16 79q37 -28 97 -28q81 0 81 50q0 53 -85 53h-30v74h30q70 0 70 48q0 46 -62 46q-49 0 -89 -29l-16 75q50 32 112 32t100.5 -32t38.5 -84q0 -63 -55 -91q70 -27 70 -98zM670 667h100l-506 -667h-100zM834 160h51v-75
h-51v-85h-81v85h-191v75l147 254h125v-254zM647 160h106v183z" />
    <glyph glyph-name="questiondown" unicode="&#xbf;" horiz-adv-x="467" 
d="M290 489q30 0 50.5 -20t20.5 -51t-20.5 -51t-50.5 -20q-31 0 -51 20t-20 51t20 51t51 20zM343 274v-10q0 -44 -19.5 -78t-47.5 -55t-55.5 -40t-47 -43t-19.5 -53q0 -40 33 -65t89 -25q83 0 141 50l32 -97q-74 -58 -183 -58q-100 0 -161.5 51.5t-61.5 138.5q0 47 20 82.5
t48.5 56.5t56.5 39.5t48 42t20 53.5v10h107z" />
    <glyph glyph-name="Agrave" unicode="&#xc0;" horiz-adv-x="652" 
d="M408 715h-102l-122 148h120zM535 0l-66 171h-286l-66 -171h-117l263 667h126l263 -667h-117zM223 276h206l-103 266z" />
    <glyph glyph-name="Aacute" unicode="&#xc1;" horiz-adv-x="652" 
d="M468 863l-122 -148h-102l104 148h120zM535 0l-66 171h-286l-66 -171h-117l263 667h126l263 -667h-117zM223 276h206l-103 266z" />
    <glyph glyph-name="Acircumflex" unicode="&#xc2;" horiz-adv-x="652" 
d="M326 799l-60 -84h-97l99 148h117l98 -148h-97zM535 0l-66 171h-286l-66 -171h-117l263 667h126l263 -667h-117zM223 276h206l-103 266z" />
    <glyph glyph-name="Atilde" unicode="&#xc3;" horiz-adv-x="652" 
d="M267 771q-18 0 -27.5 -16.5t-9.5 -43.5h-77q0 67 28 108t78 41q29 0 52.5 -15t41.5 -30t32 -15q18 0 27.5 16.5t9.5 43.5h77q0 -67 -28 -108t-78 -41q-29 0 -52.5 15t-41.5 30t-32 15zM535 0l-66 171h-286l-66 -171h-117l263 667h126l263 -667h-117zM223 276h206
l-103 266z" />
    <glyph glyph-name="Adieresis" unicode="&#xc4;" horiz-adv-x="652" 
d="M230 713q-28 0 -46 17.5t-18 44.5q0 29 18 46.5t46 17.5q27 0 44.5 -18t17.5 -46q0 -27 -17.5 -44.5t-44.5 -17.5zM422 713q-28 0 -45.5 17.5t-17.5 44.5q0 28 17.5 46t45.5 18t45.5 -18t17.5 -46q0 -27 -17.5 -44.5t-45.5 -17.5zM535 0l-66 171h-286l-66 -171h-117
l263 667h126l263 -667h-117zM223 276h206l-103 266z" />
    <glyph glyph-name="Aring" unicode="&#xc5;" horiz-adv-x="652" 
d="M326 700q-43 0 -73.5 30.5t-30.5 73.5q0 44 30.5 74t73.5 30q44 0 74.5 -30t30.5 -74q0 -43 -30.5 -73.5t-74.5 -30.5zM326 858q-23 0 -38.5 -15.5t-15.5 -38.5q0 -22 16 -38t38 -16q23 0 38.5 15.5t15.5 38.5t-15.5 38.5t-38.5 15.5zM535 0l-66 171h-286l-66 -171h-117
l263 667h126l263 -667h-117zM223 276h206l-103 266z" />
    <glyph glyph-name="AE" unicode="&#xc6;" horiz-adv-x="890" 
d="M851 562h-343l15 -167h258v-106h-248l17 -184h301v-105h-404l-15 171h-234l-88 -171h-125l343 667h523v-105zM252 276h170l-25 283z" />
    <glyph glyph-name="Ccedilla" unicode="&#xc7;" horiz-adv-x="627" 
d="M594 51q-84 -61 -210 -63l-6 -26q38 -1 60.5 -20t22.5 -51q0 -36 -27 -56t-73 -20q-43 0 -71 15l14 56q20 -12 47 -12q36 0 36 21t-31 21q-13 0 -24 -4l-19 7l17 72q-131 15 -210.5 107.5t-79.5 234.5q0 156 94 251t244 95q132 0 216 -64l-31 -102q-78 61 -182 61
q-105 0 -167 -65.5t-62 -175.5t62 -175t167 -65q102 0 182 61z" />
    <glyph glyph-name="Egrave" unicode="&#xc8;" horiz-adv-x="560" 
d="M383 715h-102l-122 148h120zM522 562h-330v-167h260v-106h-260v-184h330v-105h-442v667h442v-105z" />
    <glyph glyph-name="Eacute" unicode="&#xc9;" horiz-adv-x="560" 
d="M219 715l104 148h120l-122 -148h-102zM522 562h-330v-167h260v-106h-260v-184h330v-105h-442v667h442v-105z" />
    <glyph glyph-name="Ecircumflex" unicode="&#xca;" horiz-adv-x="560" 
d="M301 799l-60 -84h-97l99 148h117l98 -148h-97zM522 562h-330v-167h260v-106h-260v-184h330v-105h-442v667h442v-105z" />
    <glyph glyph-name="Edieresis" unicode="&#xcb;" horiz-adv-x="560" 
d="M205 713q-28 0 -46 17.5t-18 44.5q0 29 17.5 46.5t46.5 17.5q27 0 44.5 -18t17.5 -46q0 -27 -17.5 -44.5t-44.5 -17.5zM397 713q-28 0 -45.5 17.5t-17.5 44.5q0 28 17.5 46t45.5 18t45.5 -18t17.5 -46q0 -27 -17.5 -44.5t-45.5 -17.5zM522 562h-330v-167h260v-106h-260
v-184h330v-105h-442v667h442v-105z" />
    <glyph glyph-name="Igrave" unicode="&#xcc;" horiz-adv-x="272" 
d="M218 715h-102l-122 148h120zM80 667h112v-667h-112v667z" />
    <glyph glyph-name="Iacute" unicode="&#xcd;" horiz-adv-x="272" 
d="M54 715l104 148h120l-122 -148h-102zM80 667h112v-667h-112v667z" />
    <glyph glyph-name="Icircumflex" unicode="&#xce;" horiz-adv-x="272" 
d="M195 863l98 -148h-97l-60 84l-60 -84h-97l99 148h117zM80 0v667h112v-667h-112z" />
    <glyph glyph-name="Idieresis" unicode="&#xcf;" horiz-adv-x="272" 
d="M40 713q-28 0 -46 17.5t-18 44.5q0 29 18 46.5t46 17.5q27 0 44.5 -18t17.5 -46q0 -27 -17.5 -44.5t-44.5 -17.5zM232 713q-28 0 -45.5 17.5t-17.5 44.5q0 28 17.5 46t45.5 18t45.5 -18t17.5 -46q0 -27 -17.5 -44.5t-45.5 -17.5zM80 667h112v-667h-112v667z" />
    <glyph glyph-name="Eth" unicode="&#xd0;" horiz-adv-x="675" 
d="M288 667q166 0 256.5 -91t90.5 -243t-90.5 -242.5t-256.5 -90.5h-208v296h-76v92h76v279h208zM288 105q117 0 176.5 61t59.5 167t-59.5 167.5t-176.5 61.5h-96v-174h166v-92h-166v-191h96z" />
    <glyph glyph-name="Ntilde" unicode="&#xd1;" horiz-adv-x="753" 
d="M317 771q-18 0 -27.5 -16.5t-9.5 -43.5h-77q0 67 28 108t78 41q29 0 52.5 -15t41.5 -30t32 -15q18 0 27.5 16.5t9.5 43.5h77q0 -67 -28 -108t-78 -41q-29 0 -52.5 15t-41.5 30t-32 15zM561 667h111v-667h-149l-331 527v-527h-112v667h149l332 -527v527z" />
    <glyph glyph-name="Ograve" unicode="&#xd2;" horiz-adv-x="758" 
d="M461 715h-102l-122 148h120zM379 -12q-151 0 -245 95.5t-94 249.5t94 250t245 96t245 -96t94 -250t-94 -249.5t-245 -95.5zM379 93q101 0 164.5 66.5t63.5 173.5q0 108 -63.5 174.5t-164.5 66.5t-164 -66.5t-63 -174.5q0 -107 63 -173.5t164 -66.5z" />
    <glyph glyph-name="Oacute" unicode="&#xd3;" horiz-adv-x="758" 
d="M297 715l104 148h120l-122 -148h-102zM379 -12q-151 0 -245 95.5t-94 249.5t94 250t245 96t245 -96t94 -250t-94 -249.5t-245 -95.5zM379 93q101 0 164.5 66.5t63.5 173.5q0 108 -63.5 174.5t-164.5 66.5t-164 -66.5t-63 -174.5q0 -107 63 -173.5t164 -66.5z" />
    <glyph glyph-name="Ocircumflex" unicode="&#xd4;" horiz-adv-x="758" 
d="M379 799l-60 -84h-97l99 148h117l98 -148h-97zM379 679q151 0 245 -96t94 -250t-94 -249.5t-245 -95.5t-245 95.5t-94 249.5t94 250t245 96zM379 93q101 0 164.5 66.5t63.5 173.5q0 108 -63.5 174.5t-164.5 66.5t-164 -66.5t-63 -174.5q0 -107 63 -173.5t164 -66.5z" />
    <glyph glyph-name="Otilde" unicode="&#xd5;" horiz-adv-x="758" 
d="M206 711q0 67 28 108t78 41q29 0 52.5 -15t41.5 -30t32 -15q18 0 27.5 16.5t9.5 43.5h77q0 -67 -28 -108t-78 -41q-29 0 -52.5 15t-41.5 30t-32 15q-18 0 -27.5 -16.5t-9.5 -43.5h-77zM379 -12q-151 0 -245 95.5t-94 249.5t94 250t245 96t245 -96t94 -250t-94 -249.5
t-245 -95.5zM379 93q101 0 164.5 66.5t63.5 173.5q0 108 -63.5 174.5t-164.5 66.5t-164 -66.5t-63 -174.5q0 -107 63 -173.5t164 -66.5z" />
    <glyph glyph-name="Odieresis" unicode="&#xd6;" horiz-adv-x="758" 
d="M283 713q-28 0 -46 17.5t-18 44.5q0 29 17.5 46.5t46.5 17.5q27 0 44.5 -18t17.5 -46q0 -27 -17.5 -44.5t-44.5 -17.5zM475 713q-28 0 -45.5 17.5t-17.5 44.5q0 28 17.5 46t45.5 18t45.5 -18t17.5 -46q0 -27 -17.5 -44.5t-45.5 -17.5zM379 -12q-151 0 -245 95.5
t-94 249.5t94 250t245 96t245 -96t94 -250t-94 -249.5t-245 -95.5zM379 93q101 0 164.5 66.5t63.5 173.5q0 108 -63.5 174.5t-164.5 66.5t-164 -66.5t-63 -174.5q0 -107 63 -173.5t164 -66.5z" />
    <glyph glyph-name="multiply" unicode="&#xd7;" horiz-adv-x="540" 
d="M470 395l-135 -135l135 -135l-65 -65l-135 135l-134 -134l-65 64l134 135l-134 134l64 65l135 -135l135 136z" />
    <glyph glyph-name="Oslash" unicode="&#xd8;" horiz-adv-x="758" 
d="M630 576q88 -94 88 -243q0 -154 -94 -249.5t-245 -95.5q-109 0 -190 52l-44 -54l-68 41l51 63q-88 94 -88 243q0 154 94 250t245 96q107 0 191 -52l43 52l68 -41zM152 333q0 -90 48 -156l300 365q-52 32 -121 32q-101 0 -164 -66.5t-63 -174.5zM379 93q101 0 164.5 66.5
t63.5 173.5q0 92 -48 156l-300 -365q53 -31 120 -31z" />
    <glyph glyph-name="Ugrave" unicode="&#xd9;" horiz-adv-x="663" 
d="M414 715h-102l-122 148h120zM332 -12q-128 0 -197.5 74t-69.5 207v398h112v-387q0 -95 38 -141t117 -46t116.5 46t37.5 141v387h112v-398q0 -134 -69 -207.5t-197 -73.5z" />
    <glyph glyph-name="Uacute" unicode="&#xda;" horiz-adv-x="663" 
d="M250 715l104 148h120l-122 -148h-102zM332 -12q-128 0 -197.5 74t-69.5 207v398h112v-387q0 -95 38 -141t117 -46t116.5 46t37.5 141v387h112v-398q0 -134 -69 -207.5t-197 -73.5z" />
    <glyph glyph-name="Ucircumflex" unicode="&#xdb;" horiz-adv-x="663" 
d="M332 799l-60 -84h-97l99 148h117l98 -148h-97zM486 667h112v-398q0 -134 -69 -207.5t-197 -73.5t-197.5 74t-69.5 207v398h112v-387q0 -95 38 -141t117 -46t116.5 46t37.5 141v387z" />
    <glyph glyph-name="Udieresis" unicode="&#xdc;" horiz-adv-x="663" 
d="M236 713q-28 0 -46 17.5t-18 44.5q0 29 18 46.5t46 17.5q27 0 44.5 -18t17.5 -46q0 -27 -17.5 -44.5t-44.5 -17.5zM428 713q-28 0 -45.5 17.5t-17.5 44.5q0 28 17.5 46t45.5 18t45.5 -18t17.5 -46q0 -27 -17.5 -44.5t-45.5 -17.5zM332 -12q-128 0 -197.5 74t-69.5 207
v398h112v-387q0 -95 38 -141t117 -46t116.5 46t37.5 141v387h112v-398q0 -134 -69 -207.5t-197 -73.5z" />
    <glyph glyph-name="Yacute" unicode="&#xdd;" horiz-adv-x="625" 
d="M229 715l104 148h120l-122 -148h-102zM258 0v284l-265 383h138l182 -273l182 273h138l-264 -383v-284h-111z" />
    <glyph glyph-name="Thorn" unicode="&#xde;" horiz-adv-x="623" 
d="M356 557q108 0 171.5 -59.5t63.5 -155.5t-63.5 -155.5t-171.5 -59.5h-154v-127h-112v667h112v-110h154zM356 232q58 0 90.5 30t32.5 80t-32.5 80t-90.5 30h-154v-220h154z" />
    <glyph glyph-name="germandbls" unicode="&#xdf;" horiz-adv-x="591" 
d="M430 375q57 -20 88.5 -65t31.5 -110q0 -95 -60 -152.5t-157 -57.5q-73 0 -124 27l25 94q41 -23 93 -23q54 0 86.5 30t32.5 82q0 54 -36.5 85t-96.5 31h-55v97h41q48 0 77.5 27t29.5 74q0 45 -30.5 72t-80.5 27q-123 0 -123 -165v-448h-104v451q0 126 57.5 192.5
t164.5 66.5q96 0 156 -53.5t60 -140.5q0 -94 -76 -141z" />
    <glyph glyph-name="agrave" unicode="&#xe0;" horiz-adv-x="577" 
d="M375 555h-102l-122 148h120zM252 -10q-96 0 -157 69t-61 180q0 110 61 179.5t157 69.5q101 0 160 -82v72h98v-478h-98v72q-59 -82 -160 -82zM275 88q60 0 95.5 40.5t35.5 110.5t-35.5 110.5t-95.5 40.5q-61 0 -99 -42t-38 -109q0 -68 38 -109.5t99 -41.5z" />
    <glyph glyph-name="aacute" unicode="&#xe1;" horiz-adv-x="577" 
d="M191 555l104 148h120l-122 -148h-102zM252 -10q-96 0 -157 69t-61 180q0 110 61 179.5t157 69.5q101 0 160 -82v72h98v-478h-98v72q-59 -82 -160 -82zM275 88q60 0 95.5 40.5t35.5 110.5t-35.5 110.5t-95.5 40.5q-61 0 -99 -42t-38 -109q0 -68 38 -109.5t99 -41.5z" />
    <glyph glyph-name="acircumflex" unicode="&#xe2;" horiz-adv-x="577" 
d="M283 639l-60 -84h-97l99 148h117l98 -148h-97zM412 478h98v-478h-98v72q-59 -82 -160 -82q-96 0 -157 69t-61 180q0 110 61 179.5t157 69.5q101 0 160 -82v72zM275 88q60 0 95.5 40.5t35.5 110.5t-35.5 110.5t-95.5 40.5q-61 0 -99 -42t-38 -109q0 -68 38 -109.5
t99 -41.5z" />
    <glyph glyph-name="atilde" unicode="&#xe3;" horiz-adv-x="577" 
d="M110 551q0 67 28 108t78 41q29 0 52.5 -15t41.5 -30t32 -15q18 0 27.5 16.5t9.5 43.5h77q0 -67 -28 -108t-78 -41q-29 0 -52.5 15t-41.5 30t-32 15q-18 0 -27.5 -16.5t-9.5 -43.5h-77zM252 -10q-96 0 -157 69t-61 180q0 110 61 179.5t157 69.5q101 0 160 -82v72h98v-478
h-98v72q-59 -82 -160 -82zM275 88q60 0 95.5 40.5t35.5 110.5t-35.5 110.5t-95.5 40.5q-61 0 -99 -42t-38 -109q0 -68 38 -109.5t99 -41.5z" />
    <glyph glyph-name="adieresis" unicode="&#xe4;" horiz-adv-x="577" 
d="M187 573q-28 0 -46 17.5t-18 45.5t18 45.5t46 17.5q27 0 44.5 -17.5t17.5 -45.5t-17.5 -45.5t-44.5 -17.5zM379 573q-28 0 -45.5 17.5t-17.5 45.5t17.5 45.5t45.5 17.5t45.5 -17.5t17.5 -45.5t-17.5 -45.5t-45.5 -17.5zM252 -10q-96 0 -157 69t-61 180q0 110 61 179.5
t157 69.5q101 0 160 -82v72h98v-478h-98v72q-59 -82 -160 -82zM275 88q60 0 95.5 40.5t35.5 110.5t-35.5 110.5t-95.5 40.5q-61 0 -99 -42t-38 -109q0 -68 38 -109.5t99 -41.5z" />
    <glyph glyph-name="aring" unicode="&#xe5;" horiz-adv-x="577" 
d="M283 540q-43 0 -73.5 30.5t-30.5 73.5q0 44 30.5 74t73.5 30q44 0 74.5 -30t30.5 -74q0 -43 -30.5 -73.5t-74.5 -30.5zM283 590q23 0 38.5 15.5t15.5 38.5t-15.5 38.5t-38.5 15.5t-38.5 -15.5t-15.5 -38.5q0 -22 15.5 -38t38.5 -16zM252 -10q-96 0 -157 69t-61 180
q0 110 61 179.5t157 69.5q101 0 160 -82v72h98v-478h-98v72q-59 -82 -160 -82zM275 88q60 0 95.5 40.5t35.5 110.5t-35.5 110.5t-95.5 40.5q-61 0 -99 -42t-38 -109q0 -68 38 -109.5t99 -41.5z" />
    <glyph glyph-name="ae" unicode="&#xe6;" horiz-adv-x="806" 
d="M769 248q0 -31 -2 -44h-330q10 -58 48 -88.5t97 -30.5q80 0 143 44l29 -88q-72 -52 -176 -52q-136 0 -195 99q-41 -99 -175 -99q-84 0 -133 41t-49 111q0 69 49.5 107t146.5 38h109q-3 106 -124 106q-69 0 -129 -37l-21 90q70 43 166 43q124 0 170 -77q56 77 158 77
q97 0 157.5 -66.5t60.5 -173.5zM553 397q-45 0 -75.5 -29.5t-40.5 -81.5h229q-6 51 -36 81t-77 30zM220 76q51 0 81 26.5t30 75.5v26h-97q-104 0 -104 -62q0 -30 23 -48t67 -18z" />
    <glyph glyph-name="ccedilla" unicode="&#xe7;" horiz-adv-x="448" 
d="M425 36q-61 -45 -147 -47l-6 -27q38 -1 60.5 -20t22.5 -51q0 -36 -27 -56t-73 -20q-43 0 -71 15l14 56q20 -12 47 -12q36 0 36 21t-31 21q-13 0 -24 -4l-19 7l17 74q-87 16 -138.5 81.5t-51.5 164.5q0 112 66.5 180.5t173.5 68.5q88 0 151 -46l-27 -95q-52 43 -120 43
q-64 0 -102 -40.5t-38 -110.5t38 -110.5t102 -40.5q66 0 120 41z" />
    <glyph glyph-name="egrave" unicode="&#xe8;" horiz-adv-x="524" 
d="M352 555h-102l-122 148h120zM487 248q0 -31 -2 -44h-346q10 -58 50 -88.5t103 -30.5q82 0 150 44l29 -88q-74 -52 -183 -52q-114 0 -184 67t-70 183q0 110 63 179.5t164 69.5q100 0 163 -66.5t63 -173.5zM263 397q-49 0 -81.5 -29.5t-41.5 -81.5h244q-6 51 -38 81t-83 30
z" />
    <glyph glyph-name="eacute" unicode="&#xe9;" horiz-adv-x="524" 
d="M392 703l-122 -148h-102l104 148h120zM487 248q0 -31 -2 -44h-346q10 -58 50 -88.5t103 -30.5q82 0 150 44l29 -88q-74 -52 -183 -52q-114 0 -184 67t-70 183q0 110 63 179.5t164 69.5q100 0 163 -66.5t63 -173.5zM263 397q-49 0 -81.5 -29.5t-41.5 -81.5h244
q-6 51 -38 81t-83 30z" />
    <glyph glyph-name="ecircumflex" unicode="&#xea;" horiz-adv-x="524" 
d="M260 639l-60 -84h-97l99 148h117l98 -148h-97zM487 248q0 -31 -2 -44h-346q10 -58 50 -88.5t103 -30.5q82 0 150 44l29 -88q-74 -52 -183 -52q-114 0 -184 67t-70 183q0 110 63 179.5t164 69.5q100 0 163 -66.5t63 -173.5zM263 397q-49 0 -81.5 -29.5t-41.5 -81.5h244
q-6 51 -38 81t-83 30z" />
    <glyph glyph-name="edieresis" unicode="&#xeb;" horiz-adv-x="524" 
d="M164 573q-28 0 -46 17.5t-18 45.5t18 45.5t46 17.5q27 0 44.5 -17.5t17.5 -45.5t-17.5 -45.5t-44.5 -17.5zM356 573q-28 0 -45.5 17.5t-17.5 45.5t17.5 45.5t45.5 17.5t45.5 -17.5t17.5 -45.5t-17.5 -45.5t-45.5 -17.5zM487 248q0 -31 -2 -44h-346q10 -58 50 -88.5
t103 -30.5q82 0 150 44l29 -88q-74 -52 -183 -52q-114 0 -184 67t-70 183q0 110 63 179.5t164 69.5q100 0 163 -66.5t63 -173.5zM263 397q-49 0 -81.5 -29.5t-41.5 -81.5h244q-6 51 -38 81t-83 30z" />
    <glyph glyph-name="igrave" unicode="&#xec;" horiz-adv-x="239" 
d="M212 555h-102l-122 148h120zM68 478h104v-478h-104v478z" />
    <glyph glyph-name="iacute" unicode="&#xed;" horiz-adv-x="239" 
d="M28 555l104 148h120l-122 -148h-102zM68 478h104v-478h-104v478z" />
    <glyph glyph-name="icircumflex" unicode="&#xee;" horiz-adv-x="239" 
d="M179 703l98 -148h-97l-60 84l-60 -84h-97l99 148h117zM68 0v478h104v-478h-104z" />
    <glyph glyph-name="idieresis" unicode="&#xef;" horiz-adv-x="239" 
d="M38 573q-27 0 -44.5 17.5t-17.5 45.5t17.5 45.5t44.5 17.5t44 -17.5t17 -45.5t-17 -45.5t-44 -17.5zM202 573q-27 0 -44 17.5t-17 45.5t17 45.5t44 17.5q28 0 45 -17.5t17 -45.5t-17 -45.5t-45 -17.5zM68 478h104v-478h-104v478z" />
    <glyph glyph-name="eth" unicode="&#xf0;" horiz-adv-x="552" 
d="M385 594q132 -157 132 -350q0 -122 -65.5 -188t-175.5 -66q-107 0 -174.5 64.5t-67.5 167.5q0 100 63.5 163.5t162.5 63.5q75 0 128 -38q-34 78 -95 141l-148 -67l-17 70l108 49q-32 26 -70 49l93 57q42 -30 75 -61l104 47l17 -70zM276 88q61 0 99 37t38 97t-38 97
t-99 37q-62 0 -100 -37t-38 -97t38 -97t100 -37z" />
    <glyph glyph-name="ntilde" unicode="&#xf1;" horiz-adv-x="556" 
d="M219 611q-18 0 -27.5 -16.5t-9.5 -43.5h-77q0 67 28 108t78 41q29 0 52.5 -15t41.5 -30t32 -15q18 0 27.5 16.5t9.5 43.5h77q0 -67 -28 -108t-78 -41q-29 0 -52.5 15t-41.5 30t-32 15zM317 488q84 0 132.5 -55.5t48.5 -153.5v-279h-104v259q0 131 -108 131
q-53 0 -83.5 -33.5t-30.5 -94.5v-262h-104v478h97v-74q46 84 152 84z" />
    <glyph glyph-name="ograve" unicode="&#xf2;" horiz-adv-x="552" 
d="M368 555h-102l-122 148h120zM276 -11q-107 0 -174.5 69.5t-67.5 180.5q0 110 67.5 179.5t174.5 69.5t174 -69.5t67 -179.5q0 -111 -67 -180.5t-174 -69.5zM276 88q61 0 99 42t38 109t-38 109t-99 42t-99.5 -42t-38.5 -109t38 -109t100 -42z" />
    <glyph glyph-name="oacute" unicode="&#xf3;" horiz-adv-x="552" 
d="M184 555l104 148h120l-122 -148h-102zM276 -11q-107 0 -174.5 69.5t-67.5 180.5q0 110 67.5 179.5t174.5 69.5t174 -69.5t67 -179.5q0 -111 -67 -180.5t-174 -69.5zM276 88q61 0 99 42t38 109t-38 109t-99 42t-99.5 -42t-38.5 -109t38 -109t100 -42z" />
    <glyph glyph-name="ocircumflex" unicode="&#xf4;" horiz-adv-x="552" 
d="M276 639l-60 -84h-97l99 148h117l98 -148h-97zM276 488q107 0 174 -69.5t67 -179.5q0 -111 -67 -180.5t-174 -69.5t-174.5 69.5t-67.5 180.5q0 110 67.5 179.5t174.5 69.5zM276 88q61 0 99 42t38 109t-38 109t-99 42t-99.5 -42t-38.5 -109t38 -109t100 -42z" />
    <glyph glyph-name="otilde" unicode="&#xf5;" horiz-adv-x="552" 
d="M103 551q0 67 28 108t78 41q29 0 52.5 -15t41.5 -30t32 -15q18 0 27.5 16.5t9.5 43.5h77q0 -67 -28 -108t-78 -41q-29 0 -52.5 15t-41.5 30t-32 15q-18 0 -27.5 -16.5t-9.5 -43.5h-77zM276 -11q-107 0 -174.5 69.5t-67.5 180.5q0 110 67.5 179.5t174.5 69.5t174 -69.5
t67 -179.5q0 -111 -67 -180.5t-174 -69.5zM276 88q61 0 99 42t38 109t-38 109t-99 42t-99.5 -42t-38.5 -109t38 -109t100 -42z" />
    <glyph glyph-name="odieresis" unicode="&#xf6;" horiz-adv-x="552" 
d="M180 573q-28 0 -46 17.5t-18 45.5t18 45.5t46 17.5q27 0 44.5 -17.5t17.5 -45.5t-17.5 -45.5t-44.5 -17.5zM372 573q-28 0 -45.5 17.5t-17.5 45.5t17.5 45.5t45.5 17.5t45.5 -17.5t17.5 -45.5t-17.5 -45.5t-45.5 -17.5zM276 -11q-107 0 -174.5 69.5t-67.5 180.5
q0 110 67.5 179.5t174.5 69.5t174 -69.5t67 -179.5q0 -111 -67 -180.5t-174 -69.5zM276 88q61 0 99 42t38 109t-38 109t-99 42t-99.5 -42t-38.5 -109t38 -109t100 -42z" />
    <glyph glyph-name="divide" unicode="&#xf7;" horiz-adv-x="540" 
d="M270 376q-28 0 -47.5 19t-19.5 48q0 28 19 47t48 19t48 -19t19 -47q0 -29 -19.5 -48t-47.5 -19zM45 306h450v-92h-450v92zM270 11q-29 0 -48 19t-19 48q0 28 19 47t48 19t48 -19t19 -47q0 -29 -19 -48t-48 -19z" />
    <glyph glyph-name="oslash" unicode="&#xf8;" horiz-adv-x="552" 
d="M459 409q58 -67 58 -170q0 -111 -67 -180.5t-174 -69.5q-75 0 -133 36l-32 -39l-60 33l41 50q-58 67 -58 170q0 110 67.5 179.5t174.5 69.5q73 0 132 -35l31 38l60 -33zM134 239q0 -53 23 -91l189 229q-32 18 -70 18q-63 0 -102.5 -43.5t-39.5 -112.5zM276 83
q62 0 102 43.5t40 112.5q0 51 -24 91l-189 -229q31 -18 71 -18z" />
    <glyph glyph-name="ugrave" unicode="&#xf9;" horiz-adv-x="556" 
d="M368 555h-102l-122 148h120zM384 478h104v-478h-98v73q-47 -83 -152 -83q-84 0 -132 55.5t-48 153.5v279h104v-259q0 -131 108 -131q53 0 83.5 34t30.5 94v262z" />
    <glyph glyph-name="uacute" unicode="&#xfa;" horiz-adv-x="556" 
d="M408 703l-122 -148h-102l104 148h120zM384 478h104v-478h-98v73q-47 -83 -152 -83q-84 0 -132 55.5t-48 153.5v279h104v-259q0 -131 108 -131q53 0 83.5 34t30.5 94v262z" />
    <glyph glyph-name="ucircumflex" unicode="&#xfb;" horiz-adv-x="556" 
d="M276 639l-60 -84h-97l99 148h117l98 -148h-97zM384 478h104v-478h-98v73q-47 -83 -152 -83q-84 0 -132 55.5t-48 153.5v279h104v-259q0 -131 108 -131q53 0 83.5 34t30.5 94v262z" />
    <glyph glyph-name="udieresis" unicode="&#xfc;" horiz-adv-x="556" 
d="M180 573q-28 0 -46 17.5t-18 45.5t18 45.5t46 17.5q27 0 44.5 -17.5t17.5 -45.5t-17.5 -45.5t-44.5 -17.5zM372 573q-28 0 -45.5 17.5t-17.5 45.5t17.5 45.5t45.5 17.5t45.5 -17.5t17.5 -45.5t-17.5 -45.5t-45.5 -17.5zM384 478h104v-478h-98v73q-47 -83 -152 -83
q-84 0 -132 55.5t-48 153.5v279h104v-259q0 -131 108 -131q53 0 83.5 34t30.5 94v262z" />
    <glyph glyph-name="yacute" unicode="&#xfd;" horiz-adv-x="502" 
d="M383 703l-122 -148h-102l104 148h120zM384 478h111l-197 -500q-35 -88 -79 -124t-112 -36q-39 0 -73 9l15 99q31 -7 57 -7q33 0 53 17t40 68l-192 474h111l134 -349z" />
    <glyph glyph-name="thorn" unicode="&#xfe;" horiz-adv-x="577" 
d="M326 488q96 0 156.5 -69.5t60.5 -179.5q0 -111 -60.5 -180t-156.5 -69q-94 0 -154 73v-238h-104v877h104v-287q60 73 154 73zM303 88q61 0 98.5 42t37.5 109t-37.5 109t-98.5 42q-60 0 -95.5 -40.5t-35.5 -110.5t35.5 -110.5t95.5 -40.5z" />
    <glyph glyph-name="ydieresis" unicode="&#xff;" horiz-adv-x="502" 
d="M155 573q-28 0 -46 17.5t-18 45.5t18 45.5t46 17.5q27 0 44.5 -17.5t17.5 -45.5t-17.5 -45.5t-44.5 -17.5zM347 573q-28 0 -45.5 17.5t-17.5 45.5t17.5 45.5t45.5 17.5t45.5 -17.5t17.5 -45.5t-17.5 -45.5t-45.5 -17.5zM384 478h111l-197 -500q-35 -88 -79 -124t-112 -36
q-39 0 -73 9l15 99q31 -7 57 -7q33 0 53 17t40 68l-192 474h111l134 -349z" />
    <glyph glyph-name="Amacron" unicode="&#x100;" horiz-adv-x="652" 
d="M471 809v-80h-290v80h290zM535 0l-66 171h-286l-66 -171h-117l263 667h126l263 -667h-117zM223 276h206l-103 266z" />
    <glyph glyph-name="amacron" unicode="&#x101;" horiz-adv-x="577" 
d="M138 674h290v-80h-290v80zM252 -10q-96 0 -157 69t-61 180q0 110 61 179.5t157 69.5q101 0 160 -82v72h98v-478h-98v72q-59 -82 -160 -82zM275 88q60 0 95.5 40.5t35.5 110.5t-35.5 110.5t-95.5 40.5q-61 0 -99 -42t-38 -109q0 -68 38 -109.5t99 -41.5z" />
    <glyph glyph-name="Abreve" unicode="&#x102;" horiz-adv-x="652" 
d="M326 711q-62 0 -102 41.5t-40 105.5h80q0 -29 17 -46.5t45 -17.5t45.5 18t17.5 46h79q0 -64 -39.5 -105.5t-102.5 -41.5zM535 0l-66 171h-286l-66 -171h-117l263 667h126l263 -667h-117zM223 276h206l-103 266z" />
    <glyph glyph-name="abreve" unicode="&#x103;" horiz-adv-x="577" 
d="M346 698h79q0 -64 -39.5 -105.5t-102.5 -41.5q-62 0 -102 41.5t-40 105.5h80q0 -29 17 -46.5t45 -17.5t45.5 18t17.5 46zM252 -10q-96 0 -157 69t-61 180q0 110 61 179.5t157 69.5q101 0 160 -82v72h98v-478h-98v72q-59 -82 -160 -82zM275 88q60 0 95.5 40.5t35.5 110.5
t-35.5 110.5t-95.5 40.5q-61 0 -99 -42t-38 -109q0 -68 38 -109.5t99 -41.5z" />
    <glyph glyph-name="Aogonek" unicode="&#x104;" horiz-adv-x="652" 
d="M578 -110q19 0 37 10l15 -64q-32 -20 -79 -20q-39 0 -61.5 19t-22.5 52q0 53 68 113l-66 171h-286l-66 -171h-117l263 667h126l263 -667h-43q-62 -55 -62 -83q0 -27 31 -27zM223 276h206l-103 266z" />
    <glyph glyph-name="aogonek" unicode="&#x105;" horiz-adv-x="577" 
d="M516 -100l15 -64q-32 -20 -79 -20q-39 0 -61.5 19t-22.5 52q0 53 68 113h-24v72q-59 -82 -160 -82q-96 0 -157 69t-61 180q0 110 61 179.5t157 69.5q101 0 160 -82v72h98v-478q-62 -55 -62 -83q0 -27 31 -27q19 0 37 10zM275 88q60 0 95.5 40.5t35.5 110.5t-35.5 110.5
t-95.5 40.5q-61 0 -99 -42t-38 -109q0 -68 38 -109.5t99 -41.5z" />
    <glyph glyph-name="Cacute" unicode="&#x106;" horiz-adv-x="627" 
d="M277 715l104 148h120l-122 -148h-102zM378 -12q-150 0 -244 94.5t-94 250.5t94 251t244 95q132 0 216 -64l-31 -102q-78 61 -182 61q-105 0 -167 -65.5t-62 -175.5t62 -175t167 -65q102 0 182 61l31 -103q-85 -63 -216 -63z" />
    <glyph glyph-name="cacute" unicode="&#x107;" horiz-adv-x="448" 
d="M161 555l104 148h120l-122 -148h-102zM274 -11q-106 0 -173 68.5t-67 181.5q0 112 66.5 180.5t173.5 68.5q88 0 151 -46l-27 -95q-52 43 -120 43q-64 0 -102 -40.5t-38 -110.5t38 -110.5t102 -40.5q66 0 120 41l27 -93q-62 -47 -151 -47z" />
    <glyph glyph-name="Ccircumflex" unicode="&#x108;" horiz-adv-x="627" 
d="M359 799l-60 -84h-97l99 148h117l98 -148h-97zM381 93q102 0 182 61l31 -103q-85 -63 -216 -63q-150 0 -244 94.5t-94 250.5t94 251t244 95q132 0 216 -64l-31 -102q-78 61 -182 61q-105 0 -167 -65.5t-62 -175.5t62 -175t167 -65z" />
    <glyph glyph-name="ccircumflex" unicode="&#x109;" horiz-adv-x="448" 
d="M253 639l-60 -84h-97l99 148h117l98 -148h-97zM278 88q66 0 120 41l27 -93q-62 -47 -151 -47q-106 0 -173 68.5t-67 181.5q0 112 66.5 180.5t173.5 68.5q88 0 151 -46l-27 -95q-52 43 -120 43q-64 0 -102 -40.5t-38 -110.5t38 -110.5t102 -40.5z" />
    <glyph glyph-name="Cdotaccent" unicode="&#x10a;" horiz-adv-x="627" 
d="M358 711q-30 0 -48.5 18t-18.5 46q0 29 18.5 47.5t48.5 18.5t49 -18.5t19 -47.5q0 -28 -19 -46t-49 -18zM378 -12q-150 0 -244 94.5t-94 250.5t94 251t244 95q132 0 216 -64l-31 -102q-78 61 -182 61q-105 0 -167 -65.5t-62 -175.5t62 -175t167 -65q102 0 182 61l31 -103
q-85 -63 -216 -63z" />
    <glyph glyph-name="cdotaccent" unicode="&#x10b;" horiz-adv-x="448" 
d="M253 571q-30 0 -48.5 18t-18.5 47t18.5 47t48.5 18t49 -18t19 -47t-19 -47t-49 -18zM274 -11q-106 0 -173 68.5t-67 181.5q0 112 66.5 180.5t173.5 68.5q88 0 151 -46l-27 -95q-52 43 -120 43q-64 0 -102 -40.5t-38 -110.5t38 -110.5t102 -40.5q66 0 120 41l27 -93
q-62 -47 -151 -47z" />
    <glyph glyph-name="Ccaron" unicode="&#x10c;" horiz-adv-x="627" 
d="M301 715l-99 148h97l60 -84l60 84h97l-98 -148h-117zM381 93q102 0 182 61l31 -103q-85 -63 -216 -63q-150 0 -244 94.5t-94 250.5t94 251t244 95q132 0 216 -64l-31 -102q-78 61 -182 61q-105 0 -167 -65.5t-62 -175.5t62 -175t167 -65z" />
    <glyph glyph-name="ccaron" unicode="&#x10d;" horiz-adv-x="448" 
d="M195 555l-99 148h97l60 -84l60 84h97l-98 -148h-117zM278 88q66 0 120 41l27 -93q-62 -47 -151 -47q-106 0 -173 68.5t-67 181.5q0 112 66.5 180.5t173.5 68.5q88 0 151 -46l-27 -95q-52 43 -120 43q-64 0 -102 -40.5t-38 -110.5t38 -110.5t102 -40.5z" />
    <glyph glyph-name="Dcaron" unicode="&#x10e;" horiz-adv-x="675" 
d="M276 715l-99 148h97l60 -84l60 84h97l-98 -148h-117zM288 667q166 0 256.5 -91t90.5 -243t-90.5 -242.5t-256.5 -90.5h-208v667h208zM288 105q117 0 176.5 61t59.5 167t-59.5 167.5t-176.5 61.5h-96v-457h96z" />
    <glyph glyph-name="dcaron" unicode="&#x10f;" horiz-adv-x="616" 
d="M406 414v288h104v-702h-98v72q-59 -82 -160 -82q-96 0 -157 69t-61 180q0 110 61 179.5t157 69.5q95 0 154 -74zM561 702h105l-55 -171h-73zM275 88q60 0 95.5 40.5t35.5 110.5t-35.5 110.5t-95.5 40.5q-61 0 -99 -42t-38 -109q0 -68 38 -109.5t99 -41.5z" />
    <glyph glyph-name="Dcroat" unicode="&#x110;" horiz-adv-x="675" 
d="M288 667q166 0 256.5 -91t90.5 -243t-90.5 -242.5t-256.5 -90.5h-208v296h-76v92h76v279h208zM288 105q117 0 176.5 61t59.5 167t-59.5 167.5t-176.5 61.5h-96v-174h166v-92h-166v-191h96z" />
    <glyph glyph-name="dcroat" unicode="&#x111;" horiz-adv-x="577" 
d="M566 645v-82h-56v-563h-98v72q-59 -82 -160 -82q-96 0 -157 69t-61 180q0 110 61 179.5t157 69.5q95 0 154 -74v149h-157v82h157v57h104v-57h56zM275 88q60 0 95.5 40.5t35.5 110.5t-35.5 110.5t-95.5 40.5q-61 0 -99 -42t-38 -109q0 -68 38 -109.5t99 -41.5z" />
    <glyph glyph-name="Emacron" unicode="&#x112;" horiz-adv-x="560" 
d="M156 809h290v-80h-290v80zM522 562h-330v-167h260v-106h-260v-184h330v-105h-442v667h442v-105z" />
    <glyph glyph-name="emacron" unicode="&#x113;" horiz-adv-x="524" 
d="M405 674v-80h-290v80h290zM487 248q0 -31 -2 -44h-346q10 -58 50 -88.5t103 -30.5q82 0 150 44l29 -88q-74 -52 -183 -52q-114 0 -184 67t-70 183q0 110 63 179.5t164 69.5q100 0 163 -66.5t63 -173.5zM263 397q-49 0 -81.5 -29.5t-41.5 -81.5h244q-6 51 -38 81t-83 30z
" />
    <glyph glyph-name="Ebreve" unicode="&#x114;" horiz-adv-x="560" 
d="M364 858h79q0 -64 -39.5 -105.5t-102.5 -41.5q-62 0 -102 41.5t-40 105.5h80q0 -29 17 -46.5t45 -17.5t45.5 18t17.5 46zM522 562h-330v-167h260v-106h-260v-184h330v-105h-442v667h442v-105z" />
    <glyph glyph-name="ebreve" unicode="&#x115;" horiz-adv-x="524" 
d="M260 551q-62 0 -102 41.5t-40 105.5h80q0 -29 17 -46.5t45 -17.5t45.5 18t17.5 46h79q0 -64 -39.5 -105.5t-102.5 -41.5zM487 248q0 -31 -2 -44h-346q10 -58 50 -88.5t103 -30.5q82 0 150 44l29 -88q-74 -52 -183 -52q-114 0 -184 67t-70 183q0 110 63 179.5t164 69.5
q100 0 163 -66.5t63 -173.5zM263 397q-49 0 -81.5 -29.5t-41.5 -81.5h244q-6 51 -38 81t-83 30z" />
    <glyph glyph-name="Edotaccent" unicode="&#x116;" horiz-adv-x="560" 
d="M300 711q-30 0 -48.5 18t-18.5 46q0 29 18.5 47.5t48.5 18.5t49 -18.5t19 -47.5q0 -28 -19 -46t-49 -18zM522 562h-330v-167h260v-106h-260v-184h330v-105h-442v667h442v-105z" />
    <glyph glyph-name="edotaccent" unicode="&#x117;" horiz-adv-x="524" 
d="M260 571q-30 0 -48.5 18t-18.5 47t18.5 47t48.5 18t49 -18t19 -47t-19 -47t-49 -18zM487 248q0 -31 -2 -44h-346q10 -58 50 -88.5t103 -30.5q82 0 150 44l29 -88q-74 -52 -183 -52q-114 0 -184 67t-70 183q0 110 63 179.5t164 69.5q100 0 163 -66.5t63 -173.5zM263 397
q-49 0 -81.5 -29.5t-41.5 -81.5h244q-6 51 -38 81t-83 30z" />
    <glyph glyph-name="Eogonek" unicode="&#x118;" horiz-adv-x="560" 
d="M522 562h-330v-167h260v-106h-260v-184h330v-105h-23q-62 -55 -62 -83q0 -27 31 -27q19 0 37 10l15 -64q-32 -20 -79 -20q-39 0 -61.5 19t-22.5 52q0 53 68 113h-345v667h442v-105z" />
    <glyph glyph-name="eogonek" unicode="&#x119;" horiz-adv-x="524" 
d="M487 248q0 -31 -2 -44h-346q10 -58 50 -88.5t103 -30.5q84 0 150 44l29 -88q-64 -54 -87.5 -80t-23.5 -46q0 -27 31 -27q17 0 37 10l15 -64q-34 -20 -79 -20q-39 0 -61.5 19t-22.5 52q0 52 70 109q-33 -5 -62 -5q-114 0 -184 67t-70 183q0 110 63 179.5t164 69.5
q100 0 163 -66.5t63 -173.5zM263 397q-49 0 -81.5 -29.5t-41.5 -81.5h244q-6 51 -38 81t-83 30z" />
    <glyph glyph-name="Ecaron" unicode="&#x11a;" horiz-adv-x="560" 
d="M243 715l-99 148h97l60 -84l60 84h97l-98 -148h-117zM522 562h-330v-167h260v-106h-260v-184h330v-105h-442v667h442v-105z" />
    <glyph glyph-name="ecaron" unicode="&#x11b;" horiz-adv-x="524" 
d="M202 555l-99 148h97l60 -84l60 84h97l-98 -148h-117zM487 248q0 -31 -2 -44h-346q10 -58 50 -88.5t103 -30.5q82 0 150 44l29 -88q-74 -52 -183 -52q-114 0 -184 67t-70 183q0 110 63 179.5t164 69.5q100 0 163 -66.5t63 -173.5zM263 397q-49 0 -81.5 -29.5t-41.5 -81.5
h244q-6 51 -38 81t-83 30z" />
    <glyph glyph-name="Gcircumflex" unicode="&#x11c;" horiz-adv-x="672" 
d="M362 799l-60 -84h-97l99 148h117l98 -148h-97zM364 369h250v-302q-85 -79 -236 -79q-150 0 -244 94.5t-94 250.5t94 251t244 95q132 0 216 -64l-31 -101q-78 61 -182 61q-105 0 -167 -66t-62 -176t62 -175.5t167 -65.5q68 0 122 28v144h-139v105z" />
    <glyph glyph-name="gcircumflex" unicode="&#x11d;" horiz-adv-x="577" 
d="M287 639l-60 -84h-97l99 148h117l98 -148h-97zM412 478h98v-425q0 -113 -67.5 -175t-190.5 -62q-104 0 -191 46l28 92q71 -42 156 -42q161 0 161 149v23q-59 -74 -154 -74q-96 0 -157 66.5t-61 172.5t61 172.5t157 66.5q101 0 160 -82v72zM275 107q60 0 95.5 38t35.5 104
t-35.5 104.5t-95.5 38.5q-61 0 -99 -39.5t-38 -103.5q0 -63 38 -102.5t99 -39.5z" />
    <glyph glyph-name="Gbreve" unicode="&#x11e;" horiz-adv-x="672" 
d="M362 711q-62 0 -102 41.5t-40 105.5h80q0 -29 17 -46.5t45 -17.5t45.5 18t17.5 46h79q0 -64 -39.5 -105.5t-102.5 -41.5zM364 369h250v-302q-85 -79 -236 -79q-150 0 -244 94.5t-94 250.5t94 251t244 95q132 0 216 -64l-31 -101q-78 61 -182 61q-105 0 -167 -66t-62 -176
t62 -175.5t167 -65.5q68 0 122 28v144h-139v105z" />
    <glyph glyph-name="gbreve" unicode="&#x11f;" horiz-adv-x="577" 
d="M287 551q-62 0 -102 41.5t-40 105.5h80q0 -29 17 -46.5t45 -17.5t45.5 18t17.5 46h79q0 -64 -39.5 -105.5t-102.5 -41.5zM412 478h98v-425q0 -113 -67.5 -175t-190.5 -62q-104 0 -191 46l28 92q71 -42 156 -42q161 0 161 149v23q-59 -74 -154 -74q-96 0 -157 66.5
t-61 172.5t61 172.5t157 66.5q101 0 160 -82v72zM275 107q60 0 95.5 38t35.5 104t-35.5 104.5t-95.5 38.5q-61 0 -99 -39.5t-38 -103.5q0 -63 38 -102.5t99 -39.5z" />
    <glyph glyph-name="Gdotaccent" unicode="&#x120;" horiz-adv-x="672" 
d="M361 711q-30 0 -48.5 18t-18.5 46q0 29 18.5 47.5t48.5 18.5t49 -18.5t19 -47.5q0 -28 -19 -46t-49 -18zM364 369h250v-302q-85 -79 -236 -79q-150 0 -244 94.5t-94 250.5t94 251t244 95q132 0 216 -64l-31 -101q-78 61 -182 61q-105 0 -167 -66t-62 -176t62 -175.5
t167 -65.5q68 0 122 28v144h-139v105z" />
    <glyph glyph-name="gdotaccent" unicode="&#x121;" horiz-adv-x="577" 
d="M287 571q-30 0 -48.5 18t-18.5 47t18.5 47t48.5 18t49 -18t19 -47t-19 -47t-49 -18zM412 478h98v-425q0 -113 -67.5 -175t-190.5 -62q-104 0 -191 46l28 92q71 -42 156 -42q161 0 161 149v23q-59 -74 -154 -74q-96 0 -157 66.5t-61 172.5t61 172.5t157 66.5
q101 0 160 -82v72zM275 107q60 0 95.5 38t35.5 104t-35.5 104.5t-95.5 38.5q-61 0 -99 -39.5t-38 -103.5q0 -63 38 -102.5t99 -39.5z" />
    <glyph glyph-name="uni0122" unicode="&#x122;" horiz-adv-x="672" 
d="M364 369h250v-302q-85 -79 -236 -79q-150 0 -244 94.5t-94 250.5t94 251t244 95q132 0 216 -64l-31 -101q-78 61 -182 61q-105 0 -167 -66t-62 -176t62 -175.5t167 -65.5q68 0 122 28v144h-139v105zM277 -175l38 118h116l-59 -118h-95z" />
    <glyph glyph-name="uni0123" unicode="&#x123;" horiz-adv-x="577" 
d="M371 703l-53 -148h-116l75 148h94zM412 478h98v-425q0 -113 -67.5 -175t-190.5 -62q-104 0 -191 46l28 92q71 -42 156 -42q161 0 161 149v23q-59 -74 -154 -74q-96 0 -157 66.5t-61 172.5t61 172.5t157 66.5q101 0 160 -82v72zM275 107q60 0 95.5 38t35.5 104
t-35.5 104.5t-95.5 38.5q-61 0 -99 -39.5t-38 -103.5q0 -63 38 -102.5t99 -39.5z" />
    <glyph glyph-name="Hcircumflex" unicode="&#x124;" horiz-adv-x="698" 
d="M349 799l-60 -84h-97l99 148h117l98 -148h-97zM506 667h111v-667h-111v289h-314v-289h-112v667h112v-272h314v272z" />
    <glyph glyph-name="hcircumflex" unicode="&#x125;" horiz-adv-x="556" 
d="M278 834l-60 -84h-97l99 148h117l98 -148h-97zM317 488q84 0 132.5 -55.5t48.5 -153.5v-279h-104v259q0 131 -108 131q-53 0 -83.5 -33.5t-30.5 -94.5v-262h-104v702h104v-286q48 72 145 72z" />
    <glyph glyph-name="Hbar" unicode="&#x126;" horiz-adv-x="698" 
d="M678 589v-83h-61v-506h-111v289h-314v-289h-112v506h-61v83h61v78h112v-78h314v78h111v-78h61zM506 395v111h-314v-111h314z" />
    <glyph glyph-name="hbar" unicode="&#x127;" horiz-adv-x="556" 
d="M317 488q84 0 132.5 -55.5t48.5 -153.5v-279h-104v259q0 131 -108 131q-53 0 -83.5 -33.5t-30.5 -94.5v-262h-104v563h-53v82h53v57h104v-57h159v-82h-159v-147q48 72 145 72z" />
    <glyph glyph-name="Itilde" unicode="&#x128;" horiz-adv-x="272" 
d="M-37 711q0 67 28 108t78 41q29 0 52.5 -15t41.5 -30t32 -15q18 0 27.5 16.5t9.5 43.5h77q0 -67 -28 -108t-78 -41q-29 0 -52.5 15t-41.5 30t-32 15q-18 0 -27.5 -16.5t-9.5 -43.5h-77zM80 667h112v-667h-112v667z" />
    <glyph glyph-name="itilde" unicode="&#x129;" horiz-adv-x="239" 
d="M-28 551q0 66 24 107.5t67 41.5q26 0 46.5 -15t34.5 -30t25 -15q27 0 27 60h72q0 -67 -24 -108t-67 -41q-26 0 -46.5 15t-34.5 30t-25 15q-27 0 -27 -60h-72zM68 478h104v-478h-104v478z" />
    <glyph glyph-name="Imacron" unicode="&#x12a;" horiz-adv-x="272" 
d="M-9 809h290v-80h-290v80zM80 667h112v-667h-112v667z" />
    <glyph glyph-name="imacron" unicode="&#x12b;" horiz-adv-x="239" 
d="M-10 674h259v-80h-259v80zM68 478h104v-478h-104v478z" />
    <glyph glyph-name="Ibreve" unicode="&#x12c;" horiz-adv-x="272" 
d="M199 858h79q0 -64 -39.5 -105.5t-102.5 -41.5q-62 0 -102 41.5t-40 105.5h80q0 -29 17 -46.5t45 -17.5t45.5 18t17.5 46zM80 667h112v-667h-112v667z" />
    <glyph glyph-name="ibreve" unicode="&#x12d;" horiz-adv-x="239" 
d="M183 698h79q0 -64 -39.5 -105.5t-102.5 -41.5q-62 0 -102 41.5t-40 105.5h80q0 -29 17 -46.5t45 -17.5t45.5 18t17.5 46zM68 478h104v-478h-104v478z" />
    <glyph glyph-name="Iogonek" unicode="&#x12e;" horiz-adv-x="272" 
d="M198 -100l15 -64q-32 -20 -79 -20q-39 0 -61.5 19t-22.5 52q0 53 68 113h-38v667h112v-667q-62 -55 -62 -83q0 -27 31 -27q19 0 37 10z" />
    <glyph glyph-name="iogonek" unicode="&#x12f;" horiz-adv-x="239" 
d="M120 571q-30 0 -48.5 18t-18.5 47t18.5 47t48.5 18t49 -18t19 -47t-19 -47t-49 -18zM178 -100l15 -64q-32 -20 -79 -20q-39 0 -61.5 19t-22.5 52q0 53 68 113h-30v478h104v-478q-62 -55 -62 -83q0 -27 31 -27q19 0 37 10z" />
    <glyph glyph-name="Idotaccent" unicode="&#x130;" horiz-adv-x="272" 
d="M135 711q-30 0 -48.5 18t-18.5 46q0 29 18.5 47.5t48.5 18.5t49 -18.5t19 -47.5q0 -28 -19 -46t-49 -18zM80 667h112v-667h-112v667z" />
    <glyph glyph-name="dotlessi" unicode="&#x131;" horiz-adv-x="239" 
d="M68 478h104v-478h-104v478z" />
    <glyph glyph-name="IJ" unicode="&#x132;" horiz-adv-x="641" 
d="M80 667h112v-667h-112v667zM372 -9q-49 0 -94 12l18 102q32 -9 61 -9q98 0 98 99v472h111v-486q0 -92 -51 -141t-143 -49z" />
    <glyph glyph-name="ij" unicode="&#x133;" horiz-adv-x="478" 
d="M120 571q-30 0 -48.5 18t-18.5 47t18.5 47t48.5 18q29 0 48 -18.5t19 -46.5t-19 -46.5t-48 -18.5zM359 571q-30 0 -48.5 18t-18.5 47t18.5 47t48.5 18q29 0 48 -18.5t19 -46.5t-19 -46.5t-48 -18.5zM68 478h104v-478h-104v478zM195 -173l9 93q10 -3 26 -3q38 0 57.5 23
t19.5 76v462h104v-472q0 -89 -42.5 -137t-122.5 -48q-30 0 -51 6z" />
    <glyph glyph-name="Jcircumflex" unicode="&#x134;" horiz-adv-x="369" 
d="M298 863l98 -148h-97l-60 84l-60 -84h-97l99 148h117zM183 195v472h111v-486q0 -92 -51 -141t-143 -49q-49 0 -94 12l18 102q32 -9 61 -9q98 0 98 99z" />
    <glyph glyph-name="jcircumflex" unicode="&#x135;" horiz-adv-x="239" 
d="M179 703l98 -148h-97l-60 84l-60 -84h-97l99 148h117zM68 16v462h104v-472q0 -89 -42.5 -137t-122.5 -48q-30 0 -51 6l9 93q11 -3 26 -3q38 0 57.5 23t19.5 76z" />
    <glyph glyph-name="uni0136" unicode="&#x136;" horiz-adv-x="663" 
d="M342 364l311 -364h-143l-242 288l-76 -78v-210h-112v667h112v-309l298 309h147zM235 -175l38 118h116l-59 -118h-95z" />
    <glyph glyph-name="uni0137" unicode="&#x137;" horiz-adv-x="520" 
d="M294 263l222 -263h-133l-159 191l-52 -53v-138h-104v702h104v-433l200 209h132zM171 -175l38 118h116l-59 -118h-95z" />
    <glyph glyph-name="kgreenlandic" unicode="&#x138;" horiz-adv-x="520" 
d="M383 0l-159 191l-52 -53v-138h-104v478h104v-209l200 209h132l-210 -215l222 -263h-133z" />
    <glyph glyph-name="Lacute" unicode="&#x139;" horiz-adv-x="490" 
d="M103 715l104 148h120l-122 -148h-102zM80 0v667h112v-562h285v-105h-397z" />
    <glyph glyph-name="lacute" unicode="&#x13a;" horiz-adv-x="273" 
d="M51 750l104 148h120l-122 -148h-102zM68 702h104v-557q0 -54 47 -54q19 0 33 6l11 -91q-27 -11 -74 -11q-63 0 -92 31t-29 100v576z" />
    <glyph glyph-name="uni013B" unicode="&#x13b;" horiz-adv-x="490" 
d="M80 0v667h112v-562h285v-105h-397zM194 -175l38 118h116l-59 -118h-95z" />
    <glyph glyph-name="uni013C" unicode="&#x13c;" horiz-adv-x="273" 
d="M68 702h104v-557q0 -54 47 -54q19 0 33 6l11 -91q-27 -11 -74 -11q-63 0 -92 31t-29 100v576zM48 -175l38 118h116l-59 -118h-95z" />
    <glyph glyph-name="Lcaron" unicode="&#x13d;" horiz-adv-x="490" 
d="M80 0v667h112v-562h285v-105h-397zM246 496l23 171h105l-55 -171h-73z" />
    <glyph glyph-name="lcaron" unicode="&#x13e;" horiz-adv-x="288" 
d="M68 702h104v-557q0 -54 47 -54q19 0 33 6l11 -91q-27 -11 -74 -11q-63 0 -92 31t-29 100v576zM197 531l23 171h105l-55 -171h-73z" />
    <glyph glyph-name="Ldot" unicode="&#x13f;" horiz-adv-x="530" 
d="M80 0v667h112v-562h285v-105h-397zM430 305q-32 0 -52.5 20.5t-20.5 52.5t20.5 52.5t52.5 20.5q31 0 51.5 -20.5t20.5 -52.5t-20.5 -52.5t-51.5 -20.5z" />
    <glyph glyph-name="ldot" unicode="&#x140;" horiz-adv-x="377" 
d="M68 702h104v-557q0 -54 47 -54q19 0 33 6l11 -91q-27 -11 -74 -11q-63 0 -92 31t-29 100v576zM316 288q-32 0 -52.5 20.5t-20.5 52.5t20.5 52.5t52.5 20.5q31 0 51.5 -20.5t20.5 -52.5t-20.5 -52.5t-51.5 -20.5z" />
    <glyph glyph-name="Lslash" unicode="&#x141;" horiz-adv-x="490" 
d="M192 105h285v-105h-397v262l-72 -41v99l72 42v305h112v-241l162 94v-100l-162 -93v-222z" />
    <glyph glyph-name="lslash" unicode="&#x142;" horiz-adv-x="273" 
d="M252 97l11 -91q-27 -11 -74 -11q-63 0 -92 31t-29 100v185l-61 -35v102l61 35v289h104v-229l81 46v-100l-81 -47v-227q0 -54 47 -54q19 0 33 6z" />
    <glyph glyph-name="Nacute" unicode="&#x143;" horiz-adv-x="753" 
d="M518 863l-122 -148h-102l104 148h120zM561 667h111v-667h-149l-331 527v-527h-112v667h149l332 -527v527z" />
    <glyph glyph-name="nacute" unicode="&#x144;" horiz-adv-x="556" 
d="M410 703l-122 -148h-102l104 148h120zM317 488q84 0 132.5 -55.5t48.5 -153.5v-279h-104v259q0 131 -108 131q-53 0 -83.5 -33.5t-30.5 -94.5v-262h-104v478h97v-74q46 84 152 84z" />
    <glyph glyph-name="uni0145" unicode="&#x145;" horiz-adv-x="753" 
d="M561 667h111v-667h-149l-331 527v-527h-112v667h149l332 -527v527zM291 -175l38 118h116l-59 -118h-95z" />
    <glyph glyph-name="uni0146" unicode="&#x146;" horiz-adv-x="556" 
d="M317 488q84 0 132.5 -55.5t48.5 -153.5v-279h-104v259q0 131 -108 131q-53 0 -83.5 -33.5t-30.5 -94.5v-262h-104v478h97v-74q46 84 152 84zM193 -175l38 118h116l-59 -118h-95z" />
    <glyph glyph-name="Ncaron" unicode="&#x147;" horiz-adv-x="753" 
d="M318 715l-99 148h97l60 -84l60 84h97l-98 -148h-117zM561 667h111v-667h-149l-331 527v-527h-112v667h149l332 -527v527z" />
    <glyph glyph-name="ncaron" unicode="&#x148;" horiz-adv-x="556" 
d="M220 555l-99 148h97l60 -84l60 84h97l-98 -148h-117zM317 488q84 0 132.5 -55.5t48.5 -153.5v-279h-104v259q0 131 -108 131q-53 0 -83.5 -33.5t-30.5 -94.5v-262h-104v478h97v-74q46 84 152 84z" />
    <glyph glyph-name="napostrophe" unicode="&#x149;" horiz-adv-x="767" 
d="M23 425l87 250l108 -26l-111 -244zM528 488q84 0 132.5 -55.5t48.5 -153.5v-279h-104v259q0 131 -108 131q-53 0 -83.5 -33.5t-30.5 -94.5v-262h-104v478h97v-74q46 84 152 84z" />
    <glyph glyph-name="Eng" unicode="&#x14a;" horiz-adv-x="753" 
d="M561 667h111v-662q0 -92 -50.5 -141t-142.5 -49q-50 0 -95 12l18 102q32 -9 62 -9q91 0 97 87l-369 533v-540h-112v667h149l332 -480v480z" />
    <glyph glyph-name="eng" unicode="&#x14b;" horiz-adv-x="556" 
d="M317 488q84 0 132.5 -55.5t48.5 -153.5v-273q0 -89 -42.5 -137t-122.5 -48q-30 0 -51 6l9 93q11 -3 27 -3q76 0 76 99v243q0 131 -108 131q-53 0 -83.5 -33.5t-30.5 -94.5v-262h-104v478h97v-74q46 84 152 84z" />
    <glyph glyph-name="Omacron" unicode="&#x14c;" horiz-adv-x="758" 
d="M234 809h290v-80h-290v80zM379 -12q-151 0 -245 95.5t-94 249.5t94 250t245 96t245 -96t94 -250t-94 -249.5t-245 -95.5zM379 93q101 0 164.5 66.5t63.5 173.5q0 108 -63.5 174.5t-164.5 66.5t-164 -66.5t-63 -174.5q0 -107 63 -173.5t164 -66.5z" />
    <glyph glyph-name="omacron" unicode="&#x14d;" horiz-adv-x="552" 
d="M131 674h290v-80h-290v80zM276 -11q-107 0 -174.5 69.5t-67.5 180.5q0 110 67.5 179.5t174.5 69.5t174 -69.5t67 -179.5q0 -111 -67 -180.5t-174 -69.5zM276 88q61 0 99 42t38 109t-38 109t-99 42t-99.5 -42t-38.5 -109t38 -109t100 -42z" />
    <glyph glyph-name="Obreve" unicode="&#x14e;" horiz-adv-x="758" 
d="M442 858h79q0 -64 -39.5 -105.5t-102.5 -41.5q-62 0 -102 41.5t-40 105.5h80q0 -29 17 -46.5t45 -17.5t45.5 18t17.5 46zM379 -12q-151 0 -245 95.5t-94 249.5t94 250t245 96t245 -96t94 -250t-94 -249.5t-245 -95.5zM379 93q101 0 164.5 66.5t63.5 173.5
q0 108 -63.5 174.5t-164.5 66.5t-164 -66.5t-63 -174.5q0 -107 63 -173.5t164 -66.5z" />
    <glyph glyph-name="obreve" unicode="&#x14f;" horiz-adv-x="552" 
d="M339 698h79q0 -64 -39.5 -105.5t-102.5 -41.5q-62 0 -102 41.5t-40 105.5h80q0 -29 17 -46.5t45 -17.5t45.5 18t17.5 46zM276 -11q-107 0 -174.5 69.5t-67.5 180.5q0 110 67.5 179.5t174.5 69.5t174 -69.5t67 -179.5q0 -111 -67 -180.5t-174 -69.5zM276 88q61 0 99 42
t38 109t-38 109t-99 42t-99.5 -42t-38.5 -109t38 -109t100 -42z" />
    <glyph glyph-name="Ohungarumlaut" unicode="&#x150;" horiz-adv-x="758" 
d="M215 715l104 148h116l-122 -148h-98zM383 715l103 148h116l-122 -148h-97zM379 -12q-151 0 -245 95.5t-94 249.5t94 250t245 96t245 -96t94 -250t-94 -249.5t-245 -95.5zM379 93q101 0 164.5 66.5t63.5 173.5q0 108 -63.5 174.5t-164.5 66.5t-164 -66.5t-63 -174.5
q0 -107 63 -173.5t164 -66.5z" />
    <glyph glyph-name="ohungarumlaut" unicode="&#x151;" horiz-adv-x="552" 
d="M112 555l104 148h116l-122 -148h-98zM280 555l103 148h116l-122 -148h-97zM276 -11q-107 0 -174.5 69.5t-67.5 180.5q0 110 67.5 179.5t174.5 69.5t174 -69.5t67 -179.5q0 -111 -67 -180.5t-174 -69.5zM276 88q61 0 99 42t38 109t-38 109t-99 42t-99.5 -42t-38.5 -109
t38 -109t100 -42z" />
    <glyph glyph-name="OE" unicode="&#x152;" horiz-adv-x="894" 
d="M388 0q-167 0 -257.5 90.5t-90.5 242.5t90.5 243t257.5 91h467v-105h-300v-167h230v-106h-230v-184h300v-105h-467zM388 105h55v457h-55q-117 0 -176.5 -61.5t-59.5 -167.5t59.5 -167t176.5 -61z" />
    <glyph glyph-name="oe" unicode="&#x153;" horiz-adv-x="868" 
d="M831 248q0 -31 -2 -44h-330q10 -58 48 -88.5t97 -30.5q80 0 143 44l29 -88q-72 -52 -176 -52q-132 0 -193 95q-58 -95 -180 -95q-103 0 -168 69.5t-65 180.5q0 110 65 179.5t168 69.5q119 0 179 -92q55 92 167 92q97 0 157.5 -66.5t60.5 -173.5zM615 397
q-45 0 -75.5 -29.5t-40.5 -81.5h229q-6 51 -36 81t-77 30zM267 88q56 0 92 42t36 109t-36 109t-92 42q-58 0 -93.5 -42t-35.5 -109q0 -68 35.5 -109.5t93.5 -41.5z" />
    <glyph glyph-name="Racute" unicode="&#x154;" horiz-adv-x="636" 
d="M455 863l-122 -148h-102l104 148h120zM468 0l-173 250h-103v-250h-112v667h266q108 0 171.5 -57.5t63.5 -151.5q0 -75 -42 -128t-117 -71l182 -259h-136zM192 562v-212h154q58 0 90.5 29t32.5 77t-32.5 77t-90.5 29h-154z" />
    <glyph glyph-name="racute" unicode="&#x155;" horiz-adv-x="360" 
d="M341 703l-122 -148h-102l104 148h120zM290 485q32 0 60 -12l-15 -102q-24 9 -50 9q-53 0 -83 -35t-30 -105v-240h-104v478h97v-83q37 90 125 90z" />
    <glyph glyph-name="uni0156" unicode="&#x156;" horiz-adv-x="636" 
d="M422 259l182 -259h-136l-173 250h-103v-250h-112v667h266q108 0 171.5 -57.5t63.5 -151.5q0 -75 -42 -128t-117 -71zM192 562v-212h154q58 0 90.5 29t32.5 77t-32.5 77t-90.5 29h-154zM228 -175l38 118h116l-59 -118h-95z" />
    <glyph glyph-name="uni0157" unicode="&#x157;" horiz-adv-x="360" 
d="M290 485q32 0 60 -12l-15 -102q-24 9 -50 9q-53 0 -83 -35t-30 -105v-240h-104v478h97v-83q37 90 125 90zM35 -175l38 118h116l-59 -118h-95z" />
    <glyph glyph-name="Rcaron" unicode="&#x158;" horiz-adv-x="636" 
d="M255 715l-99 148h97l60 -84l60 84h97l-98 -148h-117zM468 0l-173 250h-103v-250h-112v667h266q108 0 171.5 -57.5t63.5 -151.5q0 -75 -42 -128t-117 -71l182 -259h-136zM192 562v-212h154q58 0 90.5 29t32.5 77t-32.5 77t-90.5 29h-154z" />
    <glyph glyph-name="rcaron" unicode="&#x159;" horiz-adv-x="360" 
d="M151 555l-99 148h97l60 -84l60 84h97l-98 -148h-117zM165 395q37 90 125 90q32 0 60 -12l-15 -102q-24 9 -50 9q-53 0 -83 -35t-30 -105v-240h-104v478h97v-83z" />
    <glyph glyph-name="Sacute" unicode="&#x15a;" horiz-adv-x="563" 
d="M200 715l104 148h120l-122 -148h-102zM53 33l24 105q80 -46 179 -46q71 0 112.5 25.5t41.5 66.5q0 35 -36.5 58t-88 38.5t-103.5 35.5t-88.5 63t-36.5 108q0 90 62.5 141t172.5 51q119 0 200 -46l-25 -106q-79 47 -171 47q-63 0 -95.5 -22.5t-32.5 -60.5t36.5 -62.5
t88.5 -40t104 -35t88.5 -60.5t36.5 -104q0 -93 -71 -147t-192 -54q-122 0 -206 45z" />
    <glyph glyph-name="sacute" unicode="&#x15b;" horiz-adv-x="418" 
d="M117 555l104 148h120l-122 -148h-102zM26 24l25 95q61 -35 135 -35q45 0 70.5 14.5t25.5 38.5q0 22 -25.5 35t-62 22.5t-72.5 23t-61.5 46t-25.5 81.5q0 69 47 106t132 37q87 0 153 -33l-26 -93q-56 32 -125 32q-77 0 -77 -47q0 -24 25.5 -38.5t61.5 -23.5t72.5 -22
t62 -43.5t25.5 -78.5q0 -72 -53.5 -112t-146.5 -40t-160 35z" />
    <glyph glyph-name="Scircumflex" unicode="&#x15c;" horiz-adv-x="563" 
d="M282 799l-60 -84h-97l99 148h117l98 -148h-97zM168 491q0 -38 36.5 -62.5t88.5 -40t104 -35t88.5 -60.5t36.5 -104q0 -93 -71 -147t-192 -54q-122 0 -206 45l24 105q80 -46 179 -46q71 0 112.5 25.5t41.5 66.5q0 35 -36.5 58t-88 38.5t-103.5 35.5t-88.5 63t-36.5 108
q0 90 62.5 141t172.5 51q119 0 200 -46l-25 -106q-79 47 -171 47q-63 0 -95.5 -22.5t-32.5 -60.5z" />
    <glyph glyph-name="scircumflex" unicode="&#x15d;" horiz-adv-x="418" 
d="M209 639l-60 -84h-97l99 148h117l98 -148h-97zM139 347q0 -24 25.5 -38.5t61.5 -23.5t72.5 -22t62 -43.5t25.5 -78.5q0 -72 -53.5 -112t-146.5 -40t-160 35l25 95q61 -35 135 -35q45 0 70.5 14.5t25.5 38.5q0 22 -25.5 35t-62 22.5t-72.5 23t-61.5 46t-25.5 81.5
q0 69 47 106t132 37q87 0 153 -33l-26 -93q-56 32 -125 32q-77 0 -77 -47z" />
    <glyph glyph-name="Scedilla" unicode="&#x15e;" horiz-adv-x="563" 
d="M522 189q0 -83 -57 -135.5t-157 -63.5l-7 -28q38 -1 60.5 -20t22.5 -51q0 -36 -27 -56t-73 -20q-43 0 -71 15l14 56q19 -12 47 -12q36 0 36 21t-31 21q-13 0 -24 -4l-19 7l16 69q-118 1 -199 45l24 105q80 -46 179 -46q71 0 112.5 25.5t41.5 66.5q0 35 -36.5 58t-88 38.5
t-103.5 35.5t-88.5 63t-36.5 108q0 90 62.5 141t172.5 51q119 0 200 -46l-25 -106q-79 47 -171 47q-63 0 -95.5 -22.5t-32.5 -60.5t36.5 -62.5t88.5 -40t104 -35t88.5 -60.5t36.5 -104z" />
    <glyph glyph-name="scedilla" unicode="&#x15f;" horiz-adv-x="418" 
d="M386 141q0 -63 -42.5 -102.5t-118.5 -47.5l-7 -29q38 -1 60.5 -20t22.5 -51q0 -36 -27 -56t-73 -20q-43 0 -71 15l14 56q20 -12 47 -12q36 0 36 21t-31 21q-13 0 -24 -4l-19 7l16 70q-82 3 -143 35l25 95q61 -35 135 -35q45 0 70.5 14.5t25.5 38.5q0 22 -25.5 35
t-62 22.5t-72.5 23t-61.5 46t-25.5 81.5q0 69 47 106t132 37q87 0 153 -33l-26 -93q-56 32 -125 32q-77 0 -77 -47q0 -24 25.5 -38.5t61.5 -23.5t72.5 -22t62 -43.5t25.5 -78.5z" />
    <glyph glyph-name="Scaron" unicode="&#x160;" horiz-adv-x="563" 
d="M224 715l-99 148h97l60 -84l60 84h97l-98 -148h-117zM168 491q0 -38 36.5 -62.5t88.5 -40t104 -35t88.5 -60.5t36.5 -104q0 -93 -71 -147t-192 -54q-122 0 -206 45l24 105q80 -46 179 -46q71 0 112.5 25.5t41.5 66.5q0 35 -36.5 58t-88 38.5t-103.5 35.5t-88.5 63
t-36.5 108q0 90 62.5 141t172.5 51q119 0 200 -46l-25 -106q-79 47 -171 47q-63 0 -95.5 -22.5t-32.5 -60.5z" />
    <glyph glyph-name="scaron" unicode="&#x161;" horiz-adv-x="418" 
d="M151 555l-99 148h97l60 -84l60 84h97l-98 -148h-117zM139 347q0 -24 25.5 -38.5t61.5 -23.5t72.5 -22t62 -43.5t25.5 -78.5q0 -72 -53.5 -112t-146.5 -40t-160 35l25 95q61 -35 135 -35q45 0 70.5 14.5t25.5 38.5q0 22 -25.5 35t-62 22.5t-72.5 23t-61.5 46t-25.5 81.5
q0 69 47 106t132 37q87 0 153 -33l-26 -93q-56 32 -125 32q-77 0 -77 -47z" />
    <glyph glyph-name="uni0162" unicode="&#x162;" horiz-adv-x="546" 
d="M523 667v-105h-195v-562h-111v562h-195v105h501zM188 -175l38 118h116l-59 -118h-95z" />
    <glyph glyph-name="uni0163" unicode="&#x163;" horiz-adv-x="334" 
d="M224 -6q-71 0 -109 39.5t-38 111.5v236h-64v97h64v115l104 20v-135h128v-97h-128v-221q0 -69 64 -69q27 0 55 10l15 -91q-41 -16 -91 -16zM115 -175l38 118h116l-59 -118h-95z" />
    <glyph glyph-name="Tcaron" unicode="&#x164;" horiz-adv-x="546" 
d="M215 715l-99 148h97l60 -84l60 84h97l-98 -148h-117zM523 667v-105h-195v-562h-111v562h-195v105h501z" />
    <glyph glyph-name="tcaron" unicode="&#x165;" horiz-adv-x="334" 
d="M342 702l-55 -171h-73l23 171h105zM245 91q27 0 55 10l15 -91q-41 -16 -91 -16q-71 0 -109 39.5t-38 111.5v236h-64v97h64v115l104 20v-135h128v-97h-128v-221q0 -69 64 -69z" />
    <glyph glyph-name="Tbar" unicode="&#x166;" horiz-adv-x="546" 
d="M523 562h-195v-182h122v-92h-122v-288h-111v288h-121v92h121v182h-195v105h501v-105z" />
    <glyph glyph-name="tbar" unicode="&#x167;" horiz-adv-x="334" 
d="M300 101l15 -91q-41 -16 -91 -16q-71 0 -109 39.5t-38 111.5v71h-57v82h57v83h-64v97h64v115l104 20v-135h128v-97h-128v-83h103v-82h-103v-56q0 -69 64 -69q27 0 55 10z" />
    <glyph glyph-name="Utilde" unicode="&#x168;" horiz-adv-x="663" 
d="M159 711q0 67 28 108t78 41q29 0 52.5 -15t41.5 -30t32 -15q18 0 27.5 16.5t9.5 43.5h77q0 -67 -28 -108t-78 -41q-29 0 -52.5 15t-41.5 30t-32 15q-18 0 -27.5 -16.5t-9.5 -43.5h-77zM332 -12q-128 0 -197.5 74t-69.5 207v398h112v-387q0 -95 38 -141t117 -46t116.5 46
t37.5 141v387h112v-398q0 -134 -69 -207.5t-197 -73.5z" />
    <glyph glyph-name="utilde" unicode="&#x169;" horiz-adv-x="556" 
d="M217 611q-18 0 -27.5 -16.5t-9.5 -43.5h-77q0 67 28 108t78 41q29 0 52.5 -15t41.5 -30t32 -15q18 0 27.5 16.5t9.5 43.5h77q0 -67 -28 -108t-78 -41q-29 0 -52.5 15t-41.5 30t-32 15zM384 478h104v-478h-98v73q-47 -83 -152 -83q-84 0 -132 55.5t-48 153.5v279h104v-259
q0 -131 108 -131q53 0 83.5 34t30.5 94v262z" />
    <glyph glyph-name="Umacron" unicode="&#x16a;" horiz-adv-x="663" 
d="M187 809h290v-80h-290v80zM332 -12q-128 0 -197.5 74t-69.5 207v398h112v-387q0 -95 38 -141t117 -46t116.5 46t37.5 141v387h112v-398q0 -134 -69 -207.5t-197 -73.5z" />
    <glyph glyph-name="umacron" unicode="&#x16b;" horiz-adv-x="556" 
d="M421 674v-80h-290v80h290zM384 478h104v-478h-98v73q-47 -83 -152 -83q-84 0 -132 55.5t-48 153.5v279h104v-259q0 -131 108 -131q53 0 83.5 34t30.5 94v262z" />
    <glyph glyph-name="Ubreve" unicode="&#x16c;" horiz-adv-x="663" 
d="M395 858h79q0 -64 -39.5 -105.5t-102.5 -41.5q-62 0 -102 41.5t-40 105.5h80q0 -29 17 -46.5t45 -17.5t45.5 18t17.5 46zM332 -12q-128 0 -197.5 74t-69.5 207v398h112v-387q0 -95 38 -141t117 -46t116.5 46t37.5 141v387h112v-398q0 -134 -69 -207.5t-197 -73.5z" />
    <glyph glyph-name="ubreve" unicode="&#x16d;" horiz-adv-x="556" 
d="M276 551q-62 0 -102 41.5t-40 105.5h80q0 -29 17 -46.5t45 -17.5t45.5 18t17.5 46h79q0 -64 -39.5 -105.5t-102.5 -41.5zM384 478h104v-478h-98v73q-47 -83 -152 -83q-84 0 -132 55.5t-48 153.5v279h104v-259q0 -131 108 -131q53 0 83.5 34t30.5 94v262z" />
    <glyph glyph-name="Uring" unicode="&#x16e;" horiz-adv-x="663" 
d="M332 700q-43 0 -73.5 30.5t-30.5 73.5q0 44 30.5 74t73.5 30q44 0 74.5 -30t30.5 -74q0 -43 -30.5 -73.5t-74.5 -30.5zM332 750q23 0 38.5 15.5t15.5 38.5t-15.5 38.5t-38.5 15.5t-38.5 -15.5t-15.5 -38.5q0 -22 16 -38t38 -16zM332 -12q-128 0 -197.5 74t-69.5 207v398
h112v-387q0 -95 38 -141t117 -46t116.5 46t37.5 141v387h112v-398q0 -134 -69 -207.5t-197 -73.5z" />
    <glyph glyph-name="uring" unicode="&#x16f;" horiz-adv-x="556" 
d="M276 540q-43 0 -73.5 30.5t-30.5 73.5q0 44 30.5 74t73.5 30q44 0 74.5 -30t30.5 -74q0 -43 -30.5 -73.5t-74.5 -30.5zM276 698q-23 0 -38.5 -15.5t-15.5 -38.5q0 -22 16 -38t38 -16q23 0 38.5 15.5t15.5 38.5t-15.5 38.5t-38.5 15.5zM384 478h104v-478h-98v73
q-47 -83 -152 -83q-84 0 -132 55.5t-48 153.5v279h104v-259q0 -131 108 -131q53 0 83.5 34t30.5 94v262z" />
    <glyph glyph-name="Uhungarumlaut" unicode="&#x170;" horiz-adv-x="663" 
d="M168 715l104 148h116l-122 -148h-98zM336 715l103 148h116l-122 -148h-97zM332 -12q-128 0 -197.5 74t-69.5 207v398h112v-387q0 -95 38 -141t117 -46t116.5 46t37.5 141v387h112v-398q0 -134 -69 -207.5t-197 -73.5z" />
    <glyph glyph-name="uhungarumlaut" unicode="&#x171;" horiz-adv-x="556" 
d="M332 703l-122 -148h-98l104 148h116zM377 555h-97l103 148h116zM384 216v262h104v-478h-98v73q-47 -83 -152 -83q-84 0 -132 55.5t-48 153.5v279h104v-259q0 -131 108 -131q53 0 83.5 34t30.5 94z" />
    <glyph glyph-name="Uogonek" unicode="&#x172;" horiz-adv-x="663" 
d="M486 667h112v-398q0 -147 -91 -243q-10 -10 -27 -28t-24.5 -25.5t-16.5 -19t-12.5 -20t-3.5 -16.5q0 -27 31 -27q17 0 37 10l15 -64q-34 -20 -79 -20q-39 0 -61.5 19t-22.5 52q0 53 64 108q-32 -7 -75 -7q-128 0 -197.5 74t-69.5 207v398h112v-387q0 -95 38 -141t117 -46
t116.5 46t37.5 141v387z" />
    <glyph glyph-name="uogonek" unicode="&#x173;" horiz-adv-x="556" 
d="M494 -100l15 -64q-32 -20 -79 -20q-39 0 -61.5 19t-22.5 52q0 53 68 113h-24v73q-47 -83 -152 -83q-84 0 -132 55.5t-48 153.5v279h104v-259q0 -131 108 -131q53 0 83.5 34t30.5 94v262h104v-478q-62 -55 -62 -83q0 -27 31 -27q19 0 37 10z" />
    <glyph glyph-name="Wcircumflex" unicode="&#x174;" horiz-adv-x="992" 
d="M496 799l-60 -84h-97l99 148h117l98 -148h-97zM867 667h112l-202 -667h-135l-145 495l-147 -495h-135l-203 667h115l156 -532l157 532h113l157 -534z" />
    <glyph glyph-name="wcircumflex" unicode="&#x175;" horiz-adv-x="769" 
d="M384 639l-60 -84h-97l99 148h117l98 -148h-97zM653 478h105l-141 -478h-120l-112 342l-113 -342h-120l-140 478h105l98 -352l116 352h109l115 -353z" />
    <glyph glyph-name="Ycircumflex" unicode="&#x176;" horiz-adv-x="625" 
d="M311 799l-60 -84h-97l99 148h117l98 -148h-97zM495 667h138l-264 -383v-284h-111v284l-265 383h138l182 -273z" />
    <glyph glyph-name="ycircumflex" unicode="&#x177;" horiz-adv-x="502" 
d="M251 639l-60 -84h-97l99 148h117l98 -148h-97zM384 478h111l-197 -500q-35 -88 -79 -124t-112 -36q-39 0 -73 9l15 99q31 -7 57 -7q33 0 53 17t40 68l-192 474h111l134 -349z" />
    <glyph glyph-name="Ydieresis" unicode="&#x178;" horiz-adv-x="625" 
d="M215 713q-28 0 -46 17.5t-18 44.5q0 29 17.5 46.5t46.5 17.5q27 0 44.5 -18t17.5 -46q0 -27 -17.5 -44.5t-44.5 -17.5zM407 713q-28 0 -45.5 17.5t-17.5 44.5q0 28 17.5 46t45.5 18t45.5 -18t17.5 -46q0 -27 -17.5 -44.5t-45.5 -17.5zM258 0v284l-265 383h138l182 -273
l182 273h138l-264 -383v-284h-111z" />
    <glyph glyph-name="Zacute" unicode="&#x179;" horiz-adv-x="607" 
d="M446 864l-122 -148h-102l104 148h120zM194 106h374v-106h-529v89l361 473h-347v106h501v-88z" />
    <glyph glyph-name="zacute" unicode="&#x17a;" horiz-adv-x="465" 
d="M365 703l-122 -148h-102l104 148h120zM178 96h250v-96h-391v81l240 300h-230v97h371v-81z" />
    <glyph glyph-name="Zdotaccent" unicode="&#x17b;" horiz-adv-x="607" 
d="M303 712q-30 0 -48.5 18t-18.5 46q0 29 18.5 47.5t48.5 18.5t49 -18.5t19 -47.5q0 -28 -19 -46t-49 -18zM194 106h374v-106h-529v89l361 473h-347v106h501v-88z" />
    <glyph glyph-name="zdotaccent" unicode="&#x17c;" horiz-adv-x="465" 
d="M233 571q-30 0 -48.5 18t-18.5 47t18.5 47t48.5 18t49 -18t19 -47t-19 -47t-49 -18zM178 96h250v-96h-391v81l240 300h-230v97h371v-81z" />
    <glyph glyph-name="Zcaron" unicode="&#x17d;" horiz-adv-x="607" 
d="M246 716l-99 148h97l60 -84l60 84h97l-98 -148h-117zM194 106h374v-106h-529v89l361 473h-347v106h501v-88z" />
    <glyph glyph-name="zcaron" unicode="&#x17e;" horiz-adv-x="465" 
d="M175 555l-99 148h97l60 -84l60 84h97l-98 -148h-117zM178 96h250v-96h-391v81l240 300h-230v97h371v-81z" />
    <glyph glyph-name="uni018F" unicode="&#x18f;" horiz-adv-x="701" 
d="M324 678q151 0 244 -93t93 -253q0 -153 -86.5 -248.5t-224.5 -95.5t-224 92t-86 239q0 45 6 78h500q-18 86 -77 132t-148 46q-117 0 -209 -67l-31 95q98 75 243 75zM348 89q86 0 141 56t62 153h-402q1 -94 55.5 -151.5t143.5 -57.5z" />
    <glyph glyph-name="florin" unicode="&#x192;" horiz-adv-x="536" 
d="M434 573q-72 0 -85 -87l-5 -30h114v-97h-129l-30 -191q-14 -90 -58.5 -134.5t-114.5 -44.5q-66 0 -104 26l19 95q26 -16 61 -16q72 0 85 87l28 178h-107v97h122l7 43q14 90 58.5 134.5t114.5 44.5q66 0 104 -26l-19 -95q-26 16 -61 16z" />
    <glyph glyph-name="uni0218" unicode="&#x218;" horiz-adv-x="563" 
d="M53 33l24 105q80 -46 179 -46q71 0 112.5 25.5t41.5 66.5q0 35 -36.5 58t-88 38.5t-103.5 35.5t-88.5 63t-36.5 108q0 90 62.5 141t172.5 51q119 0 200 -46l-25 -106q-79 47 -171 47q-63 0 -95.5 -22.5t-32.5 -60.5t36.5 -62.5t88.5 -40t104 -35t88.5 -60.5t36.5 -104
q0 -93 -71 -147t-192 -54q-122 0 -206 45zM197 -175l38 118h116l-59 -118h-95z" />
    <glyph glyph-name="uni0219" unicode="&#x219;" horiz-adv-x="418" 
d="M26 24l25 95q61 -35 135 -35q45 0 70.5 14.5t25.5 38.5q0 22 -25.5 35t-62 22.5t-72.5 23t-61.5 46t-25.5 81.5q0 69 47 106t132 37q87 0 153 -33l-26 -93q-56 32 -125 32q-77 0 -77 -47q0 -24 25.5 -38.5t61.5 -23.5t72.5 -22t62 -43.5t25.5 -78.5q0 -72 -53.5 -112
t-146.5 -40t-160 35zM114 -175l38 118h116l-59 -118h-95z" />
    <glyph glyph-name="uni021A" unicode="&#x21a;" horiz-adv-x="546" 
d="M523 667v-105h-195v-562h-111v562h-195v105h501zM188 -175l38 118h116l-59 -118h-95z" />
    <glyph glyph-name="uni021B" unicode="&#x21b;" horiz-adv-x="334" 
d="M224 -6q-71 0 -109 39.5t-38 111.5v236h-64v97h64v115l104 20v-135h128v-97h-128v-221q0 -69 64 -69q27 0 55 10l15 -91q-41 -16 -91 -16zM115 -175l38 118h116l-59 -118h-95z" />
    <glyph glyph-name="uni0237" unicode="&#x237;" horiz-adv-x="239" 
d="M-44 -173l9 93q11 -3 26 -3q38 0 57.5 23t19.5 76v462h104v-472q0 -89 -42.5 -137t-122.5 -48q-30 0 -51 6z" />
    <glyph glyph-name="uni0259" unicode="&#x259;" horiz-adv-x="524" 
d="M244 489q110 0 178 -67.5t68 -182.5q0 -111 -63 -180t-164 -69q-100 0 -163 66.5t-63 173.5q0 29 5 59h341q-27 104 -143 104q-79 0 -143 -43l-29 88q72 51 176 51zM262 81q52 0 85.5 34t40.5 92h-249q2 -57 35 -91.5t88 -34.5z" />
    <glyph glyph-name="circumflex" unicode="&#x2c6;" horiz-adv-x="394" 
d="M354 555h-97l-60 84l-60 -84h-97l99 148h117z" />
    <glyph glyph-name="caron" unicode="&#x2c7;" horiz-adv-x="394" 
d="M257 703h97l-98 -148h-117l-99 148h97l60 -84z" />
    <glyph glyph-name="uni02C9" unicode="&#x2c9;" horiz-adv-x="370" 
d="M40 674h290v-80h-290v80z" />
    <glyph glyph-name="breve" unicode="&#x2d8;" horiz-adv-x="364" 
d="M245 698h79q0 -64 -39.5 -105.5t-102.5 -41.5q-62 0 -102 41.5t-40 105.5h80q0 -29 17 -46.5t45 -17.5t45.5 18t17.5 46z" />
    <glyph glyph-name="dotaccent" unicode="&#x2d9;" horiz-adv-x="215" 
d="M107 571q-30 0 -48.5 18t-18.5 47t18.5 47t48.5 18t49 -18t19 -47t-19 -47t-49 -18z" />
    <glyph glyph-name="ring" unicode="&#x2da;" horiz-adv-x="289" 
d="M144 540q-43 0 -73.5 30.5t-30.5 73.5q0 44 30.5 74t73.5 30q44 0 74.5 -30t30.5 -74q0 -43 -30.5 -73.5t-74.5 -30.5zM144 590q23 0 38.5 15.5t15.5 38.5t-15.5 38.5t-38.5 15.5t-38.5 -15.5t-15.5 -38.5q0 -22 16 -38t38 -16z" />
    <glyph glyph-name="ogonek" unicode="&#x2db;" horiz-adv-x="243" 
d="M124 -184q-39 0 -61.5 19t-22.5 52q0 58 83 126l59 -13q-62 -55 -62 -83q0 -27 31 -27q19 0 37 10l15 -64q-32 -20 -79 -20z" />
    <glyph glyph-name="tilde" unicode="&#x2dc;" horiz-adv-x="426" 
d="M40 551q0 67 28 108t78 41q29 0 52.5 -15t41.5 -30t32 -15q18 0 27.5 16.5t9.5 43.5h77q0 -67 -28 -108t-78 -41q-29 0 -52.5 15t-41.5 30t-32 15q-18 0 -27.5 -16.5t-9.5 -43.5h-77z" />
    <glyph glyph-name="hungarumlaut" unicode="&#x2dd;" horiz-adv-x="467" 
d="M40 555l104 148h116l-122 -148h-98zM208 555l103 148h116l-122 -148h-97z" />
    <glyph glyph-name="gravecomb" unicode="&#x300;" 
d="M-40 555h-102l-122 148h120z" />
    <glyph glyph-name="acutecomb" unicode="&#x301;" 
d="M-264 555l104 148h120l-122 -148h-102z" />
    <glyph glyph-name="uni0302" unicode="&#x302;" 
d="M-40 555h-97l-60 84l-60 -84h-97l99 148h117z" />
    <glyph glyph-name="tildecomb" unicode="&#x303;" 
d="M-386 551q0 67 28 108t78 41q29 0 52.5 -15t41.5 -30t32 -15q18 0 27.5 16.5t9.5 43.5h77q0 -67 -28 -108t-78 -41q-29 0 -52.5 15t-41.5 30t-32 15q-18 0 -27.5 -16.5t-9.5 -43.5h-77z" />
    <glyph glyph-name="uni0304" unicode="&#x304;" 
d="M-330 674h290v-80h-290v80z" />
    <glyph glyph-name="uni0306" unicode="&#x306;" 
d="M-119 698h79q0 -64 -39.5 -105.5t-102.5 -41.5q-62 0 -102 41.5t-40 105.5h80q0 -29 17 -46.5t45 -17.5t45.5 18t17.5 46z" />
    <glyph glyph-name="uni0307" unicode="&#x307;" 
d="M-108 571q-30 0 -48.5 18t-18.5 47t18.5 47t48.5 18t49 -18t19 -47t-19 -47t-49 -18z" />
    <glyph glyph-name="uni0308" unicode="&#x308;" 
d="M-295 573q-28 0 -46 17.5t-18 45.5t18 45.5t46 17.5q27 0 44.5 -17.5t17.5 -45.5t-17.5 -45.5t-44.5 -17.5zM-103 573q-28 0 -45.5 17.5t-17.5 45.5t17.5 45.5t45.5 17.5t45.5 -17.5t17.5 -45.5t-17.5 -45.5t-45.5 -17.5z" />
    <glyph glyph-name="uni030A" unicode="&#x30a;" 
d="M-145 540q-43 0 -73.5 30.5t-30.5 73.5q0 44 30.5 74t73.5 30q44 0 74.5 -30t30.5 -74q0 -43 -30.5 -73.5t-74.5 -30.5zM-145 590q23 0 38.5 15.5t15.5 38.5t-15.5 38.5t-38.5 15.5t-38.5 -15.5t-15.5 -38.5q0 -22 15.5 -38t38.5 -16z" />
    <glyph glyph-name="uni030B" unicode="&#x30b;" 
d="M-427 555l104 148h116l-122 -148h-98zM-259 555l103 148h116l-122 -148h-97z" />
    <glyph glyph-name="uni030C" unicode="&#x30c;" 
d="M-137 703h97l-98 -148h-117l-99 148h97l60 -84z" />
    <glyph glyph-name="uni0312" unicode="&#x312;" 
d="M-40 703l-53 -148h-116l75 148h94z" />
    <glyph glyph-name="uni0326" unicode="&#x326;" 
d="M-194 -175l38 118h116l-59 -118h-95z" />
    <glyph glyph-name="uni0327" unicode="&#x327;" 
d="M-123 -38q38 -1 60.5 -20t22.5 -51q0 -36 -27 -56t-73 -20q-43 0 -71 15l14 56q20 -12 47 -12q36 0 36 21t-31 21q-13 0 -24 -4l-19 7l19 81h55z" />
    <glyph glyph-name="uni0328" unicode="&#x328;" 
d="M-119 -184q-39 0 -61.5 19t-22.5 52q0 58 83 126l59 -13q-62 -55 -62 -83q0 -27 31 -27q19 0 37 10l15 -64q-32 -20 -79 -20z" />
    <glyph glyph-name="uni0335" unicode="&#x335;" 
d="M-304 298h264v-82h-264v82z" />
    <glyph glyph-name="uni0336" unicode="&#x336;" 
d="M-304 298h264v-82h-264v82z" />
    <glyph glyph-name="uni0337" unicode="&#x337;" 
d="M-246 396l246 141v-100l-246 -143v102z" />
    <glyph glyph-name="uni0338" unicode="&#x338;" 
d="M-100 492l60 -33l-388 -472l-60 33z" />
    <glyph glyph-name="uni0394" unicode="&#x394;" horiz-adv-x="652" 
d="M389 667l263 -667h-652l263 667h126zM157 105h338l-169 437z" />
    <glyph glyph-name="uni03A9" unicode="&#x3a9;" horiz-adv-x="777" 
d="M606 97h131v-97h-298v98q81 16 129.5 79.5t48.5 155.5q0 108 -63.5 174.5t-164.5 66.5t-164.5 -66.5t-63.5 -174.5q0 -92 48 -155.5t129 -79.5v-98h-297v97h131q-122 87 -122 256q0 145 94 235t245 90t245 -90t94 -235q0 -169 -122 -256z" />
    <glyph glyph-name="uni03BC" unicode="&#x3bc;" horiz-adv-x="565" 
d="M537 92q9 0 23 2v-93q-36 -6 -60 -6q-89 0 -103 71q-44 -76 -139 -76q-49 0 -86 23v-188h-104v653h104v-259q0 -131 108 -131q53 0 83.5 34t30.5 94v262h104v-341q0 -25 9.5 -35t29.5 -10z" />
    <glyph glyph-name="Wgrave" unicode="&#x1e80;" horiz-adv-x="992" 
d="M578 715h-102l-122 148h120zM867 667h112l-202 -667h-135l-145 495l-147 -495h-135l-203 667h115l156 -532l157 532h113l157 -534z" />
    <glyph glyph-name="wgrave" unicode="&#x1e81;" horiz-adv-x="769" 
d="M476 555h-102l-122 148h120zM653 478h105l-141 -478h-120l-112 342l-113 -342h-120l-140 478h105l98 -352l116 352h109l115 -353z" />
    <glyph glyph-name="Wacute" unicode="&#x1e82;" horiz-adv-x="992" 
d="M638 863l-122 -148h-102l104 148h120zM867 667h112l-202 -667h-135l-145 495l-147 -495h-135l-203 667h115l156 -532l157 532h113l157 -534z" />
    <glyph glyph-name="wacute" unicode="&#x1e83;" horiz-adv-x="769" 
d="M516 703l-122 -148h-102l104 148h120zM653 478h105l-141 -478h-120l-112 342l-113 -342h-120l-140 478h105l98 -352l116 352h109l115 -353z" />
    <glyph glyph-name="Wdieresis" unicode="&#x1e84;" horiz-adv-x="992" 
d="M400 713q-28 0 -46 17.5t-18 44.5q0 29 18 46.5t46 17.5q27 0 44.5 -18t17.5 -46q0 -27 -17.5 -44.5t-44.5 -17.5zM592 713q-28 0 -45.5 17.5t-17.5 44.5q0 28 17.5 46t45.5 18t45.5 -18t17.5 -46q0 -27 -17.5 -44.5t-45.5 -17.5zM867 667h112l-202 -667h-135l-145 495
l-147 -495h-135l-203 667h115l156 -532l157 532h113l157 -534z" />
    <glyph glyph-name="wdieresis" unicode="&#x1e85;" horiz-adv-x="769" 
d="M288 573q-28 0 -46 17.5t-18 45.5t18 45.5t46 17.5q27 0 44.5 -17.5t17.5 -45.5t-17.5 -45.5t-44.5 -17.5zM480 573q-28 0 -45.5 17.5t-17.5 45.5t17.5 45.5t45.5 17.5t45.5 -17.5t17.5 -45.5t-17.5 -45.5t-45.5 -17.5zM653 478h105l-141 -478h-120l-112 342l-113 -342
h-120l-140 478h105l98 -352l116 352h109l115 -353z" />
    <glyph glyph-name="uni1E9E" unicode="&#x1e9e;" horiz-adv-x="707" 
d="M476 400q89 -19 139.5 -72.5t50.5 -132.5q0 -94 -67 -150t-180 -56q-84 0 -149 34l34 98q49 -27 115 -27q135 0 135 101q0 56 -43 86.5t-124 30.5q-27 0 -56 -3v81l150 146q-48 38 -125 38q-179 0 -179 -192v-382h-112v382q0 139 77.5 218t213.5 79q175 0 269 -133z" />
    <glyph glyph-name="Ygrave" unicode="&#x1ef2;" horiz-adv-x="625" 
d="M393 715h-102l-122 148h120zM258 0v284l-265 383h138l182 -273l182 273h138l-264 -383v-284h-111z" />
    <glyph glyph-name="ygrave" unicode="&#x1ef3;" horiz-adv-x="502" 
d="M343 555h-102l-122 148h120zM384 478h111l-197 -500q-35 -88 -79 -124t-112 -36q-39 0 -73 9l15 99q31 -7 57 -7q33 0 53 17t40 68l-192 474h111l134 -349z" />
    <glyph glyph-name="uni2011" unicode="&#x2011;" horiz-adv-x="310" 
d="M35 312h240v-104h-240v104z" />
    <glyph glyph-name="endash" unicode="&#x2013;" horiz-adv-x="500" 
d="M20 297h460v-74h-460v74z" />
    <glyph glyph-name="emdash" unicode="&#x2014;" horiz-adv-x="1000" 
d="M20 297h960v-74h-960v74z" />
    <glyph glyph-name="quoteleft" unicode="&#x2018;" horiz-adv-x="241" 
d="M134 675l84 -20l-87 -250l-108 26z" />
    <glyph glyph-name="quoteright" unicode="&#x2019;" horiz-adv-x="241" 
d="M107 405l-84 20l87 250l108 -26z" />
    <glyph glyph-name="quotesinglbase" unicode="&#x201a;" horiz-adv-x="241" 
d="M107 -131l-84 20l87 250l108 -26z" />
    <glyph glyph-name="quotedblleft" unicode="&#x201c;" horiz-adv-x="427" 
d="M134 675l84 -20l-87 -250l-108 26zM320 675l85 -20l-88 -250l-108 26z" />
    <glyph glyph-name="quotedblright" unicode="&#x201d;" horiz-adv-x="427" 
d="M107 405l-84 20l87 250l108 -26zM293 405l-84 20l87 250l108 -26z" />
    <glyph glyph-name="quotedblbase" unicode="&#x201e;" horiz-adv-x="427" 
d="M107 -131l-84 20l87 250l108 -26zM293 -131l-84 20l87 250l108 -26z" />
    <glyph glyph-name="dagger" unicode="&#x2020;" horiz-adv-x="479" 
d="M456 469v-105h-162l-14 -424h-81l-14 424h-162v105h161v198h111v-198h161z" />
    <glyph glyph-name="daggerdbl" unicode="&#x2021;" horiz-adv-x="479" 
d="M294 419l-6 -173l6 -173h162v-105h-161v-143h-111v143h-161v105h162l6 173l-6 173h-162v105h161v143h111v-143h161v-105h-162z" />
    <glyph glyph-name="bullet" unicode="&#x2022;" horiz-adv-x="418" 
d="M209 209q-53 0 -88.5 35.5t-35.5 88.5t35.5 88.5t88.5 35.5t88.5 -35.5t35.5 -88.5t-35.5 -88.5t-88.5 -35.5z" />
    <glyph glyph-name="ellipsis" unicode="&#x2026;" horiz-adv-x="704" 
d="M116 -10q-32 0 -52.5 20.5t-20.5 52.5t20.5 52.5t52.5 20.5q31 0 51.5 -20.5t20.5 -52.5t-20.5 -52.5t-51.5 -20.5zM352 -10q-32 0 -52.5 20.5t-20.5 52.5t20.5 52.5t52.5 20.5q31 0 51.5 -20.5t20.5 -52.5t-20.5 -52.5t-51.5 -20.5zM589 -10q-32 0 -52.5 20.5
t-20.5 52.5t20.5 52.5t52.5 20.5q31 0 51.5 -20.5t20.5 -52.5t-20.5 -52.5t-51.5 -20.5z" />
    <glyph glyph-name="perthousand" unicode="&#x2030;" horiz-adv-x="1035" 
d="M180 365q-69 0 -109.5 42t-40.5 114t40 114t110 42t110.5 -42t40.5 -114t-40.5 -114t-110.5 -42zM569 667h117l-519 -667h-117zM180 447q29 0 45 19.5t16 54.5t-16 54.5t-45 19.5q-28 0 -44 -19.5t-16 -54.5t16 -54.5t44 -19.5zM529 -9q-69 0 -109.5 42t-40.5 114t40 114
t110 42t110.5 -42t40.5 -114t-40.5 -114t-110.5 -42zM855 -9q-70 0 -110.5 42.5t-40.5 113.5q0 72 40.5 114t110.5 42t110.5 -42t40.5 -114q0 -71 -40.5 -113.5t-110.5 -42.5zM529 73q61 0 61 74t-61 74q-28 0 -44 -19.5t-16 -54.5t16 -54.5t44 -19.5zM855 73
q29 0 44.5 19.5t15.5 54.5t-15.5 54.5t-44.5 19.5t-44.5 -19.5t-15.5 -54.5t15.5 -54.5t44.5 -19.5z" />
    <glyph glyph-name="guilsinglleft" unicode="&#x2039;" horiz-adv-x="336" 
d="M302 438l-158 -179l158 -179h-130l-158 179l158 179h130z" />
    <glyph glyph-name="guilsinglright" unicode="&#x203a;" horiz-adv-x="336" 
d="M34 438h130l158 -179l-158 -179h-130l158 179z" />
    <glyph glyph-name="fraction" unicode="&#x2044;" horiz-adv-x="226" 
d="M-90 0h-100l506 667h100z" />
    <glyph glyph-name="uni2070" unicode="&#x2070;" horiz-adv-x="350" 
d="M175 396q-71 0 -112 57.5t-41 155.5q0 99 41 157t112 58q70 0 111.5 -58t41.5 -157q0 -98 -41 -155.5t-112 -57.5zM175 474q33 0 51.5 36t18.5 99q0 64 -18.5 100t-51.5 36q-34 0 -52 -36t-18 -100t18.5 -99.5t51.5 -35.5z" />
    <glyph glyph-name="uni2074" unicode="&#x2074;" horiz-adv-x="346" 
d="M284 563h51v-75h-51v-85h-81v85h-191v75l147 254h125v-254zM97 563h106v183z" />
    <glyph glyph-name="uni2075" unicode="&#x2075;" horiz-adv-x="354" 
d="M158 396q-76 0 -131 41l31 75q41 -38 97 -38q37 0 58.5 17.5t21.5 47.5q0 60 -80 60q-30 0 -65 -15l-51 16l28 217h221v-79h-148l-11 -73q19 6 42 6q65 0 106.5 -37.5t41.5 -96.5q0 -63 -45 -102t-116 -39z" />
    <glyph glyph-name="uni2076" unicode="&#x2076;" horiz-adv-x="352" 
d="M179 683q67 0 109.5 -39.5t42.5 -102.5q0 -64 -43.5 -104.5t-111.5 -40.5t-111 40.5t-43 104.5q0 57 32.5 114t114.5 162h98q-25 -29 -114 -137q13 3 26 3zM176 474q32 0 51.5 18.5t19.5 48.5t-20 49t-51 19t-51 -19t-20 -49q0 -29 20 -48t51 -19z" />
    <glyph glyph-name="uni2077" unicode="&#x2077;" horiz-adv-x="354" 
d="M336 817l-196 -414h-88l159 335h-190v79h315z" />
    <glyph glyph-name="uni2078" unicode="&#x2078;" horiz-adv-x="353" 
d="M264 621q61 -29 61 -98q0 -58 -40 -92.5t-108 -34.5q-69 0 -109.5 34.5t-40.5 92.5q0 69 62 98q-47 28 -47 87q0 53 36 84t99 31t98.5 -31t35.5 -84q0 -59 -47 -87zM177 745q-53 0 -53 -45q0 -46 53 -46q24 0 37.5 12t13.5 34q0 21 -13.5 33t-37.5 12zM177 474
q31 0 48.5 14t17.5 39q0 26 -17.5 40.5t-48.5 14.5t-49 -14.5t-18 -40.5q0 -53 67 -53z" />
    <glyph glyph-name="uni2079" unicode="&#x2079;" horiz-adv-x="352" 
d="M176 824q69 0 111.5 -40.5t42.5 -104.5q0 -58 -32.5 -115t-114.5 -161h-98q25 29 114 137q-13 -3 -26 -3q-67 0 -109 39.5t-42 102.5q0 64 43 104.5t111 40.5zM176 611q32 0 51.5 18.5t19.5 49.5q0 29 -20 48t-51 19t-51 -19t-20 -48q0 -30 20 -49t51 -19z" />
    <glyph glyph-name="uni207A" unicode="&#x207a;" horiz-adv-x="352" 
d="M320 597v-66h-111v-106h-67v106h-111v66h111v107h67v-107h111z" />
    <glyph glyph-name="uni207B" unicode="&#x207b;" horiz-adv-x="351" 
d="M31 597h288v-66h-288v66z" />
    <glyph glyph-name="uni207C" unicode="&#x207c;" horiz-adv-x="351" 
d="M31 667h288v-67h-288v67zM31 528h288v-66h-288v66z" />
    <glyph glyph-name="uni207D" unicode="&#x207d;" horiz-adv-x="228" 
d="M219 327l-61 -40q-130 116 -130 280q0 165 130 279l60 -40q-114 -94 -114 -239t115 -240z" />
    <glyph glyph-name="uni207E" unicode="&#x207e;" horiz-adv-x="229" 
d="M10 327q115 95 115 240t-114 239l60 40q130 -114 130 -279q0 -164 -130 -280z" />
    <glyph glyph-name="uni2080" unicode="&#x2080;" horiz-adv-x="350" 
d="M175 -182q-71 0 -112 57.5t-41 155.5q0 99 41 157t112 58q70 0 111.5 -58t41.5 -157q0 -98 -41 -155.5t-112 -57.5zM175 -104q33 0 51.5 36t18.5 99q0 64 -18.5 100t-51.5 36q-34 0 -52 -36t-18 -100t18.5 -99.5t51.5 -35.5z" />
    <glyph glyph-name="uni2081" unicode="&#x2081;" horiz-adv-x="358" 
d="M240 -97h81v-78h-253v78h89v231l-87 -33l-17 77l180 68h7v-343z" />
    <glyph glyph-name="uni2082" unicode="&#x2082;" horiz-adv-x="351" 
d="M122 -97h191v-78h-295q4 53 26 93t49.5 62.5t54.5 41t45.5 40t18.5 47.5q0 27 -19.5 42.5t-53.5 15.5q-55 0 -91 -36l-24 75q47 39 120 39q69 0 110.5 -36.5t41.5 -98.5q0 -33 -14 -59.5t-36.5 -45t-45.5 -34t-45.5 -33.5t-32.5 -35z" />
    <glyph glyph-name="uni2083" unicode="&#x2083;" horiz-adv-x="354" 
d="M228 38q70 -27 70 -98q0 -56 -44.5 -89t-117.5 -33q-70 0 -116 27l16 79q37 -28 97 -28q81 0 81 50q0 53 -85 53h-30v74h30q70 0 70 48q0 46 -62 46q-49 0 -89 -29l-16 75q50 32 112 32t100.5 -32t38.5 -84q0 -63 -55 -91z" />
    <glyph glyph-name="uni2084" unicode="&#x2084;" horiz-adv-x="346" 
d="M284 -15h51v-75h-51v-85h-81v85h-191v75l147 254h125v-254zM97 -15h106v183z" />
    <glyph glyph-name="uni2085" unicode="&#x2085;" horiz-adv-x="354" 
d="M158 -182q-76 0 -131 41l31 75q41 -38 97 -38q37 0 58.5 17.5t21.5 47.5q0 60 -80 60q-30 0 -65 -15l-51 16l28 217h221v-79h-148l-11 -73q19 6 42 6q65 0 106.5 -37.5t41.5 -96.5q0 -63 -45 -102t-116 -39z" />
    <glyph glyph-name="uni2086" unicode="&#x2086;" horiz-adv-x="352" 
d="M179 105q67 0 109.5 -39.5t42.5 -102.5q0 -64 -43.5 -104.5t-111.5 -40.5t-111 40.5t-43 104.5q0 57 32.5 114t114.5 162h98q-25 -29 -114 -137q13 3 26 3zM176 -104q32 0 51.5 18.5t19.5 48.5t-20 49t-51 19t-51 -19t-20 -49q0 -29 20 -48t51 -19z" />
    <glyph glyph-name="uni2087" unicode="&#x2087;" horiz-adv-x="354" 
d="M336 239l-196 -414h-88l159 335h-190v79h315z" />
    <glyph glyph-name="uni2088" unicode="&#x2088;" horiz-adv-x="353" 
d="M264 43q61 -29 61 -98q0 -58 -40 -92.5t-108 -34.5q-69 0 -109.5 34.5t-40.5 92.5q0 69 62 98q-47 28 -47 87q0 53 36 84t99 31t98.5 -31t35.5 -84q0 -59 -47 -87zM177 167q-53 0 -53 -45q0 -46 53 -46q24 0 37.5 12t13.5 34q0 21 -13.5 33t-37.5 12zM177 -104
q31 0 48.5 14t17.5 39q0 26 -17.5 40.5t-48.5 14.5t-49 -14.5t-18 -40.5q0 -53 67 -53z" />
    <glyph glyph-name="uni2089" unicode="&#x2089;" horiz-adv-x="352" 
d="M176 246q69 0 111.5 -40.5t42.5 -104.5q0 -58 -32.5 -115t-114.5 -161h-98q25 29 114 137q-13 -3 -26 -3q-67 0 -109 39.5t-42 102.5q0 64 43 104.5t111 40.5zM176 33q32 0 51.5 18.5t19.5 49.5q0 29 -20 48t-51 19t-51 -19t-20 -48q0 -30 20 -49t51 -19z" />
    <glyph glyph-name="uni208A" unicode="&#x208a;" horiz-adv-x="352" 
d="M320 19v-66h-111v-106h-67v106h-111v66h111v107h67v-107h111z" />
    <glyph glyph-name="uni208B" unicode="&#x208b;" horiz-adv-x="351" 
d="M31 19h288v-66h-288v66z" />
    <glyph glyph-name="uni208C" unicode="&#x208c;" horiz-adv-x="351" 
d="M31 89h288v-67h-288v67zM31 -50h288v-66h-288v66z" />
    <glyph glyph-name="uni208D" unicode="&#x208d;" horiz-adv-x="229" 
d="M219 -251l-61 -40q-130 116 -130 280q0 165 130 279l60 -40q-114 -94 -114 -239t115 -240z" />
    <glyph glyph-name="uni208E" unicode="&#x208e;" horiz-adv-x="229" 
d="M10 -251q115 95 115 240t-114 239l60 40q130 -114 130 -279q0 -164 -130 -280z" />
    <glyph glyph-name="Euro" unicode="&#x20ac;" horiz-adv-x="536" 
d="M352 93q76 0 137 49l28 -101q-69 -53 -168 -53q-108 0 -184.5 65t-102.5 179h-44v74h35q-1 9 -1 27q0 19 1 29h-35v75h45q26 113 102 177.5t184 64.5q100 0 168 -54l-28 -100q-61 49 -137 49q-62 0 -108 -36.5t-66 -100.5h287l-20 -75h-281q-1 -9 -1 -29q0 -18 1 -27h265
l-21 -74h-231q20 -66 66 -102.5t109 -36.5z" />
    <glyph glyph-name="uni20B9" unicode="&#x20b9;" horiz-adv-x="536" 
d="M501 582h-125q24 -24 36 -55h89v-85h-77q-5 -69 -46 -117t-111 -66l181 -259h-136l-241 350h119q52 0 83.5 24.5t38.5 67.5h-277v85h264q-31 55 -109 55h-155v85h466v-85z" />
    <glyph glyph-name="uni20BA" unicode="&#x20ba;" horiz-adv-x="536" 
d="M400 327h111q0 -171 -77.5 -249t-249.5 -78h-111v234l-60 -30v88l60 30v62l-60 -30v89l60 30v194h111v-140l138 68v-88l-138 -68v-62l138 68v-88l-138 -68v-184q120 0 168 49.5t48 172.5z" />
    <glyph glyph-name="uni2113" unicode="&#x2113;" horiz-adv-x="425" 
d="M269 96q47 0 87 23l26 -100q-57 -28 -130 -28q-90 0 -138 47t-51 139l-50 -26v117q18 9 50 27v203q0 111 39 162t123 51q82 0 123 -44t41 -120q0 -80 -48.5 -153t-165.5 -150v-35q0 -61 22 -87t72 -26zM175 523v-152q103 83 103 176q0 67 -52 67q-27 0 -39 -20t-12 -71z
" />
    <glyph glyph-name="published" unicode="&#x2117;" horiz-adv-x="771" 
d="M386 679q142 0 243.5 -101.5t101.5 -243.5q0 -143 -101 -244.5t-244 -101.5t-244.5 101.5t-101.5 244.5t101.5 244t244.5 101zM386 57q114 0 195 81t81 196q0 114 -81 195t-195 81q-115 0 -196 -81t-81 -195q0 -115 81 -196t196 -81zM420 526q62 0 100 -34t38 -91
t-38 -91t-100 -34h-76v-135h-79v385h155zM420 352q28 0 43.5 13t15.5 36t-15.5 36t-43.5 13h-76v-98h76z" />
    <glyph glyph-name="trademark" unicode="&#x2122;" horiz-adv-x="681" 
d="M252 667v-66h-85v-236h-70v236h-86v66h241zM645 667v-302h-72v208l-94 -160h-26l-95 162v-210h-70v302h94l84 -142l84 142h95z" />
    <glyph glyph-name="uni2126" unicode="&#x2126;" horiz-adv-x="777" 
d="M606 97h131v-97h-298v98q81 16 129.5 79.5t48.5 155.5q0 108 -63.5 174.5t-164.5 66.5t-164.5 -66.5t-63.5 -174.5q0 -92 48 -155.5t129 -79.5v-98h-297v97h131q-122 87 -122 256q0 145 94 235t245 90t245 -90t94 -235q0 -169 -122 -256z" />
    <glyph glyph-name="estimated" unicode="&#x212e;" horiz-adv-x="812" 
d="M406 -10q-171 0 -272 95q-104 99 -104 248q0 148 105 248q103 96 271 96q154 0 260 -85q106 -86 116 -269h-598q-8 0 -11.5 -2.5t-3.5 -14.5v-168q0 -33 70.5 -77t166.5 -44q69 0 132 30.5t106 78.5h70q-72 -80 -141 -107q-73 -29 -167 -29zM184 345h441q11 0 14 3.5
t3 12.5v165q0 41 -79 84t-159 43q-61 0 -118.5 -24.5t-87 -52t-29.5 -43.5v-180q0 -8 15 -8z" />
    <glyph glyph-name="arrowleft" unicode="&#x2190;" horiz-adv-x="758" 
d="M718 386v-104h-489l176 -169l-72 -72l-293 293l293 293l72 -71l-176 -170h489z" />
    <glyph glyph-name="arrowup" unicode="&#x2191;" horiz-adv-x="666" 
d="M626 385l-71 -72l-170 176v-489h-104v489l-170 -176l-71 72l293 293z" />
    <glyph glyph-name="arrowright" unicode="&#x2192;" horiz-adv-x="758" 
d="M425 627l293 -293l-293 -293l-72 71l176 170h-489v104h489l-176 169z" />
    <glyph glyph-name="arrowdown" unicode="&#x2193;" horiz-adv-x="666" 
d="M555 351l71 -72l-293 -293l-293 293l71 72l170 -176v489h104v-489z" />
    <glyph glyph-name="uni2196" unicode="&#x2196;" horiz-adv-x="596" 
d="M556 140l-73 -74l-346 346l4 -244h-101v414h415v-100l-245 4z" />
    <glyph glyph-name="uni2197" unicode="&#x2197;" horiz-adv-x="596" 
d="M142 581l414 1v-415h-101l4 244l-346 -346l-73 74l346 346l-244 -5v101z" />
    <glyph glyph-name="uni2198" unicode="&#x2198;" horiz-adv-x="596" 
d="M455 507h101v-414h-415v101l245 -5l-346 346l73 74l346 -345z" />
    <glyph glyph-name="uni2199" unicode="&#x2199;" horiz-adv-x="596" 
d="M556 535l-346 -346l244 5v-101h-414v414h101l-4 -244l346 346z" />
    <glyph glyph-name="partialdiff" unicode="&#x2202;" horiz-adv-x="558" 
d="M271 678q124 0 198 -90t74 -260q0 -168 -71.5 -253t-192.5 -85q-107 0 -174.5 64.5t-67.5 167.5q0 100 63.5 162.5t164.5 62.5q111 0 174 -79q-7 106 -55 158.5t-128 52.5q-62 0 -118 -32l-18 93q64 38 151 38zM279 88q61 0 99 37t38 97t-38 97t-99 37q-62 0 -100 -37
t-38 -97t38 -97t100 -37z" />
    <glyph glyph-name="uni2206" unicode="&#x2206;" horiz-adv-x="652" 
d="M389 667l263 -667h-652l263 667h126zM157 105h338l-169 437z" />
    <glyph glyph-name="product" unicode="&#x220f;" horiz-adv-x="698" 
d="M80 -175v842h537v-842h-111v737h-314v-737h-112z" />
    <glyph glyph-name="summation" unicode="&#x2211;" horiz-adv-x="571" 
d="M532 667v-105h-349l229 -316l-229 -316h349v-105h-493v88l241 333l-241 333v88h493z" />
    <glyph glyph-name="minus" unicode="&#x2212;" horiz-adv-x="540" 
d="M45 306h450v-92h-450v92z" />
    <glyph glyph-name="uni2215" unicode="&#x2215;" horiz-adv-x="536" 
d="M138 0h-107l368 667h106z" />
    <glyph glyph-name="uni2219" unicode="&#x2219;" horiz-adv-x="536" 
d="M276 188q-32 0 -52.5 20.5t-20.5 52.5t20.5 52.5t52.5 20.5q31 0 51.5 -20.5t20.5 -52.5t-20.5 -52.5t-51.5 -20.5z" />
    <glyph glyph-name="radical" unicode="&#x221a;" horiz-adv-x="693" 
d="M578 702h105l-323 -877h-143l-112 377h-95v94h173l109 -371z" />
    <glyph glyph-name="infinity" unicode="&#x221e;" horiz-adv-x="817" 
d="M598 446q82 0 133 -52t51 -135q0 -82 -51 -133.5t-133 -51.5q-106 0 -189 116q-40 -55 -84.5 -85.5t-105.5 -30.5q-82 0 -133 51.5t-51 133.5q0 83 51 135t133 52q61 0 105.5 -31t84.5 -86q39 55 83.5 86t105.5 31zM219 167q39 0 68.5 23t65.5 69q-36 47 -65.5 70.5
t-68.5 23.5t-61.5 -25t-22.5 -69q0 -43 22.5 -67.5t61.5 -24.5zM598 167q39 0 61.5 24.5t22.5 67.5q0 44 -22.5 69t-61.5 25q-40 0 -70 -24t-63 -70q33 -45 63 -68.5t70 -23.5z" />
    <glyph glyph-name="integral" unicode="&#x222b;" horiz-adv-x="509" 
d="M-5 -159l20 96q26 -16 61 -16q71 0 85 87l76 491q14 90 58.5 134.5t114.5 44.5q66 0 104 -26l-19 -95q-26 16 -61 16q-72 0 -85 -87l-77 -491q-13 -90 -58 -134.5t-114 -44.5q-64 0 -105 25z" />
    <glyph glyph-name="approxequal" unicode="&#x2248;" horiz-adv-x="540" 
d="M56 291q0 76 34.5 122t98.5 46q37 0 66 -19.5t51.5 -38.5t44.5 -19q23 0 35.5 21t12.5 56h85q0 -76 -34.5 -122t-98.5 -46q-37 0 -66 19t-51.5 38t-44.5 19q-23 0 -35.5 -21t-12.5 -55h-85zM56 61q0 76 34.5 122t98.5 46q37 0 66 -19t51.5 -38t44.5 -19q23 0 35.5 21
t12.5 55h85q0 -76 -34.5 -122t-98.5 -46q-37 0 -66 19.5t-51.5 38.5t-44.5 19q-23 0 -35.5 -21t-12.5 -56h-85z" />
    <glyph glyph-name="notequal" unicode="&#x2260;" horiz-adv-x="540" 
d="M495 323h-135l-75 -126h210v-91h-257l-65 -110h-89l64 110h-103v91h150l75 126h-225v92h271l65 109h90l-64 -109h88v-92z" />
    <glyph glyph-name="lessequal" unicode="&#x2264;" horiz-adv-x="540" 
d="M495 532v-98l-366 -111l366 -111v-97l-450 139v139zM45 -12v91h450v-91h-450z" />
    <glyph glyph-name="greaterequal" unicode="&#x2265;" horiz-adv-x="540" 
d="M45 532l450 -139v-139l-450 -139v97l366 111l-366 111v98zM45 -12v91h450v-91h-450z" />
    <glyph glyph-name="lozenge" unicode="&#x25ca;" horiz-adv-x="622" 
d="M381 667l216 -421l-216 -421h-140l-216 421l216 421h140zM311 -90l167 336l-167 336l-167 -336z" />
    <glyph glyph-name="uni2610" unicode="&#x2610;" horiz-adv-x="707" 
d="M20 0v667h667v-667h-667zM102 82h503v503h-503v-503z" />
    <glyph glyph-name="uni2611" unicode="&#x2611;" horiz-adv-x="707" 
d="M20 667h667v-667h-667v667zM605 82v503h-503v-503h503zM265 114q-56 145 -137 180l47 72q80 -28 130 -139q87 272 221 335l55 -79q-66 -30 -127 -129.5t-98 -239.5h-91z" />
    <glyph glyph-name="uni2612" unicode="&#x2612;" horiz-adv-x="707" 
d="M20 667h667v-667h-667v667zM605 82v503h-503v-503h503zM196 106l-68 49q57 92 139 189q-65 79 -114 154l73 57q50 -75 105 -142q93 95 184 152l61 -85q-90 -50 -185 -138q62 -69 151 -157l-66 -68q-71 70 -150 158q-70 -77 -130 -169z" />
    <glyph glyph-name="uni2713" unicode="&#x2713;" horiz-adv-x="707" 
d="M603 675l62 -105q-99 -42 -195.5 -199.5t-154.5 -371.5h-97q-86 205 -199 248l52 95q112 -36 187 -199q66 209 155 347.5t190 184.5z" />
    <glyph glyph-name="uni2717" unicode="&#x2717;" horiz-adv-x="707" 
d="M680 573q-149 -86 -292 -230q111 -136 224 -249l-79 -79q-105 108 -221 249q-120 -136 -203 -269l-81 55q95 157 217 298q-103 132 -175 249l88 65q67 -111 161 -232q145 152 290 245z" />
    <glyph glyph-name="uniFEFF" unicode="&#xfeff;" 
 />
    <glyph glyph-name="a.ss01" horiz-adv-x="493" 
d="M223 488q102 0 157 -51t55 -145v-292h-97v48q-45 -59 -139 -59q-80 0 -126.5 40.5t-46.5 109.5q0 71 50 112t136 41q66 0 119 -22v12q0 110 -124 110q-69 0 -129 -37l-21 90q70 43 166 43zM222 71q50 0 79.5 25t29.5 71v26q-45 17 -97 17q-104 0 -104 -71q0 -32 23.5 -50
t68.5 -18z" />
    <glyph glyph-name="aacute.ss01" horiz-adv-x="493" 
d="M364 703l-122 -148h-102l104 148h120zM223 488q102 0 157 -51t55 -145v-292h-97v48q-45 -59 -139 -59q-80 0 -126.5 40.5t-46.5 109.5q0 71 50 112t136 41q66 0 119 -22v12q0 110 -124 110q-69 0 -129 -37l-21 90q70 43 166 43zM222 71q50 0 79.5 25t29.5 71v26
q-45 17 -97 17q-104 0 -104 -71q0 -32 23.5 -50t68.5 -18z" />
    <glyph glyph-name="abreve.ss01" horiz-adv-x="493" 
d="M232 551q-62 0 -102 41.5t-40 105.5h80q0 -29 17 -46.5t45 -17.5t45.5 18t17.5 46h79q0 -64 -39.5 -105.5t-102.5 -41.5zM223 488q102 0 157 -51t55 -145v-292h-97v48q-45 -59 -139 -59q-80 0 -126.5 40.5t-46.5 109.5q0 71 50 112t136 41q66 0 119 -22v12
q0 110 -124 110q-69 0 -129 -37l-21 90q70 43 166 43zM222 71q50 0 79.5 25t29.5 71v26q-45 17 -97 17q-104 0 -104 -71q0 -32 23.5 -50t68.5 -18z" />
    <glyph glyph-name="acircumflex.ss01" horiz-adv-x="493" 
d="M232 639l-60 -84h-97l99 148h117l98 -148h-97zM223 488q102 0 157 -51t55 -145v-292h-97v48q-45 -59 -139 -59q-80 0 -126.5 40.5t-46.5 109.5q0 71 50 112t136 41q66 0 119 -22v12q0 110 -124 110q-69 0 -129 -37l-21 90q70 43 166 43zM222 71q50 0 79.5 25t29.5 71v26
q-45 17 -97 17q-104 0 -104 -71q0 -32 23.5 -50t68.5 -18z" />
    <glyph glyph-name="adieresis.ss01" horiz-adv-x="493" 
d="M136 573q-28 0 -46 17.5t-18 45.5t18 45.5t46 17.5q27 0 44.5 -17.5t17.5 -45.5t-17.5 -45.5t-44.5 -17.5zM328 573q-28 0 -45.5 17.5t-17.5 45.5t17.5 45.5t45.5 17.5t45.5 -17.5t17.5 -45.5t-17.5 -45.5t-45.5 -17.5zM223 488q102 0 157 -51t55 -145v-292h-97v48
q-45 -59 -139 -59q-80 0 -126.5 40.5t-46.5 109.5q0 71 50 112t136 41q66 0 119 -22v12q0 110 -124 110q-69 0 -129 -37l-21 90q70 43 166 43zM222 71q50 0 79.5 25t29.5 71v26q-45 17 -97 17q-104 0 -104 -71q0 -32 23.5 -50t68.5 -18z" />
    <glyph glyph-name="agrave.ss01" horiz-adv-x="493" 
d="M324 555h-102l-122 148h120zM223 488q102 0 157 -51t55 -145v-292h-97v48q-45 -59 -139 -59q-80 0 -126.5 40.5t-46.5 109.5q0 71 50 112t136 41q66 0 119 -22v12q0 110 -124 110q-69 0 -129 -37l-21 90q70 43 166 43zM222 71q50 0 79.5 25t29.5 71v26q-45 17 -97 17
q-104 0 -104 -71q0 -32 23.5 -50t68.5 -18z" />
    <glyph glyph-name="amacron.ss01" horiz-adv-x="493" 
d="M377 674v-80h-290v80h290zM223 488q102 0 157 -51t55 -145v-292h-97v48q-45 -59 -139 -59q-80 0 -126.5 40.5t-46.5 109.5q0 71 50 112t136 41q66 0 119 -22v12q0 110 -124 110q-69 0 -129 -37l-21 90q70 43 166 43zM222 71q50 0 79.5 25t29.5 71v26q-45 17 -97 17
q-104 0 -104 -71q0 -32 23.5 -50t68.5 -18z" />
    <glyph glyph-name="aogonek.ss01" horiz-adv-x="493" 
d="M437 -102l15 -64q-32 -20 -79 -20q-39 0 -61.5 19t-22.5 52q0 55 70 115h-21v48q-45 -59 -139 -59q-80 0 -126.5 40.5t-46.5 109.5q0 71 50 112t136 41q66 0 119 -22v12q0 110 -124 110q-69 0 -129 -37l-21 90q70 43 166 43q102 0 157 -51t55 -145v-292h-13l9 -2
q-62 -55 -62 -83q0 -27 31 -27q19 0 37 10zM222 71q50 0 79.5 25t29.5 71v26q-45 17 -97 17q-104 0 -104 -71q0 -32 23.5 -50t68.5 -18z" />
    <glyph glyph-name="aring.ss01" horiz-adv-x="493" 
d="M232 540q-43 0 -73.5 30.5t-30.5 73.5q0 44 30.5 74t73.5 30q44 0 74.5 -30t30.5 -74q0 -43 -30.5 -73.5t-74.5 -30.5zM232 698q-23 0 -38.5 -15.5t-15.5 -38.5q0 -22 16 -38t38 -16q23 0 38.5 15.5t15.5 38.5t-15.5 38.5t-38.5 15.5zM223 488q102 0 157 -51t55 -145
v-292h-97v48q-45 -59 -139 -59q-80 0 -126.5 40.5t-46.5 109.5q0 71 50 112t136 41q66 0 119 -22v12q0 110 -124 110q-69 0 -129 -37l-21 90q70 43 166 43zM222 71q50 0 79.5 25t29.5 71v26q-45 17 -97 17q-104 0 -104 -71q0 -32 23.5 -50t68.5 -18z" />
    <glyph glyph-name="atilde.ss01" horiz-adv-x="493" 
d="M173 611q-18 0 -27.5 -16.5t-9.5 -43.5h-77q0 67 28 108t78 41q29 0 52.5 -15t41.5 -30t32 -15q18 0 27.5 16.5t9.5 43.5h77q0 -67 -28 -108t-78 -41q-29 0 -52.5 15t-41.5 30t-32 15zM223 488q102 0 157 -51t55 -145v-292h-97v48q-45 -59 -139 -59q-80 0 -126.5 40.5
t-46.5 109.5q0 71 50 112t136 41q66 0 119 -22v12q0 110 -124 110q-69 0 -129 -37l-21 90q70 43 166 43zM222 71q50 0 79.5 25t29.5 71v26q-45 17 -97 17q-104 0 -104 -71q0 -32 23.5 -50t68.5 -18z" />
    <glyph glyph-name="f_i" horiz-adv-x="562" 
d="M245 614q-64 0 -64 -73v-63h122v-97h-122v-381h-104v381h-64v97h64v72q0 77 39 118.5t113 41.5q51 0 86 -16l-17 -90q-24 10 -53 10zM443 571q-30 0 -48.5 18t-18.5 47t18.5 47t48.5 18q29 0 48 -18.5t19 -46.5t-19 -46.5t-48 -18.5zM391 0v478h104v-478h-104z" />
    <glyph glyph-name="f_l" horiz-adv-x="596" 
d="M245 614q-64 0 -64 -73v-63h122v-97h-122v-381h-104v381h-64v97h64v72q0 77 39 118.5t113 41.5q51 0 86 -16l-17 -90q-24 10 -53 10zM575 97l11 -91q-27 -11 -74 -11q-63 0 -92 31t-29 100v576h104v-557q0 -54 47 -54q20 0 33 6z" />
    <glyph glyph-name="zero.lf" horiz-adv-x="566" 
d="M283 -12q-116 0 -184 93.5t-68 251.5q0 159 68 252.5t184 93.5t184 -93.5t68 -252.5q0 -158 -68 -251.5t-184 -93.5zM283 93q66 0 103 64t37 176t-37 176t-103 64t-103 -64t-37 -176t37 -176t103 -64z" />
    <glyph glyph-name="one.lf" horiz-adv-x="390" 
d="M270 679h10v-679h-111v527l-145 -59l-21 103z" />
    <glyph glyph-name="two.lf" horiz-adv-x="536" 
d="M165 104h317v-104h-456q6 69 33 124.5t63 89t76.5 65t74 55t56 57t22.5 71.5q0 51 -33.5 81t-93.5 30q-86 0 -148 -62l-33 100q77 67 188 67q104 0 167.5 -58.5t63.5 -155.5q0 -55 -25 -100t-63.5 -76.5t-79 -58.5t-77.5 -59.5t-52 -65.5z" />
    <glyph glyph-name="three.lf" horiz-adv-x="536" 
d="M345 343q113 -42 113 -157q0 -91 -67.5 -144.5t-180.5 -53.5q-108 0 -182 44l23 104q61 -43 154 -43q67 0 104 25.5t37 72.5t-38.5 73t-109.5 26h-47v101h47q61 0 93 24t32 68q0 42 -29.5 66t-81.5 24q-79 0 -143 -48l-22 99q76 54 175 54q95 0 153.5 -51.5t58.5 -135.5
q0 -103 -89 -148z" />
    <glyph glyph-name="four.lf" horiz-adv-x="550" 
d="M438 249h88v-100h-88v-149h-107v149h-307v100l246 418h168v-418zM138 249h193v327z" />
    <glyph glyph-name="five.lf" horiz-adv-x="536" 
d="M240 -11q-119 0 -202 64l41 102q67 -61 156 -61q65 0 102.5 32.5t37.5 88.5q0 55 -35.5 85t-102.5 30q-60 0 -110 -28l-71 22l46 343h336v-105h-239l-21 -149q36 12 79 12q103 0 166 -58.5t63 -153.5q0 -100 -68 -162t-178 -62z" />
    <glyph glyph-name="six.lf" horiz-adv-x="536" 
d="M273 445q103 0 167.5 -62.5t64.5 -163.5q0 -103 -65.5 -167t-170.5 -64q-106 0 -171.5 64t-65.5 167q0 91 54 187t182 261h130q-106 -131 -180 -230q24 8 55 8zM269 93q56 0 90.5 35t34.5 91t-34.5 91t-90.5 35t-91 -35t-35 -91t35 -91t91 -35z" />
    <glyph glyph-name="seven.lf" horiz-adv-x="509" 
d="M503 667l-313 -667h-117l264 562h-315v105h481z" />
    <glyph glyph-name="eight.lf" horiz-adv-x="536" 
d="M393 351q105 -45 105 -161q0 -92 -62 -147t-168 -55t-168 55t-62 147q0 116 105 161q-79 44 -79 144q0 84 54.5 133.5t149.5 49.5t149.5 -49.5t54.5 -133.5q0 -100 -79 -144zM268 573q-46 0 -71 -22.5t-25 -63.5q0 -42 25.5 -65.5t70.5 -23.5t70.5 23.5t25.5 65.5
q0 41 -25 63.5t-71 22.5zM268 93q56 0 87.5 27t31.5 76q0 48 -32 75t-87 27t-87 -27t-32 -75q0 -49 31.5 -76t87.5 -27z" />
    <glyph glyph-name="nine.lf" horiz-adv-x="536" 
d="M267 679q106 0 171.5 -64t65.5 -167q0 -91 -54 -187t-182 -261h-130q106 131 180 230q-24 -8 -55 -8q-103 0 -167.5 62.5t-64.5 163.5q0 103 65.5 167t170.5 64zM267 322q56 0 91 35t35 91t-35 91t-91 35t-90.5 -35t-34.5 -91t34.5 -91t90.5 -35z" />
    <glyph glyph-name="zero.dnom" horiz-adv-x="350" 
d="M175 -7q-71 0 -112 57.5t-41 155.5q0 99 41 157t112 58q70 0 111.5 -58t41.5 -157q0 -98 -41 -155.5t-112 -57.5zM175 71q33 0 51.5 36t18.5 99q0 64 -18.5 100t-51.5 36q-34 0 -52 -36t-18 -100t18.5 -99.5t51.5 -35.5z" />
    <glyph glyph-name="one.dnom" horiz-adv-x="358" 
d="M240 78h81v-78h-253v78h89v231l-87 -33l-17 77l180 68h7v-343z" />
    <glyph glyph-name="two.dnom" horiz-adv-x="351" 
d="M122 78h191v-78h-295q4 53 26 93t49.5 62.5t54.5 41t45.5 40t18.5 47.5q0 27 -19.5 42.5t-53.5 15.5q-55 0 -91 -36l-24 75q47 39 120 39q69 0 110.5 -36.5t41.5 -98.5q0 -33 -14 -59.5t-36.5 -45t-45.5 -34t-45.5 -33.5t-32.5 -35z" />
    <glyph glyph-name="three.dnom" horiz-adv-x="354" 
d="M228 213q70 -27 70 -98q0 -56 -44.5 -89t-117.5 -33q-70 0 -116 27l16 79q37 -28 97 -28q81 0 81 50q0 53 -85 53h-30v74h30q70 0 70 48q0 46 -62 46q-49 0 -89 -29l-16 75q50 32 112 32t100.5 -32t38.5 -84q0 -63 -55 -91z" />
    <glyph glyph-name="four.dnom" horiz-adv-x="346" 
d="M284 160h51v-75h-51v-85h-81v85h-191v75l147 254h125v-254zM97 160h106v183z" />
    <glyph glyph-name="five.dnom" horiz-adv-x="354" 
d="M158 -7q-76 0 -131 41l31 75q41 -38 97 -38q37 0 58.5 17.5t21.5 47.5q0 60 -80 60q-30 0 -65 -15l-51 16l28 217h221v-79h-148l-11 -73q19 6 42 6q65 0 106.5 -37.5t41.5 -96.5q0 -63 -45 -102t-116 -39z" />
    <glyph glyph-name="six.dnom" horiz-adv-x="352" 
d="M179 280q67 0 109.5 -39.5t42.5 -102.5q0 -64 -43.5 -104.5t-111.5 -40.5t-111 40.5t-43 104.5q0 57 32.5 114t114.5 162h98q-25 -29 -114 -137q13 3 26 3zM176 71q32 0 51.5 18.5t19.5 48.5t-20 49t-51 19t-51 -19t-20 -49q0 -29 20 -48t51 -19z" />
    <glyph glyph-name="seven.dnom" horiz-adv-x="354" 
d="M336 414l-196 -414h-88l159 335h-190v79h315z" />
    <glyph glyph-name="eight.dnom" horiz-adv-x="353" 
d="M264 218q61 -29 61 -98q0 -58 -40 -92.5t-108 -34.5q-69 0 -109.5 34.5t-40.5 92.5q0 69 62 98q-47 28 -47 87q0 53 36 84t99 31t98.5 -31t35.5 -84q0 -59 -47 -87zM177 342q-53 0 -53 -45q0 -46 53 -46q24 0 37.5 12t13.5 34q0 21 -13.5 33t-37.5 12zM177 71
q31 0 48.5 14t17.5 39q0 26 -17.5 40.5t-48.5 14.5t-49 -14.5t-18 -40.5q0 -53 67 -53z" />
    <glyph glyph-name="nine.dnom" horiz-adv-x="352" 
d="M176 421q69 0 111.5 -40.5t42.5 -104.5q0 -58 -32.5 -115t-114.5 -161h-98q25 29 114 137q-13 -3 -26 -3q-67 0 -109 39.5t-42 102.5q0 64 43 104.5t111 40.5zM176 208q32 0 51.5 18.5t19.5 49.5q0 29 -20 48t-51 19t-51 -19t-20 -48q0 -30 20 -49t51 -19z" />
    <glyph glyph-name="zero.numr" horiz-adv-x="350" 
d="M175 246q-71 0 -112 57.5t-41 155.5q0 99 41 157t112 58q70 0 111.5 -58t41.5 -157q0 -98 -41 -155.5t-112 -57.5zM175 324q33 0 51.5 36t18.5 99q0 64 -18.5 100t-51.5 36q-34 0 -52 -36t-18 -100t18.5 -99.5t51.5 -35.5z" />
    <glyph glyph-name="one.numr" horiz-adv-x="358" 
d="M240 331h81v-78h-253v78h89v231l-87 -33l-17 77l180 68h7v-343z" />
    <glyph glyph-name="two.numr" horiz-adv-x="351" 
d="M122 331h191v-78h-295q4 53 26 93t49.5 62.5t54.5 41t45.5 40t18.5 47.5q0 27 -19.5 42.5t-53.5 15.5q-55 0 -91 -36l-24 75q47 39 120 39q69 0 110.5 -36.5t41.5 -98.5q0 -33 -14 -59.5t-36.5 -45t-45.5 -34t-45.5 -33.5t-32.5 -35z" />
    <glyph glyph-name="three.numr" horiz-adv-x="354" 
d="M228 466q70 -27 70 -98q0 -56 -44.5 -89t-117.5 -33q-70 0 -116 27l16 79q37 -28 97 -28q81 0 81 50q0 53 -85 53h-30v74h30q70 0 70 48q0 46 -62 46q-49 0 -89 -29l-16 75q50 32 112 32t100.5 -32t38.5 -84q0 -63 -55 -91z" />
    <glyph glyph-name="four.numr" horiz-adv-x="346" 
d="M284 413h51v-75h-51v-85h-81v85h-191v75l147 254h125v-254zM97 413h106v183z" />
    <glyph glyph-name="five.numr" horiz-adv-x="354" 
d="M158 246q-76 0 -131 41l31 75q41 -38 97 -38q37 0 58.5 17.5t21.5 47.5q0 60 -80 60q-30 0 -65 -15l-51 16l28 217h221v-79h-148l-11 -73q19 6 42 6q65 0 106.5 -37.5t41.5 -96.5q0 -63 -45 -102t-116 -39z" />
    <glyph glyph-name="six.numr" horiz-adv-x="352" 
d="M179 533q67 0 109.5 -39.5t42.5 -102.5q0 -64 -43.5 -104.5t-111.5 -40.5t-111 40.5t-43 104.5q0 57 32.5 114t114.5 162h98q-25 -29 -114 -137q13 3 26 3zM176 324q32 0 51.5 18.5t19.5 48.5t-20 49t-51 19t-51 -19t-20 -49q0 -29 20 -48t51 -19z" />
    <glyph glyph-name="seven.numr" horiz-adv-x="354" 
d="M336 667l-196 -414h-88l159 335h-190v79h315z" />
    <glyph glyph-name="eight.numr" horiz-adv-x="353" 
d="M264 471q61 -29 61 -98q0 -58 -40 -92.5t-108 -34.5q-69 0 -109.5 34.5t-40.5 92.5q0 69 62 98q-47 28 -47 87q0 53 36 84t99 31t98.5 -31t35.5 -84q0 -59 -47 -87zM177 595q-53 0 -53 -45q0 -46 53 -46q24 0 37.5 12t13.5 34q0 21 -13.5 33t-37.5 12zM177 324
q31 0 48.5 14t17.5 39q0 26 -17.5 40.5t-48.5 14.5t-49 -14.5t-18 -40.5q0 -53 67 -53z" />
    <glyph glyph-name="nine.numr" horiz-adv-x="352" 
d="M176 674q69 0 111.5 -40.5t42.5 -104.5q0 -58 -32.5 -115t-114.5 -161h-98q25 29 114 137q-13 -3 -26 -3q-67 0 -109 39.5t-42 102.5q0 64 43 104.5t111 40.5zM176 461q32 0 51.5 18.5t19.5 49.5q0 29 -20 48t-51 19t-51 -19t-20 -48q0 -30 20 -49t51 -19z" />
    <glyph glyph-name="caroncomb.alt" 
d="M-168 531l23 171h105l-55 -171h-73z" />
    <glyph glyph-name="uni0308.case" 
d="M-295 713q-28 0 -46 17.5t-18 44.5q0 29 17.5 46.5t46.5 17.5q27 0 44.5 -18t17.5 -46q0 -27 -17.5 -44.5t-44.5 -17.5zM-103 713q-28 0 -45.5 17.5t-17.5 44.5q0 28 17.5 46t45.5 18t45.5 -18t17.5 -46q0 -27 -17.5 -44.5t-45.5 -17.5z" />
    <glyph glyph-name="uni0307.case" 
d="M-108 711q-30 0 -48.5 18t-18.5 46q0 29 18.5 47.5t48.5 18.5t49 -18.5t19 -47.5q0 -28 -19 -46t-49 -18z" />
    <glyph glyph-name="gravecomb.case" 
d="M-40 715h-102l-122 148h120z" />
    <glyph glyph-name="acutecomb.case" 
d="M-264 715l104 148h120l-122 -148h-102z" />
    <glyph glyph-name="uni030B.case" 
d="M-427 715l104 148h116l-122 -148h-98zM-259 715l103 148h116l-122 -148h-97z" />
    <glyph glyph-name="uni0302.case" 
d="M-40 715h-97l-60 84l-60 -84h-97l99 148h117z" />
    <glyph glyph-name="uni030C.case" 
d="M-137 863h97l-98 -148h-117l-99 148h97l60 -84z" />
    <glyph glyph-name="uni0306.case" 
d="M-119 858h79q0 -64 -39.5 -105.5t-102.5 -41.5q-62 0 -102 41.5t-40 105.5h80q0 -29 17 -46.5t45 -17.5t45.5 18t17.5 46z" />
    <glyph glyph-name="uni030A.case" 
d="M-145 700q-43 0 -73.5 30.5t-30.5 73.5q0 44 30.5 74t73.5 30q44 0 74.5 -30t30.5 -74q0 -43 -30.5 -73.5t-74.5 -30.5zM-145 750q23 0 38.5 15.5t15.5 38.5t-15.5 38.5t-38.5 15.5t-38.5 -15.5t-15.5 -38.5q0 -22 15.5 -38t38.5 -16z" />
    <glyph glyph-name="tildecomb.case" 
d="M-386 711q0 67 28 108t78 41q29 0 52.5 -15t41.5 -30t32 -15q18 0 27.5 16.5t9.5 43.5h77q0 -67 -28 -108t-78 -41q-29 0 -52.5 15t-41.5 30t-32 15q-18 0 -27.5 -16.5t-9.5 -43.5h-77z" />
    <glyph glyph-name="uni0304.case" 
d="M-330 809h290v-80h-290v80z" />
    <glyph glyph-name="uni0335.case" 
d="M-394 388h354v-92h-354v92z" />
    <glyph glyph-name="uni0336.case" 
d="M-699 589h659v-83h-659v83z" />
    <glyph glyph-name="uni0337.case" 
d="M-386 320l346 200v-100l-346 -199v99z" />
    <glyph glyph-name="uni0338.case" 
d="M-108 680l68 -41l-536 -652l-68 41z" />
    <glyph glyph-name="uni0308.narrow" 
d="M-266 573q-27 0 -44.5 17.5t-17.5 45.5t17.5 45.5t44.5 17.5t44 -17.5t17 -45.5t-17 -45.5t-44 -17.5zM-102 573q-27 0 -44 17.5t-17 45.5t17 45.5t44 17.5q28 0 45 -17.5t17 -45.5t-17 -45.5t-45 -17.5z" />
    <glyph glyph-name="tildecomb.narrow" 
d="M-336 551q0 66 24 107.5t67 41.5q26 0 46.5 -15t34.5 -30t25 -15q27 0 27 60h72q0 -67 -24 -108t-67 -41q-26 0 -46.5 15t-34.5 30t-25 15q-27 0 -27 -60h-72z" />
    <glyph glyph-name="uni0304.narrow" 
d="M-299 674h259v-80h-259v80z" />
    <glyph glyph-name="acute.case" horiz-adv-x="304" 
d="M40 715l104 148h120l-122 -148h-102z" />
    <glyph glyph-name="breve.case" horiz-adv-x="364" 
d="M245 858h79q0 -64 -39.5 -105.5t-102.5 -41.5q-62 0 -102 41.5t-40 105.5h80q0 -29 17 -46.5t45 -17.5t45.5 18t17.5 46z" />
    <glyph glyph-name="caron.case" horiz-adv-x="394" 
d="M257 863h97l-98 -148h-117l-99 148h97l60 -84z" />
    <glyph glyph-name="circumflex.case" horiz-adv-x="394" 
d="M354 715h-97l-60 84l-60 -84h-97l99 148h117z" />
    <glyph glyph-name="dieresis.case" horiz-adv-x="399" 
d="M104 713q-28 0 -46 17.5t-18 44.5q0 29 18 46.5t46 17.5q27 0 44.5 -18t17.5 -46q0 -27 -17.5 -44.5t-44.5 -17.5zM296 713q-28 0 -45.5 17.5t-17.5 44.5q0 28 17.5 46t45.5 18t45.5 -18t17.5 -46q0 -27 -17.5 -44.5t-45.5 -17.5z" />
    <glyph glyph-name="dotaccent.case" horiz-adv-x="215" 
d="M107 711q-30 0 -48.5 18t-18.5 46q0 29 18.5 47.5t48.5 18.5t49 -18.5t19 -47.5q0 -28 -19 -46t-49 -18z" />
    <glyph glyph-name="grave.case" horiz-adv-x="304" 
d="M264 715h-102l-122 148h120z" />
    <glyph glyph-name="hungarumlaut.case" horiz-adv-x="467" 
d="M40 715l104 148h116l-122 -148h-98zM208 715l103 148h116l-122 -148h-97z" />
    <glyph glyph-name="macron.case" horiz-adv-x="370" 
d="M40 809h290v-80h-290v80z" />
    <glyph glyph-name="ring.case" horiz-adv-x="289" 
d="M144 700q-43 0 -73.5 30.5t-30.5 73.5q0 44 30.5 74t73.5 30q44 0 74.5 -30t30.5 -74q0 -43 -30.5 -73.5t-74.5 -30.5zM144 750q23 0 38.5 15.5t15.5 38.5t-15.5 38.5t-38.5 15.5t-38.5 -15.5t-15.5 -38.5q0 -22 16 -38t38 -16z" />
    <glyph glyph-name="tilde.case" horiz-adv-x="426" 
d="M40 711q0 67 28 108t78 41q29 0 52.5 -15t41.5 -30t32 -15q18 0 27.5 16.5t9.5 43.5h77q0 -67 -28 -108t-78 -41q-29 0 -52.5 15t-41.5 30t-32 15q-18 0 -27.5 -16.5t-9.5 -43.5h-77z" />
    </font>
</defs>
</svg>
